M48
; DRILL file {KiCad 9.0.5} date 2025-10-23T02:30:20+0200
; FORMAT={-:-/ absolute / metric / decimal}
; #@! TF.CreationDate,2025-10-23T02:30:20+02:00
; #@! TF.GenerationSoftware,Kicad,Pcbnew,9.0.5
; #@! TF.FileFunction,Plated,1,2,PTH
FMAT,2
METRIC
; #@! TA.AperFunction,Plated,PTH,ViaDrill
T1C0.300
; #@! TA.AperFunction,Plated,PTH,ViaDrill
T2C0.500
; #@! TA.AperFunction,Plated,PTH,ComponentDrill
T3C0.800
; #@! TA.AperFunction,Plated,PTH,ComponentDrill
T4C1.000
; #@! TA.AperFunction,Plated,PTH,ComponentDrill
T5C1.100
; #@! TA.AperFunction,Plated,PTH,ComponentDrill
T6C3.200
%
G90
G05
T1
X40.249Y-86.201
X40.91Y-98.952
X42.23Y-79.14
X42.942Y-104.641
X44.364Y-95.904
X44.618Y-98.545
X44.872Y-90.671
X45.786Y-82.645
X46.904Y-107.08
X48.631Y-90.112
X49.139Y-83.712
X50.054Y-90.62
X50.257Y-85.49
X50.409Y-67.76
X50.663Y-81.426
X51.171Y-76.549
X51.781Y-90.214
X52.39Y-82.899
X53.203Y-78.682
X53.757Y-87.028
X54.88Y-85.439
X55.413Y-89.718
X56.658Y-79.343
X56.759Y-72.84
X59.706Y-86.404
X59.858Y-115.309
X60.722Y-98.24
X61.382Y-89.503
X62.012Y-70.518
X62.347Y-107.588
X63.109Y-74.415
X63.82Y-81.527
X67.092Y-70.645
X67.884Y-65.17
X68.997Y-113.444
X69.69Y-72.516
X70.14Y-111.285
X71.898Y-101.695
X72.05Y-70.046
X72.05Y-71.824
X72.177Y-77.666
X72.177Y-91.382
X72.431Y-83.635
X72.431Y-94.049
X73.218Y-66.541
X74.336Y-89.731
X74.458Y-107.221
X74.463Y-70.935
X74.463Y-92.398
X74.59Y-75.507
X74.59Y-81.984
X74.712Y-112.047
X74.844Y-101.644
X75.301Y-114.7
X77.633Y-110.65
X78.141Y-91.346
X78.69Y-108.016
X79.665Y-93.378
X79.772Y-97.174
X79.919Y-111.412
X80.173Y-88.171
X80.3Y-102.649
X81.189Y-94.521
X81.69Y-70.516
X82.261Y-115.563
X85.512Y-99.968
X87.031Y-92.743
X87.158Y-88.044
X87.158Y-90.33
X87.163Y-66.49
X87.163Y-70.046
X87.163Y-70.808
X87.163Y-74.364
X87.163Y-75.126
X87.163Y-78.682
X87.163Y-81.857
X87.163Y-83.762
X89.444Y-88.044
X89.444Y-90.33
X89.449Y-74.364
X89.449Y-75.126
X89.449Y-78.682
X89.449Y-81.857
X89.449Y-83.762
X89.525Y-112.414
X89.571Y-92.743
X89.576Y-66.363
X89.576Y-70.046
X89.576Y-70.808
X90.46Y-99.728
X91.603Y-102.903
X93.538Y-107.13
X95.774Y-99.561
X96.556Y-108.999
X96.69Y-70.516
X97.572Y-104.173
X98.715Y-111.158
X99.33Y-87.674
X100.62Y-108.11
X102.733Y-64.916
X105.192Y-106.078
X105.273Y-100.12
X105.629Y-86.201
X107.732Y-102.268
X109.032Y-113.785
X109.129Y-102.141
X109.69Y-70.516
X110.145Y-102.903
X110.399Y-100.617
X111.415Y-103.665
X112.558Y-103.411
X112.812Y-106.586
X113.046Y-94.227
X113.447Y-100.871
X115.352Y-108.11
X115.606Y-101.125
X117.511Y-103.157
X117.668Y-109.162
X117.973Y-101.238
X120.94Y-108.11
X121.702Y-101.125
X122.972Y-102.903
X123.815Y-92.957
X124.018Y-65.17
X124.018Y-113.125
X124.242Y-102.141
X124.69Y-70.516
X124.75Y-100.363
X124.877Y-111.539
X125.131Y-102.903
X127.925Y-103.03
X128.179Y-108.11
X128.433Y-100.998
X129.556Y-86.048
X130.719Y-101.125
X132.045Y-113.277
X133.005Y-105.951
X133.64Y-100.871
X133.767Y-103.03
X134.483Y-104.387
X135.545Y-101.252
X137.323Y-104.046
X138.09Y-107.943
X138.212Y-105.443
X138.69Y-70.516
X138.847Y-102.395
X139.563Y-113.226
X139.868Y-99.206
X140.117Y-103.919
X141.26Y-106.205
X141.748Y-86.709
X143.292Y-104.427
X143.322Y-102.762
X144.562Y-106.459
X144.943Y-105.443
X145.558Y-93.313
X145.832Y-104.427
X146.218Y-64.966
X146.594Y-103.665
X148.88Y-95.664
X150.023Y-111.539
X150.658Y-108.872
X150.69Y-70.516
X151.039Y-106.84
X151.349Y-87.42
X152.182Y-103.919
X152.944Y-106.713
X153.071Y-105.189
X153.706Y-110.523
X155.23Y-100.617
X155.819Y-90.011
X156.246Y-109.761
X156.378Y-112.718
X156.754Y-102.141
X157.643Y-95.537
X157.897Y-103.538
X159.324Y-104.692
X159.802Y-100.871
X163.358Y-100.744
X163.693Y-94.888
X163.795Y-97.58
X163.993Y-87.663
X163.993Y-92.87
X164.125Y-81.476
X164.125Y-83.889
X164.247Y-103.792
X164.374Y-99.474
X165.136Y-112.555
X166.025Y-98.331
X166.406Y-100.617
X166.66Y-81.567
X167.168Y-102.776
X167.93Y-88.044
X168.057Y-90.33
X168.057Y-92.87
X168.057Y-95.41
X168.057Y-97.823
X168.565Y-110.777
X168.819Y-100.49
X168.946Y-84.107
X170.216Y-99.22
X170.343Y-92.616
X170.343Y-95.283
X170.343Y-101.76
X170.47Y-89.949
X170.47Y-90.711
X170.47Y-97.696
X170.597Y-88.044
X170.851Y-109.634
X171.359Y-107.221
X171.994Y-97.95
X172.121Y-82.075
X172.883Y-77.503
X173.645Y-95.156
X173.65Y-110.026
X175.169Y-100.363
X175.377Y-69.437
X175.423Y-89.949
X175.677Y-98.077
X176.058Y-86.266
X176.312Y-102.903
X177.074Y-76.233
T2
X73.32Y-68.268
X73.32Y-102.558
X76.998Y-109.253
X79.919Y-108.237
X88.306Y-68.268
X88.306Y-102.558
X153.579Y-68.268
X160.437Y-68.105
X166.406Y-68.105
X168.946Y-98.966
X169.327Y-87.409
X172.248Y-86.52
X173.899Y-81.44
X179.233Y-75.852
T3
X66.658Y-109.756
X69.198Y-109.756
X71.738Y-109.756
X81.658Y-109.756
X84.198Y-109.756
X86.738Y-109.756
X106.658Y-109.756
X109.198Y-109.756
X111.738Y-109.756
X121.658Y-109.756
X124.198Y-109.756
X126.738Y-109.756
X146.658Y-109.756
X149.198Y-109.756
X151.738Y-109.756
X161.658Y-109.756
X164.198Y-109.756
X166.738Y-109.756
T4
X177.963Y-78.9
X177.963Y-81.44
X177.963Y-83.98
X177.963Y-86.52
X177.963Y-89.06
X177.963Y-91.6
X177.963Y-94.14
X177.963Y-96.68
X177.963Y-99.22
X177.963Y-101.76
X180.503Y-78.9
X180.503Y-81.44
X180.503Y-83.98
X180.503Y-86.52
X180.503Y-89.06
X180.503Y-91.6
X180.503Y-94.14
X180.503Y-96.68
X180.503Y-99.22
X180.503Y-101.76
T5
X42.586Y-102.304
X52.746Y-102.304
X66.658Y-112.276
X71.738Y-112.276
X81.658Y-112.276
X86.738Y-112.276
X106.658Y-112.276
X111.738Y-112.276
X121.658Y-112.276
X126.738Y-112.276
X146.658Y-112.276
X151.738Y-112.276
X161.658Y-112.276
X166.738Y-112.276
T6
X43.198Y-68.516
X43.198Y-112.516
X181.198Y-68.516
X181.198Y-112.516
T4
X53.948Y-107.016G85X51.448Y-107.016
G05
X53.698Y-113.016G85X51.698Y-113.016
G05
X57.398Y-111.016G85X57.398Y-109.016
G05
M30
