G04 #@! TF.GenerationSoftware,KiCad,Pcbnew,9.0.5*
G04 #@! TF.CreationDate,2025-10-23T02:30:18+02:00*
G04 #@! TF.ProjectId,supply-board,73757070-6c79-42d6-926f-6172642e6b69,1.0a*
G04 #@! TF.SameCoordinates,Original*
G04 #@! TF.FileFunction,Soldermask,Bot*
G04 #@! TF.FilePolarity,Negative*
%FSLAX46Y46*%
G04 Gerber Fmt 4.6, Leading zero omitted, Abs format (unit mm)*
G04 Created by KiCad (PCBNEW 9.0.5) date 2025-10-23 02:30:18*
%MOMM*%
%LPD*%
G01*
G04 APERTURE LIST*
G04 Aperture macros list*
%AMRoundRect*
0 Rectangle with rounded corners*
0 $1 Rounding radius*
0 $2 $3 $4 $5 $6 $7 $8 $9 X,Y pos of 4 corners*
0 Add a 4 corners polygon primitive as box body*
4,1,4,$2,$3,$4,$5,$6,$7,$8,$9,$2,$3,0*
0 Add four circle primitives for the rounded corners*
1,1,$1+$1,$2,$3*
1,1,$1+$1,$4,$5*
1,1,$1+$1,$6,$7*
1,1,$1+$1,$8,$9*
0 Add four rect primitives between the rounded corners*
20,1,$1+$1,$2,$3,$4,$5,0*
20,1,$1+$1,$4,$5,$6,$7,0*
20,1,$1+$1,$6,$7,$8,$9,0*
20,1,$1+$1,$8,$9,$2,$3,0*%
G04 Aperture macros list end*
%ADD10C,6.400000*%
%ADD11C,1.500000*%
%ADD12C,1.800000*%
%ADD13RoundRect,1.000000X1.250000X0.000010X-1.250000X0.000010X-1.250000X-0.000010X1.250000X-0.000010X0*%
%ADD14RoundRect,1.000000X1.000000X0.000010X-1.000000X0.000010X-1.000000X-0.000010X1.000000X-0.000010X0*%
%ADD15RoundRect,1.000000X0.000010X1.000000X-0.000010X1.000000X-0.000010X-1.000000X0.000010X-1.000000X0*%
%ADD16RoundRect,0.250000X-0.600000X-0.600000X0.600000X-0.600000X0.600000X0.600000X-0.600000X0.600000X0*%
%ADD17C,1.700000*%
%ADD18RoundRect,0.249999X-0.850001X-0.850001X0.850001X-0.850001X0.850001X0.850001X-0.850001X0.850001X0*%
%ADD19C,2.200000*%
G04 APERTURE END LIST*
D10*
X181198000Y-68516400D03*
D11*
X66658000Y-109756400D03*
X69198000Y-109756400D03*
X71738000Y-109756400D03*
D12*
X71738000Y-112276400D03*
X66658000Y-112276400D03*
D10*
X181198000Y-112516400D03*
X43198000Y-112516400D03*
D11*
X121658000Y-109756400D03*
X124198000Y-109756400D03*
X126738000Y-109756400D03*
D12*
X126738000Y-112276400D03*
X121658000Y-112276400D03*
D11*
X161658000Y-109756400D03*
X164198000Y-109756400D03*
X166738000Y-109756400D03*
D12*
X166738000Y-112276400D03*
X161658000Y-112276400D03*
D11*
X106658000Y-109756400D03*
X109198000Y-109756400D03*
X111738000Y-109756400D03*
D12*
X111738000Y-112276400D03*
X106658000Y-112276400D03*
D13*
X52698000Y-107016400D03*
D14*
X52698000Y-113016400D03*
D15*
X57398000Y-110016400D03*
D11*
X146658000Y-109756400D03*
X149198000Y-109756400D03*
X151738000Y-109756400D03*
D12*
X151738000Y-112276400D03*
X146658000Y-112276400D03*
D11*
X81658000Y-109756400D03*
X84198000Y-109756400D03*
X86738000Y-109756400D03*
D12*
X86738000Y-112276400D03*
X81658000Y-112276400D03*
D16*
X177963000Y-78900400D03*
D17*
X180503000Y-78900400D03*
X177963000Y-81440400D03*
X180503000Y-81440400D03*
X177963000Y-83980400D03*
X180503000Y-83980400D03*
X177963000Y-86520400D03*
X180503000Y-86520400D03*
X177963000Y-89060400D03*
X180503000Y-89060400D03*
X177963000Y-91600400D03*
X180503000Y-91600400D03*
X177963000Y-94140400D03*
X180503000Y-94140400D03*
X177963000Y-96680400D03*
X180503000Y-96680400D03*
X177963000Y-99220400D03*
X180503000Y-99220400D03*
X177963000Y-101760400D03*
X180503000Y-101760400D03*
D18*
X42586000Y-102304400D03*
D19*
X52746000Y-102304400D03*
D10*
X43198000Y-68516400D03*
M02*
