G04 #@! TF.GenerationSoftware,KiCad,Pcbnew,9.0.5*
G04 #@! TF.CreationDate,2025-10-23T02:28:29+02:00*
G04 #@! TF.ProjectId,main-board,6d61696e-2d62-46f6-9172-642e6b696361,1.0a*
G04 #@! TF.SameCoordinates,Original*
G04 #@! TF.FileFunction,Paste,Bot*
G04 #@! TF.FilePolarity,Positive*
%FSLAX46Y46*%
G04 Gerber Fmt 4.6, Leading zero omitted, Abs format (unit mm)*
G04 Created by KiCad (PCBNEW 9.0.5) date 2025-10-23 02:28:29*
%MOMM*%
%LPD*%
G01*
G04 APERTURE LIST*
G04 Aperture macros list*
%AMRoundRect*
0 Rectangle with rounded corners*
0 $1 Rounding radius*
0 $2 $3 $4 $5 $6 $7 $8 $9 X,Y pos of 4 corners*
0 Add a 4 corners polygon primitive as box body*
4,1,4,$2,$3,$4,$5,$6,$7,$8,$9,$2,$3,0*
0 Add four circle primitives for the rounded corners*
1,1,$1+$1,$2,$3*
1,1,$1+$1,$4,$5*
1,1,$1+$1,$6,$7*
1,1,$1+$1,$8,$9*
0 Add four rect primitives between the rounded corners*
20,1,$1+$1,$2,$3,$4,$5,0*
20,1,$1+$1,$4,$5,$6,$7,0*
20,1,$1+$1,$6,$7,$8,$9,0*
20,1,$1+$1,$8,$9,$2,$3,0*%
G04 Aperture macros list end*
%ADD10RoundRect,0.250000X-0.337500X-0.475000X0.337500X-0.475000X0.337500X0.475000X-0.337500X0.475000X0*%
%ADD11RoundRect,0.250000X0.475000X-0.337500X0.475000X0.337500X-0.475000X0.337500X-0.475000X-0.337500X0*%
%ADD12RoundRect,0.250000X-0.475000X0.337500X-0.475000X-0.337500X0.475000X-0.337500X0.475000X0.337500X0*%
%ADD13RoundRect,0.250000X0.337500X0.475000X-0.337500X0.475000X-0.337500X-0.475000X0.337500X-0.475000X0*%
%ADD14RoundRect,0.250000X0.450000X-0.325000X0.450000X0.325000X-0.450000X0.325000X-0.450000X-0.325000X0*%
%ADD15RoundRect,0.250000X-0.650000X0.412500X-0.650000X-0.412500X0.650000X-0.412500X0.650000X0.412500X0*%
G04 APERTURE END LIST*
D10*
X117054200Y-62230000D03*
X119129200Y-62230000D03*
X78868200Y-65786000D03*
X80943200Y-65786000D03*
D11*
X83229200Y-68877000D03*
X83229200Y-66802000D03*
D12*
X90468200Y-60811500D03*
X90468200Y-62886500D03*
X134834200Y-64092000D03*
X134834200Y-66167000D03*
D10*
X117181200Y-69342000D03*
X119256200Y-69342000D03*
X74317700Y-98933000D03*
X76392700Y-98933000D03*
D12*
X90468200Y-65743000D03*
X90468200Y-67818000D03*
D10*
X117181200Y-71374000D03*
X119256200Y-71374000D03*
D11*
X88055200Y-72898000D03*
X88055200Y-70823000D03*
D13*
X134961200Y-73406000D03*
X132886200Y-73406000D03*
D10*
X117181200Y-67183000D03*
X119256200Y-67183000D03*
X78995200Y-73406000D03*
X81070200Y-73406000D03*
D11*
X86023200Y-72919500D03*
X86023200Y-70844500D03*
D10*
X78995200Y-71374000D03*
X81070200Y-71374000D03*
X117011200Y-56261000D03*
X119086200Y-56261000D03*
D13*
X66994700Y-96647000D03*
X64919700Y-96647000D03*
D10*
X117054200Y-60198000D03*
X119129200Y-60198000D03*
D12*
X134834200Y-56218000D03*
X134834200Y-58293000D03*
D13*
X129500200Y-73406000D03*
X127425200Y-73406000D03*
D14*
X122769200Y-69351000D03*
X122769200Y-67301000D03*
D13*
X66994700Y-93980000D03*
X64919700Y-93980000D03*
D10*
X78868200Y-63754000D03*
X80943200Y-63754000D03*
D12*
X88182200Y-60811500D03*
X88182200Y-62886500D03*
D15*
X125055200Y-67398500D03*
X125055200Y-70523500D03*
D12*
X134834200Y-60198000D03*
X134834200Y-62273000D03*
D10*
X117181200Y-73406000D03*
X119256200Y-73406000D03*
D11*
X122769200Y-73533000D03*
X122769200Y-71458000D03*
D10*
X78868200Y-61087000D03*
X80943200Y-61087000D03*
M02*
