G04 #@! TF.GenerationSoftware,KiCad,Pcbnew,9.0.5*
G04 #@! TF.CreationDate,2025-10-23T02:28:29+02:00*
G04 #@! TF.ProjectId,main-board,6d61696e-2d62-46f6-9172-642e6b696361,1.0a*
G04 #@! TF.SameCoordinates,Original*
G04 #@! TF.FileFunction,Copper,L1,Top*
G04 #@! TF.FilePolarity,Positive*
%FSLAX46Y46*%
G04 Gerber Fmt 4.6, Leading zero omitted, Abs format (unit mm)*
G04 Created by KiCad (PCBNEW 9.0.5) date 2025-10-23 02:28:29*
%MOMM*%
%LPD*%
G01*
G04 APERTURE LIST*
G04 Aperture macros list*
%AMRoundRect*
0 Rectangle with rounded corners*
0 $1 Rounding radius*
0 $2 $3 $4 $5 $6 $7 $8 $9 X,Y pos of 4 corners*
0 Add a 4 corners polygon primitive as box body*
4,1,4,$2,$3,$4,$5,$6,$7,$8,$9,$2,$3,0*
0 Add four circle primitives for the rounded corners*
1,1,$1+$1,$2,$3*
1,1,$1+$1,$4,$5*
1,1,$1+$1,$6,$7*
1,1,$1+$1,$8,$9*
0 Add four rect primitives between the rounded corners*
20,1,$1+$1,$2,$3,$4,$5,0*
20,1,$1+$1,$4,$5,$6,$7,0*
20,1,$1+$1,$6,$7,$8,$9,0*
20,1,$1+$1,$8,$9,$2,$3,0*%
G04 Aperture macros list end*
G04 #@! TA.AperFunction,SMDPad,CuDef*
%ADD10RoundRect,0.250000X-0.350000X-0.450000X0.350000X-0.450000X0.350000X0.450000X-0.350000X0.450000X0*%
G04 #@! TD*
G04 #@! TA.AperFunction,SMDPad,CuDef*
%ADD11RoundRect,0.250000X0.475000X-0.337500X0.475000X0.337500X-0.475000X0.337500X-0.475000X-0.337500X0*%
G04 #@! TD*
G04 #@! TA.AperFunction,SMDPad,CuDef*
%ADD12RoundRect,0.162500X-0.162500X0.617500X-0.162500X-0.617500X0.162500X-0.617500X0.162500X0.617500X0*%
G04 #@! TD*
G04 #@! TA.AperFunction,SMDPad,CuDef*
%ADD13RoundRect,0.175000X-0.175000X-0.325000X0.175000X-0.325000X0.175000X0.325000X-0.175000X0.325000X0*%
G04 #@! TD*
G04 #@! TA.AperFunction,SMDPad,CuDef*
%ADD14RoundRect,0.150000X-0.200000X-0.150000X0.200000X-0.150000X0.200000X0.150000X-0.200000X0.150000X0*%
G04 #@! TD*
G04 #@! TA.AperFunction,SMDPad,CuDef*
%ADD15RoundRect,0.250000X-0.450000X0.350000X-0.450000X-0.350000X0.450000X-0.350000X0.450000X0.350000X0*%
G04 #@! TD*
G04 #@! TA.AperFunction,SMDPad,CuDef*
%ADD16RoundRect,0.250000X-0.337500X-0.475000X0.337500X-0.475000X0.337500X0.475000X-0.337500X0.475000X0*%
G04 #@! TD*
G04 #@! TA.AperFunction,SMDPad,CuDef*
%ADD17RoundRect,0.250000X0.450000X-0.350000X0.450000X0.350000X-0.450000X0.350000X-0.450000X-0.350000X0*%
G04 #@! TD*
G04 #@! TA.AperFunction,SMDPad,CuDef*
%ADD18RoundRect,0.250000X-0.475000X0.337500X-0.475000X-0.337500X0.475000X-0.337500X0.475000X0.337500X0*%
G04 #@! TD*
G04 #@! TA.AperFunction,SMDPad,CuDef*
%ADD19RoundRect,0.250000X0.575000X-0.725000X0.575000X0.725000X-0.575000X0.725000X-0.575000X-0.725000X0*%
G04 #@! TD*
G04 #@! TA.AperFunction,SMDPad,CuDef*
%ADD20RoundRect,0.062500X0.062500X-0.375000X0.062500X0.375000X-0.062500X0.375000X-0.062500X-0.375000X0*%
G04 #@! TD*
G04 #@! TA.AperFunction,SMDPad,CuDef*
%ADD21RoundRect,0.062500X0.375000X-0.062500X0.375000X0.062500X-0.375000X0.062500X-0.375000X-0.062500X0*%
G04 #@! TD*
G04 #@! TA.AperFunction,HeatsinkPad*
%ADD22R,3.450000X3.450000*%
G04 #@! TD*
G04 #@! TA.AperFunction,SMDPad,CuDef*
%ADD23RoundRect,0.150000X-0.150000X-0.425000X0.150000X-0.425000X0.150000X0.425000X-0.150000X0.425000X0*%
G04 #@! TD*
G04 #@! TA.AperFunction,SMDPad,CuDef*
%ADD24RoundRect,0.075000X-0.075000X-0.500000X0.075000X-0.500000X0.075000X0.500000X-0.075000X0.500000X0*%
G04 #@! TD*
G04 #@! TA.AperFunction,HeatsinkPad*
%ADD25O,1.000000X2.100000*%
G04 #@! TD*
G04 #@! TA.AperFunction,HeatsinkPad*
%ADD26O,1.000000X1.800000*%
G04 #@! TD*
G04 #@! TA.AperFunction,ComponentPad*
%ADD27C,2.300000*%
G04 #@! TD*
G04 #@! TA.AperFunction,ComponentPad*
%ADD28C,3.600000*%
G04 #@! TD*
G04 #@! TA.AperFunction,ComponentPad*
%ADD29RoundRect,0.250000X-0.600000X-0.600000X0.600000X-0.600000X0.600000X0.600000X-0.600000X0.600000X0*%
G04 #@! TD*
G04 #@! TA.AperFunction,ComponentPad*
%ADD30C,1.700000*%
G04 #@! TD*
G04 #@! TA.AperFunction,SMDPad,CuDef*
%ADD31RoundRect,0.175000X-0.325000X0.175000X-0.325000X-0.175000X0.325000X-0.175000X0.325000X0.175000X0*%
G04 #@! TD*
G04 #@! TA.AperFunction,SMDPad,CuDef*
%ADD32RoundRect,0.150000X-0.150000X0.200000X-0.150000X-0.200000X0.150000X-0.200000X0.150000X0.200000X0*%
G04 #@! TD*
G04 #@! TA.AperFunction,SMDPad,CuDef*
%ADD33RoundRect,0.250000X-0.412500X-0.650000X0.412500X-0.650000X0.412500X0.650000X-0.412500X0.650000X0*%
G04 #@! TD*
G04 #@! TA.AperFunction,ComponentPad*
%ADD34C,6.400000*%
G04 #@! TD*
G04 #@! TA.AperFunction,SMDPad,CuDef*
%ADD35RoundRect,0.112500X1.037500X-0.262500X1.037500X0.262500X-1.037500X0.262500X-1.037500X-0.262500X0*%
G04 #@! TD*
G04 #@! TA.AperFunction,ComponentPad*
%ADD36RoundRect,0.250000X0.600000X-0.600000X0.600000X0.600000X-0.600000X0.600000X-0.600000X-0.600000X0*%
G04 #@! TD*
G04 #@! TA.AperFunction,SMDPad,CuDef*
%ADD37C,1.500000*%
G04 #@! TD*
G04 #@! TA.AperFunction,SMDPad,CuDef*
%ADD38RoundRect,0.250000X0.337500X0.475000X-0.337500X0.475000X-0.337500X-0.475000X0.337500X-0.475000X0*%
G04 #@! TD*
G04 #@! TA.AperFunction,SMDPad,CuDef*
%ADD39RoundRect,0.250000X0.350000X0.450000X-0.350000X0.450000X-0.350000X-0.450000X0.350000X-0.450000X0*%
G04 #@! TD*
G04 #@! TA.AperFunction,SMDPad,CuDef*
%ADD40RoundRect,0.250000X-0.325000X-0.450000X0.325000X-0.450000X0.325000X0.450000X-0.325000X0.450000X0*%
G04 #@! TD*
G04 #@! TA.AperFunction,SMDPad,CuDef*
%ADD41RoundRect,0.225000X0.225000X0.375000X-0.225000X0.375000X-0.225000X-0.375000X0.225000X-0.375000X0*%
G04 #@! TD*
G04 #@! TA.AperFunction,SMDPad,CuDef*
%ADD42RoundRect,0.250000X0.650000X-0.412500X0.650000X0.412500X-0.650000X0.412500X-0.650000X-0.412500X0*%
G04 #@! TD*
G04 #@! TA.AperFunction,SMDPad,CuDef*
%ADD43RoundRect,0.075000X0.075000X-0.662500X0.075000X0.662500X-0.075000X0.662500X-0.075000X-0.662500X0*%
G04 #@! TD*
G04 #@! TA.AperFunction,SMDPad,CuDef*
%ADD44RoundRect,0.075000X0.662500X-0.075000X0.662500X0.075000X-0.662500X0.075000X-0.662500X-0.075000X0*%
G04 #@! TD*
G04 #@! TA.AperFunction,HeatsinkPad*
%ADD45R,4.000000X4.000000*%
G04 #@! TD*
G04 #@! TA.AperFunction,SMDPad,CuDef*
%ADD46RoundRect,0.075000X-0.725000X-0.075000X0.725000X-0.075000X0.725000X0.075000X-0.725000X0.075000X0*%
G04 #@! TD*
G04 #@! TA.AperFunction,SMDPad,CuDef*
%ADD47RoundRect,0.075000X-0.075000X-0.725000X0.075000X-0.725000X0.075000X0.725000X-0.075000X0.725000X0*%
G04 #@! TD*
G04 #@! TA.AperFunction,ViaPad*
%ADD48C,0.600000*%
G04 #@! TD*
G04 #@! TA.AperFunction,ViaPad*
%ADD49C,1.000000*%
G04 #@! TD*
G04 #@! TA.AperFunction,Conductor*
%ADD50C,0.349250*%
G04 #@! TD*
G04 #@! TA.AperFunction,Conductor*
%ADD51C,0.250000*%
G04 #@! TD*
G04 #@! TA.AperFunction,Conductor*
%ADD52C,0.600000*%
G04 #@! TD*
G04 #@! TA.AperFunction,Conductor*
%ADD53C,0.350000*%
G04 #@! TD*
G04 #@! TA.AperFunction,Conductor*
%ADD54C,0.315468*%
G04 #@! TD*
G04 #@! TA.AperFunction,Conductor*
%ADD55C,0.160000*%
G04 #@! TD*
G04 APERTURE END LIST*
D10*
X100169200Y-76581000D03*
X102169200Y-76581000D03*
D11*
X125647200Y-51964500D03*
X125647200Y-49889500D03*
D12*
X104245200Y-90598000D03*
X103295200Y-90598000D03*
X102345200Y-90598000D03*
X102345200Y-93298000D03*
X103295200Y-93298000D03*
X104245200Y-93298000D03*
D13*
X94437200Y-103070000D03*
D14*
X94437200Y-104770000D03*
X96437200Y-104770000D03*
X96437200Y-102870000D03*
D15*
X138347200Y-95266000D03*
X138347200Y-97266000D03*
D16*
X122069700Y-85090000D03*
X124144700Y-85090000D03*
D17*
X139744200Y-76803000D03*
X139744200Y-74803000D03*
D18*
X79165200Y-89005500D03*
X79165200Y-91080500D03*
D19*
X124207200Y-82655000D03*
X124207200Y-79905000D03*
X122007200Y-79905000D03*
X122007200Y-82655000D03*
D20*
X69823200Y-98347000D03*
X70323200Y-98347000D03*
X70823200Y-98347000D03*
X71323200Y-98347000D03*
X71823200Y-98347000D03*
X72323200Y-98347000D03*
X72823200Y-98347000D03*
X73323200Y-98347000D03*
D21*
X74010700Y-97659500D03*
X74010700Y-97159500D03*
X74010700Y-96659500D03*
X74010700Y-96159500D03*
X74010700Y-95659500D03*
X74010700Y-95159500D03*
X74010700Y-94659500D03*
X74010700Y-94159500D03*
D20*
X73323200Y-93472000D03*
X72823200Y-93472000D03*
X72323200Y-93472000D03*
X71823200Y-93472000D03*
X71323200Y-93472000D03*
X70823200Y-93472000D03*
X70323200Y-93472000D03*
X69823200Y-93472000D03*
D21*
X69135700Y-94159500D03*
X69135700Y-94659500D03*
X69135700Y-95159500D03*
X69135700Y-95659500D03*
X69135700Y-96159500D03*
X69135700Y-96659500D03*
X69135700Y-97159500D03*
X69135700Y-97659500D03*
D22*
X71573200Y-95909500D03*
D10*
X73101200Y-52832000D03*
X75101200Y-52832000D03*
D23*
X68159200Y-106682000D03*
X68959200Y-106682000D03*
D24*
X70109200Y-106682000D03*
X71109200Y-106682000D03*
X71609200Y-106682000D03*
X72609200Y-106682000D03*
D23*
X73759200Y-106682000D03*
X74559200Y-106682000D03*
X74559200Y-106682000D03*
X73759200Y-106682000D03*
D24*
X73109200Y-106682000D03*
X72109200Y-106682000D03*
X70609200Y-106682000D03*
X69609200Y-106682000D03*
D23*
X68959200Y-106682000D03*
X68159200Y-106682000D03*
D25*
X67039200Y-107257000D03*
D26*
X67039200Y-111437000D03*
D25*
X75679200Y-107257000D03*
D26*
X75679200Y-111437000D03*
D27*
X103359200Y-104762000D03*
D28*
X106659200Y-108062000D03*
X106659200Y-101462000D03*
X100059200Y-108062000D03*
X100059200Y-101462000D03*
D10*
X73085200Y-54864000D03*
X75085200Y-54864000D03*
D15*
X100247200Y-95266000D03*
X100247200Y-97266000D03*
D29*
X145205200Y-61214000D03*
D30*
X147745200Y-61214000D03*
X145205200Y-63754000D03*
X147745200Y-63754000D03*
X145205200Y-66294000D03*
X147745200Y-66294000D03*
X145205200Y-68834000D03*
X147745200Y-68834000D03*
X145205200Y-71374000D03*
X147745200Y-71374000D03*
D31*
X74327200Y-99838000D03*
D32*
X72627200Y-99838000D03*
X72627200Y-101838000D03*
X74527200Y-101838000D03*
D33*
X129634200Y-87376000D03*
X132759200Y-87376000D03*
D34*
X147359200Y-44762000D03*
D19*
X71545200Y-68282000D03*
X71545200Y-65532000D03*
X69345200Y-65532000D03*
X69345200Y-68282000D03*
D35*
X62782200Y-65151000D03*
X58972200Y-65151000D03*
X62782200Y-63881000D03*
X58972200Y-63881000D03*
X62782200Y-62611000D03*
X58972200Y-62611000D03*
X62782200Y-61341000D03*
X58972200Y-61341000D03*
X62782200Y-60071000D03*
X58972200Y-60071000D03*
X62782200Y-58801000D03*
X58972200Y-58801000D03*
X62782200Y-57531000D03*
X58972200Y-57531000D03*
D34*
X59359200Y-44762000D03*
D36*
X108756200Y-46863000D03*
D30*
X108756200Y-44323000D03*
X111296200Y-46863000D03*
X111296200Y-44323000D03*
X113836200Y-46863000D03*
X113836200Y-44323000D03*
X116376200Y-46863000D03*
X116376200Y-44323000D03*
X118916200Y-46863000D03*
X118916200Y-44323000D03*
D10*
X66878200Y-100457000D03*
X68878200Y-100457000D03*
D37*
X128568200Y-45593000D03*
D29*
X58718200Y-73406000D03*
D30*
X61258200Y-73406000D03*
X58718200Y-75946000D03*
X61258200Y-75946000D03*
X58718200Y-78486000D03*
X61258200Y-78486000D03*
X58718200Y-81026000D03*
X61258200Y-81026000D03*
X58718200Y-83566000D03*
X61258200Y-83566000D03*
X58718200Y-86106000D03*
X61258200Y-86106000D03*
X58718200Y-88646000D03*
X61258200Y-88646000D03*
X58718200Y-91186000D03*
X61258200Y-91186000D03*
X58718200Y-93726000D03*
X61258200Y-93726000D03*
X58718200Y-96266000D03*
X61258200Y-96266000D03*
D10*
X110439200Y-59563000D03*
X112439200Y-59563000D03*
D15*
X90341200Y-95266000D03*
X90341200Y-97266000D03*
D11*
X96818200Y-64940000D03*
X96818200Y-62865000D03*
D18*
X87039200Y-95228500D03*
X87039200Y-97303500D03*
D38*
X70804700Y-70739000D03*
X68729700Y-70739000D03*
D37*
X105022400Y-75844400D03*
D10*
X73101200Y-56896000D03*
X75101200Y-56896000D03*
D11*
X76244200Y-94150000D03*
X76244200Y-92075000D03*
D12*
X114913200Y-76501000D03*
X113963200Y-76501000D03*
X113013200Y-76501000D03*
X113013200Y-79201000D03*
X113963200Y-79201000D03*
X114913200Y-79201000D03*
D37*
X104819200Y-83058000D03*
X100330200Y-83058000D03*
D11*
X130473200Y-51964500D03*
X130473200Y-49889500D03*
D39*
X68846200Y-102362000D03*
X66846200Y-102362000D03*
D18*
X74847200Y-71860500D03*
X74847200Y-73935500D03*
D37*
X104565200Y-68326000D03*
D34*
X147359200Y-106762000D03*
D37*
X144824200Y-53594000D03*
D18*
X134791200Y-95250000D03*
X134791200Y-97325000D03*
D37*
X100374200Y-86868000D03*
X95802200Y-86868000D03*
D18*
X84245200Y-86465500D03*
X84245200Y-88540500D03*
X72815200Y-71860500D03*
X72815200Y-73935500D03*
D34*
X59359200Y-106762000D03*
D10*
X95802200Y-57150000D03*
X97802200Y-57150000D03*
D15*
X106343200Y-95266000D03*
X106343200Y-97266000D03*
D39*
X101374200Y-47656000D03*
X99374200Y-47656000D03*
D27*
X119359200Y-104762000D03*
D28*
X122659200Y-108062000D03*
X122659200Y-101462000D03*
X116059200Y-108062000D03*
X116059200Y-101462000D03*
D10*
X74101200Y-104394000D03*
X76101200Y-104394000D03*
D18*
X111296200Y-92815500D03*
X111296200Y-94890500D03*
D37*
X137077200Y-51943000D03*
D18*
X74593200Y-67796500D03*
X74593200Y-69871500D03*
D15*
X139744200Y-85233000D03*
X139744200Y-87233000D03*
D37*
X107460800Y-71018400D03*
D10*
X96834200Y-70231000D03*
X98834200Y-70231000D03*
D18*
X109746800Y-81766500D03*
X109746800Y-83841500D03*
D39*
X114471200Y-90170000D03*
X112471200Y-90170000D03*
D15*
X116249200Y-95266000D03*
X116249200Y-97266000D03*
D37*
X131870200Y-46990000D03*
D11*
X66973200Y-94531000D03*
X66973200Y-92456000D03*
D18*
X114344200Y-81915000D03*
X114344200Y-83990000D03*
D15*
X122345200Y-95266000D03*
X122345200Y-97266000D03*
D16*
X120545700Y-51816000D03*
X122620700Y-51816000D03*
D40*
X69250200Y-52832000D03*
X71300200Y-52832000D03*
D10*
X88976200Y-47402000D03*
X90976200Y-47402000D03*
X110439200Y-66802000D03*
X112439200Y-66802000D03*
D36*
X71164200Y-46863000D03*
D30*
X71164200Y-44323000D03*
X73704200Y-46863000D03*
X73704200Y-44323000D03*
X76244200Y-46863000D03*
X76244200Y-44323000D03*
X78784200Y-46863000D03*
X78784200Y-44323000D03*
X81324200Y-46863000D03*
X81324200Y-44323000D03*
D37*
X135299200Y-48768000D03*
D16*
X92732700Y-74930000D03*
X94807700Y-74930000D03*
D41*
X96816200Y-45878000D03*
X93516200Y-45878000D03*
D40*
X69250200Y-56896000D03*
X71300200Y-56896000D03*
D37*
X119551200Y-84455000D03*
X95780200Y-83058000D03*
D13*
X126441200Y-102948000D03*
D14*
X126441200Y-104648000D03*
X128441200Y-104648000D03*
X128441200Y-102748000D03*
D12*
X120313200Y-90598000D03*
X119363200Y-90598000D03*
X118413200Y-90598000D03*
X118413200Y-93298000D03*
X119363200Y-93298000D03*
X120313200Y-93298000D03*
D37*
X104819200Y-86868000D03*
X105073200Y-78359000D03*
X148507200Y-53721000D03*
X111677200Y-86487000D03*
D40*
X69250200Y-54864000D03*
X71300200Y-54864000D03*
D15*
X132251200Y-95266000D03*
X132251200Y-97266000D03*
D42*
X67989200Y-77254500D03*
X67989200Y-74129500D03*
D37*
X91230200Y-83058000D03*
X100882200Y-53848000D03*
D18*
X96818200Y-49657000D03*
X96818200Y-51732000D03*
D10*
X73085200Y-58928000D03*
X75085200Y-58928000D03*
D18*
X102787200Y-95228500D03*
X102787200Y-97303500D03*
D27*
X135359200Y-104762000D03*
D28*
X138659200Y-108062000D03*
X138659200Y-101462000D03*
X132059200Y-108062000D03*
X132059200Y-101462000D03*
D19*
X132335200Y-82528000D03*
X132335200Y-79778000D03*
X130135200Y-79778000D03*
X130135200Y-82528000D03*
D15*
X139744200Y-80169000D03*
X139744200Y-82169000D03*
D10*
X88976200Y-44452000D03*
X90976200Y-44452000D03*
X95818200Y-59055000D03*
X97818200Y-59055000D03*
X110423200Y-68834000D03*
X112423200Y-68834000D03*
D39*
X68862200Y-104394000D03*
X66862200Y-104394000D03*
D43*
X117254200Y-75238500D03*
X117754200Y-75238500D03*
X118254200Y-75238500D03*
X118754200Y-75238500D03*
X119254200Y-75238500D03*
X119754200Y-75238500D03*
X120254200Y-75238500D03*
X120754200Y-75238500D03*
X121254200Y-75238500D03*
X121754200Y-75238500D03*
X122254200Y-75238500D03*
X122754200Y-75238500D03*
X123254200Y-75238500D03*
X123754200Y-75238500D03*
X124254200Y-75238500D03*
X124754200Y-75238500D03*
X125254200Y-75238500D03*
X125754200Y-75238500D03*
X126254200Y-75238500D03*
X126754200Y-75238500D03*
X127254200Y-75238500D03*
X127754200Y-75238500D03*
X128254200Y-75238500D03*
X128754200Y-75238500D03*
X129254200Y-75238500D03*
X129754200Y-75238500D03*
X130254200Y-75238500D03*
X130754200Y-75238500D03*
X131254200Y-75238500D03*
X131754200Y-75238500D03*
X132254200Y-75238500D03*
X132754200Y-75238500D03*
X133254200Y-75238500D03*
X133754200Y-75238500D03*
X134254200Y-75238500D03*
X134754200Y-75238500D03*
D44*
X136666700Y-73326000D03*
X136666700Y-72826000D03*
X136666700Y-72326000D03*
X136666700Y-71826000D03*
X136666700Y-71326000D03*
X136666700Y-70826000D03*
X136666700Y-70326000D03*
X136666700Y-69826000D03*
X136666700Y-69326000D03*
X136666700Y-68826000D03*
X136666700Y-68326000D03*
X136666700Y-67826000D03*
X136666700Y-67326000D03*
X136666700Y-66826000D03*
X136666700Y-66326000D03*
X136666700Y-65826000D03*
X136666700Y-65326000D03*
X136666700Y-64826000D03*
X136666700Y-64326000D03*
X136666700Y-63826000D03*
X136666700Y-63326000D03*
X136666700Y-62826000D03*
X136666700Y-62326000D03*
X136666700Y-61826000D03*
X136666700Y-61326000D03*
X136666700Y-60826000D03*
X136666700Y-60326000D03*
X136666700Y-59826000D03*
X136666700Y-59326000D03*
X136666700Y-58826000D03*
X136666700Y-58326000D03*
X136666700Y-57826000D03*
X136666700Y-57326000D03*
X136666700Y-56826000D03*
X136666700Y-56326000D03*
X136666700Y-55826000D03*
D43*
X134754200Y-53913500D03*
X134254200Y-53913500D03*
X133754200Y-53913500D03*
X133254200Y-53913500D03*
X132754200Y-53913500D03*
X132254200Y-53913500D03*
X131754200Y-53913500D03*
X131254200Y-53913500D03*
X130754200Y-53913500D03*
X130254200Y-53913500D03*
X129754200Y-53913500D03*
X129254200Y-53913500D03*
X128754200Y-53913500D03*
X128254200Y-53913500D03*
X127754200Y-53913500D03*
X127254200Y-53913500D03*
X126754200Y-53913500D03*
X126254200Y-53913500D03*
X125754200Y-53913500D03*
X125254200Y-53913500D03*
X124754200Y-53913500D03*
X124254200Y-53913500D03*
X123754200Y-53913500D03*
X123254200Y-53913500D03*
X122754200Y-53913500D03*
X122254200Y-53913500D03*
X121754200Y-53913500D03*
X121254200Y-53913500D03*
X120754200Y-53913500D03*
X120254200Y-53913500D03*
X119754200Y-53913500D03*
X119254200Y-53913500D03*
X118754200Y-53913500D03*
X118254200Y-53913500D03*
X117754200Y-53913500D03*
X117254200Y-53913500D03*
D44*
X115341700Y-55826000D03*
X115341700Y-56326000D03*
X115341700Y-56826000D03*
X115341700Y-57326000D03*
X115341700Y-57826000D03*
X115341700Y-58326000D03*
X115341700Y-58826000D03*
X115341700Y-59326000D03*
X115341700Y-59826000D03*
X115341700Y-60326000D03*
X115341700Y-60826000D03*
X115341700Y-61326000D03*
X115341700Y-61826000D03*
X115341700Y-62326000D03*
X115341700Y-62826000D03*
X115341700Y-63326000D03*
X115341700Y-63826000D03*
X115341700Y-64326000D03*
X115341700Y-64826000D03*
X115341700Y-65326000D03*
X115341700Y-65826000D03*
X115341700Y-66326000D03*
X115341700Y-66826000D03*
X115341700Y-67326000D03*
X115341700Y-67826000D03*
X115341700Y-68326000D03*
X115341700Y-68826000D03*
X115341700Y-69326000D03*
X115341700Y-69826000D03*
X115341700Y-70326000D03*
X115341700Y-70826000D03*
X115341700Y-71326000D03*
X115341700Y-71826000D03*
X115341700Y-72326000D03*
X115341700Y-72826000D03*
X115341700Y-73326000D03*
D45*
X126004200Y-64576000D03*
D40*
X69250200Y-58928000D03*
X71300200Y-58928000D03*
D16*
X130092200Y-85090000D03*
X132167200Y-85090000D03*
D37*
X117011200Y-84455000D03*
D15*
X84499200Y-95266000D03*
X84499200Y-97266000D03*
D18*
X67227200Y-65743000D03*
X67227200Y-67818000D03*
D10*
X96834200Y-72136000D03*
X98834200Y-72136000D03*
D39*
X124234200Y-77597000D03*
X122234200Y-77597000D03*
D12*
X110356400Y-76548000D03*
X109406400Y-76548000D03*
X108456400Y-76548000D03*
X108456400Y-79248000D03*
X109406400Y-79248000D03*
X110356400Y-79248000D03*
X136249200Y-90598000D03*
X135299200Y-90598000D03*
X134349200Y-90598000D03*
X134349200Y-93298000D03*
X135299200Y-93298000D03*
X136249200Y-93298000D03*
D33*
X121544700Y-87376000D03*
X124669700Y-87376000D03*
D10*
X110439200Y-61468000D03*
X112439200Y-61468000D03*
D16*
X130451700Y-77470000D03*
X132526700Y-77470000D03*
D18*
X66973200Y-96498500D03*
X66973200Y-98573500D03*
X78403200Y-76813500D03*
X78403200Y-78888500D03*
X118789200Y-95228500D03*
X118789200Y-97303500D03*
D37*
X91230200Y-86868000D03*
D18*
X126409200Y-79099500D03*
X126409200Y-81174500D03*
X139744200Y-88984000D03*
X139744200Y-91059000D03*
D37*
X140252200Y-53594000D03*
D12*
X88309200Y-90598000D03*
X87359200Y-90598000D03*
X86409200Y-90598000D03*
X86409200Y-93298000D03*
X87359200Y-93298000D03*
X88309200Y-93298000D03*
D46*
X76888200Y-60857000D03*
X76888200Y-61357000D03*
X76888200Y-61857000D03*
X76888200Y-62357000D03*
X76888200Y-62857000D03*
X76888200Y-63357000D03*
X76888200Y-63857000D03*
X76888200Y-64357000D03*
X76888200Y-64857000D03*
X76888200Y-65357000D03*
X76888200Y-65857000D03*
X76888200Y-66357000D03*
X76888200Y-66857000D03*
X76888200Y-67357000D03*
X76888200Y-67857000D03*
X76888200Y-68357000D03*
X76888200Y-68857000D03*
X76888200Y-69357000D03*
X76888200Y-69857000D03*
X76888200Y-70357000D03*
X76888200Y-70857000D03*
X76888200Y-71357000D03*
X76888200Y-71857000D03*
X76888200Y-72357000D03*
X76888200Y-72857000D03*
D47*
X78563200Y-74532000D03*
X79063200Y-74532000D03*
X79563200Y-74532000D03*
X80063200Y-74532000D03*
X80563200Y-74532000D03*
X81063200Y-74532000D03*
X81563200Y-74532000D03*
X82063200Y-74532000D03*
X82563200Y-74532000D03*
X83063200Y-74532000D03*
X83563200Y-74532000D03*
X84063200Y-74532000D03*
X84563200Y-74532000D03*
X85063200Y-74532000D03*
X85563200Y-74532000D03*
X86063200Y-74532000D03*
X86563200Y-74532000D03*
X87063200Y-74532000D03*
X87563200Y-74532000D03*
X88063200Y-74532000D03*
X88563200Y-74532000D03*
X89063200Y-74532000D03*
X89563200Y-74532000D03*
X90063200Y-74532000D03*
X90563200Y-74532000D03*
D46*
X92238200Y-72857000D03*
X92238200Y-72357000D03*
X92238200Y-71857000D03*
X92238200Y-71357000D03*
X92238200Y-70857000D03*
X92238200Y-70357000D03*
X92238200Y-69857000D03*
X92238200Y-69357000D03*
X92238200Y-68857000D03*
X92238200Y-68357000D03*
X92238200Y-67857000D03*
X92238200Y-67357000D03*
X92238200Y-66857000D03*
X92238200Y-66357000D03*
X92238200Y-65857000D03*
X92238200Y-65357000D03*
X92238200Y-64857000D03*
X92238200Y-64357000D03*
X92238200Y-63857000D03*
X92238200Y-63357000D03*
X92238200Y-62857000D03*
X92238200Y-62357000D03*
X92238200Y-61857000D03*
X92238200Y-61357000D03*
X92238200Y-60857000D03*
D47*
X90563200Y-59182000D03*
X90063200Y-59182000D03*
X89563200Y-59182000D03*
X89063200Y-59182000D03*
X88563200Y-59182000D03*
X88063200Y-59182000D03*
X87563200Y-59182000D03*
X87063200Y-59182000D03*
X86563200Y-59182000D03*
X86063200Y-59182000D03*
X85563200Y-59182000D03*
X85063200Y-59182000D03*
X84563200Y-59182000D03*
X84063200Y-59182000D03*
X83563200Y-59182000D03*
X83063200Y-59182000D03*
X82563200Y-59182000D03*
X82063200Y-59182000D03*
X81563200Y-59182000D03*
X81063200Y-59182000D03*
X80563200Y-59182000D03*
X80063200Y-59182000D03*
X79563200Y-59182000D03*
X79063200Y-59182000D03*
X78563200Y-59182000D03*
D27*
X87359200Y-104762000D03*
D28*
X90659200Y-108062000D03*
X90659200Y-101462000D03*
X84059200Y-108062000D03*
X84059200Y-101462000D03*
D39*
X101374200Y-44227000D03*
X99374200Y-44227000D03*
D48*
X79736700Y-76517500D03*
X79915575Y-86868000D03*
X131108200Y-87249000D03*
X91230200Y-59817000D03*
X118154200Y-73406000D03*
X141141200Y-85217000D03*
X85515200Y-86487000D03*
X78149200Y-89916000D03*
X133648200Y-63881000D03*
X72815200Y-72898000D03*
X109391200Y-70231000D03*
X87166200Y-49530000D03*
X74847200Y-72771000D03*
X118027200Y-56261000D03*
D49*
X64687200Y-64071000D03*
D48*
X117011200Y-76454000D03*
X79927200Y-64770000D03*
X134918200Y-55245000D03*
X112312200Y-92815500D03*
X134918200Y-72263000D03*
X108756200Y-60833000D03*
X82721200Y-86106000D03*
X86023200Y-75819000D03*
X79905700Y-61087000D03*
X77006200Y-76835000D03*
X118027200Y-62103000D03*
X120313200Y-82931000D03*
X141141200Y-80264000D03*
X68148200Y-96774000D03*
X117646200Y-59055000D03*
X113963200Y-80391000D03*
X74974200Y-93345000D03*
X118218700Y-69342000D03*
X68116200Y-93726000D03*
X119297200Y-51181000D03*
X111423200Y-57912000D03*
X88563200Y-65786000D03*
X83229200Y-67945000D03*
D49*
X141014200Y-89027000D03*
D48*
X71672200Y-99695000D03*
X125647200Y-51054000D03*
X128822200Y-82296000D03*
X137839200Y-59817000D03*
X122726200Y-72644000D03*
X91738200Y-75924500D03*
X130600200Y-73406000D03*
X79927200Y-72644000D03*
X79905700Y-65786000D03*
X130473200Y-50927000D03*
X79927200Y-70866000D03*
X123107200Y-87376000D03*
X75355200Y-98298000D03*
X121456200Y-69342000D03*
X118218700Y-67183000D03*
X123361200Y-77470000D03*
X75355200Y-68834000D03*
X95548200Y-64897000D03*
X118154200Y-72263000D03*
X110536842Y-82578042D03*
X80942492Y-68579293D03*
X81283575Y-85891625D03*
X122345200Y-64897000D03*
X95285200Y-70857000D03*
X123996200Y-59690000D03*
X97199200Y-68834000D03*
X96818200Y-68072000D03*
X121837200Y-62611000D03*
X123361200Y-62484000D03*
X94833707Y-68754507D03*
X125774200Y-89154000D03*
X125901200Y-76962000D03*
X141141200Y-87249000D03*
X126663200Y-77216000D03*
X126663200Y-80137000D03*
X141903200Y-78359000D03*
X128695200Y-77851000D03*
X133648200Y-77470000D03*
X141649200Y-76962000D03*
X123488200Y-88138000D03*
X141268200Y-82169000D03*
X124162119Y-76447000D03*
X99104200Y-55118000D03*
X101644200Y-60833000D03*
X101263200Y-68072000D03*
X101263200Y-65405000D03*
X102533200Y-60833000D03*
X102533200Y-54483000D03*
X102025200Y-73660000D03*
X102660200Y-65405000D03*
X112058200Y-69850000D03*
X102533200Y-68326000D03*
X123869200Y-49784000D03*
X144824200Y-50927000D03*
X67100200Y-91186000D03*
X119424200Y-91948000D03*
X82213200Y-61087000D03*
X126663200Y-86741000D03*
X138347200Y-59055000D03*
X84499200Y-67818000D03*
X120440200Y-67310000D03*
X81538575Y-76835000D03*
X139744200Y-92202000D03*
X123210583Y-81369831D03*
X133851431Y-59371674D03*
X114217200Y-91313000D03*
X109391200Y-82804000D03*
X121583200Y-51816000D03*
X77347575Y-73457000D03*
X66084200Y-67818000D03*
D49*
X67989200Y-75565000D03*
D48*
X118154200Y-68326000D03*
X89325200Y-62992000D03*
X70275200Y-56896000D03*
X87547200Y-68199000D03*
X81797396Y-65786000D03*
X121978508Y-76405341D03*
X70275200Y-52832000D03*
X133902200Y-78613000D03*
X120440200Y-57150000D03*
X134156200Y-86614000D03*
X71672200Y-73914000D03*
X65195200Y-98425000D03*
X76879200Y-90932000D03*
X133751200Y-97346941D03*
X131489200Y-76581000D03*
X67989200Y-99441000D03*
X120313200Y-71374000D03*
X126663200Y-84836000D03*
X70275200Y-54864000D03*
X114597229Y-73919776D03*
D49*
X126605200Y-67500290D03*
D48*
X93897200Y-60706000D03*
X138220200Y-63373000D03*
X117749200Y-97282491D03*
X77514200Y-104394000D03*
X120313200Y-69342000D03*
X124123200Y-72009000D03*
X95421200Y-63246000D03*
X95294200Y-51816000D03*
D49*
X125944200Y-61976000D03*
D48*
X126790200Y-72390000D03*
X88309200Y-97282000D03*
X131362200Y-50927000D03*
X113645700Y-58356500D03*
X84245200Y-87503000D03*
X123361200Y-55372000D03*
X119043200Y-58928000D03*
X64941200Y-60579000D03*
X65830200Y-91440000D03*
X132886200Y-72009000D03*
X126790200Y-81915000D03*
X120313200Y-62484000D03*
X93897200Y-102108000D03*
X72688200Y-65532000D03*
X70275200Y-58928000D03*
X88944200Y-68580000D03*
X101103200Y-76708000D03*
X138144000Y-75234800D03*
X94278200Y-76454000D03*
D49*
X128738200Y-64643000D03*
D48*
X78657200Y-56896000D03*
X75990200Y-73914000D03*
X113963200Y-75311000D03*
X77641200Y-98933000D03*
X82213200Y-65024000D03*
D49*
X123404200Y-64643000D03*
D48*
X101747200Y-97346941D03*
X75355200Y-99695000D03*
X111296200Y-93853000D03*
X64306200Y-58801000D03*
X78530200Y-92202000D03*
X89325200Y-67818000D03*
X103295200Y-91948000D03*
X118091700Y-60198000D03*
X87293200Y-89027000D03*
X114344200Y-86233000D03*
X86912200Y-62992000D03*
X124377200Y-50800000D03*
X58972200Y-66167000D03*
X64560200Y-97790000D03*
X124885200Y-72644000D03*
X130219200Y-55372000D03*
X73958200Y-68834000D03*
X76879200Y-78867000D03*
X138093200Y-73787000D03*
X67862200Y-68961000D03*
X78784200Y-70104000D03*
X133521200Y-84836000D03*
X126155200Y-73279000D03*
X110204000Y-73863200D03*
X64433200Y-62230000D03*
X80054200Y-71755000D03*
X138220200Y-69342000D03*
X133775200Y-79883000D03*
X136315200Y-88773000D03*
X67481200Y-70739000D03*
X118916200Y-57531000D03*
X81197200Y-56769000D03*
X75482200Y-65405000D03*
X133521200Y-62230000D03*
X69767200Y-99520000D03*
X113582200Y-56515000D03*
X126142200Y-101981000D03*
X65068200Y-104394000D03*
X133648200Y-65659000D03*
X120313200Y-72771000D03*
X88055200Y-61722000D03*
X116135481Y-76460807D03*
X117885560Y-55011209D03*
X134283200Y-67310000D03*
X132759200Y-58039000D03*
X72561200Y-69977000D03*
X56940200Y-68707000D03*
X74974200Y-94488000D03*
X68243200Y-94659500D03*
X90063200Y-73382000D03*
X85007200Y-51816000D03*
X85515200Y-60452000D03*
X85261200Y-66167000D03*
X85134200Y-64897000D03*
X79546200Y-52959000D03*
X81832200Y-55753000D03*
X83864200Y-64897000D03*
X82848200Y-52578000D03*
X84499200Y-60452000D03*
X84499200Y-71755000D03*
X70859200Y-104262000D03*
X72609200Y-104262000D03*
X70359200Y-105012000D03*
X71859200Y-105012000D03*
D49*
X87674200Y-44450000D03*
X87674200Y-47498000D03*
X127425200Y-99564649D03*
D48*
X129330200Y-102743000D03*
X97326200Y-102870000D03*
D49*
X95421200Y-99691648D03*
D48*
X108121200Y-91186000D03*
X110661200Y-91313000D03*
X83356200Y-55245000D03*
X79355700Y-51498500D03*
X127171200Y-76454000D03*
X91103200Y-73406000D03*
X110534200Y-65151000D03*
X89706200Y-68961000D03*
X88055200Y-68834000D03*
X128949200Y-76835000D03*
X123996200Y-73279000D03*
X90722200Y-71501000D03*
X82721200Y-87630000D03*
X83610200Y-69977000D03*
X87007200Y-60579000D03*
X57575200Y-66167000D03*
X86277200Y-61087000D03*
X60750200Y-63246000D03*
X80562200Y-96393000D03*
X80591200Y-76708000D03*
X95802200Y-66040000D03*
X87039200Y-67564000D03*
X122472200Y-55753000D03*
X115360200Y-53213000D03*
X108946700Y-91249500D03*
X93643200Y-66802000D03*
X122472200Y-61214000D03*
X121231115Y-52900415D03*
X113836200Y-53594000D03*
X111931200Y-54229000D03*
X121319795Y-55101000D03*
X81959200Y-88138000D03*
X82004200Y-69215000D03*
X81816824Y-66792448D03*
X78911200Y-87884000D03*
X111423200Y-65151000D03*
X89706200Y-69850000D03*
X109772200Y-91313000D03*
X109772200Y-55245000D03*
X121583200Y-56134000D03*
X60877200Y-61341000D03*
X83610200Y-57785000D03*
X78784200Y-67418448D03*
X72180200Y-70739000D03*
X88055200Y-75946000D03*
X128187200Y-76581000D03*
X113328200Y-57277000D03*
X82213200Y-62357000D03*
X124758200Y-74041000D03*
X90849200Y-72390000D03*
X113582200Y-59309000D03*
X82086200Y-63373000D03*
X82340200Y-64135000D03*
X113836200Y-60071000D03*
X113709200Y-65913000D03*
X90976200Y-70739000D03*
X111550200Y-91313000D03*
X113776258Y-92079812D03*
X117646200Y-82550000D03*
X102406200Y-84709000D03*
X94405200Y-67056000D03*
X120567200Y-59182000D03*
X117900200Y-81788000D03*
X101771200Y-81788000D03*
X106216200Y-85471000D03*
X121329200Y-72771000D03*
X112924868Y-65636668D03*
X90468200Y-70104000D03*
X95294200Y-78359000D03*
X117392200Y-77851000D03*
X120694200Y-73660000D03*
X104819200Y-84963000D03*
X95421200Y-79756000D03*
X117646200Y-78994000D03*
X94786200Y-67945000D03*
X120440200Y-61341000D03*
X118598700Y-79184500D03*
X95865700Y-80835500D03*
X97580200Y-81026000D03*
X117773200Y-80899000D03*
D50*
X76902075Y-95163625D02*
X80469825Y-91595875D01*
X79915575Y-87110375D02*
X80469825Y-87664625D01*
D51*
X79736700Y-76517500D02*
X80563200Y-75691000D01*
D50*
X79915575Y-86868000D02*
X79915575Y-87110375D01*
X74014825Y-95163625D02*
X76902075Y-95163625D01*
X80469825Y-87664625D02*
X80469825Y-91595875D01*
D51*
X80563200Y-75691000D02*
X80563200Y-74532000D01*
D50*
X74010700Y-95159500D02*
X74014825Y-95163625D01*
X84976133Y-80817409D02*
X85222964Y-81064240D01*
X84374436Y-81912768D02*
X84374434Y-81912766D01*
X89288147Y-77492670D02*
X89211043Y-77415566D01*
X86495752Y-79791444D02*
X86495754Y-79791446D01*
X88354744Y-78765441D02*
X88439596Y-78680588D01*
X81495503Y-82393108D02*
X81615503Y-82393108D01*
X85824682Y-79968902D02*
X86071492Y-80215712D01*
X86673230Y-79120391D02*
X86920021Y-79367182D01*
X88370266Y-77423318D02*
X88617076Y-77670128D01*
X71823200Y-93472000D02*
X71823200Y-91479500D01*
X84960632Y-82159553D02*
X85045484Y-82074700D01*
X86248964Y-79205244D02*
X86333818Y-79120391D01*
X80371700Y-82931000D02*
X81015503Y-82931000D01*
X85647226Y-80639974D02*
X85400417Y-80393165D01*
X82455503Y-83228892D02*
X82455503Y-83171000D01*
X84798698Y-81488502D02*
X84551868Y-81241672D01*
X87768546Y-78518654D02*
X88015333Y-78765441D01*
X86920018Y-79367182D02*
X87166794Y-79613958D01*
X86495754Y-79791446D02*
X86248964Y-79544656D01*
X85894034Y-80886782D02*
X85647224Y-80639972D01*
X88192810Y-78094390D02*
X87946001Y-77847581D01*
X71823200Y-91479500D02*
X80371700Y-82931000D01*
X83703397Y-81750844D02*
X83788249Y-81665993D01*
X84374434Y-81912766D02*
X84621221Y-82159553D01*
X82095503Y-83468892D02*
X82215503Y-83468892D01*
X85647224Y-80639972D02*
X85647226Y-80639974D01*
X87344282Y-78942918D02*
X87097519Y-78696155D01*
X85045484Y-81735288D02*
X84798696Y-81488500D01*
X88439596Y-78341176D02*
X88192808Y-78094388D01*
X81855503Y-82633108D02*
X81855503Y-83228892D01*
X83950168Y-82337029D02*
X84196950Y-82583811D01*
X85222964Y-81064240D02*
X85222962Y-81064238D01*
X89211043Y-77076155D02*
X89563200Y-76724000D01*
X86742562Y-80038254D02*
X86495752Y-79791444D01*
X85809182Y-81311047D02*
X85894034Y-81226194D01*
X83695611Y-82931000D02*
X83772687Y-83008076D01*
X88192808Y-78094388D02*
X88192810Y-78094390D01*
X87768548Y-78518656D02*
X87768546Y-78518654D01*
X84798696Y-81488500D02*
X84798698Y-81488502D01*
X87946002Y-77508169D02*
X88030854Y-77423318D01*
X87097520Y-78356743D02*
X87182372Y-78271892D01*
X89563200Y-76724000D02*
X89563200Y-74532000D01*
X83950170Y-82337030D02*
X83703396Y-82090256D01*
X84112098Y-83008076D02*
X84196950Y-82923223D01*
X88617076Y-77670128D02*
X88617074Y-77670126D01*
X82695503Y-82931000D02*
X83356200Y-82931000D01*
X87506205Y-79613958D02*
X87591057Y-79529105D01*
X83950168Y-82337029D02*
X83950170Y-82337030D01*
X87344280Y-78942916D02*
X87344282Y-78942918D01*
X84127661Y-81665993D02*
X84374436Y-81912768D01*
X88617074Y-77670126D02*
X88863883Y-77916935D01*
X86071492Y-80215712D02*
X86071490Y-80215710D01*
X84551869Y-80902260D02*
X84636721Y-80817409D01*
X87521784Y-78271892D02*
X87768548Y-78518656D01*
X85400418Y-80053753D02*
X85485270Y-79968902D01*
X81255503Y-82691000D02*
X81255503Y-82633108D01*
X86920021Y-79367182D02*
X86920018Y-79367182D01*
X86071490Y-80215710D02*
X86318299Y-80462519D01*
X89203294Y-77916935D02*
X89288147Y-77832081D01*
X85222962Y-81064238D02*
X85469771Y-81311047D01*
X86657710Y-80462519D02*
X86742562Y-80377666D01*
X87591057Y-79189693D02*
X87344280Y-78942916D01*
X85485270Y-79968902D02*
G75*
G02*
X85824682Y-79968902I169706J-169701D01*
G01*
X87946001Y-77847581D02*
G75*
G02*
X87946026Y-77508194I169699J169681D01*
G01*
X83356200Y-82931000D02*
G75*
G02*
X83695611Y-82930999I169706J-169707D01*
G01*
X83703396Y-82090256D02*
G75*
G02*
X83703446Y-81750894I169704J169656D01*
G01*
X87591057Y-79529105D02*
G75*
G03*
X87591056Y-79189694I-169657J169705D01*
G01*
X88015333Y-78765441D02*
G75*
G03*
X88354744Y-78765442I169706J169707D01*
G01*
X86742562Y-80377666D02*
G75*
G03*
X86742522Y-80038294I-169662J169666D01*
G01*
X87182372Y-78271892D02*
G75*
G02*
X87521784Y-78271892I169706J-169701D01*
G01*
X86333818Y-79120391D02*
G75*
G02*
X86673230Y-79120391I169706J-169708D01*
G01*
X86318299Y-80462519D02*
G75*
G03*
X86657710Y-80462520I169706J169707D01*
G01*
X88030854Y-77423318D02*
G75*
G02*
X88370266Y-77423318I169706J-169701D01*
G01*
X89288147Y-77832081D02*
G75*
G03*
X89288123Y-77492694I-169747J169681D01*
G01*
X83772687Y-83008076D02*
G75*
G03*
X84112098Y-83008076I169705J169707D01*
G01*
X85894034Y-81226194D02*
G75*
G03*
X85894022Y-80886794I-169734J169694D01*
G01*
X84551868Y-81241672D02*
G75*
G02*
X84551902Y-80902293I169732J169672D01*
G01*
X88439596Y-78680588D02*
G75*
G03*
X88439578Y-78341194I-169696J169688D01*
G01*
X87097519Y-78696155D02*
G75*
G02*
X87097470Y-78356693I169681J169755D01*
G01*
X81615503Y-82393108D02*
G75*
G02*
X81855492Y-82633108I-3J-239992D01*
G01*
X85400417Y-80393165D02*
G75*
G02*
X85400458Y-80053794I169683J169665D01*
G01*
X85469771Y-81311047D02*
G75*
G03*
X85809182Y-81311048I169706J169707D01*
G01*
X83788249Y-81665993D02*
G75*
G02*
X84127661Y-81665993I169706J-169701D01*
G01*
X89211043Y-77415566D02*
G75*
G02*
X89211082Y-77076195I169657J169666D01*
G01*
X85045484Y-82074700D02*
G75*
G03*
X85045478Y-81735294I-169684J169700D01*
G01*
X84636721Y-80817409D02*
G75*
G02*
X84976133Y-80817409I169706J-169701D01*
G01*
X87166794Y-79613958D02*
G75*
G03*
X87506205Y-79613959I169706J169707D01*
G01*
X81255503Y-82633108D02*
G75*
G02*
X81495503Y-82393103I239997J8D01*
G01*
X84196950Y-82923223D02*
G75*
G03*
X84196967Y-82583794I-169750J169723D01*
G01*
X82455503Y-83171000D02*
G75*
G02*
X82695503Y-82931003I239997J0D01*
G01*
X88863883Y-77916935D02*
G75*
G03*
X89203294Y-77916936I169706J169707D01*
G01*
X81855503Y-83228892D02*
G75*
G03*
X82095503Y-83468897I239997J-8D01*
G01*
X82215503Y-83468892D02*
G75*
G03*
X82455492Y-83228892I-3J239992D01*
G01*
X84621221Y-82159553D02*
G75*
G03*
X84960632Y-82159554I169706J169707D01*
G01*
X81015503Y-82931000D02*
G75*
G03*
X81255500Y-82691000I-3J240000D01*
G01*
X86248964Y-79544656D02*
G75*
G02*
X86249014Y-79205294I169736J169656D01*
G01*
D52*
X140971200Y-88984000D02*
X141014200Y-89027000D01*
D53*
X79563200Y-75653500D02*
X78403200Y-76813500D01*
D52*
X130113700Y-84941500D02*
X132251200Y-82804000D01*
D53*
X110439200Y-59404000D02*
X110439200Y-59563000D01*
D52*
X122007200Y-85027500D02*
X122069700Y-85090000D01*
X130092200Y-85006500D02*
X130092200Y-85090000D01*
D53*
X74374975Y-94159500D02*
X74010700Y-94159500D01*
X127754200Y-75238500D02*
X127754200Y-74431822D01*
X115341700Y-61826000D02*
X117750200Y-61826000D01*
X69135700Y-96659500D02*
X68262700Y-96659500D01*
D52*
X130113700Y-84985000D02*
X130113700Y-84941500D01*
D53*
X125647200Y-51964500D02*
X124754200Y-52857500D01*
D52*
X113963200Y-82147500D02*
X114344200Y-82528500D01*
X131086200Y-87271000D02*
X131108200Y-87249000D01*
D53*
X79927200Y-70866000D02*
X79436200Y-71357000D01*
X79599022Y-61087000D02*
X79905700Y-61087000D01*
D52*
X130092200Y-85090000D02*
X129634200Y-85548000D01*
D53*
X119932200Y-51816000D02*
X119297200Y-51181000D01*
X117011200Y-76454000D02*
X117116200Y-76454000D01*
X74974200Y-93472000D02*
X74974200Y-93345000D01*
X91230200Y-60706000D02*
X91230200Y-59817000D01*
X78514200Y-63357000D02*
X79927200Y-64770000D01*
X76888200Y-63357000D02*
X78514200Y-63357000D01*
X92238200Y-60857000D02*
X91381200Y-60857000D01*
X117116200Y-76454000D02*
X117254200Y-76316000D01*
D52*
X121544700Y-87376000D02*
X123107200Y-87376000D01*
D53*
X72323200Y-99044000D02*
X71672200Y-99695000D01*
X120254200Y-52107500D02*
X120254200Y-53913500D01*
X111423200Y-57912000D02*
X111423200Y-58420000D01*
X90997700Y-75924500D02*
X91738200Y-75924500D01*
X68243200Y-93853000D02*
X68116200Y-93726000D01*
X95591200Y-64940000D02*
X95548200Y-64897000D01*
X117254200Y-53913500D02*
X117254200Y-54714844D01*
X82848200Y-86233000D02*
X82848200Y-86360000D01*
X68393700Y-93853000D02*
X68243200Y-93853000D01*
X91738200Y-75924500D02*
X92732700Y-74930000D01*
D52*
X64623200Y-64071000D02*
X64433200Y-63881000D01*
D53*
X108756200Y-60833000D02*
X109804200Y-60833000D01*
X118011200Y-69326000D02*
X115341700Y-69326000D01*
D52*
X87516200Y-45878000D02*
X93516200Y-45878000D01*
D53*
X91381200Y-60857000D02*
X91230200Y-60706000D01*
X139744200Y-80169000D02*
X141046200Y-80169000D01*
X130254200Y-53913500D02*
X130254200Y-52183500D01*
X127754200Y-74431822D02*
X128780022Y-73406000D01*
X117646200Y-59055000D02*
X116375200Y-60326000D01*
X120545700Y-51816000D02*
X119932200Y-51816000D01*
D52*
X86531200Y-46863000D02*
X87516200Y-45878000D01*
X130051200Y-82550000D02*
X130051200Y-84922500D01*
X122069700Y-86851000D02*
X121544700Y-87376000D01*
D53*
X77027700Y-76813500D02*
X77006200Y-76835000D01*
X131254200Y-74060000D02*
X130600200Y-73406000D01*
D52*
X122069700Y-85090000D02*
X122069700Y-86851000D01*
X109406400Y-79248000D02*
X109406400Y-81426100D01*
D53*
X79563200Y-74532000D02*
X79563200Y-75653500D01*
D52*
X87166200Y-49530000D02*
X87166200Y-49403000D01*
X113963200Y-80391000D02*
X113963200Y-82147500D01*
D53*
X117254200Y-55307574D02*
X117254200Y-55488000D01*
D52*
X130113700Y-84985000D02*
X130092200Y-85006500D01*
D53*
X117254200Y-76316000D02*
X117254200Y-75238500D01*
D51*
X69135700Y-97159500D02*
X68533700Y-97159500D01*
D53*
X120589200Y-82655000D02*
X120313200Y-82931000D01*
X78563200Y-60051178D02*
X79599022Y-61087000D01*
X130473200Y-51964500D02*
X130473200Y-50927000D01*
X110423200Y-69199000D02*
X110423200Y-68834000D01*
X79165200Y-89005500D02*
X79059700Y-89005500D01*
D52*
X122069700Y-85090000D02*
X122069700Y-84984500D01*
X62451200Y-77293000D02*
X67862200Y-77293000D01*
D53*
X139744200Y-85233000D02*
X141125200Y-85233000D01*
X74702474Y-93616726D02*
X74702474Y-93832001D01*
X116375200Y-60326000D02*
X115341700Y-60326000D01*
X109391200Y-70231000D02*
X110423200Y-69199000D01*
D51*
X73818700Y-70857000D02*
X72815200Y-71860500D01*
D53*
X68514925Y-94003500D02*
X68514925Y-93974225D01*
X117229560Y-54739484D02*
X117229560Y-55282934D01*
X118027200Y-69342000D02*
X118011200Y-69326000D01*
X122754200Y-72672000D02*
X122726200Y-72644000D01*
X76244200Y-94150000D02*
X75652200Y-94150000D01*
X135860022Y-73326000D02*
X134918200Y-72384178D01*
D52*
X58718200Y-78486000D02*
X61258200Y-78486000D01*
D53*
X84245200Y-86465500D02*
X85493700Y-86465500D01*
X75644200Y-69482178D02*
X75644200Y-69123000D01*
X136666700Y-55826000D02*
X135499200Y-55826000D01*
D51*
X72815200Y-71860500D02*
X72815200Y-72898000D01*
D53*
X68262700Y-96659500D02*
X68148200Y-96774000D01*
X118218700Y-69342000D02*
X118027200Y-69342000D01*
X124754200Y-52857500D02*
X124754200Y-53913500D01*
X79059700Y-89005500D02*
X78149200Y-89916000D01*
X117462200Y-56826000D02*
X118027200Y-56261000D01*
D52*
X110530300Y-82571500D02*
X110530300Y-82550000D01*
X86531200Y-48768000D02*
X86531200Y-46863000D01*
D53*
X78403200Y-76813500D02*
X77027700Y-76813500D01*
X118091200Y-72326000D02*
X115341700Y-72326000D01*
X136666700Y-70326000D02*
X135860022Y-70326000D01*
X141046200Y-80169000D02*
X141141200Y-80264000D01*
D52*
X109406400Y-81426100D02*
X109746800Y-81766500D01*
D53*
X69135700Y-94159500D02*
X68670925Y-94159500D01*
X135860022Y-70326000D02*
X134918200Y-71267822D01*
X110439200Y-68818000D02*
X110423200Y-68834000D01*
X136666700Y-63826000D02*
X133703200Y-63826000D01*
X134918200Y-72384178D02*
X134918200Y-72263000D01*
X128780022Y-73406000D02*
X130600200Y-73406000D01*
D51*
X76089732Y-71357000D02*
X76888200Y-71357000D01*
D53*
X136666700Y-59826000D02*
X137830200Y-59826000D01*
X136666700Y-73326000D02*
X135860022Y-73326000D01*
X111423200Y-58420000D02*
X110439200Y-59404000D01*
X141125200Y-85233000D02*
X141141200Y-85217000D01*
X79436200Y-71357000D02*
X76888200Y-71357000D01*
X90849200Y-75946000D02*
X90976200Y-75946000D01*
D52*
X64433200Y-63881000D02*
X62782200Y-63881000D01*
D53*
X129054200Y-82528000D02*
X128822200Y-82296000D01*
X122007200Y-82655000D02*
X120589200Y-82655000D01*
D52*
X61258200Y-78486000D02*
X62451200Y-77293000D01*
D53*
X82953700Y-86465500D02*
X84245200Y-86465500D01*
D51*
X74847200Y-71860500D02*
X75586232Y-71860500D01*
D53*
X130254200Y-52183500D02*
X130473200Y-51964500D01*
X112312200Y-92815500D02*
X111296200Y-92815500D01*
D52*
X124207200Y-82847000D02*
X124207200Y-82655000D01*
D53*
X79834700Y-65857000D02*
X79905700Y-65786000D01*
X118154200Y-72263000D02*
X118091200Y-72326000D01*
D51*
X74847200Y-71860500D02*
X74847200Y-72771000D01*
D52*
X87166200Y-49403000D02*
X86531200Y-48768000D01*
X132251200Y-82804000D02*
X132251200Y-82550000D01*
D53*
X134754200Y-55081000D02*
X134918200Y-55245000D01*
X115341700Y-67326000D02*
X118075700Y-67326000D01*
X68670925Y-94159500D02*
X68514925Y-94003500D01*
X131254200Y-75238500D02*
X131254200Y-74060000D01*
X118074200Y-73326000D02*
X118154200Y-73406000D01*
X109804200Y-60833000D02*
X110439200Y-61468000D01*
X137830200Y-59826000D02*
X137839200Y-59817000D01*
X115341700Y-73326000D02*
X118074200Y-73326000D01*
D52*
X122069700Y-84984500D02*
X124207200Y-82847000D01*
D53*
X110439200Y-66802000D02*
X110439200Y-68818000D01*
D51*
X75586232Y-71860500D02*
X76089732Y-71357000D01*
D53*
X134754200Y-53913500D02*
X134754200Y-55081000D01*
X117592200Y-55826000D02*
X118027200Y-56261000D01*
X76888200Y-65857000D02*
X79834700Y-65857000D01*
X76888200Y-69857000D02*
X76019022Y-69857000D01*
D52*
X122007200Y-82655000D02*
X122007200Y-85027500D01*
D53*
X120545700Y-51816000D02*
X120254200Y-52107500D01*
X72323200Y-98347000D02*
X72323200Y-99044000D01*
X82848200Y-86360000D02*
X82953700Y-86465500D01*
D52*
X113963200Y-80391000D02*
X113963200Y-79201000D01*
D53*
X122754200Y-75238500D02*
X122754200Y-72672000D01*
X134703200Y-62826000D02*
X133648200Y-63881000D01*
X74702474Y-93832001D02*
X74374975Y-94159500D01*
X78563200Y-59182000D02*
X78563200Y-60051178D01*
X134754200Y-75238500D02*
X134754200Y-72427000D01*
X117750200Y-61826000D02*
X118027200Y-62103000D01*
X117229560Y-55282934D02*
X117254200Y-55307574D01*
D52*
X110536842Y-82578042D02*
X110530300Y-82571500D01*
D53*
X90563200Y-75660000D02*
X90849200Y-75946000D01*
D52*
X110530300Y-82550000D02*
X109746800Y-81766500D01*
D53*
X133703200Y-63826000D02*
X133648200Y-63881000D01*
D51*
X76888200Y-70857000D02*
X73818700Y-70857000D01*
D53*
X74974200Y-93345000D02*
X74702474Y-93616726D01*
X68514925Y-93974225D02*
X68393700Y-93853000D01*
D52*
X129634200Y-87225500D02*
X129588700Y-87271000D01*
D53*
X96818200Y-64940000D02*
X95591200Y-64940000D01*
X85493700Y-86465500D02*
X85515200Y-86487000D01*
X115341700Y-56826000D02*
X117462200Y-56826000D01*
X90976200Y-75946000D02*
X90997700Y-75924500D01*
D52*
X64687200Y-64071000D02*
X64623200Y-64071000D01*
X129588700Y-87271000D02*
X131086200Y-87271000D01*
D53*
X117254200Y-55488000D02*
X117592200Y-55826000D01*
D51*
X68533700Y-97159500D02*
X68148200Y-96774000D01*
D53*
X134918200Y-71267822D02*
X134918200Y-72263000D01*
X136666700Y-62826000D02*
X134703200Y-62826000D01*
X135499200Y-55826000D02*
X134918200Y-55245000D01*
X118075700Y-67326000D02*
X118218700Y-67183000D01*
D52*
X139744200Y-88984000D02*
X140971200Y-88984000D01*
D53*
X125647200Y-51964500D02*
X125647200Y-51054000D01*
X75644200Y-69123000D02*
X75355200Y-68834000D01*
X134754200Y-72427000D02*
X134918200Y-72263000D01*
D52*
X129634200Y-85548000D02*
X129634200Y-87225500D01*
D53*
X130135200Y-82528000D02*
X129054200Y-82528000D01*
X124218200Y-77470000D02*
X123361200Y-77470000D01*
X82721200Y-86106000D02*
X82848200Y-86233000D01*
X75652200Y-94150000D02*
X74974200Y-93472000D01*
X76019022Y-69857000D02*
X75644200Y-69482178D01*
X117254200Y-54714844D02*
X117229560Y-54739484D01*
D52*
X130051200Y-84922500D02*
X130113700Y-84985000D01*
D53*
X115341700Y-55826000D02*
X117592200Y-55826000D01*
X90563200Y-74532000D02*
X90563200Y-75660000D01*
D50*
X77739700Y-95659500D02*
X74010700Y-95659500D01*
X80562199Y-68199000D02*
X78098848Y-68199000D01*
X78098848Y-68199000D02*
X77756848Y-67857000D01*
X81197200Y-92202000D02*
X77739700Y-95659500D01*
X81283575Y-85891625D02*
X81197200Y-85978000D01*
X81197200Y-85978000D02*
X81197200Y-92202000D01*
X77756848Y-67857000D02*
X76888200Y-67857000D01*
X80942492Y-68579293D02*
X80562199Y-68199000D01*
X84938472Y-78167734D02*
X85447589Y-78676851D01*
X86635532Y-76470674D02*
X87144649Y-76979791D01*
X85362738Y-77404055D02*
X85447590Y-77319204D01*
X75449181Y-85849295D02*
X75773586Y-86173700D01*
X74600639Y-86697812D02*
X74925056Y-87022229D01*
X84089941Y-80373911D02*
X84174793Y-80289055D01*
X77385792Y-84900908D02*
X81006700Y-81280000D01*
X84089942Y-79016264D02*
X84599059Y-79525381D01*
X75534034Y-85425031D02*
X75449181Y-85509883D01*
X76197851Y-85749437D02*
X75873445Y-85425031D01*
X85023324Y-79101113D02*
X84514208Y-78591997D01*
X77046380Y-84900908D02*
X76686612Y-84541140D01*
X75773586Y-86513111D02*
X75688734Y-86597965D01*
X84938471Y-79525381D02*
X85023323Y-79440525D01*
X71323200Y-90963500D02*
X71323200Y-93472000D01*
X86635531Y-77828321D02*
X86720383Y-77743465D01*
X85787001Y-78676851D02*
X85871853Y-78591995D01*
X85871854Y-78252583D02*
X85362738Y-77743467D01*
X87484061Y-76979791D02*
X87568913Y-76894936D01*
X83326264Y-80798173D02*
X82817148Y-80289057D01*
X83183848Y-81280000D02*
X83326263Y-81137585D01*
X87568913Y-76894936D02*
X87767103Y-76696745D01*
X76262348Y-84965404D02*
X76622115Y-85325171D01*
X89063200Y-75954000D02*
X89063200Y-74532000D01*
X84174794Y-79949643D02*
X83665678Y-79440527D01*
X76347201Y-84541140D02*
X76262348Y-84625992D01*
X86720384Y-77404053D02*
X86211268Y-76894937D01*
X74685492Y-86273548D02*
X74600639Y-86358400D01*
X83241412Y-79864794D02*
X83750529Y-80373911D01*
X75688734Y-86597965D02*
X75688734Y-86597966D01*
X87767103Y-76696745D02*
X88320455Y-76696745D01*
X85787002Y-77319204D02*
X86296119Y-77828321D01*
X86211268Y-76555525D02*
X86296120Y-76470674D01*
X82817148Y-79949645D02*
X82902000Y-79864794D01*
X74925056Y-87361641D02*
X74840205Y-87446494D01*
X71323200Y-90963500D02*
X74840205Y-87446494D01*
X84514208Y-78252585D02*
X84599060Y-78167734D01*
X83665678Y-79101115D02*
X83750530Y-79016264D01*
X81006700Y-81280000D02*
X83183848Y-81280000D01*
X75349322Y-86597966D02*
X75024904Y-86273548D01*
X76537263Y-85749437D02*
X76622115Y-85664582D01*
X88320455Y-76696745D02*
X89063200Y-75954000D01*
X83750530Y-79016264D02*
G75*
G02*
X84089942Y-79016264I169706J-169701D01*
G01*
X77385792Y-84900908D02*
G75*
G02*
X77046380Y-84900908I-169706J169704D01*
G01*
X75688734Y-86597966D02*
G75*
G02*
X75349322Y-86597966I-169706J169704D01*
G01*
X83326263Y-81137585D02*
G75*
G03*
X83326243Y-80798195I-169663J169685D01*
G01*
X86211268Y-76894937D02*
G75*
G02*
X86211237Y-76555494I169732J169737D01*
G01*
X75449181Y-85509883D02*
G75*
G03*
X75449170Y-85849306I169719J-169717D01*
G01*
X83665678Y-79440527D02*
G75*
G02*
X83665657Y-79101094I169722J169727D01*
G01*
X84599059Y-79525381D02*
G75*
G03*
X84938471Y-79525381I169706J169708D01*
G01*
X76686612Y-84541140D02*
G75*
G03*
X76347202Y-84541140I-169705J-169703D01*
G01*
X82902000Y-79864794D02*
G75*
G02*
X83241412Y-79864794I169706J-169701D01*
G01*
X86296120Y-76470674D02*
G75*
G02*
X86635532Y-76470674I169706J-169701D01*
G01*
X76622115Y-85325171D02*
G75*
G02*
X76622139Y-85664605I-169715J-169729D01*
G01*
X85871853Y-78591995D02*
G75*
G03*
X85871843Y-78252594I-169753J169695D01*
G01*
X82817148Y-80289057D02*
G75*
G02*
X82817197Y-79949694I169652J169657D01*
G01*
X85447590Y-77319204D02*
G75*
G02*
X85787002Y-77319204I169706J-169701D01*
G01*
X85023323Y-79440525D02*
G75*
G03*
X85023343Y-79101095I-169723J169725D01*
G01*
X75024904Y-86273548D02*
G75*
G03*
X74685492Y-86273548I-169706J-169704D01*
G01*
X83750529Y-80373911D02*
G75*
G03*
X84089941Y-80373911I169706J169708D01*
G01*
X85362738Y-77743467D02*
G75*
G02*
X85362777Y-77404094I169662J169667D01*
G01*
X84174793Y-80289055D02*
G75*
G03*
X84174843Y-79949595I-169693J169755D01*
G01*
X86720383Y-77743465D02*
G75*
G03*
X86720343Y-77404095I-169683J169665D01*
G01*
X84514208Y-78591997D02*
G75*
G02*
X84514217Y-78252594I169692J169697D01*
G01*
X75873445Y-85425031D02*
G75*
G03*
X75534035Y-85425031I-169705J-169703D01*
G01*
X76537263Y-85749437D02*
G75*
G02*
X76197851Y-85749437I-169706J169704D01*
G01*
X75773586Y-86173700D02*
G75*
G02*
X75773581Y-86513105I-169686J-169700D01*
G01*
X86296119Y-77828321D02*
G75*
G03*
X86635531Y-77828321I169706J169708D01*
G01*
X84599060Y-78167734D02*
G75*
G02*
X84938472Y-78167734I169706J-169701D01*
G01*
X76262348Y-84625992D02*
G75*
G03*
X76262346Y-84965406I169752J-169708D01*
G01*
X87144649Y-76979791D02*
G75*
G03*
X87484061Y-76979791I169706J169708D01*
G01*
X74925056Y-87022229D02*
G75*
G02*
X74925021Y-87361606I-169656J-169671D01*
G01*
X74600639Y-86358400D02*
G75*
G03*
X74600645Y-86697806I169661J-169700D01*
G01*
X85447589Y-78676851D02*
G75*
G03*
X85787001Y-78676851I169706J169708D01*
G01*
X90294702Y-79097480D02*
X90436474Y-78955707D01*
X86901106Y-81926094D02*
X86759885Y-81784873D01*
X72323200Y-92059000D02*
X80308200Y-84074000D01*
X88598168Y-80229032D02*
X88456940Y-80087804D01*
X87325372Y-81501828D02*
X87466600Y-81643056D01*
X93770200Y-75819000D02*
X93770200Y-73279000D01*
X91143759Y-77683438D02*
X91143761Y-77683439D01*
X89446157Y-79946007D02*
X89587939Y-79804224D01*
X88032660Y-80512051D02*
X88173906Y-80653297D01*
X87325375Y-81501828D02*
X87325372Y-81501828D01*
X93770200Y-73279000D02*
X93348200Y-72857000D01*
X89446697Y-79380500D02*
X89446699Y-79380501D01*
X91284988Y-77824667D02*
X91143759Y-77683438D01*
X86476841Y-82350359D02*
X86618086Y-82491604D01*
X91991580Y-77400357D02*
X92133475Y-77258461D01*
X89870965Y-78956235D02*
X90012210Y-79097480D01*
X87749635Y-81077562D02*
X87749637Y-81077563D01*
X90295230Y-78531970D02*
X90153976Y-78390716D01*
X87749056Y-81643056D02*
X87890864Y-81501247D01*
X89587939Y-79521742D02*
X89446697Y-79380500D01*
X86335647Y-82209167D02*
X86476842Y-82350362D01*
X86901104Y-81926093D02*
X86901106Y-81926094D01*
X88456940Y-79805348D02*
X88598751Y-79663538D01*
X86476842Y-82350362D02*
X86476841Y-82350359D01*
X90436474Y-78673215D02*
X90295228Y-78531969D01*
X87608392Y-80653826D02*
X87750168Y-80512051D01*
X88173906Y-80653297D02*
X88173903Y-80653297D01*
X72323200Y-93472000D02*
X72323200Y-92059000D01*
X93348200Y-72857000D02*
X92238200Y-72857000D01*
X91143180Y-78248932D02*
X91284988Y-78107123D01*
X89870968Y-78956235D02*
X89870965Y-78956235D01*
X80308200Y-84074000D02*
X84753200Y-84074000D01*
X89305475Y-78956827D02*
X89447293Y-78815010D01*
X88881207Y-79663539D02*
X89022436Y-79804768D01*
X88739395Y-80370260D02*
X88598166Y-80229031D01*
X86900578Y-82491604D02*
X87042350Y-82349831D01*
X87042350Y-82067339D02*
X86901104Y-81926093D01*
X90719499Y-78107704D02*
X90719496Y-78107704D01*
X91002533Y-77259755D02*
X91144344Y-77117945D01*
X87749637Y-81077563D02*
X87608392Y-80936318D01*
X90295228Y-78531969D02*
X90295230Y-78531970D01*
X91568027Y-77259173D02*
X91709211Y-77400357D01*
X89446699Y-79380501D02*
X89305475Y-79239277D01*
X86759885Y-81502429D02*
X86901709Y-81360606D01*
X85911156Y-82351268D02*
X86053259Y-82209166D01*
X88173903Y-80653297D02*
X88315131Y-80794525D01*
X89022436Y-79804768D02*
X89022434Y-79804766D01*
X92498793Y-76328407D02*
X93260793Y-76328407D01*
X88597587Y-80794525D02*
X88739395Y-80652716D01*
X92133475Y-76693723D02*
X92498793Y-76328407D01*
X87184153Y-81360606D02*
X87325375Y-81501828D01*
X93260793Y-76328407D02*
X93770200Y-75819000D01*
X89729743Y-78815010D02*
X89870968Y-78956235D01*
X89022434Y-79804766D02*
X89163675Y-79946007D01*
X90153977Y-78108206D02*
X90295734Y-77966450D01*
X91426800Y-77117946D02*
X91568029Y-77259175D01*
X90578244Y-77966449D02*
X90719499Y-78107704D01*
X91143761Y-77683439D02*
X91002533Y-77542211D01*
X87890864Y-81218791D02*
X87749635Y-81077562D01*
X84753200Y-84074000D02*
X85911156Y-82916044D01*
X91568029Y-77259175D02*
X91568027Y-77259173D01*
X88598166Y-80229031D02*
X88598168Y-80229032D01*
X90719496Y-78107704D02*
X90860724Y-78248932D01*
X89305475Y-79239277D02*
G75*
G02*
X89305523Y-78956875I141225J141177D01*
G01*
X91144344Y-77117945D02*
G75*
G02*
X91426828Y-77117917I141256J-141255D01*
G01*
X87750168Y-80512051D02*
G75*
G02*
X88032660Y-80512051I141246J-141246D01*
G01*
X86759885Y-81784873D02*
G75*
G02*
X86759934Y-81502478I141215J141173D01*
G01*
X88315131Y-80794525D02*
G75*
G03*
X88597587Y-80794525I141228J141226D01*
G01*
X85911156Y-82916044D02*
G75*
G03*
X85911106Y-82633706I-141156J141144D01*
G01*
X87466600Y-81643056D02*
G75*
G03*
X87749056Y-81643056I141228J141226D01*
G01*
X91284988Y-78107123D02*
G75*
G03*
X91284983Y-77824672I-141188J141223D01*
G01*
X90012210Y-79097480D02*
G75*
G03*
X90294702Y-79097480I141246J141246D01*
G01*
X91002533Y-77542211D02*
G75*
G02*
X91002550Y-77259772I141267J141211D01*
G01*
X92133475Y-77258461D02*
G75*
G03*
X92133452Y-76976116I-141175J141161D01*
G01*
X85911156Y-82633656D02*
G75*
G02*
X85911194Y-82351306I141244J141156D01*
G01*
X88739395Y-80652716D02*
G75*
G03*
X88739383Y-80370272I-141195J141216D01*
G01*
X88456940Y-80087804D02*
G75*
G02*
X88456964Y-79805372I141260J141204D01*
G01*
X88598751Y-79663538D02*
G75*
G02*
X88881228Y-79663517I141249J-141262D01*
G01*
X89163675Y-79946007D02*
G75*
G03*
X89446157Y-79946007I141241J141241D01*
G01*
X90860724Y-78248932D02*
G75*
G03*
X91143180Y-78248932I141228J141226D01*
G01*
X87890864Y-81501247D02*
G75*
G03*
X87890883Y-81218772I-141264J141247D01*
G01*
X87042350Y-82349831D02*
G75*
G03*
X87042335Y-82067354I-141250J141231D01*
G01*
X89587939Y-79804224D02*
G75*
G03*
X89587922Y-79521759I-141239J141224D01*
G01*
X90295734Y-77966450D02*
G75*
G02*
X90578254Y-77966438I141266J-141250D01*
G01*
X86618086Y-82491604D02*
G75*
G03*
X86900578Y-82491604I141246J141246D01*
G01*
X91709211Y-77400357D02*
G75*
G03*
X91991580Y-77400358I141185J141186D01*
G01*
X87608392Y-80936318D02*
G75*
G02*
X87608420Y-80653854I141208J141218D01*
G01*
X86053259Y-82209166D02*
G75*
G02*
X86335694Y-82209119I141241J-141234D01*
G01*
X86901709Y-81360606D02*
G75*
G02*
X87184153Y-81360606I141222J-141222D01*
G01*
X90153976Y-78390716D02*
G75*
G02*
X90154015Y-78108245I141224J141216D01*
G01*
X89447293Y-78815010D02*
G75*
G02*
X89729743Y-78815010I141225J-141226D01*
G01*
X90436474Y-78955707D02*
G75*
G03*
X90436435Y-78673254I-141274J141207D01*
G01*
X92133475Y-76976092D02*
G75*
G02*
X92133467Y-76693716I141225J141192D01*
G01*
X96056200Y-74168000D02*
X94245200Y-72357000D01*
X88149075Y-83516649D02*
X88297077Y-83368646D01*
X86886153Y-84227051D02*
X86886151Y-84227049D01*
X89569331Y-81543871D02*
X91575632Y-79537568D01*
X86323754Y-84236922D02*
X86471759Y-84088918D01*
X89007476Y-82105721D02*
X89007478Y-82105722D01*
X94245200Y-72357000D02*
X92238200Y-72357000D01*
X87734682Y-83378518D02*
X87872813Y-83516649D01*
X88158947Y-82954253D02*
X88020796Y-82816102D01*
X88869892Y-81692959D02*
X89018981Y-81543871D01*
X88158945Y-82954252D02*
X88158947Y-82954253D01*
X93807934Y-77305266D02*
X94649900Y-77305266D01*
X88297077Y-83092384D02*
X88158945Y-82954252D01*
X87172290Y-83388404D02*
X87320304Y-83240391D01*
X89145608Y-82243853D02*
X89007476Y-82105721D01*
X88583216Y-82529987D02*
X88583213Y-82529987D01*
X89007478Y-82105722D02*
X88869891Y-81968135D01*
X86886151Y-84227049D02*
X87024277Y-84365175D01*
X86461885Y-84651315D02*
X86323754Y-84513184D01*
X91575632Y-79537568D02*
X93807934Y-77305266D01*
X87300531Y-84365175D02*
X87448541Y-84217164D01*
X88997606Y-82668118D02*
X89145608Y-82520115D01*
X72823200Y-92702000D02*
X80308200Y-85217000D01*
X87734685Y-83378518D02*
X87734682Y-83378518D01*
X88583213Y-82529987D02*
X88721344Y-82668118D01*
X80308200Y-85217000D02*
X85896200Y-85217000D01*
X86446586Y-85217000D02*
X86599480Y-85064105D01*
X87310414Y-83802783D02*
X87310416Y-83802784D01*
X87448541Y-83940910D02*
X87310414Y-83802783D01*
X86461883Y-84651314D02*
X86461885Y-84651315D01*
X86599480Y-84788911D02*
X86461883Y-84651314D01*
X96056200Y-75898966D02*
X96056200Y-74168000D01*
X94649900Y-77305266D02*
X96056200Y-75898966D01*
X88445064Y-82391835D02*
X88583216Y-82529987D01*
X72823200Y-93472000D02*
X72823200Y-92702000D01*
X87596558Y-83240391D02*
X87734685Y-83378518D01*
X86748021Y-84088919D02*
X86886153Y-84227051D01*
X87310416Y-83802784D02*
X87172290Y-83664658D01*
X88020796Y-82539798D02*
X88168760Y-82391835D01*
X86599480Y-85064105D02*
G75*
G03*
X86599488Y-84788903I-137580J137605D01*
G01*
X87448541Y-84217164D02*
G75*
G03*
X87448578Y-83940873I-138141J138164D01*
G01*
X85896200Y-85217000D02*
G75*
G02*
X86171393Y-85216999I137597J-137598D01*
G01*
X88721344Y-82668118D02*
G75*
G03*
X88997606Y-82668118I138131J138130D01*
G01*
X86171393Y-85217000D02*
G75*
G03*
X86446586Y-85217001I137597J137598D01*
G01*
X88020796Y-82816102D02*
G75*
G02*
X88020846Y-82539848I138104J138102D01*
G01*
X87024277Y-84365175D02*
G75*
G03*
X87300531Y-84365175I138127J138127D01*
G01*
X87320304Y-83240391D02*
G75*
G02*
X87596558Y-83240391I138127J-138131D01*
G01*
X88168760Y-82391835D02*
G75*
G02*
X88445064Y-82391835I138152J-138153D01*
G01*
X86471759Y-84088918D02*
G75*
G02*
X86748032Y-84088908I138141J-138082D01*
G01*
X87172290Y-83664658D02*
G75*
G02*
X87172259Y-83388373I138110J138158D01*
G01*
X89294157Y-81543870D02*
G75*
G03*
X89569286Y-81543827I137543J137570D01*
G01*
X87872813Y-83516649D02*
G75*
G03*
X88149075Y-83516649I138131J138130D01*
G01*
X89018981Y-81543871D02*
G75*
G02*
X89294187Y-81543839I137619J-137629D01*
G01*
X89145608Y-82520115D02*
G75*
G03*
X89145592Y-82243869I-138108J138115D01*
G01*
X88297077Y-83368646D02*
G75*
G03*
X88297092Y-83092369I-138177J138146D01*
G01*
X88869891Y-81968135D02*
G75*
G02*
X88869844Y-81692912I137609J137635D01*
G01*
X86323754Y-84513184D02*
G75*
G02*
X86323801Y-84236969I138146J138084D01*
G01*
X69823200Y-93472000D02*
X69823200Y-92639000D01*
X78582963Y-74551763D02*
X78563200Y-74532000D01*
X71071730Y-78173884D02*
X71156582Y-78089033D01*
X73759743Y-77807198D02*
X73264252Y-77311707D01*
X71142934Y-79433029D02*
X71638431Y-79928526D01*
X72415724Y-78160235D02*
X72415726Y-78160237D01*
X74041578Y-75543449D02*
X74537048Y-76038919D01*
X69132200Y-81443763D02*
X70548963Y-80027000D01*
X73688520Y-76887447D02*
X73688518Y-76887445D01*
X73688518Y-76887445D02*
X74184015Y-77382942D01*
X72839990Y-77735973D02*
X73335480Y-78231463D01*
X74608278Y-76958677D02*
X74112780Y-76463179D01*
X71977842Y-79928526D02*
X72062694Y-79843673D01*
X71991462Y-78584501D02*
X72486959Y-79079998D01*
X73617314Y-75628300D02*
X73702166Y-75543449D01*
X73674891Y-78231463D02*
X73759743Y-78146610D01*
X72826370Y-79079998D02*
X72911222Y-78995145D01*
X72062694Y-79504261D02*
X71567196Y-79008763D01*
X74537048Y-76038919D02*
X74537046Y-76038917D01*
X71920244Y-77325342D02*
X72005096Y-77240491D01*
X71142936Y-79433031D02*
X71142934Y-79433029D01*
X69823200Y-92639000D02*
X69132200Y-91948000D01*
X69132200Y-91948000D02*
X69132200Y-81443763D01*
X76498200Y-74930000D02*
X77133200Y-75565000D01*
X74112782Y-76463181D02*
X73617313Y-75967712D01*
X72839992Y-77735975D02*
X72839990Y-77735973D01*
X73264254Y-77311709D02*
X72768785Y-76816240D01*
X78149200Y-75565000D02*
X78582963Y-75131237D01*
X70647438Y-78937533D02*
X71142936Y-79433031D01*
X71567196Y-79008763D02*
X71567198Y-79008765D01*
X70223172Y-79022387D02*
X70308028Y-78937532D01*
X74537046Y-76038917D02*
X75032543Y-76534414D01*
X72911222Y-78655733D02*
X72415724Y-78160235D01*
X72768786Y-76476828D02*
X72853638Y-76391977D01*
X70548964Y-79687588D02*
X70223173Y-79361797D01*
X75371954Y-76534414D02*
X75456807Y-76449560D01*
X72415726Y-78160237D02*
X71920243Y-77664754D01*
X78582963Y-75131237D02*
X78582963Y-74551763D01*
X71495994Y-78089033D02*
X71991464Y-78584503D01*
X75456807Y-76110149D02*
X75131015Y-75784357D01*
X75645963Y-74930000D02*
X76498200Y-74930000D01*
X74112780Y-76463179D02*
X74112782Y-76463181D01*
X72344508Y-77240491D02*
X72839992Y-77735975D01*
X71991464Y-78584503D02*
X71991462Y-78584501D01*
X73264252Y-77311707D02*
X73264254Y-77311709D01*
X77133200Y-75565000D02*
X78149200Y-75565000D01*
X74523426Y-77382942D02*
X74608278Y-77298089D01*
X73193050Y-76391977D02*
X73688520Y-76887447D01*
X71567198Y-79008765D02*
X71071729Y-78513296D01*
X75131015Y-75444946D02*
X75645963Y-74930000D01*
X71071729Y-78513296D02*
G75*
G02*
X71071739Y-78173894I169671J169696D01*
G01*
X74184015Y-77382942D02*
G75*
G03*
X74523426Y-77382943I169706J169707D01*
G01*
X72062694Y-79843673D02*
G75*
G03*
X72062661Y-79504294I-169694J169673D01*
G01*
X72911222Y-78995145D02*
G75*
G03*
X72911261Y-78655694I-169722J169745D01*
G01*
X75456807Y-76449560D02*
G75*
G03*
X75456762Y-76110195I-169707J169660D01*
G01*
X70223173Y-79361797D02*
G75*
G02*
X70223180Y-79022395I169727J169697D01*
G01*
X70308028Y-78937532D02*
G75*
G02*
X70647405Y-78937565I169672J-169668D01*
G01*
X73617313Y-75967712D02*
G75*
G02*
X73617307Y-75628293I169687J169712D01*
G01*
X72853638Y-76391977D02*
G75*
G02*
X73193050Y-76391977I169706J-169701D01*
G01*
X72486959Y-79079998D02*
G75*
G03*
X72826370Y-79079999I169706J169707D01*
G01*
X73702166Y-75543449D02*
G75*
G02*
X74041578Y-75543449I169706J-169701D01*
G01*
X71920243Y-77664754D02*
G75*
G02*
X71920195Y-77325293I169657J169754D01*
G01*
X75032543Y-76534414D02*
G75*
G03*
X75371954Y-76534415I169706J169707D01*
G01*
X71156582Y-78089033D02*
G75*
G02*
X71495994Y-78089033I169706J-169701D01*
G01*
X75131015Y-75784357D02*
G75*
G02*
X75131063Y-75444995I169685J169657D01*
G01*
X72768785Y-76816240D02*
G75*
G02*
X72768751Y-76476794I169715J169740D01*
G01*
X71638431Y-79928526D02*
G75*
G03*
X71977842Y-79928527I169706J169707D01*
G01*
X72005096Y-77240491D02*
G75*
G02*
X72344508Y-77240491I169706J-169701D01*
G01*
X70548963Y-80027000D02*
G75*
G03*
X70548958Y-79687595I-169663J169700D01*
G01*
X73759743Y-78146610D02*
G75*
G03*
X73759747Y-77807194I-169743J169710D01*
G01*
X74608278Y-77298089D02*
G75*
G03*
X74608261Y-76958694I-169678J169689D01*
G01*
X73335480Y-78231463D02*
G75*
G03*
X73674891Y-78231464I169706J169707D01*
G01*
X70323200Y-93472000D02*
X70300450Y-93449250D01*
X75660200Y-82128095D02*
X75780200Y-82128095D01*
X72420200Y-80913000D02*
X72420200Y-80417905D01*
X70300450Y-93449250D02*
X70300450Y-92334283D01*
X78276200Y-81153000D02*
X83063200Y-76366000D01*
X70021200Y-92055033D02*
X70021200Y-82931000D01*
X75420200Y-80417905D02*
X75420200Y-81888095D01*
X73620200Y-81888095D02*
X73620200Y-80417905D01*
X74460200Y-82128095D02*
X74580200Y-82128095D01*
X70300450Y-92334283D02*
X70021200Y-92055033D01*
X72660200Y-80177905D02*
X72780200Y-80177905D01*
X70021200Y-82931000D02*
X71799200Y-81153000D01*
X74220200Y-80417905D02*
X74220200Y-81888095D01*
X83063200Y-76366000D02*
X83063200Y-74532000D01*
X76020200Y-81888095D02*
X76020200Y-80417885D01*
X76620200Y-80417885D02*
X76620200Y-81888115D01*
X73260200Y-82128095D02*
X73380200Y-82128095D01*
X76860200Y-82128115D02*
X76980200Y-82128115D01*
X74820200Y-81888095D02*
X74820200Y-80417905D01*
X77460200Y-81153000D02*
X78276200Y-81153000D01*
X76260200Y-80177885D02*
X76380200Y-80177885D01*
X71799200Y-81153000D02*
X72180200Y-81153000D01*
X73020200Y-80417905D02*
X73020200Y-81888095D01*
X77220200Y-81888115D02*
X77220200Y-81393000D01*
X75060200Y-80177905D02*
X75180200Y-80177905D01*
X73860200Y-80177905D02*
X73980200Y-80177905D01*
X75780200Y-82128095D02*
G75*
G03*
X76020195Y-81888095I0J239995D01*
G01*
X72420200Y-80417905D02*
G75*
G02*
X72660200Y-80177900I240000J5D01*
G01*
X76620200Y-81888115D02*
G75*
G03*
X76860200Y-82128100I240000J15D01*
G01*
X74580200Y-82128095D02*
G75*
G03*
X74820195Y-81888095I0J239995D01*
G01*
X73020200Y-81888095D02*
G75*
G03*
X73260200Y-82128100I240000J-5D01*
G01*
X75420200Y-81888095D02*
G75*
G03*
X75660200Y-82128100I240000J-5D01*
G01*
X77220200Y-81393000D02*
G75*
G02*
X77460200Y-81153000I240000J0D01*
G01*
X76380200Y-80177885D02*
G75*
G02*
X76620215Y-80417885I0J-240015D01*
G01*
X76980200Y-82128115D02*
G75*
G03*
X77220215Y-81888115I0J240015D01*
G01*
X72780200Y-80177905D02*
G75*
G02*
X73020195Y-80417905I0J-239995D01*
G01*
X73980200Y-80177905D02*
G75*
G02*
X74220195Y-80417905I0J-239995D01*
G01*
X72180200Y-81153000D02*
G75*
G03*
X72420200Y-80913000I0J240000D01*
G01*
X73380200Y-82128095D02*
G75*
G03*
X73620195Y-81888095I0J239995D01*
G01*
X75180200Y-80177905D02*
G75*
G02*
X75420195Y-80417905I0J-239995D01*
G01*
X74820200Y-80417905D02*
G75*
G02*
X75060200Y-80177900I240000J5D01*
G01*
X74220200Y-81888095D02*
G75*
G03*
X74460200Y-82128100I240000J-5D01*
G01*
X76020200Y-80417885D02*
G75*
G02*
X76260200Y-80177900I240000J-15D01*
G01*
X73620200Y-80417905D02*
G75*
G02*
X73860200Y-80177900I240000J5D01*
G01*
X74238966Y-83480432D02*
X74776367Y-84017833D01*
X72541911Y-84838076D02*
X72626763Y-84753225D01*
X72655047Y-86139153D02*
X73192448Y-86676554D01*
X73390439Y-83989548D02*
X73475291Y-83904697D01*
X72230783Y-86563417D02*
X71693382Y-86026016D01*
X74352105Y-84442099D02*
X74352103Y-84442097D01*
X73814703Y-83904697D02*
X74352105Y-84442099D01*
X71693383Y-85686604D02*
X71778235Y-85601753D01*
X71212549Y-87242240D02*
X70844854Y-86874545D01*
X73616711Y-86252289D02*
X73079309Y-85714887D01*
X74352103Y-84442097D02*
X74889504Y-84979498D01*
X75313767Y-84555233D02*
X74776365Y-84017831D01*
X78022200Y-82931000D02*
X83563200Y-77390000D01*
X74380387Y-85828026D02*
X74465239Y-85743173D01*
X72966175Y-84753225D02*
X73503577Y-85290627D01*
X73927837Y-84866359D02*
X73927839Y-84866361D01*
X70844853Y-86535135D02*
X70929707Y-86450282D01*
X75455191Y-83339010D02*
X75863200Y-82931000D01*
X71806519Y-86987681D02*
X72343920Y-87525082D01*
X70823200Y-87971000D02*
X71212548Y-87581652D01*
X72768183Y-87100817D02*
X72230781Y-86563415D01*
X71269119Y-86450282D02*
X71806521Y-86987684D01*
X73503575Y-85290625D02*
X74040976Y-85828026D01*
X73079311Y-85714889D02*
X72541910Y-85177488D01*
X73503577Y-85290627D02*
X73503575Y-85290625D01*
X71806521Y-86987684D02*
X71806519Y-86987681D01*
X74465239Y-85403761D02*
X73927837Y-84866359D01*
X73531859Y-86676554D02*
X73616711Y-86591701D01*
X75863200Y-82931000D02*
X78022200Y-82931000D01*
X73927839Y-84866361D02*
X73390438Y-84328960D01*
X72683331Y-87525082D02*
X72768183Y-87440229D01*
X75228915Y-84979498D02*
X75313767Y-84894645D01*
X83563200Y-77390000D02*
X83563200Y-74532000D01*
X72230781Y-86563415D02*
X72230783Y-86563417D01*
X73079309Y-85714887D02*
X73079311Y-85714889D01*
X74776365Y-84017831D02*
X74776367Y-84017833D01*
X72117647Y-85601753D02*
X72655049Y-86139155D01*
X75370339Y-83423864D02*
X75455191Y-83339010D01*
X70823200Y-93472000D02*
X70823200Y-87971000D01*
X72655049Y-86139155D02*
X72655047Y-86139153D01*
X74238967Y-83141020D02*
X74323819Y-83056169D01*
X74663231Y-83056169D02*
X75030927Y-83423865D01*
X72541910Y-85177488D02*
G75*
G02*
X72541928Y-84838094I169690J169688D01*
G01*
X71778235Y-85601753D02*
G75*
G02*
X72117647Y-85601753I169706J-169701D01*
G01*
X70929707Y-86450282D02*
G75*
G02*
X71269119Y-86450282I169706J-169708D01*
G01*
X74465239Y-85743173D02*
G75*
G03*
X74465206Y-85403794I-169739J169673D01*
G01*
X72768183Y-87440229D02*
G75*
G03*
X72768206Y-87100794I-169683J169729D01*
G01*
X74040976Y-85828026D02*
G75*
G03*
X74380387Y-85828027I169706J169707D01*
G01*
X75030927Y-83423865D02*
G75*
G03*
X75370306Y-83423832I169673J169665D01*
G01*
X74238966Y-83480432D02*
G75*
G02*
X74238940Y-83140994I169734J169732D01*
G01*
X73192448Y-86676554D02*
G75*
G03*
X73531859Y-86676555I169706J169707D01*
G01*
X72626763Y-84753225D02*
G75*
G02*
X72966175Y-84753225I169706J-169701D01*
G01*
X71212548Y-87581652D02*
G75*
G03*
X71212595Y-87242195I-169748J169752D01*
G01*
X73475291Y-83904697D02*
G75*
G02*
X73814703Y-83904697I169706J-169701D01*
G01*
X74889504Y-84979498D02*
G75*
G03*
X75228915Y-84979499I169706J169707D01*
G01*
X72343920Y-87525082D02*
G75*
G03*
X72683331Y-87525083I169706J169707D01*
G01*
X70844854Y-86874545D02*
G75*
G02*
X70844813Y-86535096I169746J169745D01*
G01*
X73616711Y-86591701D02*
G75*
G03*
X73616706Y-86252294I-169711J169701D01*
G01*
X75313767Y-84894645D02*
G75*
G03*
X75313806Y-84555194I-169667J169745D01*
G01*
X74323819Y-83056169D02*
G75*
G02*
X74663231Y-83056169I169706J-169701D01*
G01*
X71693382Y-86026016D02*
G75*
G02*
X71693372Y-85686594I169718J169716D01*
G01*
X73390438Y-84328960D02*
G75*
G02*
X73390484Y-83989594I169662J169660D01*
G01*
D51*
X133754200Y-50313000D02*
X135299200Y-48768000D01*
X122345200Y-64897000D02*
X121202200Y-63754000D01*
X121202200Y-60579000D02*
X124377200Y-57404000D01*
X133754200Y-54948500D02*
X133754200Y-53913500D01*
X131298700Y-57404000D02*
X133754200Y-54948500D01*
X121202200Y-63754000D02*
X121202200Y-60579000D01*
X124377200Y-57404000D02*
X131298700Y-57404000D01*
X95285200Y-70857000D02*
X92238200Y-70857000D01*
X133754200Y-53913500D02*
X133754200Y-50313000D01*
X97080084Y-68714884D02*
X96556316Y-68714884D01*
D53*
X140252200Y-55372000D02*
X140252200Y-53594000D01*
D51*
X97199200Y-68834000D02*
X97080084Y-68714884D01*
X135337214Y-56826000D02*
X136666700Y-56826000D01*
D53*
X138798200Y-56826000D02*
X140252200Y-55372000D01*
D51*
X132600214Y-59563000D02*
X135337214Y-56826000D01*
X94914200Y-70357000D02*
X92238200Y-70357000D01*
D53*
X136666700Y-56826000D02*
X138798200Y-56826000D01*
D51*
X123996200Y-59690000D02*
X124123200Y-59563000D01*
X124123200Y-59563000D02*
X132600214Y-59563000D01*
X96556316Y-68714884D02*
X94914200Y-70357000D01*
X124504200Y-58166000D02*
X131489200Y-58166000D01*
X135182434Y-51943000D02*
X134254200Y-52871234D01*
X136950200Y-51943000D02*
X135182434Y-51943000D01*
X94641396Y-69857000D02*
X92238200Y-69857000D01*
X134254200Y-52871234D02*
X134254200Y-53913500D01*
X134254200Y-55401000D02*
X134254200Y-53913500D01*
X131489200Y-58166000D02*
X134254200Y-55401000D01*
X121837200Y-62611000D02*
X121837200Y-60833000D01*
X96818200Y-68072000D02*
X96426396Y-68072000D01*
X121837200Y-60833000D02*
X124504200Y-58166000D01*
X96426396Y-68072000D02*
X94641396Y-69857000D01*
X124758200Y-61087000D02*
X134664200Y-61087000D01*
X123361200Y-62484000D02*
X123361200Y-62357000D01*
X94833707Y-68754507D02*
X94231214Y-69357000D01*
X134925200Y-60826000D02*
X136666700Y-60826000D01*
X94231214Y-69357000D02*
X92238200Y-69357000D01*
X136659700Y-60833000D02*
X136666700Y-60826000D01*
X134664200Y-61087000D02*
X134925200Y-60826000D01*
D53*
X148507200Y-53721000D02*
X141402200Y-60826000D01*
X141402200Y-60826000D02*
X136666700Y-60826000D01*
D51*
X123361200Y-62484000D02*
X124758200Y-61087000D01*
X125254200Y-76061000D02*
X125254200Y-75238500D01*
X135950200Y-87233000D02*
X139744200Y-87233000D01*
X125901200Y-76962000D02*
X125901200Y-76708000D01*
X125774200Y-89154000D02*
X134029200Y-89154000D01*
X139760200Y-87249000D02*
X139744200Y-87233000D01*
X125901200Y-76708000D02*
X125254200Y-76061000D01*
X134029200Y-89154000D02*
X135950200Y-87233000D01*
X141141200Y-87249000D02*
X139760200Y-87249000D01*
X126663200Y-77216000D02*
X126507200Y-77060000D01*
X134918200Y-81153000D02*
X137712200Y-78359000D01*
X128060200Y-80137000D02*
X129076200Y-81153000D01*
X126048214Y-76252000D02*
X126030201Y-76252000D01*
X129076200Y-81153000D02*
X134918200Y-81153000D01*
X126030201Y-76252000D02*
X125754200Y-75975999D01*
X126507200Y-76710986D02*
X126048214Y-76252000D01*
X137712200Y-78359000D02*
X141903200Y-78359000D01*
X126663200Y-80137000D02*
X128060200Y-80137000D01*
X125754200Y-75975999D02*
X125754200Y-75238500D01*
X126507200Y-77060000D02*
X126507200Y-76710986D01*
X125806186Y-77851000D02*
X125295200Y-77340014D01*
X125295200Y-77340014D02*
X125295200Y-76991000D01*
X125295200Y-76991000D02*
X124768119Y-76463919D01*
X124768119Y-75252419D02*
X124754200Y-75238500D01*
X141649200Y-76962000D02*
X139903200Y-76962000D01*
X138442700Y-76803000D02*
X139744200Y-76803000D01*
X137775700Y-77470000D02*
X138442700Y-76803000D01*
X139903200Y-76962000D02*
X139744200Y-76803000D01*
X128695200Y-77851000D02*
X125806186Y-77851000D01*
X124768119Y-76463919D02*
X124768119Y-75252419D01*
X133648200Y-77470000D02*
X137775700Y-77470000D01*
X141268200Y-82169000D02*
X139744200Y-82169000D01*
X124250200Y-76216372D02*
X124250200Y-75242500D01*
X124162119Y-76304453D02*
X124250200Y-76216372D01*
X126025214Y-88548000D02*
X126029214Y-88552000D01*
X123902200Y-88552000D02*
X125519186Y-88552000D01*
X125523186Y-88548000D02*
X126025214Y-88548000D01*
X133742200Y-88552000D02*
X139744200Y-82550000D01*
X124250200Y-75242500D02*
X124254200Y-75238500D01*
X126029214Y-88552000D02*
X133742200Y-88552000D01*
X139744200Y-82550000D02*
X139744200Y-82169000D01*
X124162119Y-76447000D02*
X124162119Y-76304453D01*
X123488200Y-88138000D02*
X123902200Y-88552000D01*
X125519186Y-88552000D02*
X125523186Y-88548000D01*
X94913200Y-57150000D02*
X95802200Y-57150000D01*
X88563200Y-59182000D02*
X88563200Y-57785000D01*
X94405200Y-56642000D02*
X94913200Y-57150000D01*
X88563200Y-57785000D02*
X89706200Y-56642000D01*
X89706200Y-56642000D02*
X94405200Y-56642000D01*
X105708200Y-67056000D02*
X108938200Y-63826000D01*
X99993200Y-71755000D02*
X99993200Y-68484986D01*
X98834200Y-72136000D02*
X99612200Y-72136000D01*
X101422186Y-67056000D02*
X105708200Y-67056000D01*
X99993200Y-68484986D02*
X101422186Y-67056000D01*
X99612200Y-72136000D02*
X99993200Y-71755000D01*
X108938200Y-63826000D02*
X115341700Y-63826000D01*
X92310575Y-71929375D02*
X94422329Y-71929375D01*
X92238200Y-71857000D02*
X92310575Y-71929375D01*
X94422329Y-71929375D02*
X94628954Y-72136000D01*
X94628954Y-72136000D02*
X96834200Y-72136000D01*
X95437200Y-71628000D02*
X96834200Y-70231000D01*
X92310200Y-71429000D02*
X94587200Y-71429000D01*
X94587200Y-71429000D02*
X94786200Y-71628000D01*
X94786200Y-71628000D02*
X95437200Y-71628000D01*
X92238200Y-71357000D02*
X92310200Y-71429000D01*
X94040200Y-57277000D02*
X95818200Y-59055000D01*
X89960200Y-57277000D02*
X94040200Y-57277000D01*
X89063200Y-58174000D02*
X89960200Y-57277000D01*
X89063200Y-59182000D02*
X89063200Y-58174000D01*
X105835200Y-68326000D02*
X108375200Y-65786000D01*
X99104200Y-55118000D02*
X88182200Y-55118000D01*
X104311200Y-68326000D02*
X105835200Y-68326000D01*
X112463200Y-66826000D02*
X112439200Y-66802000D01*
X104184200Y-68453000D02*
X104311200Y-68326000D01*
X85563200Y-57737000D02*
X85563200Y-59182000D01*
X108375200Y-65786000D02*
X112058200Y-65786000D01*
X112439200Y-66167000D02*
X112439200Y-66802000D01*
X88182200Y-55118000D02*
X85563200Y-57737000D01*
X101263200Y-68072000D02*
X101615200Y-67720000D01*
X115341700Y-66826000D02*
X112463200Y-66826000D01*
X101644200Y-60833000D02*
X101644200Y-65024000D01*
X101615200Y-67720000D02*
X103451200Y-67720000D01*
X112058200Y-65786000D02*
X112439200Y-66167000D01*
X101644200Y-65024000D02*
X101263200Y-65405000D01*
X103451200Y-67720000D02*
X104184200Y-68453000D01*
X87801200Y-54229000D02*
X85063200Y-56967000D01*
X102533200Y-73152000D02*
X102533200Y-68326000D01*
X112423200Y-69485000D02*
X112058200Y-69850000D01*
X102025200Y-73660000D02*
X102533200Y-73152000D01*
X112431200Y-68826000D02*
X112423200Y-68834000D01*
X100755200Y-53467000D02*
X99993200Y-54229000D01*
X85063200Y-56967000D02*
X85063200Y-59182000D01*
X112423200Y-68834000D02*
X112423200Y-69485000D01*
X115341700Y-68826000D02*
X112431200Y-68826000D01*
X102533200Y-54483000D02*
X101771200Y-54483000D01*
X101771200Y-54483000D02*
X100755200Y-53467000D01*
X99993200Y-54229000D02*
X87801200Y-54229000D01*
X102533200Y-65278000D02*
X102533200Y-60833000D01*
X104057200Y-57023000D02*
X109391200Y-51689000D01*
X118754200Y-52543000D02*
X118754200Y-53913500D01*
X100501200Y-57023000D02*
X104057200Y-57023000D01*
X97818200Y-59055000D02*
X98469200Y-59055000D01*
X98469200Y-59055000D02*
X100501200Y-57023000D01*
X109391200Y-51689000D02*
X117900200Y-51689000D01*
X117900200Y-51689000D02*
X118754200Y-52543000D01*
X90103200Y-95012000D02*
X88309200Y-93218000D01*
X90341200Y-95012000D02*
X90103200Y-95012000D01*
X98834200Y-70231000D02*
X98834200Y-68342000D01*
X98834200Y-68342000D02*
X100628200Y-66548000D01*
X104311200Y-66548000D02*
X107533200Y-63326000D01*
X100628200Y-66548000D02*
X104311200Y-66548000D01*
X107533200Y-63326000D02*
X115341700Y-63326000D01*
X113297200Y-62326000D02*
X112439200Y-61468000D01*
X115341700Y-62326000D02*
X113297200Y-62326000D01*
X119754200Y-53913500D02*
X119754200Y-52654000D01*
X103168200Y-56388000D02*
X98564200Y-56388000D01*
X108502200Y-51054000D02*
X103168200Y-56388000D01*
X118154200Y-51054000D02*
X108502200Y-51054000D01*
X98564200Y-56388000D02*
X97802200Y-57150000D01*
X119754200Y-52654000D02*
X118154200Y-51054000D01*
X84499200Y-95028000D02*
X84599200Y-95028000D01*
X84599200Y-95028000D02*
X86409200Y-93218000D01*
X102345200Y-93298000D02*
X100377200Y-95266000D01*
X100377200Y-95266000D02*
X100247200Y-95266000D01*
X95292200Y-47402000D02*
X96816200Y-45878000D01*
X96816200Y-45878000D02*
X97723200Y-45878000D01*
X90976200Y-44452000D02*
X95390200Y-44452000D01*
D52*
X96818200Y-45880000D02*
X96816200Y-45878000D01*
D51*
X98594200Y-47656000D02*
X96816200Y-45878000D01*
X95390200Y-44452000D02*
X96816200Y-45878000D01*
X90976200Y-47402000D02*
X95292200Y-47402000D01*
D52*
X96818200Y-49772000D02*
X96818200Y-45880000D01*
D51*
X99374200Y-47656000D02*
X98594200Y-47656000D01*
X97723200Y-45878000D02*
X99374200Y-44227000D01*
X118413200Y-93298000D02*
X116445200Y-95266000D01*
X116445200Y-95266000D02*
X116249200Y-95266000D01*
X122281200Y-95266000D02*
X120313200Y-93298000D01*
X122345200Y-95266000D02*
X122281200Y-95266000D01*
X75736200Y-56896000D02*
X75101200Y-56896000D01*
X76371200Y-59309000D02*
X76371200Y-57531000D01*
X76371200Y-57531000D02*
X75736200Y-56896000D01*
X75887200Y-60857000D02*
X75609200Y-60579000D01*
X75609200Y-60579000D02*
X75609200Y-60071000D01*
X75609200Y-60071000D02*
X76371200Y-59309000D01*
X76888200Y-60857000D02*
X75887200Y-60857000D01*
X106213200Y-95266000D02*
X106343200Y-95266000D01*
X104245200Y-93298000D02*
X106213200Y-95266000D01*
X138217200Y-95266000D02*
X138347200Y-95266000D01*
X136249200Y-93298000D02*
X138217200Y-95266000D01*
X80063200Y-54492000D02*
X78403200Y-52832000D01*
X78403200Y-52832000D02*
X75101200Y-52832000D01*
X80063200Y-59182000D02*
X80063200Y-54492000D01*
X115341700Y-61326000D02*
X114202200Y-61326000D01*
X114202200Y-61326000D02*
X112439200Y-59563000D01*
X78276200Y-54864000D02*
X75085200Y-54864000D01*
X79563200Y-56151000D02*
X78276200Y-54864000D01*
X79563200Y-59182000D02*
X79563200Y-56151000D01*
X75498200Y-61357000D02*
X75085200Y-60944000D01*
X75085200Y-60944000D02*
X75085200Y-58928000D01*
X76888200Y-61357000D02*
X75498200Y-61357000D01*
X132381200Y-95266000D02*
X132251200Y-95266000D01*
X134349200Y-93298000D02*
X132381200Y-95266000D01*
X101136200Y-51689000D02*
X103168200Y-49657000D01*
X103168200Y-49657000D02*
X123742200Y-49657000D01*
X84563200Y-59182000D02*
X84563200Y-56197000D01*
D53*
X140092200Y-58326000D02*
X136666700Y-58326000D01*
D51*
X98342200Y-53340000D02*
X99993200Y-51689000D01*
X144824200Y-50927000D02*
X144824200Y-53594000D01*
D53*
X144824200Y-53594000D02*
X140092200Y-58326000D01*
D51*
X84563200Y-56197000D02*
X87420200Y-53340000D01*
X99993200Y-51689000D02*
X101136200Y-51689000D01*
X87420200Y-53340000D02*
X98342200Y-53340000D01*
X123742200Y-49657000D02*
X123869200Y-49784000D01*
D52*
X126515490Y-67500290D02*
X126004200Y-66989000D01*
D53*
X136666700Y-69326000D02*
X138204200Y-69326000D01*
X69250200Y-56896000D02*
X70275200Y-56896000D01*
X69767200Y-99520000D02*
X69767200Y-99172000D01*
X126441200Y-102948000D02*
X126441200Y-102280000D01*
X138118200Y-58826000D02*
X138347200Y-59055000D01*
X81197200Y-57023000D02*
X81563200Y-57389000D01*
X76101200Y-104394000D02*
X77514200Y-104394000D01*
X135963201Y-89154000D02*
X135299200Y-89818001D01*
X70323200Y-98964000D02*
X70323200Y-98347000D01*
X119363200Y-90598000D02*
X119363200Y-91887000D01*
X122254200Y-76129649D02*
X121978508Y-76405341D01*
X62782200Y-62611000D02*
X64052200Y-62611000D01*
X133499200Y-87271000D02*
X134156200Y-86614000D01*
D52*
X109746800Y-83841500D02*
X109746800Y-83159600D01*
X113963200Y-76501000D02*
X113963200Y-75311000D01*
D53*
X118789200Y-97303500D02*
X117770209Y-97303500D01*
D52*
X109442000Y-76512400D02*
X109406400Y-76548000D01*
D53*
X69250200Y-58928000D02*
X70275200Y-58928000D01*
X64052200Y-62611000D02*
X64433200Y-62230000D01*
X119254200Y-53913500D02*
X119254200Y-57193000D01*
X138204200Y-69326000D02*
X138220200Y-69342000D01*
X79063200Y-57302000D02*
X79063200Y-59182000D01*
X62782200Y-61341000D02*
X64179200Y-61341000D01*
X74317700Y-69469000D02*
X74720200Y-69871500D01*
D52*
X110204000Y-73863200D02*
X109442000Y-74625200D01*
D51*
X113645700Y-58356500D02*
X114176200Y-57826000D01*
D53*
X71545200Y-65532000D02*
X72688200Y-65532000D01*
X111296200Y-94890500D02*
X111296200Y-93853000D01*
X135963201Y-89124999D02*
X135963201Y-89154000D01*
D52*
X126605200Y-67500290D02*
X126515490Y-67500290D01*
D53*
X126409200Y-85090000D02*
X126663200Y-84836000D01*
X74847200Y-73935500D02*
X75968700Y-73935500D01*
X115341700Y-56326000D02*
X113771200Y-56326000D01*
X76888200Y-70357000D02*
X78531200Y-70357000D01*
X132526700Y-77470000D02*
X133669700Y-78613000D01*
X103295200Y-91377999D02*
X103295200Y-90598000D01*
D52*
X114471200Y-91059000D02*
X114217200Y-91313000D01*
D53*
X133372200Y-84985000D02*
X133521200Y-84836000D01*
X119363200Y-91887000D02*
X119424200Y-91948000D01*
X114535022Y-72826000D02*
X115341700Y-72826000D01*
X95325200Y-51847000D02*
X95294200Y-51816000D01*
X136666700Y-58826000D02*
X138118200Y-58826000D01*
X96818200Y-62865000D02*
X95802200Y-62865000D01*
X66878200Y-100457000D02*
X66973200Y-100457000D01*
D52*
X123471200Y-64576000D02*
X123404200Y-64643000D01*
X126004200Y-62036000D02*
X125944200Y-61976000D01*
D53*
X113771200Y-56326000D02*
X113582200Y-56515000D01*
X126028200Y-87376000D02*
X124669700Y-87376000D01*
X123254200Y-53913500D02*
X123254200Y-55265000D01*
X84245200Y-88540500D02*
X84245200Y-87503000D01*
X102787200Y-97303500D02*
X101790641Y-97303500D01*
X87359200Y-90598000D02*
X87359200Y-89093000D01*
X78806378Y-73406000D02*
X79063200Y-73662822D01*
X69767200Y-99172000D02*
X69823200Y-99116000D01*
X131754200Y-76316000D02*
X131489200Y-76581000D01*
X136666700Y-72826000D02*
X137473378Y-72826000D01*
X117463700Y-60826000D02*
X118091700Y-60198000D01*
X114264200Y-73586747D02*
X114264200Y-73096822D01*
X122254200Y-75238500D02*
X122254200Y-76129649D01*
X122620700Y-51816000D02*
X121583200Y-51816000D01*
X101790641Y-97303500D02*
X101747200Y-97346941D01*
X75968700Y-73935500D02*
X75990200Y-73914000D01*
X65343700Y-98573500D02*
X65195200Y-98425000D01*
X71693700Y-73935500D02*
X71672200Y-73914000D01*
X103295200Y-91377999D02*
X103295200Y-91948000D01*
X66973200Y-98573500D02*
X65343700Y-98573500D01*
X74317700Y-69447500D02*
X74317700Y-69469000D01*
X87359200Y-89093000D02*
X87293200Y-89027000D01*
X126663200Y-86741000D02*
X126028200Y-87376000D01*
D51*
X113645700Y-58356500D02*
X113645700Y-58483500D01*
D53*
X77398575Y-73406000D02*
X78806378Y-73406000D01*
X77347575Y-73457000D02*
X77398575Y-73406000D01*
X131362200Y-50927000D02*
X131108200Y-50673000D01*
X114264200Y-73096822D02*
X114535022Y-72826000D01*
X94437200Y-102648000D02*
X93897200Y-102108000D01*
D52*
X126004200Y-66989000D02*
X126004200Y-64576000D01*
D53*
X124144700Y-85090000D02*
X126409200Y-85090000D01*
D52*
X114471200Y-90170000D02*
X114471200Y-91059000D01*
D53*
X78657200Y-56896000D02*
X79063200Y-57302000D01*
D52*
X67989200Y-75565000D02*
X67989200Y-74295000D01*
D53*
X94807700Y-74930000D02*
X94807700Y-75924500D01*
X138575800Y-74803000D02*
X139744200Y-74803000D01*
D51*
X113645700Y-58483500D02*
X113988200Y-58826000D01*
D53*
X73958200Y-68834000D02*
X73958200Y-69088000D01*
X74327200Y-99838000D02*
X75212200Y-99838000D01*
X69767200Y-99520000D02*
X70323200Y-98964000D01*
X138173200Y-63326000D02*
X138220200Y-63373000D01*
X75212200Y-99838000D02*
X75355200Y-99695000D01*
X126754200Y-75238500D02*
X126754200Y-72426000D01*
X134791200Y-97325000D02*
X133773141Y-97325000D01*
X68666200Y-68961000D02*
X67862200Y-68961000D01*
X76888200Y-65357000D02*
X75530200Y-65357000D01*
X131754200Y-75238500D02*
X131754200Y-76316000D01*
X72815200Y-73935500D02*
X71693700Y-73935500D01*
X70323200Y-98347000D02*
X70323200Y-97159500D01*
X132713700Y-87271000D02*
X133499200Y-87271000D01*
X126754200Y-72426000D02*
X126790200Y-72390000D01*
X132188700Y-84985000D02*
X133372200Y-84985000D01*
X79165200Y-91567000D02*
X78530200Y-92202000D01*
X119254200Y-57193000D02*
X118916200Y-57531000D01*
X133692200Y-79800000D02*
X133775200Y-79883000D01*
X136666700Y-63326000D02*
X138173200Y-63326000D01*
D52*
X126004200Y-64576000D02*
X126004200Y-62036000D01*
D53*
X129754200Y-54907000D02*
X129754200Y-53913500D01*
X79165200Y-91080500D02*
X79165200Y-91567000D01*
X67227200Y-67818000D02*
X66084200Y-67818000D01*
X126409200Y-80793500D02*
X126409200Y-81534000D01*
X135299200Y-89818001D02*
X135299200Y-90598000D01*
D52*
X109442000Y-74625200D02*
X109442000Y-76512400D01*
D53*
X81563200Y-57389000D02*
X81563200Y-59182000D01*
X79063200Y-73662822D02*
X79063200Y-74532000D01*
X131108200Y-50673000D02*
X131108200Y-50524500D01*
X114597229Y-73919776D02*
X114264200Y-73586747D01*
X117770209Y-97303500D02*
X117749200Y-97282491D01*
X69823200Y-99116000D02*
X69823200Y-98347000D01*
D52*
X114344200Y-86233000D02*
X114344200Y-84603500D01*
D53*
X94437200Y-103070000D02*
X94437200Y-102648000D01*
X81197200Y-56769000D02*
X81197200Y-57023000D01*
X95802200Y-62865000D02*
X95421200Y-63246000D01*
X126409200Y-81534000D02*
X126790200Y-81915000D01*
X136315200Y-88773000D02*
X135963201Y-89124999D01*
X68729700Y-70739000D02*
X67481200Y-70739000D01*
X69345200Y-68282000D02*
X68666200Y-68961000D01*
X62782200Y-58801000D02*
X64306200Y-58801000D01*
X133773141Y-97325000D02*
X133751200Y-97346941D01*
X75530200Y-65357000D02*
X75482200Y-65405000D01*
X115341700Y-60826000D02*
X117463700Y-60826000D01*
X66973200Y-91313000D02*
X67100200Y-91186000D01*
X126441200Y-102280000D02*
X126142200Y-101981000D01*
D52*
X128671200Y-64576000D02*
X128738200Y-64643000D01*
D53*
X131108200Y-50524500D02*
X130473200Y-49889500D01*
X115341700Y-67826000D02*
X117654200Y-67826000D01*
X117654200Y-67826000D02*
X118154200Y-68326000D01*
X76244200Y-91567000D02*
X76879200Y-90932000D01*
X66973200Y-100457000D02*
X67989200Y-99441000D01*
D52*
X126004200Y-64576000D02*
X123471200Y-64576000D01*
D53*
X73958200Y-69088000D02*
X74317700Y-69447500D01*
X133669700Y-78613000D02*
X133902200Y-78613000D01*
X138144000Y-75234800D02*
X138575800Y-74803000D01*
X88309200Y-97282000D02*
X87060700Y-97282000D01*
X96818200Y-51847000D02*
X95325200Y-51847000D01*
X137473378Y-72826000D02*
X138093200Y-73445822D01*
D52*
X100153200Y-76708000D02*
X101103200Y-76708000D01*
X109746800Y-83159600D02*
X109391200Y-82804000D01*
D53*
X78531200Y-70357000D02*
X78784200Y-70104000D01*
X69250200Y-54864000D02*
X70275200Y-54864000D01*
X66973200Y-92456000D02*
X66973200Y-91313000D01*
D52*
X126004200Y-64576000D02*
X128671200Y-64576000D01*
D53*
X130219200Y-55372000D02*
X129754200Y-54907000D01*
X69250200Y-52832000D02*
X70275200Y-52832000D01*
X125647200Y-49889500D02*
X125287700Y-49889500D01*
X76900700Y-78888500D02*
X76879200Y-78867000D01*
D52*
X67989200Y-74295000D02*
X67862200Y-74168000D01*
D53*
X92238200Y-61357000D02*
X93246200Y-61357000D01*
X123210583Y-81369831D02*
X123210583Y-80901617D01*
X78403200Y-78888500D02*
X76900700Y-78888500D01*
X125287700Y-49889500D02*
X124377200Y-50800000D01*
X123254200Y-55265000D02*
X123361200Y-55372000D01*
D51*
X114176200Y-57826000D02*
X115341700Y-57826000D01*
D53*
X93246200Y-61357000D02*
X93897200Y-60706000D01*
D51*
X113988200Y-58826000D02*
X115341700Y-58826000D01*
D53*
X139744200Y-91059000D02*
X139744200Y-92202000D01*
X132251200Y-79800000D02*
X133692200Y-79800000D01*
X64179200Y-61341000D02*
X64941200Y-60579000D01*
X123210583Y-80901617D02*
X124207200Y-79905000D01*
X138093200Y-73445822D02*
X138093200Y-73787000D01*
X94807700Y-75924500D02*
X94278200Y-76454000D01*
X87060700Y-97282000D02*
X87039200Y-97303500D01*
X66862200Y-104394000D02*
X65068200Y-104394000D01*
X76244200Y-92075000D02*
X76244200Y-91567000D01*
X58972200Y-65151000D02*
X58972200Y-66167000D01*
D51*
X90984270Y-61857000D02*
X92238200Y-61857000D01*
X90849270Y-61722000D02*
X90984270Y-61857000D01*
X88055200Y-61722000D02*
X90849270Y-61722000D01*
D53*
X117282925Y-77110000D02*
X117754200Y-76638725D01*
X134254200Y-72009000D02*
X134254200Y-73787000D01*
X117754200Y-76638725D02*
X117754200Y-75238500D01*
X116275762Y-76601088D02*
X116275762Y-76646287D01*
X133754200Y-75238500D02*
X133754200Y-74287000D01*
X132759200Y-58039000D02*
X134472200Y-56326000D01*
X134283200Y-71980000D02*
X134254200Y-72009000D01*
X116135481Y-76460807D02*
X116275762Y-76601088D01*
X134254200Y-73787000D02*
X134254200Y-75238500D01*
X133754200Y-74287000D02*
X134254200Y-73787000D01*
X117885560Y-55011209D02*
X117754200Y-54879849D01*
X116275762Y-76646287D02*
X116739475Y-77110000D01*
X134283200Y-67310000D02*
X134283200Y-71980000D01*
X134472200Y-56326000D02*
X136666700Y-56326000D01*
X117754200Y-54879849D02*
X117754200Y-53913500D01*
X116739475Y-77110000D02*
X117282925Y-77110000D01*
X56305200Y-60318001D02*
X57822201Y-58801000D01*
D51*
X74106700Y-67796500D02*
X72942200Y-68961000D01*
D53*
X56940200Y-68707000D02*
X56305200Y-68072000D01*
D51*
X76888200Y-67357000D02*
X76089732Y-67357000D01*
D53*
X56305200Y-68072000D02*
X56305200Y-60318001D01*
D51*
X72942200Y-68961000D02*
X72942200Y-69596000D01*
X76089732Y-67357000D02*
X75650232Y-67796500D01*
X74593200Y-67796500D02*
X74106700Y-67796500D01*
X75650232Y-67796500D02*
X74593200Y-67796500D01*
X72942200Y-69596000D02*
X72561200Y-69977000D01*
D53*
X57822201Y-58801000D02*
X58972200Y-58801000D01*
D51*
X74802700Y-94659500D02*
X74010700Y-94659500D01*
X68243200Y-94659500D02*
X67101700Y-94659500D01*
X69135700Y-94659500D02*
X68243200Y-94659500D01*
X67101700Y-94659500D02*
X66973200Y-94531000D01*
X74974200Y-94488000D02*
X74802700Y-94659500D01*
X74847200Y-94488000D02*
X74974200Y-94488000D01*
X66973200Y-94531000D02*
X67227200Y-94531000D01*
X90063200Y-73382000D02*
X90063200Y-74532000D01*
X85951200Y-66857000D02*
X92238200Y-66857000D01*
X85515200Y-64516000D02*
X85134200Y-64897000D01*
X85261200Y-66167000D02*
X85951200Y-66857000D01*
X85007200Y-51816000D02*
X84499200Y-51816000D01*
X85515200Y-60452000D02*
X85515200Y-64516000D01*
X84499200Y-51816000D02*
X80054200Y-47371000D01*
X80054200Y-47371000D02*
X80054200Y-45624000D01*
X80054200Y-45624000D02*
X78784200Y-44354000D01*
X101374200Y-44227000D02*
X101613200Y-44227000D01*
X110110200Y-43053000D02*
X111279200Y-44222000D01*
X82063200Y-56873000D02*
X81832200Y-56642000D01*
X72434200Y-48133000D02*
X72434200Y-45624000D01*
X101374200Y-44053000D02*
X101374200Y-44227000D01*
X102787200Y-43053000D02*
X110110200Y-43053000D01*
X79546200Y-52959000D02*
X77895200Y-51308000D01*
X77895200Y-51308000D02*
X75609200Y-51308000D01*
X99866200Y-42545000D02*
X101374200Y-44053000D01*
X75609200Y-51308000D02*
X72434200Y-48133000D01*
X82063200Y-59182000D02*
X82063200Y-56873000D01*
X81832200Y-56642000D02*
X81832200Y-55753000D01*
X75513200Y-42545000D02*
X99866200Y-42545000D01*
X72434200Y-45624000D02*
X75513200Y-42545000D01*
X101613200Y-44227000D02*
X102787200Y-43053000D01*
X82848200Y-50958000D02*
X78784200Y-46894000D01*
X84499200Y-64262000D02*
X84499200Y-60452000D01*
X83864200Y-64897000D02*
X84499200Y-64262000D01*
X82563200Y-72421000D02*
X82563200Y-74532000D01*
X84499200Y-71755000D02*
X83229200Y-71755000D01*
X82848200Y-52578000D02*
X82848200Y-50958000D01*
X83229200Y-71755000D02*
X82563200Y-72421000D01*
X69132200Y-100203000D02*
X68878200Y-100457000D01*
X69135700Y-97659500D02*
X69132200Y-97663000D01*
X69132200Y-97663000D02*
X69132200Y-100203000D01*
D53*
X71323200Y-98347000D02*
X71323200Y-99028000D01*
X70656200Y-100552000D02*
X68846200Y-102362000D01*
X70656200Y-99695000D02*
X70656200Y-100552000D01*
X71323200Y-99028000D02*
X70656200Y-99695000D01*
D51*
X67312200Y-96159500D02*
X69135700Y-96159500D01*
X66973200Y-96498500D02*
X67312200Y-96159500D01*
X122812200Y-78654000D02*
X122007200Y-79459000D01*
X126409200Y-78718500D02*
X126344700Y-78654000D01*
X129584200Y-76479400D02*
X129584200Y-78041500D01*
X126344700Y-78654000D02*
X122812200Y-78654000D01*
X129584200Y-78041500D02*
X129012700Y-78613000D01*
X122007200Y-79459000D02*
X122007200Y-79905000D01*
X129012700Y-78613000D02*
X126514700Y-78613000D01*
X129754200Y-76309400D02*
X129584200Y-76479400D01*
X126514700Y-78613000D02*
X126409200Y-78718500D01*
X129754200Y-75238500D02*
X129754200Y-76309400D01*
X71589200Y-68238000D02*
X71589200Y-68326000D01*
X71545200Y-69998500D02*
X71545200Y-68282000D01*
X72970200Y-66857000D02*
X71589200Y-68238000D01*
X70804700Y-70739000D02*
X71545200Y-69998500D01*
X76888200Y-66857000D02*
X72970200Y-66857000D01*
X71588200Y-68325000D02*
X71545200Y-68282000D01*
X71589200Y-68326000D02*
X71545200Y-68282000D01*
X68884186Y-104394000D02*
X68862200Y-104394000D01*
X70109200Y-105619014D02*
X68884186Y-104394000D01*
X70109200Y-106832000D02*
X70109200Y-105619014D01*
X72561200Y-63881000D02*
X74974200Y-66294000D01*
X67227200Y-65743000D02*
X69134200Y-65743000D01*
X70021200Y-63881000D02*
X72561200Y-63881000D01*
X69345200Y-65532000D02*
X69345200Y-64557000D01*
X69345200Y-64557000D02*
X70021200Y-63881000D01*
X69134200Y-65743000D02*
X69345200Y-65532000D01*
X76825200Y-66294000D02*
X76888200Y-66357000D01*
X74974200Y-66294000D02*
X76825200Y-66294000D01*
X73109200Y-105386000D02*
X74101200Y-104394000D01*
X73109200Y-106832000D02*
X73109200Y-105386000D01*
X73085200Y-54864000D02*
X71300200Y-54864000D01*
D54*
X71859200Y-100606000D02*
X72627200Y-99838000D01*
X72109200Y-105665307D02*
X72609200Y-105165307D01*
X72609200Y-105165307D02*
X72609200Y-104262000D01*
X72109200Y-106582000D02*
X72109200Y-105665307D01*
X71109200Y-106582000D02*
X71108349Y-106581149D01*
X71108349Y-106581149D02*
X71108349Y-103920175D01*
X72823200Y-99642000D02*
X72627200Y-99838000D01*
X71108349Y-103920175D02*
X71859200Y-103169324D01*
X71859200Y-103169324D02*
X71859200Y-100606000D01*
X72823200Y-98347000D02*
X72823200Y-99642000D01*
D51*
X73101200Y-52832000D02*
X71300200Y-52832000D01*
X73101200Y-56896000D02*
X71300200Y-56896000D01*
X73085200Y-58928000D02*
X71300200Y-58928000D01*
D55*
X94437200Y-104770000D02*
X87367200Y-104770000D01*
X84499200Y-97266000D02*
X85785200Y-98552000D01*
X95018200Y-100816000D02*
X91468200Y-97266000D01*
X87367200Y-104770000D02*
X87359200Y-104762000D01*
X88801200Y-98552000D02*
X90341200Y-97012000D01*
X94437200Y-104770000D02*
X95018200Y-104189000D01*
X85785200Y-98552000D02*
X88801200Y-98552000D01*
X91468200Y-97266000D02*
X90341200Y-97266000D01*
X95018200Y-104189000D02*
X95018200Y-100816000D01*
D54*
X70359200Y-105012000D02*
X70609200Y-105262000D01*
X71609288Y-104224588D02*
X72627200Y-103206676D01*
X70609200Y-105262000D02*
X70609200Y-106832000D01*
X71609200Y-106582000D02*
X71609288Y-106581912D01*
X73323200Y-98347000D02*
X73323200Y-100798000D01*
X72627200Y-103206676D02*
X72627200Y-101838000D01*
X71609288Y-106581912D02*
X71609288Y-104224588D01*
X73323200Y-100798000D02*
X72627200Y-101494000D01*
X72627200Y-101494000D02*
X72627200Y-101838000D01*
D53*
X74085201Y-105781000D02*
X73759200Y-106107001D01*
D51*
X68959200Y-107188450D02*
X68959200Y-106832000D01*
D53*
X74476200Y-105781000D02*
X74085201Y-105781000D01*
D51*
X73276729Y-107683000D02*
X69453750Y-107683000D01*
D53*
X75101200Y-102412000D02*
X75101200Y-105156000D01*
X74527200Y-101838000D02*
X75101200Y-102412000D01*
X75101200Y-105156000D02*
X74476200Y-105781000D01*
X73759200Y-106107001D02*
X73759200Y-106682000D01*
X67862200Y-105132678D02*
X68959200Y-106229678D01*
D51*
X73759200Y-106832000D02*
X73759200Y-107200529D01*
D53*
X68959200Y-106229678D02*
X68959200Y-106682000D01*
X67862200Y-103378000D02*
X67862200Y-105132678D01*
X66846200Y-102362000D02*
X67862200Y-103378000D01*
D51*
X69453750Y-107683000D02*
X68959200Y-107188450D01*
X73759200Y-107200529D02*
X73276729Y-107683000D01*
D52*
X108739200Y-46762000D02*
X108739200Y-44222000D01*
X103295200Y-94720500D02*
X103295200Y-93298000D01*
D53*
X95421200Y-98552000D02*
X95421200Y-99691648D01*
D52*
X119363200Y-94654500D02*
X119363200Y-93298000D01*
D53*
X97748457Y-96224743D02*
X95421200Y-98552000D01*
X118789200Y-95250000D02*
X119805200Y-96266000D01*
D52*
X135299200Y-94742000D02*
X135299200Y-93298000D01*
X71164200Y-44354000D02*
X71164200Y-46894000D01*
X87676200Y-44452000D02*
X87674200Y-44450000D01*
D51*
X129325200Y-102748000D02*
X129330200Y-102743000D01*
D52*
X87039200Y-95228500D02*
X87359200Y-94908500D01*
D51*
X128441200Y-102748000D02*
X129325200Y-102748000D01*
D53*
X134791200Y-95250000D02*
X133794957Y-96246243D01*
D52*
X87359200Y-94908500D02*
X87359200Y-93298000D01*
D53*
X118789200Y-95228500D02*
X118789200Y-95250000D01*
X102787200Y-95228500D02*
X101790957Y-96224743D01*
X87420200Y-96266000D02*
X87039200Y-95885000D01*
X95421200Y-99691648D02*
X95421200Y-98806000D01*
X87039200Y-95885000D02*
X87039200Y-95228500D01*
D52*
X118789200Y-95228500D02*
X119363200Y-94654500D01*
D53*
X124126551Y-96266000D02*
X127425200Y-99564649D01*
X130743606Y-96246243D02*
X127425200Y-99564649D01*
X92881200Y-96266000D02*
X87420200Y-96266000D01*
D52*
X134791200Y-95250000D02*
X135299200Y-94742000D01*
X88976200Y-44452000D02*
X87676200Y-44452000D01*
D53*
X101790957Y-96224743D02*
X97748457Y-96224743D01*
X119805200Y-96266000D02*
X124126551Y-96266000D01*
X95421200Y-98806000D02*
X92881200Y-96266000D01*
D52*
X88976200Y-47402000D02*
X87770200Y-47402000D01*
D53*
X133794957Y-96246243D02*
X130743606Y-96246243D01*
D52*
X87770200Y-47402000D02*
X87674200Y-47498000D01*
D51*
X96437200Y-102870000D02*
X97326200Y-102870000D01*
D52*
X102787200Y-95228500D02*
X103295200Y-94720500D01*
D55*
X95856200Y-104189000D02*
X95856200Y-100784000D01*
X95856200Y-100784000D02*
X99374200Y-97266000D01*
X106343200Y-97266000D02*
X105057200Y-98552000D01*
X105057200Y-98552000D02*
X101533200Y-98552000D01*
X96437200Y-104770000D02*
X95856200Y-104189000D01*
X101533200Y-98552000D02*
X100247200Y-97266000D01*
X103351200Y-104770000D02*
X103359200Y-104762000D01*
X96437200Y-104770000D02*
X103351200Y-104770000D01*
X99374200Y-97266000D02*
X100247200Y-97266000D01*
X127022200Y-104067000D02*
X127022200Y-100689000D01*
X126441200Y-104648000D02*
X127022200Y-104067000D01*
X122345200Y-97266000D02*
X121059200Y-98552000D01*
X117535200Y-98552000D02*
X116249200Y-97266000D01*
X121059200Y-98552000D02*
X117535200Y-98552000D01*
X126441200Y-104648000D02*
X119473200Y-104648000D01*
X127022200Y-100689000D02*
X123599200Y-97266000D01*
X119473200Y-104648000D02*
X119359200Y-104762000D01*
X123599200Y-97266000D02*
X122345200Y-97266000D01*
X137061200Y-98552000D02*
X133537200Y-98552000D01*
X127860200Y-104067000D02*
X127860200Y-100657000D01*
X128441200Y-104648000D02*
X135245200Y-104648000D01*
X133537200Y-98552000D02*
X132251200Y-97266000D01*
X135245200Y-104648000D02*
X135359200Y-104762000D01*
X127860200Y-100657000D02*
X131251200Y-97266000D01*
X138347200Y-97266000D02*
X137061200Y-98552000D01*
X131251200Y-97266000D02*
X132251200Y-97266000D01*
X128441200Y-104648000D02*
X127860200Y-104067000D01*
D51*
X113680004Y-67778000D02*
X111818800Y-67778000D01*
X115341700Y-68326000D02*
X114228004Y-68326000D01*
X106216200Y-80264000D02*
X107740200Y-81788000D01*
X111818800Y-67778000D02*
X111423200Y-68173600D01*
X114228004Y-68326000D02*
X113680004Y-67778000D01*
X101993200Y-78581000D02*
X103676200Y-80264000D01*
X111423200Y-69443600D02*
X109848400Y-71018400D01*
X111423200Y-68173600D02*
X111423200Y-69443600D01*
X101993200Y-75216000D02*
X101993200Y-78581000D01*
X107740200Y-90805000D02*
X108121200Y-91186000D01*
X107740200Y-81788000D02*
X107740200Y-90805000D01*
X103676200Y-80264000D02*
X106216200Y-80264000D01*
X109848400Y-71018400D02*
X106190800Y-71018400D01*
X106190800Y-71018400D02*
X101993200Y-75216000D01*
X109780420Y-77903979D02*
X110356400Y-77327999D01*
X111016800Y-74574400D02*
X110356400Y-75234800D01*
X110356400Y-77327999D02*
X110356400Y-76548000D01*
X105073200Y-78232000D02*
X105401221Y-77903979D01*
X110356400Y-75234800D02*
X110356400Y-76548000D01*
X111016800Y-73050400D02*
X111016800Y-74574400D01*
X105401221Y-77903979D02*
X109780420Y-77903979D01*
X105073200Y-78359000D02*
X105073200Y-78232000D01*
X113741200Y-70326000D02*
X111016800Y-73050400D01*
X115341700Y-70326000D02*
X113741200Y-70326000D01*
X111423200Y-90170000D02*
X112471200Y-90170000D01*
X111928200Y-86236000D02*
X111677200Y-86487000D01*
X115341700Y-70826000D02*
X114130200Y-70826000D01*
X110661200Y-91313000D02*
X110661200Y-90932000D01*
X111928200Y-73028000D02*
X111928200Y-86236000D01*
X111677200Y-86487000D02*
X111677200Y-88519000D01*
X111677200Y-88519000D02*
X112471200Y-89313000D01*
X112471200Y-89313000D02*
X112471200Y-90170000D01*
X114130200Y-70826000D02*
X111928200Y-73028000D01*
X110661200Y-90932000D02*
X111423200Y-90170000D01*
X113013200Y-77280999D02*
X113583201Y-77851000D01*
X115341700Y-71326000D02*
X114417415Y-71326000D01*
X113013200Y-72730214D02*
X113013200Y-76501000D01*
X115233200Y-77851000D02*
X116300000Y-78917800D01*
X113013200Y-76501000D02*
X113013200Y-77280999D01*
X113583201Y-77851000D02*
X115233200Y-77851000D01*
X114417415Y-71326000D02*
X113013200Y-72730214D01*
X116300000Y-78917800D02*
X116300000Y-83743800D01*
X116300000Y-83743800D02*
X117011200Y-84455000D01*
X118179600Y-83210400D02*
X119424200Y-84455000D01*
X114913200Y-76501000D02*
X116884200Y-78472000D01*
X119424200Y-84455000D02*
X119551200Y-84455000D01*
X114565701Y-71826000D02*
X113918951Y-72472751D01*
X114913200Y-75245000D02*
X114913200Y-76501000D01*
X116884200Y-78472000D02*
X116884200Y-82804000D01*
X117290600Y-83210400D02*
X118179600Y-83210400D01*
X113709200Y-74041000D02*
X114913200Y-75245000D01*
X116884200Y-82804000D02*
X117290600Y-83210400D01*
X113709200Y-72682502D02*
X113709200Y-74041000D01*
X113918951Y-72472751D02*
X113709200Y-72682502D01*
X113918951Y-72472751D02*
X113836200Y-72555501D01*
X115341700Y-71826000D02*
X114565701Y-71826000D01*
X83356200Y-55245000D02*
X83356200Y-55372000D01*
X86493700Y-50635500D02*
X98394700Y-50635500D01*
X85642200Y-45212000D02*
X85642200Y-49784000D01*
X73704200Y-46894000D02*
X74974200Y-45624000D01*
X77387200Y-50546000D02*
X73735200Y-46894000D01*
X83483200Y-43053000D02*
X85642200Y-45212000D01*
X109908200Y-48133000D02*
X111279200Y-46762000D01*
X75736200Y-43053000D02*
X83483200Y-43053000D01*
X101374200Y-47656000D02*
X101851200Y-48133000D01*
X85642200Y-49784000D02*
X86493700Y-50635500D01*
X73735200Y-46894000D02*
X73704200Y-46894000D01*
X78403200Y-50546000D02*
X77387200Y-50546000D01*
X74974200Y-43815000D02*
X75736200Y-43053000D01*
X74974200Y-45624000D02*
X74974200Y-43815000D01*
X82563200Y-56165000D02*
X82563200Y-59182000D01*
X101851200Y-48133000D02*
X109908200Y-48133000D01*
X98394700Y-50635500D02*
X101374200Y-47656000D01*
X83356200Y-55372000D02*
X82563200Y-56165000D01*
X79355700Y-51498500D02*
X78403200Y-50546000D01*
X106394000Y-74269600D02*
X105022400Y-75641200D01*
X108456400Y-74442400D02*
X108629200Y-74269600D01*
X108456400Y-76548000D02*
X108456400Y-74625200D01*
X108456400Y-74625200D02*
X108456400Y-74442400D01*
X108456400Y-74604800D02*
X108121200Y-74269600D01*
X108629200Y-74269600D02*
X108121200Y-74269600D01*
X108456400Y-74625200D02*
X108456400Y-74604800D01*
X113072800Y-69826000D02*
X108629200Y-74269600D01*
X115341700Y-69826000D02*
X113072800Y-69826000D01*
X105022400Y-75641200D02*
X105022400Y-75844400D01*
X108121200Y-74269600D02*
X106394000Y-74269600D01*
D52*
X58718200Y-73406000D02*
X61258200Y-73406000D01*
D51*
X91103200Y-73405792D02*
X90693408Y-72996000D01*
X90378186Y-72776000D02*
X90092200Y-72776000D01*
X90693408Y-72996000D02*
X90598186Y-72996000D01*
X127254200Y-76371000D02*
X127171200Y-76454000D01*
X90598186Y-72996000D02*
X90378186Y-72776000D01*
X90092200Y-72776000D02*
X90087200Y-72771000D01*
X90087200Y-72771000D02*
X88944200Y-72771000D01*
X88944200Y-72771000D02*
X88063200Y-73652000D01*
X91103200Y-73406000D02*
X91103200Y-73405792D01*
X88063200Y-73652000D02*
X88063200Y-74532000D01*
X127254200Y-75238500D02*
X127254200Y-76371000D01*
X85655486Y-72122714D02*
X85063200Y-72715000D01*
X85655486Y-70725714D02*
X85655486Y-72122714D01*
X85063200Y-72715000D02*
X85063200Y-74532000D01*
X110534200Y-65151000D02*
X111359200Y-64326000D01*
X89706200Y-68961000D02*
X89198200Y-69469000D01*
X89198200Y-69469000D02*
X86912200Y-69469000D01*
X111359200Y-64326000D02*
X115341700Y-64326000D01*
X86912200Y-69469000D02*
X85655486Y-70725714D01*
X128949200Y-76321000D02*
X128754200Y-76126000D01*
X84563200Y-72580000D02*
X84563200Y-74532000D01*
X88055200Y-68834000D02*
X86658200Y-68834000D01*
X128754200Y-76126000D02*
X128754200Y-75238500D01*
X85134200Y-70358000D02*
X85134200Y-72009000D01*
X85134200Y-72009000D02*
X84563200Y-72580000D01*
X86658200Y-68834000D02*
X85134200Y-70358000D01*
X128949200Y-76835000D02*
X128949200Y-76321000D01*
X123754200Y-73521000D02*
X123754200Y-75238500D01*
X90468200Y-71755000D02*
X87801200Y-71755000D01*
X123996200Y-73279000D02*
X123754200Y-73521000D01*
X87547200Y-72644000D02*
X87063200Y-73128000D01*
X87063200Y-73128000D02*
X87063200Y-74532000D01*
X90722200Y-71501000D02*
X90468200Y-71755000D01*
X87801200Y-71755000D02*
X87547200Y-72009000D01*
X87547200Y-72009000D02*
X87547200Y-72644000D01*
D50*
X79279700Y-96659500D02*
X74010700Y-96659500D01*
X83610200Y-69977000D02*
X83483200Y-70104000D01*
X79434200Y-69357000D02*
X76888200Y-69357000D01*
X82721200Y-93218000D02*
X79279700Y-96659500D01*
X83483200Y-70104000D02*
X80181200Y-70104000D01*
X80181200Y-70104000D02*
X79434200Y-69357000D01*
X82721200Y-87630000D02*
X82721200Y-93218000D01*
D51*
X87007200Y-60579000D02*
X89966199Y-60579000D01*
X57448200Y-66040000D02*
X57448200Y-62985001D01*
X57448200Y-62985001D02*
X57822201Y-62611000D01*
X57822201Y-62611000D02*
X58972200Y-62611000D01*
X57575200Y-66167000D02*
X57448200Y-66040000D01*
X90563200Y-59981999D02*
X90563200Y-59182000D01*
X89966199Y-60579000D02*
X90563200Y-59981999D01*
X86277200Y-61087000D02*
X86150200Y-61087000D01*
X87547200Y-62357000D02*
X92238200Y-62357000D01*
D53*
X60750200Y-63246000D02*
X60413214Y-63246000D01*
X59778214Y-63881000D02*
X58972200Y-63881000D01*
D51*
X86150200Y-61087000D02*
X86277200Y-61214000D01*
X86404200Y-61214000D02*
X87547200Y-62357000D01*
X86277200Y-61214000D02*
X86404200Y-61214000D01*
D53*
X60413214Y-63246000D02*
X59778214Y-63881000D01*
D51*
X79295700Y-97659500D02*
X74010700Y-97659500D01*
X80591200Y-76708000D02*
X81063200Y-76236000D01*
X80562200Y-96393000D02*
X79295700Y-97659500D01*
X81063200Y-76236000D02*
X81063200Y-74532000D01*
X102914200Y-66040000D02*
X106128200Y-62826000D01*
X95802200Y-66040000D02*
X102914200Y-66040000D01*
X80063200Y-73524000D02*
X80063200Y-74532000D01*
X83864200Y-70739000D02*
X82237718Y-70739000D01*
X80562200Y-73025000D02*
X80063200Y-73524000D01*
X87039200Y-67564000D02*
X83864200Y-70739000D01*
X82237718Y-70739000D02*
X80562200Y-72414518D01*
X80562200Y-72414518D02*
X80562200Y-73025000D01*
X106128200Y-62826000D02*
X115341700Y-62826000D01*
X115106200Y-52959000D02*
X110788200Y-52959000D01*
X98342200Y-60706000D02*
X95421200Y-60706000D01*
X105454200Y-58293000D02*
X100755200Y-58293000D01*
X110788200Y-52959000D02*
X105454200Y-58293000D01*
X122754200Y-55471000D02*
X122472200Y-55753000D01*
X95421200Y-60706000D02*
X93270200Y-62857000D01*
X100755200Y-58293000D02*
X98342200Y-60706000D01*
X122754200Y-53913500D02*
X122754200Y-55471000D01*
X115360200Y-53213000D02*
X115106200Y-52959000D01*
X93270200Y-62857000D02*
X92238200Y-62857000D01*
X108727200Y-90934986D02*
X108727200Y-91030000D01*
X108727200Y-91030000D02*
X108946700Y-91249500D01*
X108375200Y-90582986D02*
X108456400Y-90501786D01*
X108456400Y-90501786D02*
X108456400Y-79248000D01*
X108375200Y-90582986D02*
X108727200Y-90934986D01*
X93516200Y-66929000D02*
X93516200Y-67378999D01*
X93038199Y-67857000D02*
X92238200Y-67857000D01*
X93516200Y-67378999D02*
X93038199Y-67857000D01*
X123360200Y-60326000D02*
X136666700Y-60326000D01*
X122472200Y-61214000D02*
X123360200Y-60326000D01*
X93643200Y-66802000D02*
X93516200Y-66929000D01*
X113836200Y-53594000D02*
X113836200Y-54229000D01*
X101422186Y-60198000D02*
X97739186Y-63881000D01*
X113836200Y-54229000D02*
X107867200Y-60198000D01*
X121254200Y-53913500D02*
X121254200Y-52923500D01*
X95199200Y-64357000D02*
X92238200Y-64357000D01*
X97739186Y-63881000D02*
X95675200Y-63881000D01*
X107867200Y-60198000D02*
X101422186Y-60198000D01*
X121254200Y-52923500D02*
X121231115Y-52900415D01*
X95675200Y-63881000D02*
X95199200Y-64357000D01*
X111931200Y-54229000D02*
X111931200Y-54483000D01*
X111931200Y-54483000D02*
X106851200Y-59563000D01*
X121561200Y-55101000D02*
X121754200Y-54908000D01*
X98850200Y-61722000D02*
X95929200Y-61722000D01*
X101009200Y-59563000D02*
X98850200Y-61722000D01*
X93794200Y-63857000D02*
X92238200Y-63857000D01*
X106851200Y-59563000D02*
X101009200Y-59563000D01*
X121754200Y-54908000D02*
X121754200Y-53913500D01*
X121319795Y-55101000D02*
X121561200Y-55101000D01*
X95929200Y-61722000D02*
X93794200Y-63857000D01*
D50*
X80622720Y-69215000D02*
X80481524Y-69215000D01*
X82004200Y-69215000D02*
X81964282Y-69254918D01*
X80481524Y-69215000D02*
X80123524Y-68857000D01*
X81959200Y-92710000D02*
X81959200Y-88138000D01*
X80123524Y-68857000D02*
X76888200Y-68857000D01*
X80662638Y-69254918D02*
X80622720Y-69215000D01*
X81964282Y-69254918D02*
X80662638Y-69254918D01*
X78509700Y-96159500D02*
X81959200Y-92710000D01*
X74010700Y-96159500D02*
X78509700Y-96159500D01*
X73323200Y-93218000D02*
X73323200Y-93472000D01*
X78444841Y-88092375D02*
X78114575Y-88422641D01*
X81816824Y-66720636D02*
X83063200Y-65474260D01*
X78114575Y-88422641D02*
X78114575Y-88426625D01*
X78911200Y-87884000D02*
X78657200Y-87884000D01*
X78114575Y-88426625D02*
X73323200Y-93218000D01*
X81816824Y-66792448D02*
X81816824Y-66720636D01*
X78657200Y-87884000D02*
X78448825Y-88092375D01*
X78448825Y-88092375D02*
X78444841Y-88092375D01*
X83063200Y-65474260D02*
X83063200Y-59182000D01*
D51*
X89452200Y-70104000D02*
X87039200Y-70104000D01*
X111748200Y-64826000D02*
X115341700Y-64826000D01*
X111423200Y-65151000D02*
X111748200Y-64826000D01*
X85563200Y-72749572D02*
X85563200Y-74532000D01*
X86033486Y-72279287D02*
X85563200Y-72749572D01*
X86150200Y-72136000D02*
X86033486Y-72252714D01*
X87039200Y-70104000D02*
X86150200Y-70993000D01*
X86033486Y-72252714D02*
X86033486Y-72279287D01*
X86150200Y-70993000D02*
X86150200Y-72136000D01*
X89706200Y-69850000D02*
X89452200Y-70104000D01*
X109137200Y-86156800D02*
X111220000Y-84074000D01*
X109772200Y-90551000D02*
X109137200Y-89916000D01*
X109137200Y-89916000D02*
X109137200Y-86156800D01*
X111220000Y-84074000D02*
X111220000Y-81127600D01*
X111220000Y-81127600D02*
X110356400Y-80264000D01*
X110356400Y-80264000D02*
X110356400Y-79248000D01*
X109772200Y-91313000D02*
X109772200Y-90551000D01*
X106089200Y-58928000D02*
X100882200Y-58928000D01*
X122254200Y-55023609D02*
X122254200Y-53913500D01*
X109772200Y-55245000D02*
X106089200Y-58928000D01*
X95675200Y-61214000D02*
X93532200Y-63357000D01*
X93532200Y-63357000D02*
X92238200Y-63357000D01*
X100882200Y-58928000D02*
X98596200Y-61214000D01*
X98596200Y-61214000D02*
X95675200Y-61214000D01*
X121583200Y-56134000D02*
X121583200Y-55694609D01*
X121583200Y-55694609D02*
X122254200Y-55023609D01*
X84063200Y-58238000D02*
X83610200Y-57785000D01*
D53*
X60877200Y-61341000D02*
X58972200Y-61341000D01*
D51*
X84063200Y-59182000D02*
X84063200Y-58238000D01*
X82076122Y-67418448D02*
X83962570Y-65532000D01*
X69107200Y-95631000D02*
X69135700Y-95659500D01*
X92164200Y-64931000D02*
X92238200Y-64857000D01*
X72180200Y-70739000D02*
X71672200Y-71247000D01*
X83991570Y-65561000D02*
X85613200Y-65561000D01*
X71672200Y-71247000D02*
X71672200Y-71882000D01*
X70148200Y-78105000D02*
X65068200Y-83185000D01*
X78784200Y-67418448D02*
X82076122Y-67418448D01*
X65068200Y-94869000D02*
X65830200Y-95631000D01*
X83962570Y-65532000D02*
X83991570Y-65561000D01*
X65068200Y-83185000D02*
X65068200Y-94869000D01*
X65830200Y-95631000D02*
X69107200Y-95631000D01*
X70148200Y-73406000D02*
X70148200Y-78105000D01*
X86243200Y-64931000D02*
X92164200Y-64931000D01*
X71672200Y-71882000D02*
X70148200Y-73406000D01*
X85613200Y-65561000D02*
X86243200Y-64931000D01*
X128254200Y-76514000D02*
X128254200Y-75238500D01*
X88563200Y-74532000D02*
X88563200Y-75438000D01*
X88563200Y-75438000D02*
X88055200Y-75946000D01*
X128187200Y-76581000D02*
X128254200Y-76514000D01*
X113377200Y-57326000D02*
X115341700Y-57326000D01*
X80689200Y-62357000D02*
X80189200Y-61857000D01*
X80189200Y-61857000D02*
X76888200Y-61857000D01*
X82213200Y-62357000D02*
X80689200Y-62357000D01*
X113328200Y-57277000D02*
X113377200Y-57326000D01*
X125845200Y-74041000D02*
X124758200Y-74041000D01*
X90849200Y-72390000D02*
X90722200Y-72263000D01*
X126254200Y-75238500D02*
X126254200Y-74450000D01*
X90722200Y-72263000D02*
X88563200Y-72263000D01*
X88563200Y-72263000D02*
X87563200Y-73263000D01*
X87563200Y-73263000D02*
X87563200Y-74532000D01*
X126254200Y-74450000D02*
X125845200Y-74041000D01*
X114471200Y-59309000D02*
X114488200Y-59326000D01*
X114488200Y-59326000D02*
X115341700Y-59326000D01*
X82086200Y-63373000D02*
X80435200Y-63373000D01*
X79419200Y-62357000D02*
X76888200Y-62357000D01*
X80435200Y-63373000D02*
X79419200Y-62357000D01*
X113582200Y-59309000D02*
X114471200Y-59309000D01*
X78776200Y-62857000D02*
X76888200Y-62857000D01*
X82340200Y-64135000D02*
X80054200Y-64135000D01*
X114081200Y-59826000D02*
X115341700Y-59826000D01*
X80054200Y-64135000D02*
X78776200Y-62857000D01*
X114081200Y-59826000D02*
X113836200Y-60071000D01*
X87039200Y-71755000D02*
X87039200Y-72517000D01*
X87039200Y-72517000D02*
X86563200Y-72993000D01*
X86563200Y-72993000D02*
X86563200Y-74532000D01*
X113796200Y-65826000D02*
X115341700Y-65826000D01*
X90976200Y-70739000D02*
X90880439Y-70834761D01*
X90087200Y-71247000D02*
X87547200Y-71247000D01*
X113709200Y-65913000D02*
X113796200Y-65826000D01*
X87547200Y-71247000D02*
X87039200Y-71755000D01*
X90499439Y-70834761D02*
X90087200Y-71247000D01*
X90880439Y-70834761D02*
X90499439Y-70834761D01*
X113455200Y-89281000D02*
X112947200Y-88773000D01*
X112947200Y-80046999D02*
X113013200Y-79980999D01*
X113013200Y-79980999D02*
X113013200Y-79201000D01*
X111550200Y-91313000D02*
X113006004Y-91313000D01*
X112947200Y-88773000D02*
X112947200Y-80046999D01*
X113455200Y-90863804D02*
X113455200Y-89281000D01*
X113006004Y-91313000D02*
X113455200Y-90863804D01*
X115614200Y-91440000D02*
X115614200Y-81407000D01*
X114979200Y-92075000D02*
X115614200Y-91440000D01*
X115614200Y-81407000D02*
X114913200Y-80706000D01*
X113776258Y-92079812D02*
X113781070Y-92075000D01*
X114913200Y-80706000D02*
X114913200Y-79201000D01*
X113781070Y-92075000D02*
X114979200Y-92075000D01*
X102406200Y-84709000D02*
X102406200Y-85217000D01*
X118154200Y-82550000D02*
X120754200Y-79950000D01*
X120754200Y-79950000D02*
X120754200Y-75238500D01*
X102406200Y-85217000D02*
X100755200Y-86868000D01*
X100755200Y-86868000D02*
X100374200Y-86868000D01*
X117646200Y-82550000D02*
X118154200Y-82550000D01*
X123996200Y-55753000D02*
X128060200Y-55753000D01*
X128754200Y-53913500D02*
X128754200Y-45779000D01*
X128754200Y-55059000D02*
X128754200Y-53913500D01*
X128060200Y-55753000D02*
X128754200Y-55059000D01*
X94151200Y-67608664D02*
X93402864Y-68357000D01*
X94151200Y-67310000D02*
X94151200Y-67608664D01*
X128754200Y-45779000D02*
X128568200Y-45593000D01*
X93402864Y-68357000D02*
X92238200Y-68357000D01*
X120567200Y-59182000D02*
X123996200Y-55753000D01*
X94405200Y-67056000D02*
X94151200Y-67310000D01*
X100501200Y-83058000D02*
X101771200Y-81788000D01*
X117900200Y-81788000D02*
X120254200Y-79434000D01*
X120254200Y-79434000D02*
X120254200Y-75238500D01*
X100330200Y-83058000D02*
X100501200Y-83058000D01*
X121754200Y-73196000D02*
X121754200Y-75238500D01*
X106216200Y-85471000D02*
X104880200Y-86807000D01*
X121329200Y-72771000D02*
X121754200Y-73196000D01*
X112924868Y-65636668D02*
X113254536Y-65307000D01*
X86658200Y-72263000D02*
X86063200Y-72858000D01*
X87420200Y-70612000D02*
X86658200Y-71374000D01*
X90468200Y-70104000D02*
X89960200Y-70612000D01*
X86658200Y-71374000D02*
X86658200Y-72263000D01*
X86063200Y-72858000D02*
X86063200Y-74532000D01*
X113254536Y-65307000D02*
X115322700Y-65307000D01*
X89960200Y-70612000D02*
X87420200Y-70612000D01*
X115322700Y-65307000D02*
X115341700Y-65326000D01*
X118254200Y-77370000D02*
X118254200Y-75238500D01*
X117773200Y-77851000D02*
X118254200Y-77370000D01*
X91230200Y-82423000D02*
X95294200Y-78359000D01*
X117392200Y-77851000D02*
X117773200Y-77851000D01*
X91230200Y-83058000D02*
X91230200Y-82423000D01*
X104819200Y-83119000D02*
X104880200Y-83058000D01*
X121254200Y-74220000D02*
X120694200Y-73660000D01*
X104819200Y-84963000D02*
X104819200Y-83119000D01*
X121254200Y-75238500D02*
X121254200Y-74220000D01*
X94024200Y-83947000D02*
X94087700Y-83883500D01*
X94024200Y-84074000D02*
X94024200Y-83947000D01*
X95294200Y-79883000D02*
X95421200Y-79756000D01*
X95167200Y-79883000D02*
X95294200Y-79883000D01*
X118754200Y-77886000D02*
X118754200Y-75238500D01*
X94024200Y-81026000D02*
X95167200Y-79883000D01*
X117646200Y-78994000D02*
X118754200Y-77886000D01*
X94087700Y-83883500D02*
X94024200Y-83820000D01*
X91230200Y-86868000D02*
X94024200Y-84074000D01*
X94024200Y-83820000D02*
X94024200Y-81026000D01*
X129254200Y-55448000D02*
X129254200Y-53913500D01*
X131489200Y-46990000D02*
X129254200Y-49225000D01*
X94786200Y-67945000D02*
X93874200Y-68857000D01*
X120440200Y-61341000D02*
X120440200Y-60274200D01*
X128187200Y-56515000D02*
X129254200Y-55448000D01*
X131870200Y-46990000D02*
X131489200Y-46990000D01*
X129254200Y-49225000D02*
X129254200Y-53913500D01*
X93874200Y-68857000D02*
X92238200Y-68857000D01*
X124199400Y-56515000D02*
X128187200Y-56515000D01*
X120440200Y-60274200D02*
X124199400Y-56515000D01*
X119254200Y-78529000D02*
X119254200Y-75238500D01*
X95780200Y-83058000D02*
X95780200Y-80921000D01*
X118598700Y-79184500D02*
X119254200Y-78529000D01*
X117773200Y-80899000D02*
X119754200Y-78918000D01*
X97580200Y-81026000D02*
X97580200Y-85090000D01*
X119754200Y-78918000D02*
X119754200Y-75238500D01*
X97580200Y-85090000D02*
X95802200Y-86868000D01*
X97834200Y-52705000D02*
X84023186Y-52705000D01*
X84023186Y-52705000D02*
X80563200Y-56164986D01*
X127254200Y-53913500D02*
X127254200Y-49740000D01*
X126409200Y-48895000D02*
X101644200Y-48895000D01*
X80563200Y-56164986D02*
X80563200Y-59182000D01*
X101644200Y-48895000D02*
X97834200Y-52705000D01*
X127254200Y-49740000D02*
X126409200Y-48895000D01*
X130451700Y-77470000D02*
X130451700Y-79399500D01*
X130754200Y-75238500D02*
X130754200Y-77167500D01*
X130754200Y-77167500D02*
X130451700Y-77470000D01*
X130451700Y-79399500D02*
X130051200Y-79800000D01*
D52*
X106982492Y-94107000D02*
X109137200Y-96261708D01*
X117006908Y-92710000D02*
X117011200Y-92710000D01*
D53*
X136249200Y-90598000D02*
X137919200Y-90598000D01*
X138474200Y-90043000D02*
X141522200Y-90043000D01*
D52*
X134349200Y-90598000D02*
X120313200Y-90598000D01*
X136249200Y-90598000D02*
X136249200Y-91300122D01*
X136249200Y-91300122D02*
X135720322Y-91829000D01*
X134800201Y-91829000D02*
X134349200Y-91377999D01*
X117011200Y-92710000D02*
X118413200Y-91308000D01*
X113323908Y-96393000D02*
X117006908Y-92710000D01*
X86409200Y-91377999D02*
X86409200Y-90598000D01*
X88309200Y-91300122D02*
X87780322Y-91829000D01*
X109137200Y-96393000D02*
X113323908Y-96393000D01*
X88309200Y-90598000D02*
X88309200Y-91300122D01*
D53*
X141522200Y-90043000D02*
X144189200Y-87376000D01*
X144189200Y-87376000D02*
X144189200Y-74676000D01*
D52*
X104245200Y-91379000D02*
X104250200Y-91379000D01*
X87780322Y-91829000D02*
X86860201Y-91829000D01*
D53*
X140839200Y-71326000D02*
X136666700Y-71326000D01*
D52*
X104245200Y-89723000D02*
X104245200Y-90598000D01*
X109137200Y-96261708D02*
X109137200Y-96393000D01*
X134349200Y-91377999D02*
X134349200Y-90598000D01*
X104245200Y-90598000D02*
X104245200Y-91379000D01*
X102345200Y-89895878D02*
X102874078Y-89367000D01*
X118413200Y-91308000D02*
X118413200Y-90598000D01*
X118413200Y-89818001D02*
X118864201Y-89367000D01*
X135720322Y-91829000D02*
X134800201Y-91829000D01*
D53*
X144189200Y-74676000D02*
X140839200Y-71326000D01*
D52*
X102345200Y-90598000D02*
X102345200Y-89895878D01*
X119784322Y-89367000D02*
X120313200Y-89895878D01*
X86860201Y-91829000D02*
X86409200Y-91377999D01*
X106978200Y-94107000D02*
X106982492Y-94107000D01*
X120313200Y-89895878D02*
X120313200Y-90598000D01*
X102874078Y-89367000D02*
X103889200Y-89367000D01*
X118864201Y-89367000D02*
X119784322Y-89367000D01*
X118413200Y-90598000D02*
X118413200Y-89818001D01*
X103889200Y-89367000D02*
X104245200Y-89723000D01*
D53*
X137919200Y-90598000D02*
X138474200Y-90043000D01*
D52*
X102345200Y-90598000D02*
X88309200Y-90598000D01*
D51*
X88309200Y-91377999D02*
X88309200Y-90598000D01*
D52*
X104250200Y-91379000D02*
X106978200Y-94107000D01*
D51*
X92627200Y-57912000D02*
X94913200Y-60198000D01*
X90033201Y-57912000D02*
X92627200Y-57912000D01*
X89563200Y-58382001D02*
X90033201Y-57912000D01*
X117646200Y-52324000D02*
X118254200Y-52932000D01*
X98694200Y-59719000D02*
X100755200Y-57658000D01*
X100755200Y-57658000D02*
X104819200Y-57658000D01*
X104819200Y-57658000D02*
X110153200Y-52324000D01*
X110153200Y-52324000D02*
X117646200Y-52324000D01*
X98382200Y-60031000D02*
X98393004Y-60031000D01*
X94913200Y-60198000D02*
X98215200Y-60198000D01*
X98393004Y-60031000D02*
X98694200Y-59729804D01*
X89563200Y-59182000D02*
X89563200Y-58382001D01*
X118254200Y-52932000D02*
X118254200Y-53913500D01*
X98215200Y-60198000D02*
X98382200Y-60031000D01*
X98694200Y-59729804D02*
X98694200Y-59719000D01*
X102406200Y-55753000D02*
X107740200Y-50419000D01*
X86563200Y-59182000D02*
X86563200Y-58134000D01*
X122853200Y-50419000D02*
X123754200Y-51320000D01*
X107740200Y-50419000D02*
X122853200Y-50419000D01*
X86563200Y-58134000D02*
X88944200Y-55753000D01*
X88944200Y-55753000D02*
X102406200Y-55753000D01*
X123754200Y-51320000D02*
X123754200Y-53913500D01*
X136666700Y-71826000D02*
X137402668Y-71826000D01*
X106978200Y-91160600D02*
X106978200Y-82575400D01*
X97834200Y-77597000D02*
X97834200Y-67945000D01*
X121202200Y-88773000D02*
X117900200Y-88773000D01*
X143046200Y-86452000D02*
X141377700Y-88120500D01*
X134530200Y-89542000D02*
X134000564Y-89542000D01*
X96945200Y-67056000D02*
X95548200Y-67056000D01*
X141377700Y-88120500D02*
X135951700Y-88120500D01*
X107765600Y-91948000D02*
X106978200Y-91160600D01*
X137402668Y-71826000D02*
X138576268Y-72999600D01*
X112312200Y-91948000D02*
X107765600Y-91948000D01*
X134000564Y-89542000D02*
X133753564Y-89789000D01*
X93849200Y-65357000D02*
X92238200Y-65357000D01*
X143046200Y-75260200D02*
X143046200Y-86452000D01*
X140785600Y-72999600D02*
X143046200Y-75260200D01*
X138576268Y-72999600D02*
X140785600Y-72999600D01*
X116655600Y-91643200D02*
X115334800Y-92964000D01*
X135951700Y-88120500D02*
X134530200Y-89542000D01*
X105428800Y-81026000D02*
X101263200Y-81026000D01*
X133753564Y-89789000D02*
X122218200Y-89789000D01*
X95548200Y-67056000D02*
X93849200Y-65357000D01*
X113328200Y-92964000D02*
X112312200Y-91948000D01*
X116655600Y-90017600D02*
X116655600Y-91643200D01*
X101263200Y-81026000D02*
X97834200Y-77597000D01*
X106978200Y-82575400D02*
X105428800Y-81026000D01*
X97834200Y-67945000D02*
X96945200Y-67056000D01*
X115334800Y-92964000D02*
X113328200Y-92964000D01*
X122218200Y-89789000D02*
X121202200Y-88773000D01*
X117900200Y-88773000D02*
X116655600Y-90017600D01*
X123254200Y-75238500D02*
X123254200Y-76434000D01*
X122234200Y-77454000D02*
X123254200Y-76434000D01*
G04 #@! TA.AperFunction,Conductor*
G36*
X67831845Y-105781962D02*
G01*
X67862704Y-105805641D01*
X68315059Y-106257996D01*
X68353623Y-106324791D01*
X68358700Y-106363355D01*
X68358700Y-107129506D01*
X68338738Y-107204006D01*
X68284200Y-107258544D01*
X68266726Y-107267161D01*
X68266371Y-107267307D01*
X68146534Y-107336495D01*
X68048695Y-107434334D01*
X67979513Y-107554162D01*
X67943700Y-107687815D01*
X67943700Y-107687817D01*
X67943700Y-107826183D01*
X67979512Y-107959836D01*
X68048695Y-108079665D01*
X68146535Y-108177505D01*
X68266364Y-108246688D01*
X68400017Y-108282500D01*
X68538383Y-108282500D01*
X68672036Y-108246688D01*
X68791865Y-108177505D01*
X68889705Y-108079665D01*
X68924005Y-108020254D01*
X68978539Y-107965719D01*
X69053039Y-107945756D01*
X69127539Y-107965717D01*
X69158395Y-107989393D01*
X69192487Y-108023485D01*
X69289513Y-108079503D01*
X69397731Y-108108500D01*
X73332747Y-108108500D01*
X73440966Y-108079503D01*
X73537992Y-108023485D01*
X73564419Y-107997058D01*
X73631213Y-107958493D01*
X73708341Y-107958491D01*
X73775136Y-107997055D01*
X73798816Y-108027914D01*
X73828600Y-108079501D01*
X73828695Y-108079665D01*
X73926535Y-108177505D01*
X74046364Y-108246688D01*
X74180017Y-108282500D01*
X74318383Y-108282500D01*
X74452036Y-108246688D01*
X74571865Y-108177505D01*
X74669705Y-108079665D01*
X74738888Y-107959836D01*
X74774700Y-107826183D01*
X74774700Y-107687817D01*
X74738888Y-107554164D01*
X74669705Y-107434335D01*
X74571865Y-107336495D01*
X74452028Y-107267307D01*
X74451674Y-107267161D01*
X74451369Y-107266927D01*
X74443578Y-107262429D01*
X74444170Y-107261402D01*
X74390486Y-107220206D01*
X74360974Y-107148948D01*
X74359700Y-107129506D01*
X74359700Y-106405500D01*
X74379662Y-106331000D01*
X74434200Y-106276462D01*
X74508700Y-106256500D01*
X74538796Y-106256500D01*
X74538801Y-106256500D01*
X74659736Y-106224095D01*
X74768164Y-106161495D01*
X75124018Y-105805641D01*
X75190813Y-105767077D01*
X75229377Y-105762000D01*
X76478873Y-105762000D01*
X76553373Y-105781962D01*
X76607911Y-105836500D01*
X76627849Y-105908303D01*
X76652456Y-107267307D01*
X76670189Y-108246686D01*
X76740138Y-112109803D01*
X76721527Y-112184652D01*
X76667986Y-112240168D01*
X76593859Y-112261476D01*
X76591162Y-112261500D01*
X66258200Y-112261500D01*
X66183700Y-112241538D01*
X66129162Y-112187000D01*
X66109200Y-112112500D01*
X66109200Y-105911000D01*
X66129162Y-105836500D01*
X66183700Y-105781962D01*
X66258200Y-105762000D01*
X67757345Y-105762000D01*
X67831845Y-105781962D01*
G37*
G04 #@! TD.AperFunction*
M02*
