M48
; DRILL file {KiCad 9.0.5} date 2025-10-23T02:28:37+0200
; FORMAT={-:-/ absolute / metric / decimal}
; #@! TF.CreationDate,2025-10-23T02:28:37+02:00
; #@! TF.GenerationSoftware,Kicad,Pcbnew,9.0.5
; #@! TF.FileFunction,Plated,1,4,PTH
FMAT,2
METRIC
; #@! TA.AperFunction,Plated,PTH,ViaDrill
T1C0.300
; #@! TA.AperFunction,Plated,PTH,ViaDrill
T2C0.500
; #@! TA.AperFunction,Plated,PTH,ComponentDrill
T3C0.600
; #@! TA.AperFunction,Plated,PTH,ComponentDrill
T4C1.000
; #@! TA.AperFunction,Plated,PTH,ComponentDrill
T5C1.300
; #@! TA.AperFunction,Plated,PTH,ComponentDrill
T6C2.300
; #@! TA.AperFunction,Plated,PTH,ComponentDrill
T7C3.200
%
G90
G05
T1
X56.94Y-68.707
X57.575Y-66.167
X58.972Y-66.167
X60.75Y-63.246
X60.877Y-61.341
X64.306Y-58.801
X64.433Y-62.23
X64.56Y-97.79
X64.941Y-60.579
X65.068Y-104.394
X65.195Y-98.425
X65.83Y-91.44
X66.084Y-67.818
X67.1Y-91.186
X67.481Y-70.739
X67.862Y-68.961
X67.989Y-99.441
X68.116Y-93.726
X68.148Y-96.774
X68.243Y-94.659
X69.767Y-99.52
X70.275Y-52.832
X70.275Y-54.864
X70.275Y-56.896
X70.275Y-58.928
X70.359Y-105.012
X70.859Y-104.262
X71.672Y-73.914
X71.672Y-99.695
X71.859Y-105.012
X72.18Y-70.739
X72.561Y-69.977
X72.609Y-104.262
X72.688Y-65.532
X72.815Y-72.898
X73.958Y-68.834
X74.847Y-72.771
X74.974Y-93.345
X74.974Y-94.488
X75.355Y-68.834
X75.355Y-98.298
X75.355Y-99.695
X75.482Y-65.405
X75.99Y-73.914
X76.879Y-78.867
X76.879Y-90.932
X77.006Y-76.835
X77.348Y-73.457
X77.514Y-104.394
X77.641Y-98.933
X78.149Y-89.916
X78.53Y-92.202
X78.657Y-56.896
X78.784Y-67.418
X78.784Y-70.104
X78.911Y-87.884
X79.356Y-51.498
X79.546Y-52.959
X79.737Y-76.517
X79.906Y-61.087
X79.906Y-65.786
X79.916Y-86.868
X79.927Y-64.77
X79.927Y-70.866
X79.927Y-72.644
X80.054Y-71.755
X80.562Y-96.393
X80.591Y-76.708
X80.942Y-68.579
X81.197Y-56.769
X81.284Y-85.892
X81.539Y-76.835
X81.797Y-65.786
X81.817Y-66.792
X81.832Y-55.753
X81.959Y-88.138
X82.004Y-69.215
X82.086Y-63.373
X82.213Y-61.087
X82.213Y-62.357
X82.213Y-65.024
X82.34Y-64.135
X82.721Y-86.106
X82.721Y-87.63
X82.848Y-52.578
X83.229Y-67.945
X83.356Y-55.245
X83.61Y-57.785
X83.61Y-69.977
X83.864Y-64.897
X84.245Y-87.503
X84.499Y-60.452
X84.499Y-67.818
X84.499Y-71.755
X85.007Y-51.816
X85.134Y-64.897
X85.261Y-66.167
X85.515Y-60.452
X85.515Y-86.487
X86.023Y-75.819
X86.277Y-61.087
X86.912Y-62.992
X87.007Y-60.579
X87.039Y-67.564
X87.166Y-49.53
X87.293Y-89.027
X87.547Y-68.199
X88.055Y-61.722
X88.055Y-68.834
X88.055Y-75.946
X88.309Y-97.282
X88.563Y-65.786
X88.944Y-68.58
X89.325Y-62.992
X89.325Y-67.818
X89.706Y-68.961
X89.706Y-69.85
X90.063Y-73.382
X90.468Y-70.104
X90.722Y-71.501
X90.849Y-72.39
X90.976Y-70.739
X91.103Y-73.406
X91.23Y-59.817
X91.738Y-75.924
X93.643Y-66.802
X93.897Y-60.706
X93.897Y-102.108
X94.278Y-76.454
X94.405Y-67.056
X94.786Y-67.945
X94.834Y-68.755
X95.285Y-70.857
X95.294Y-51.816
X95.294Y-78.359
X95.421Y-63.246
X95.421Y-79.756
X95.548Y-64.897
X95.802Y-66.04
X95.866Y-80.835
X96.818Y-68.072
X97.199Y-68.834
X97.326Y-102.87
X97.58Y-81.026
X99.104Y-55.118
X101.103Y-76.708
X101.263Y-65.405
X101.263Y-68.072
X101.644Y-60.833
X101.747Y-97.347
X101.771Y-81.788
X102.025Y-73.66
X102.406Y-84.709
X102.533Y-54.483
X102.533Y-60.833
X102.533Y-68.326
X102.66Y-65.405
X103.295Y-91.948
X104.819Y-84.963
X106.216Y-85.471
X108.121Y-91.186
X108.756Y-60.833
X108.947Y-91.249
X109.391Y-70.231
X109.391Y-82.804
X109.772Y-55.245
X109.772Y-91.313
X110.204Y-73.863
X110.534Y-65.151
X110.537Y-82.578
X110.661Y-91.313
X111.296Y-93.853
X111.423Y-57.912
X111.423Y-65.151
X111.55Y-91.313
X111.931Y-54.229
X112.058Y-69.85
X112.312Y-92.816
X112.925Y-65.637
X113.328Y-57.277
X113.582Y-56.515
X113.582Y-59.309
X113.646Y-58.356
X113.709Y-65.913
X113.776Y-92.08
X113.836Y-53.594
X113.836Y-60.071
X113.963Y-75.311
X113.963Y-80.391
X114.217Y-91.313
X114.344Y-86.233
X114.597Y-73.92
X115.36Y-53.213
X116.135Y-76.461
X117.011Y-76.454
X117.392Y-77.851
X117.646Y-59.055
X117.646Y-78.994
X117.646Y-82.55
X117.749Y-97.282
X117.773Y-80.899
X117.886Y-55.011
X117.9Y-81.788
X118.027Y-56.261
X118.027Y-62.103
X118.092Y-60.198
X118.154Y-68.326
X118.154Y-72.263
X118.154Y-73.406
X118.219Y-67.183
X118.219Y-69.342
X118.599Y-79.184
X118.916Y-57.531
X119.043Y-58.928
X119.297Y-51.181
X119.424Y-91.948
X120.313Y-62.484
X120.313Y-69.342
X120.313Y-71.374
X120.313Y-72.771
X120.313Y-82.931
X120.44Y-57.15
X120.44Y-61.341
X120.44Y-67.31
X120.567Y-59.182
X120.694Y-73.66
X121.231Y-52.9
X121.32Y-55.101
X121.329Y-72.771
X121.456Y-69.342
X121.583Y-51.816
X121.583Y-56.134
X121.837Y-62.611
X121.979Y-76.405
X122.345Y-64.897
X122.472Y-55.753
X122.472Y-61.214
X122.726Y-72.644
X123.107Y-87.376
X123.211Y-81.37
X123.361Y-55.372
X123.361Y-62.484
X123.361Y-77.47
X123.488Y-88.138
X123.869Y-49.784
X123.996Y-59.69
X123.996Y-73.279
X124.123Y-72.009
X124.162Y-76.447
X124.377Y-50.8
X124.758Y-74.041
X124.885Y-72.644
X125.647Y-51.054
X125.774Y-89.154
X125.901Y-76.962
X126.142Y-101.981
X126.155Y-73.279
X126.663Y-77.216
X126.663Y-80.137
X126.663Y-84.836
X126.663Y-86.741
X126.79Y-72.39
X126.79Y-81.915
X127.171Y-76.454
X128.187Y-76.581
X128.695Y-77.851
X128.822Y-82.296
X128.949Y-76.835
X129.33Y-102.743
X130.219Y-55.372
X130.473Y-50.927
X130.6Y-73.406
X131.108Y-87.249
X131.362Y-50.927
X131.489Y-76.581
X132.759Y-58.039
X132.886Y-72.009
X133.521Y-62.23
X133.521Y-84.836
X133.648Y-63.881
X133.648Y-65.659
X133.648Y-77.47
X133.751Y-97.347
X133.775Y-79.883
X133.851Y-59.372
X133.902Y-78.613
X134.156Y-86.614
X134.283Y-67.31
X134.918Y-55.245
X134.918Y-72.263
X136.315Y-88.773
X137.839Y-59.817
X138.093Y-73.787
X138.144Y-75.235
X138.22Y-63.373
X138.22Y-69.342
X138.347Y-59.055
X139.744Y-92.202
X141.141Y-80.264
X141.141Y-85.217
X141.141Y-87.249
X141.268Y-82.169
X141.649Y-76.962
X141.903Y-78.359
X144.824Y-50.927
T2
X64.687Y-64.071
X67.989Y-75.565
X87.674Y-44.45
X87.674Y-47.498
X95.421Y-99.692
X123.404Y-64.643
X125.944Y-61.976
X126.605Y-67.5
X127.425Y-99.565
X128.738Y-64.643
X141.014Y-89.027
T4
X58.718Y-73.406
X58.718Y-75.946
X58.718Y-78.486
X58.718Y-81.026
X58.718Y-83.566
X58.718Y-86.106
X58.718Y-88.646
X58.718Y-91.186
X58.718Y-93.726
X58.718Y-96.266
X61.258Y-73.406
X61.258Y-75.946
X61.258Y-78.486
X61.258Y-81.026
X61.258Y-83.566
X61.258Y-86.106
X61.258Y-88.646
X61.258Y-91.186
X61.258Y-93.726
X61.258Y-96.266
X71.164Y-44.323
X71.164Y-46.863
X73.704Y-44.323
X73.704Y-46.863
X76.244Y-44.323
X76.244Y-46.863
X78.784Y-44.323
X78.784Y-46.863
X81.324Y-44.323
X81.324Y-46.863
X108.756Y-44.323
X108.756Y-46.863
X111.296Y-44.323
X111.296Y-46.863
X113.836Y-44.323
X113.836Y-46.863
X116.376Y-44.323
X116.376Y-46.863
X118.916Y-44.323
X118.916Y-46.863
X145.205Y-61.214
X145.205Y-63.754
X145.205Y-66.294
X145.205Y-68.834
X145.205Y-71.374
X147.745Y-61.214
X147.745Y-63.754
X147.745Y-66.294
X147.745Y-68.834
X147.745Y-71.374
T5
X87.359Y-104.762
X103.359Y-104.762
X119.359Y-104.762
X135.359Y-104.762
T6
X84.059Y-101.462
X84.059Y-108.062
X90.659Y-101.462
X90.659Y-108.062
X100.059Y-101.462
X100.059Y-108.062
X106.659Y-101.462
X106.659Y-108.062
X116.059Y-101.462
X116.059Y-108.062
X122.659Y-101.462
X122.659Y-108.062
X132.059Y-101.462
X132.059Y-108.062
X138.659Y-101.462
X138.659Y-108.062
T7
X59.359Y-44.762
X59.359Y-106.762
X147.359Y-44.762
X147.359Y-106.762
T3
X67.039Y-106.707G85X67.039Y-107.807
G05
X67.039Y-111.037G85X67.039Y-111.837
G05
X75.679Y-106.707G85X75.679Y-107.807
G05
X75.679Y-111.037G85X75.679Y-111.837
G05
M30
