G04 #@! TF.GenerationSoftware,KiCad,Pcbnew,9.0.5*
G04 #@! TF.CreationDate,2025-10-23T02:28:29+02:00*
G04 #@! TF.ProjectId,main-board,6d61696e-2d62-46f6-9172-642e6b696361,1.0a*
G04 #@! TF.SameCoordinates,Original*
G04 #@! TF.FileFunction,Legend,Bot*
G04 #@! TF.FilePolarity,Positive*
%FSLAX46Y46*%
G04 Gerber Fmt 4.6, Leading zero omitted, Abs format (unit mm)*
G04 Created by KiCad (PCBNEW 9.0.5) date 2025-10-23 02:28:29*
%MOMM*%
%LPD*%
G01*
G04 APERTURE LIST*
G04 Aperture macros list*
%AMRoundRect*
0 Rectangle with rounded corners*
0 $1 Rounding radius*
0 $2 $3 $4 $5 $6 $7 $8 $9 X,Y pos of 4 corners*
0 Add a 4 corners polygon primitive as box body*
4,1,4,$2,$3,$4,$5,$6,$7,$8,$9,$2,$3,0*
0 Add four circle primitives for the rounded corners*
1,1,$1+$1,$2,$3*
1,1,$1+$1,$4,$5*
1,1,$1+$1,$6,$7*
1,1,$1+$1,$8,$9*
0 Add four rect primitives between the rounded corners*
20,1,$1+$1,$2,$3,$4,$5,0*
20,1,$1+$1,$4,$5,$6,$7,0*
20,1,$1+$1,$6,$7,$8,$9,0*
20,1,$1+$1,$8,$9,$2,$3,0*%
G04 Aperture macros list end*
%ADD10C,0.170000*%
%ADD11C,0.100000*%
%ADD12C,0.650000*%
%ADD13O,1.000000X2.100000*%
%ADD14O,1.000000X1.800000*%
%ADD15C,2.300000*%
%ADD16C,3.600000*%
%ADD17RoundRect,0.250000X-0.600000X-0.600000X0.600000X-0.600000X0.600000X0.600000X-0.600000X0.600000X0*%
%ADD18C,1.700000*%
%ADD19C,6.400000*%
%ADD20C,1.200000*%
%ADD21C,1.100000*%
%ADD22RoundRect,0.250000X0.600000X-0.600000X0.600000X0.600000X-0.600000X0.600000X-0.600000X-0.600000X0*%
%ADD23RoundRect,0.250000X-0.337500X-0.475000X0.337500X-0.475000X0.337500X0.475000X-0.337500X0.475000X0*%
%ADD24RoundRect,0.250000X0.475000X-0.337500X0.475000X0.337500X-0.475000X0.337500X-0.475000X-0.337500X0*%
%ADD25RoundRect,0.250000X-0.475000X0.337500X-0.475000X-0.337500X0.475000X-0.337500X0.475000X0.337500X0*%
%ADD26RoundRect,0.250000X0.337500X0.475000X-0.337500X0.475000X-0.337500X-0.475000X0.337500X-0.475000X0*%
%ADD27RoundRect,0.250000X0.450000X-0.325000X0.450000X0.325000X-0.450000X0.325000X-0.450000X-0.325000X0*%
%ADD28RoundRect,0.250000X-0.650000X0.412500X-0.650000X-0.412500X0.650000X-0.412500X0.650000X0.412500X0*%
G04 APERTURE END LIST*
D10*
X115178695Y-62662017D02*
X115223933Y-62719160D01*
X115223933Y-62719160D02*
X115359647Y-62776302D01*
X115359647Y-62776302D02*
X115450123Y-62776302D01*
X115450123Y-62776302D02*
X115585838Y-62719160D01*
X115585838Y-62719160D02*
X115676314Y-62604874D01*
X115676314Y-62604874D02*
X115721552Y-62490588D01*
X115721552Y-62490588D02*
X115766790Y-62262017D01*
X115766790Y-62262017D02*
X115766790Y-62090588D01*
X115766790Y-62090588D02*
X115721552Y-61862017D01*
X115721552Y-61862017D02*
X115676314Y-61747731D01*
X115676314Y-61747731D02*
X115585838Y-61633445D01*
X115585838Y-61633445D02*
X115450123Y-61576302D01*
X115450123Y-61576302D02*
X115359647Y-61576302D01*
X115359647Y-61576302D02*
X115223933Y-61633445D01*
X115223933Y-61633445D02*
X115178695Y-61690588D01*
X114273933Y-62776302D02*
X114816790Y-62776302D01*
X114545362Y-62776302D02*
X114545362Y-61576302D01*
X114545362Y-61576302D02*
X114635838Y-61747731D01*
X114635838Y-61747731D02*
X114726314Y-61862017D01*
X114726314Y-61862017D02*
X114816790Y-61919160D01*
X113685838Y-61576302D02*
X113595361Y-61576302D01*
X113595361Y-61576302D02*
X113504885Y-61633445D01*
X113504885Y-61633445D02*
X113459647Y-61690588D01*
X113459647Y-61690588D02*
X113414409Y-61804874D01*
X113414409Y-61804874D02*
X113369171Y-62033445D01*
X113369171Y-62033445D02*
X113369171Y-62319160D01*
X113369171Y-62319160D02*
X113414409Y-62547731D01*
X113414409Y-62547731D02*
X113459647Y-62662017D01*
X113459647Y-62662017D02*
X113504885Y-62719160D01*
X113504885Y-62719160D02*
X113595361Y-62776302D01*
X113595361Y-62776302D02*
X113685838Y-62776302D01*
X113685838Y-62776302D02*
X113776314Y-62719160D01*
X113776314Y-62719160D02*
X113821552Y-62662017D01*
X113821552Y-62662017D02*
X113866790Y-62547731D01*
X113866790Y-62547731D02*
X113912028Y-62319160D01*
X113912028Y-62319160D02*
X113912028Y-62033445D01*
X113912028Y-62033445D02*
X113866790Y-61804874D01*
X113866790Y-61804874D02*
X113821552Y-61690588D01*
X113821552Y-61690588D02*
X113776314Y-61633445D01*
X113776314Y-61633445D02*
X113685838Y-61576302D01*
X112509647Y-61576302D02*
X112962028Y-61576302D01*
X112962028Y-61576302D02*
X113007266Y-62147731D01*
X113007266Y-62147731D02*
X112962028Y-62090588D01*
X112962028Y-62090588D02*
X112871552Y-62033445D01*
X112871552Y-62033445D02*
X112645361Y-62033445D01*
X112645361Y-62033445D02*
X112554885Y-62090588D01*
X112554885Y-62090588D02*
X112509647Y-62147731D01*
X112509647Y-62147731D02*
X112464409Y-62262017D01*
X112464409Y-62262017D02*
X112464409Y-62547731D01*
X112464409Y-62547731D02*
X112509647Y-62662017D01*
X112509647Y-62662017D02*
X112554885Y-62719160D01*
X112554885Y-62719160D02*
X112645361Y-62776302D01*
X112645361Y-62776302D02*
X112871552Y-62776302D01*
X112871552Y-62776302D02*
X112962028Y-62719160D01*
X112962028Y-62719160D02*
X113007266Y-62662017D01*
X80990295Y-68046817D02*
X81035533Y-68103960D01*
X81035533Y-68103960D02*
X81171247Y-68161102D01*
X81171247Y-68161102D02*
X81261723Y-68161102D01*
X81261723Y-68161102D02*
X81397438Y-68103960D01*
X81397438Y-68103960D02*
X81487914Y-67989674D01*
X81487914Y-67989674D02*
X81533152Y-67875388D01*
X81533152Y-67875388D02*
X81578390Y-67646817D01*
X81578390Y-67646817D02*
X81578390Y-67475388D01*
X81578390Y-67475388D02*
X81533152Y-67246817D01*
X81533152Y-67246817D02*
X81487914Y-67132531D01*
X81487914Y-67132531D02*
X81397438Y-67018245D01*
X81397438Y-67018245D02*
X81261723Y-66961102D01*
X81261723Y-66961102D02*
X81171247Y-66961102D01*
X81171247Y-66961102D02*
X81035533Y-67018245D01*
X81035533Y-67018245D02*
X80990295Y-67075388D01*
X80085533Y-68161102D02*
X80628390Y-68161102D01*
X80356962Y-68161102D02*
X80356962Y-66961102D01*
X80356962Y-66961102D02*
X80447438Y-67132531D01*
X80447438Y-67132531D02*
X80537914Y-67246817D01*
X80537914Y-67246817D02*
X80628390Y-67303960D01*
X79723628Y-67075388D02*
X79678390Y-67018245D01*
X79678390Y-67018245D02*
X79587914Y-66961102D01*
X79587914Y-66961102D02*
X79361723Y-66961102D01*
X79361723Y-66961102D02*
X79271247Y-67018245D01*
X79271247Y-67018245D02*
X79226009Y-67075388D01*
X79226009Y-67075388D02*
X79180771Y-67189674D01*
X79180771Y-67189674D02*
X79180771Y-67303960D01*
X79180771Y-67303960D02*
X79226009Y-67475388D01*
X79226009Y-67475388D02*
X79768866Y-68161102D01*
X79768866Y-68161102D02*
X79180771Y-68161102D01*
X78321247Y-66961102D02*
X78773628Y-66961102D01*
X78773628Y-66961102D02*
X78818866Y-67532531D01*
X78818866Y-67532531D02*
X78773628Y-67475388D01*
X78773628Y-67475388D02*
X78683152Y-67418245D01*
X78683152Y-67418245D02*
X78456961Y-67418245D01*
X78456961Y-67418245D02*
X78366485Y-67475388D01*
X78366485Y-67475388D02*
X78321247Y-67532531D01*
X78321247Y-67532531D02*
X78276009Y-67646817D01*
X78276009Y-67646817D02*
X78276009Y-67932531D01*
X78276009Y-67932531D02*
X78321247Y-68046817D01*
X78321247Y-68046817D02*
X78366485Y-68103960D01*
X78366485Y-68103960D02*
X78456961Y-68161102D01*
X78456961Y-68161102D02*
X78683152Y-68161102D01*
X78683152Y-68161102D02*
X78773628Y-68103960D01*
X78773628Y-68103960D02*
X78818866Y-68046817D01*
X85642417Y-66754904D02*
X85699560Y-66709666D01*
X85699560Y-66709666D02*
X85756702Y-66573952D01*
X85756702Y-66573952D02*
X85756702Y-66483476D01*
X85756702Y-66483476D02*
X85699560Y-66347761D01*
X85699560Y-66347761D02*
X85585274Y-66257285D01*
X85585274Y-66257285D02*
X85470988Y-66212047D01*
X85470988Y-66212047D02*
X85242417Y-66166809D01*
X85242417Y-66166809D02*
X85070988Y-66166809D01*
X85070988Y-66166809D02*
X84842417Y-66212047D01*
X84842417Y-66212047D02*
X84728131Y-66257285D01*
X84728131Y-66257285D02*
X84613845Y-66347761D01*
X84613845Y-66347761D02*
X84556702Y-66483476D01*
X84556702Y-66483476D02*
X84556702Y-66573952D01*
X84556702Y-66573952D02*
X84613845Y-66709666D01*
X84613845Y-66709666D02*
X84670988Y-66754904D01*
X85756702Y-67659666D02*
X85756702Y-67116809D01*
X85756702Y-67388237D02*
X84556702Y-67388237D01*
X84556702Y-67388237D02*
X84728131Y-67297761D01*
X84728131Y-67297761D02*
X84842417Y-67207285D01*
X84842417Y-67207285D02*
X84899560Y-67116809D01*
X84556702Y-68519190D02*
X84556702Y-68066809D01*
X84556702Y-68066809D02*
X85128131Y-68021571D01*
X85128131Y-68021571D02*
X85070988Y-68066809D01*
X85070988Y-68066809D02*
X85013845Y-68157285D01*
X85013845Y-68157285D02*
X85013845Y-68383476D01*
X85013845Y-68383476D02*
X85070988Y-68473952D01*
X85070988Y-68473952D02*
X85128131Y-68519190D01*
X85128131Y-68519190D02*
X85242417Y-68564428D01*
X85242417Y-68564428D02*
X85528131Y-68564428D01*
X85528131Y-68564428D02*
X85642417Y-68519190D01*
X85642417Y-68519190D02*
X85699560Y-68473952D01*
X85699560Y-68473952D02*
X85756702Y-68383476D01*
X85756702Y-68383476D02*
X85756702Y-68157285D01*
X85756702Y-68157285D02*
X85699560Y-68066809D01*
X85699560Y-68066809D02*
X85642417Y-68021571D01*
X84956702Y-69378714D02*
X85756702Y-69378714D01*
X84499560Y-69152523D02*
X85356702Y-68926333D01*
X85356702Y-68926333D02*
X85356702Y-69514428D01*
X94786417Y-60811304D02*
X94843560Y-60766066D01*
X94843560Y-60766066D02*
X94900702Y-60630352D01*
X94900702Y-60630352D02*
X94900702Y-60539876D01*
X94900702Y-60539876D02*
X94843560Y-60404161D01*
X94843560Y-60404161D02*
X94729274Y-60313685D01*
X94729274Y-60313685D02*
X94614988Y-60268447D01*
X94614988Y-60268447D02*
X94386417Y-60223209D01*
X94386417Y-60223209D02*
X94214988Y-60223209D01*
X94214988Y-60223209D02*
X93986417Y-60268447D01*
X93986417Y-60268447D02*
X93872131Y-60313685D01*
X93872131Y-60313685D02*
X93757845Y-60404161D01*
X93757845Y-60404161D02*
X93700702Y-60539876D01*
X93700702Y-60539876D02*
X93700702Y-60630352D01*
X93700702Y-60630352D02*
X93757845Y-60766066D01*
X93757845Y-60766066D02*
X93814988Y-60811304D01*
X94900702Y-61716066D02*
X94900702Y-61173209D01*
X94900702Y-61444637D02*
X93700702Y-61444637D01*
X93700702Y-61444637D02*
X93872131Y-61354161D01*
X93872131Y-61354161D02*
X93986417Y-61263685D01*
X93986417Y-61263685D02*
X94043560Y-61173209D01*
X93814988Y-62077971D02*
X93757845Y-62123209D01*
X93757845Y-62123209D02*
X93700702Y-62213685D01*
X93700702Y-62213685D02*
X93700702Y-62439876D01*
X93700702Y-62439876D02*
X93757845Y-62530352D01*
X93757845Y-62530352D02*
X93814988Y-62575590D01*
X93814988Y-62575590D02*
X93929274Y-62620828D01*
X93929274Y-62620828D02*
X94043560Y-62620828D01*
X94043560Y-62620828D02*
X94214988Y-62575590D01*
X94214988Y-62575590D02*
X94900702Y-62032733D01*
X94900702Y-62032733D02*
X94900702Y-62620828D01*
X93814988Y-62982733D02*
X93757845Y-63027971D01*
X93757845Y-63027971D02*
X93700702Y-63118447D01*
X93700702Y-63118447D02*
X93700702Y-63344638D01*
X93700702Y-63344638D02*
X93757845Y-63435114D01*
X93757845Y-63435114D02*
X93814988Y-63480352D01*
X93814988Y-63480352D02*
X93929274Y-63525590D01*
X93929274Y-63525590D02*
X94043560Y-63525590D01*
X94043560Y-63525590D02*
X94214988Y-63480352D01*
X94214988Y-63480352D02*
X94900702Y-62937495D01*
X94900702Y-62937495D02*
X94900702Y-63525590D01*
X133496017Y-64062504D02*
X133553160Y-64017266D01*
X133553160Y-64017266D02*
X133610302Y-63881552D01*
X133610302Y-63881552D02*
X133610302Y-63791076D01*
X133610302Y-63791076D02*
X133553160Y-63655361D01*
X133553160Y-63655361D02*
X133438874Y-63564885D01*
X133438874Y-63564885D02*
X133324588Y-63519647D01*
X133324588Y-63519647D02*
X133096017Y-63474409D01*
X133096017Y-63474409D02*
X132924588Y-63474409D01*
X132924588Y-63474409D02*
X132696017Y-63519647D01*
X132696017Y-63519647D02*
X132581731Y-63564885D01*
X132581731Y-63564885D02*
X132467445Y-63655361D01*
X132467445Y-63655361D02*
X132410302Y-63791076D01*
X132410302Y-63791076D02*
X132410302Y-63881552D01*
X132410302Y-63881552D02*
X132467445Y-64017266D01*
X132467445Y-64017266D02*
X132524588Y-64062504D01*
X133610302Y-64967266D02*
X133610302Y-64424409D01*
X133610302Y-64695837D02*
X132410302Y-64695837D01*
X132410302Y-64695837D02*
X132581731Y-64605361D01*
X132581731Y-64605361D02*
X132696017Y-64514885D01*
X132696017Y-64514885D02*
X132753160Y-64424409D01*
X133610302Y-65872028D02*
X133610302Y-65329171D01*
X133610302Y-65600599D02*
X132410302Y-65600599D01*
X132410302Y-65600599D02*
X132581731Y-65510123D01*
X132581731Y-65510123D02*
X132696017Y-65419647D01*
X132696017Y-65419647D02*
X132753160Y-65329171D01*
X132410302Y-66188695D02*
X132410302Y-66776790D01*
X132410302Y-66776790D02*
X132867445Y-66460123D01*
X132867445Y-66460123D02*
X132867445Y-66595838D01*
X132867445Y-66595838D02*
X132924588Y-66686314D01*
X132924588Y-66686314D02*
X132981731Y-66731552D01*
X132981731Y-66731552D02*
X133096017Y-66776790D01*
X133096017Y-66776790D02*
X133381731Y-66776790D01*
X133381731Y-66776790D02*
X133496017Y-66731552D01*
X133496017Y-66731552D02*
X133553160Y-66686314D01*
X133553160Y-66686314D02*
X133610302Y-66595838D01*
X133610302Y-66595838D02*
X133610302Y-66324409D01*
X133610302Y-66324409D02*
X133553160Y-66233933D01*
X133553160Y-66233933D02*
X133496017Y-66188695D01*
X115331095Y-69774017D02*
X115376333Y-69831160D01*
X115376333Y-69831160D02*
X115512047Y-69888302D01*
X115512047Y-69888302D02*
X115602523Y-69888302D01*
X115602523Y-69888302D02*
X115738238Y-69831160D01*
X115738238Y-69831160D02*
X115828714Y-69716874D01*
X115828714Y-69716874D02*
X115873952Y-69602588D01*
X115873952Y-69602588D02*
X115919190Y-69374017D01*
X115919190Y-69374017D02*
X115919190Y-69202588D01*
X115919190Y-69202588D02*
X115873952Y-68974017D01*
X115873952Y-68974017D02*
X115828714Y-68859731D01*
X115828714Y-68859731D02*
X115738238Y-68745445D01*
X115738238Y-68745445D02*
X115602523Y-68688302D01*
X115602523Y-68688302D02*
X115512047Y-68688302D01*
X115512047Y-68688302D02*
X115376333Y-68745445D01*
X115376333Y-68745445D02*
X115331095Y-68802588D01*
X114426333Y-69888302D02*
X114969190Y-69888302D01*
X114697762Y-69888302D02*
X114697762Y-68688302D01*
X114697762Y-68688302D02*
X114788238Y-68859731D01*
X114788238Y-68859731D02*
X114878714Y-68974017D01*
X114878714Y-68974017D02*
X114969190Y-69031160D01*
X113838238Y-68688302D02*
X113747761Y-68688302D01*
X113747761Y-68688302D02*
X113657285Y-68745445D01*
X113657285Y-68745445D02*
X113612047Y-68802588D01*
X113612047Y-68802588D02*
X113566809Y-68916874D01*
X113566809Y-68916874D02*
X113521571Y-69145445D01*
X113521571Y-69145445D02*
X113521571Y-69431160D01*
X113521571Y-69431160D02*
X113566809Y-69659731D01*
X113566809Y-69659731D02*
X113612047Y-69774017D01*
X113612047Y-69774017D02*
X113657285Y-69831160D01*
X113657285Y-69831160D02*
X113747761Y-69888302D01*
X113747761Y-69888302D02*
X113838238Y-69888302D01*
X113838238Y-69888302D02*
X113928714Y-69831160D01*
X113928714Y-69831160D02*
X113973952Y-69774017D01*
X113973952Y-69774017D02*
X114019190Y-69659731D01*
X114019190Y-69659731D02*
X114064428Y-69431160D01*
X114064428Y-69431160D02*
X114064428Y-69145445D01*
X114064428Y-69145445D02*
X114019190Y-68916874D01*
X114019190Y-68916874D02*
X113973952Y-68802588D01*
X113973952Y-68802588D02*
X113928714Y-68745445D01*
X113928714Y-68745445D02*
X113838238Y-68688302D01*
X113204904Y-68688302D02*
X112616809Y-68688302D01*
X112616809Y-68688302D02*
X112933476Y-69145445D01*
X112933476Y-69145445D02*
X112797761Y-69145445D01*
X112797761Y-69145445D02*
X112707285Y-69202588D01*
X112707285Y-69202588D02*
X112662047Y-69259731D01*
X112662047Y-69259731D02*
X112616809Y-69374017D01*
X112616809Y-69374017D02*
X112616809Y-69659731D01*
X112616809Y-69659731D02*
X112662047Y-69774017D01*
X112662047Y-69774017D02*
X112707285Y-69831160D01*
X112707285Y-69831160D02*
X112797761Y-69888302D01*
X112797761Y-69888302D02*
X113069190Y-69888302D01*
X113069190Y-69888302D02*
X113159666Y-69831160D01*
X113159666Y-69831160D02*
X113204904Y-69774017D01*
X76418295Y-101045017D02*
X76463533Y-101102160D01*
X76463533Y-101102160D02*
X76599247Y-101159302D01*
X76599247Y-101159302D02*
X76689723Y-101159302D01*
X76689723Y-101159302D02*
X76825438Y-101102160D01*
X76825438Y-101102160D02*
X76915914Y-100987874D01*
X76915914Y-100987874D02*
X76961152Y-100873588D01*
X76961152Y-100873588D02*
X77006390Y-100645017D01*
X77006390Y-100645017D02*
X77006390Y-100473588D01*
X77006390Y-100473588D02*
X76961152Y-100245017D01*
X76961152Y-100245017D02*
X76915914Y-100130731D01*
X76915914Y-100130731D02*
X76825438Y-100016445D01*
X76825438Y-100016445D02*
X76689723Y-99959302D01*
X76689723Y-99959302D02*
X76599247Y-99959302D01*
X76599247Y-99959302D02*
X76463533Y-100016445D01*
X76463533Y-100016445D02*
X76418295Y-100073588D01*
X75513533Y-101159302D02*
X76056390Y-101159302D01*
X75784962Y-101159302D02*
X75784962Y-99959302D01*
X75784962Y-99959302D02*
X75875438Y-100130731D01*
X75875438Y-100130731D02*
X75965914Y-100245017D01*
X75965914Y-100245017D02*
X76056390Y-100302160D01*
X75196866Y-99959302D02*
X74608771Y-99959302D01*
X74608771Y-99959302D02*
X74925438Y-100416445D01*
X74925438Y-100416445D02*
X74789723Y-100416445D01*
X74789723Y-100416445D02*
X74699247Y-100473588D01*
X74699247Y-100473588D02*
X74654009Y-100530731D01*
X74654009Y-100530731D02*
X74608771Y-100645017D01*
X74608771Y-100645017D02*
X74608771Y-100930731D01*
X74608771Y-100930731D02*
X74654009Y-101045017D01*
X74654009Y-101045017D02*
X74699247Y-101102160D01*
X74699247Y-101102160D02*
X74789723Y-101159302D01*
X74789723Y-101159302D02*
X75061152Y-101159302D01*
X75061152Y-101159302D02*
X75151628Y-101102160D01*
X75151628Y-101102160D02*
X75196866Y-101045017D01*
X73794485Y-100359302D02*
X73794485Y-101159302D01*
X74020676Y-99902160D02*
X74246866Y-100759302D01*
X74246866Y-100759302D02*
X73658771Y-100759302D01*
X88995217Y-65738904D02*
X89052360Y-65693666D01*
X89052360Y-65693666D02*
X89109502Y-65557952D01*
X89109502Y-65557952D02*
X89109502Y-65467476D01*
X89109502Y-65467476D02*
X89052360Y-65331761D01*
X89052360Y-65331761D02*
X88938074Y-65241285D01*
X88938074Y-65241285D02*
X88823788Y-65196047D01*
X88823788Y-65196047D02*
X88595217Y-65150809D01*
X88595217Y-65150809D02*
X88423788Y-65150809D01*
X88423788Y-65150809D02*
X88195217Y-65196047D01*
X88195217Y-65196047D02*
X88080931Y-65241285D01*
X88080931Y-65241285D02*
X87966645Y-65331761D01*
X87966645Y-65331761D02*
X87909502Y-65467476D01*
X87909502Y-65467476D02*
X87909502Y-65557952D01*
X87909502Y-65557952D02*
X87966645Y-65693666D01*
X87966645Y-65693666D02*
X88023788Y-65738904D01*
X89109502Y-66643666D02*
X89109502Y-66100809D01*
X89109502Y-66372237D02*
X87909502Y-66372237D01*
X87909502Y-66372237D02*
X88080931Y-66281761D01*
X88080931Y-66281761D02*
X88195217Y-66191285D01*
X88195217Y-66191285D02*
X88252360Y-66100809D01*
X88023788Y-67005571D02*
X87966645Y-67050809D01*
X87966645Y-67050809D02*
X87909502Y-67141285D01*
X87909502Y-67141285D02*
X87909502Y-67367476D01*
X87909502Y-67367476D02*
X87966645Y-67457952D01*
X87966645Y-67457952D02*
X88023788Y-67503190D01*
X88023788Y-67503190D02*
X88138074Y-67548428D01*
X88138074Y-67548428D02*
X88252360Y-67548428D01*
X88252360Y-67548428D02*
X88423788Y-67503190D01*
X88423788Y-67503190D02*
X89109502Y-66960333D01*
X89109502Y-66960333D02*
X89109502Y-67548428D01*
X87909502Y-68362714D02*
X87909502Y-68181761D01*
X87909502Y-68181761D02*
X87966645Y-68091285D01*
X87966645Y-68091285D02*
X88023788Y-68046047D01*
X88023788Y-68046047D02*
X88195217Y-67955571D01*
X88195217Y-67955571D02*
X88423788Y-67910333D01*
X88423788Y-67910333D02*
X88880931Y-67910333D01*
X88880931Y-67910333D02*
X88995217Y-67955571D01*
X88995217Y-67955571D02*
X89052360Y-68000809D01*
X89052360Y-68000809D02*
X89109502Y-68091285D01*
X89109502Y-68091285D02*
X89109502Y-68272238D01*
X89109502Y-68272238D02*
X89052360Y-68362714D01*
X89052360Y-68362714D02*
X88995217Y-68407952D01*
X88995217Y-68407952D02*
X88880931Y-68453190D01*
X88880931Y-68453190D02*
X88595217Y-68453190D01*
X88595217Y-68453190D02*
X88480931Y-68407952D01*
X88480931Y-68407952D02*
X88423788Y-68362714D01*
X88423788Y-68362714D02*
X88366645Y-68272238D01*
X88366645Y-68272238D02*
X88366645Y-68091285D01*
X88366645Y-68091285D02*
X88423788Y-68000809D01*
X88423788Y-68000809D02*
X88480931Y-67955571D01*
X88480931Y-67955571D02*
X88595217Y-67910333D01*
X115331095Y-71806017D02*
X115376333Y-71863160D01*
X115376333Y-71863160D02*
X115512047Y-71920302D01*
X115512047Y-71920302D02*
X115602523Y-71920302D01*
X115602523Y-71920302D02*
X115738238Y-71863160D01*
X115738238Y-71863160D02*
X115828714Y-71748874D01*
X115828714Y-71748874D02*
X115873952Y-71634588D01*
X115873952Y-71634588D02*
X115919190Y-71406017D01*
X115919190Y-71406017D02*
X115919190Y-71234588D01*
X115919190Y-71234588D02*
X115873952Y-71006017D01*
X115873952Y-71006017D02*
X115828714Y-70891731D01*
X115828714Y-70891731D02*
X115738238Y-70777445D01*
X115738238Y-70777445D02*
X115602523Y-70720302D01*
X115602523Y-70720302D02*
X115512047Y-70720302D01*
X115512047Y-70720302D02*
X115376333Y-70777445D01*
X115376333Y-70777445D02*
X115331095Y-70834588D01*
X114426333Y-71920302D02*
X114969190Y-71920302D01*
X114697762Y-71920302D02*
X114697762Y-70720302D01*
X114697762Y-70720302D02*
X114788238Y-70891731D01*
X114788238Y-70891731D02*
X114878714Y-71006017D01*
X114878714Y-71006017D02*
X114969190Y-71063160D01*
X113838238Y-70720302D02*
X113747761Y-70720302D01*
X113747761Y-70720302D02*
X113657285Y-70777445D01*
X113657285Y-70777445D02*
X113612047Y-70834588D01*
X113612047Y-70834588D02*
X113566809Y-70948874D01*
X113566809Y-70948874D02*
X113521571Y-71177445D01*
X113521571Y-71177445D02*
X113521571Y-71463160D01*
X113521571Y-71463160D02*
X113566809Y-71691731D01*
X113566809Y-71691731D02*
X113612047Y-71806017D01*
X113612047Y-71806017D02*
X113657285Y-71863160D01*
X113657285Y-71863160D02*
X113747761Y-71920302D01*
X113747761Y-71920302D02*
X113838238Y-71920302D01*
X113838238Y-71920302D02*
X113928714Y-71863160D01*
X113928714Y-71863160D02*
X113973952Y-71806017D01*
X113973952Y-71806017D02*
X114019190Y-71691731D01*
X114019190Y-71691731D02*
X114064428Y-71463160D01*
X114064428Y-71463160D02*
X114064428Y-71177445D01*
X114064428Y-71177445D02*
X114019190Y-70948874D01*
X114019190Y-70948874D02*
X113973952Y-70834588D01*
X113973952Y-70834588D02*
X113928714Y-70777445D01*
X113928714Y-70777445D02*
X113838238Y-70720302D01*
X113159666Y-70834588D02*
X113114428Y-70777445D01*
X113114428Y-70777445D02*
X113023952Y-70720302D01*
X113023952Y-70720302D02*
X112797761Y-70720302D01*
X112797761Y-70720302D02*
X112707285Y-70777445D01*
X112707285Y-70777445D02*
X112662047Y-70834588D01*
X112662047Y-70834588D02*
X112616809Y-70948874D01*
X112616809Y-70948874D02*
X112616809Y-71063160D01*
X112616809Y-71063160D02*
X112662047Y-71234588D01*
X112662047Y-71234588D02*
X113204904Y-71920302D01*
X113204904Y-71920302D02*
X112616809Y-71920302D01*
X92297217Y-70717304D02*
X92354360Y-70672066D01*
X92354360Y-70672066D02*
X92411502Y-70536352D01*
X92411502Y-70536352D02*
X92411502Y-70445876D01*
X92411502Y-70445876D02*
X92354360Y-70310161D01*
X92354360Y-70310161D02*
X92240074Y-70219685D01*
X92240074Y-70219685D02*
X92125788Y-70174447D01*
X92125788Y-70174447D02*
X91897217Y-70129209D01*
X91897217Y-70129209D02*
X91725788Y-70129209D01*
X91725788Y-70129209D02*
X91497217Y-70174447D01*
X91497217Y-70174447D02*
X91382931Y-70219685D01*
X91382931Y-70219685D02*
X91268645Y-70310161D01*
X91268645Y-70310161D02*
X91211502Y-70445876D01*
X91211502Y-70445876D02*
X91211502Y-70536352D01*
X91211502Y-70536352D02*
X91268645Y-70672066D01*
X91268645Y-70672066D02*
X91325788Y-70717304D01*
X92411502Y-71622066D02*
X92411502Y-71079209D01*
X92411502Y-71350637D02*
X91211502Y-71350637D01*
X91211502Y-71350637D02*
X91382931Y-71260161D01*
X91382931Y-71260161D02*
X91497217Y-71169685D01*
X91497217Y-71169685D02*
X91554360Y-71079209D01*
X91611502Y-72436352D02*
X92411502Y-72436352D01*
X91154360Y-72210161D02*
X92011502Y-71983971D01*
X92011502Y-71983971D02*
X92011502Y-72572066D01*
X91211502Y-73114923D02*
X91211502Y-73205400D01*
X91211502Y-73205400D02*
X91268645Y-73295876D01*
X91268645Y-73295876D02*
X91325788Y-73341114D01*
X91325788Y-73341114D02*
X91440074Y-73386352D01*
X91440074Y-73386352D02*
X91668645Y-73431590D01*
X91668645Y-73431590D02*
X91954360Y-73431590D01*
X91954360Y-73431590D02*
X92182931Y-73386352D01*
X92182931Y-73386352D02*
X92297217Y-73341114D01*
X92297217Y-73341114D02*
X92354360Y-73295876D01*
X92354360Y-73295876D02*
X92411502Y-73205400D01*
X92411502Y-73205400D02*
X92411502Y-73114923D01*
X92411502Y-73114923D02*
X92354360Y-73024447D01*
X92354360Y-73024447D02*
X92297217Y-72979209D01*
X92297217Y-72979209D02*
X92182931Y-72933971D01*
X92182931Y-72933971D02*
X91954360Y-72888733D01*
X91954360Y-72888733D02*
X91668645Y-72888733D01*
X91668645Y-72888733D02*
X91440074Y-72933971D01*
X91440074Y-72933971D02*
X91325788Y-72979209D01*
X91325788Y-72979209D02*
X91268645Y-73024447D01*
X91268645Y-73024447D02*
X91211502Y-73114923D01*
X134990695Y-71907617D02*
X135035933Y-71964760D01*
X135035933Y-71964760D02*
X135171647Y-72021902D01*
X135171647Y-72021902D02*
X135262123Y-72021902D01*
X135262123Y-72021902D02*
X135397838Y-71964760D01*
X135397838Y-71964760D02*
X135488314Y-71850474D01*
X135488314Y-71850474D02*
X135533552Y-71736188D01*
X135533552Y-71736188D02*
X135578790Y-71507617D01*
X135578790Y-71507617D02*
X135578790Y-71336188D01*
X135578790Y-71336188D02*
X135533552Y-71107617D01*
X135533552Y-71107617D02*
X135488314Y-70993331D01*
X135488314Y-70993331D02*
X135397838Y-70879045D01*
X135397838Y-70879045D02*
X135262123Y-70821902D01*
X135262123Y-70821902D02*
X135171647Y-70821902D01*
X135171647Y-70821902D02*
X135035933Y-70879045D01*
X135035933Y-70879045D02*
X134990695Y-70936188D01*
X134085933Y-72021902D02*
X134628790Y-72021902D01*
X134357362Y-72021902D02*
X134357362Y-70821902D01*
X134357362Y-70821902D02*
X134447838Y-70993331D01*
X134447838Y-70993331D02*
X134538314Y-71107617D01*
X134538314Y-71107617D02*
X134628790Y-71164760D01*
X133181171Y-72021902D02*
X133724028Y-72021902D01*
X133452600Y-72021902D02*
X133452600Y-70821902D01*
X133452600Y-70821902D02*
X133543076Y-70993331D01*
X133543076Y-70993331D02*
X133633552Y-71107617D01*
X133633552Y-71107617D02*
X133724028Y-71164760D01*
X132366885Y-71221902D02*
X132366885Y-72021902D01*
X132593076Y-70764760D02*
X132819266Y-71621902D01*
X132819266Y-71621902D02*
X132231171Y-71621902D01*
X115331095Y-67691217D02*
X115376333Y-67748360D01*
X115376333Y-67748360D02*
X115512047Y-67805502D01*
X115512047Y-67805502D02*
X115602523Y-67805502D01*
X115602523Y-67805502D02*
X115738238Y-67748360D01*
X115738238Y-67748360D02*
X115828714Y-67634074D01*
X115828714Y-67634074D02*
X115873952Y-67519788D01*
X115873952Y-67519788D02*
X115919190Y-67291217D01*
X115919190Y-67291217D02*
X115919190Y-67119788D01*
X115919190Y-67119788D02*
X115873952Y-66891217D01*
X115873952Y-66891217D02*
X115828714Y-66776931D01*
X115828714Y-66776931D02*
X115738238Y-66662645D01*
X115738238Y-66662645D02*
X115602523Y-66605502D01*
X115602523Y-66605502D02*
X115512047Y-66605502D01*
X115512047Y-66605502D02*
X115376333Y-66662645D01*
X115376333Y-66662645D02*
X115331095Y-66719788D01*
X114426333Y-67805502D02*
X114969190Y-67805502D01*
X114697762Y-67805502D02*
X114697762Y-66605502D01*
X114697762Y-66605502D02*
X114788238Y-66776931D01*
X114788238Y-66776931D02*
X114878714Y-66891217D01*
X114878714Y-66891217D02*
X114969190Y-66948360D01*
X113838238Y-66605502D02*
X113747761Y-66605502D01*
X113747761Y-66605502D02*
X113657285Y-66662645D01*
X113657285Y-66662645D02*
X113612047Y-66719788D01*
X113612047Y-66719788D02*
X113566809Y-66834074D01*
X113566809Y-66834074D02*
X113521571Y-67062645D01*
X113521571Y-67062645D02*
X113521571Y-67348360D01*
X113521571Y-67348360D02*
X113566809Y-67576931D01*
X113566809Y-67576931D02*
X113612047Y-67691217D01*
X113612047Y-67691217D02*
X113657285Y-67748360D01*
X113657285Y-67748360D02*
X113747761Y-67805502D01*
X113747761Y-67805502D02*
X113838238Y-67805502D01*
X113838238Y-67805502D02*
X113928714Y-67748360D01*
X113928714Y-67748360D02*
X113973952Y-67691217D01*
X113973952Y-67691217D02*
X114019190Y-67576931D01*
X114019190Y-67576931D02*
X114064428Y-67348360D01*
X114064428Y-67348360D02*
X114064428Y-67062645D01*
X114064428Y-67062645D02*
X114019190Y-66834074D01*
X114019190Y-66834074D02*
X113973952Y-66719788D01*
X113973952Y-66719788D02*
X113928714Y-66662645D01*
X113928714Y-66662645D02*
X113838238Y-66605502D01*
X112707285Y-67005502D02*
X112707285Y-67805502D01*
X112933476Y-66548360D02*
X113159666Y-67405502D01*
X113159666Y-67405502D02*
X112571571Y-67405502D01*
X81117295Y-77775017D02*
X81162533Y-77832160D01*
X81162533Y-77832160D02*
X81298247Y-77889302D01*
X81298247Y-77889302D02*
X81388723Y-77889302D01*
X81388723Y-77889302D02*
X81524438Y-77832160D01*
X81524438Y-77832160D02*
X81614914Y-77717874D01*
X81614914Y-77717874D02*
X81660152Y-77603588D01*
X81660152Y-77603588D02*
X81705390Y-77375017D01*
X81705390Y-77375017D02*
X81705390Y-77203588D01*
X81705390Y-77203588D02*
X81660152Y-76975017D01*
X81660152Y-76975017D02*
X81614914Y-76860731D01*
X81614914Y-76860731D02*
X81524438Y-76746445D01*
X81524438Y-76746445D02*
X81388723Y-76689302D01*
X81388723Y-76689302D02*
X81298247Y-76689302D01*
X81298247Y-76689302D02*
X81162533Y-76746445D01*
X81162533Y-76746445D02*
X81117295Y-76803588D01*
X80212533Y-77889302D02*
X80755390Y-77889302D01*
X80483962Y-77889302D02*
X80483962Y-76689302D01*
X80483962Y-76689302D02*
X80574438Y-76860731D01*
X80574438Y-76860731D02*
X80664914Y-76975017D01*
X80664914Y-76975017D02*
X80755390Y-77032160D01*
X79307771Y-77889302D02*
X79850628Y-77889302D01*
X79579200Y-77889302D02*
X79579200Y-76689302D01*
X79579200Y-76689302D02*
X79669676Y-76860731D01*
X79669676Y-76860731D02*
X79760152Y-76975017D01*
X79760152Y-76975017D02*
X79850628Y-77032160D01*
X78764914Y-77203588D02*
X78855390Y-77146445D01*
X78855390Y-77146445D02*
X78900628Y-77089302D01*
X78900628Y-77089302D02*
X78945866Y-76975017D01*
X78945866Y-76975017D02*
X78945866Y-76917874D01*
X78945866Y-76917874D02*
X78900628Y-76803588D01*
X78900628Y-76803588D02*
X78855390Y-76746445D01*
X78855390Y-76746445D02*
X78764914Y-76689302D01*
X78764914Y-76689302D02*
X78583961Y-76689302D01*
X78583961Y-76689302D02*
X78493485Y-76746445D01*
X78493485Y-76746445D02*
X78448247Y-76803588D01*
X78448247Y-76803588D02*
X78403009Y-76917874D01*
X78403009Y-76917874D02*
X78403009Y-76975017D01*
X78403009Y-76975017D02*
X78448247Y-77089302D01*
X78448247Y-77089302D02*
X78493485Y-77146445D01*
X78493485Y-77146445D02*
X78583961Y-77203588D01*
X78583961Y-77203588D02*
X78764914Y-77203588D01*
X78764914Y-77203588D02*
X78855390Y-77260731D01*
X78855390Y-77260731D02*
X78900628Y-77317874D01*
X78900628Y-77317874D02*
X78945866Y-77432160D01*
X78945866Y-77432160D02*
X78945866Y-77660731D01*
X78945866Y-77660731D02*
X78900628Y-77775017D01*
X78900628Y-77775017D02*
X78855390Y-77832160D01*
X78855390Y-77832160D02*
X78764914Y-77889302D01*
X78764914Y-77889302D02*
X78583961Y-77889302D01*
X78583961Y-77889302D02*
X78493485Y-77832160D01*
X78493485Y-77832160D02*
X78448247Y-77775017D01*
X78448247Y-77775017D02*
X78403009Y-77660731D01*
X78403009Y-77660731D02*
X78403009Y-77432160D01*
X78403009Y-77432160D02*
X78448247Y-77317874D01*
X78448247Y-77317874D02*
X78493485Y-77260731D01*
X78493485Y-77260731D02*
X78583961Y-77203588D01*
X90519217Y-70768104D02*
X90576360Y-70722866D01*
X90576360Y-70722866D02*
X90633502Y-70587152D01*
X90633502Y-70587152D02*
X90633502Y-70496676D01*
X90633502Y-70496676D02*
X90576360Y-70360961D01*
X90576360Y-70360961D02*
X90462074Y-70270485D01*
X90462074Y-70270485D02*
X90347788Y-70225247D01*
X90347788Y-70225247D02*
X90119217Y-70180009D01*
X90119217Y-70180009D02*
X89947788Y-70180009D01*
X89947788Y-70180009D02*
X89719217Y-70225247D01*
X89719217Y-70225247D02*
X89604931Y-70270485D01*
X89604931Y-70270485D02*
X89490645Y-70360961D01*
X89490645Y-70360961D02*
X89433502Y-70496676D01*
X89433502Y-70496676D02*
X89433502Y-70587152D01*
X89433502Y-70587152D02*
X89490645Y-70722866D01*
X89490645Y-70722866D02*
X89547788Y-70768104D01*
X90633502Y-71672866D02*
X90633502Y-71130009D01*
X90633502Y-71401437D02*
X89433502Y-71401437D01*
X89433502Y-71401437D02*
X89604931Y-71310961D01*
X89604931Y-71310961D02*
X89719217Y-71220485D01*
X89719217Y-71220485D02*
X89776360Y-71130009D01*
X89547788Y-72034771D02*
X89490645Y-72080009D01*
X89490645Y-72080009D02*
X89433502Y-72170485D01*
X89433502Y-72170485D02*
X89433502Y-72396676D01*
X89433502Y-72396676D02*
X89490645Y-72487152D01*
X89490645Y-72487152D02*
X89547788Y-72532390D01*
X89547788Y-72532390D02*
X89662074Y-72577628D01*
X89662074Y-72577628D02*
X89776360Y-72577628D01*
X89776360Y-72577628D02*
X89947788Y-72532390D01*
X89947788Y-72532390D02*
X90633502Y-71989533D01*
X90633502Y-71989533D02*
X90633502Y-72577628D01*
X89433502Y-72894295D02*
X89433502Y-73527628D01*
X89433502Y-73527628D02*
X90633502Y-73120485D01*
X81117295Y-75743017D02*
X81162533Y-75800160D01*
X81162533Y-75800160D02*
X81298247Y-75857302D01*
X81298247Y-75857302D02*
X81388723Y-75857302D01*
X81388723Y-75857302D02*
X81524438Y-75800160D01*
X81524438Y-75800160D02*
X81614914Y-75685874D01*
X81614914Y-75685874D02*
X81660152Y-75571588D01*
X81660152Y-75571588D02*
X81705390Y-75343017D01*
X81705390Y-75343017D02*
X81705390Y-75171588D01*
X81705390Y-75171588D02*
X81660152Y-74943017D01*
X81660152Y-74943017D02*
X81614914Y-74828731D01*
X81614914Y-74828731D02*
X81524438Y-74714445D01*
X81524438Y-74714445D02*
X81388723Y-74657302D01*
X81388723Y-74657302D02*
X81298247Y-74657302D01*
X81298247Y-74657302D02*
X81162533Y-74714445D01*
X81162533Y-74714445D02*
X81117295Y-74771588D01*
X80212533Y-75857302D02*
X80755390Y-75857302D01*
X80483962Y-75857302D02*
X80483962Y-74657302D01*
X80483962Y-74657302D02*
X80574438Y-74828731D01*
X80574438Y-74828731D02*
X80664914Y-74943017D01*
X80664914Y-74943017D02*
X80755390Y-75000160D01*
X79307771Y-75857302D02*
X79850628Y-75857302D01*
X79579200Y-75857302D02*
X79579200Y-74657302D01*
X79579200Y-74657302D02*
X79669676Y-74828731D01*
X79669676Y-74828731D02*
X79760152Y-74943017D01*
X79760152Y-74943017D02*
X79850628Y-75000160D01*
X78991104Y-74657302D02*
X78357771Y-74657302D01*
X78357771Y-74657302D02*
X78764914Y-75857302D01*
X115229495Y-56718417D02*
X115274733Y-56775560D01*
X115274733Y-56775560D02*
X115410447Y-56832702D01*
X115410447Y-56832702D02*
X115500923Y-56832702D01*
X115500923Y-56832702D02*
X115636638Y-56775560D01*
X115636638Y-56775560D02*
X115727114Y-56661274D01*
X115727114Y-56661274D02*
X115772352Y-56546988D01*
X115772352Y-56546988D02*
X115817590Y-56318417D01*
X115817590Y-56318417D02*
X115817590Y-56146988D01*
X115817590Y-56146988D02*
X115772352Y-55918417D01*
X115772352Y-55918417D02*
X115727114Y-55804131D01*
X115727114Y-55804131D02*
X115636638Y-55689845D01*
X115636638Y-55689845D02*
X115500923Y-55632702D01*
X115500923Y-55632702D02*
X115410447Y-55632702D01*
X115410447Y-55632702D02*
X115274733Y-55689845D01*
X115274733Y-55689845D02*
X115229495Y-55746988D01*
X114324733Y-56832702D02*
X114867590Y-56832702D01*
X114596162Y-56832702D02*
X114596162Y-55632702D01*
X114596162Y-55632702D02*
X114686638Y-55804131D01*
X114686638Y-55804131D02*
X114777114Y-55918417D01*
X114777114Y-55918417D02*
X114867590Y-55975560D01*
X113736638Y-55632702D02*
X113646161Y-55632702D01*
X113646161Y-55632702D02*
X113555685Y-55689845D01*
X113555685Y-55689845D02*
X113510447Y-55746988D01*
X113510447Y-55746988D02*
X113465209Y-55861274D01*
X113465209Y-55861274D02*
X113419971Y-56089845D01*
X113419971Y-56089845D02*
X113419971Y-56375560D01*
X113419971Y-56375560D02*
X113465209Y-56604131D01*
X113465209Y-56604131D02*
X113510447Y-56718417D01*
X113510447Y-56718417D02*
X113555685Y-56775560D01*
X113555685Y-56775560D02*
X113646161Y-56832702D01*
X113646161Y-56832702D02*
X113736638Y-56832702D01*
X113736638Y-56832702D02*
X113827114Y-56775560D01*
X113827114Y-56775560D02*
X113872352Y-56718417D01*
X113872352Y-56718417D02*
X113917590Y-56604131D01*
X113917590Y-56604131D02*
X113962828Y-56375560D01*
X113962828Y-56375560D02*
X113962828Y-56089845D01*
X113962828Y-56089845D02*
X113917590Y-55861274D01*
X113917590Y-55861274D02*
X113872352Y-55746988D01*
X113872352Y-55746988D02*
X113827114Y-55689845D01*
X113827114Y-55689845D02*
X113736638Y-55632702D01*
X113103304Y-55632702D02*
X112469971Y-55632702D01*
X112469971Y-55632702D02*
X112877114Y-56832702D01*
X67020295Y-98759017D02*
X67065533Y-98816160D01*
X67065533Y-98816160D02*
X67201247Y-98873302D01*
X67201247Y-98873302D02*
X67291723Y-98873302D01*
X67291723Y-98873302D02*
X67427438Y-98816160D01*
X67427438Y-98816160D02*
X67517914Y-98701874D01*
X67517914Y-98701874D02*
X67563152Y-98587588D01*
X67563152Y-98587588D02*
X67608390Y-98359017D01*
X67608390Y-98359017D02*
X67608390Y-98187588D01*
X67608390Y-98187588D02*
X67563152Y-97959017D01*
X67563152Y-97959017D02*
X67517914Y-97844731D01*
X67517914Y-97844731D02*
X67427438Y-97730445D01*
X67427438Y-97730445D02*
X67291723Y-97673302D01*
X67291723Y-97673302D02*
X67201247Y-97673302D01*
X67201247Y-97673302D02*
X67065533Y-97730445D01*
X67065533Y-97730445D02*
X67020295Y-97787588D01*
X66115533Y-98873302D02*
X66658390Y-98873302D01*
X66386962Y-98873302D02*
X66386962Y-97673302D01*
X66386962Y-97673302D02*
X66477438Y-97844731D01*
X66477438Y-97844731D02*
X66567914Y-97959017D01*
X66567914Y-97959017D02*
X66658390Y-98016160D01*
X65798866Y-97673302D02*
X65210771Y-97673302D01*
X65210771Y-97673302D02*
X65527438Y-98130445D01*
X65527438Y-98130445D02*
X65391723Y-98130445D01*
X65391723Y-98130445D02*
X65301247Y-98187588D01*
X65301247Y-98187588D02*
X65256009Y-98244731D01*
X65256009Y-98244731D02*
X65210771Y-98359017D01*
X65210771Y-98359017D02*
X65210771Y-98644731D01*
X65210771Y-98644731D02*
X65256009Y-98759017D01*
X65256009Y-98759017D02*
X65301247Y-98816160D01*
X65301247Y-98816160D02*
X65391723Y-98873302D01*
X65391723Y-98873302D02*
X65663152Y-98873302D01*
X65663152Y-98873302D02*
X65753628Y-98816160D01*
X65753628Y-98816160D02*
X65798866Y-98759017D01*
X64351247Y-97673302D02*
X64803628Y-97673302D01*
X64803628Y-97673302D02*
X64848866Y-98244731D01*
X64848866Y-98244731D02*
X64803628Y-98187588D01*
X64803628Y-98187588D02*
X64713152Y-98130445D01*
X64713152Y-98130445D02*
X64486961Y-98130445D01*
X64486961Y-98130445D02*
X64396485Y-98187588D01*
X64396485Y-98187588D02*
X64351247Y-98244731D01*
X64351247Y-98244731D02*
X64306009Y-98359017D01*
X64306009Y-98359017D02*
X64306009Y-98644731D01*
X64306009Y-98644731D02*
X64351247Y-98759017D01*
X64351247Y-98759017D02*
X64396485Y-98816160D01*
X64396485Y-98816160D02*
X64486961Y-98873302D01*
X64486961Y-98873302D02*
X64713152Y-98873302D01*
X64713152Y-98873302D02*
X64803628Y-98816160D01*
X64803628Y-98816160D02*
X64848866Y-98759017D01*
X115229495Y-60680817D02*
X115274733Y-60737960D01*
X115274733Y-60737960D02*
X115410447Y-60795102D01*
X115410447Y-60795102D02*
X115500923Y-60795102D01*
X115500923Y-60795102D02*
X115636638Y-60737960D01*
X115636638Y-60737960D02*
X115727114Y-60623674D01*
X115727114Y-60623674D02*
X115772352Y-60509388D01*
X115772352Y-60509388D02*
X115817590Y-60280817D01*
X115817590Y-60280817D02*
X115817590Y-60109388D01*
X115817590Y-60109388D02*
X115772352Y-59880817D01*
X115772352Y-59880817D02*
X115727114Y-59766531D01*
X115727114Y-59766531D02*
X115636638Y-59652245D01*
X115636638Y-59652245D02*
X115500923Y-59595102D01*
X115500923Y-59595102D02*
X115410447Y-59595102D01*
X115410447Y-59595102D02*
X115274733Y-59652245D01*
X115274733Y-59652245D02*
X115229495Y-59709388D01*
X114324733Y-60795102D02*
X114867590Y-60795102D01*
X114596162Y-60795102D02*
X114596162Y-59595102D01*
X114596162Y-59595102D02*
X114686638Y-59766531D01*
X114686638Y-59766531D02*
X114777114Y-59880817D01*
X114777114Y-59880817D02*
X114867590Y-59937960D01*
X113736638Y-59595102D02*
X113646161Y-59595102D01*
X113646161Y-59595102D02*
X113555685Y-59652245D01*
X113555685Y-59652245D02*
X113510447Y-59709388D01*
X113510447Y-59709388D02*
X113465209Y-59823674D01*
X113465209Y-59823674D02*
X113419971Y-60052245D01*
X113419971Y-60052245D02*
X113419971Y-60337960D01*
X113419971Y-60337960D02*
X113465209Y-60566531D01*
X113465209Y-60566531D02*
X113510447Y-60680817D01*
X113510447Y-60680817D02*
X113555685Y-60737960D01*
X113555685Y-60737960D02*
X113646161Y-60795102D01*
X113646161Y-60795102D02*
X113736638Y-60795102D01*
X113736638Y-60795102D02*
X113827114Y-60737960D01*
X113827114Y-60737960D02*
X113872352Y-60680817D01*
X113872352Y-60680817D02*
X113917590Y-60566531D01*
X113917590Y-60566531D02*
X113962828Y-60337960D01*
X113962828Y-60337960D02*
X113962828Y-60052245D01*
X113962828Y-60052245D02*
X113917590Y-59823674D01*
X113917590Y-59823674D02*
X113872352Y-59709388D01*
X113872352Y-59709388D02*
X113827114Y-59652245D01*
X113827114Y-59652245D02*
X113736638Y-59595102D01*
X112605685Y-59595102D02*
X112786638Y-59595102D01*
X112786638Y-59595102D02*
X112877114Y-59652245D01*
X112877114Y-59652245D02*
X112922352Y-59709388D01*
X112922352Y-59709388D02*
X113012828Y-59880817D01*
X113012828Y-59880817D02*
X113058066Y-60109388D01*
X113058066Y-60109388D02*
X113058066Y-60566531D01*
X113058066Y-60566531D02*
X113012828Y-60680817D01*
X113012828Y-60680817D02*
X112967590Y-60737960D01*
X112967590Y-60737960D02*
X112877114Y-60795102D01*
X112877114Y-60795102D02*
X112696161Y-60795102D01*
X112696161Y-60795102D02*
X112605685Y-60737960D01*
X112605685Y-60737960D02*
X112560447Y-60680817D01*
X112560447Y-60680817D02*
X112515209Y-60566531D01*
X112515209Y-60566531D02*
X112515209Y-60280817D01*
X112515209Y-60280817D02*
X112560447Y-60166531D01*
X112560447Y-60166531D02*
X112605685Y-60109388D01*
X112605685Y-60109388D02*
X112696161Y-60052245D01*
X112696161Y-60052245D02*
X112877114Y-60052245D01*
X112877114Y-60052245D02*
X112967590Y-60109388D01*
X112967590Y-60109388D02*
X113012828Y-60166531D01*
X113012828Y-60166531D02*
X113058066Y-60280817D01*
X133496017Y-56188504D02*
X133553160Y-56143266D01*
X133553160Y-56143266D02*
X133610302Y-56007552D01*
X133610302Y-56007552D02*
X133610302Y-55917076D01*
X133610302Y-55917076D02*
X133553160Y-55781361D01*
X133553160Y-55781361D02*
X133438874Y-55690885D01*
X133438874Y-55690885D02*
X133324588Y-55645647D01*
X133324588Y-55645647D02*
X133096017Y-55600409D01*
X133096017Y-55600409D02*
X132924588Y-55600409D01*
X132924588Y-55600409D02*
X132696017Y-55645647D01*
X132696017Y-55645647D02*
X132581731Y-55690885D01*
X132581731Y-55690885D02*
X132467445Y-55781361D01*
X132467445Y-55781361D02*
X132410302Y-55917076D01*
X132410302Y-55917076D02*
X132410302Y-56007552D01*
X132410302Y-56007552D02*
X132467445Y-56143266D01*
X132467445Y-56143266D02*
X132524588Y-56188504D01*
X133610302Y-57093266D02*
X133610302Y-56550409D01*
X133610302Y-56821837D02*
X132410302Y-56821837D01*
X132410302Y-56821837D02*
X132581731Y-56731361D01*
X132581731Y-56731361D02*
X132696017Y-56640885D01*
X132696017Y-56640885D02*
X132753160Y-56550409D01*
X133610302Y-57998028D02*
X133610302Y-57455171D01*
X133610302Y-57726599D02*
X132410302Y-57726599D01*
X132410302Y-57726599D02*
X132581731Y-57636123D01*
X132581731Y-57636123D02*
X132696017Y-57545647D01*
X132696017Y-57545647D02*
X132753160Y-57455171D01*
X133610302Y-58902790D02*
X133610302Y-58359933D01*
X133610302Y-58631361D02*
X132410302Y-58631361D01*
X132410302Y-58631361D02*
X132581731Y-58540885D01*
X132581731Y-58540885D02*
X132696017Y-58450409D01*
X132696017Y-58450409D02*
X132753160Y-58359933D01*
X129504295Y-71958417D02*
X129549533Y-72015560D01*
X129549533Y-72015560D02*
X129685247Y-72072702D01*
X129685247Y-72072702D02*
X129775723Y-72072702D01*
X129775723Y-72072702D02*
X129911438Y-72015560D01*
X129911438Y-72015560D02*
X130001914Y-71901274D01*
X130001914Y-71901274D02*
X130047152Y-71786988D01*
X130047152Y-71786988D02*
X130092390Y-71558417D01*
X130092390Y-71558417D02*
X130092390Y-71386988D01*
X130092390Y-71386988D02*
X130047152Y-71158417D01*
X130047152Y-71158417D02*
X130001914Y-71044131D01*
X130001914Y-71044131D02*
X129911438Y-70929845D01*
X129911438Y-70929845D02*
X129775723Y-70872702D01*
X129775723Y-70872702D02*
X129685247Y-70872702D01*
X129685247Y-70872702D02*
X129549533Y-70929845D01*
X129549533Y-70929845D02*
X129504295Y-70986988D01*
X128599533Y-72072702D02*
X129142390Y-72072702D01*
X128870962Y-72072702D02*
X128870962Y-70872702D01*
X128870962Y-70872702D02*
X128961438Y-71044131D01*
X128961438Y-71044131D02*
X129051914Y-71158417D01*
X129051914Y-71158417D02*
X129142390Y-71215560D01*
X127694771Y-72072702D02*
X128237628Y-72072702D01*
X127966200Y-72072702D02*
X127966200Y-70872702D01*
X127966200Y-70872702D02*
X128056676Y-71044131D01*
X128056676Y-71044131D02*
X128147152Y-71158417D01*
X128147152Y-71158417D02*
X128237628Y-71215560D01*
X126835247Y-70872702D02*
X127287628Y-70872702D01*
X127287628Y-70872702D02*
X127332866Y-71444131D01*
X127332866Y-71444131D02*
X127287628Y-71386988D01*
X127287628Y-71386988D02*
X127197152Y-71329845D01*
X127197152Y-71329845D02*
X126970961Y-71329845D01*
X126970961Y-71329845D02*
X126880485Y-71386988D01*
X126880485Y-71386988D02*
X126835247Y-71444131D01*
X126835247Y-71444131D02*
X126790009Y-71558417D01*
X126790009Y-71558417D02*
X126790009Y-71844131D01*
X126790009Y-71844131D02*
X126835247Y-71958417D01*
X126835247Y-71958417D02*
X126880485Y-72015560D01*
X126880485Y-72015560D02*
X126970961Y-72072702D01*
X126970961Y-72072702D02*
X127197152Y-72072702D01*
X127197152Y-72072702D02*
X127287628Y-72015560D01*
X127287628Y-72015560D02*
X127332866Y-71958417D01*
X123297902Y-63554504D02*
X123297902Y-63102123D01*
X123297902Y-63102123D02*
X122097902Y-63102123D01*
X123297902Y-64368790D02*
X123297902Y-63825933D01*
X123297902Y-64097361D02*
X122097902Y-64097361D01*
X122097902Y-64097361D02*
X122269331Y-64006885D01*
X122269331Y-64006885D02*
X122383617Y-63916409D01*
X122383617Y-63916409D02*
X122440760Y-63825933D01*
X122097902Y-64956885D02*
X122097902Y-65047362D01*
X122097902Y-65047362D02*
X122155045Y-65137838D01*
X122155045Y-65137838D02*
X122212188Y-65183076D01*
X122212188Y-65183076D02*
X122326474Y-65228314D01*
X122326474Y-65228314D02*
X122555045Y-65273552D01*
X122555045Y-65273552D02*
X122840760Y-65273552D01*
X122840760Y-65273552D02*
X123069331Y-65228314D01*
X123069331Y-65228314D02*
X123183617Y-65183076D01*
X123183617Y-65183076D02*
X123240760Y-65137838D01*
X123240760Y-65137838D02*
X123297902Y-65047362D01*
X123297902Y-65047362D02*
X123297902Y-64956885D01*
X123297902Y-64956885D02*
X123240760Y-64866409D01*
X123240760Y-64866409D02*
X123183617Y-64821171D01*
X123183617Y-64821171D02*
X123069331Y-64775933D01*
X123069331Y-64775933D02*
X122840760Y-64730695D01*
X122840760Y-64730695D02*
X122555045Y-64730695D01*
X122555045Y-64730695D02*
X122326474Y-64775933D01*
X122326474Y-64775933D02*
X122212188Y-64821171D01*
X122212188Y-64821171D02*
X122155045Y-64866409D01*
X122155045Y-64866409D02*
X122097902Y-64956885D01*
X123297902Y-66178314D02*
X123297902Y-65635457D01*
X123297902Y-65906885D02*
X122097902Y-65906885D01*
X122097902Y-65906885D02*
X122269331Y-65816409D01*
X122269331Y-65816409D02*
X122383617Y-65725933D01*
X122383617Y-65725933D02*
X122440760Y-65635457D01*
X67020295Y-92893017D02*
X67065533Y-92950160D01*
X67065533Y-92950160D02*
X67201247Y-93007302D01*
X67201247Y-93007302D02*
X67291723Y-93007302D01*
X67291723Y-93007302D02*
X67427438Y-92950160D01*
X67427438Y-92950160D02*
X67517914Y-92835874D01*
X67517914Y-92835874D02*
X67563152Y-92721588D01*
X67563152Y-92721588D02*
X67608390Y-92493017D01*
X67608390Y-92493017D02*
X67608390Y-92321588D01*
X67608390Y-92321588D02*
X67563152Y-92093017D01*
X67563152Y-92093017D02*
X67517914Y-91978731D01*
X67517914Y-91978731D02*
X67427438Y-91864445D01*
X67427438Y-91864445D02*
X67291723Y-91807302D01*
X67291723Y-91807302D02*
X67201247Y-91807302D01*
X67201247Y-91807302D02*
X67065533Y-91864445D01*
X67065533Y-91864445D02*
X67020295Y-91921588D01*
X66115533Y-93007302D02*
X66658390Y-93007302D01*
X66386962Y-93007302D02*
X66386962Y-91807302D01*
X66386962Y-91807302D02*
X66477438Y-91978731D01*
X66477438Y-91978731D02*
X66567914Y-92093017D01*
X66567914Y-92093017D02*
X66658390Y-92150160D01*
X65798866Y-91807302D02*
X65210771Y-91807302D01*
X65210771Y-91807302D02*
X65527438Y-92264445D01*
X65527438Y-92264445D02*
X65391723Y-92264445D01*
X65391723Y-92264445D02*
X65301247Y-92321588D01*
X65301247Y-92321588D02*
X65256009Y-92378731D01*
X65256009Y-92378731D02*
X65210771Y-92493017D01*
X65210771Y-92493017D02*
X65210771Y-92778731D01*
X65210771Y-92778731D02*
X65256009Y-92893017D01*
X65256009Y-92893017D02*
X65301247Y-92950160D01*
X65301247Y-92950160D02*
X65391723Y-93007302D01*
X65391723Y-93007302D02*
X65663152Y-93007302D01*
X65663152Y-93007302D02*
X65753628Y-92950160D01*
X65753628Y-92950160D02*
X65798866Y-92893017D01*
X64396485Y-91807302D02*
X64577438Y-91807302D01*
X64577438Y-91807302D02*
X64667914Y-91864445D01*
X64667914Y-91864445D02*
X64713152Y-91921588D01*
X64713152Y-91921588D02*
X64803628Y-92093017D01*
X64803628Y-92093017D02*
X64848866Y-92321588D01*
X64848866Y-92321588D02*
X64848866Y-92778731D01*
X64848866Y-92778731D02*
X64803628Y-92893017D01*
X64803628Y-92893017D02*
X64758390Y-92950160D01*
X64758390Y-92950160D02*
X64667914Y-93007302D01*
X64667914Y-93007302D02*
X64486961Y-93007302D01*
X64486961Y-93007302D02*
X64396485Y-92950160D01*
X64396485Y-92950160D02*
X64351247Y-92893017D01*
X64351247Y-92893017D02*
X64306009Y-92778731D01*
X64306009Y-92778731D02*
X64306009Y-92493017D01*
X64306009Y-92493017D02*
X64351247Y-92378731D01*
X64351247Y-92378731D02*
X64396485Y-92321588D01*
X64396485Y-92321588D02*
X64486961Y-92264445D01*
X64486961Y-92264445D02*
X64667914Y-92264445D01*
X64667914Y-92264445D02*
X64758390Y-92321588D01*
X64758390Y-92321588D02*
X64803628Y-92378731D01*
X64803628Y-92378731D02*
X64848866Y-92493017D01*
X84927295Y-64186017D02*
X84972533Y-64243160D01*
X84972533Y-64243160D02*
X85108247Y-64300302D01*
X85108247Y-64300302D02*
X85198723Y-64300302D01*
X85198723Y-64300302D02*
X85334438Y-64243160D01*
X85334438Y-64243160D02*
X85424914Y-64128874D01*
X85424914Y-64128874D02*
X85470152Y-64014588D01*
X85470152Y-64014588D02*
X85515390Y-63786017D01*
X85515390Y-63786017D02*
X85515390Y-63614588D01*
X85515390Y-63614588D02*
X85470152Y-63386017D01*
X85470152Y-63386017D02*
X85424914Y-63271731D01*
X85424914Y-63271731D02*
X85334438Y-63157445D01*
X85334438Y-63157445D02*
X85198723Y-63100302D01*
X85198723Y-63100302D02*
X85108247Y-63100302D01*
X85108247Y-63100302D02*
X84972533Y-63157445D01*
X84972533Y-63157445D02*
X84927295Y-63214588D01*
X84022533Y-64300302D02*
X84565390Y-64300302D01*
X84293962Y-64300302D02*
X84293962Y-63100302D01*
X84293962Y-63100302D02*
X84384438Y-63271731D01*
X84384438Y-63271731D02*
X84474914Y-63386017D01*
X84474914Y-63386017D02*
X84565390Y-63443160D01*
X83660628Y-63214588D02*
X83615390Y-63157445D01*
X83615390Y-63157445D02*
X83524914Y-63100302D01*
X83524914Y-63100302D02*
X83298723Y-63100302D01*
X83298723Y-63100302D02*
X83208247Y-63157445D01*
X83208247Y-63157445D02*
X83163009Y-63214588D01*
X83163009Y-63214588D02*
X83117771Y-63328874D01*
X83117771Y-63328874D02*
X83117771Y-63443160D01*
X83117771Y-63443160D02*
X83163009Y-63614588D01*
X83163009Y-63614588D02*
X83705866Y-64300302D01*
X83705866Y-64300302D02*
X83117771Y-64300302D01*
X82303485Y-63500302D02*
X82303485Y-64300302D01*
X82529676Y-63043160D02*
X82755866Y-63900302D01*
X82755866Y-63900302D02*
X82167771Y-63900302D01*
X92932217Y-60785904D02*
X92989360Y-60740666D01*
X92989360Y-60740666D02*
X93046502Y-60604952D01*
X93046502Y-60604952D02*
X93046502Y-60514476D01*
X93046502Y-60514476D02*
X92989360Y-60378761D01*
X92989360Y-60378761D02*
X92875074Y-60288285D01*
X92875074Y-60288285D02*
X92760788Y-60243047D01*
X92760788Y-60243047D02*
X92532217Y-60197809D01*
X92532217Y-60197809D02*
X92360788Y-60197809D01*
X92360788Y-60197809D02*
X92132217Y-60243047D01*
X92132217Y-60243047D02*
X92017931Y-60288285D01*
X92017931Y-60288285D02*
X91903645Y-60378761D01*
X91903645Y-60378761D02*
X91846502Y-60514476D01*
X91846502Y-60514476D02*
X91846502Y-60604952D01*
X91846502Y-60604952D02*
X91903645Y-60740666D01*
X91903645Y-60740666D02*
X91960788Y-60785904D01*
X93046502Y-61690666D02*
X93046502Y-61147809D01*
X93046502Y-61419237D02*
X91846502Y-61419237D01*
X91846502Y-61419237D02*
X92017931Y-61328761D01*
X92017931Y-61328761D02*
X92132217Y-61238285D01*
X92132217Y-61238285D02*
X92189360Y-61147809D01*
X92246502Y-62504952D02*
X93046502Y-62504952D01*
X91789360Y-62278761D02*
X92646502Y-62052571D01*
X92646502Y-62052571D02*
X92646502Y-62640666D01*
X93046502Y-63500190D02*
X93046502Y-62957333D01*
X93046502Y-63228761D02*
X91846502Y-63228761D01*
X91846502Y-63228761D02*
X92017931Y-63138285D01*
X92017931Y-63138285D02*
X92132217Y-63047809D01*
X92132217Y-63047809D02*
X92189360Y-62957333D01*
X125469617Y-63503704D02*
X125526760Y-63458466D01*
X125526760Y-63458466D02*
X125583902Y-63322752D01*
X125583902Y-63322752D02*
X125583902Y-63232276D01*
X125583902Y-63232276D02*
X125526760Y-63096561D01*
X125526760Y-63096561D02*
X125412474Y-63006085D01*
X125412474Y-63006085D02*
X125298188Y-62960847D01*
X125298188Y-62960847D02*
X125069617Y-62915609D01*
X125069617Y-62915609D02*
X124898188Y-62915609D01*
X124898188Y-62915609D02*
X124669617Y-62960847D01*
X124669617Y-62960847D02*
X124555331Y-63006085D01*
X124555331Y-63006085D02*
X124441045Y-63096561D01*
X124441045Y-63096561D02*
X124383902Y-63232276D01*
X124383902Y-63232276D02*
X124383902Y-63322752D01*
X124383902Y-63322752D02*
X124441045Y-63458466D01*
X124441045Y-63458466D02*
X124498188Y-63503704D01*
X125583902Y-64408466D02*
X125583902Y-63865609D01*
X125583902Y-64137037D02*
X124383902Y-64137037D01*
X124383902Y-64137037D02*
X124555331Y-64046561D01*
X124555331Y-64046561D02*
X124669617Y-63956085D01*
X124669617Y-63956085D02*
X124726760Y-63865609D01*
X124498188Y-64770371D02*
X124441045Y-64815609D01*
X124441045Y-64815609D02*
X124383902Y-64906085D01*
X124383902Y-64906085D02*
X124383902Y-65132276D01*
X124383902Y-65132276D02*
X124441045Y-65222752D01*
X124441045Y-65222752D02*
X124498188Y-65267990D01*
X124498188Y-65267990D02*
X124612474Y-65313228D01*
X124612474Y-65313228D02*
X124726760Y-65313228D01*
X124726760Y-65313228D02*
X124898188Y-65267990D01*
X124898188Y-65267990D02*
X125583902Y-64725133D01*
X125583902Y-64725133D02*
X125583902Y-65313228D01*
X124898188Y-65856085D02*
X124841045Y-65765609D01*
X124841045Y-65765609D02*
X124783902Y-65720371D01*
X124783902Y-65720371D02*
X124669617Y-65675133D01*
X124669617Y-65675133D02*
X124612474Y-65675133D01*
X124612474Y-65675133D02*
X124498188Y-65720371D01*
X124498188Y-65720371D02*
X124441045Y-65765609D01*
X124441045Y-65765609D02*
X124383902Y-65856085D01*
X124383902Y-65856085D02*
X124383902Y-66037038D01*
X124383902Y-66037038D02*
X124441045Y-66127514D01*
X124441045Y-66127514D02*
X124498188Y-66172752D01*
X124498188Y-66172752D02*
X124612474Y-66217990D01*
X124612474Y-66217990D02*
X124669617Y-66217990D01*
X124669617Y-66217990D02*
X124783902Y-66172752D01*
X124783902Y-66172752D02*
X124841045Y-66127514D01*
X124841045Y-66127514D02*
X124898188Y-66037038D01*
X124898188Y-66037038D02*
X124898188Y-65856085D01*
X124898188Y-65856085D02*
X124955331Y-65765609D01*
X124955331Y-65765609D02*
X125012474Y-65720371D01*
X125012474Y-65720371D02*
X125126760Y-65675133D01*
X125126760Y-65675133D02*
X125355331Y-65675133D01*
X125355331Y-65675133D02*
X125469617Y-65720371D01*
X125469617Y-65720371D02*
X125526760Y-65765609D01*
X125526760Y-65765609D02*
X125583902Y-65856085D01*
X125583902Y-65856085D02*
X125583902Y-66037038D01*
X125583902Y-66037038D02*
X125526760Y-66127514D01*
X125526760Y-66127514D02*
X125469617Y-66172752D01*
X125469617Y-66172752D02*
X125355331Y-66217990D01*
X125355331Y-66217990D02*
X125126760Y-66217990D01*
X125126760Y-66217990D02*
X125012474Y-66172752D01*
X125012474Y-66172752D02*
X124955331Y-66127514D01*
X124955331Y-66127514D02*
X124898188Y-66037038D01*
X133445217Y-60150904D02*
X133502360Y-60105666D01*
X133502360Y-60105666D02*
X133559502Y-59969952D01*
X133559502Y-59969952D02*
X133559502Y-59879476D01*
X133559502Y-59879476D02*
X133502360Y-59743761D01*
X133502360Y-59743761D02*
X133388074Y-59653285D01*
X133388074Y-59653285D02*
X133273788Y-59608047D01*
X133273788Y-59608047D02*
X133045217Y-59562809D01*
X133045217Y-59562809D02*
X132873788Y-59562809D01*
X132873788Y-59562809D02*
X132645217Y-59608047D01*
X132645217Y-59608047D02*
X132530931Y-59653285D01*
X132530931Y-59653285D02*
X132416645Y-59743761D01*
X132416645Y-59743761D02*
X132359502Y-59879476D01*
X132359502Y-59879476D02*
X132359502Y-59969952D01*
X132359502Y-59969952D02*
X132416645Y-60105666D01*
X132416645Y-60105666D02*
X132473788Y-60150904D01*
X133559502Y-61055666D02*
X133559502Y-60512809D01*
X133559502Y-60784237D02*
X132359502Y-60784237D01*
X132359502Y-60784237D02*
X132530931Y-60693761D01*
X132530931Y-60693761D02*
X132645217Y-60603285D01*
X132645217Y-60603285D02*
X132702360Y-60512809D01*
X133559502Y-61960428D02*
X133559502Y-61417571D01*
X133559502Y-61688999D02*
X132359502Y-61688999D01*
X132359502Y-61688999D02*
X132530931Y-61598523D01*
X132530931Y-61598523D02*
X132645217Y-61508047D01*
X132645217Y-61508047D02*
X132702360Y-61417571D01*
X132473788Y-62322333D02*
X132416645Y-62367571D01*
X132416645Y-62367571D02*
X132359502Y-62458047D01*
X132359502Y-62458047D02*
X132359502Y-62684238D01*
X132359502Y-62684238D02*
X132416645Y-62774714D01*
X132416645Y-62774714D02*
X132473788Y-62819952D01*
X132473788Y-62819952D02*
X132588074Y-62865190D01*
X132588074Y-62865190D02*
X132702360Y-62865190D01*
X132702360Y-62865190D02*
X132873788Y-62819952D01*
X132873788Y-62819952D02*
X133559502Y-62277095D01*
X133559502Y-62277095D02*
X133559502Y-62865190D01*
X115331095Y-73838017D02*
X115376333Y-73895160D01*
X115376333Y-73895160D02*
X115512047Y-73952302D01*
X115512047Y-73952302D02*
X115602523Y-73952302D01*
X115602523Y-73952302D02*
X115738238Y-73895160D01*
X115738238Y-73895160D02*
X115828714Y-73780874D01*
X115828714Y-73780874D02*
X115873952Y-73666588D01*
X115873952Y-73666588D02*
X115919190Y-73438017D01*
X115919190Y-73438017D02*
X115919190Y-73266588D01*
X115919190Y-73266588D02*
X115873952Y-73038017D01*
X115873952Y-73038017D02*
X115828714Y-72923731D01*
X115828714Y-72923731D02*
X115738238Y-72809445D01*
X115738238Y-72809445D02*
X115602523Y-72752302D01*
X115602523Y-72752302D02*
X115512047Y-72752302D01*
X115512047Y-72752302D02*
X115376333Y-72809445D01*
X115376333Y-72809445D02*
X115331095Y-72866588D01*
X114426333Y-73952302D02*
X114969190Y-73952302D01*
X114697762Y-73952302D02*
X114697762Y-72752302D01*
X114697762Y-72752302D02*
X114788238Y-72923731D01*
X114788238Y-72923731D02*
X114878714Y-73038017D01*
X114878714Y-73038017D02*
X114969190Y-73095160D01*
X113838238Y-72752302D02*
X113747761Y-72752302D01*
X113747761Y-72752302D02*
X113657285Y-72809445D01*
X113657285Y-72809445D02*
X113612047Y-72866588D01*
X113612047Y-72866588D02*
X113566809Y-72980874D01*
X113566809Y-72980874D02*
X113521571Y-73209445D01*
X113521571Y-73209445D02*
X113521571Y-73495160D01*
X113521571Y-73495160D02*
X113566809Y-73723731D01*
X113566809Y-73723731D02*
X113612047Y-73838017D01*
X113612047Y-73838017D02*
X113657285Y-73895160D01*
X113657285Y-73895160D02*
X113747761Y-73952302D01*
X113747761Y-73952302D02*
X113838238Y-73952302D01*
X113838238Y-73952302D02*
X113928714Y-73895160D01*
X113928714Y-73895160D02*
X113973952Y-73838017D01*
X113973952Y-73838017D02*
X114019190Y-73723731D01*
X114019190Y-73723731D02*
X114064428Y-73495160D01*
X114064428Y-73495160D02*
X114064428Y-73209445D01*
X114064428Y-73209445D02*
X114019190Y-72980874D01*
X114019190Y-72980874D02*
X113973952Y-72866588D01*
X113973952Y-72866588D02*
X113928714Y-72809445D01*
X113928714Y-72809445D02*
X113838238Y-72752302D01*
X112616809Y-73952302D02*
X113159666Y-73952302D01*
X112888238Y-73952302D02*
X112888238Y-72752302D01*
X112888238Y-72752302D02*
X112978714Y-72923731D01*
X112978714Y-72923731D02*
X113069190Y-73038017D01*
X113069190Y-73038017D02*
X113159666Y-73095160D01*
X121456417Y-71479304D02*
X121513560Y-71434066D01*
X121513560Y-71434066D02*
X121570702Y-71298352D01*
X121570702Y-71298352D02*
X121570702Y-71207876D01*
X121570702Y-71207876D02*
X121513560Y-71072161D01*
X121513560Y-71072161D02*
X121399274Y-70981685D01*
X121399274Y-70981685D02*
X121284988Y-70936447D01*
X121284988Y-70936447D02*
X121056417Y-70891209D01*
X121056417Y-70891209D02*
X120884988Y-70891209D01*
X120884988Y-70891209D02*
X120656417Y-70936447D01*
X120656417Y-70936447D02*
X120542131Y-70981685D01*
X120542131Y-70981685D02*
X120427845Y-71072161D01*
X120427845Y-71072161D02*
X120370702Y-71207876D01*
X120370702Y-71207876D02*
X120370702Y-71298352D01*
X120370702Y-71298352D02*
X120427845Y-71434066D01*
X120427845Y-71434066D02*
X120484988Y-71479304D01*
X121570702Y-72384066D02*
X121570702Y-71841209D01*
X121570702Y-72112637D02*
X120370702Y-72112637D01*
X120370702Y-72112637D02*
X120542131Y-72022161D01*
X120542131Y-72022161D02*
X120656417Y-71931685D01*
X120656417Y-71931685D02*
X120713560Y-71841209D01*
X121570702Y-73288828D02*
X121570702Y-72745971D01*
X121570702Y-73017399D02*
X120370702Y-73017399D01*
X120370702Y-73017399D02*
X120542131Y-72926923D01*
X120542131Y-72926923D02*
X120656417Y-72836447D01*
X120656417Y-72836447D02*
X120713560Y-72745971D01*
X120370702Y-74103114D02*
X120370702Y-73922161D01*
X120370702Y-73922161D02*
X120427845Y-73831685D01*
X120427845Y-73831685D02*
X120484988Y-73786447D01*
X120484988Y-73786447D02*
X120656417Y-73695971D01*
X120656417Y-73695971D02*
X120884988Y-73650733D01*
X120884988Y-73650733D02*
X121342131Y-73650733D01*
X121342131Y-73650733D02*
X121456417Y-73695971D01*
X121456417Y-73695971D02*
X121513560Y-73741209D01*
X121513560Y-73741209D02*
X121570702Y-73831685D01*
X121570702Y-73831685D02*
X121570702Y-74012638D01*
X121570702Y-74012638D02*
X121513560Y-74103114D01*
X121513560Y-74103114D02*
X121456417Y-74148352D01*
X121456417Y-74148352D02*
X121342131Y-74193590D01*
X121342131Y-74193590D02*
X121056417Y-74193590D01*
X121056417Y-74193590D02*
X120942131Y-74148352D01*
X120942131Y-74148352D02*
X120884988Y-74103114D01*
X120884988Y-74103114D02*
X120827845Y-74012638D01*
X120827845Y-74012638D02*
X120827845Y-73831685D01*
X120827845Y-73831685D02*
X120884988Y-73741209D01*
X120884988Y-73741209D02*
X120942131Y-73695971D01*
X120942131Y-73695971D02*
X121056417Y-73650733D01*
X84927295Y-61519017D02*
X84972533Y-61576160D01*
X84972533Y-61576160D02*
X85108247Y-61633302D01*
X85108247Y-61633302D02*
X85198723Y-61633302D01*
X85198723Y-61633302D02*
X85334438Y-61576160D01*
X85334438Y-61576160D02*
X85424914Y-61461874D01*
X85424914Y-61461874D02*
X85470152Y-61347588D01*
X85470152Y-61347588D02*
X85515390Y-61119017D01*
X85515390Y-61119017D02*
X85515390Y-60947588D01*
X85515390Y-60947588D02*
X85470152Y-60719017D01*
X85470152Y-60719017D02*
X85424914Y-60604731D01*
X85424914Y-60604731D02*
X85334438Y-60490445D01*
X85334438Y-60490445D02*
X85198723Y-60433302D01*
X85198723Y-60433302D02*
X85108247Y-60433302D01*
X85108247Y-60433302D02*
X84972533Y-60490445D01*
X84972533Y-60490445D02*
X84927295Y-60547588D01*
X84022533Y-61633302D02*
X84565390Y-61633302D01*
X84293962Y-61633302D02*
X84293962Y-60433302D01*
X84293962Y-60433302D02*
X84384438Y-60604731D01*
X84384438Y-60604731D02*
X84474914Y-60719017D01*
X84474914Y-60719017D02*
X84565390Y-60776160D01*
X83660628Y-60547588D02*
X83615390Y-60490445D01*
X83615390Y-60490445D02*
X83524914Y-60433302D01*
X83524914Y-60433302D02*
X83298723Y-60433302D01*
X83298723Y-60433302D02*
X83208247Y-60490445D01*
X83208247Y-60490445D02*
X83163009Y-60547588D01*
X83163009Y-60547588D02*
X83117771Y-60661874D01*
X83117771Y-60661874D02*
X83117771Y-60776160D01*
X83117771Y-60776160D02*
X83163009Y-60947588D01*
X83163009Y-60947588D02*
X83705866Y-61633302D01*
X83705866Y-61633302D02*
X83117771Y-61633302D01*
X82801104Y-60433302D02*
X82213009Y-60433302D01*
X82213009Y-60433302D02*
X82529676Y-60890445D01*
X82529676Y-60890445D02*
X82393961Y-60890445D01*
X82393961Y-60890445D02*
X82303485Y-60947588D01*
X82303485Y-60947588D02*
X82258247Y-61004731D01*
X82258247Y-61004731D02*
X82213009Y-61119017D01*
X82213009Y-61119017D02*
X82213009Y-61404731D01*
X82213009Y-61404731D02*
X82258247Y-61519017D01*
X82258247Y-61519017D02*
X82303485Y-61576160D01*
X82303485Y-61576160D02*
X82393961Y-61633302D01*
X82393961Y-61633302D02*
X82665390Y-61633302D01*
X82665390Y-61633302D02*
X82755866Y-61576160D01*
X82755866Y-61576160D02*
X82801104Y-61519017D01*
D11*
X117830448Y-61495000D02*
X118352952Y-61495000D01*
X117830448Y-62965000D02*
X118352952Y-62965000D01*
X79644448Y-65051000D02*
X80166952Y-65051000D01*
X79644448Y-66521000D02*
X80166952Y-66521000D01*
X82494200Y-68100752D02*
X82494200Y-67578248D01*
X83964200Y-68100752D02*
X83964200Y-67578248D01*
X89733200Y-61587748D02*
X89733200Y-62110252D01*
X91203200Y-61587748D02*
X91203200Y-62110252D01*
X134099200Y-64868248D02*
X134099200Y-65390752D01*
X135569200Y-64868248D02*
X135569200Y-65390752D01*
X117957448Y-68607000D02*
X118479952Y-68607000D01*
X117957448Y-70077000D02*
X118479952Y-70077000D01*
X75093948Y-98198000D02*
X75616452Y-98198000D01*
X75093948Y-99668000D02*
X75616452Y-99668000D01*
X89733200Y-66519248D02*
X89733200Y-67041752D01*
X91203200Y-66519248D02*
X91203200Y-67041752D01*
X117957448Y-70639000D02*
X118479952Y-70639000D01*
X117957448Y-72109000D02*
X118479952Y-72109000D01*
X87320200Y-72121752D02*
X87320200Y-71599248D01*
X88790200Y-72121752D02*
X88790200Y-71599248D01*
X134184952Y-72671000D02*
X133662448Y-72671000D01*
X134184952Y-74141000D02*
X133662448Y-74141000D01*
X117957448Y-66448000D02*
X118479952Y-66448000D01*
X117957448Y-67918000D02*
X118479952Y-67918000D01*
X79771448Y-72671000D02*
X80293952Y-72671000D01*
X79771448Y-74141000D02*
X80293952Y-74141000D01*
X85288200Y-72143252D02*
X85288200Y-71620748D01*
X86758200Y-72143252D02*
X86758200Y-71620748D01*
X79771448Y-70639000D02*
X80293952Y-70639000D01*
X79771448Y-72109000D02*
X80293952Y-72109000D01*
X117787448Y-55526000D02*
X118309952Y-55526000D01*
X117787448Y-56996000D02*
X118309952Y-56996000D01*
X66218452Y-95912000D02*
X65695948Y-95912000D01*
X66218452Y-97382000D02*
X65695948Y-97382000D01*
X117830448Y-59463000D02*
X118352952Y-59463000D01*
X117830448Y-60933000D02*
X118352952Y-60933000D01*
X134099200Y-56994248D02*
X134099200Y-57516752D01*
X135569200Y-56994248D02*
X135569200Y-57516752D01*
X128723952Y-72671000D02*
X128201448Y-72671000D01*
X128723952Y-74141000D02*
X128201448Y-74141000D01*
X122059200Y-68587252D02*
X122059200Y-68064748D01*
X123479200Y-68587252D02*
X123479200Y-68064748D01*
X66218452Y-93245000D02*
X65695948Y-93245000D01*
X66218452Y-94715000D02*
X65695948Y-94715000D01*
X79644448Y-63019000D02*
X80166952Y-63019000D01*
X79644448Y-64489000D02*
X80166952Y-64489000D01*
X87447200Y-61587748D02*
X87447200Y-62110252D01*
X88917200Y-61587748D02*
X88917200Y-62110252D01*
X124145200Y-68249748D02*
X124145200Y-69672252D01*
X125965200Y-68249748D02*
X125965200Y-69672252D01*
X134099200Y-60974248D02*
X134099200Y-61496752D01*
X135569200Y-60974248D02*
X135569200Y-61496752D01*
X117957448Y-72671000D02*
X118479952Y-72671000D01*
X117957448Y-74141000D02*
X118479952Y-74141000D01*
X122034200Y-72756752D02*
X122034200Y-72234248D01*
X123504200Y-72756752D02*
X123504200Y-72234248D01*
X79644448Y-60352000D02*
X80166952Y-60352000D01*
X79644448Y-61822000D02*
X80166952Y-61822000D01*
%LPC*%
D12*
X68469200Y-107757000D03*
X74249200Y-107757000D03*
D13*
X67039200Y-107257000D03*
D14*
X67039200Y-111437000D03*
D13*
X75679200Y-107257000D03*
D14*
X75679200Y-111437000D03*
D15*
X103359200Y-104762000D03*
D16*
X106659200Y-108062000D03*
X106659200Y-101462000D03*
X100059200Y-108062000D03*
X100059200Y-101462000D03*
D17*
X145205200Y-61214000D03*
D18*
X147745200Y-61214000D03*
X145205200Y-63754000D03*
X147745200Y-63754000D03*
X145205200Y-66294000D03*
X147745200Y-66294000D03*
X145205200Y-68834000D03*
X147745200Y-68834000D03*
X145205200Y-71374000D03*
X147745200Y-71374000D03*
D19*
X147359200Y-44762000D03*
D20*
X60877200Y-64516000D03*
D21*
X60877200Y-58166000D03*
D19*
X59359200Y-44762000D03*
D22*
X108756200Y-46863000D03*
D18*
X108756200Y-44323000D03*
X111296200Y-46863000D03*
X111296200Y-44323000D03*
X113836200Y-46863000D03*
X113836200Y-44323000D03*
X116376200Y-46863000D03*
X116376200Y-44323000D03*
X118916200Y-46863000D03*
X118916200Y-44323000D03*
D17*
X58718200Y-73406000D03*
D18*
X61258200Y-73406000D03*
X58718200Y-75946000D03*
X61258200Y-75946000D03*
X58718200Y-78486000D03*
X61258200Y-78486000D03*
X58718200Y-81026000D03*
X61258200Y-81026000D03*
X58718200Y-83566000D03*
X61258200Y-83566000D03*
X58718200Y-86106000D03*
X61258200Y-86106000D03*
X58718200Y-88646000D03*
X61258200Y-88646000D03*
X58718200Y-91186000D03*
X61258200Y-91186000D03*
X58718200Y-93726000D03*
X61258200Y-93726000D03*
X58718200Y-96266000D03*
X61258200Y-96266000D03*
D19*
X147359200Y-106762000D03*
X59359200Y-106762000D03*
D15*
X119359200Y-104762000D03*
D16*
X122659200Y-108062000D03*
X122659200Y-101462000D03*
X116059200Y-108062000D03*
X116059200Y-101462000D03*
D22*
X71164200Y-46863000D03*
D18*
X71164200Y-44323000D03*
X73704200Y-46863000D03*
X73704200Y-44323000D03*
X76244200Y-46863000D03*
X76244200Y-44323000D03*
X78784200Y-46863000D03*
X78784200Y-44323000D03*
X81324200Y-46863000D03*
X81324200Y-44323000D03*
D15*
X135359200Y-104762000D03*
D16*
X138659200Y-108062000D03*
X138659200Y-101462000D03*
X132059200Y-108062000D03*
X132059200Y-101462000D03*
D15*
X87359200Y-104762000D03*
D16*
X90659200Y-108062000D03*
X90659200Y-101462000D03*
X84059200Y-108062000D03*
X84059200Y-101462000D03*
D23*
X117054200Y-62230000D03*
X119129200Y-62230000D03*
X78868200Y-65786000D03*
X80943200Y-65786000D03*
D24*
X83229200Y-68877000D03*
X83229200Y-66802000D03*
D25*
X90468200Y-60811500D03*
X90468200Y-62886500D03*
X134834200Y-64092000D03*
X134834200Y-66167000D03*
D23*
X117181200Y-69342000D03*
X119256200Y-69342000D03*
X74317700Y-98933000D03*
X76392700Y-98933000D03*
D25*
X90468200Y-65743000D03*
X90468200Y-67818000D03*
D23*
X117181200Y-71374000D03*
X119256200Y-71374000D03*
D24*
X88055200Y-72898000D03*
X88055200Y-70823000D03*
D26*
X134961200Y-73406000D03*
X132886200Y-73406000D03*
D23*
X117181200Y-67183000D03*
X119256200Y-67183000D03*
X78995200Y-73406000D03*
X81070200Y-73406000D03*
D24*
X86023200Y-72919500D03*
X86023200Y-70844500D03*
D23*
X78995200Y-71374000D03*
X81070200Y-71374000D03*
X117011200Y-56261000D03*
X119086200Y-56261000D03*
D26*
X66994700Y-96647000D03*
X64919700Y-96647000D03*
D23*
X117054200Y-60198000D03*
X119129200Y-60198000D03*
D25*
X134834200Y-56218000D03*
X134834200Y-58293000D03*
D26*
X129500200Y-73406000D03*
X127425200Y-73406000D03*
D27*
X122769200Y-69351000D03*
X122769200Y-67301000D03*
D26*
X66994700Y-93980000D03*
X64919700Y-93980000D03*
D23*
X78868200Y-63754000D03*
X80943200Y-63754000D03*
D25*
X88182200Y-60811500D03*
X88182200Y-62886500D03*
D28*
X125055200Y-67398500D03*
X125055200Y-70523500D03*
D25*
X134834200Y-60198000D03*
X134834200Y-62273000D03*
D23*
X117181200Y-73406000D03*
X119256200Y-73406000D03*
D24*
X122769200Y-73533000D03*
X122769200Y-71458000D03*
D23*
X78868200Y-61087000D03*
X80943200Y-61087000D03*
%LPD*%
M02*
