G04 #@! TF.GenerationSoftware,KiCad,Pcbnew,9.0.5*
G04 #@! TF.CreationDate,2025-10-23T19:13:02+02:00*
G04 #@! TF.ProjectId,main-board,6d61696e-2d62-46f6-9172-642e6b696361,1.0a*
G04 #@! TF.SameCoordinates,Original*
G04 #@! TF.FileFunction,Legend,Bot*
G04 #@! TF.FilePolarity,Positive*
%FSLAX46Y46*%
G04 Gerber Fmt 4.6, Leading zero omitted, Abs format (unit mm)*
G04 Created by KiCad (PCBNEW 9.0.5) date 2025-10-23 19:13:02*
%MOMM*%
%LPD*%
G01*
G04 APERTURE LIST*
G04 Aperture macros list*
%AMRoundRect*
0 Rectangle with rounded corners*
0 $1 Rounding radius*
0 $2 $3 $4 $5 $6 $7 $8 $9 X,Y pos of 4 corners*
0 Add a 4 corners polygon primitive as box body*
4,1,4,$2,$3,$4,$5,$6,$7,$8,$9,$2,$3,0*
0 Add four circle primitives for the rounded corners*
1,1,$1+$1,$2,$3*
1,1,$1+$1,$4,$5*
1,1,$1+$1,$6,$7*
1,1,$1+$1,$8,$9*
0 Add four rect primitives between the rounded corners*
20,1,$1+$1,$2,$3,$4,$5,0*
20,1,$1+$1,$4,$5,$6,$7,0*
20,1,$1+$1,$6,$7,$8,$9,0*
20,1,$1+$1,$8,$9,$2,$3,0*%
G04 Aperture macros list end*
%ADD10C,0.170000*%
%ADD11C,0.100000*%
%ADD12C,0.650000*%
%ADD13O,1.000000X2.100000*%
%ADD14O,1.000000X1.800000*%
%ADD15C,6.400000*%
%ADD16RoundRect,0.250000X-0.600000X-0.600000X0.600000X-0.600000X0.600000X0.600000X-0.600000X0.600000X0*%
%ADD17C,1.700000*%
%ADD18RoundRect,0.250000X0.600000X-0.600000X0.600000X0.600000X-0.600000X0.600000X-0.600000X-0.600000X0*%
%ADD19RoundRect,0.250000X-0.337500X-0.475000X0.337500X-0.475000X0.337500X0.475000X-0.337500X0.475000X0*%
%ADD20RoundRect,0.250000X0.475000X-0.337500X0.475000X0.337500X-0.475000X0.337500X-0.475000X-0.337500X0*%
%ADD21RoundRect,0.250000X0.337500X0.475000X-0.337500X0.475000X-0.337500X-0.475000X0.337500X-0.475000X0*%
%ADD22RoundRect,0.250000X-0.475000X0.337500X-0.475000X-0.337500X0.475000X-0.337500X0.475000X0.337500X0*%
%ADD23C,2.300000*%
%ADD24C,3.600000*%
%ADD25C,1.200000*%
%ADD26C,1.100000*%
%ADD27RoundRect,0.250000X0.450000X-0.325000X0.450000X0.325000X-0.450000X0.325000X-0.450000X-0.325000X0*%
%ADD28RoundRect,0.250000X-0.650000X0.412500X-0.650000X-0.412500X0.650000X-0.412500X0.650000X0.412500X0*%
G04 APERTURE END LIST*
D10*
X48154095Y-63768217D02*
X48199333Y-63825360D01*
X48199333Y-63825360D02*
X48335047Y-63882502D01*
X48335047Y-63882502D02*
X48425523Y-63882502D01*
X48425523Y-63882502D02*
X48561238Y-63825360D01*
X48561238Y-63825360D02*
X48651714Y-63711074D01*
X48651714Y-63711074D02*
X48696952Y-63596788D01*
X48696952Y-63596788D02*
X48742190Y-63368217D01*
X48742190Y-63368217D02*
X48742190Y-63196788D01*
X48742190Y-63196788D02*
X48696952Y-62968217D01*
X48696952Y-62968217D02*
X48651714Y-62853931D01*
X48651714Y-62853931D02*
X48561238Y-62739645D01*
X48561238Y-62739645D02*
X48425523Y-62682502D01*
X48425523Y-62682502D02*
X48335047Y-62682502D01*
X48335047Y-62682502D02*
X48199333Y-62739645D01*
X48199333Y-62739645D02*
X48154095Y-62796788D01*
X47249333Y-63882502D02*
X47792190Y-63882502D01*
X47520762Y-63882502D02*
X47520762Y-62682502D01*
X47520762Y-62682502D02*
X47611238Y-62853931D01*
X47611238Y-62853931D02*
X47701714Y-62968217D01*
X47701714Y-62968217D02*
X47792190Y-63025360D01*
X46344571Y-63882502D02*
X46887428Y-63882502D01*
X46616000Y-63882502D02*
X46616000Y-62682502D01*
X46616000Y-62682502D02*
X46706476Y-62853931D01*
X46706476Y-62853931D02*
X46796952Y-62968217D01*
X46796952Y-62968217D02*
X46887428Y-63025360D01*
X45801714Y-63196788D02*
X45892190Y-63139645D01*
X45892190Y-63139645D02*
X45937428Y-63082502D01*
X45937428Y-63082502D02*
X45982666Y-62968217D01*
X45982666Y-62968217D02*
X45982666Y-62911074D01*
X45982666Y-62911074D02*
X45937428Y-62796788D01*
X45937428Y-62796788D02*
X45892190Y-62739645D01*
X45892190Y-62739645D02*
X45801714Y-62682502D01*
X45801714Y-62682502D02*
X45620761Y-62682502D01*
X45620761Y-62682502D02*
X45530285Y-62739645D01*
X45530285Y-62739645D02*
X45485047Y-62796788D01*
X45485047Y-62796788D02*
X45439809Y-62911074D01*
X45439809Y-62911074D02*
X45439809Y-62968217D01*
X45439809Y-62968217D02*
X45485047Y-63082502D01*
X45485047Y-63082502D02*
X45530285Y-63139645D01*
X45530285Y-63139645D02*
X45620761Y-63196788D01*
X45620761Y-63196788D02*
X45801714Y-63196788D01*
X45801714Y-63196788D02*
X45892190Y-63253931D01*
X45892190Y-63253931D02*
X45937428Y-63311074D01*
X45937428Y-63311074D02*
X45982666Y-63425360D01*
X45982666Y-63425360D02*
X45982666Y-63653931D01*
X45982666Y-63653931D02*
X45937428Y-63768217D01*
X45937428Y-63768217D02*
X45892190Y-63825360D01*
X45892190Y-63825360D02*
X45801714Y-63882502D01*
X45801714Y-63882502D02*
X45620761Y-63882502D01*
X45620761Y-63882502D02*
X45530285Y-63825360D01*
X45530285Y-63825360D02*
X45485047Y-63768217D01*
X45485047Y-63768217D02*
X45439809Y-63653931D01*
X45439809Y-63653931D02*
X45439809Y-63425360D01*
X45439809Y-63425360D02*
X45485047Y-63311074D01*
X45485047Y-63311074D02*
X45530285Y-63253931D01*
X45530285Y-63253931D02*
X45620761Y-63196788D01*
X82367895Y-53684417D02*
X82413133Y-53741560D01*
X82413133Y-53741560D02*
X82548847Y-53798702D01*
X82548847Y-53798702D02*
X82639323Y-53798702D01*
X82639323Y-53798702D02*
X82775038Y-53741560D01*
X82775038Y-53741560D02*
X82865514Y-53627274D01*
X82865514Y-53627274D02*
X82910752Y-53512988D01*
X82910752Y-53512988D02*
X82955990Y-53284417D01*
X82955990Y-53284417D02*
X82955990Y-53112988D01*
X82955990Y-53112988D02*
X82910752Y-52884417D01*
X82910752Y-52884417D02*
X82865514Y-52770131D01*
X82865514Y-52770131D02*
X82775038Y-52655845D01*
X82775038Y-52655845D02*
X82639323Y-52598702D01*
X82639323Y-52598702D02*
X82548847Y-52598702D01*
X82548847Y-52598702D02*
X82413133Y-52655845D01*
X82413133Y-52655845D02*
X82367895Y-52712988D01*
X81463133Y-53798702D02*
X82005990Y-53798702D01*
X81734562Y-53798702D02*
X81734562Y-52598702D01*
X81734562Y-52598702D02*
X81825038Y-52770131D01*
X81825038Y-52770131D02*
X81915514Y-52884417D01*
X81915514Y-52884417D02*
X82005990Y-52941560D01*
X80875038Y-52598702D02*
X80784561Y-52598702D01*
X80784561Y-52598702D02*
X80694085Y-52655845D01*
X80694085Y-52655845D02*
X80648847Y-52712988D01*
X80648847Y-52712988D02*
X80603609Y-52827274D01*
X80603609Y-52827274D02*
X80558371Y-53055845D01*
X80558371Y-53055845D02*
X80558371Y-53341560D01*
X80558371Y-53341560D02*
X80603609Y-53570131D01*
X80603609Y-53570131D02*
X80648847Y-53684417D01*
X80648847Y-53684417D02*
X80694085Y-53741560D01*
X80694085Y-53741560D02*
X80784561Y-53798702D01*
X80784561Y-53798702D02*
X80875038Y-53798702D01*
X80875038Y-53798702D02*
X80965514Y-53741560D01*
X80965514Y-53741560D02*
X81010752Y-53684417D01*
X81010752Y-53684417D02*
X81055990Y-53570131D01*
X81055990Y-53570131D02*
X81101228Y-53341560D01*
X81101228Y-53341560D02*
X81101228Y-53055845D01*
X81101228Y-53055845D02*
X81055990Y-52827274D01*
X81055990Y-52827274D02*
X81010752Y-52712988D01*
X81010752Y-52712988D02*
X80965514Y-52655845D01*
X80965514Y-52655845D02*
X80875038Y-52598702D01*
X79744085Y-52998702D02*
X79744085Y-53798702D01*
X79970276Y-52541560D02*
X80196466Y-53398702D01*
X80196466Y-53398702D02*
X79608371Y-53398702D01*
X88493217Y-57472504D02*
X88550360Y-57427266D01*
X88550360Y-57427266D02*
X88607502Y-57291552D01*
X88607502Y-57291552D02*
X88607502Y-57201076D01*
X88607502Y-57201076D02*
X88550360Y-57065361D01*
X88550360Y-57065361D02*
X88436074Y-56974885D01*
X88436074Y-56974885D02*
X88321788Y-56929647D01*
X88321788Y-56929647D02*
X88093217Y-56884409D01*
X88093217Y-56884409D02*
X87921788Y-56884409D01*
X87921788Y-56884409D02*
X87693217Y-56929647D01*
X87693217Y-56929647D02*
X87578931Y-56974885D01*
X87578931Y-56974885D02*
X87464645Y-57065361D01*
X87464645Y-57065361D02*
X87407502Y-57201076D01*
X87407502Y-57201076D02*
X87407502Y-57291552D01*
X87407502Y-57291552D02*
X87464645Y-57427266D01*
X87464645Y-57427266D02*
X87521788Y-57472504D01*
X88607502Y-58377266D02*
X88607502Y-57834409D01*
X88607502Y-58105837D02*
X87407502Y-58105837D01*
X87407502Y-58105837D02*
X87578931Y-58015361D01*
X87578931Y-58015361D02*
X87693217Y-57924885D01*
X87693217Y-57924885D02*
X87750360Y-57834409D01*
X88607502Y-59282028D02*
X88607502Y-58739171D01*
X88607502Y-59010599D02*
X87407502Y-59010599D01*
X87407502Y-59010599D02*
X87578931Y-58920123D01*
X87578931Y-58920123D02*
X87693217Y-58829647D01*
X87693217Y-58829647D02*
X87750360Y-58739171D01*
X87407502Y-60096314D02*
X87407502Y-59915361D01*
X87407502Y-59915361D02*
X87464645Y-59824885D01*
X87464645Y-59824885D02*
X87521788Y-59779647D01*
X87521788Y-59779647D02*
X87693217Y-59689171D01*
X87693217Y-59689171D02*
X87921788Y-59643933D01*
X87921788Y-59643933D02*
X88378931Y-59643933D01*
X88378931Y-59643933D02*
X88493217Y-59689171D01*
X88493217Y-59689171D02*
X88550360Y-59734409D01*
X88550360Y-59734409D02*
X88607502Y-59824885D01*
X88607502Y-59824885D02*
X88607502Y-60005838D01*
X88607502Y-60005838D02*
X88550360Y-60096314D01*
X88550360Y-60096314D02*
X88493217Y-60141552D01*
X88493217Y-60141552D02*
X88378931Y-60186790D01*
X88378931Y-60186790D02*
X88093217Y-60186790D01*
X88093217Y-60186790D02*
X87978931Y-60141552D01*
X87978931Y-60141552D02*
X87921788Y-60096314D01*
X87921788Y-60096314D02*
X87864645Y-60005838D01*
X87864645Y-60005838D02*
X87864645Y-59824885D01*
X87864645Y-59824885D02*
X87921788Y-59734409D01*
X87921788Y-59734409D02*
X87978931Y-59689171D01*
X87978931Y-59689171D02*
X88093217Y-59643933D01*
X82367895Y-59831217D02*
X82413133Y-59888360D01*
X82413133Y-59888360D02*
X82548847Y-59945502D01*
X82548847Y-59945502D02*
X82639323Y-59945502D01*
X82639323Y-59945502D02*
X82775038Y-59888360D01*
X82775038Y-59888360D02*
X82865514Y-59774074D01*
X82865514Y-59774074D02*
X82910752Y-59659788D01*
X82910752Y-59659788D02*
X82955990Y-59431217D01*
X82955990Y-59431217D02*
X82955990Y-59259788D01*
X82955990Y-59259788D02*
X82910752Y-59031217D01*
X82910752Y-59031217D02*
X82865514Y-58916931D01*
X82865514Y-58916931D02*
X82775038Y-58802645D01*
X82775038Y-58802645D02*
X82639323Y-58745502D01*
X82639323Y-58745502D02*
X82548847Y-58745502D01*
X82548847Y-58745502D02*
X82413133Y-58802645D01*
X82413133Y-58802645D02*
X82367895Y-58859788D01*
X81463133Y-59945502D02*
X82005990Y-59945502D01*
X81734562Y-59945502D02*
X81734562Y-58745502D01*
X81734562Y-58745502D02*
X81825038Y-58916931D01*
X81825038Y-58916931D02*
X81915514Y-59031217D01*
X81915514Y-59031217D02*
X82005990Y-59088360D01*
X80875038Y-58745502D02*
X80784561Y-58745502D01*
X80784561Y-58745502D02*
X80694085Y-58802645D01*
X80694085Y-58802645D02*
X80648847Y-58859788D01*
X80648847Y-58859788D02*
X80603609Y-58974074D01*
X80603609Y-58974074D02*
X80558371Y-59202645D01*
X80558371Y-59202645D02*
X80558371Y-59488360D01*
X80558371Y-59488360D02*
X80603609Y-59716931D01*
X80603609Y-59716931D02*
X80648847Y-59831217D01*
X80648847Y-59831217D02*
X80694085Y-59888360D01*
X80694085Y-59888360D02*
X80784561Y-59945502D01*
X80784561Y-59945502D02*
X80875038Y-59945502D01*
X80875038Y-59945502D02*
X80965514Y-59888360D01*
X80965514Y-59888360D02*
X81010752Y-59831217D01*
X81010752Y-59831217D02*
X81055990Y-59716931D01*
X81055990Y-59716931D02*
X81101228Y-59488360D01*
X81101228Y-59488360D02*
X81101228Y-59202645D01*
X81101228Y-59202645D02*
X81055990Y-58974074D01*
X81055990Y-58974074D02*
X81010752Y-58859788D01*
X81010752Y-58859788D02*
X80965514Y-58802645D01*
X80965514Y-58802645D02*
X80875038Y-58745502D01*
X79653609Y-59945502D02*
X80196466Y-59945502D01*
X79925038Y-59945502D02*
X79925038Y-58745502D01*
X79925038Y-58745502D02*
X80015514Y-58916931D01*
X80015514Y-58916931D02*
X80105990Y-59031217D01*
X80105990Y-59031217D02*
X80196466Y-59088360D01*
X82266295Y-42711617D02*
X82311533Y-42768760D01*
X82311533Y-42768760D02*
X82447247Y-42825902D01*
X82447247Y-42825902D02*
X82537723Y-42825902D01*
X82537723Y-42825902D02*
X82673438Y-42768760D01*
X82673438Y-42768760D02*
X82763914Y-42654474D01*
X82763914Y-42654474D02*
X82809152Y-42540188D01*
X82809152Y-42540188D02*
X82854390Y-42311617D01*
X82854390Y-42311617D02*
X82854390Y-42140188D01*
X82854390Y-42140188D02*
X82809152Y-41911617D01*
X82809152Y-41911617D02*
X82763914Y-41797331D01*
X82763914Y-41797331D02*
X82673438Y-41683045D01*
X82673438Y-41683045D02*
X82537723Y-41625902D01*
X82537723Y-41625902D02*
X82447247Y-41625902D01*
X82447247Y-41625902D02*
X82311533Y-41683045D01*
X82311533Y-41683045D02*
X82266295Y-41740188D01*
X81361533Y-42825902D02*
X81904390Y-42825902D01*
X81632962Y-42825902D02*
X81632962Y-41625902D01*
X81632962Y-41625902D02*
X81723438Y-41797331D01*
X81723438Y-41797331D02*
X81813914Y-41911617D01*
X81813914Y-41911617D02*
X81904390Y-41968760D01*
X80773438Y-41625902D02*
X80682961Y-41625902D01*
X80682961Y-41625902D02*
X80592485Y-41683045D01*
X80592485Y-41683045D02*
X80547247Y-41740188D01*
X80547247Y-41740188D02*
X80502009Y-41854474D01*
X80502009Y-41854474D02*
X80456771Y-42083045D01*
X80456771Y-42083045D02*
X80456771Y-42368760D01*
X80456771Y-42368760D02*
X80502009Y-42597331D01*
X80502009Y-42597331D02*
X80547247Y-42711617D01*
X80547247Y-42711617D02*
X80592485Y-42768760D01*
X80592485Y-42768760D02*
X80682961Y-42825902D01*
X80682961Y-42825902D02*
X80773438Y-42825902D01*
X80773438Y-42825902D02*
X80863914Y-42768760D01*
X80863914Y-42768760D02*
X80909152Y-42711617D01*
X80909152Y-42711617D02*
X80954390Y-42597331D01*
X80954390Y-42597331D02*
X80999628Y-42368760D01*
X80999628Y-42368760D02*
X80999628Y-42083045D01*
X80999628Y-42083045D02*
X80954390Y-41854474D01*
X80954390Y-41854474D02*
X80909152Y-41740188D01*
X80909152Y-41740188D02*
X80863914Y-41683045D01*
X80863914Y-41683045D02*
X80773438Y-41625902D01*
X80140104Y-41625902D02*
X79506771Y-41625902D01*
X79506771Y-41625902D02*
X79913914Y-42825902D01*
X102027495Y-57900817D02*
X102072733Y-57957960D01*
X102072733Y-57957960D02*
X102208447Y-58015102D01*
X102208447Y-58015102D02*
X102298923Y-58015102D01*
X102298923Y-58015102D02*
X102434638Y-57957960D01*
X102434638Y-57957960D02*
X102525114Y-57843674D01*
X102525114Y-57843674D02*
X102570352Y-57729388D01*
X102570352Y-57729388D02*
X102615590Y-57500817D01*
X102615590Y-57500817D02*
X102615590Y-57329388D01*
X102615590Y-57329388D02*
X102570352Y-57100817D01*
X102570352Y-57100817D02*
X102525114Y-56986531D01*
X102525114Y-56986531D02*
X102434638Y-56872245D01*
X102434638Y-56872245D02*
X102298923Y-56815102D01*
X102298923Y-56815102D02*
X102208447Y-56815102D01*
X102208447Y-56815102D02*
X102072733Y-56872245D01*
X102072733Y-56872245D02*
X102027495Y-56929388D01*
X101122733Y-58015102D02*
X101665590Y-58015102D01*
X101394162Y-58015102D02*
X101394162Y-56815102D01*
X101394162Y-56815102D02*
X101484638Y-56986531D01*
X101484638Y-56986531D02*
X101575114Y-57100817D01*
X101575114Y-57100817D02*
X101665590Y-57157960D01*
X100217971Y-58015102D02*
X100760828Y-58015102D01*
X100489400Y-58015102D02*
X100489400Y-56815102D01*
X100489400Y-56815102D02*
X100579876Y-56986531D01*
X100579876Y-56986531D02*
X100670352Y-57100817D01*
X100670352Y-57100817D02*
X100760828Y-57157960D01*
X99403685Y-57215102D02*
X99403685Y-58015102D01*
X99629876Y-56757960D02*
X99856066Y-57615102D01*
X99856066Y-57615102D02*
X99267971Y-57615102D01*
X43455095Y-87038217D02*
X43500333Y-87095360D01*
X43500333Y-87095360D02*
X43636047Y-87152502D01*
X43636047Y-87152502D02*
X43726523Y-87152502D01*
X43726523Y-87152502D02*
X43862238Y-87095360D01*
X43862238Y-87095360D02*
X43952714Y-86981074D01*
X43952714Y-86981074D02*
X43997952Y-86866788D01*
X43997952Y-86866788D02*
X44043190Y-86638217D01*
X44043190Y-86638217D02*
X44043190Y-86466788D01*
X44043190Y-86466788D02*
X43997952Y-86238217D01*
X43997952Y-86238217D02*
X43952714Y-86123931D01*
X43952714Y-86123931D02*
X43862238Y-86009645D01*
X43862238Y-86009645D02*
X43726523Y-85952502D01*
X43726523Y-85952502D02*
X43636047Y-85952502D01*
X43636047Y-85952502D02*
X43500333Y-86009645D01*
X43500333Y-86009645D02*
X43455095Y-86066788D01*
X42550333Y-87152502D02*
X43093190Y-87152502D01*
X42821762Y-87152502D02*
X42821762Y-85952502D01*
X42821762Y-85952502D02*
X42912238Y-86123931D01*
X42912238Y-86123931D02*
X43002714Y-86238217D01*
X43002714Y-86238217D02*
X43093190Y-86295360D01*
X42233666Y-85952502D02*
X41645571Y-85952502D01*
X41645571Y-85952502D02*
X41962238Y-86409645D01*
X41962238Y-86409645D02*
X41826523Y-86409645D01*
X41826523Y-86409645D02*
X41736047Y-86466788D01*
X41736047Y-86466788D02*
X41690809Y-86523931D01*
X41690809Y-86523931D02*
X41645571Y-86638217D01*
X41645571Y-86638217D02*
X41645571Y-86923931D01*
X41645571Y-86923931D02*
X41690809Y-87038217D01*
X41690809Y-87038217D02*
X41736047Y-87095360D01*
X41736047Y-87095360D02*
X41826523Y-87152502D01*
X41826523Y-87152502D02*
X42097952Y-87152502D01*
X42097952Y-87152502D02*
X42188428Y-87095360D01*
X42188428Y-87095360D02*
X42233666Y-87038217D01*
X40831285Y-86352502D02*
X40831285Y-87152502D01*
X41057476Y-85895360D02*
X41283666Y-86752502D01*
X41283666Y-86752502D02*
X40695571Y-86752502D01*
X56032017Y-51732104D02*
X56089160Y-51686866D01*
X56089160Y-51686866D02*
X56146302Y-51551152D01*
X56146302Y-51551152D02*
X56146302Y-51460676D01*
X56146302Y-51460676D02*
X56089160Y-51324961D01*
X56089160Y-51324961D02*
X55974874Y-51234485D01*
X55974874Y-51234485D02*
X55860588Y-51189247D01*
X55860588Y-51189247D02*
X55632017Y-51144009D01*
X55632017Y-51144009D02*
X55460588Y-51144009D01*
X55460588Y-51144009D02*
X55232017Y-51189247D01*
X55232017Y-51189247D02*
X55117731Y-51234485D01*
X55117731Y-51234485D02*
X55003445Y-51324961D01*
X55003445Y-51324961D02*
X54946302Y-51460676D01*
X54946302Y-51460676D02*
X54946302Y-51551152D01*
X54946302Y-51551152D02*
X55003445Y-51686866D01*
X55003445Y-51686866D02*
X55060588Y-51732104D01*
X56146302Y-52636866D02*
X56146302Y-52094009D01*
X56146302Y-52365437D02*
X54946302Y-52365437D01*
X54946302Y-52365437D02*
X55117731Y-52274961D01*
X55117731Y-52274961D02*
X55232017Y-52184485D01*
X55232017Y-52184485D02*
X55289160Y-52094009D01*
X55060588Y-52998771D02*
X55003445Y-53044009D01*
X55003445Y-53044009D02*
X54946302Y-53134485D01*
X54946302Y-53134485D02*
X54946302Y-53360676D01*
X54946302Y-53360676D02*
X55003445Y-53451152D01*
X55003445Y-53451152D02*
X55060588Y-53496390D01*
X55060588Y-53496390D02*
X55174874Y-53541628D01*
X55174874Y-53541628D02*
X55289160Y-53541628D01*
X55289160Y-53541628D02*
X55460588Y-53496390D01*
X55460588Y-53496390D02*
X56146302Y-52953533D01*
X56146302Y-52953533D02*
X56146302Y-53541628D01*
X54946302Y-54355914D02*
X54946302Y-54174961D01*
X54946302Y-54174961D02*
X55003445Y-54084485D01*
X55003445Y-54084485D02*
X55060588Y-54039247D01*
X55060588Y-54039247D02*
X55232017Y-53948771D01*
X55232017Y-53948771D02*
X55460588Y-53903533D01*
X55460588Y-53903533D02*
X55917731Y-53903533D01*
X55917731Y-53903533D02*
X56032017Y-53948771D01*
X56032017Y-53948771D02*
X56089160Y-53994009D01*
X56089160Y-53994009D02*
X56146302Y-54084485D01*
X56146302Y-54084485D02*
X56146302Y-54265438D01*
X56146302Y-54265438D02*
X56089160Y-54355914D01*
X56089160Y-54355914D02*
X56032017Y-54401152D01*
X56032017Y-54401152D02*
X55917731Y-54446390D01*
X55917731Y-54446390D02*
X55632017Y-54446390D01*
X55632017Y-54446390D02*
X55517731Y-54401152D01*
X55517731Y-54401152D02*
X55460588Y-54355914D01*
X55460588Y-54355914D02*
X55403445Y-54265438D01*
X55403445Y-54265438D02*
X55403445Y-54084485D01*
X55403445Y-54084485D02*
X55460588Y-53994009D01*
X55460588Y-53994009D02*
X55517731Y-53948771D01*
X55517731Y-53948771D02*
X55632017Y-53903533D01*
X48154095Y-61736217D02*
X48199333Y-61793360D01*
X48199333Y-61793360D02*
X48335047Y-61850502D01*
X48335047Y-61850502D02*
X48425523Y-61850502D01*
X48425523Y-61850502D02*
X48561238Y-61793360D01*
X48561238Y-61793360D02*
X48651714Y-61679074D01*
X48651714Y-61679074D02*
X48696952Y-61564788D01*
X48696952Y-61564788D02*
X48742190Y-61336217D01*
X48742190Y-61336217D02*
X48742190Y-61164788D01*
X48742190Y-61164788D02*
X48696952Y-60936217D01*
X48696952Y-60936217D02*
X48651714Y-60821931D01*
X48651714Y-60821931D02*
X48561238Y-60707645D01*
X48561238Y-60707645D02*
X48425523Y-60650502D01*
X48425523Y-60650502D02*
X48335047Y-60650502D01*
X48335047Y-60650502D02*
X48199333Y-60707645D01*
X48199333Y-60707645D02*
X48154095Y-60764788D01*
X47249333Y-61850502D02*
X47792190Y-61850502D01*
X47520762Y-61850502D02*
X47520762Y-60650502D01*
X47520762Y-60650502D02*
X47611238Y-60821931D01*
X47611238Y-60821931D02*
X47701714Y-60936217D01*
X47701714Y-60936217D02*
X47792190Y-60993360D01*
X46344571Y-61850502D02*
X46887428Y-61850502D01*
X46616000Y-61850502D02*
X46616000Y-60650502D01*
X46616000Y-60650502D02*
X46706476Y-60821931D01*
X46706476Y-60821931D02*
X46796952Y-60936217D01*
X46796952Y-60936217D02*
X46887428Y-60993360D01*
X46027904Y-60650502D02*
X45394571Y-60650502D01*
X45394571Y-60650502D02*
X45801714Y-61850502D01*
X82215495Y-48655217D02*
X82260733Y-48712360D01*
X82260733Y-48712360D02*
X82396447Y-48769502D01*
X82396447Y-48769502D02*
X82486923Y-48769502D01*
X82486923Y-48769502D02*
X82622638Y-48712360D01*
X82622638Y-48712360D02*
X82713114Y-48598074D01*
X82713114Y-48598074D02*
X82758352Y-48483788D01*
X82758352Y-48483788D02*
X82803590Y-48255217D01*
X82803590Y-48255217D02*
X82803590Y-48083788D01*
X82803590Y-48083788D02*
X82758352Y-47855217D01*
X82758352Y-47855217D02*
X82713114Y-47740931D01*
X82713114Y-47740931D02*
X82622638Y-47626645D01*
X82622638Y-47626645D02*
X82486923Y-47569502D01*
X82486923Y-47569502D02*
X82396447Y-47569502D01*
X82396447Y-47569502D02*
X82260733Y-47626645D01*
X82260733Y-47626645D02*
X82215495Y-47683788D01*
X81310733Y-48769502D02*
X81853590Y-48769502D01*
X81582162Y-48769502D02*
X81582162Y-47569502D01*
X81582162Y-47569502D02*
X81672638Y-47740931D01*
X81672638Y-47740931D02*
X81763114Y-47855217D01*
X81763114Y-47855217D02*
X81853590Y-47912360D01*
X80722638Y-47569502D02*
X80632161Y-47569502D01*
X80632161Y-47569502D02*
X80541685Y-47626645D01*
X80541685Y-47626645D02*
X80496447Y-47683788D01*
X80496447Y-47683788D02*
X80451209Y-47798074D01*
X80451209Y-47798074D02*
X80405971Y-48026645D01*
X80405971Y-48026645D02*
X80405971Y-48312360D01*
X80405971Y-48312360D02*
X80451209Y-48540931D01*
X80451209Y-48540931D02*
X80496447Y-48655217D01*
X80496447Y-48655217D02*
X80541685Y-48712360D01*
X80541685Y-48712360D02*
X80632161Y-48769502D01*
X80632161Y-48769502D02*
X80722638Y-48769502D01*
X80722638Y-48769502D02*
X80813114Y-48712360D01*
X80813114Y-48712360D02*
X80858352Y-48655217D01*
X80858352Y-48655217D02*
X80903590Y-48540931D01*
X80903590Y-48540931D02*
X80948828Y-48312360D01*
X80948828Y-48312360D02*
X80948828Y-48026645D01*
X80948828Y-48026645D02*
X80903590Y-47798074D01*
X80903590Y-47798074D02*
X80858352Y-47683788D01*
X80858352Y-47683788D02*
X80813114Y-47626645D01*
X80813114Y-47626645D02*
X80722638Y-47569502D01*
X79546447Y-47569502D02*
X79998828Y-47569502D01*
X79998828Y-47569502D02*
X80044066Y-48140931D01*
X80044066Y-48140931D02*
X79998828Y-48083788D01*
X79998828Y-48083788D02*
X79908352Y-48026645D01*
X79908352Y-48026645D02*
X79682161Y-48026645D01*
X79682161Y-48026645D02*
X79591685Y-48083788D01*
X79591685Y-48083788D02*
X79546447Y-48140931D01*
X79546447Y-48140931D02*
X79501209Y-48255217D01*
X79501209Y-48255217D02*
X79501209Y-48540931D01*
X79501209Y-48540931D02*
X79546447Y-48655217D01*
X79546447Y-48655217D02*
X79591685Y-48712360D01*
X79591685Y-48712360D02*
X79682161Y-48769502D01*
X79682161Y-48769502D02*
X79908352Y-48769502D01*
X79908352Y-48769502D02*
X79998828Y-48712360D01*
X79998828Y-48712360D02*
X80044066Y-48655217D01*
X34057095Y-78886217D02*
X34102333Y-78943360D01*
X34102333Y-78943360D02*
X34238047Y-79000502D01*
X34238047Y-79000502D02*
X34328523Y-79000502D01*
X34328523Y-79000502D02*
X34464238Y-78943360D01*
X34464238Y-78943360D02*
X34554714Y-78829074D01*
X34554714Y-78829074D02*
X34599952Y-78714788D01*
X34599952Y-78714788D02*
X34645190Y-78486217D01*
X34645190Y-78486217D02*
X34645190Y-78314788D01*
X34645190Y-78314788D02*
X34599952Y-78086217D01*
X34599952Y-78086217D02*
X34554714Y-77971931D01*
X34554714Y-77971931D02*
X34464238Y-77857645D01*
X34464238Y-77857645D02*
X34328523Y-77800502D01*
X34328523Y-77800502D02*
X34238047Y-77800502D01*
X34238047Y-77800502D02*
X34102333Y-77857645D01*
X34102333Y-77857645D02*
X34057095Y-77914788D01*
X33152333Y-79000502D02*
X33695190Y-79000502D01*
X33423762Y-79000502D02*
X33423762Y-77800502D01*
X33423762Y-77800502D02*
X33514238Y-77971931D01*
X33514238Y-77971931D02*
X33604714Y-78086217D01*
X33604714Y-78086217D02*
X33695190Y-78143360D01*
X32835666Y-77800502D02*
X32247571Y-77800502D01*
X32247571Y-77800502D02*
X32564238Y-78257645D01*
X32564238Y-78257645D02*
X32428523Y-78257645D01*
X32428523Y-78257645D02*
X32338047Y-78314788D01*
X32338047Y-78314788D02*
X32292809Y-78371931D01*
X32292809Y-78371931D02*
X32247571Y-78486217D01*
X32247571Y-78486217D02*
X32247571Y-78771931D01*
X32247571Y-78771931D02*
X32292809Y-78886217D01*
X32292809Y-78886217D02*
X32338047Y-78943360D01*
X32338047Y-78943360D02*
X32428523Y-79000502D01*
X32428523Y-79000502D02*
X32699952Y-79000502D01*
X32699952Y-79000502D02*
X32790428Y-78943360D01*
X32790428Y-78943360D02*
X32835666Y-78886217D01*
X31433285Y-77800502D02*
X31614238Y-77800502D01*
X31614238Y-77800502D02*
X31704714Y-77857645D01*
X31704714Y-77857645D02*
X31749952Y-77914788D01*
X31749952Y-77914788D02*
X31840428Y-78086217D01*
X31840428Y-78086217D02*
X31885666Y-78314788D01*
X31885666Y-78314788D02*
X31885666Y-78771931D01*
X31885666Y-78771931D02*
X31840428Y-78886217D01*
X31840428Y-78886217D02*
X31795190Y-78943360D01*
X31795190Y-78943360D02*
X31704714Y-79000502D01*
X31704714Y-79000502D02*
X31523761Y-79000502D01*
X31523761Y-79000502D02*
X31433285Y-78943360D01*
X31433285Y-78943360D02*
X31388047Y-78886217D01*
X31388047Y-78886217D02*
X31342809Y-78771931D01*
X31342809Y-78771931D02*
X31342809Y-78486217D01*
X31342809Y-78486217D02*
X31388047Y-78371931D01*
X31388047Y-78371931D02*
X31433285Y-78314788D01*
X31433285Y-78314788D02*
X31523761Y-78257645D01*
X31523761Y-78257645D02*
X31704714Y-78257645D01*
X31704714Y-78257645D02*
X31795190Y-78314788D01*
X31795190Y-78314788D02*
X31840428Y-78371931D01*
X31840428Y-78371931D02*
X31885666Y-78486217D01*
X82367895Y-57799217D02*
X82413133Y-57856360D01*
X82413133Y-57856360D02*
X82548847Y-57913502D01*
X82548847Y-57913502D02*
X82639323Y-57913502D01*
X82639323Y-57913502D02*
X82775038Y-57856360D01*
X82775038Y-57856360D02*
X82865514Y-57742074D01*
X82865514Y-57742074D02*
X82910752Y-57627788D01*
X82910752Y-57627788D02*
X82955990Y-57399217D01*
X82955990Y-57399217D02*
X82955990Y-57227788D01*
X82955990Y-57227788D02*
X82910752Y-56999217D01*
X82910752Y-56999217D02*
X82865514Y-56884931D01*
X82865514Y-56884931D02*
X82775038Y-56770645D01*
X82775038Y-56770645D02*
X82639323Y-56713502D01*
X82639323Y-56713502D02*
X82548847Y-56713502D01*
X82548847Y-56713502D02*
X82413133Y-56770645D01*
X82413133Y-56770645D02*
X82367895Y-56827788D01*
X81463133Y-57913502D02*
X82005990Y-57913502D01*
X81734562Y-57913502D02*
X81734562Y-56713502D01*
X81734562Y-56713502D02*
X81825038Y-56884931D01*
X81825038Y-56884931D02*
X81915514Y-56999217D01*
X81915514Y-56999217D02*
X82005990Y-57056360D01*
X80875038Y-56713502D02*
X80784561Y-56713502D01*
X80784561Y-56713502D02*
X80694085Y-56770645D01*
X80694085Y-56770645D02*
X80648847Y-56827788D01*
X80648847Y-56827788D02*
X80603609Y-56942074D01*
X80603609Y-56942074D02*
X80558371Y-57170645D01*
X80558371Y-57170645D02*
X80558371Y-57456360D01*
X80558371Y-57456360D02*
X80603609Y-57684931D01*
X80603609Y-57684931D02*
X80648847Y-57799217D01*
X80648847Y-57799217D02*
X80694085Y-57856360D01*
X80694085Y-57856360D02*
X80784561Y-57913502D01*
X80784561Y-57913502D02*
X80875038Y-57913502D01*
X80875038Y-57913502D02*
X80965514Y-57856360D01*
X80965514Y-57856360D02*
X81010752Y-57799217D01*
X81010752Y-57799217D02*
X81055990Y-57684931D01*
X81055990Y-57684931D02*
X81101228Y-57456360D01*
X81101228Y-57456360D02*
X81101228Y-57170645D01*
X81101228Y-57170645D02*
X81055990Y-56942074D01*
X81055990Y-56942074D02*
X81010752Y-56827788D01*
X81010752Y-56827788D02*
X80965514Y-56770645D01*
X80965514Y-56770645D02*
X80875038Y-56713502D01*
X80196466Y-56827788D02*
X80151228Y-56770645D01*
X80151228Y-56770645D02*
X80060752Y-56713502D01*
X80060752Y-56713502D02*
X79834561Y-56713502D01*
X79834561Y-56713502D02*
X79744085Y-56770645D01*
X79744085Y-56770645D02*
X79698847Y-56827788D01*
X79698847Y-56827788D02*
X79653609Y-56942074D01*
X79653609Y-56942074D02*
X79653609Y-57056360D01*
X79653609Y-57056360D02*
X79698847Y-57227788D01*
X79698847Y-57227788D02*
X80241704Y-57913502D01*
X80241704Y-57913502D02*
X79653609Y-57913502D01*
X100482017Y-46144104D02*
X100539160Y-46098866D01*
X100539160Y-46098866D02*
X100596302Y-45963152D01*
X100596302Y-45963152D02*
X100596302Y-45872676D01*
X100596302Y-45872676D02*
X100539160Y-45736961D01*
X100539160Y-45736961D02*
X100424874Y-45646485D01*
X100424874Y-45646485D02*
X100310588Y-45601247D01*
X100310588Y-45601247D02*
X100082017Y-45556009D01*
X100082017Y-45556009D02*
X99910588Y-45556009D01*
X99910588Y-45556009D02*
X99682017Y-45601247D01*
X99682017Y-45601247D02*
X99567731Y-45646485D01*
X99567731Y-45646485D02*
X99453445Y-45736961D01*
X99453445Y-45736961D02*
X99396302Y-45872676D01*
X99396302Y-45872676D02*
X99396302Y-45963152D01*
X99396302Y-45963152D02*
X99453445Y-46098866D01*
X99453445Y-46098866D02*
X99510588Y-46144104D01*
X100596302Y-47048866D02*
X100596302Y-46506009D01*
X100596302Y-46777437D02*
X99396302Y-46777437D01*
X99396302Y-46777437D02*
X99567731Y-46686961D01*
X99567731Y-46686961D02*
X99682017Y-46596485D01*
X99682017Y-46596485D02*
X99739160Y-46506009D01*
X100596302Y-47953628D02*
X100596302Y-47410771D01*
X100596302Y-47682199D02*
X99396302Y-47682199D01*
X99396302Y-47682199D02*
X99567731Y-47591723D01*
X99567731Y-47591723D02*
X99682017Y-47501247D01*
X99682017Y-47501247D02*
X99739160Y-47410771D01*
X99510588Y-48315533D02*
X99453445Y-48360771D01*
X99453445Y-48360771D02*
X99396302Y-48451247D01*
X99396302Y-48451247D02*
X99396302Y-48677438D01*
X99396302Y-48677438D02*
X99453445Y-48767914D01*
X99453445Y-48767914D02*
X99510588Y-48813152D01*
X99510588Y-48813152D02*
X99624874Y-48858390D01*
X99624874Y-48858390D02*
X99739160Y-48858390D01*
X99739160Y-48858390D02*
X99910588Y-48813152D01*
X99910588Y-48813152D02*
X100596302Y-48270295D01*
X100596302Y-48270295D02*
X100596302Y-48858390D01*
X96541095Y-57951617D02*
X96586333Y-58008760D01*
X96586333Y-58008760D02*
X96722047Y-58065902D01*
X96722047Y-58065902D02*
X96812523Y-58065902D01*
X96812523Y-58065902D02*
X96948238Y-58008760D01*
X96948238Y-58008760D02*
X97038714Y-57894474D01*
X97038714Y-57894474D02*
X97083952Y-57780188D01*
X97083952Y-57780188D02*
X97129190Y-57551617D01*
X97129190Y-57551617D02*
X97129190Y-57380188D01*
X97129190Y-57380188D02*
X97083952Y-57151617D01*
X97083952Y-57151617D02*
X97038714Y-57037331D01*
X97038714Y-57037331D02*
X96948238Y-56923045D01*
X96948238Y-56923045D02*
X96812523Y-56865902D01*
X96812523Y-56865902D02*
X96722047Y-56865902D01*
X96722047Y-56865902D02*
X96586333Y-56923045D01*
X96586333Y-56923045D02*
X96541095Y-56980188D01*
X95636333Y-58065902D02*
X96179190Y-58065902D01*
X95907762Y-58065902D02*
X95907762Y-56865902D01*
X95907762Y-56865902D02*
X95998238Y-57037331D01*
X95998238Y-57037331D02*
X96088714Y-57151617D01*
X96088714Y-57151617D02*
X96179190Y-57208760D01*
X94731571Y-58065902D02*
X95274428Y-58065902D01*
X95003000Y-58065902D02*
X95003000Y-56865902D01*
X95003000Y-56865902D02*
X95093476Y-57037331D01*
X95093476Y-57037331D02*
X95183952Y-57151617D01*
X95183952Y-57151617D02*
X95274428Y-57208760D01*
X93872047Y-56865902D02*
X94324428Y-56865902D01*
X94324428Y-56865902D02*
X94369666Y-57437331D01*
X94369666Y-57437331D02*
X94324428Y-57380188D01*
X94324428Y-57380188D02*
X94233952Y-57323045D01*
X94233952Y-57323045D02*
X94007761Y-57323045D01*
X94007761Y-57323045D02*
X93917285Y-57380188D01*
X93917285Y-57380188D02*
X93872047Y-57437331D01*
X93872047Y-57437331D02*
X93826809Y-57551617D01*
X93826809Y-57551617D02*
X93826809Y-57837331D01*
X93826809Y-57837331D02*
X93872047Y-57951617D01*
X93872047Y-57951617D02*
X93917285Y-58008760D01*
X93917285Y-58008760D02*
X94007761Y-58065902D01*
X94007761Y-58065902D02*
X94233952Y-58065902D01*
X94233952Y-58065902D02*
X94324428Y-58008760D01*
X94324428Y-58008760D02*
X94369666Y-57951617D01*
X51964095Y-50179217D02*
X52009333Y-50236360D01*
X52009333Y-50236360D02*
X52145047Y-50293502D01*
X52145047Y-50293502D02*
X52235523Y-50293502D01*
X52235523Y-50293502D02*
X52371238Y-50236360D01*
X52371238Y-50236360D02*
X52461714Y-50122074D01*
X52461714Y-50122074D02*
X52506952Y-50007788D01*
X52506952Y-50007788D02*
X52552190Y-49779217D01*
X52552190Y-49779217D02*
X52552190Y-49607788D01*
X52552190Y-49607788D02*
X52506952Y-49379217D01*
X52506952Y-49379217D02*
X52461714Y-49264931D01*
X52461714Y-49264931D02*
X52371238Y-49150645D01*
X52371238Y-49150645D02*
X52235523Y-49093502D01*
X52235523Y-49093502D02*
X52145047Y-49093502D01*
X52145047Y-49093502D02*
X52009333Y-49150645D01*
X52009333Y-49150645D02*
X51964095Y-49207788D01*
X51059333Y-50293502D02*
X51602190Y-50293502D01*
X51330762Y-50293502D02*
X51330762Y-49093502D01*
X51330762Y-49093502D02*
X51421238Y-49264931D01*
X51421238Y-49264931D02*
X51511714Y-49379217D01*
X51511714Y-49379217D02*
X51602190Y-49436360D01*
X50697428Y-49207788D02*
X50652190Y-49150645D01*
X50652190Y-49150645D02*
X50561714Y-49093502D01*
X50561714Y-49093502D02*
X50335523Y-49093502D01*
X50335523Y-49093502D02*
X50245047Y-49150645D01*
X50245047Y-49150645D02*
X50199809Y-49207788D01*
X50199809Y-49207788D02*
X50154571Y-49322074D01*
X50154571Y-49322074D02*
X50154571Y-49436360D01*
X50154571Y-49436360D02*
X50199809Y-49607788D01*
X50199809Y-49607788D02*
X50742666Y-50293502D01*
X50742666Y-50293502D02*
X50154571Y-50293502D01*
X49340285Y-49493502D02*
X49340285Y-50293502D01*
X49566476Y-49036360D02*
X49792666Y-49893502D01*
X49792666Y-49893502D02*
X49204571Y-49893502D01*
X90334702Y-49547704D02*
X90334702Y-49095323D01*
X90334702Y-49095323D02*
X89134702Y-49095323D01*
X90334702Y-50361990D02*
X90334702Y-49819133D01*
X90334702Y-50090561D02*
X89134702Y-50090561D01*
X89134702Y-50090561D02*
X89306131Y-50000085D01*
X89306131Y-50000085D02*
X89420417Y-49909609D01*
X89420417Y-49909609D02*
X89477560Y-49819133D01*
X89134702Y-50950085D02*
X89134702Y-51040562D01*
X89134702Y-51040562D02*
X89191845Y-51131038D01*
X89191845Y-51131038D02*
X89248988Y-51176276D01*
X89248988Y-51176276D02*
X89363274Y-51221514D01*
X89363274Y-51221514D02*
X89591845Y-51266752D01*
X89591845Y-51266752D02*
X89877560Y-51266752D01*
X89877560Y-51266752D02*
X90106131Y-51221514D01*
X90106131Y-51221514D02*
X90220417Y-51176276D01*
X90220417Y-51176276D02*
X90277560Y-51131038D01*
X90277560Y-51131038D02*
X90334702Y-51040562D01*
X90334702Y-51040562D02*
X90334702Y-50950085D01*
X90334702Y-50950085D02*
X90277560Y-50859609D01*
X90277560Y-50859609D02*
X90220417Y-50814371D01*
X90220417Y-50814371D02*
X90106131Y-50769133D01*
X90106131Y-50769133D02*
X89877560Y-50723895D01*
X89877560Y-50723895D02*
X89591845Y-50723895D01*
X89591845Y-50723895D02*
X89363274Y-50769133D01*
X89363274Y-50769133D02*
X89248988Y-50814371D01*
X89248988Y-50814371D02*
X89191845Y-50859609D01*
X89191845Y-50859609D02*
X89134702Y-50950085D01*
X90334702Y-52171514D02*
X90334702Y-51628657D01*
X90334702Y-51900085D02*
X89134702Y-51900085D01*
X89134702Y-51900085D02*
X89306131Y-51809609D01*
X89306131Y-51809609D02*
X89420417Y-51719133D01*
X89420417Y-51719133D02*
X89477560Y-51628657D01*
X100532817Y-42181704D02*
X100589960Y-42136466D01*
X100589960Y-42136466D02*
X100647102Y-42000752D01*
X100647102Y-42000752D02*
X100647102Y-41910276D01*
X100647102Y-41910276D02*
X100589960Y-41774561D01*
X100589960Y-41774561D02*
X100475674Y-41684085D01*
X100475674Y-41684085D02*
X100361388Y-41638847D01*
X100361388Y-41638847D02*
X100132817Y-41593609D01*
X100132817Y-41593609D02*
X99961388Y-41593609D01*
X99961388Y-41593609D02*
X99732817Y-41638847D01*
X99732817Y-41638847D02*
X99618531Y-41684085D01*
X99618531Y-41684085D02*
X99504245Y-41774561D01*
X99504245Y-41774561D02*
X99447102Y-41910276D01*
X99447102Y-41910276D02*
X99447102Y-42000752D01*
X99447102Y-42000752D02*
X99504245Y-42136466D01*
X99504245Y-42136466D02*
X99561388Y-42181704D01*
X100647102Y-43086466D02*
X100647102Y-42543609D01*
X100647102Y-42815037D02*
X99447102Y-42815037D01*
X99447102Y-42815037D02*
X99618531Y-42724561D01*
X99618531Y-42724561D02*
X99732817Y-42634085D01*
X99732817Y-42634085D02*
X99789960Y-42543609D01*
X100647102Y-43991228D02*
X100647102Y-43448371D01*
X100647102Y-43719799D02*
X99447102Y-43719799D01*
X99447102Y-43719799D02*
X99618531Y-43629323D01*
X99618531Y-43629323D02*
X99732817Y-43538847D01*
X99732817Y-43538847D02*
X99789960Y-43448371D01*
X100647102Y-44895990D02*
X100647102Y-44353133D01*
X100647102Y-44624561D02*
X99447102Y-44624561D01*
X99447102Y-44624561D02*
X99618531Y-44534085D01*
X99618531Y-44534085D02*
X99732817Y-44443609D01*
X99732817Y-44443609D02*
X99789960Y-44353133D01*
X48027095Y-54040017D02*
X48072333Y-54097160D01*
X48072333Y-54097160D02*
X48208047Y-54154302D01*
X48208047Y-54154302D02*
X48298523Y-54154302D01*
X48298523Y-54154302D02*
X48434238Y-54097160D01*
X48434238Y-54097160D02*
X48524714Y-53982874D01*
X48524714Y-53982874D02*
X48569952Y-53868588D01*
X48569952Y-53868588D02*
X48615190Y-53640017D01*
X48615190Y-53640017D02*
X48615190Y-53468588D01*
X48615190Y-53468588D02*
X48569952Y-53240017D01*
X48569952Y-53240017D02*
X48524714Y-53125731D01*
X48524714Y-53125731D02*
X48434238Y-53011445D01*
X48434238Y-53011445D02*
X48298523Y-52954302D01*
X48298523Y-52954302D02*
X48208047Y-52954302D01*
X48208047Y-52954302D02*
X48072333Y-53011445D01*
X48072333Y-53011445D02*
X48027095Y-53068588D01*
X47122333Y-54154302D02*
X47665190Y-54154302D01*
X47393762Y-54154302D02*
X47393762Y-52954302D01*
X47393762Y-52954302D02*
X47484238Y-53125731D01*
X47484238Y-53125731D02*
X47574714Y-53240017D01*
X47574714Y-53240017D02*
X47665190Y-53297160D01*
X46760428Y-53068588D02*
X46715190Y-53011445D01*
X46715190Y-53011445D02*
X46624714Y-52954302D01*
X46624714Y-52954302D02*
X46398523Y-52954302D01*
X46398523Y-52954302D02*
X46308047Y-53011445D01*
X46308047Y-53011445D02*
X46262809Y-53068588D01*
X46262809Y-53068588D02*
X46217571Y-53182874D01*
X46217571Y-53182874D02*
X46217571Y-53297160D01*
X46217571Y-53297160D02*
X46262809Y-53468588D01*
X46262809Y-53468588D02*
X46805666Y-54154302D01*
X46805666Y-54154302D02*
X46217571Y-54154302D01*
X45358047Y-52954302D02*
X45810428Y-52954302D01*
X45810428Y-52954302D02*
X45855666Y-53525731D01*
X45855666Y-53525731D02*
X45810428Y-53468588D01*
X45810428Y-53468588D02*
X45719952Y-53411445D01*
X45719952Y-53411445D02*
X45493761Y-53411445D01*
X45493761Y-53411445D02*
X45403285Y-53468588D01*
X45403285Y-53468588D02*
X45358047Y-53525731D01*
X45358047Y-53525731D02*
X45312809Y-53640017D01*
X45312809Y-53640017D02*
X45312809Y-53925731D01*
X45312809Y-53925731D02*
X45358047Y-54040017D01*
X45358047Y-54040017D02*
X45403285Y-54097160D01*
X45403285Y-54097160D02*
X45493761Y-54154302D01*
X45493761Y-54154302D02*
X45719952Y-54154302D01*
X45719952Y-54154302D02*
X45810428Y-54097160D01*
X45810428Y-54097160D02*
X45855666Y-54040017D01*
X34057095Y-84752217D02*
X34102333Y-84809360D01*
X34102333Y-84809360D02*
X34238047Y-84866502D01*
X34238047Y-84866502D02*
X34328523Y-84866502D01*
X34328523Y-84866502D02*
X34464238Y-84809360D01*
X34464238Y-84809360D02*
X34554714Y-84695074D01*
X34554714Y-84695074D02*
X34599952Y-84580788D01*
X34599952Y-84580788D02*
X34645190Y-84352217D01*
X34645190Y-84352217D02*
X34645190Y-84180788D01*
X34645190Y-84180788D02*
X34599952Y-83952217D01*
X34599952Y-83952217D02*
X34554714Y-83837931D01*
X34554714Y-83837931D02*
X34464238Y-83723645D01*
X34464238Y-83723645D02*
X34328523Y-83666502D01*
X34328523Y-83666502D02*
X34238047Y-83666502D01*
X34238047Y-83666502D02*
X34102333Y-83723645D01*
X34102333Y-83723645D02*
X34057095Y-83780788D01*
X33152333Y-84866502D02*
X33695190Y-84866502D01*
X33423762Y-84866502D02*
X33423762Y-83666502D01*
X33423762Y-83666502D02*
X33514238Y-83837931D01*
X33514238Y-83837931D02*
X33604714Y-83952217D01*
X33604714Y-83952217D02*
X33695190Y-84009360D01*
X32835666Y-83666502D02*
X32247571Y-83666502D01*
X32247571Y-83666502D02*
X32564238Y-84123645D01*
X32564238Y-84123645D02*
X32428523Y-84123645D01*
X32428523Y-84123645D02*
X32338047Y-84180788D01*
X32338047Y-84180788D02*
X32292809Y-84237931D01*
X32292809Y-84237931D02*
X32247571Y-84352217D01*
X32247571Y-84352217D02*
X32247571Y-84637931D01*
X32247571Y-84637931D02*
X32292809Y-84752217D01*
X32292809Y-84752217D02*
X32338047Y-84809360D01*
X32338047Y-84809360D02*
X32428523Y-84866502D01*
X32428523Y-84866502D02*
X32699952Y-84866502D01*
X32699952Y-84866502D02*
X32790428Y-84809360D01*
X32790428Y-84809360D02*
X32835666Y-84752217D01*
X31388047Y-83666502D02*
X31840428Y-83666502D01*
X31840428Y-83666502D02*
X31885666Y-84237931D01*
X31885666Y-84237931D02*
X31840428Y-84180788D01*
X31840428Y-84180788D02*
X31749952Y-84123645D01*
X31749952Y-84123645D02*
X31523761Y-84123645D01*
X31523761Y-84123645D02*
X31433285Y-84180788D01*
X31433285Y-84180788D02*
X31388047Y-84237931D01*
X31388047Y-84237931D02*
X31342809Y-84352217D01*
X31342809Y-84352217D02*
X31342809Y-84637931D01*
X31342809Y-84637931D02*
X31388047Y-84752217D01*
X31388047Y-84752217D02*
X31433285Y-84809360D01*
X31433285Y-84809360D02*
X31523761Y-84866502D01*
X31523761Y-84866502D02*
X31749952Y-84866502D01*
X31749952Y-84866502D02*
X31840428Y-84809360D01*
X31840428Y-84809360D02*
X31885666Y-84752217D01*
X57556017Y-56761304D02*
X57613160Y-56716066D01*
X57613160Y-56716066D02*
X57670302Y-56580352D01*
X57670302Y-56580352D02*
X57670302Y-56489876D01*
X57670302Y-56489876D02*
X57613160Y-56354161D01*
X57613160Y-56354161D02*
X57498874Y-56263685D01*
X57498874Y-56263685D02*
X57384588Y-56218447D01*
X57384588Y-56218447D02*
X57156017Y-56173209D01*
X57156017Y-56173209D02*
X56984588Y-56173209D01*
X56984588Y-56173209D02*
X56756017Y-56218447D01*
X56756017Y-56218447D02*
X56641731Y-56263685D01*
X56641731Y-56263685D02*
X56527445Y-56354161D01*
X56527445Y-56354161D02*
X56470302Y-56489876D01*
X56470302Y-56489876D02*
X56470302Y-56580352D01*
X56470302Y-56580352D02*
X56527445Y-56716066D01*
X56527445Y-56716066D02*
X56584588Y-56761304D01*
X57670302Y-57666066D02*
X57670302Y-57123209D01*
X57670302Y-57394637D02*
X56470302Y-57394637D01*
X56470302Y-57394637D02*
X56641731Y-57304161D01*
X56641731Y-57304161D02*
X56756017Y-57213685D01*
X56756017Y-57213685D02*
X56813160Y-57123209D01*
X56584588Y-58027971D02*
X56527445Y-58073209D01*
X56527445Y-58073209D02*
X56470302Y-58163685D01*
X56470302Y-58163685D02*
X56470302Y-58389876D01*
X56470302Y-58389876D02*
X56527445Y-58480352D01*
X56527445Y-58480352D02*
X56584588Y-58525590D01*
X56584588Y-58525590D02*
X56698874Y-58570828D01*
X56698874Y-58570828D02*
X56813160Y-58570828D01*
X56813160Y-58570828D02*
X56984588Y-58525590D01*
X56984588Y-58525590D02*
X57670302Y-57982733D01*
X57670302Y-57982733D02*
X57670302Y-58570828D01*
X56470302Y-58887495D02*
X56470302Y-59520828D01*
X56470302Y-59520828D02*
X57670302Y-59113685D01*
X82367895Y-55767217D02*
X82413133Y-55824360D01*
X82413133Y-55824360D02*
X82548847Y-55881502D01*
X82548847Y-55881502D02*
X82639323Y-55881502D01*
X82639323Y-55881502D02*
X82775038Y-55824360D01*
X82775038Y-55824360D02*
X82865514Y-55710074D01*
X82865514Y-55710074D02*
X82910752Y-55595788D01*
X82910752Y-55595788D02*
X82955990Y-55367217D01*
X82955990Y-55367217D02*
X82955990Y-55195788D01*
X82955990Y-55195788D02*
X82910752Y-54967217D01*
X82910752Y-54967217D02*
X82865514Y-54852931D01*
X82865514Y-54852931D02*
X82775038Y-54738645D01*
X82775038Y-54738645D02*
X82639323Y-54681502D01*
X82639323Y-54681502D02*
X82548847Y-54681502D01*
X82548847Y-54681502D02*
X82413133Y-54738645D01*
X82413133Y-54738645D02*
X82367895Y-54795788D01*
X81463133Y-55881502D02*
X82005990Y-55881502D01*
X81734562Y-55881502D02*
X81734562Y-54681502D01*
X81734562Y-54681502D02*
X81825038Y-54852931D01*
X81825038Y-54852931D02*
X81915514Y-54967217D01*
X81915514Y-54967217D02*
X82005990Y-55024360D01*
X80875038Y-54681502D02*
X80784561Y-54681502D01*
X80784561Y-54681502D02*
X80694085Y-54738645D01*
X80694085Y-54738645D02*
X80648847Y-54795788D01*
X80648847Y-54795788D02*
X80603609Y-54910074D01*
X80603609Y-54910074D02*
X80558371Y-55138645D01*
X80558371Y-55138645D02*
X80558371Y-55424360D01*
X80558371Y-55424360D02*
X80603609Y-55652931D01*
X80603609Y-55652931D02*
X80648847Y-55767217D01*
X80648847Y-55767217D02*
X80694085Y-55824360D01*
X80694085Y-55824360D02*
X80784561Y-55881502D01*
X80784561Y-55881502D02*
X80875038Y-55881502D01*
X80875038Y-55881502D02*
X80965514Y-55824360D01*
X80965514Y-55824360D02*
X81010752Y-55767217D01*
X81010752Y-55767217D02*
X81055990Y-55652931D01*
X81055990Y-55652931D02*
X81101228Y-55424360D01*
X81101228Y-55424360D02*
X81101228Y-55138645D01*
X81101228Y-55138645D02*
X81055990Y-54910074D01*
X81055990Y-54910074D02*
X81010752Y-54795788D01*
X81010752Y-54795788D02*
X80965514Y-54738645D01*
X80965514Y-54738645D02*
X80875038Y-54681502D01*
X80241704Y-54681502D02*
X79653609Y-54681502D01*
X79653609Y-54681502D02*
X79970276Y-55138645D01*
X79970276Y-55138645D02*
X79834561Y-55138645D01*
X79834561Y-55138645D02*
X79744085Y-55195788D01*
X79744085Y-55195788D02*
X79698847Y-55252931D01*
X79698847Y-55252931D02*
X79653609Y-55367217D01*
X79653609Y-55367217D02*
X79653609Y-55652931D01*
X79653609Y-55652931D02*
X79698847Y-55767217D01*
X79698847Y-55767217D02*
X79744085Y-55824360D01*
X79744085Y-55824360D02*
X79834561Y-55881502D01*
X79834561Y-55881502D02*
X80105990Y-55881502D01*
X80105990Y-55881502D02*
X80196466Y-55824360D01*
X80196466Y-55824360D02*
X80241704Y-55767217D01*
X52679217Y-52748104D02*
X52736360Y-52702866D01*
X52736360Y-52702866D02*
X52793502Y-52567152D01*
X52793502Y-52567152D02*
X52793502Y-52476676D01*
X52793502Y-52476676D02*
X52736360Y-52340961D01*
X52736360Y-52340961D02*
X52622074Y-52250485D01*
X52622074Y-52250485D02*
X52507788Y-52205247D01*
X52507788Y-52205247D02*
X52279217Y-52160009D01*
X52279217Y-52160009D02*
X52107788Y-52160009D01*
X52107788Y-52160009D02*
X51879217Y-52205247D01*
X51879217Y-52205247D02*
X51764931Y-52250485D01*
X51764931Y-52250485D02*
X51650645Y-52340961D01*
X51650645Y-52340961D02*
X51593502Y-52476676D01*
X51593502Y-52476676D02*
X51593502Y-52567152D01*
X51593502Y-52567152D02*
X51650645Y-52702866D01*
X51650645Y-52702866D02*
X51707788Y-52748104D01*
X52793502Y-53652866D02*
X52793502Y-53110009D01*
X52793502Y-53381437D02*
X51593502Y-53381437D01*
X51593502Y-53381437D02*
X51764931Y-53290961D01*
X51764931Y-53290961D02*
X51879217Y-53200485D01*
X51879217Y-53200485D02*
X51936360Y-53110009D01*
X51593502Y-54512390D02*
X51593502Y-54060009D01*
X51593502Y-54060009D02*
X52164931Y-54014771D01*
X52164931Y-54014771D02*
X52107788Y-54060009D01*
X52107788Y-54060009D02*
X52050645Y-54150485D01*
X52050645Y-54150485D02*
X52050645Y-54376676D01*
X52050645Y-54376676D02*
X52107788Y-54467152D01*
X52107788Y-54467152D02*
X52164931Y-54512390D01*
X52164931Y-54512390D02*
X52279217Y-54557628D01*
X52279217Y-54557628D02*
X52564931Y-54557628D01*
X52564931Y-54557628D02*
X52679217Y-54512390D01*
X52679217Y-54512390D02*
X52736360Y-54467152D01*
X52736360Y-54467152D02*
X52793502Y-54376676D01*
X52793502Y-54376676D02*
X52793502Y-54150485D01*
X52793502Y-54150485D02*
X52736360Y-54060009D01*
X52736360Y-54060009D02*
X52679217Y-54014771D01*
X51993502Y-55371914D02*
X52793502Y-55371914D01*
X51536360Y-55145723D02*
X52393502Y-54919533D01*
X52393502Y-54919533D02*
X52393502Y-55507628D01*
X92506417Y-49496904D02*
X92563560Y-49451666D01*
X92563560Y-49451666D02*
X92620702Y-49315952D01*
X92620702Y-49315952D02*
X92620702Y-49225476D01*
X92620702Y-49225476D02*
X92563560Y-49089761D01*
X92563560Y-49089761D02*
X92449274Y-48999285D01*
X92449274Y-48999285D02*
X92334988Y-48954047D01*
X92334988Y-48954047D02*
X92106417Y-48908809D01*
X92106417Y-48908809D02*
X91934988Y-48908809D01*
X91934988Y-48908809D02*
X91706417Y-48954047D01*
X91706417Y-48954047D02*
X91592131Y-48999285D01*
X91592131Y-48999285D02*
X91477845Y-49089761D01*
X91477845Y-49089761D02*
X91420702Y-49225476D01*
X91420702Y-49225476D02*
X91420702Y-49315952D01*
X91420702Y-49315952D02*
X91477845Y-49451666D01*
X91477845Y-49451666D02*
X91534988Y-49496904D01*
X92620702Y-50401666D02*
X92620702Y-49858809D01*
X92620702Y-50130237D02*
X91420702Y-50130237D01*
X91420702Y-50130237D02*
X91592131Y-50039761D01*
X91592131Y-50039761D02*
X91706417Y-49949285D01*
X91706417Y-49949285D02*
X91763560Y-49858809D01*
X91534988Y-50763571D02*
X91477845Y-50808809D01*
X91477845Y-50808809D02*
X91420702Y-50899285D01*
X91420702Y-50899285D02*
X91420702Y-51125476D01*
X91420702Y-51125476D02*
X91477845Y-51215952D01*
X91477845Y-51215952D02*
X91534988Y-51261190D01*
X91534988Y-51261190D02*
X91649274Y-51306428D01*
X91649274Y-51306428D02*
X91763560Y-51306428D01*
X91763560Y-51306428D02*
X91934988Y-51261190D01*
X91934988Y-51261190D02*
X92620702Y-50718333D01*
X92620702Y-50718333D02*
X92620702Y-51306428D01*
X91934988Y-51849285D02*
X91877845Y-51758809D01*
X91877845Y-51758809D02*
X91820702Y-51713571D01*
X91820702Y-51713571D02*
X91706417Y-51668333D01*
X91706417Y-51668333D02*
X91649274Y-51668333D01*
X91649274Y-51668333D02*
X91534988Y-51713571D01*
X91534988Y-51713571D02*
X91477845Y-51758809D01*
X91477845Y-51758809D02*
X91420702Y-51849285D01*
X91420702Y-51849285D02*
X91420702Y-52030238D01*
X91420702Y-52030238D02*
X91477845Y-52120714D01*
X91477845Y-52120714D02*
X91534988Y-52165952D01*
X91534988Y-52165952D02*
X91649274Y-52211190D01*
X91649274Y-52211190D02*
X91706417Y-52211190D01*
X91706417Y-52211190D02*
X91820702Y-52165952D01*
X91820702Y-52165952D02*
X91877845Y-52120714D01*
X91877845Y-52120714D02*
X91934988Y-52030238D01*
X91934988Y-52030238D02*
X91934988Y-51849285D01*
X91934988Y-51849285D02*
X91992131Y-51758809D01*
X91992131Y-51758809D02*
X92049274Y-51713571D01*
X92049274Y-51713571D02*
X92163560Y-51668333D01*
X92163560Y-51668333D02*
X92392131Y-51668333D01*
X92392131Y-51668333D02*
X92506417Y-51713571D01*
X92506417Y-51713571D02*
X92563560Y-51758809D01*
X92563560Y-51758809D02*
X92620702Y-51849285D01*
X92620702Y-51849285D02*
X92620702Y-52030238D01*
X92620702Y-52030238D02*
X92563560Y-52120714D01*
X92563560Y-52120714D02*
X92506417Y-52165952D01*
X92506417Y-52165952D02*
X92392131Y-52211190D01*
X92392131Y-52211190D02*
X92163560Y-52211190D01*
X92163560Y-52211190D02*
X92049274Y-52165952D01*
X92049274Y-52165952D02*
X91992131Y-52120714D01*
X91992131Y-52120714D02*
X91934988Y-52030238D01*
X100532817Y-50055704D02*
X100589960Y-50010466D01*
X100589960Y-50010466D02*
X100647102Y-49874752D01*
X100647102Y-49874752D02*
X100647102Y-49784276D01*
X100647102Y-49784276D02*
X100589960Y-49648561D01*
X100589960Y-49648561D02*
X100475674Y-49558085D01*
X100475674Y-49558085D02*
X100361388Y-49512847D01*
X100361388Y-49512847D02*
X100132817Y-49467609D01*
X100132817Y-49467609D02*
X99961388Y-49467609D01*
X99961388Y-49467609D02*
X99732817Y-49512847D01*
X99732817Y-49512847D02*
X99618531Y-49558085D01*
X99618531Y-49558085D02*
X99504245Y-49648561D01*
X99504245Y-49648561D02*
X99447102Y-49784276D01*
X99447102Y-49784276D02*
X99447102Y-49874752D01*
X99447102Y-49874752D02*
X99504245Y-50010466D01*
X99504245Y-50010466D02*
X99561388Y-50055704D01*
X100647102Y-50960466D02*
X100647102Y-50417609D01*
X100647102Y-50689037D02*
X99447102Y-50689037D01*
X99447102Y-50689037D02*
X99618531Y-50598561D01*
X99618531Y-50598561D02*
X99732817Y-50508085D01*
X99732817Y-50508085D02*
X99789960Y-50417609D01*
X100647102Y-51865228D02*
X100647102Y-51322371D01*
X100647102Y-51593799D02*
X99447102Y-51593799D01*
X99447102Y-51593799D02*
X99618531Y-51503323D01*
X99618531Y-51503323D02*
X99732817Y-51412847D01*
X99732817Y-51412847D02*
X99789960Y-51322371D01*
X99447102Y-52181895D02*
X99447102Y-52769990D01*
X99447102Y-52769990D02*
X99904245Y-52453323D01*
X99904245Y-52453323D02*
X99904245Y-52589038D01*
X99904245Y-52589038D02*
X99961388Y-52679514D01*
X99961388Y-52679514D02*
X100018531Y-52724752D01*
X100018531Y-52724752D02*
X100132817Y-52769990D01*
X100132817Y-52769990D02*
X100418531Y-52769990D01*
X100418531Y-52769990D02*
X100532817Y-52724752D01*
X100532817Y-52724752D02*
X100589960Y-52679514D01*
X100589960Y-52679514D02*
X100647102Y-52589038D01*
X100647102Y-52589038D02*
X100647102Y-52317609D01*
X100647102Y-52317609D02*
X100589960Y-52227133D01*
X100589960Y-52227133D02*
X100532817Y-52181895D01*
X59334017Y-56710504D02*
X59391160Y-56665266D01*
X59391160Y-56665266D02*
X59448302Y-56529552D01*
X59448302Y-56529552D02*
X59448302Y-56439076D01*
X59448302Y-56439076D02*
X59391160Y-56303361D01*
X59391160Y-56303361D02*
X59276874Y-56212885D01*
X59276874Y-56212885D02*
X59162588Y-56167647D01*
X59162588Y-56167647D02*
X58934017Y-56122409D01*
X58934017Y-56122409D02*
X58762588Y-56122409D01*
X58762588Y-56122409D02*
X58534017Y-56167647D01*
X58534017Y-56167647D02*
X58419731Y-56212885D01*
X58419731Y-56212885D02*
X58305445Y-56303361D01*
X58305445Y-56303361D02*
X58248302Y-56439076D01*
X58248302Y-56439076D02*
X58248302Y-56529552D01*
X58248302Y-56529552D02*
X58305445Y-56665266D01*
X58305445Y-56665266D02*
X58362588Y-56710504D01*
X59448302Y-57615266D02*
X59448302Y-57072409D01*
X59448302Y-57343837D02*
X58248302Y-57343837D01*
X58248302Y-57343837D02*
X58419731Y-57253361D01*
X58419731Y-57253361D02*
X58534017Y-57162885D01*
X58534017Y-57162885D02*
X58591160Y-57072409D01*
X58648302Y-58429552D02*
X59448302Y-58429552D01*
X58191160Y-58203361D02*
X59048302Y-57977171D01*
X59048302Y-57977171D02*
X59048302Y-58565266D01*
X58248302Y-59108123D02*
X58248302Y-59198600D01*
X58248302Y-59198600D02*
X58305445Y-59289076D01*
X58305445Y-59289076D02*
X58362588Y-59334314D01*
X58362588Y-59334314D02*
X58476874Y-59379552D01*
X58476874Y-59379552D02*
X58705445Y-59424790D01*
X58705445Y-59424790D02*
X58991160Y-59424790D01*
X58991160Y-59424790D02*
X59219731Y-59379552D01*
X59219731Y-59379552D02*
X59334017Y-59334314D01*
X59334017Y-59334314D02*
X59391160Y-59289076D01*
X59391160Y-59289076D02*
X59448302Y-59198600D01*
X59448302Y-59198600D02*
X59448302Y-59108123D01*
X59448302Y-59108123D02*
X59391160Y-59017647D01*
X59391160Y-59017647D02*
X59334017Y-58972409D01*
X59334017Y-58972409D02*
X59219731Y-58927171D01*
X59219731Y-58927171D02*
X58991160Y-58881933D01*
X58991160Y-58881933D02*
X58705445Y-58881933D01*
X58705445Y-58881933D02*
X58476874Y-58927171D01*
X58476874Y-58927171D02*
X58362588Y-58972409D01*
X58362588Y-58972409D02*
X58305445Y-59017647D01*
X58305445Y-59017647D02*
X58248302Y-59108123D01*
X61823217Y-46804504D02*
X61880360Y-46759266D01*
X61880360Y-46759266D02*
X61937502Y-46623552D01*
X61937502Y-46623552D02*
X61937502Y-46533076D01*
X61937502Y-46533076D02*
X61880360Y-46397361D01*
X61880360Y-46397361D02*
X61766074Y-46306885D01*
X61766074Y-46306885D02*
X61651788Y-46261647D01*
X61651788Y-46261647D02*
X61423217Y-46216409D01*
X61423217Y-46216409D02*
X61251788Y-46216409D01*
X61251788Y-46216409D02*
X61023217Y-46261647D01*
X61023217Y-46261647D02*
X60908931Y-46306885D01*
X60908931Y-46306885D02*
X60794645Y-46397361D01*
X60794645Y-46397361D02*
X60737502Y-46533076D01*
X60737502Y-46533076D02*
X60737502Y-46623552D01*
X60737502Y-46623552D02*
X60794645Y-46759266D01*
X60794645Y-46759266D02*
X60851788Y-46804504D01*
X61937502Y-47709266D02*
X61937502Y-47166409D01*
X61937502Y-47437837D02*
X60737502Y-47437837D01*
X60737502Y-47437837D02*
X60908931Y-47347361D01*
X60908931Y-47347361D02*
X61023217Y-47256885D01*
X61023217Y-47256885D02*
X61080360Y-47166409D01*
X60851788Y-48071171D02*
X60794645Y-48116409D01*
X60794645Y-48116409D02*
X60737502Y-48206885D01*
X60737502Y-48206885D02*
X60737502Y-48433076D01*
X60737502Y-48433076D02*
X60794645Y-48523552D01*
X60794645Y-48523552D02*
X60851788Y-48568790D01*
X60851788Y-48568790D02*
X60966074Y-48614028D01*
X60966074Y-48614028D02*
X61080360Y-48614028D01*
X61080360Y-48614028D02*
X61251788Y-48568790D01*
X61251788Y-48568790D02*
X61937502Y-48025933D01*
X61937502Y-48025933D02*
X61937502Y-48614028D01*
X60851788Y-48975933D02*
X60794645Y-49021171D01*
X60794645Y-49021171D02*
X60737502Y-49111647D01*
X60737502Y-49111647D02*
X60737502Y-49337838D01*
X60737502Y-49337838D02*
X60794645Y-49428314D01*
X60794645Y-49428314D02*
X60851788Y-49473552D01*
X60851788Y-49473552D02*
X60966074Y-49518790D01*
X60966074Y-49518790D02*
X61080360Y-49518790D01*
X61080360Y-49518790D02*
X61251788Y-49473552D01*
X61251788Y-49473552D02*
X61937502Y-48930695D01*
X61937502Y-48930695D02*
X61937502Y-49518790D01*
X51964095Y-47512217D02*
X52009333Y-47569360D01*
X52009333Y-47569360D02*
X52145047Y-47626502D01*
X52145047Y-47626502D02*
X52235523Y-47626502D01*
X52235523Y-47626502D02*
X52371238Y-47569360D01*
X52371238Y-47569360D02*
X52461714Y-47455074D01*
X52461714Y-47455074D02*
X52506952Y-47340788D01*
X52506952Y-47340788D02*
X52552190Y-47112217D01*
X52552190Y-47112217D02*
X52552190Y-46940788D01*
X52552190Y-46940788D02*
X52506952Y-46712217D01*
X52506952Y-46712217D02*
X52461714Y-46597931D01*
X52461714Y-46597931D02*
X52371238Y-46483645D01*
X52371238Y-46483645D02*
X52235523Y-46426502D01*
X52235523Y-46426502D02*
X52145047Y-46426502D01*
X52145047Y-46426502D02*
X52009333Y-46483645D01*
X52009333Y-46483645D02*
X51964095Y-46540788D01*
X51059333Y-47626502D02*
X51602190Y-47626502D01*
X51330762Y-47626502D02*
X51330762Y-46426502D01*
X51330762Y-46426502D02*
X51421238Y-46597931D01*
X51421238Y-46597931D02*
X51511714Y-46712217D01*
X51511714Y-46712217D02*
X51602190Y-46769360D01*
X50697428Y-46540788D02*
X50652190Y-46483645D01*
X50652190Y-46483645D02*
X50561714Y-46426502D01*
X50561714Y-46426502D02*
X50335523Y-46426502D01*
X50335523Y-46426502D02*
X50245047Y-46483645D01*
X50245047Y-46483645D02*
X50199809Y-46540788D01*
X50199809Y-46540788D02*
X50154571Y-46655074D01*
X50154571Y-46655074D02*
X50154571Y-46769360D01*
X50154571Y-46769360D02*
X50199809Y-46940788D01*
X50199809Y-46940788D02*
X50742666Y-47626502D01*
X50742666Y-47626502D02*
X50154571Y-47626502D01*
X49837904Y-46426502D02*
X49249809Y-46426502D01*
X49249809Y-46426502D02*
X49566476Y-46883645D01*
X49566476Y-46883645D02*
X49430761Y-46883645D01*
X49430761Y-46883645D02*
X49340285Y-46940788D01*
X49340285Y-46940788D02*
X49295047Y-46997931D01*
X49295047Y-46997931D02*
X49249809Y-47112217D01*
X49249809Y-47112217D02*
X49249809Y-47397931D01*
X49249809Y-47397931D02*
X49295047Y-47512217D01*
X49295047Y-47512217D02*
X49340285Y-47569360D01*
X49340285Y-47569360D02*
X49430761Y-47626502D01*
X49430761Y-47626502D02*
X49702190Y-47626502D01*
X49702190Y-47626502D02*
X49792666Y-47569360D01*
X49792666Y-47569360D02*
X49837904Y-47512217D01*
X82266295Y-46674017D02*
X82311533Y-46731160D01*
X82311533Y-46731160D02*
X82447247Y-46788302D01*
X82447247Y-46788302D02*
X82537723Y-46788302D01*
X82537723Y-46788302D02*
X82673438Y-46731160D01*
X82673438Y-46731160D02*
X82763914Y-46616874D01*
X82763914Y-46616874D02*
X82809152Y-46502588D01*
X82809152Y-46502588D02*
X82854390Y-46274017D01*
X82854390Y-46274017D02*
X82854390Y-46102588D01*
X82854390Y-46102588D02*
X82809152Y-45874017D01*
X82809152Y-45874017D02*
X82763914Y-45759731D01*
X82763914Y-45759731D02*
X82673438Y-45645445D01*
X82673438Y-45645445D02*
X82537723Y-45588302D01*
X82537723Y-45588302D02*
X82447247Y-45588302D01*
X82447247Y-45588302D02*
X82311533Y-45645445D01*
X82311533Y-45645445D02*
X82266295Y-45702588D01*
X81361533Y-46788302D02*
X81904390Y-46788302D01*
X81632962Y-46788302D02*
X81632962Y-45588302D01*
X81632962Y-45588302D02*
X81723438Y-45759731D01*
X81723438Y-45759731D02*
X81813914Y-45874017D01*
X81813914Y-45874017D02*
X81904390Y-45931160D01*
X80773438Y-45588302D02*
X80682961Y-45588302D01*
X80682961Y-45588302D02*
X80592485Y-45645445D01*
X80592485Y-45645445D02*
X80547247Y-45702588D01*
X80547247Y-45702588D02*
X80502009Y-45816874D01*
X80502009Y-45816874D02*
X80456771Y-46045445D01*
X80456771Y-46045445D02*
X80456771Y-46331160D01*
X80456771Y-46331160D02*
X80502009Y-46559731D01*
X80502009Y-46559731D02*
X80547247Y-46674017D01*
X80547247Y-46674017D02*
X80592485Y-46731160D01*
X80592485Y-46731160D02*
X80682961Y-46788302D01*
X80682961Y-46788302D02*
X80773438Y-46788302D01*
X80773438Y-46788302D02*
X80863914Y-46731160D01*
X80863914Y-46731160D02*
X80909152Y-46674017D01*
X80909152Y-46674017D02*
X80954390Y-46559731D01*
X80954390Y-46559731D02*
X80999628Y-46331160D01*
X80999628Y-46331160D02*
X80999628Y-46045445D01*
X80999628Y-46045445D02*
X80954390Y-45816874D01*
X80954390Y-45816874D02*
X80909152Y-45702588D01*
X80909152Y-45702588D02*
X80863914Y-45645445D01*
X80863914Y-45645445D02*
X80773438Y-45588302D01*
X79642485Y-45588302D02*
X79823438Y-45588302D01*
X79823438Y-45588302D02*
X79913914Y-45645445D01*
X79913914Y-45645445D02*
X79959152Y-45702588D01*
X79959152Y-45702588D02*
X80049628Y-45874017D01*
X80049628Y-45874017D02*
X80094866Y-46102588D01*
X80094866Y-46102588D02*
X80094866Y-46559731D01*
X80094866Y-46559731D02*
X80049628Y-46674017D01*
X80049628Y-46674017D02*
X80004390Y-46731160D01*
X80004390Y-46731160D02*
X79913914Y-46788302D01*
X79913914Y-46788302D02*
X79732961Y-46788302D01*
X79732961Y-46788302D02*
X79642485Y-46731160D01*
X79642485Y-46731160D02*
X79597247Y-46674017D01*
X79597247Y-46674017D02*
X79552009Y-46559731D01*
X79552009Y-46559731D02*
X79552009Y-46274017D01*
X79552009Y-46274017D02*
X79597247Y-46159731D01*
X79597247Y-46159731D02*
X79642485Y-46102588D01*
X79642485Y-46102588D02*
X79732961Y-46045445D01*
X79732961Y-46045445D02*
X79913914Y-46045445D01*
X79913914Y-46045445D02*
X80004390Y-46102588D01*
X80004390Y-46102588D02*
X80049628Y-46159731D01*
X80049628Y-46159731D02*
X80094866Y-46274017D01*
X59969017Y-46779104D02*
X60026160Y-46733866D01*
X60026160Y-46733866D02*
X60083302Y-46598152D01*
X60083302Y-46598152D02*
X60083302Y-46507676D01*
X60083302Y-46507676D02*
X60026160Y-46371961D01*
X60026160Y-46371961D02*
X59911874Y-46281485D01*
X59911874Y-46281485D02*
X59797588Y-46236247D01*
X59797588Y-46236247D02*
X59569017Y-46191009D01*
X59569017Y-46191009D02*
X59397588Y-46191009D01*
X59397588Y-46191009D02*
X59169017Y-46236247D01*
X59169017Y-46236247D02*
X59054731Y-46281485D01*
X59054731Y-46281485D02*
X58940445Y-46371961D01*
X58940445Y-46371961D02*
X58883302Y-46507676D01*
X58883302Y-46507676D02*
X58883302Y-46598152D01*
X58883302Y-46598152D02*
X58940445Y-46733866D01*
X58940445Y-46733866D02*
X58997588Y-46779104D01*
X60083302Y-47683866D02*
X60083302Y-47141009D01*
X60083302Y-47412437D02*
X58883302Y-47412437D01*
X58883302Y-47412437D02*
X59054731Y-47321961D01*
X59054731Y-47321961D02*
X59169017Y-47231485D01*
X59169017Y-47231485D02*
X59226160Y-47141009D01*
X59283302Y-48498152D02*
X60083302Y-48498152D01*
X58826160Y-48271961D02*
X59683302Y-48045771D01*
X59683302Y-48045771D02*
X59683302Y-48633866D01*
X60083302Y-49493390D02*
X60083302Y-48950533D01*
X60083302Y-49221961D02*
X58883302Y-49221961D01*
X58883302Y-49221961D02*
X59054731Y-49131485D01*
X59054731Y-49131485D02*
X59169017Y-49041009D01*
X59169017Y-49041009D02*
X59226160Y-48950533D01*
D11*
X46808248Y-58664200D02*
X47330752Y-58664200D01*
X46808248Y-60134200D02*
X47330752Y-60134200D01*
X84994248Y-52441200D02*
X85516752Y-52441200D01*
X84994248Y-53911200D02*
X85516752Y-53911200D01*
X89071000Y-58749952D02*
X89071000Y-58227448D01*
X90541000Y-58749952D02*
X90541000Y-58227448D01*
X84994248Y-58664200D02*
X85516752Y-58664200D01*
X84994248Y-60134200D02*
X85516752Y-60134200D01*
X84824248Y-41519200D02*
X85346752Y-41519200D01*
X84824248Y-42989200D02*
X85346752Y-42989200D01*
X101221752Y-58664200D02*
X100699248Y-58664200D01*
X101221752Y-60134200D02*
X100699248Y-60134200D01*
X42130748Y-84191200D02*
X42653252Y-84191200D01*
X42130748Y-85661200D02*
X42653252Y-85661200D01*
X56770000Y-52512448D02*
X56770000Y-53034952D01*
X58240000Y-52512448D02*
X58240000Y-53034952D01*
X46808248Y-56632200D02*
X47330752Y-56632200D01*
X46808248Y-58102200D02*
X47330752Y-58102200D01*
X84867248Y-47488200D02*
X85389752Y-47488200D01*
X84867248Y-48958200D02*
X85389752Y-48958200D01*
X33255252Y-79238200D02*
X32732748Y-79238200D01*
X33255252Y-80708200D02*
X32732748Y-80708200D01*
X84994248Y-56632200D02*
X85516752Y-56632200D01*
X84994248Y-58102200D02*
X85516752Y-58102200D01*
X101136000Y-46967448D02*
X101136000Y-47489952D01*
X102606000Y-46967448D02*
X102606000Y-47489952D01*
X95760752Y-58664200D02*
X95238248Y-58664200D01*
X95760752Y-60134200D02*
X95238248Y-60134200D01*
X46681248Y-49012200D02*
X47203752Y-49012200D01*
X46681248Y-50482200D02*
X47203752Y-50482200D01*
X89096000Y-54580452D02*
X89096000Y-54057948D01*
X90516000Y-54580452D02*
X90516000Y-54057948D01*
X101136000Y-42987448D02*
X101136000Y-43509952D01*
X102606000Y-42987448D02*
X102606000Y-43509952D01*
X46681248Y-51044200D02*
X47203752Y-51044200D01*
X46681248Y-52514200D02*
X47203752Y-52514200D01*
X33255252Y-81905200D02*
X32732748Y-81905200D01*
X33255252Y-83375200D02*
X32732748Y-83375200D01*
X52325000Y-58136452D02*
X52325000Y-57613948D01*
X53795000Y-58136452D02*
X53795000Y-57613948D01*
X84994248Y-54600200D02*
X85516752Y-54600200D01*
X84994248Y-56070200D02*
X85516752Y-56070200D01*
X49531000Y-54093952D02*
X49531000Y-53571448D01*
X51001000Y-54093952D02*
X51001000Y-53571448D01*
X91182000Y-54242948D02*
X91182000Y-55665452D01*
X93002000Y-54242948D02*
X93002000Y-55665452D01*
X101136000Y-50861448D02*
X101136000Y-51383952D01*
X102606000Y-50861448D02*
X102606000Y-51383952D01*
X54357000Y-58114952D02*
X54357000Y-57592448D01*
X55827000Y-58114952D02*
X55827000Y-57592448D01*
X56770000Y-47580948D02*
X56770000Y-48103452D01*
X58240000Y-47580948D02*
X58240000Y-48103452D01*
X46681248Y-46345200D02*
X47203752Y-46345200D01*
X46681248Y-47815200D02*
X47203752Y-47815200D01*
X84867248Y-45456200D02*
X85389752Y-45456200D01*
X84867248Y-46926200D02*
X85389752Y-46926200D01*
X54484000Y-47580948D02*
X54484000Y-48103452D01*
X55954000Y-47580948D02*
X55954000Y-48103452D01*
%LPC*%
D12*
X35506000Y-93750200D03*
X41286000Y-93750200D03*
D13*
X34076000Y-93250200D03*
D14*
X34076000Y-97430200D03*
D13*
X42716000Y-93250200D03*
D14*
X42716000Y-97430200D03*
D15*
X26396000Y-30755200D03*
D16*
X25755000Y-59399200D03*
D17*
X28295000Y-59399200D03*
X25755000Y-61939200D03*
X28295000Y-61939200D03*
X25755000Y-64479200D03*
X28295000Y-64479200D03*
X25755000Y-67019200D03*
X28295000Y-67019200D03*
X25755000Y-69559200D03*
X28295000Y-69559200D03*
X25755000Y-72099200D03*
X28295000Y-72099200D03*
X25755000Y-74639200D03*
X28295000Y-74639200D03*
X25755000Y-77179200D03*
X28295000Y-77179200D03*
X25755000Y-79719200D03*
X28295000Y-79719200D03*
X25755000Y-82259200D03*
X28295000Y-82259200D03*
D15*
X114396000Y-92755200D03*
D16*
X112242000Y-47207200D03*
D17*
X114782000Y-47207200D03*
X112242000Y-49747200D03*
X114782000Y-49747200D03*
X112242000Y-52287200D03*
X114782000Y-52287200D03*
X112242000Y-54827200D03*
X114782000Y-54827200D03*
X112242000Y-57367200D03*
X114782000Y-57367200D03*
D18*
X38201000Y-32856200D03*
D17*
X38201000Y-30316200D03*
X40741000Y-32856200D03*
X40741000Y-30316200D03*
X43281000Y-32856200D03*
X43281000Y-30316200D03*
X45821000Y-32856200D03*
X45821000Y-30316200D03*
X48361000Y-32856200D03*
X48361000Y-30316200D03*
D19*
X46032000Y-59399200D03*
X48107000Y-59399200D03*
X84218000Y-53176200D03*
X86293000Y-53176200D03*
D20*
X89806000Y-59526200D03*
X89806000Y-57451200D03*
D19*
X84218000Y-59399200D03*
X86293000Y-59399200D03*
X84048000Y-42254200D03*
X86123000Y-42254200D03*
D21*
X101998000Y-59399200D03*
X99923000Y-59399200D03*
D19*
X41354500Y-84926200D03*
X43429500Y-84926200D03*
D22*
X57505000Y-51736200D03*
X57505000Y-53811200D03*
D19*
X46032000Y-57367200D03*
X48107000Y-57367200D03*
X84091000Y-48223200D03*
X86166000Y-48223200D03*
D23*
X102396000Y-90755200D03*
D24*
X105696000Y-94055200D03*
X105696000Y-87455200D03*
X99096000Y-94055200D03*
X99096000Y-87455200D03*
D18*
X75793000Y-32856200D03*
D17*
X75793000Y-30316200D03*
X78333000Y-32856200D03*
X78333000Y-30316200D03*
X80873000Y-32856200D03*
X80873000Y-30316200D03*
X83413000Y-32856200D03*
X83413000Y-30316200D03*
X85953000Y-32856200D03*
X85953000Y-30316200D03*
D25*
X27914000Y-50509200D03*
D26*
X27914000Y-44159200D03*
D23*
X54396000Y-90755200D03*
D24*
X57696000Y-94055200D03*
X57696000Y-87455200D03*
X51096000Y-94055200D03*
X51096000Y-87455200D03*
D23*
X70396000Y-90755200D03*
D24*
X73696000Y-94055200D03*
X73696000Y-87455200D03*
X67096000Y-94055200D03*
X67096000Y-87455200D03*
D23*
X86396000Y-90755200D03*
D24*
X89696000Y-94055200D03*
X89696000Y-87455200D03*
X83096000Y-94055200D03*
X83096000Y-87455200D03*
D21*
X34031500Y-79973200D03*
X31956500Y-79973200D03*
D19*
X84218000Y-57367200D03*
X86293000Y-57367200D03*
D22*
X101871000Y-46191200D03*
X101871000Y-48266200D03*
D21*
X96537000Y-59399200D03*
X94462000Y-59399200D03*
D19*
X45905000Y-49747200D03*
X47980000Y-49747200D03*
D27*
X89806000Y-55344200D03*
X89806000Y-53294200D03*
D22*
X101871000Y-42211200D03*
X101871000Y-44286200D03*
D19*
X45905000Y-51779200D03*
X47980000Y-51779200D03*
D21*
X34031500Y-82640200D03*
X31956500Y-82640200D03*
D20*
X53060000Y-58912700D03*
X53060000Y-56837700D03*
D19*
X84218000Y-55335200D03*
X86293000Y-55335200D03*
D20*
X50266000Y-54870200D03*
X50266000Y-52795200D03*
D28*
X92092000Y-53391700D03*
X92092000Y-56516700D03*
D22*
X101871000Y-50085200D03*
X101871000Y-52160200D03*
D20*
X55092000Y-58891200D03*
X55092000Y-56816200D03*
D22*
X57505000Y-46804700D03*
X57505000Y-48879700D03*
D19*
X45905000Y-47080200D03*
X47980000Y-47080200D03*
X84091000Y-46191200D03*
X86166000Y-46191200D03*
D22*
X55219000Y-46804700D03*
X55219000Y-48879700D03*
D15*
X26396000Y-92755200D03*
X114396000Y-30755200D03*
%LPD*%
M02*
