M48
; DRILL file {KiCad 9.0.5} date 2025-10-23T20:15:50+0200
; FORMAT={-:-/ absolute / metric / decimal}
; #@! TF.CreationDate,2025-10-23T20:15:50+02:00
; #@! TF.GenerationSoftware,Kicad,Pcbnew,9.0.5
; #@! TF.FileFunction,Plated,1,4,PTH
FMAT,2
METRIC
; #@! TA.AperFunction,Plated,PTH,ViaDrill
T1C0.300
; #@! TA.AperFunction,Plated,PTH,ViaDrill
T2C0.500
; #@! TA.AperFunction,Plated,PTH,ComponentDrill
T3C0.650
; #@! TA.AperFunction,Plated,PTH,ComponentDrill
T4C1.000
; #@! TA.AperFunction,Plated,PTH,ComponentDrill
T5C1.300
; #@! TA.AperFunction,Plated,PTH,ComponentDrill
T6C2.300
; #@! TA.AperFunction,Plated,PTH,ComponentDrill
T7C3.200
%
G90
G05
T1
X23.977Y-54.7
X24.612Y-52.16
X26.009Y-52.16
X27.787Y-49.239
X27.914Y-47.334
X31.343Y-44.794
X31.47Y-48.223
X31.597Y-83.783
X31.978Y-46.572
X32.105Y-90.387
X32.232Y-84.418
X32.867Y-77.433
X33.121Y-53.811
X34.137Y-77.179
X34.518Y-56.732
X34.569Y-95.366
X34.899Y-54.954
X35.026Y-85.434
X35.153Y-79.719
X35.185Y-82.767
X35.28Y-80.653
X35.737Y-96.89
X36.804Y-85.513
X37.312Y-38.825
X37.312Y-40.857
X37.312Y-42.889
X37.312Y-44.921
X37.396Y-91.005
X37.896Y-90.255
X38.023Y-95.061
X38.709Y-59.907
X38.709Y-85.688
X38.734Y-97.55
X38.896Y-91.005
X39.217Y-56.732
X39.598Y-55.97
X39.646Y-90.255
X39.725Y-51.525
X39.852Y-58.891
X40.36Y-94.502
X40.995Y-54.827
X41.173Y-96.077
X41.884Y-58.764
X42.011Y-79.338
X42.011Y-80.481
X42.392Y-54.827
X42.392Y-84.291
X42.392Y-85.688
X42.392Y-95.162
X42.519Y-51.398
X43.027Y-59.907
X43.916Y-64.86
X43.916Y-76.925
X44.043Y-62.828
X44.384Y-59.45
X44.551Y-90.387
X44.678Y-84.926
X45.186Y-75.909
X45.567Y-78.195
X45.694Y-42.889
X45.821Y-53.412
X45.821Y-56.097
X45.948Y-73.877
X46.392Y-37.492
X46.583Y-38.952
X46.773Y-62.511
X46.942Y-47.08
X46.942Y-51.779
X46.952Y-72.861
X46.964Y-50.763
X46.964Y-58.637
X47.091Y-57.748
X47.102Y-56.67
X47.599Y-82.386
X47.628Y-62.701
X47.979Y-54.572
X48.234Y-42.762
X48.32Y-71.885
X48.575Y-62.828
X48.834Y-51.779
X48.854Y-52.786
X48.869Y-41.746
X48.996Y-74.131
X49.041Y-55.208
X49.123Y-49.366
X49.25Y-47.08
X49.25Y-48.35
X49.25Y-51.017
X49.377Y-50.128
X49.758Y-72.099
X49.758Y-73.623
X49.885Y-38.571
X50.266Y-53.938
X50.393Y-41.238
X50.647Y-43.778
X50.647Y-55.97
X50.901Y-50.89
X51.282Y-73.496
X51.536Y-46.445
X51.536Y-53.811
X51.536Y-57.748
X52.044Y-37.809
X52.171Y-50.89
X52.298Y-52.16
X52.552Y-46.445
X52.552Y-72.48
X53.06Y-61.812
X53.314Y-47.08
X53.949Y-48.985
X54.044Y-46.572
X54.076Y-53.557
X54.203Y-35.523
X54.33Y-75.02
X54.584Y-54.192
X55.092Y-54.827
X55.092Y-61.939
X55.346Y-83.275
X55.6Y-51.779
X55.981Y-54.573
X56.362Y-48.985
X56.362Y-53.811
X56.413Y-47.715
X56.743Y-54.954
X56.743Y-55.843
X57.1Y-59.375
X57.505Y-56.097
X57.759Y-57.494
X57.886Y-58.383
X58.013Y-56.732
X58.14Y-59.399
X58.267Y-45.81
X58.775Y-61.918
X60.68Y-52.795
X60.934Y-46.699
X60.934Y-88.101
X61.315Y-62.447
X61.442Y-53.049
X61.823Y-53.938
X61.871Y-54.748
X62.322Y-56.85
X62.331Y-37.809
X62.331Y-64.352
X62.458Y-49.239
X62.458Y-65.749
X62.585Y-50.89
X62.839Y-52.033
X62.902Y-66.829
X63.855Y-54.065
X64.236Y-54.827
X64.363Y-88.863
X64.617Y-67.019
X66.141Y-41.111
X68.14Y-62.701
X68.3Y-51.398
X68.3Y-54.065
X68.681Y-46.826
X68.784Y-83.34
X68.808Y-67.781
X69.062Y-59.653
X69.443Y-70.702
X69.57Y-40.476
X69.57Y-46.826
X69.57Y-54.319
X69.697Y-51.398
X70.332Y-77.941
X71.856Y-70.956
X73.253Y-71.464
X75.158Y-77.179
X75.793Y-46.826
X75.983Y-77.243
X76.428Y-56.224
X76.428Y-68.797
X76.809Y-41.238
X76.809Y-77.306
X76.974Y-57.964
X77.241Y-59.856
X77.571Y-51.144
X77.574Y-68.571
X77.698Y-77.306
X78.333Y-79.846
X78.46Y-43.905
X78.46Y-51.144
X78.587Y-77.306
X78.968Y-40.222
X79.349Y-78.809
X79.962Y-51.63
X80.365Y-43.27
X80.619Y-42.508
X80.619Y-45.302
X80.682Y-44.35
X80.746Y-51.906
X80.813Y-78.073
X80.873Y-39.587
X80.873Y-46.064
X81.0Y-61.304
X81.0Y-66.384
X81.254Y-77.306
X81.381Y-72.226
X81.634Y-59.913
X82.397Y-39.206
X83.172Y-62.454
X84.048Y-62.447
X84.429Y-63.844
X84.683Y-45.048
X84.683Y-64.987
X84.683Y-68.543
X84.786Y-83.276
X84.81Y-66.892
X84.937Y-67.781
X85.064Y-41.314
X85.064Y-42.254
X85.064Y-48.096
X85.129Y-46.191
X85.191Y-54.319
X85.191Y-58.256
X85.191Y-59.399
X85.255Y-53.176
X85.255Y-55.335
X85.635Y-65.178
X85.953Y-43.524
X86.08Y-44.921
X86.334Y-37.174
X86.461Y-77.941
X87.35Y-48.477
X87.35Y-55.335
X87.35Y-57.367
X87.35Y-58.764
X87.35Y-68.924
X87.401Y-43.55
X87.477Y-47.334
X87.477Y-53.303
X87.604Y-45.175
X87.731Y-59.653
X88.366Y-58.764
X88.445Y-38.753
X88.493Y-55.335
X88.62Y-37.809
X88.664Y-41.399
X88.772Y-42.28
X88.874Y-48.604
X89.015Y-62.399
X89.382Y-50.89
X89.509Y-47.207
X89.636Y-42.28
X89.763Y-58.637
X90.144Y-73.369
X90.247Y-67.363
X90.398Y-41.365
X90.398Y-48.477
X90.398Y-63.463
X90.525Y-74.131
X90.906Y-35.777
X91.033Y-45.683
X91.033Y-59.272
X91.16Y-58.002
X91.199Y-62.44
X91.414Y-36.793
X91.795Y-60.034
X91.922Y-58.637
X92.684Y-37.047
X92.811Y-75.147
X92.938Y-62.955
X93.179Y-87.974
X93.192Y-59.272
X93.344Y-57.977
X93.7Y-63.209
X93.7Y-66.13
X93.7Y-70.829
X93.7Y-72.734
X93.827Y-67.908
X94.208Y-62.447
X95.224Y-62.574
X95.732Y-63.844
X95.859Y-68.289
X95.986Y-62.828
X96.367Y-88.736
X97.256Y-41.365
X97.51Y-36.92
X97.637Y-59.399
X98.145Y-73.242
X98.399Y-36.92
X98.526Y-62.574
X99.796Y-44.032
X99.923Y-58.002
X100.558Y-48.223
X100.558Y-70.829
X100.685Y-49.874
X100.685Y-51.652
X100.685Y-63.463
X100.788Y-83.34
X100.812Y-65.876
X100.888Y-45.365
X100.939Y-64.606
X101.193Y-72.607
X101.32Y-53.303
X101.955Y-41.238
X101.955Y-58.256
X103.352Y-74.766
X104.876Y-45.81
X105.13Y-59.78
X105.181Y-61.228
X105.257Y-49.366
X105.257Y-55.335
X105.384Y-45.048
X106.781Y-78.195
X108.178Y-66.257
X108.178Y-71.21
X108.178Y-73.242
X108.305Y-68.162
X108.686Y-62.955
X108.94Y-64.352
X111.861Y-36.92
T2
X31.724Y-50.064
X35.026Y-61.558
X54.711Y-30.443
X54.711Y-33.491
X62.458Y-85.685
X90.441Y-50.636
X92.981Y-47.969
X93.642Y-53.493
X94.462Y-85.558
X95.775Y-50.636
X108.051Y-75.02
T4
X25.755Y-59.399
X25.755Y-61.939
X25.755Y-64.479
X25.755Y-67.019
X25.755Y-69.559
X25.755Y-72.099
X25.755Y-74.639
X25.755Y-77.179
X25.755Y-79.719
X25.755Y-82.259
X28.295Y-59.399
X28.295Y-61.939
X28.295Y-64.479
X28.295Y-67.019
X28.295Y-69.559
X28.295Y-72.099
X28.295Y-74.639
X28.295Y-77.179
X28.295Y-79.719
X28.295Y-82.259
X38.201Y-30.316
X38.201Y-32.856
X40.741Y-30.316
X40.741Y-32.856
X43.281Y-30.316
X43.281Y-32.856
X45.821Y-30.316
X45.821Y-32.856
X48.361Y-30.316
X48.361Y-32.856
X75.793Y-30.316
X75.793Y-32.856
X78.333Y-30.316
X78.333Y-32.856
X80.873Y-30.316
X80.873Y-32.856
X83.413Y-30.316
X83.413Y-32.856
X85.953Y-30.316
X85.953Y-32.856
X112.242Y-47.207
X112.242Y-49.747
X112.242Y-52.287
X112.242Y-54.827
X112.242Y-57.367
X114.782Y-47.207
X114.782Y-49.747
X114.782Y-52.287
X114.782Y-54.827
X114.782Y-57.367
T5
X54.396Y-90.755
X70.396Y-90.755
X86.396Y-90.755
X102.396Y-90.755
T6
X51.096Y-87.455
X51.096Y-94.055
X57.696Y-87.455
X57.696Y-94.055
X67.096Y-87.455
X67.096Y-94.055
X73.696Y-87.455
X73.696Y-94.055
X83.096Y-87.455
X83.096Y-94.055
X89.696Y-87.455
X89.696Y-94.055
X99.096Y-87.455
X99.096Y-94.055
X105.696Y-87.455
X105.696Y-94.055
T7
X26.396Y-30.755
X26.396Y-92.755
X114.396Y-30.755
X114.396Y-92.755
T3
X34.076Y-92.725G85X34.076Y-93.775
G05
X34.076Y-97.055G85X34.076Y-97.805
G05
X42.716Y-92.725G85X42.716Y-93.775
G05
X42.716Y-97.055G85X42.716Y-97.805
G05
M30
