%TF.GenerationSoftware,KiCad,Pcbnew,9.0.5*%
%TF.CreationDate,2025-10-23T02:28:37+02:00*%
%TF.ProjectId,main-board,6d61696e-2d62-46f6-9172-642e6b696361,1.0a*%
%TF.SameCoordinates,Original*%
%TF.FileFunction,Drillmap*%
%TF.FilePolarity,Positive*%
%FSLAX45Y45*%
G04 Gerber Fmt 4.5, Leading zero omitted, Abs format (unit mm)*
G04 Created by KiCad (PCBNEW 9.0.5) date 2025-10-23 02:28:37*
%MOMM*%
%LPD*%
G01*
G04 APERTURE LIST*
%ADD10C,0.050000*%
%ADD11C,0.200000*%
%ADD12C,0.100000*%
%ADD13C,0.130000*%
%ADD14C,0.230000*%
%ADD15C,0.320000*%
G04 APERTURE END LIST*
D10*
X5335920Y-11276200D02*
X5335920Y-3876200D01*
X5335920Y-11276200D02*
X6435920Y-11276200D01*
X15335920Y-3876200D02*
X15335920Y-11276200D01*
X6435920Y-11276200D02*
X7835920Y-11276200D01*
X15335920Y-11276200D02*
X7835920Y-11276200D01*
X5335920Y-3876200D02*
X15335920Y-3876200D01*
D11*
D12*
X5679020Y-6855700D02*
X5709020Y-6885700D01*
X5709020Y-6855700D02*
X5679020Y-6885700D01*
X5742520Y-6601700D02*
X5772520Y-6631700D01*
X5772520Y-6601700D02*
X5742520Y-6631700D01*
X5882220Y-6601700D02*
X5912220Y-6631700D01*
X5912220Y-6601700D02*
X5882220Y-6631700D01*
X6060020Y-6309600D02*
X6090020Y-6339600D01*
X6090020Y-6309600D02*
X6060020Y-6339600D01*
X6072720Y-6119100D02*
X6102720Y-6149100D01*
X6102720Y-6119100D02*
X6072720Y-6149100D01*
X6415620Y-5865100D02*
X6445620Y-5895100D01*
X6445620Y-5865100D02*
X6415620Y-5895100D01*
X6428320Y-6208000D02*
X6458320Y-6238000D01*
X6458320Y-6208000D02*
X6428320Y-6238000D01*
X6441020Y-9764000D02*
X6471020Y-9794000D01*
X6471020Y-9764000D02*
X6441020Y-9794000D01*
X6479120Y-6042900D02*
X6509120Y-6072900D01*
X6509120Y-6042900D02*
X6479120Y-6072900D01*
X6491820Y-10424400D02*
X6521820Y-10454400D01*
X6521820Y-10424400D02*
X6491820Y-10454400D01*
X6504520Y-9827500D02*
X6534520Y-9857500D01*
X6534520Y-9827500D02*
X6504520Y-9857500D01*
X6568020Y-9129000D02*
X6598020Y-9159000D01*
X6598020Y-9129000D02*
X6568020Y-9159000D01*
X6593420Y-6766800D02*
X6623420Y-6796800D01*
X6623420Y-6766800D02*
X6593420Y-6796800D01*
X6695020Y-9103600D02*
X6725020Y-9133600D01*
X6725020Y-9103600D02*
X6695020Y-9133600D01*
X6733120Y-7058900D02*
X6763120Y-7088900D01*
X6763120Y-7058900D02*
X6733120Y-7088900D01*
X6771220Y-6881100D02*
X6801220Y-6911100D01*
X6801220Y-6881100D02*
X6771220Y-6911100D01*
X6783920Y-9929100D02*
X6813920Y-9959100D01*
X6813920Y-9929100D02*
X6783920Y-9959100D01*
X6796620Y-9357600D02*
X6826620Y-9387600D01*
X6826620Y-9357600D02*
X6796620Y-9387600D01*
X6799820Y-9662400D02*
X6829820Y-9692400D01*
X6829820Y-9662400D02*
X6799820Y-9692400D01*
X6809320Y-9450950D02*
X6839320Y-9480950D01*
X6839320Y-9450950D02*
X6809320Y-9480950D01*
X6961720Y-9937000D02*
X6991720Y-9967000D01*
X6991720Y-9937000D02*
X6961720Y-9967000D01*
X7012520Y-5268200D02*
X7042520Y-5298200D01*
X7042520Y-5268200D02*
X7012520Y-5298200D01*
X7012520Y-5471400D02*
X7042520Y-5501400D01*
X7042520Y-5471400D02*
X7012520Y-5501400D01*
X7012520Y-5674600D02*
X7042520Y-5704600D01*
X7042520Y-5674600D02*
X7012520Y-5704600D01*
X7012520Y-5877800D02*
X7042520Y-5907800D01*
X7042520Y-5877800D02*
X7012520Y-5907800D01*
X7020920Y-10486200D02*
X7050920Y-10516200D01*
X7050920Y-10486200D02*
X7020920Y-10516200D01*
X7070920Y-10411200D02*
X7100920Y-10441200D01*
X7100920Y-10411200D02*
X7070920Y-10441200D01*
X7152220Y-7376400D02*
X7182220Y-7406400D01*
X7182220Y-7376400D02*
X7152220Y-7406400D01*
X7152220Y-9954500D02*
X7182220Y-9984500D01*
X7182220Y-9954500D02*
X7152220Y-9984500D01*
X7170920Y-10486200D02*
X7200920Y-10516200D01*
X7200920Y-10486200D02*
X7170920Y-10516200D01*
X7203020Y-7058900D02*
X7233020Y-7088900D01*
X7233020Y-7058900D02*
X7203020Y-7088900D01*
X7241120Y-6982700D02*
X7271120Y-7012700D01*
X7271120Y-6982700D02*
X7241120Y-7012700D01*
X7245920Y-10411200D02*
X7275920Y-10441200D01*
X7275920Y-10411200D02*
X7245920Y-10441200D01*
X7253820Y-6538200D02*
X7283820Y-6568200D01*
X7283820Y-6538200D02*
X7253820Y-6568200D01*
X7266520Y-7274800D02*
X7296520Y-7304800D01*
X7296520Y-7274800D02*
X7266520Y-7304800D01*
X7380820Y-6868400D02*
X7410820Y-6898400D01*
X7410820Y-6868400D02*
X7380820Y-6898400D01*
X7469720Y-7262100D02*
X7499720Y-7292100D01*
X7499720Y-7262100D02*
X7469720Y-7292100D01*
X7482420Y-9319500D02*
X7512420Y-9349500D01*
X7512420Y-9319500D02*
X7482420Y-9349500D01*
X7482420Y-9433800D02*
X7512420Y-9463800D01*
X7512420Y-9433800D02*
X7482420Y-9463800D01*
X7520520Y-6868400D02*
X7550520Y-6898400D01*
X7550520Y-6868400D02*
X7520520Y-6898400D01*
X7520520Y-9814800D02*
X7550520Y-9844800D01*
X7550520Y-9814800D02*
X7520520Y-9844800D01*
X7520520Y-9954500D02*
X7550520Y-9984500D01*
X7550520Y-9954500D02*
X7520520Y-9984500D01*
X7533220Y-6525500D02*
X7563220Y-6555500D01*
X7563220Y-6525500D02*
X7533220Y-6555500D01*
X7584020Y-7376400D02*
X7614020Y-7406400D01*
X7614020Y-7376400D02*
X7584020Y-7406400D01*
X7672920Y-7871700D02*
X7702920Y-7901700D01*
X7702920Y-7871700D02*
X7672920Y-7901700D01*
X7672920Y-9078200D02*
X7702920Y-9108200D01*
X7702920Y-9078200D02*
X7672920Y-9108200D01*
X7685620Y-7668500D02*
X7715620Y-7698500D01*
X7715620Y-7668500D02*
X7685620Y-7698500D01*
X7719757Y-7330700D02*
X7749757Y-7360700D01*
X7749757Y-7330700D02*
X7719757Y-7360700D01*
X7736420Y-10424400D02*
X7766420Y-10454400D01*
X7766420Y-10424400D02*
X7736420Y-10454400D01*
X7749120Y-9878300D02*
X7779120Y-9908300D01*
X7779120Y-9878300D02*
X7749120Y-9908300D01*
X7799920Y-8976600D02*
X7829920Y-9006600D01*
X7829920Y-8976600D02*
X7799920Y-9006600D01*
X7838020Y-9205200D02*
X7868020Y-9235200D01*
X7868020Y-9205200D02*
X7838020Y-9235200D01*
X7850720Y-5674600D02*
X7880720Y-5704600D01*
X7880720Y-5674600D02*
X7850720Y-5704600D01*
X7863420Y-6726845D02*
X7893420Y-6756845D01*
X7893420Y-6726845D02*
X7863420Y-6756845D01*
X7863420Y-6995400D02*
X7893420Y-7025400D01*
X7893420Y-6995400D02*
X7863420Y-7025400D01*
X7876120Y-8773400D02*
X7906120Y-8803400D01*
X7906120Y-8773400D02*
X7876120Y-8803400D01*
X7920570Y-5134850D02*
X7950570Y-5164850D01*
X7950570Y-5134850D02*
X7920570Y-5164850D01*
X7939620Y-5280900D02*
X7969620Y-5310900D01*
X7969620Y-5280900D02*
X7939620Y-5310900D01*
X7958670Y-7636750D02*
X7988670Y-7666750D01*
X7988670Y-7636750D02*
X7958670Y-7666750D01*
X7975570Y-6093700D02*
X8005570Y-6123700D01*
X8005570Y-6093700D02*
X7975570Y-6123700D01*
X7975570Y-6563600D02*
X8005570Y-6593600D01*
X8005570Y-6563600D02*
X7975570Y-6593600D01*
X7976557Y-8671800D02*
X8006557Y-8701800D01*
X8006557Y-8671800D02*
X7976557Y-8701800D01*
X7977720Y-6462000D02*
X8007720Y-6492000D01*
X8007720Y-6462000D02*
X7977720Y-6492000D01*
X7977720Y-7071600D02*
X8007720Y-7101600D01*
X8007720Y-7071600D02*
X7977720Y-7101600D01*
X7977720Y-7249400D02*
X8007720Y-7279400D01*
X8007720Y-7249400D02*
X7977720Y-7279400D01*
X7990420Y-7160500D02*
X8020420Y-7190500D01*
X8020420Y-7160500D02*
X7990420Y-7190500D01*
X8041220Y-9624300D02*
X8071220Y-9654300D01*
X8071220Y-9624300D02*
X8041220Y-9654300D01*
X8044120Y-7655800D02*
X8074120Y-7685800D01*
X8074120Y-7655800D02*
X8044120Y-7685800D01*
X8079249Y-6842929D02*
X8109249Y-6872929D01*
X8109249Y-6842929D02*
X8079249Y-6872929D01*
X8104720Y-5661900D02*
X8134720Y-5691900D01*
X8134720Y-5661900D02*
X8104720Y-5691900D01*
X8113357Y-8574163D02*
X8143357Y-8604163D01*
X8143357Y-8574163D02*
X8113357Y-8604163D01*
X8138857Y-7668500D02*
X8168857Y-7698500D01*
X8168857Y-7668500D02*
X8138857Y-7698500D01*
X8164740Y-6563600D02*
X8194740Y-6593600D01*
X8194740Y-6563600D02*
X8164740Y-6593600D01*
X8166682Y-6664245D02*
X8196682Y-6694245D01*
X8196682Y-6664245D02*
X8166682Y-6694245D01*
X8168220Y-5560300D02*
X8198220Y-5590300D01*
X8198220Y-5560300D02*
X8168220Y-5590300D01*
X8180920Y-8798800D02*
X8210920Y-8828800D01*
X8210920Y-8798800D02*
X8180920Y-8828800D01*
X8185420Y-6906500D02*
X8215420Y-6936500D01*
X8215420Y-6906500D02*
X8185420Y-6936500D01*
X8193620Y-6322300D02*
X8223620Y-6352300D01*
X8223620Y-6322300D02*
X8193620Y-6352300D01*
X8206320Y-6093700D02*
X8236320Y-6123700D01*
X8236320Y-6093700D02*
X8206320Y-6123700D01*
X8206320Y-6220700D02*
X8236320Y-6250700D01*
X8236320Y-6220700D02*
X8206320Y-6250700D01*
X8206320Y-6487400D02*
X8236320Y-6517400D01*
X8236320Y-6487400D02*
X8206320Y-6517400D01*
X8219020Y-6398500D02*
X8249020Y-6428500D01*
X8249020Y-6398500D02*
X8219020Y-6428500D01*
X8257120Y-8595600D02*
X8287120Y-8625600D01*
X8287120Y-8595600D02*
X8257120Y-8625600D01*
X8257120Y-8748000D02*
X8287120Y-8778000D01*
X8287120Y-8748000D02*
X8257120Y-8778000D01*
X8269820Y-5242800D02*
X8299820Y-5272800D01*
X8299820Y-5242800D02*
X8269820Y-5272800D01*
X8307920Y-6779500D02*
X8337920Y-6809500D01*
X8337920Y-6779500D02*
X8307920Y-6809500D01*
X8320620Y-5509500D02*
X8350620Y-5539500D01*
X8350620Y-5509500D02*
X8320620Y-5539500D01*
X8346020Y-5763500D02*
X8376020Y-5793500D01*
X8376020Y-5763500D02*
X8346020Y-5793500D01*
X8346020Y-6982700D02*
X8376020Y-7012700D01*
X8376020Y-6982700D02*
X8346020Y-7012700D01*
X8371420Y-6474700D02*
X8401420Y-6504700D01*
X8401420Y-6474700D02*
X8371420Y-6504700D01*
X8409520Y-8735300D02*
X8439520Y-8765300D01*
X8439520Y-8735300D02*
X8409520Y-8765300D01*
X8434920Y-6030200D02*
X8464920Y-6060200D01*
X8464920Y-6030200D02*
X8434920Y-6060200D01*
X8434920Y-6766800D02*
X8464920Y-6796800D01*
X8464920Y-6766800D02*
X8434920Y-6796800D01*
X8434920Y-7160500D02*
X8464920Y-7190500D01*
X8464920Y-7160500D02*
X8434920Y-7190500D01*
X8485720Y-5166600D02*
X8515720Y-5196600D01*
X8515720Y-5166600D02*
X8485720Y-5196600D01*
X8498420Y-6474700D02*
X8528420Y-6504700D01*
X8528420Y-6474700D02*
X8498420Y-6504700D01*
X8511120Y-6601700D02*
X8541120Y-6631700D01*
X8541120Y-6601700D02*
X8511120Y-6631700D01*
X8536520Y-6030200D02*
X8566520Y-6060200D01*
X8566520Y-6030200D02*
X8536520Y-6060200D01*
X8536520Y-8633700D02*
X8566520Y-8663700D01*
X8566520Y-8633700D02*
X8536520Y-8663700D01*
X8587320Y-7566900D02*
X8617320Y-7596900D01*
X8617320Y-7566900D02*
X8587320Y-7596900D01*
X8612720Y-6093700D02*
X8642720Y-6123700D01*
X8642720Y-6093700D02*
X8612720Y-6123700D01*
X8676220Y-6284200D02*
X8706220Y-6314200D01*
X8706220Y-6284200D02*
X8676220Y-6314200D01*
X8685720Y-6042900D02*
X8715720Y-6072900D01*
X8715720Y-6042900D02*
X8685720Y-6072900D01*
X8688920Y-6741400D02*
X8718920Y-6771400D01*
X8718920Y-6741400D02*
X8688920Y-6771400D01*
X8701620Y-4938000D02*
X8731620Y-4968000D01*
X8731620Y-4938000D02*
X8701620Y-4968000D01*
X8714320Y-8887700D02*
X8744320Y-8917700D01*
X8744320Y-8887700D02*
X8714320Y-8917700D01*
X8739720Y-6804900D02*
X8769720Y-6834900D01*
X8769720Y-6804900D02*
X8739720Y-6834900D01*
X8790520Y-6157200D02*
X8820520Y-6187200D01*
X8820520Y-6157200D02*
X8790520Y-6187200D01*
X8790520Y-6868400D02*
X8820520Y-6898400D01*
X8820520Y-6868400D02*
X8790520Y-6898400D01*
X8790520Y-7579600D02*
X8820520Y-7609600D01*
X8820520Y-7579600D02*
X8790520Y-7609600D01*
X8815920Y-9713200D02*
X8845920Y-9743200D01*
X8845920Y-9713200D02*
X8815920Y-9743200D01*
X8841320Y-6563600D02*
X8871320Y-6593600D01*
X8871320Y-6563600D02*
X8841320Y-6593600D01*
X8879420Y-6843000D02*
X8909420Y-6873000D01*
X8909420Y-6843000D02*
X8879420Y-6873000D01*
X8917520Y-6284200D02*
X8947520Y-6314200D01*
X8947520Y-6284200D02*
X8917520Y-6314200D01*
X8917520Y-6766800D02*
X8947520Y-6796800D01*
X8947520Y-6766800D02*
X8917520Y-6796800D01*
X8955620Y-6881100D02*
X8985620Y-6911100D01*
X8985620Y-6881100D02*
X8955620Y-6911100D01*
X8955620Y-6970000D02*
X8985620Y-7000000D01*
X8985620Y-6970000D02*
X8955620Y-7000000D01*
X8991320Y-7323200D02*
X9021320Y-7353200D01*
X9021320Y-7323200D02*
X8991320Y-7353200D01*
X9031820Y-6995400D02*
X9061820Y-7025400D01*
X9061820Y-6995400D02*
X9031820Y-7025400D01*
X9057220Y-7135100D02*
X9087220Y-7165100D01*
X9087220Y-7135100D02*
X9057220Y-7165100D01*
X9069920Y-7224000D02*
X9099920Y-7254000D01*
X9099920Y-7224000D02*
X9069920Y-7254000D01*
X9082620Y-7058900D02*
X9112620Y-7088900D01*
X9112620Y-7058900D02*
X9082620Y-7088900D01*
X9095320Y-7325600D02*
X9125320Y-7355600D01*
X9125320Y-7325600D02*
X9095320Y-7355600D01*
X9108020Y-5966700D02*
X9138020Y-5996700D01*
X9138020Y-5966700D02*
X9108020Y-5996700D01*
X9158820Y-7577450D02*
X9188820Y-7607450D01*
X9188820Y-7577450D02*
X9158820Y-7607450D01*
X9349320Y-6665200D02*
X9379320Y-6695200D01*
X9379320Y-6665200D02*
X9349320Y-6695200D01*
X9374720Y-6055600D02*
X9404720Y-6085600D01*
X9404720Y-6055600D02*
X9374720Y-6085600D01*
X9374720Y-10195800D02*
X9404720Y-10225800D01*
X9404720Y-10195800D02*
X9374720Y-10225800D01*
X9412820Y-7630400D02*
X9442820Y-7660400D01*
X9442820Y-7630400D02*
X9412820Y-7660400D01*
X9425520Y-6690600D02*
X9455520Y-6720600D01*
X9455520Y-6690600D02*
X9425520Y-6720600D01*
X9463620Y-6779500D02*
X9493620Y-6809500D01*
X9493620Y-6779500D02*
X9463620Y-6809500D01*
X9468371Y-6860451D02*
X9498371Y-6890451D01*
X9498371Y-6860451D02*
X9468371Y-6890451D01*
X9513520Y-7070700D02*
X9543520Y-7100700D01*
X9543520Y-7070700D02*
X9513520Y-7100700D01*
X9514420Y-5166600D02*
X9544420Y-5196600D01*
X9544420Y-5166600D02*
X9514420Y-5196600D01*
X9514420Y-7820900D02*
X9544420Y-7850900D01*
X9544420Y-7820900D02*
X9514420Y-7850900D01*
X9527120Y-6309600D02*
X9557120Y-6339600D01*
X9557120Y-6309600D02*
X9527120Y-6339600D01*
X9527120Y-7960600D02*
X9557120Y-7990600D01*
X9557120Y-7960600D02*
X9527120Y-7990600D01*
X9539820Y-6474700D02*
X9569820Y-6504700D01*
X9569820Y-6474700D02*
X9539820Y-6504700D01*
X9565220Y-6589000D02*
X9595220Y-6619000D01*
X9595220Y-6589000D02*
X9565220Y-6619000D01*
X9571570Y-8068550D02*
X9601570Y-8098550D01*
X9601570Y-8068550D02*
X9571570Y-8098550D01*
X9666820Y-6792200D02*
X9696820Y-6822200D01*
X9696820Y-6792200D02*
X9666820Y-6822200D01*
X9704920Y-6868400D02*
X9734920Y-6898400D01*
X9734920Y-6868400D02*
X9704920Y-6898400D01*
X9717620Y-10272000D02*
X9747620Y-10302000D01*
X9747620Y-10272000D02*
X9717620Y-10302000D01*
X9743020Y-8087600D02*
X9773020Y-8117600D01*
X9773020Y-8087600D02*
X9743020Y-8117600D01*
X9895420Y-5496800D02*
X9925420Y-5526800D01*
X9925420Y-5496800D02*
X9895420Y-5526800D01*
X10095320Y-7655800D02*
X10125320Y-7685800D01*
X10125320Y-7655800D02*
X10095320Y-7685800D01*
X10111320Y-6525500D02*
X10141320Y-6555500D01*
X10141320Y-6525500D02*
X10111320Y-6555500D01*
X10111320Y-6792200D02*
X10141320Y-6822200D01*
X10141320Y-6792200D02*
X10111320Y-6822200D01*
X10149420Y-6068300D02*
X10179420Y-6098300D01*
X10179420Y-6068300D02*
X10149420Y-6098300D01*
X10159720Y-9719694D02*
X10189720Y-9749694D01*
X10189720Y-9719694D02*
X10159720Y-9749694D01*
X10162120Y-8163800D02*
X10192120Y-8193800D01*
X10192120Y-8163800D02*
X10162120Y-8193800D01*
X10187520Y-7351000D02*
X10217520Y-7381000D01*
X10217520Y-7351000D02*
X10187520Y-7381000D01*
X10225620Y-8455900D02*
X10255620Y-8485900D01*
X10255620Y-8455900D02*
X10225620Y-8485900D01*
X10238320Y-5433300D02*
X10268320Y-5463300D01*
X10268320Y-5433300D02*
X10238320Y-5463300D01*
X10238320Y-6068300D02*
X10268320Y-6098300D01*
X10268320Y-6068300D02*
X10238320Y-6098300D01*
X10238320Y-6817600D02*
X10268320Y-6847600D01*
X10268320Y-6817600D02*
X10238320Y-6847600D01*
X10251020Y-6525500D02*
X10281020Y-6555500D01*
X10281020Y-6525500D02*
X10251020Y-6555500D01*
X10314520Y-9179800D02*
X10344520Y-9209800D01*
X10344520Y-9179800D02*
X10314520Y-9209800D01*
X10466920Y-8481300D02*
X10496920Y-8511300D01*
X10496920Y-8481300D02*
X10466920Y-8511300D01*
X10606620Y-8532100D02*
X10636620Y-8562100D01*
X10636620Y-8532100D02*
X10606620Y-8562100D01*
X10797120Y-9103600D02*
X10827120Y-9133600D01*
X10827120Y-9103600D02*
X10797120Y-9133600D01*
X10860620Y-6068300D02*
X10890620Y-6098300D01*
X10890620Y-6068300D02*
X10860620Y-6098300D01*
X10879670Y-9109950D02*
X10909670Y-9139950D01*
X10909670Y-9109950D02*
X10879670Y-9139950D01*
X10924120Y-7008100D02*
X10954120Y-7038100D01*
X10954120Y-7008100D02*
X10924120Y-7038100D01*
X10924120Y-8265400D02*
X10954120Y-8295400D01*
X10954120Y-8265400D02*
X10924120Y-8295400D01*
X10962220Y-5509500D02*
X10992220Y-5539500D01*
X10992220Y-5509500D02*
X10962220Y-5539500D01*
X10962220Y-9116300D02*
X10992220Y-9146300D01*
X10992220Y-9116300D02*
X10962220Y-9146300D01*
X11005400Y-7371320D02*
X11035400Y-7401320D01*
X11035400Y-7371320D02*
X11005400Y-7401320D01*
X11038420Y-6500100D02*
X11068420Y-6530100D01*
X11068420Y-6500100D02*
X11038420Y-6530100D01*
X11038684Y-8242804D02*
X11068684Y-8272804D01*
X11068684Y-8242804D02*
X11038684Y-8272804D01*
X11051120Y-9116300D02*
X11081120Y-9146300D01*
X11081120Y-9116300D02*
X11051120Y-9146300D01*
X11114620Y-9370300D02*
X11144620Y-9400300D01*
X11144620Y-9370300D02*
X11114620Y-9400300D01*
X11127320Y-5776200D02*
X11157320Y-5806200D01*
X11157320Y-5776200D02*
X11127320Y-5806200D01*
X11127320Y-6500100D02*
X11157320Y-6530100D01*
X11157320Y-6500100D02*
X11127320Y-6530100D01*
X11140020Y-9116300D02*
X11170020Y-9146300D01*
X11170020Y-9116300D02*
X11140020Y-9146300D01*
X11178120Y-5407900D02*
X11208120Y-5437900D01*
X11208120Y-5407900D02*
X11178120Y-5437900D01*
X11190820Y-6970000D02*
X11220820Y-7000000D01*
X11220820Y-6970000D02*
X11190820Y-7000000D01*
X11216220Y-9266550D02*
X11246220Y-9296550D01*
X11246220Y-9266550D02*
X11216220Y-9296550D01*
X11277487Y-6548667D02*
X11307487Y-6578667D01*
X11307487Y-6548667D02*
X11277487Y-6578667D01*
X11317820Y-5712700D02*
X11347820Y-5742700D01*
X11347820Y-5712700D02*
X11317820Y-5742700D01*
X11343220Y-5636500D02*
X11373220Y-5666500D01*
X11373220Y-5636500D02*
X11343220Y-5666500D01*
X11343220Y-5915900D02*
X11373220Y-5945900D01*
X11373220Y-5915900D02*
X11343220Y-5945900D01*
X11349570Y-5820650D02*
X11379570Y-5850650D01*
X11379570Y-5820650D02*
X11349570Y-5850650D01*
X11355920Y-6576300D02*
X11385920Y-6606300D01*
X11385920Y-6576300D02*
X11355920Y-6606300D01*
X11362626Y-9192981D02*
X11392626Y-9222981D01*
X11392626Y-9192981D02*
X11362626Y-9222981D01*
X11368620Y-5344400D02*
X11398620Y-5374400D01*
X11398620Y-5344400D02*
X11368620Y-5374400D01*
X11368620Y-5992100D02*
X11398620Y-6022100D01*
X11398620Y-5992100D02*
X11368620Y-6022100D01*
X11381320Y-7516100D02*
X11411320Y-7546100D01*
X11411320Y-7516100D02*
X11381320Y-7546100D01*
X11381320Y-8024100D02*
X11411320Y-8054100D01*
X11411320Y-8024100D02*
X11381320Y-8054100D01*
X11406720Y-9116300D02*
X11436720Y-9146300D01*
X11436720Y-9116300D02*
X11406720Y-9146300D01*
X11419420Y-8608300D02*
X11449420Y-8638300D01*
X11449420Y-8608300D02*
X11419420Y-8638300D01*
X11444723Y-7376978D02*
X11474723Y-7406978D01*
X11474723Y-7376978D02*
X11444723Y-7406978D01*
X11521020Y-5306300D02*
X11551020Y-5336300D01*
X11551020Y-5306300D02*
X11521020Y-5336300D01*
X11598548Y-7631081D02*
X11628548Y-7661081D01*
X11628548Y-7631081D02*
X11598548Y-7661081D01*
X11686120Y-7630400D02*
X11716120Y-7660400D01*
X11716120Y-7630400D02*
X11686120Y-7660400D01*
X11724220Y-7770100D02*
X11754220Y-7800100D01*
X11754220Y-7770100D02*
X11724220Y-7800100D01*
X11749620Y-5890500D02*
X11779620Y-5920500D01*
X11779620Y-5890500D02*
X11749620Y-5920500D01*
X11749620Y-7884400D02*
X11779620Y-7914400D01*
X11779620Y-7884400D02*
X11749620Y-7914400D01*
X11749620Y-8240000D02*
X11779620Y-8270000D01*
X11779620Y-8240000D02*
X11749620Y-8270000D01*
X11759920Y-9713249D02*
X11789920Y-9743249D01*
X11789920Y-9713249D02*
X11759920Y-9743249D01*
X11762320Y-8074900D02*
X11792320Y-8104900D01*
X11792320Y-8074900D02*
X11762320Y-8104900D01*
X11773556Y-5486121D02*
X11803556Y-5516121D01*
X11803556Y-5486121D02*
X11773556Y-5516121D01*
X11775020Y-8163800D02*
X11805020Y-8193800D01*
X11805020Y-8163800D02*
X11775020Y-8193800D01*
X11787720Y-5611100D02*
X11817720Y-5641100D01*
X11817720Y-5611100D02*
X11787720Y-5641100D01*
X11787720Y-6195300D02*
X11817720Y-6225300D01*
X11817720Y-6195300D02*
X11787720Y-6225300D01*
X11794170Y-6004800D02*
X11824170Y-6034800D01*
X11824170Y-6004800D02*
X11794170Y-6034800D01*
X11800420Y-6817600D02*
X11830420Y-6847600D01*
X11830420Y-6817600D02*
X11800420Y-6847600D01*
X11800420Y-7211300D02*
X11830420Y-7241300D01*
X11830420Y-7211300D02*
X11800420Y-7241300D01*
X11800420Y-7325600D02*
X11830420Y-7355600D01*
X11830420Y-7325600D02*
X11800420Y-7355600D01*
X11806870Y-6703300D02*
X11836870Y-6733300D01*
X11836870Y-6703300D02*
X11806870Y-6733300D01*
X11806870Y-6919200D02*
X11836870Y-6949200D01*
X11836870Y-6919200D02*
X11806870Y-6949200D01*
X11844870Y-7903450D02*
X11874870Y-7933450D01*
X11874870Y-7903450D02*
X11844870Y-7933450D01*
X11876620Y-5738100D02*
X11906620Y-5768100D01*
X11906620Y-5738100D02*
X11876620Y-5768100D01*
X11889320Y-5877800D02*
X11919320Y-5907800D01*
X11919320Y-5877800D02*
X11889320Y-5907800D01*
X11914720Y-5103100D02*
X11944720Y-5133100D01*
X11944720Y-5103100D02*
X11914720Y-5133100D01*
X11927420Y-9179800D02*
X11957420Y-9209800D01*
X11957420Y-9179800D02*
X11927420Y-9209800D01*
X12016320Y-6233400D02*
X12046320Y-6263400D01*
X12046320Y-6233400D02*
X12016320Y-6263400D01*
X12016320Y-6919200D02*
X12046320Y-6949200D01*
X12046320Y-6919200D02*
X12016320Y-6949200D01*
X12016320Y-7122400D02*
X12046320Y-7152400D01*
X12046320Y-7122400D02*
X12016320Y-7152400D01*
X12016320Y-7262100D02*
X12046320Y-7292100D01*
X12046320Y-7262100D02*
X12016320Y-7292100D01*
X12016320Y-8278100D02*
X12046320Y-8308100D01*
X12046320Y-8278100D02*
X12016320Y-8308100D01*
X12029020Y-5700000D02*
X12059020Y-5730000D01*
X12059020Y-5700000D02*
X12029020Y-5730000D01*
X12029020Y-6119100D02*
X12059020Y-6149100D01*
X12059020Y-6119100D02*
X12029020Y-6149100D01*
X12029020Y-6716000D02*
X12059020Y-6746000D01*
X12059020Y-6716000D02*
X12029020Y-6746000D01*
X12041720Y-5903200D02*
X12071720Y-5933200D01*
X12071720Y-5903200D02*
X12041720Y-5933200D01*
X12054420Y-7351000D02*
X12084420Y-7381000D01*
X12084420Y-7351000D02*
X12054420Y-7381000D01*
X12108111Y-5275042D02*
X12138111Y-5305042D01*
X12138111Y-5275042D02*
X12108111Y-5305042D01*
X12116979Y-5495100D02*
X12146979Y-5525100D01*
X12146979Y-5495100D02*
X12116979Y-5525100D01*
X12117920Y-7262100D02*
X12147920Y-7292100D01*
X12147920Y-7262100D02*
X12117920Y-7292100D01*
X12130620Y-6919200D02*
X12160620Y-6949200D01*
X12160620Y-6919200D02*
X12130620Y-6949200D01*
X12143320Y-5166600D02*
X12173320Y-5196600D01*
X12173320Y-5166600D02*
X12143320Y-5196600D01*
X12143320Y-5598400D02*
X12173320Y-5628400D01*
X12173320Y-5598400D02*
X12143320Y-5628400D01*
X12168720Y-6246100D02*
X12198720Y-6276100D01*
X12198720Y-6246100D02*
X12168720Y-6276100D01*
X12182851Y-7625534D02*
X12212851Y-7655534D01*
X12212851Y-7625534D02*
X12182851Y-7655534D01*
X12219520Y-6474700D02*
X12249520Y-6504700D01*
X12249520Y-6474700D02*
X12219520Y-6504700D01*
X12232220Y-5560300D02*
X12262220Y-5590300D01*
X12262220Y-5560300D02*
X12232220Y-5590300D01*
X12232220Y-6106400D02*
X12262220Y-6136400D01*
X12262220Y-6106400D02*
X12232220Y-6136400D01*
X12257620Y-7249400D02*
X12287620Y-7279400D01*
X12287620Y-7249400D02*
X12257620Y-7279400D01*
X12295720Y-8722600D02*
X12325720Y-8752600D01*
X12325720Y-8722600D02*
X12295720Y-8752600D01*
X12306058Y-8121983D02*
X12336058Y-8151983D01*
X12336058Y-8121983D02*
X12306058Y-8151983D01*
X12321120Y-5522200D02*
X12351120Y-5552200D01*
X12351120Y-5522200D02*
X12321120Y-5552200D01*
X12321120Y-6233400D02*
X12351120Y-6263400D01*
X12351120Y-6233400D02*
X12321120Y-6263400D01*
X12321120Y-7732000D02*
X12351120Y-7762000D01*
X12351120Y-7732000D02*
X12321120Y-7762000D01*
X12333820Y-8798800D02*
X12363820Y-8828800D01*
X12363820Y-8798800D02*
X12333820Y-8828800D01*
X12371920Y-4963400D02*
X12401920Y-4993400D01*
X12401920Y-4963400D02*
X12371920Y-4993400D01*
X12384620Y-5954000D02*
X12414620Y-5984000D01*
X12414620Y-5954000D02*
X12384620Y-5984000D01*
X12384620Y-7312900D02*
X12414620Y-7342900D01*
X12414620Y-7312900D02*
X12384620Y-7342900D01*
X12397320Y-7185900D02*
X12427320Y-7215900D01*
X12427320Y-7185900D02*
X12397320Y-7215900D01*
X12401212Y-7629700D02*
X12431212Y-7659700D01*
X12431212Y-7629700D02*
X12401212Y-7659700D01*
X12422720Y-5065000D02*
X12452720Y-5095000D01*
X12452720Y-5065000D02*
X12422720Y-5095000D01*
X12460820Y-7389100D02*
X12490820Y-7419100D01*
X12490820Y-7389100D02*
X12460820Y-7419100D01*
X12473520Y-7249400D02*
X12503520Y-7279400D01*
X12503520Y-7249400D02*
X12473520Y-7279400D01*
X12549720Y-5090400D02*
X12579720Y-5120400D01*
X12579720Y-5090400D02*
X12549720Y-5120400D01*
X12562420Y-8900400D02*
X12592420Y-8930400D01*
X12592420Y-8900400D02*
X12562420Y-8930400D01*
X12575120Y-7681200D02*
X12605120Y-7711200D01*
X12605120Y-7681200D02*
X12575120Y-7711200D01*
X12599220Y-10183100D02*
X12629220Y-10213100D01*
X12629220Y-10183100D02*
X12599220Y-10213100D01*
X12600520Y-7312900D02*
X12630520Y-7342900D01*
X12630520Y-7312900D02*
X12600520Y-7342900D01*
X12651320Y-7706600D02*
X12681320Y-7736600D01*
X12681320Y-7706600D02*
X12651320Y-7736600D01*
X12651320Y-7998700D02*
X12681320Y-8028700D01*
X12681320Y-7998700D02*
X12651320Y-8028700D01*
X12651320Y-8468600D02*
X12681320Y-8498600D01*
X12681320Y-8468600D02*
X12651320Y-8498600D01*
X12651320Y-8659100D02*
X12681320Y-8689100D01*
X12681320Y-8659100D02*
X12651320Y-8689100D01*
X12664020Y-7224000D02*
X12694020Y-7254000D01*
X12694020Y-7224000D02*
X12664020Y-7254000D01*
X12664020Y-8176500D02*
X12694020Y-8206500D01*
X12694020Y-8176500D02*
X12664020Y-8206500D01*
X12702120Y-7630400D02*
X12732120Y-7660400D01*
X12732120Y-7630400D02*
X12702120Y-7660400D01*
X12803720Y-7643100D02*
X12833720Y-7673100D01*
X12833720Y-7643100D02*
X12803720Y-7673100D01*
X12854520Y-7770100D02*
X12884520Y-7800100D01*
X12884520Y-7770100D02*
X12854520Y-7800100D01*
X12867220Y-8214600D02*
X12897220Y-8244600D01*
X12897220Y-8214600D02*
X12867220Y-8244600D01*
X12879920Y-7668500D02*
X12909920Y-7698500D01*
X12909920Y-7668500D02*
X12879920Y-7698500D01*
X12918020Y-10259300D02*
X12948020Y-10289300D01*
X12948020Y-10259300D02*
X12918020Y-10289300D01*
X13006920Y-5522200D02*
X13036920Y-5552200D01*
X13036920Y-5522200D02*
X13006920Y-5552200D01*
X13032320Y-5077700D02*
X13062320Y-5107700D01*
X13062320Y-5077700D02*
X13032320Y-5107700D01*
X13045020Y-7325600D02*
X13075020Y-7355600D01*
X13075020Y-7325600D02*
X13045020Y-7355600D01*
X13095820Y-8709900D02*
X13125820Y-8739900D01*
X13125820Y-8709900D02*
X13095820Y-8739900D01*
X13121220Y-5077700D02*
X13151220Y-5107700D01*
X13151220Y-5077700D02*
X13121220Y-5107700D01*
X13133920Y-7643100D02*
X13163920Y-7673100D01*
X13163920Y-7643100D02*
X13133920Y-7673100D01*
X13260920Y-5788900D02*
X13290920Y-5818900D01*
X13290920Y-5788900D02*
X13260920Y-5818900D01*
X13273620Y-7185900D02*
X13303620Y-7215900D01*
X13303620Y-7185900D02*
X13273620Y-7215900D01*
X13337120Y-6208000D02*
X13367120Y-6238000D01*
X13367120Y-6208000D02*
X13337120Y-6238000D01*
X13337120Y-8468600D02*
X13367120Y-8498600D01*
X13367120Y-8468600D02*
X13337120Y-8498600D01*
X13349820Y-6373100D02*
X13379820Y-6403100D01*
X13379820Y-6373100D02*
X13349820Y-6403100D01*
X13349820Y-6550900D02*
X13379820Y-6580900D01*
X13379820Y-6550900D02*
X13349820Y-6580900D01*
X13349820Y-7732000D02*
X13379820Y-7762000D01*
X13379820Y-7732000D02*
X13349820Y-7762000D01*
X13360120Y-9719694D02*
X13390120Y-9749694D01*
X13390120Y-9719694D02*
X13360120Y-9749694D01*
X13362520Y-7973300D02*
X13392520Y-8003300D01*
X13392520Y-7973300D02*
X13362520Y-8003300D01*
X13370143Y-5922167D02*
X13400143Y-5952167D01*
X13400143Y-5922167D02*
X13370143Y-5952167D01*
X13375220Y-7846300D02*
X13405220Y-7876300D01*
X13405220Y-7846300D02*
X13375220Y-7876300D01*
X13400620Y-8646400D02*
X13430620Y-8676400D01*
X13430620Y-8646400D02*
X13400620Y-8676400D01*
X13413320Y-6716000D02*
X13443320Y-6746000D01*
X13443320Y-6716000D02*
X13413320Y-6746000D01*
X13476820Y-5509500D02*
X13506820Y-5539500D01*
X13506820Y-5509500D02*
X13476820Y-5539500D01*
X13476820Y-7211300D02*
X13506820Y-7241300D01*
X13506820Y-7211300D02*
X13476820Y-7241300D01*
X13616520Y-8862300D02*
X13646520Y-8892300D01*
X13646520Y-8862300D02*
X13616520Y-8892300D01*
X13768920Y-5966700D02*
X13798920Y-5996700D01*
X13798920Y-5966700D02*
X13768920Y-5996700D01*
X13794320Y-7363700D02*
X13824320Y-7393700D01*
X13824320Y-7363700D02*
X13794320Y-7393700D01*
X13799400Y-7508480D02*
X13829400Y-7538480D01*
X13829400Y-7508480D02*
X13799400Y-7538480D01*
X13807020Y-6322300D02*
X13837020Y-6352300D01*
X13837020Y-6322300D02*
X13807020Y-6352300D01*
X13807020Y-6919200D02*
X13837020Y-6949200D01*
X13837020Y-6919200D02*
X13807020Y-6949200D01*
X13819720Y-5890500D02*
X13849720Y-5920500D01*
X13849720Y-5890500D02*
X13819720Y-5920500D01*
X13959420Y-9205200D02*
X13989420Y-9235200D01*
X13989420Y-9205200D02*
X13959420Y-9235200D01*
X14099120Y-8011400D02*
X14129120Y-8041400D01*
X14129120Y-8011400D02*
X14099120Y-8041400D01*
X14099120Y-8506700D02*
X14129120Y-8536700D01*
X14129120Y-8506700D02*
X14099120Y-8536700D01*
X14099120Y-8709900D02*
X14129120Y-8739900D01*
X14129120Y-8709900D02*
X14099120Y-8739900D01*
X14111820Y-8201900D02*
X14141820Y-8231900D01*
X14141820Y-8201900D02*
X14111820Y-8231900D01*
X14149920Y-7681200D02*
X14179920Y-7711200D01*
X14179920Y-7681200D02*
X14149920Y-7711200D01*
X14175320Y-7820900D02*
X14205320Y-7850900D01*
X14205320Y-7820900D02*
X14175320Y-7850900D01*
X14467420Y-5077700D02*
X14497420Y-5107700D01*
X14497420Y-5077700D02*
X14467420Y-5107700D01*
X6493720Y-6407100D02*
G75*
G02*
X6443720Y-6407100I-25000J0D01*
G01*
X6443720Y-6407100D02*
G75*
G02*
X6493720Y-6407100I25000J0D01*
G01*
X6823920Y-7556500D02*
G75*
G02*
X6773920Y-7556500I-25000J0D01*
G01*
X6773920Y-7556500D02*
G75*
G02*
X6823920Y-7556500I25000J0D01*
G01*
X8792420Y-4445000D02*
G75*
G02*
X8742420Y-4445000I-25000J0D01*
G01*
X8742420Y-4445000D02*
G75*
G02*
X8792420Y-4445000I25000J0D01*
G01*
X8792420Y-4749800D02*
G75*
G02*
X8742420Y-4749800I-25000J0D01*
G01*
X8742420Y-4749800D02*
G75*
G02*
X8792420Y-4749800I25000J0D01*
G01*
X9567120Y-9969165D02*
G75*
G02*
X9517120Y-9969165I-25000J0D01*
G01*
X9517120Y-9969165D02*
G75*
G02*
X9567120Y-9969165I25000J0D01*
G01*
X12365420Y-6464300D02*
G75*
G02*
X12315420Y-6464300I-25000J0D01*
G01*
X12315420Y-6464300D02*
G75*
G02*
X12365420Y-6464300I25000J0D01*
G01*
X12619420Y-6197600D02*
G75*
G02*
X12569420Y-6197600I-25000J0D01*
G01*
X12569420Y-6197600D02*
G75*
G02*
X12619420Y-6197600I25000J0D01*
G01*
X12685520Y-6750029D02*
G75*
G02*
X12635520Y-6750029I-25000J0D01*
G01*
X12635520Y-6750029D02*
G75*
G02*
X12685520Y-6750029I25000J0D01*
G01*
X12767520Y-9956465D02*
G75*
G02*
X12717520Y-9956465I-25000J0D01*
G01*
X12717520Y-9956465D02*
G75*
G02*
X12767520Y-9956465I25000J0D01*
G01*
X12898820Y-6464300D02*
G75*
G02*
X12848820Y-6464300I-25000J0D01*
G01*
X12848820Y-6464300D02*
G75*
G02*
X12898820Y-6464300I25000J0D01*
G01*
X14126420Y-8902700D02*
G75*
G02*
X14076420Y-8902700I-25000J0D01*
G01*
X14076420Y-8902700D02*
G75*
G02*
X14126420Y-8902700I25000J0D01*
G01*
X6703920Y-10695700D02*
X6703920Y-10755700D01*
X6673920Y-10725700D02*
X6733920Y-10725700D01*
X6673920Y-10670700D02*
X6673920Y-10780700D01*
X6733920Y-10780700D02*
G75*
G02*
X6673920Y-10780700I-30000J0D01*
G01*
X6733920Y-10780700D02*
X6733920Y-10670700D01*
X6733920Y-10670700D02*
G75*
G03*
X6673920Y-10670700I-30000J0D01*
G01*
X6703920Y-11113700D02*
X6703920Y-11173700D01*
X6673920Y-11143700D02*
X6733920Y-11143700D01*
X6673920Y-11103700D02*
X6673920Y-11183700D01*
X6733920Y-11183700D02*
G75*
G02*
X6673920Y-11183700I-30000J0D01*
G01*
X6733920Y-11183700D02*
X6733920Y-11103700D01*
X6733920Y-11103700D02*
G75*
G03*
X6673920Y-11103700I-30000J0D01*
G01*
X7567920Y-10695700D02*
X7567920Y-10755700D01*
X7537920Y-10725700D02*
X7597920Y-10725700D01*
X7537920Y-10670700D02*
X7537920Y-10780700D01*
X7597920Y-10780700D02*
G75*
G02*
X7537920Y-10780700I-30000J0D01*
G01*
X7597920Y-10780700D02*
X7597920Y-10670700D01*
X7597920Y-10670700D02*
G75*
G03*
X7537920Y-10670700I-30000J0D01*
G01*
X7567920Y-11113700D02*
X7567920Y-11173700D01*
X7537920Y-11143700D02*
X7597920Y-11143700D01*
X7537920Y-11103700D02*
X7537920Y-11183700D01*
X7597920Y-11183700D02*
G75*
G02*
X7537920Y-11183700I-30000J0D01*
G01*
X7597920Y-11183700D02*
X7597920Y-11103700D01*
X7597920Y-11103700D02*
G75*
G03*
X7537920Y-11103700I-30000J0D01*
G01*
X5907176Y-7375956D02*
X5907176Y-7305244D01*
X5836464Y-7305244D01*
X5836464Y-7375956D01*
X5907176Y-7375956D01*
X5907176Y-7629956D02*
X5907176Y-7559244D01*
X5836464Y-7559244D01*
X5836464Y-7629956D01*
X5907176Y-7629956D01*
X5907176Y-7883956D02*
X5907176Y-7813244D01*
X5836464Y-7813244D01*
X5836464Y-7883956D01*
X5907176Y-7883956D01*
X5907176Y-8137956D02*
X5907176Y-8067244D01*
X5836464Y-8067244D01*
X5836464Y-8137956D01*
X5907176Y-8137956D01*
X5907176Y-8391956D02*
X5907176Y-8321244D01*
X5836464Y-8321244D01*
X5836464Y-8391956D01*
X5907176Y-8391956D01*
X5907176Y-8645956D02*
X5907176Y-8575244D01*
X5836464Y-8575244D01*
X5836464Y-8645956D01*
X5907176Y-8645956D01*
X5907176Y-8899956D02*
X5907176Y-8829244D01*
X5836464Y-8829244D01*
X5836464Y-8899956D01*
X5907176Y-8899956D01*
X5907176Y-9153956D02*
X5907176Y-9083244D01*
X5836464Y-9083244D01*
X5836464Y-9153956D01*
X5907176Y-9153956D01*
X5907176Y-9407956D02*
X5907176Y-9337244D01*
X5836464Y-9337244D01*
X5836464Y-9407956D01*
X5907176Y-9407956D01*
X5907176Y-9661956D02*
X5907176Y-9591244D01*
X5836464Y-9591244D01*
X5836464Y-9661956D01*
X5907176Y-9661956D01*
X6161176Y-7375956D02*
X6161176Y-7305244D01*
X6090464Y-7305244D01*
X6090464Y-7375956D01*
X6161176Y-7375956D01*
X6161176Y-7629956D02*
X6161176Y-7559244D01*
X6090464Y-7559244D01*
X6090464Y-7629956D01*
X6161176Y-7629956D01*
X6161176Y-7883956D02*
X6161176Y-7813244D01*
X6090464Y-7813244D01*
X6090464Y-7883956D01*
X6161176Y-7883956D01*
X6161176Y-8137956D02*
X6161176Y-8067244D01*
X6090464Y-8067244D01*
X6090464Y-8137956D01*
X6161176Y-8137956D01*
X6161176Y-8391956D02*
X6161176Y-8321244D01*
X6090464Y-8321244D01*
X6090464Y-8391956D01*
X6161176Y-8391956D01*
X6161176Y-8645956D02*
X6161176Y-8575244D01*
X6090464Y-8575244D01*
X6090464Y-8645956D01*
X6161176Y-8645956D01*
X6161176Y-8899956D02*
X6161176Y-8829244D01*
X6090464Y-8829244D01*
X6090464Y-8899956D01*
X6161176Y-8899956D01*
X6161176Y-9153956D02*
X6161176Y-9083244D01*
X6090464Y-9083244D01*
X6090464Y-9153956D01*
X6161176Y-9153956D01*
X6161176Y-9407956D02*
X6161176Y-9337244D01*
X6090464Y-9337244D01*
X6090464Y-9407956D01*
X6161176Y-9407956D01*
X6161176Y-9661956D02*
X6161176Y-9591244D01*
X6090464Y-9591244D01*
X6090464Y-9661956D01*
X6161176Y-9661956D01*
X7151776Y-4467656D02*
X7151776Y-4396944D01*
X7081064Y-4396944D01*
X7081064Y-4467656D01*
X7151776Y-4467656D01*
X7151776Y-4721656D02*
X7151776Y-4650944D01*
X7081064Y-4650944D01*
X7081064Y-4721656D01*
X7151776Y-4721656D01*
X7405776Y-4467656D02*
X7405776Y-4396944D01*
X7335064Y-4396944D01*
X7335064Y-4467656D01*
X7405776Y-4467656D01*
X7405776Y-4721656D02*
X7405776Y-4650944D01*
X7335064Y-4650944D01*
X7335064Y-4721656D01*
X7405776Y-4721656D01*
X7659776Y-4467656D02*
X7659776Y-4396944D01*
X7589064Y-4396944D01*
X7589064Y-4467656D01*
X7659776Y-4467656D01*
X7659776Y-4721656D02*
X7659776Y-4650944D01*
X7589064Y-4650944D01*
X7589064Y-4721656D01*
X7659776Y-4721656D01*
X7913776Y-4467656D02*
X7913776Y-4396944D01*
X7843064Y-4396944D01*
X7843064Y-4467656D01*
X7913776Y-4467656D01*
X7913776Y-4721656D02*
X7913776Y-4650944D01*
X7843064Y-4650944D01*
X7843064Y-4721656D01*
X7913776Y-4721656D01*
X8167776Y-4467656D02*
X8167776Y-4396944D01*
X8097064Y-4396944D01*
X8097064Y-4467656D01*
X8167776Y-4467656D01*
X8167776Y-4721656D02*
X8167776Y-4650944D01*
X8097064Y-4650944D01*
X8097064Y-4721656D01*
X8167776Y-4721656D01*
X10910976Y-4467656D02*
X10910976Y-4396944D01*
X10840264Y-4396944D01*
X10840264Y-4467656D01*
X10910976Y-4467656D01*
X10910976Y-4721656D02*
X10910976Y-4650944D01*
X10840264Y-4650944D01*
X10840264Y-4721656D01*
X10910976Y-4721656D01*
X11164976Y-4467656D02*
X11164976Y-4396944D01*
X11094264Y-4396944D01*
X11094264Y-4467656D01*
X11164976Y-4467656D01*
X11164976Y-4721656D02*
X11164976Y-4650944D01*
X11094264Y-4650944D01*
X11094264Y-4721656D01*
X11164976Y-4721656D01*
X11418976Y-4467656D02*
X11418976Y-4396944D01*
X11348264Y-4396944D01*
X11348264Y-4467656D01*
X11418976Y-4467656D01*
X11418976Y-4721656D02*
X11418976Y-4650944D01*
X11348264Y-4650944D01*
X11348264Y-4721656D01*
X11418976Y-4721656D01*
X11672976Y-4467656D02*
X11672976Y-4396944D01*
X11602264Y-4396944D01*
X11602264Y-4467656D01*
X11672976Y-4467656D01*
X11672976Y-4721656D02*
X11672976Y-4650944D01*
X11602264Y-4650944D01*
X11602264Y-4721656D01*
X11672976Y-4721656D01*
X11926976Y-4467656D02*
X11926976Y-4396944D01*
X11856264Y-4396944D01*
X11856264Y-4467656D01*
X11926976Y-4467656D01*
X11926976Y-4721656D02*
X11926976Y-4650944D01*
X11856264Y-4650944D01*
X11856264Y-4721656D01*
X11926976Y-4721656D01*
X14555876Y-6156756D02*
X14555876Y-6086044D01*
X14485164Y-6086044D01*
X14485164Y-6156756D01*
X14555876Y-6156756D01*
X14555876Y-6410756D02*
X14555876Y-6340044D01*
X14485164Y-6340044D01*
X14485164Y-6410756D01*
X14555876Y-6410756D01*
X14555876Y-6664756D02*
X14555876Y-6594044D01*
X14485164Y-6594044D01*
X14485164Y-6664756D01*
X14555876Y-6664756D01*
X14555876Y-6918756D02*
X14555876Y-6848044D01*
X14485164Y-6848044D01*
X14485164Y-6918756D01*
X14555876Y-6918756D01*
X14555876Y-7172756D02*
X14555876Y-7102044D01*
X14485164Y-7102044D01*
X14485164Y-7172756D01*
X14555876Y-7172756D01*
X14809876Y-6156756D02*
X14809876Y-6086044D01*
X14739164Y-6086044D01*
X14739164Y-6156756D01*
X14809876Y-6156756D01*
X14809876Y-6410756D02*
X14809876Y-6340044D01*
X14739164Y-6340044D01*
X14739164Y-6410756D01*
X14809876Y-6410756D01*
X14809876Y-6664756D02*
X14809876Y-6594044D01*
X14739164Y-6594044D01*
X14739164Y-6664756D01*
X14809876Y-6664756D01*
X14809876Y-6918756D02*
X14809876Y-6848044D01*
X14739164Y-6848044D01*
X14739164Y-6918756D01*
X14809876Y-6918756D01*
X14809876Y-7172756D02*
X14809876Y-7102044D01*
X14739164Y-7102044D01*
X14739164Y-7172756D01*
X14809876Y-7172756D01*
D13*
X8735920Y-10541200D02*
X8800920Y-10476200D01*
X8735920Y-10411200D01*
X8670920Y-10476200D01*
X8735920Y-10541200D01*
X10335920Y-10541200D02*
X10400920Y-10476200D01*
X10335920Y-10411200D01*
X10270920Y-10476200D01*
X10335920Y-10541200D01*
X11935920Y-10541200D02*
X12000920Y-10476200D01*
X11935920Y-10411200D01*
X11870920Y-10476200D01*
X11935920Y-10541200D01*
X13535920Y-10541200D02*
X13600920Y-10476200D01*
X13535920Y-10411200D01*
X13470920Y-10476200D01*
X13535920Y-10541200D01*
D14*
X8290920Y-10031200D02*
X8520920Y-10261200D01*
X8520920Y-10031200D02*
X8290920Y-10261200D01*
X8520920Y-10146200D02*
G75*
G02*
X8290920Y-10146200I-115000J0D01*
G01*
X8290920Y-10146200D02*
G75*
G02*
X8520920Y-10146200I115000J0D01*
G01*
X8290920Y-10691200D02*
X8520920Y-10921200D01*
X8520920Y-10691200D02*
X8290920Y-10921200D01*
X8520920Y-10806200D02*
G75*
G02*
X8290920Y-10806200I-115000J0D01*
G01*
X8290920Y-10806200D02*
G75*
G02*
X8520920Y-10806200I115000J0D01*
G01*
X8950920Y-10031200D02*
X9180920Y-10261200D01*
X9180920Y-10031200D02*
X8950920Y-10261200D01*
X9180920Y-10146200D02*
G75*
G02*
X8950920Y-10146200I-115000J0D01*
G01*
X8950920Y-10146200D02*
G75*
G02*
X9180920Y-10146200I115000J0D01*
G01*
X8950920Y-10691200D02*
X9180920Y-10921200D01*
X9180920Y-10691200D02*
X8950920Y-10921200D01*
X9180920Y-10806200D02*
G75*
G02*
X8950920Y-10806200I-115000J0D01*
G01*
X8950920Y-10806200D02*
G75*
G02*
X9180920Y-10806200I115000J0D01*
G01*
X9890920Y-10031200D02*
X10120920Y-10261200D01*
X10120920Y-10031200D02*
X9890920Y-10261200D01*
X10120920Y-10146200D02*
G75*
G02*
X9890920Y-10146200I-115000J0D01*
G01*
X9890920Y-10146200D02*
G75*
G02*
X10120920Y-10146200I115000J0D01*
G01*
X9890920Y-10691200D02*
X10120920Y-10921200D01*
X10120920Y-10691200D02*
X9890920Y-10921200D01*
X10120920Y-10806200D02*
G75*
G02*
X9890920Y-10806200I-115000J0D01*
G01*
X9890920Y-10806200D02*
G75*
G02*
X10120920Y-10806200I115000J0D01*
G01*
X10550920Y-10031200D02*
X10780920Y-10261200D01*
X10780920Y-10031200D02*
X10550920Y-10261200D01*
X10780920Y-10146200D02*
G75*
G02*
X10550920Y-10146200I-115000J0D01*
G01*
X10550920Y-10146200D02*
G75*
G02*
X10780920Y-10146200I115000J0D01*
G01*
X10550920Y-10691200D02*
X10780920Y-10921200D01*
X10780920Y-10691200D02*
X10550920Y-10921200D01*
X10780920Y-10806200D02*
G75*
G02*
X10550920Y-10806200I-115000J0D01*
G01*
X10550920Y-10806200D02*
G75*
G02*
X10780920Y-10806200I115000J0D01*
G01*
X11490920Y-10031200D02*
X11720920Y-10261200D01*
X11720920Y-10031200D02*
X11490920Y-10261200D01*
X11720920Y-10146200D02*
G75*
G02*
X11490920Y-10146200I-115000J0D01*
G01*
X11490920Y-10146200D02*
G75*
G02*
X11720920Y-10146200I115000J0D01*
G01*
X11490920Y-10691200D02*
X11720920Y-10921200D01*
X11720920Y-10691200D02*
X11490920Y-10921200D01*
X11720920Y-10806200D02*
G75*
G02*
X11490920Y-10806200I-115000J0D01*
G01*
X11490920Y-10806200D02*
G75*
G02*
X11720920Y-10806200I115000J0D01*
G01*
X12150920Y-10031200D02*
X12380920Y-10261200D01*
X12380920Y-10031200D02*
X12150920Y-10261200D01*
X12380920Y-10146200D02*
G75*
G02*
X12150920Y-10146200I-115000J0D01*
G01*
X12150920Y-10146200D02*
G75*
G02*
X12380920Y-10146200I115000J0D01*
G01*
X12150920Y-10691200D02*
X12380920Y-10921200D01*
X12380920Y-10691200D02*
X12150920Y-10921200D01*
X12380920Y-10806200D02*
G75*
G02*
X12150920Y-10806200I-115000J0D01*
G01*
X12150920Y-10806200D02*
G75*
G02*
X12380920Y-10806200I115000J0D01*
G01*
X13090920Y-10031200D02*
X13320920Y-10261200D01*
X13320920Y-10031200D02*
X13090920Y-10261200D01*
X13320920Y-10146200D02*
G75*
G02*
X13090920Y-10146200I-115000J0D01*
G01*
X13090920Y-10146200D02*
G75*
G02*
X13320920Y-10146200I115000J0D01*
G01*
X13090920Y-10691200D02*
X13320920Y-10921200D01*
X13320920Y-10691200D02*
X13090920Y-10921200D01*
X13320920Y-10806200D02*
G75*
G02*
X13090920Y-10806200I-115000J0D01*
G01*
X13090920Y-10806200D02*
G75*
G02*
X13320920Y-10806200I115000J0D01*
G01*
X13750920Y-10031200D02*
X13980920Y-10261200D01*
X13980920Y-10031200D02*
X13750920Y-10261200D01*
X13980920Y-10146200D02*
G75*
G02*
X13750920Y-10146200I-115000J0D01*
G01*
X13750920Y-10146200D02*
G75*
G02*
X13980920Y-10146200I115000J0D01*
G01*
X13750920Y-10691200D02*
X13980920Y-10921200D01*
X13980920Y-10691200D02*
X13750920Y-10921200D01*
X13980920Y-10806200D02*
G75*
G02*
X13750920Y-10806200I-115000J0D01*
G01*
X13750920Y-10806200D02*
G75*
G02*
X13980920Y-10806200I115000J0D01*
G01*
D15*
X5775920Y-4316200D02*
X6095920Y-4636200D01*
X6095920Y-4316200D02*
X5775920Y-4636200D01*
X5935920Y-4316200D02*
X5935920Y-4636200D01*
X5775920Y-4476200D02*
X6095920Y-4476200D01*
X5775920Y-10516200D02*
X6095920Y-10836200D01*
X6095920Y-10516200D02*
X5775920Y-10836200D01*
X5935920Y-10516200D02*
X5935920Y-10836200D01*
X5775920Y-10676200D02*
X6095920Y-10676200D01*
X14575920Y-4316200D02*
X14895920Y-4636200D01*
X14895920Y-4316200D02*
X14575920Y-4636200D01*
X14735920Y-4316200D02*
X14735920Y-4636200D01*
X14575920Y-4476200D02*
X14895920Y-4476200D01*
X14575920Y-10516200D02*
X14895920Y-10836200D01*
X14895920Y-10516200D02*
X14575920Y-10836200D01*
X14735920Y-10516200D02*
X14735920Y-10836200D01*
X14575920Y-10676200D02*
X14895920Y-10676200D01*
D11*
X5594197Y-11590184D02*
X5594197Y-11390184D01*
X5594197Y-11390184D02*
X5641816Y-11390184D01*
X5641816Y-11390184D02*
X5670387Y-11399708D01*
X5670387Y-11399708D02*
X5689435Y-11418755D01*
X5689435Y-11418755D02*
X5698959Y-11437803D01*
X5698959Y-11437803D02*
X5708482Y-11475898D01*
X5708482Y-11475898D02*
X5708482Y-11504469D01*
X5708482Y-11504469D02*
X5698959Y-11542565D01*
X5698959Y-11542565D02*
X5689435Y-11561612D01*
X5689435Y-11561612D02*
X5670387Y-11580660D01*
X5670387Y-11580660D02*
X5641816Y-11590184D01*
X5641816Y-11590184D02*
X5594197Y-11590184D01*
X5794197Y-11590184D02*
X5794197Y-11456850D01*
X5794197Y-11494946D02*
X5803721Y-11475898D01*
X5803721Y-11475898D02*
X5813244Y-11466374D01*
X5813244Y-11466374D02*
X5832292Y-11456850D01*
X5832292Y-11456850D02*
X5851340Y-11456850D01*
X5918006Y-11590184D02*
X5918006Y-11456850D01*
X5918006Y-11390184D02*
X5908482Y-11399708D01*
X5908482Y-11399708D02*
X5918006Y-11409231D01*
X5918006Y-11409231D02*
X5927530Y-11399708D01*
X5927530Y-11399708D02*
X5918006Y-11390184D01*
X5918006Y-11390184D02*
X5918006Y-11409231D01*
X6041816Y-11590184D02*
X6022768Y-11580660D01*
X6022768Y-11580660D02*
X6013244Y-11561612D01*
X6013244Y-11561612D02*
X6013244Y-11390184D01*
X6146578Y-11590184D02*
X6127530Y-11580660D01*
X6127530Y-11580660D02*
X6118006Y-11561612D01*
X6118006Y-11561612D02*
X6118006Y-11390184D01*
X6375149Y-11590184D02*
X6375149Y-11390184D01*
X6375149Y-11390184D02*
X6441816Y-11533041D01*
X6441816Y-11533041D02*
X6508482Y-11390184D01*
X6508482Y-11390184D02*
X6508482Y-11590184D01*
X6689435Y-11590184D02*
X6689435Y-11485422D01*
X6689435Y-11485422D02*
X6679911Y-11466374D01*
X6679911Y-11466374D02*
X6660863Y-11456850D01*
X6660863Y-11456850D02*
X6622768Y-11456850D01*
X6622768Y-11456850D02*
X6603721Y-11466374D01*
X6689435Y-11580660D02*
X6670387Y-11590184D01*
X6670387Y-11590184D02*
X6622768Y-11590184D01*
X6622768Y-11590184D02*
X6603721Y-11580660D01*
X6603721Y-11580660D02*
X6594197Y-11561612D01*
X6594197Y-11561612D02*
X6594197Y-11542565D01*
X6594197Y-11542565D02*
X6603721Y-11523517D01*
X6603721Y-11523517D02*
X6622768Y-11513993D01*
X6622768Y-11513993D02*
X6670387Y-11513993D01*
X6670387Y-11513993D02*
X6689435Y-11504469D01*
X6784673Y-11456850D02*
X6784673Y-11656850D01*
X6784673Y-11466374D02*
X6803721Y-11456850D01*
X6803721Y-11456850D02*
X6841816Y-11456850D01*
X6841816Y-11456850D02*
X6860863Y-11466374D01*
X6860863Y-11466374D02*
X6870387Y-11475898D01*
X6870387Y-11475898D02*
X6879911Y-11494946D01*
X6879911Y-11494946D02*
X6879911Y-11552088D01*
X6879911Y-11552088D02*
X6870387Y-11571136D01*
X6870387Y-11571136D02*
X6860863Y-11580660D01*
X6860863Y-11580660D02*
X6841816Y-11590184D01*
X6841816Y-11590184D02*
X6803721Y-11590184D01*
X6803721Y-11590184D02*
X6784673Y-11580660D01*
X6965625Y-11571136D02*
X6975149Y-11580660D01*
X6975149Y-11580660D02*
X6965625Y-11590184D01*
X6965625Y-11590184D02*
X6956102Y-11580660D01*
X6956102Y-11580660D02*
X6965625Y-11571136D01*
X6965625Y-11571136D02*
X6965625Y-11590184D01*
X6965625Y-11466374D02*
X6975149Y-11475898D01*
X6975149Y-11475898D02*
X6965625Y-11485422D01*
X6965625Y-11485422D02*
X6956102Y-11475898D01*
X6956102Y-11475898D02*
X6965625Y-11466374D01*
X6965625Y-11466374D02*
X6965625Y-11485422D01*
D12*
X5303420Y-11903700D02*
X5333420Y-11933700D01*
X5333420Y-11903700D02*
X5303420Y-11933700D01*
D11*
X5632292Y-11810184D02*
X5651340Y-11810184D01*
X5651340Y-11810184D02*
X5670387Y-11819708D01*
X5670387Y-11819708D02*
X5679911Y-11829231D01*
X5679911Y-11829231D02*
X5689435Y-11848279D01*
X5689435Y-11848279D02*
X5698959Y-11886374D01*
X5698959Y-11886374D02*
X5698959Y-11933993D01*
X5698959Y-11933993D02*
X5689435Y-11972088D01*
X5689435Y-11972088D02*
X5679911Y-11991136D01*
X5679911Y-11991136D02*
X5670387Y-12000660D01*
X5670387Y-12000660D02*
X5651340Y-12010184D01*
X5651340Y-12010184D02*
X5632292Y-12010184D01*
X5632292Y-12010184D02*
X5613244Y-12000660D01*
X5613244Y-12000660D02*
X5603721Y-11991136D01*
X5603721Y-11991136D02*
X5594197Y-11972088D01*
X5594197Y-11972088D02*
X5584673Y-11933993D01*
X5584673Y-11933993D02*
X5584673Y-11886374D01*
X5584673Y-11886374D02*
X5594197Y-11848279D01*
X5594197Y-11848279D02*
X5603721Y-11829231D01*
X5603721Y-11829231D02*
X5613244Y-11819708D01*
X5613244Y-11819708D02*
X5632292Y-11810184D01*
X5784673Y-11991136D02*
X5794197Y-12000660D01*
X5794197Y-12000660D02*
X5784673Y-12010184D01*
X5784673Y-12010184D02*
X5775149Y-12000660D01*
X5775149Y-12000660D02*
X5784673Y-11991136D01*
X5784673Y-11991136D02*
X5784673Y-12010184D01*
X5860863Y-11810184D02*
X5984673Y-11810184D01*
X5984673Y-11810184D02*
X5918006Y-11886374D01*
X5918006Y-11886374D02*
X5946578Y-11886374D01*
X5946578Y-11886374D02*
X5965625Y-11895898D01*
X5965625Y-11895898D02*
X5975149Y-11905422D01*
X5975149Y-11905422D02*
X5984673Y-11924469D01*
X5984673Y-11924469D02*
X5984673Y-11972088D01*
X5984673Y-11972088D02*
X5975149Y-11991136D01*
X5975149Y-11991136D02*
X5965625Y-12000660D01*
X5965625Y-12000660D02*
X5946578Y-12010184D01*
X5946578Y-12010184D02*
X5889435Y-12010184D01*
X5889435Y-12010184D02*
X5870387Y-12000660D01*
X5870387Y-12000660D02*
X5860863Y-11991136D01*
X6108482Y-11810184D02*
X6127530Y-11810184D01*
X6127530Y-11810184D02*
X6146578Y-11819708D01*
X6146578Y-11819708D02*
X6156102Y-11829231D01*
X6156102Y-11829231D02*
X6165625Y-11848279D01*
X6165625Y-11848279D02*
X6175149Y-11886374D01*
X6175149Y-11886374D02*
X6175149Y-11933993D01*
X6175149Y-11933993D02*
X6165625Y-11972088D01*
X6165625Y-11972088D02*
X6156102Y-11991136D01*
X6156102Y-11991136D02*
X6146578Y-12000660D01*
X6146578Y-12000660D02*
X6127530Y-12010184D01*
X6127530Y-12010184D02*
X6108482Y-12010184D01*
X6108482Y-12010184D02*
X6089435Y-12000660D01*
X6089435Y-12000660D02*
X6079911Y-11991136D01*
X6079911Y-11991136D02*
X6070387Y-11972088D01*
X6070387Y-11972088D02*
X6060863Y-11933993D01*
X6060863Y-11933993D02*
X6060863Y-11886374D01*
X6060863Y-11886374D02*
X6070387Y-11848279D01*
X6070387Y-11848279D02*
X6079911Y-11829231D01*
X6079911Y-11829231D02*
X6089435Y-11819708D01*
X6089435Y-11819708D02*
X6108482Y-11810184D01*
X6298959Y-11810184D02*
X6318006Y-11810184D01*
X6318006Y-11810184D02*
X6337054Y-11819708D01*
X6337054Y-11819708D02*
X6346578Y-11829231D01*
X6346578Y-11829231D02*
X6356102Y-11848279D01*
X6356102Y-11848279D02*
X6365625Y-11886374D01*
X6365625Y-11886374D02*
X6365625Y-11933993D01*
X6365625Y-11933993D02*
X6356102Y-11972088D01*
X6356102Y-11972088D02*
X6346578Y-11991136D01*
X6346578Y-11991136D02*
X6337054Y-12000660D01*
X6337054Y-12000660D02*
X6318006Y-12010184D01*
X6318006Y-12010184D02*
X6298959Y-12010184D01*
X6298959Y-12010184D02*
X6279911Y-12000660D01*
X6279911Y-12000660D02*
X6270387Y-11991136D01*
X6270387Y-11991136D02*
X6260863Y-11972088D01*
X6260863Y-11972088D02*
X6251340Y-11933993D01*
X6251340Y-11933993D02*
X6251340Y-11886374D01*
X6251340Y-11886374D02*
X6260863Y-11848279D01*
X6260863Y-11848279D02*
X6270387Y-11829231D01*
X6270387Y-11829231D02*
X6279911Y-11819708D01*
X6279911Y-11819708D02*
X6298959Y-11810184D01*
X6451340Y-12010184D02*
X6451340Y-11876850D01*
X6451340Y-11895898D02*
X6460863Y-11886374D01*
X6460863Y-11886374D02*
X6479911Y-11876850D01*
X6479911Y-11876850D02*
X6508483Y-11876850D01*
X6508483Y-11876850D02*
X6527530Y-11886374D01*
X6527530Y-11886374D02*
X6537054Y-11905422D01*
X6537054Y-11905422D02*
X6537054Y-12010184D01*
X6537054Y-11905422D02*
X6546578Y-11886374D01*
X6546578Y-11886374D02*
X6565625Y-11876850D01*
X6565625Y-11876850D02*
X6594197Y-11876850D01*
X6594197Y-11876850D02*
X6613244Y-11886374D01*
X6613244Y-11886374D02*
X6622768Y-11905422D01*
X6622768Y-11905422D02*
X6622768Y-12010184D01*
X6718006Y-12010184D02*
X6718006Y-11876850D01*
X6718006Y-11895898D02*
X6727530Y-11886374D01*
X6727530Y-11886374D02*
X6746578Y-11876850D01*
X6746578Y-11876850D02*
X6775149Y-11876850D01*
X6775149Y-11876850D02*
X6794197Y-11886374D01*
X6794197Y-11886374D02*
X6803721Y-11905422D01*
X6803721Y-11905422D02*
X6803721Y-12010184D01*
X6803721Y-11905422D02*
X6813244Y-11886374D01*
X6813244Y-11886374D02*
X6832292Y-11876850D01*
X6832292Y-11876850D02*
X6860863Y-11876850D01*
X6860863Y-11876850D02*
X6879911Y-11886374D01*
X6879911Y-11886374D02*
X6889435Y-11905422D01*
X6889435Y-11905422D02*
X6889435Y-12010184D01*
X7279911Y-11800660D02*
X7108483Y-12057803D01*
X7537054Y-11810184D02*
X7556102Y-11810184D01*
X7556102Y-11810184D02*
X7575149Y-11819708D01*
X7575149Y-11819708D02*
X7584673Y-11829231D01*
X7584673Y-11829231D02*
X7594197Y-11848279D01*
X7594197Y-11848279D02*
X7603721Y-11886374D01*
X7603721Y-11886374D02*
X7603721Y-11933993D01*
X7603721Y-11933993D02*
X7594197Y-11972088D01*
X7594197Y-11972088D02*
X7584673Y-11991136D01*
X7584673Y-11991136D02*
X7575149Y-12000660D01*
X7575149Y-12000660D02*
X7556102Y-12010184D01*
X7556102Y-12010184D02*
X7537054Y-12010184D01*
X7537054Y-12010184D02*
X7518006Y-12000660D01*
X7518006Y-12000660D02*
X7508483Y-11991136D01*
X7508483Y-11991136D02*
X7498959Y-11972088D01*
X7498959Y-11972088D02*
X7489435Y-11933993D01*
X7489435Y-11933993D02*
X7489435Y-11886374D01*
X7489435Y-11886374D02*
X7498959Y-11848279D01*
X7498959Y-11848279D02*
X7508483Y-11829231D01*
X7508483Y-11829231D02*
X7518006Y-11819708D01*
X7518006Y-11819708D02*
X7537054Y-11810184D01*
X7689435Y-11991136D02*
X7698959Y-12000660D01*
X7698959Y-12000660D02*
X7689435Y-12010184D01*
X7689435Y-12010184D02*
X7679911Y-12000660D01*
X7679911Y-12000660D02*
X7689435Y-11991136D01*
X7689435Y-11991136D02*
X7689435Y-12010184D01*
X7822768Y-11810184D02*
X7841816Y-11810184D01*
X7841816Y-11810184D02*
X7860864Y-11819708D01*
X7860864Y-11819708D02*
X7870387Y-11829231D01*
X7870387Y-11829231D02*
X7879911Y-11848279D01*
X7879911Y-11848279D02*
X7889435Y-11886374D01*
X7889435Y-11886374D02*
X7889435Y-11933993D01*
X7889435Y-11933993D02*
X7879911Y-11972088D01*
X7879911Y-11972088D02*
X7870387Y-11991136D01*
X7870387Y-11991136D02*
X7860864Y-12000660D01*
X7860864Y-12000660D02*
X7841816Y-12010184D01*
X7841816Y-12010184D02*
X7822768Y-12010184D01*
X7822768Y-12010184D02*
X7803721Y-12000660D01*
X7803721Y-12000660D02*
X7794197Y-11991136D01*
X7794197Y-11991136D02*
X7784673Y-11972088D01*
X7784673Y-11972088D02*
X7775149Y-11933993D01*
X7775149Y-11933993D02*
X7775149Y-11886374D01*
X7775149Y-11886374D02*
X7784673Y-11848279D01*
X7784673Y-11848279D02*
X7794197Y-11829231D01*
X7794197Y-11829231D02*
X7803721Y-11819708D01*
X7803721Y-11819708D02*
X7822768Y-11810184D01*
X8079911Y-12010184D02*
X7965626Y-12010184D01*
X8022768Y-12010184D02*
X8022768Y-11810184D01*
X8022768Y-11810184D02*
X8003721Y-11838755D01*
X8003721Y-11838755D02*
X7984673Y-11857803D01*
X7984673Y-11857803D02*
X7965626Y-11867327D01*
X8270387Y-12010184D02*
X8156102Y-12010184D01*
X8213245Y-12010184D02*
X8213245Y-11810184D01*
X8213245Y-11810184D02*
X8194197Y-11838755D01*
X8194197Y-11838755D02*
X8175149Y-11857803D01*
X8175149Y-11857803D02*
X8156102Y-11867327D01*
X8384673Y-11895898D02*
X8365626Y-11886374D01*
X8365626Y-11886374D02*
X8356102Y-11876850D01*
X8356102Y-11876850D02*
X8346578Y-11857803D01*
X8346578Y-11857803D02*
X8346578Y-11848279D01*
X8346578Y-11848279D02*
X8356102Y-11829231D01*
X8356102Y-11829231D02*
X8365626Y-11819708D01*
X8365626Y-11819708D02*
X8384673Y-11810184D01*
X8384673Y-11810184D02*
X8422769Y-11810184D01*
X8422769Y-11810184D02*
X8441816Y-11819708D01*
X8441816Y-11819708D02*
X8451340Y-11829231D01*
X8451340Y-11829231D02*
X8460864Y-11848279D01*
X8460864Y-11848279D02*
X8460864Y-11857803D01*
X8460864Y-11857803D02*
X8451340Y-11876850D01*
X8451340Y-11876850D02*
X8441816Y-11886374D01*
X8441816Y-11886374D02*
X8422769Y-11895898D01*
X8422769Y-11895898D02*
X8384673Y-11895898D01*
X8384673Y-11895898D02*
X8365626Y-11905422D01*
X8365626Y-11905422D02*
X8356102Y-11914946D01*
X8356102Y-11914946D02*
X8346578Y-11933993D01*
X8346578Y-11933993D02*
X8346578Y-11972088D01*
X8346578Y-11972088D02*
X8356102Y-11991136D01*
X8356102Y-11991136D02*
X8365626Y-12000660D01*
X8365626Y-12000660D02*
X8384673Y-12010184D01*
X8384673Y-12010184D02*
X8422769Y-12010184D01*
X8422769Y-12010184D02*
X8441816Y-12000660D01*
X8441816Y-12000660D02*
X8451340Y-11991136D01*
X8451340Y-11991136D02*
X8460864Y-11972088D01*
X8460864Y-11972088D02*
X8460864Y-11933993D01*
X8460864Y-11933993D02*
X8451340Y-11914946D01*
X8451340Y-11914946D02*
X8441816Y-11905422D01*
X8441816Y-11905422D02*
X8422769Y-11895898D01*
X8537054Y-11810184D02*
X8537054Y-11848279D01*
X8613245Y-11810184D02*
X8613245Y-11848279D01*
X8908483Y-12086374D02*
X8898959Y-12076850D01*
X8898959Y-12076850D02*
X8879911Y-12048279D01*
X8879911Y-12048279D02*
X8870388Y-12029231D01*
X8870388Y-12029231D02*
X8860864Y-12000660D01*
X8860864Y-12000660D02*
X8851340Y-11953041D01*
X8851340Y-11953041D02*
X8851340Y-11914946D01*
X8851340Y-11914946D02*
X8860864Y-11867327D01*
X8860864Y-11867327D02*
X8870388Y-11838755D01*
X8870388Y-11838755D02*
X8879911Y-11819708D01*
X8879911Y-11819708D02*
X8898959Y-11791136D01*
X8898959Y-11791136D02*
X8908483Y-11781612D01*
X8965626Y-11810184D02*
X9089435Y-11810184D01*
X9089435Y-11810184D02*
X9022769Y-11886374D01*
X9022769Y-11886374D02*
X9051340Y-11886374D01*
X9051340Y-11886374D02*
X9070388Y-11895898D01*
X9070388Y-11895898D02*
X9079911Y-11905422D01*
X9079911Y-11905422D02*
X9089435Y-11924469D01*
X9089435Y-11924469D02*
X9089435Y-11972088D01*
X9089435Y-11972088D02*
X9079911Y-11991136D01*
X9079911Y-11991136D02*
X9070388Y-12000660D01*
X9070388Y-12000660D02*
X9051340Y-12010184D01*
X9051340Y-12010184D02*
X8994197Y-12010184D01*
X8994197Y-12010184D02*
X8975150Y-12000660D01*
X8975150Y-12000660D02*
X8965626Y-11991136D01*
X9213245Y-11810184D02*
X9232292Y-11810184D01*
X9232292Y-11810184D02*
X9251340Y-11819708D01*
X9251340Y-11819708D02*
X9260864Y-11829231D01*
X9260864Y-11829231D02*
X9270388Y-11848279D01*
X9270388Y-11848279D02*
X9279911Y-11886374D01*
X9279911Y-11886374D02*
X9279911Y-11933993D01*
X9279911Y-11933993D02*
X9270388Y-11972088D01*
X9270388Y-11972088D02*
X9260864Y-11991136D01*
X9260864Y-11991136D02*
X9251340Y-12000660D01*
X9251340Y-12000660D02*
X9232292Y-12010184D01*
X9232292Y-12010184D02*
X9213245Y-12010184D01*
X9213245Y-12010184D02*
X9194197Y-12000660D01*
X9194197Y-12000660D02*
X9184673Y-11991136D01*
X9184673Y-11991136D02*
X9175150Y-11972088D01*
X9175150Y-11972088D02*
X9165626Y-11933993D01*
X9165626Y-11933993D02*
X9165626Y-11886374D01*
X9165626Y-11886374D02*
X9175150Y-11848279D01*
X9175150Y-11848279D02*
X9184673Y-11829231D01*
X9184673Y-11829231D02*
X9194197Y-11819708D01*
X9194197Y-11819708D02*
X9213245Y-11810184D01*
X9460864Y-11810184D02*
X9365626Y-11810184D01*
X9365626Y-11810184D02*
X9356102Y-11905422D01*
X9356102Y-11905422D02*
X9365626Y-11895898D01*
X9365626Y-11895898D02*
X9384673Y-11886374D01*
X9384673Y-11886374D02*
X9432292Y-11886374D01*
X9432292Y-11886374D02*
X9451340Y-11895898D01*
X9451340Y-11895898D02*
X9460864Y-11905422D01*
X9460864Y-11905422D02*
X9470388Y-11924469D01*
X9470388Y-11924469D02*
X9470388Y-11972088D01*
X9470388Y-11972088D02*
X9460864Y-11991136D01*
X9460864Y-11991136D02*
X9451340Y-12000660D01*
X9451340Y-12000660D02*
X9432292Y-12010184D01*
X9432292Y-12010184D02*
X9384673Y-12010184D01*
X9384673Y-12010184D02*
X9365626Y-12000660D01*
X9365626Y-12000660D02*
X9356102Y-11991136D01*
X9708483Y-12010184D02*
X9708483Y-11810184D01*
X9794197Y-12010184D02*
X9794197Y-11905422D01*
X9794197Y-11905422D02*
X9784673Y-11886374D01*
X9784673Y-11886374D02*
X9765626Y-11876850D01*
X9765626Y-11876850D02*
X9737054Y-11876850D01*
X9737054Y-11876850D02*
X9718007Y-11886374D01*
X9718007Y-11886374D02*
X9708483Y-11895898D01*
X9918007Y-12010184D02*
X9898959Y-12000660D01*
X9898959Y-12000660D02*
X9889435Y-11991136D01*
X9889435Y-11991136D02*
X9879912Y-11972088D01*
X9879912Y-11972088D02*
X9879912Y-11914946D01*
X9879912Y-11914946D02*
X9889435Y-11895898D01*
X9889435Y-11895898D02*
X9898959Y-11886374D01*
X9898959Y-11886374D02*
X9918007Y-11876850D01*
X9918007Y-11876850D02*
X9946578Y-11876850D01*
X9946578Y-11876850D02*
X9965626Y-11886374D01*
X9965626Y-11886374D02*
X9975150Y-11895898D01*
X9975150Y-11895898D02*
X9984673Y-11914946D01*
X9984673Y-11914946D02*
X9984673Y-11972088D01*
X9984673Y-11972088D02*
X9975150Y-11991136D01*
X9975150Y-11991136D02*
X9965626Y-12000660D01*
X9965626Y-12000660D02*
X9946578Y-12010184D01*
X9946578Y-12010184D02*
X9918007Y-12010184D01*
X10098959Y-12010184D02*
X10079912Y-12000660D01*
X10079912Y-12000660D02*
X10070388Y-11981612D01*
X10070388Y-11981612D02*
X10070388Y-11810184D01*
X10251340Y-12000660D02*
X10232293Y-12010184D01*
X10232293Y-12010184D02*
X10194197Y-12010184D01*
X10194197Y-12010184D02*
X10175150Y-12000660D01*
X10175150Y-12000660D02*
X10165626Y-11981612D01*
X10165626Y-11981612D02*
X10165626Y-11905422D01*
X10165626Y-11905422D02*
X10175150Y-11886374D01*
X10175150Y-11886374D02*
X10194197Y-11876850D01*
X10194197Y-11876850D02*
X10232293Y-11876850D01*
X10232293Y-11876850D02*
X10251340Y-11886374D01*
X10251340Y-11886374D02*
X10260864Y-11905422D01*
X10260864Y-11905422D02*
X10260864Y-11924469D01*
X10260864Y-11924469D02*
X10165626Y-11943517D01*
X10337054Y-12000660D02*
X10356102Y-12010184D01*
X10356102Y-12010184D02*
X10394197Y-12010184D01*
X10394197Y-12010184D02*
X10413245Y-12000660D01*
X10413245Y-12000660D02*
X10422769Y-11981612D01*
X10422769Y-11981612D02*
X10422769Y-11972088D01*
X10422769Y-11972088D02*
X10413245Y-11953041D01*
X10413245Y-11953041D02*
X10394197Y-11943517D01*
X10394197Y-11943517D02*
X10365626Y-11943517D01*
X10365626Y-11943517D02*
X10346578Y-11933993D01*
X10346578Y-11933993D02*
X10337054Y-11914946D01*
X10337054Y-11914946D02*
X10337054Y-11905422D01*
X10337054Y-11905422D02*
X10346578Y-11886374D01*
X10346578Y-11886374D02*
X10365626Y-11876850D01*
X10365626Y-11876850D02*
X10394197Y-11876850D01*
X10394197Y-11876850D02*
X10413245Y-11886374D01*
X10489435Y-12086374D02*
X10498959Y-12076850D01*
X10498959Y-12076850D02*
X10518007Y-12048279D01*
X10518007Y-12048279D02*
X10527531Y-12029231D01*
X10527531Y-12029231D02*
X10537054Y-12000660D01*
X10537054Y-12000660D02*
X10546578Y-11953041D01*
X10546578Y-11953041D02*
X10546578Y-11914946D01*
X10546578Y-11914946D02*
X10537054Y-11867327D01*
X10537054Y-11867327D02*
X10527531Y-11838755D01*
X10527531Y-11838755D02*
X10518007Y-11819708D01*
X10518007Y-11819708D02*
X10498959Y-11791136D01*
X10498959Y-11791136D02*
X10489435Y-11781612D01*
D12*
X5333420Y-12182700D02*
G75*
G02*
X5283420Y-12182700I-25000J0D01*
G01*
X5283420Y-12182700D02*
G75*
G02*
X5333420Y-12182700I25000J0D01*
G01*
D11*
X5632292Y-12074184D02*
X5651340Y-12074184D01*
X5651340Y-12074184D02*
X5670387Y-12083708D01*
X5670387Y-12083708D02*
X5679911Y-12093231D01*
X5679911Y-12093231D02*
X5689435Y-12112279D01*
X5689435Y-12112279D02*
X5698959Y-12150374D01*
X5698959Y-12150374D02*
X5698959Y-12197993D01*
X5698959Y-12197993D02*
X5689435Y-12236088D01*
X5689435Y-12236088D02*
X5679911Y-12255136D01*
X5679911Y-12255136D02*
X5670387Y-12264660D01*
X5670387Y-12264660D02*
X5651340Y-12274184D01*
X5651340Y-12274184D02*
X5632292Y-12274184D01*
X5632292Y-12274184D02*
X5613244Y-12264660D01*
X5613244Y-12264660D02*
X5603721Y-12255136D01*
X5603721Y-12255136D02*
X5594197Y-12236088D01*
X5594197Y-12236088D02*
X5584673Y-12197993D01*
X5584673Y-12197993D02*
X5584673Y-12150374D01*
X5584673Y-12150374D02*
X5594197Y-12112279D01*
X5594197Y-12112279D02*
X5603721Y-12093231D01*
X5603721Y-12093231D02*
X5613244Y-12083708D01*
X5613244Y-12083708D02*
X5632292Y-12074184D01*
X5784673Y-12255136D02*
X5794197Y-12264660D01*
X5794197Y-12264660D02*
X5784673Y-12274184D01*
X5784673Y-12274184D02*
X5775149Y-12264660D01*
X5775149Y-12264660D02*
X5784673Y-12255136D01*
X5784673Y-12255136D02*
X5784673Y-12274184D01*
X5975149Y-12074184D02*
X5879911Y-12074184D01*
X5879911Y-12074184D02*
X5870387Y-12169422D01*
X5870387Y-12169422D02*
X5879911Y-12159898D01*
X5879911Y-12159898D02*
X5898959Y-12150374D01*
X5898959Y-12150374D02*
X5946578Y-12150374D01*
X5946578Y-12150374D02*
X5965625Y-12159898D01*
X5965625Y-12159898D02*
X5975149Y-12169422D01*
X5975149Y-12169422D02*
X5984673Y-12188469D01*
X5984673Y-12188469D02*
X5984673Y-12236088D01*
X5984673Y-12236088D02*
X5975149Y-12255136D01*
X5975149Y-12255136D02*
X5965625Y-12264660D01*
X5965625Y-12264660D02*
X5946578Y-12274184D01*
X5946578Y-12274184D02*
X5898959Y-12274184D01*
X5898959Y-12274184D02*
X5879911Y-12264660D01*
X5879911Y-12264660D02*
X5870387Y-12255136D01*
X6108482Y-12074184D02*
X6127530Y-12074184D01*
X6127530Y-12074184D02*
X6146578Y-12083708D01*
X6146578Y-12083708D02*
X6156102Y-12093231D01*
X6156102Y-12093231D02*
X6165625Y-12112279D01*
X6165625Y-12112279D02*
X6175149Y-12150374D01*
X6175149Y-12150374D02*
X6175149Y-12197993D01*
X6175149Y-12197993D02*
X6165625Y-12236088D01*
X6165625Y-12236088D02*
X6156102Y-12255136D01*
X6156102Y-12255136D02*
X6146578Y-12264660D01*
X6146578Y-12264660D02*
X6127530Y-12274184D01*
X6127530Y-12274184D02*
X6108482Y-12274184D01*
X6108482Y-12274184D02*
X6089435Y-12264660D01*
X6089435Y-12264660D02*
X6079911Y-12255136D01*
X6079911Y-12255136D02*
X6070387Y-12236088D01*
X6070387Y-12236088D02*
X6060863Y-12197993D01*
X6060863Y-12197993D02*
X6060863Y-12150374D01*
X6060863Y-12150374D02*
X6070387Y-12112279D01*
X6070387Y-12112279D02*
X6079911Y-12093231D01*
X6079911Y-12093231D02*
X6089435Y-12083708D01*
X6089435Y-12083708D02*
X6108482Y-12074184D01*
X6298959Y-12074184D02*
X6318006Y-12074184D01*
X6318006Y-12074184D02*
X6337054Y-12083708D01*
X6337054Y-12083708D02*
X6346578Y-12093231D01*
X6346578Y-12093231D02*
X6356102Y-12112279D01*
X6356102Y-12112279D02*
X6365625Y-12150374D01*
X6365625Y-12150374D02*
X6365625Y-12197993D01*
X6365625Y-12197993D02*
X6356102Y-12236088D01*
X6356102Y-12236088D02*
X6346578Y-12255136D01*
X6346578Y-12255136D02*
X6337054Y-12264660D01*
X6337054Y-12264660D02*
X6318006Y-12274184D01*
X6318006Y-12274184D02*
X6298959Y-12274184D01*
X6298959Y-12274184D02*
X6279911Y-12264660D01*
X6279911Y-12264660D02*
X6270387Y-12255136D01*
X6270387Y-12255136D02*
X6260863Y-12236088D01*
X6260863Y-12236088D02*
X6251340Y-12197993D01*
X6251340Y-12197993D02*
X6251340Y-12150374D01*
X6251340Y-12150374D02*
X6260863Y-12112279D01*
X6260863Y-12112279D02*
X6270387Y-12093231D01*
X6270387Y-12093231D02*
X6279911Y-12083708D01*
X6279911Y-12083708D02*
X6298959Y-12074184D01*
X6451340Y-12274184D02*
X6451340Y-12140850D01*
X6451340Y-12159898D02*
X6460863Y-12150374D01*
X6460863Y-12150374D02*
X6479911Y-12140850D01*
X6479911Y-12140850D02*
X6508483Y-12140850D01*
X6508483Y-12140850D02*
X6527530Y-12150374D01*
X6527530Y-12150374D02*
X6537054Y-12169422D01*
X6537054Y-12169422D02*
X6537054Y-12274184D01*
X6537054Y-12169422D02*
X6546578Y-12150374D01*
X6546578Y-12150374D02*
X6565625Y-12140850D01*
X6565625Y-12140850D02*
X6594197Y-12140850D01*
X6594197Y-12140850D02*
X6613244Y-12150374D01*
X6613244Y-12150374D02*
X6622768Y-12169422D01*
X6622768Y-12169422D02*
X6622768Y-12274184D01*
X6718006Y-12274184D02*
X6718006Y-12140850D01*
X6718006Y-12159898D02*
X6727530Y-12150374D01*
X6727530Y-12150374D02*
X6746578Y-12140850D01*
X6746578Y-12140850D02*
X6775149Y-12140850D01*
X6775149Y-12140850D02*
X6794197Y-12150374D01*
X6794197Y-12150374D02*
X6803721Y-12169422D01*
X6803721Y-12169422D02*
X6803721Y-12274184D01*
X6803721Y-12169422D02*
X6813244Y-12150374D01*
X6813244Y-12150374D02*
X6832292Y-12140850D01*
X6832292Y-12140850D02*
X6860863Y-12140850D01*
X6860863Y-12140850D02*
X6879911Y-12150374D01*
X6879911Y-12150374D02*
X6889435Y-12169422D01*
X6889435Y-12169422D02*
X6889435Y-12274184D01*
X7279911Y-12064660D02*
X7108483Y-12321803D01*
X7537054Y-12074184D02*
X7556102Y-12074184D01*
X7556102Y-12074184D02*
X7575149Y-12083708D01*
X7575149Y-12083708D02*
X7584673Y-12093231D01*
X7584673Y-12093231D02*
X7594197Y-12112279D01*
X7594197Y-12112279D02*
X7603721Y-12150374D01*
X7603721Y-12150374D02*
X7603721Y-12197993D01*
X7603721Y-12197993D02*
X7594197Y-12236088D01*
X7594197Y-12236088D02*
X7584673Y-12255136D01*
X7584673Y-12255136D02*
X7575149Y-12264660D01*
X7575149Y-12264660D02*
X7556102Y-12274184D01*
X7556102Y-12274184D02*
X7537054Y-12274184D01*
X7537054Y-12274184D02*
X7518006Y-12264660D01*
X7518006Y-12264660D02*
X7508483Y-12255136D01*
X7508483Y-12255136D02*
X7498959Y-12236088D01*
X7498959Y-12236088D02*
X7489435Y-12197993D01*
X7489435Y-12197993D02*
X7489435Y-12150374D01*
X7489435Y-12150374D02*
X7498959Y-12112279D01*
X7498959Y-12112279D02*
X7508483Y-12093231D01*
X7508483Y-12093231D02*
X7518006Y-12083708D01*
X7518006Y-12083708D02*
X7537054Y-12074184D01*
X7689435Y-12255136D02*
X7698959Y-12264660D01*
X7698959Y-12264660D02*
X7689435Y-12274184D01*
X7689435Y-12274184D02*
X7679911Y-12264660D01*
X7679911Y-12264660D02*
X7689435Y-12255136D01*
X7689435Y-12255136D02*
X7689435Y-12274184D01*
X7822768Y-12074184D02*
X7841816Y-12074184D01*
X7841816Y-12074184D02*
X7860864Y-12083708D01*
X7860864Y-12083708D02*
X7870387Y-12093231D01*
X7870387Y-12093231D02*
X7879911Y-12112279D01*
X7879911Y-12112279D02*
X7889435Y-12150374D01*
X7889435Y-12150374D02*
X7889435Y-12197993D01*
X7889435Y-12197993D02*
X7879911Y-12236088D01*
X7879911Y-12236088D02*
X7870387Y-12255136D01*
X7870387Y-12255136D02*
X7860864Y-12264660D01*
X7860864Y-12264660D02*
X7841816Y-12274184D01*
X7841816Y-12274184D02*
X7822768Y-12274184D01*
X7822768Y-12274184D02*
X7803721Y-12264660D01*
X7803721Y-12264660D02*
X7794197Y-12255136D01*
X7794197Y-12255136D02*
X7784673Y-12236088D01*
X7784673Y-12236088D02*
X7775149Y-12197993D01*
X7775149Y-12197993D02*
X7775149Y-12150374D01*
X7775149Y-12150374D02*
X7784673Y-12112279D01*
X7784673Y-12112279D02*
X7794197Y-12093231D01*
X7794197Y-12093231D02*
X7803721Y-12083708D01*
X7803721Y-12083708D02*
X7822768Y-12074184D01*
X8079911Y-12274184D02*
X7965626Y-12274184D01*
X8022768Y-12274184D02*
X8022768Y-12074184D01*
X8022768Y-12074184D02*
X8003721Y-12102755D01*
X8003721Y-12102755D02*
X7984673Y-12121803D01*
X7984673Y-12121803D02*
X7965626Y-12131327D01*
X8175149Y-12274184D02*
X8213245Y-12274184D01*
X8213245Y-12274184D02*
X8232292Y-12264660D01*
X8232292Y-12264660D02*
X8241816Y-12255136D01*
X8241816Y-12255136D02*
X8260864Y-12226565D01*
X8260864Y-12226565D02*
X8270387Y-12188469D01*
X8270387Y-12188469D02*
X8270387Y-12112279D01*
X8270387Y-12112279D02*
X8260864Y-12093231D01*
X8260864Y-12093231D02*
X8251340Y-12083708D01*
X8251340Y-12083708D02*
X8232292Y-12074184D01*
X8232292Y-12074184D02*
X8194197Y-12074184D01*
X8194197Y-12074184D02*
X8175149Y-12083708D01*
X8175149Y-12083708D02*
X8165626Y-12093231D01*
X8165626Y-12093231D02*
X8156102Y-12112279D01*
X8156102Y-12112279D02*
X8156102Y-12159898D01*
X8156102Y-12159898D02*
X8165626Y-12178946D01*
X8165626Y-12178946D02*
X8175149Y-12188469D01*
X8175149Y-12188469D02*
X8194197Y-12197993D01*
X8194197Y-12197993D02*
X8232292Y-12197993D01*
X8232292Y-12197993D02*
X8251340Y-12188469D01*
X8251340Y-12188469D02*
X8260864Y-12178946D01*
X8260864Y-12178946D02*
X8270387Y-12159898D01*
X8337054Y-12074184D02*
X8470388Y-12074184D01*
X8470388Y-12074184D02*
X8384673Y-12274184D01*
X8537054Y-12074184D02*
X8537054Y-12112279D01*
X8613245Y-12074184D02*
X8613245Y-12112279D01*
X8908483Y-12350374D02*
X8898959Y-12340850D01*
X8898959Y-12340850D02*
X8879911Y-12312279D01*
X8879911Y-12312279D02*
X8870388Y-12293231D01*
X8870388Y-12293231D02*
X8860864Y-12264660D01*
X8860864Y-12264660D02*
X8851340Y-12217041D01*
X8851340Y-12217041D02*
X8851340Y-12178946D01*
X8851340Y-12178946D02*
X8860864Y-12131327D01*
X8860864Y-12131327D02*
X8870388Y-12102755D01*
X8870388Y-12102755D02*
X8879911Y-12083708D01*
X8879911Y-12083708D02*
X8898959Y-12055136D01*
X8898959Y-12055136D02*
X8908483Y-12045612D01*
X9089435Y-12274184D02*
X8975150Y-12274184D01*
X9032292Y-12274184D02*
X9032292Y-12074184D01*
X9032292Y-12074184D02*
X9013245Y-12102755D01*
X9013245Y-12102755D02*
X8994197Y-12121803D01*
X8994197Y-12121803D02*
X8975150Y-12131327D01*
X9279911Y-12274184D02*
X9165626Y-12274184D01*
X9222769Y-12274184D02*
X9222769Y-12074184D01*
X9222769Y-12074184D02*
X9203721Y-12102755D01*
X9203721Y-12102755D02*
X9184673Y-12121803D01*
X9184673Y-12121803D02*
X9165626Y-12131327D01*
X9518007Y-12274184D02*
X9518007Y-12074184D01*
X9603721Y-12274184D02*
X9603721Y-12169422D01*
X9603721Y-12169422D02*
X9594197Y-12150374D01*
X9594197Y-12150374D02*
X9575150Y-12140850D01*
X9575150Y-12140850D02*
X9546578Y-12140850D01*
X9546578Y-12140850D02*
X9527531Y-12150374D01*
X9527531Y-12150374D02*
X9518007Y-12159898D01*
X9727531Y-12274184D02*
X9708483Y-12264660D01*
X9708483Y-12264660D02*
X9698959Y-12255136D01*
X9698959Y-12255136D02*
X9689435Y-12236088D01*
X9689435Y-12236088D02*
X9689435Y-12178946D01*
X9689435Y-12178946D02*
X9698959Y-12159898D01*
X9698959Y-12159898D02*
X9708483Y-12150374D01*
X9708483Y-12150374D02*
X9727531Y-12140850D01*
X9727531Y-12140850D02*
X9756102Y-12140850D01*
X9756102Y-12140850D02*
X9775150Y-12150374D01*
X9775150Y-12150374D02*
X9784673Y-12159898D01*
X9784673Y-12159898D02*
X9794197Y-12178946D01*
X9794197Y-12178946D02*
X9794197Y-12236088D01*
X9794197Y-12236088D02*
X9784673Y-12255136D01*
X9784673Y-12255136D02*
X9775150Y-12264660D01*
X9775150Y-12264660D02*
X9756102Y-12274184D01*
X9756102Y-12274184D02*
X9727531Y-12274184D01*
X9908483Y-12274184D02*
X9889435Y-12264660D01*
X9889435Y-12264660D02*
X9879912Y-12245612D01*
X9879912Y-12245612D02*
X9879912Y-12074184D01*
X10060864Y-12264660D02*
X10041816Y-12274184D01*
X10041816Y-12274184D02*
X10003721Y-12274184D01*
X10003721Y-12274184D02*
X9984673Y-12264660D01*
X9984673Y-12264660D02*
X9975150Y-12245612D01*
X9975150Y-12245612D02*
X9975150Y-12169422D01*
X9975150Y-12169422D02*
X9984673Y-12150374D01*
X9984673Y-12150374D02*
X10003721Y-12140850D01*
X10003721Y-12140850D02*
X10041816Y-12140850D01*
X10041816Y-12140850D02*
X10060864Y-12150374D01*
X10060864Y-12150374D02*
X10070388Y-12169422D01*
X10070388Y-12169422D02*
X10070388Y-12188469D01*
X10070388Y-12188469D02*
X9975150Y-12207517D01*
X10146578Y-12264660D02*
X10165626Y-12274184D01*
X10165626Y-12274184D02*
X10203721Y-12274184D01*
X10203721Y-12274184D02*
X10222769Y-12264660D01*
X10222769Y-12264660D02*
X10232293Y-12245612D01*
X10232293Y-12245612D02*
X10232293Y-12236088D01*
X10232293Y-12236088D02*
X10222769Y-12217041D01*
X10222769Y-12217041D02*
X10203721Y-12207517D01*
X10203721Y-12207517D02*
X10175150Y-12207517D01*
X10175150Y-12207517D02*
X10156102Y-12197993D01*
X10156102Y-12197993D02*
X10146578Y-12178946D01*
X10146578Y-12178946D02*
X10146578Y-12169422D01*
X10146578Y-12169422D02*
X10156102Y-12150374D01*
X10156102Y-12150374D02*
X10175150Y-12140850D01*
X10175150Y-12140850D02*
X10203721Y-12140850D01*
X10203721Y-12140850D02*
X10222769Y-12150374D01*
X10298959Y-12350374D02*
X10308483Y-12340850D01*
X10308483Y-12340850D02*
X10327531Y-12312279D01*
X10327531Y-12312279D02*
X10337054Y-12293231D01*
X10337054Y-12293231D02*
X10346578Y-12264660D01*
X10346578Y-12264660D02*
X10356102Y-12217041D01*
X10356102Y-12217041D02*
X10356102Y-12178946D01*
X10356102Y-12178946D02*
X10346578Y-12131327D01*
X10346578Y-12131327D02*
X10337054Y-12102755D01*
X10337054Y-12102755D02*
X10327531Y-12083708D01*
X10327531Y-12083708D02*
X10308483Y-12055136D01*
X10308483Y-12055136D02*
X10298959Y-12045612D01*
D12*
X5303420Y-12416700D02*
X5303420Y-12476700D01*
X5273420Y-12446700D02*
X5333420Y-12446700D01*
D11*
X5632292Y-12338184D02*
X5651340Y-12338184D01*
X5651340Y-12338184D02*
X5670387Y-12347708D01*
X5670387Y-12347708D02*
X5679911Y-12357231D01*
X5679911Y-12357231D02*
X5689435Y-12376279D01*
X5689435Y-12376279D02*
X5698959Y-12414374D01*
X5698959Y-12414374D02*
X5698959Y-12461993D01*
X5698959Y-12461993D02*
X5689435Y-12500088D01*
X5689435Y-12500088D02*
X5679911Y-12519136D01*
X5679911Y-12519136D02*
X5670387Y-12528660D01*
X5670387Y-12528660D02*
X5651340Y-12538184D01*
X5651340Y-12538184D02*
X5632292Y-12538184D01*
X5632292Y-12538184D02*
X5613244Y-12528660D01*
X5613244Y-12528660D02*
X5603721Y-12519136D01*
X5603721Y-12519136D02*
X5594197Y-12500088D01*
X5594197Y-12500088D02*
X5584673Y-12461993D01*
X5584673Y-12461993D02*
X5584673Y-12414374D01*
X5584673Y-12414374D02*
X5594197Y-12376279D01*
X5594197Y-12376279D02*
X5603721Y-12357231D01*
X5603721Y-12357231D02*
X5613244Y-12347708D01*
X5613244Y-12347708D02*
X5632292Y-12338184D01*
X5784673Y-12519136D02*
X5794197Y-12528660D01*
X5794197Y-12528660D02*
X5784673Y-12538184D01*
X5784673Y-12538184D02*
X5775149Y-12528660D01*
X5775149Y-12528660D02*
X5784673Y-12519136D01*
X5784673Y-12519136D02*
X5784673Y-12538184D01*
X5965625Y-12338184D02*
X5927530Y-12338184D01*
X5927530Y-12338184D02*
X5908482Y-12347708D01*
X5908482Y-12347708D02*
X5898959Y-12357231D01*
X5898959Y-12357231D02*
X5879911Y-12385803D01*
X5879911Y-12385803D02*
X5870387Y-12423898D01*
X5870387Y-12423898D02*
X5870387Y-12500088D01*
X5870387Y-12500088D02*
X5879911Y-12519136D01*
X5879911Y-12519136D02*
X5889435Y-12528660D01*
X5889435Y-12528660D02*
X5908482Y-12538184D01*
X5908482Y-12538184D02*
X5946578Y-12538184D01*
X5946578Y-12538184D02*
X5965625Y-12528660D01*
X5965625Y-12528660D02*
X5975149Y-12519136D01*
X5975149Y-12519136D02*
X5984673Y-12500088D01*
X5984673Y-12500088D02*
X5984673Y-12452469D01*
X5984673Y-12452469D02*
X5975149Y-12433422D01*
X5975149Y-12433422D02*
X5965625Y-12423898D01*
X5965625Y-12423898D02*
X5946578Y-12414374D01*
X5946578Y-12414374D02*
X5908482Y-12414374D01*
X5908482Y-12414374D02*
X5889435Y-12423898D01*
X5889435Y-12423898D02*
X5879911Y-12433422D01*
X5879911Y-12433422D02*
X5870387Y-12452469D01*
X6108482Y-12338184D02*
X6127530Y-12338184D01*
X6127530Y-12338184D02*
X6146578Y-12347708D01*
X6146578Y-12347708D02*
X6156102Y-12357231D01*
X6156102Y-12357231D02*
X6165625Y-12376279D01*
X6165625Y-12376279D02*
X6175149Y-12414374D01*
X6175149Y-12414374D02*
X6175149Y-12461993D01*
X6175149Y-12461993D02*
X6165625Y-12500088D01*
X6165625Y-12500088D02*
X6156102Y-12519136D01*
X6156102Y-12519136D02*
X6146578Y-12528660D01*
X6146578Y-12528660D02*
X6127530Y-12538184D01*
X6127530Y-12538184D02*
X6108482Y-12538184D01*
X6108482Y-12538184D02*
X6089435Y-12528660D01*
X6089435Y-12528660D02*
X6079911Y-12519136D01*
X6079911Y-12519136D02*
X6070387Y-12500088D01*
X6070387Y-12500088D02*
X6060863Y-12461993D01*
X6060863Y-12461993D02*
X6060863Y-12414374D01*
X6060863Y-12414374D02*
X6070387Y-12376279D01*
X6070387Y-12376279D02*
X6079911Y-12357231D01*
X6079911Y-12357231D02*
X6089435Y-12347708D01*
X6089435Y-12347708D02*
X6108482Y-12338184D01*
X6298959Y-12338184D02*
X6318006Y-12338184D01*
X6318006Y-12338184D02*
X6337054Y-12347708D01*
X6337054Y-12347708D02*
X6346578Y-12357231D01*
X6346578Y-12357231D02*
X6356102Y-12376279D01*
X6356102Y-12376279D02*
X6365625Y-12414374D01*
X6365625Y-12414374D02*
X6365625Y-12461993D01*
X6365625Y-12461993D02*
X6356102Y-12500088D01*
X6356102Y-12500088D02*
X6346578Y-12519136D01*
X6346578Y-12519136D02*
X6337054Y-12528660D01*
X6337054Y-12528660D02*
X6318006Y-12538184D01*
X6318006Y-12538184D02*
X6298959Y-12538184D01*
X6298959Y-12538184D02*
X6279911Y-12528660D01*
X6279911Y-12528660D02*
X6270387Y-12519136D01*
X6270387Y-12519136D02*
X6260863Y-12500088D01*
X6260863Y-12500088D02*
X6251340Y-12461993D01*
X6251340Y-12461993D02*
X6251340Y-12414374D01*
X6251340Y-12414374D02*
X6260863Y-12376279D01*
X6260863Y-12376279D02*
X6270387Y-12357231D01*
X6270387Y-12357231D02*
X6279911Y-12347708D01*
X6279911Y-12347708D02*
X6298959Y-12338184D01*
X6451340Y-12538184D02*
X6451340Y-12404850D01*
X6451340Y-12423898D02*
X6460863Y-12414374D01*
X6460863Y-12414374D02*
X6479911Y-12404850D01*
X6479911Y-12404850D02*
X6508483Y-12404850D01*
X6508483Y-12404850D02*
X6527530Y-12414374D01*
X6527530Y-12414374D02*
X6537054Y-12433422D01*
X6537054Y-12433422D02*
X6537054Y-12538184D01*
X6537054Y-12433422D02*
X6546578Y-12414374D01*
X6546578Y-12414374D02*
X6565625Y-12404850D01*
X6565625Y-12404850D02*
X6594197Y-12404850D01*
X6594197Y-12404850D02*
X6613244Y-12414374D01*
X6613244Y-12414374D02*
X6622768Y-12433422D01*
X6622768Y-12433422D02*
X6622768Y-12538184D01*
X6718006Y-12538184D02*
X6718006Y-12404850D01*
X6718006Y-12423898D02*
X6727530Y-12414374D01*
X6727530Y-12414374D02*
X6746578Y-12404850D01*
X6746578Y-12404850D02*
X6775149Y-12404850D01*
X6775149Y-12404850D02*
X6794197Y-12414374D01*
X6794197Y-12414374D02*
X6803721Y-12433422D01*
X6803721Y-12433422D02*
X6803721Y-12538184D01*
X6803721Y-12433422D02*
X6813244Y-12414374D01*
X6813244Y-12414374D02*
X6832292Y-12404850D01*
X6832292Y-12404850D02*
X6860863Y-12404850D01*
X6860863Y-12404850D02*
X6879911Y-12414374D01*
X6879911Y-12414374D02*
X6889435Y-12433422D01*
X6889435Y-12433422D02*
X6889435Y-12538184D01*
X7279911Y-12328660D02*
X7108483Y-12585803D01*
X7537054Y-12338184D02*
X7556102Y-12338184D01*
X7556102Y-12338184D02*
X7575149Y-12347708D01*
X7575149Y-12347708D02*
X7584673Y-12357231D01*
X7584673Y-12357231D02*
X7594197Y-12376279D01*
X7594197Y-12376279D02*
X7603721Y-12414374D01*
X7603721Y-12414374D02*
X7603721Y-12461993D01*
X7603721Y-12461993D02*
X7594197Y-12500088D01*
X7594197Y-12500088D02*
X7584673Y-12519136D01*
X7584673Y-12519136D02*
X7575149Y-12528660D01*
X7575149Y-12528660D02*
X7556102Y-12538184D01*
X7556102Y-12538184D02*
X7537054Y-12538184D01*
X7537054Y-12538184D02*
X7518006Y-12528660D01*
X7518006Y-12528660D02*
X7508483Y-12519136D01*
X7508483Y-12519136D02*
X7498959Y-12500088D01*
X7498959Y-12500088D02*
X7489435Y-12461993D01*
X7489435Y-12461993D02*
X7489435Y-12414374D01*
X7489435Y-12414374D02*
X7498959Y-12376279D01*
X7498959Y-12376279D02*
X7508483Y-12357231D01*
X7508483Y-12357231D02*
X7518006Y-12347708D01*
X7518006Y-12347708D02*
X7537054Y-12338184D01*
X7689435Y-12519136D02*
X7698959Y-12528660D01*
X7698959Y-12528660D02*
X7689435Y-12538184D01*
X7689435Y-12538184D02*
X7679911Y-12528660D01*
X7679911Y-12528660D02*
X7689435Y-12519136D01*
X7689435Y-12519136D02*
X7689435Y-12538184D01*
X7822768Y-12338184D02*
X7841816Y-12338184D01*
X7841816Y-12338184D02*
X7860864Y-12347708D01*
X7860864Y-12347708D02*
X7870387Y-12357231D01*
X7870387Y-12357231D02*
X7879911Y-12376279D01*
X7879911Y-12376279D02*
X7889435Y-12414374D01*
X7889435Y-12414374D02*
X7889435Y-12461993D01*
X7889435Y-12461993D02*
X7879911Y-12500088D01*
X7879911Y-12500088D02*
X7870387Y-12519136D01*
X7870387Y-12519136D02*
X7860864Y-12528660D01*
X7860864Y-12528660D02*
X7841816Y-12538184D01*
X7841816Y-12538184D02*
X7822768Y-12538184D01*
X7822768Y-12538184D02*
X7803721Y-12528660D01*
X7803721Y-12528660D02*
X7794197Y-12519136D01*
X7794197Y-12519136D02*
X7784673Y-12500088D01*
X7784673Y-12500088D02*
X7775149Y-12461993D01*
X7775149Y-12461993D02*
X7775149Y-12414374D01*
X7775149Y-12414374D02*
X7784673Y-12376279D01*
X7784673Y-12376279D02*
X7794197Y-12357231D01*
X7794197Y-12357231D02*
X7803721Y-12347708D01*
X7803721Y-12347708D02*
X7822768Y-12338184D01*
X7965626Y-12357231D02*
X7975149Y-12347708D01*
X7975149Y-12347708D02*
X7994197Y-12338184D01*
X7994197Y-12338184D02*
X8041816Y-12338184D01*
X8041816Y-12338184D02*
X8060864Y-12347708D01*
X8060864Y-12347708D02*
X8070387Y-12357231D01*
X8070387Y-12357231D02*
X8079911Y-12376279D01*
X8079911Y-12376279D02*
X8079911Y-12395327D01*
X8079911Y-12395327D02*
X8070387Y-12423898D01*
X8070387Y-12423898D02*
X7956102Y-12538184D01*
X7956102Y-12538184D02*
X8079911Y-12538184D01*
X8146578Y-12338184D02*
X8270387Y-12338184D01*
X8270387Y-12338184D02*
X8203721Y-12414374D01*
X8203721Y-12414374D02*
X8232292Y-12414374D01*
X8232292Y-12414374D02*
X8251340Y-12423898D01*
X8251340Y-12423898D02*
X8260864Y-12433422D01*
X8260864Y-12433422D02*
X8270387Y-12452469D01*
X8270387Y-12452469D02*
X8270387Y-12500088D01*
X8270387Y-12500088D02*
X8260864Y-12519136D01*
X8260864Y-12519136D02*
X8251340Y-12528660D01*
X8251340Y-12528660D02*
X8232292Y-12538184D01*
X8232292Y-12538184D02*
X8175149Y-12538184D01*
X8175149Y-12538184D02*
X8156102Y-12528660D01*
X8156102Y-12528660D02*
X8146578Y-12519136D01*
X8441816Y-12338184D02*
X8403721Y-12338184D01*
X8403721Y-12338184D02*
X8384673Y-12347708D01*
X8384673Y-12347708D02*
X8375149Y-12357231D01*
X8375149Y-12357231D02*
X8356102Y-12385803D01*
X8356102Y-12385803D02*
X8346578Y-12423898D01*
X8346578Y-12423898D02*
X8346578Y-12500088D01*
X8346578Y-12500088D02*
X8356102Y-12519136D01*
X8356102Y-12519136D02*
X8365626Y-12528660D01*
X8365626Y-12528660D02*
X8384673Y-12538184D01*
X8384673Y-12538184D02*
X8422769Y-12538184D01*
X8422769Y-12538184D02*
X8441816Y-12528660D01*
X8441816Y-12528660D02*
X8451340Y-12519136D01*
X8451340Y-12519136D02*
X8460864Y-12500088D01*
X8460864Y-12500088D02*
X8460864Y-12452469D01*
X8460864Y-12452469D02*
X8451340Y-12433422D01*
X8451340Y-12433422D02*
X8441816Y-12423898D01*
X8441816Y-12423898D02*
X8422769Y-12414374D01*
X8422769Y-12414374D02*
X8384673Y-12414374D01*
X8384673Y-12414374D02*
X8365626Y-12423898D01*
X8365626Y-12423898D02*
X8356102Y-12433422D01*
X8356102Y-12433422D02*
X8346578Y-12452469D01*
X8537054Y-12338184D02*
X8537054Y-12376279D01*
X8613245Y-12338184D02*
X8613245Y-12376279D01*
X8908483Y-12614374D02*
X8898959Y-12604850D01*
X8898959Y-12604850D02*
X8879911Y-12576279D01*
X8879911Y-12576279D02*
X8870388Y-12557231D01*
X8870388Y-12557231D02*
X8860864Y-12528660D01*
X8860864Y-12528660D02*
X8851340Y-12481041D01*
X8851340Y-12481041D02*
X8851340Y-12442946D01*
X8851340Y-12442946D02*
X8860864Y-12395327D01*
X8860864Y-12395327D02*
X8870388Y-12366755D01*
X8870388Y-12366755D02*
X8879911Y-12347708D01*
X8879911Y-12347708D02*
X8898959Y-12319136D01*
X8898959Y-12319136D02*
X8908483Y-12309612D01*
X9022769Y-12338184D02*
X9041816Y-12338184D01*
X9041816Y-12338184D02*
X9060864Y-12347708D01*
X9060864Y-12347708D02*
X9070388Y-12357231D01*
X9070388Y-12357231D02*
X9079911Y-12376279D01*
X9079911Y-12376279D02*
X9089435Y-12414374D01*
X9089435Y-12414374D02*
X9089435Y-12461993D01*
X9089435Y-12461993D02*
X9079911Y-12500088D01*
X9079911Y-12500088D02*
X9070388Y-12519136D01*
X9070388Y-12519136D02*
X9060864Y-12528660D01*
X9060864Y-12528660D02*
X9041816Y-12538184D01*
X9041816Y-12538184D02*
X9022769Y-12538184D01*
X9022769Y-12538184D02*
X9003721Y-12528660D01*
X9003721Y-12528660D02*
X8994197Y-12519136D01*
X8994197Y-12519136D02*
X8984673Y-12500088D01*
X8984673Y-12500088D02*
X8975150Y-12461993D01*
X8975150Y-12461993D02*
X8975150Y-12414374D01*
X8975150Y-12414374D02*
X8984673Y-12376279D01*
X8984673Y-12376279D02*
X8994197Y-12357231D01*
X8994197Y-12357231D02*
X9003721Y-12347708D01*
X9003721Y-12347708D02*
X9022769Y-12338184D01*
X9327531Y-12538184D02*
X9327531Y-12338184D01*
X9413245Y-12538184D02*
X9413245Y-12433422D01*
X9413245Y-12433422D02*
X9403721Y-12414374D01*
X9403721Y-12414374D02*
X9384673Y-12404850D01*
X9384673Y-12404850D02*
X9356102Y-12404850D01*
X9356102Y-12404850D02*
X9337054Y-12414374D01*
X9337054Y-12414374D02*
X9327531Y-12423898D01*
X9537054Y-12538184D02*
X9518007Y-12528660D01*
X9518007Y-12528660D02*
X9508483Y-12519136D01*
X9508483Y-12519136D02*
X9498959Y-12500088D01*
X9498959Y-12500088D02*
X9498959Y-12442946D01*
X9498959Y-12442946D02*
X9508483Y-12423898D01*
X9508483Y-12423898D02*
X9518007Y-12414374D01*
X9518007Y-12414374D02*
X9537054Y-12404850D01*
X9537054Y-12404850D02*
X9565626Y-12404850D01*
X9565626Y-12404850D02*
X9584673Y-12414374D01*
X9584673Y-12414374D02*
X9594197Y-12423898D01*
X9594197Y-12423898D02*
X9603721Y-12442946D01*
X9603721Y-12442946D02*
X9603721Y-12500088D01*
X9603721Y-12500088D02*
X9594197Y-12519136D01*
X9594197Y-12519136D02*
X9584673Y-12528660D01*
X9584673Y-12528660D02*
X9565626Y-12538184D01*
X9565626Y-12538184D02*
X9537054Y-12538184D01*
X9718007Y-12538184D02*
X9698959Y-12528660D01*
X9698959Y-12528660D02*
X9689435Y-12509612D01*
X9689435Y-12509612D02*
X9689435Y-12338184D01*
X9870388Y-12528660D02*
X9851340Y-12538184D01*
X9851340Y-12538184D02*
X9813245Y-12538184D01*
X9813245Y-12538184D02*
X9794197Y-12528660D01*
X9794197Y-12528660D02*
X9784673Y-12509612D01*
X9784673Y-12509612D02*
X9784673Y-12433422D01*
X9784673Y-12433422D02*
X9794197Y-12414374D01*
X9794197Y-12414374D02*
X9813245Y-12404850D01*
X9813245Y-12404850D02*
X9851340Y-12404850D01*
X9851340Y-12404850D02*
X9870388Y-12414374D01*
X9870388Y-12414374D02*
X9879912Y-12433422D01*
X9879912Y-12433422D02*
X9879912Y-12452469D01*
X9879912Y-12452469D02*
X9784673Y-12471517D01*
X9956102Y-12528660D02*
X9975150Y-12538184D01*
X9975150Y-12538184D02*
X10013245Y-12538184D01*
X10013245Y-12538184D02*
X10032293Y-12528660D01*
X10032293Y-12528660D02*
X10041816Y-12509612D01*
X10041816Y-12509612D02*
X10041816Y-12500088D01*
X10041816Y-12500088D02*
X10032293Y-12481041D01*
X10032293Y-12481041D02*
X10013245Y-12471517D01*
X10013245Y-12471517D02*
X9984673Y-12471517D01*
X9984673Y-12471517D02*
X9965626Y-12461993D01*
X9965626Y-12461993D02*
X9956102Y-12442946D01*
X9956102Y-12442946D02*
X9956102Y-12433422D01*
X9956102Y-12433422D02*
X9965626Y-12414374D01*
X9965626Y-12414374D02*
X9984673Y-12404850D01*
X9984673Y-12404850D02*
X10013245Y-12404850D01*
X10013245Y-12404850D02*
X10032293Y-12414374D01*
X10279912Y-12461993D02*
X10432293Y-12461993D01*
X10356102Y-12538184D02*
X10356102Y-12385803D01*
X10765626Y-12404850D02*
X10765626Y-12538184D01*
X10718007Y-12328660D02*
X10670388Y-12471517D01*
X10670388Y-12471517D02*
X10794197Y-12471517D01*
X11013245Y-12528660D02*
X11032293Y-12538184D01*
X11032293Y-12538184D02*
X11070388Y-12538184D01*
X11070388Y-12538184D02*
X11089436Y-12528660D01*
X11089436Y-12528660D02*
X11098959Y-12509612D01*
X11098959Y-12509612D02*
X11098959Y-12500088D01*
X11098959Y-12500088D02*
X11089436Y-12481041D01*
X11089436Y-12481041D02*
X11070388Y-12471517D01*
X11070388Y-12471517D02*
X11041816Y-12471517D01*
X11041816Y-12471517D02*
X11022769Y-12461993D01*
X11022769Y-12461993D02*
X11013245Y-12442946D01*
X11013245Y-12442946D02*
X11013245Y-12433422D01*
X11013245Y-12433422D02*
X11022769Y-12414374D01*
X11022769Y-12414374D02*
X11041816Y-12404850D01*
X11041816Y-12404850D02*
X11070388Y-12404850D01*
X11070388Y-12404850D02*
X11089436Y-12414374D01*
X11213245Y-12538184D02*
X11194197Y-12528660D01*
X11194197Y-12528660D02*
X11184674Y-12509612D01*
X11184674Y-12509612D02*
X11184674Y-12338184D01*
X11318007Y-12538184D02*
X11298959Y-12528660D01*
X11298959Y-12528660D02*
X11289435Y-12519136D01*
X11289435Y-12519136D02*
X11279912Y-12500088D01*
X11279912Y-12500088D02*
X11279912Y-12442946D01*
X11279912Y-12442946D02*
X11289435Y-12423898D01*
X11289435Y-12423898D02*
X11298959Y-12414374D01*
X11298959Y-12414374D02*
X11318007Y-12404850D01*
X11318007Y-12404850D02*
X11346578Y-12404850D01*
X11346578Y-12404850D02*
X11365626Y-12414374D01*
X11365626Y-12414374D02*
X11375150Y-12423898D01*
X11375150Y-12423898D02*
X11384674Y-12442946D01*
X11384674Y-12442946D02*
X11384674Y-12500088D01*
X11384674Y-12500088D02*
X11375150Y-12519136D01*
X11375150Y-12519136D02*
X11365626Y-12528660D01*
X11365626Y-12528660D02*
X11346578Y-12538184D01*
X11346578Y-12538184D02*
X11318007Y-12538184D01*
X11441816Y-12404850D02*
X11518007Y-12404850D01*
X11470388Y-12338184D02*
X11470388Y-12509612D01*
X11470388Y-12509612D02*
X11479912Y-12528660D01*
X11479912Y-12528660D02*
X11498959Y-12538184D01*
X11498959Y-12538184D02*
X11518007Y-12538184D01*
X11575150Y-12528660D02*
X11594197Y-12538184D01*
X11594197Y-12538184D02*
X11632293Y-12538184D01*
X11632293Y-12538184D02*
X11651340Y-12528660D01*
X11651340Y-12528660D02*
X11660864Y-12509612D01*
X11660864Y-12509612D02*
X11660864Y-12500088D01*
X11660864Y-12500088D02*
X11651340Y-12481041D01*
X11651340Y-12481041D02*
X11632293Y-12471517D01*
X11632293Y-12471517D02*
X11603721Y-12471517D01*
X11603721Y-12471517D02*
X11584674Y-12461993D01*
X11584674Y-12461993D02*
X11575150Y-12442946D01*
X11575150Y-12442946D02*
X11575150Y-12433422D01*
X11575150Y-12433422D02*
X11584674Y-12414374D01*
X11584674Y-12414374D02*
X11603721Y-12404850D01*
X11603721Y-12404850D02*
X11632293Y-12404850D01*
X11632293Y-12404850D02*
X11651340Y-12414374D01*
X11727531Y-12614374D02*
X11737055Y-12604850D01*
X11737055Y-12604850D02*
X11756102Y-12576279D01*
X11756102Y-12576279D02*
X11765626Y-12557231D01*
X11765626Y-12557231D02*
X11775150Y-12528660D01*
X11775150Y-12528660D02*
X11784674Y-12481041D01*
X11784674Y-12481041D02*
X11784674Y-12442946D01*
X11784674Y-12442946D02*
X11775150Y-12395327D01*
X11775150Y-12395327D02*
X11765626Y-12366755D01*
X11765626Y-12366755D02*
X11756102Y-12347708D01*
X11756102Y-12347708D02*
X11737055Y-12319136D01*
X11737055Y-12319136D02*
X11727531Y-12309612D01*
D12*
X5318776Y-12746056D02*
X5318776Y-12675344D01*
X5248064Y-12675344D01*
X5248064Y-12746056D01*
X5318776Y-12746056D01*
D11*
X5698959Y-12802184D02*
X5584673Y-12802184D01*
X5641816Y-12802184D02*
X5641816Y-12602184D01*
X5641816Y-12602184D02*
X5622768Y-12630755D01*
X5622768Y-12630755D02*
X5603721Y-12649803D01*
X5603721Y-12649803D02*
X5584673Y-12659327D01*
X5784673Y-12783136D02*
X5794197Y-12792660D01*
X5794197Y-12792660D02*
X5784673Y-12802184D01*
X5784673Y-12802184D02*
X5775149Y-12792660D01*
X5775149Y-12792660D02*
X5784673Y-12783136D01*
X5784673Y-12783136D02*
X5784673Y-12802184D01*
X5918006Y-12602184D02*
X5937054Y-12602184D01*
X5937054Y-12602184D02*
X5956102Y-12611708D01*
X5956102Y-12611708D02*
X5965625Y-12621231D01*
X5965625Y-12621231D02*
X5975149Y-12640279D01*
X5975149Y-12640279D02*
X5984673Y-12678374D01*
X5984673Y-12678374D02*
X5984673Y-12725993D01*
X5984673Y-12725993D02*
X5975149Y-12764088D01*
X5975149Y-12764088D02*
X5965625Y-12783136D01*
X5965625Y-12783136D02*
X5956102Y-12792660D01*
X5956102Y-12792660D02*
X5937054Y-12802184D01*
X5937054Y-12802184D02*
X5918006Y-12802184D01*
X5918006Y-12802184D02*
X5898959Y-12792660D01*
X5898959Y-12792660D02*
X5889435Y-12783136D01*
X5889435Y-12783136D02*
X5879911Y-12764088D01*
X5879911Y-12764088D02*
X5870387Y-12725993D01*
X5870387Y-12725993D02*
X5870387Y-12678374D01*
X5870387Y-12678374D02*
X5879911Y-12640279D01*
X5879911Y-12640279D02*
X5889435Y-12621231D01*
X5889435Y-12621231D02*
X5898959Y-12611708D01*
X5898959Y-12611708D02*
X5918006Y-12602184D01*
X6108482Y-12602184D02*
X6127530Y-12602184D01*
X6127530Y-12602184D02*
X6146578Y-12611708D01*
X6146578Y-12611708D02*
X6156102Y-12621231D01*
X6156102Y-12621231D02*
X6165625Y-12640279D01*
X6165625Y-12640279D02*
X6175149Y-12678374D01*
X6175149Y-12678374D02*
X6175149Y-12725993D01*
X6175149Y-12725993D02*
X6165625Y-12764088D01*
X6165625Y-12764088D02*
X6156102Y-12783136D01*
X6156102Y-12783136D02*
X6146578Y-12792660D01*
X6146578Y-12792660D02*
X6127530Y-12802184D01*
X6127530Y-12802184D02*
X6108482Y-12802184D01*
X6108482Y-12802184D02*
X6089435Y-12792660D01*
X6089435Y-12792660D02*
X6079911Y-12783136D01*
X6079911Y-12783136D02*
X6070387Y-12764088D01*
X6070387Y-12764088D02*
X6060863Y-12725993D01*
X6060863Y-12725993D02*
X6060863Y-12678374D01*
X6060863Y-12678374D02*
X6070387Y-12640279D01*
X6070387Y-12640279D02*
X6079911Y-12621231D01*
X6079911Y-12621231D02*
X6089435Y-12611708D01*
X6089435Y-12611708D02*
X6108482Y-12602184D01*
X6298959Y-12602184D02*
X6318006Y-12602184D01*
X6318006Y-12602184D02*
X6337054Y-12611708D01*
X6337054Y-12611708D02*
X6346578Y-12621231D01*
X6346578Y-12621231D02*
X6356102Y-12640279D01*
X6356102Y-12640279D02*
X6365625Y-12678374D01*
X6365625Y-12678374D02*
X6365625Y-12725993D01*
X6365625Y-12725993D02*
X6356102Y-12764088D01*
X6356102Y-12764088D02*
X6346578Y-12783136D01*
X6346578Y-12783136D02*
X6337054Y-12792660D01*
X6337054Y-12792660D02*
X6318006Y-12802184D01*
X6318006Y-12802184D02*
X6298959Y-12802184D01*
X6298959Y-12802184D02*
X6279911Y-12792660D01*
X6279911Y-12792660D02*
X6270387Y-12783136D01*
X6270387Y-12783136D02*
X6260863Y-12764088D01*
X6260863Y-12764088D02*
X6251340Y-12725993D01*
X6251340Y-12725993D02*
X6251340Y-12678374D01*
X6251340Y-12678374D02*
X6260863Y-12640279D01*
X6260863Y-12640279D02*
X6270387Y-12621231D01*
X6270387Y-12621231D02*
X6279911Y-12611708D01*
X6279911Y-12611708D02*
X6298959Y-12602184D01*
X6451340Y-12802184D02*
X6451340Y-12668850D01*
X6451340Y-12687898D02*
X6460863Y-12678374D01*
X6460863Y-12678374D02*
X6479911Y-12668850D01*
X6479911Y-12668850D02*
X6508483Y-12668850D01*
X6508483Y-12668850D02*
X6527530Y-12678374D01*
X6527530Y-12678374D02*
X6537054Y-12697422D01*
X6537054Y-12697422D02*
X6537054Y-12802184D01*
X6537054Y-12697422D02*
X6546578Y-12678374D01*
X6546578Y-12678374D02*
X6565625Y-12668850D01*
X6565625Y-12668850D02*
X6594197Y-12668850D01*
X6594197Y-12668850D02*
X6613244Y-12678374D01*
X6613244Y-12678374D02*
X6622768Y-12697422D01*
X6622768Y-12697422D02*
X6622768Y-12802184D01*
X6718006Y-12802184D02*
X6718006Y-12668850D01*
X6718006Y-12687898D02*
X6727530Y-12678374D01*
X6727530Y-12678374D02*
X6746578Y-12668850D01*
X6746578Y-12668850D02*
X6775149Y-12668850D01*
X6775149Y-12668850D02*
X6794197Y-12678374D01*
X6794197Y-12678374D02*
X6803721Y-12697422D01*
X6803721Y-12697422D02*
X6803721Y-12802184D01*
X6803721Y-12697422D02*
X6813244Y-12678374D01*
X6813244Y-12678374D02*
X6832292Y-12668850D01*
X6832292Y-12668850D02*
X6860863Y-12668850D01*
X6860863Y-12668850D02*
X6879911Y-12678374D01*
X6879911Y-12678374D02*
X6889435Y-12697422D01*
X6889435Y-12697422D02*
X6889435Y-12802184D01*
X7279911Y-12592660D02*
X7108483Y-12849803D01*
X7537054Y-12602184D02*
X7556102Y-12602184D01*
X7556102Y-12602184D02*
X7575149Y-12611708D01*
X7575149Y-12611708D02*
X7584673Y-12621231D01*
X7584673Y-12621231D02*
X7594197Y-12640279D01*
X7594197Y-12640279D02*
X7603721Y-12678374D01*
X7603721Y-12678374D02*
X7603721Y-12725993D01*
X7603721Y-12725993D02*
X7594197Y-12764088D01*
X7594197Y-12764088D02*
X7584673Y-12783136D01*
X7584673Y-12783136D02*
X7575149Y-12792660D01*
X7575149Y-12792660D02*
X7556102Y-12802184D01*
X7556102Y-12802184D02*
X7537054Y-12802184D01*
X7537054Y-12802184D02*
X7518006Y-12792660D01*
X7518006Y-12792660D02*
X7508483Y-12783136D01*
X7508483Y-12783136D02*
X7498959Y-12764088D01*
X7498959Y-12764088D02*
X7489435Y-12725993D01*
X7489435Y-12725993D02*
X7489435Y-12678374D01*
X7489435Y-12678374D02*
X7498959Y-12640279D01*
X7498959Y-12640279D02*
X7508483Y-12621231D01*
X7508483Y-12621231D02*
X7518006Y-12611708D01*
X7518006Y-12611708D02*
X7537054Y-12602184D01*
X7689435Y-12783136D02*
X7698959Y-12792660D01*
X7698959Y-12792660D02*
X7689435Y-12802184D01*
X7689435Y-12802184D02*
X7679911Y-12792660D01*
X7679911Y-12792660D02*
X7689435Y-12783136D01*
X7689435Y-12783136D02*
X7689435Y-12802184D01*
X7822768Y-12602184D02*
X7841816Y-12602184D01*
X7841816Y-12602184D02*
X7860864Y-12611708D01*
X7860864Y-12611708D02*
X7870387Y-12621231D01*
X7870387Y-12621231D02*
X7879911Y-12640279D01*
X7879911Y-12640279D02*
X7889435Y-12678374D01*
X7889435Y-12678374D02*
X7889435Y-12725993D01*
X7889435Y-12725993D02*
X7879911Y-12764088D01*
X7879911Y-12764088D02*
X7870387Y-12783136D01*
X7870387Y-12783136D02*
X7860864Y-12792660D01*
X7860864Y-12792660D02*
X7841816Y-12802184D01*
X7841816Y-12802184D02*
X7822768Y-12802184D01*
X7822768Y-12802184D02*
X7803721Y-12792660D01*
X7803721Y-12792660D02*
X7794197Y-12783136D01*
X7794197Y-12783136D02*
X7784673Y-12764088D01*
X7784673Y-12764088D02*
X7775149Y-12725993D01*
X7775149Y-12725993D02*
X7775149Y-12678374D01*
X7775149Y-12678374D02*
X7784673Y-12640279D01*
X7784673Y-12640279D02*
X7794197Y-12621231D01*
X7794197Y-12621231D02*
X7803721Y-12611708D01*
X7803721Y-12611708D02*
X7822768Y-12602184D01*
X7956102Y-12602184D02*
X8079911Y-12602184D01*
X8079911Y-12602184D02*
X8013245Y-12678374D01*
X8013245Y-12678374D02*
X8041816Y-12678374D01*
X8041816Y-12678374D02*
X8060864Y-12687898D01*
X8060864Y-12687898D02*
X8070387Y-12697422D01*
X8070387Y-12697422D02*
X8079911Y-12716469D01*
X8079911Y-12716469D02*
X8079911Y-12764088D01*
X8079911Y-12764088D02*
X8070387Y-12783136D01*
X8070387Y-12783136D02*
X8060864Y-12792660D01*
X8060864Y-12792660D02*
X8041816Y-12802184D01*
X8041816Y-12802184D02*
X7984673Y-12802184D01*
X7984673Y-12802184D02*
X7965626Y-12792660D01*
X7965626Y-12792660D02*
X7956102Y-12783136D01*
X8175149Y-12802184D02*
X8213245Y-12802184D01*
X8213245Y-12802184D02*
X8232292Y-12792660D01*
X8232292Y-12792660D02*
X8241816Y-12783136D01*
X8241816Y-12783136D02*
X8260864Y-12754565D01*
X8260864Y-12754565D02*
X8270387Y-12716469D01*
X8270387Y-12716469D02*
X8270387Y-12640279D01*
X8270387Y-12640279D02*
X8260864Y-12621231D01*
X8260864Y-12621231D02*
X8251340Y-12611708D01*
X8251340Y-12611708D02*
X8232292Y-12602184D01*
X8232292Y-12602184D02*
X8194197Y-12602184D01*
X8194197Y-12602184D02*
X8175149Y-12611708D01*
X8175149Y-12611708D02*
X8165626Y-12621231D01*
X8165626Y-12621231D02*
X8156102Y-12640279D01*
X8156102Y-12640279D02*
X8156102Y-12687898D01*
X8156102Y-12687898D02*
X8165626Y-12706946D01*
X8165626Y-12706946D02*
X8175149Y-12716469D01*
X8175149Y-12716469D02*
X8194197Y-12725993D01*
X8194197Y-12725993D02*
X8232292Y-12725993D01*
X8232292Y-12725993D02*
X8251340Y-12716469D01*
X8251340Y-12716469D02*
X8260864Y-12706946D01*
X8260864Y-12706946D02*
X8270387Y-12687898D01*
X8441816Y-12668850D02*
X8441816Y-12802184D01*
X8394197Y-12592660D02*
X8346578Y-12735517D01*
X8346578Y-12735517D02*
X8470388Y-12735517D01*
X8537054Y-12602184D02*
X8537054Y-12640279D01*
X8613245Y-12602184D02*
X8613245Y-12640279D01*
X8908483Y-12878374D02*
X8898959Y-12868850D01*
X8898959Y-12868850D02*
X8879911Y-12840279D01*
X8879911Y-12840279D02*
X8870388Y-12821231D01*
X8870388Y-12821231D02*
X8860864Y-12792660D01*
X8860864Y-12792660D02*
X8851340Y-12745041D01*
X8851340Y-12745041D02*
X8851340Y-12706946D01*
X8851340Y-12706946D02*
X8860864Y-12659327D01*
X8860864Y-12659327D02*
X8870388Y-12630755D01*
X8870388Y-12630755D02*
X8879911Y-12611708D01*
X8879911Y-12611708D02*
X8898959Y-12583136D01*
X8898959Y-12583136D02*
X8908483Y-12573612D01*
X9079911Y-12602184D02*
X8984673Y-12602184D01*
X8984673Y-12602184D02*
X8975150Y-12697422D01*
X8975150Y-12697422D02*
X8984673Y-12687898D01*
X8984673Y-12687898D02*
X9003721Y-12678374D01*
X9003721Y-12678374D02*
X9051340Y-12678374D01*
X9051340Y-12678374D02*
X9070388Y-12687898D01*
X9070388Y-12687898D02*
X9079911Y-12697422D01*
X9079911Y-12697422D02*
X9089435Y-12716469D01*
X9089435Y-12716469D02*
X9089435Y-12764088D01*
X9089435Y-12764088D02*
X9079911Y-12783136D01*
X9079911Y-12783136D02*
X9070388Y-12792660D01*
X9070388Y-12792660D02*
X9051340Y-12802184D01*
X9051340Y-12802184D02*
X9003721Y-12802184D01*
X9003721Y-12802184D02*
X8984673Y-12792660D01*
X8984673Y-12792660D02*
X8975150Y-12783136D01*
X9213245Y-12602184D02*
X9232292Y-12602184D01*
X9232292Y-12602184D02*
X9251340Y-12611708D01*
X9251340Y-12611708D02*
X9260864Y-12621231D01*
X9260864Y-12621231D02*
X9270388Y-12640279D01*
X9270388Y-12640279D02*
X9279911Y-12678374D01*
X9279911Y-12678374D02*
X9279911Y-12725993D01*
X9279911Y-12725993D02*
X9270388Y-12764088D01*
X9270388Y-12764088D02*
X9260864Y-12783136D01*
X9260864Y-12783136D02*
X9251340Y-12792660D01*
X9251340Y-12792660D02*
X9232292Y-12802184D01*
X9232292Y-12802184D02*
X9213245Y-12802184D01*
X9213245Y-12802184D02*
X9194197Y-12792660D01*
X9194197Y-12792660D02*
X9184673Y-12783136D01*
X9184673Y-12783136D02*
X9175150Y-12764088D01*
X9175150Y-12764088D02*
X9165626Y-12725993D01*
X9165626Y-12725993D02*
X9165626Y-12678374D01*
X9165626Y-12678374D02*
X9175150Y-12640279D01*
X9175150Y-12640279D02*
X9184673Y-12621231D01*
X9184673Y-12621231D02*
X9194197Y-12611708D01*
X9194197Y-12611708D02*
X9213245Y-12602184D01*
X9518007Y-12802184D02*
X9518007Y-12602184D01*
X9603721Y-12802184D02*
X9603721Y-12697422D01*
X9603721Y-12697422D02*
X9594197Y-12678374D01*
X9594197Y-12678374D02*
X9575150Y-12668850D01*
X9575150Y-12668850D02*
X9546578Y-12668850D01*
X9546578Y-12668850D02*
X9527531Y-12678374D01*
X9527531Y-12678374D02*
X9518007Y-12687898D01*
X9727531Y-12802184D02*
X9708483Y-12792660D01*
X9708483Y-12792660D02*
X9698959Y-12783136D01*
X9698959Y-12783136D02*
X9689435Y-12764088D01*
X9689435Y-12764088D02*
X9689435Y-12706946D01*
X9689435Y-12706946D02*
X9698959Y-12687898D01*
X9698959Y-12687898D02*
X9708483Y-12678374D01*
X9708483Y-12678374D02*
X9727531Y-12668850D01*
X9727531Y-12668850D02*
X9756102Y-12668850D01*
X9756102Y-12668850D02*
X9775150Y-12678374D01*
X9775150Y-12678374D02*
X9784673Y-12687898D01*
X9784673Y-12687898D02*
X9794197Y-12706946D01*
X9794197Y-12706946D02*
X9794197Y-12764088D01*
X9794197Y-12764088D02*
X9784673Y-12783136D01*
X9784673Y-12783136D02*
X9775150Y-12792660D01*
X9775150Y-12792660D02*
X9756102Y-12802184D01*
X9756102Y-12802184D02*
X9727531Y-12802184D01*
X9908483Y-12802184D02*
X9889435Y-12792660D01*
X9889435Y-12792660D02*
X9879912Y-12773612D01*
X9879912Y-12773612D02*
X9879912Y-12602184D01*
X10060864Y-12792660D02*
X10041816Y-12802184D01*
X10041816Y-12802184D02*
X10003721Y-12802184D01*
X10003721Y-12802184D02*
X9984673Y-12792660D01*
X9984673Y-12792660D02*
X9975150Y-12773612D01*
X9975150Y-12773612D02*
X9975150Y-12697422D01*
X9975150Y-12697422D02*
X9984673Y-12678374D01*
X9984673Y-12678374D02*
X10003721Y-12668850D01*
X10003721Y-12668850D02*
X10041816Y-12668850D01*
X10041816Y-12668850D02*
X10060864Y-12678374D01*
X10060864Y-12678374D02*
X10070388Y-12697422D01*
X10070388Y-12697422D02*
X10070388Y-12716469D01*
X10070388Y-12716469D02*
X9975150Y-12735517D01*
X10146578Y-12792660D02*
X10165626Y-12802184D01*
X10165626Y-12802184D02*
X10203721Y-12802184D01*
X10203721Y-12802184D02*
X10222769Y-12792660D01*
X10222769Y-12792660D02*
X10232293Y-12773612D01*
X10232293Y-12773612D02*
X10232293Y-12764088D01*
X10232293Y-12764088D02*
X10222769Y-12745041D01*
X10222769Y-12745041D02*
X10203721Y-12735517D01*
X10203721Y-12735517D02*
X10175150Y-12735517D01*
X10175150Y-12735517D02*
X10156102Y-12725993D01*
X10156102Y-12725993D02*
X10146578Y-12706946D01*
X10146578Y-12706946D02*
X10146578Y-12697422D01*
X10146578Y-12697422D02*
X10156102Y-12678374D01*
X10156102Y-12678374D02*
X10175150Y-12668850D01*
X10175150Y-12668850D02*
X10203721Y-12668850D01*
X10203721Y-12668850D02*
X10222769Y-12678374D01*
X10298959Y-12878374D02*
X10308483Y-12868850D01*
X10308483Y-12868850D02*
X10327531Y-12840279D01*
X10327531Y-12840279D02*
X10337054Y-12821231D01*
X10337054Y-12821231D02*
X10346578Y-12792660D01*
X10346578Y-12792660D02*
X10356102Y-12745041D01*
X10356102Y-12745041D02*
X10356102Y-12706946D01*
X10356102Y-12706946D02*
X10346578Y-12659327D01*
X10346578Y-12659327D02*
X10337054Y-12630755D01*
X10337054Y-12630755D02*
X10327531Y-12611708D01*
X10327531Y-12611708D02*
X10308483Y-12583136D01*
X10308483Y-12583136D02*
X10298959Y-12573612D01*
D13*
X5268420Y-13039700D02*
X5333420Y-12974700D01*
X5268420Y-12909700D01*
X5203420Y-12974700D01*
X5268420Y-13039700D01*
D11*
X5698959Y-13066184D02*
X5584673Y-13066184D01*
X5641816Y-13066184D02*
X5641816Y-12866184D01*
X5641816Y-12866184D02*
X5622768Y-12894755D01*
X5622768Y-12894755D02*
X5603721Y-12913803D01*
X5603721Y-12913803D02*
X5584673Y-12923327D01*
X5784673Y-13047136D02*
X5794197Y-13056660D01*
X5794197Y-13056660D02*
X5784673Y-13066184D01*
X5784673Y-13066184D02*
X5775149Y-13056660D01*
X5775149Y-13056660D02*
X5784673Y-13047136D01*
X5784673Y-13047136D02*
X5784673Y-13066184D01*
X5860863Y-12866184D02*
X5984673Y-12866184D01*
X5984673Y-12866184D02*
X5918006Y-12942374D01*
X5918006Y-12942374D02*
X5946578Y-12942374D01*
X5946578Y-12942374D02*
X5965625Y-12951898D01*
X5965625Y-12951898D02*
X5975149Y-12961422D01*
X5975149Y-12961422D02*
X5984673Y-12980469D01*
X5984673Y-12980469D02*
X5984673Y-13028088D01*
X5984673Y-13028088D02*
X5975149Y-13047136D01*
X5975149Y-13047136D02*
X5965625Y-13056660D01*
X5965625Y-13056660D02*
X5946578Y-13066184D01*
X5946578Y-13066184D02*
X5889435Y-13066184D01*
X5889435Y-13066184D02*
X5870387Y-13056660D01*
X5870387Y-13056660D02*
X5860863Y-13047136D01*
X6108482Y-12866184D02*
X6127530Y-12866184D01*
X6127530Y-12866184D02*
X6146578Y-12875708D01*
X6146578Y-12875708D02*
X6156102Y-12885231D01*
X6156102Y-12885231D02*
X6165625Y-12904279D01*
X6165625Y-12904279D02*
X6175149Y-12942374D01*
X6175149Y-12942374D02*
X6175149Y-12989993D01*
X6175149Y-12989993D02*
X6165625Y-13028088D01*
X6165625Y-13028088D02*
X6156102Y-13047136D01*
X6156102Y-13047136D02*
X6146578Y-13056660D01*
X6146578Y-13056660D02*
X6127530Y-13066184D01*
X6127530Y-13066184D02*
X6108482Y-13066184D01*
X6108482Y-13066184D02*
X6089435Y-13056660D01*
X6089435Y-13056660D02*
X6079911Y-13047136D01*
X6079911Y-13047136D02*
X6070387Y-13028088D01*
X6070387Y-13028088D02*
X6060863Y-12989993D01*
X6060863Y-12989993D02*
X6060863Y-12942374D01*
X6060863Y-12942374D02*
X6070387Y-12904279D01*
X6070387Y-12904279D02*
X6079911Y-12885231D01*
X6079911Y-12885231D02*
X6089435Y-12875708D01*
X6089435Y-12875708D02*
X6108482Y-12866184D01*
X6298959Y-12866184D02*
X6318006Y-12866184D01*
X6318006Y-12866184D02*
X6337054Y-12875708D01*
X6337054Y-12875708D02*
X6346578Y-12885231D01*
X6346578Y-12885231D02*
X6356102Y-12904279D01*
X6356102Y-12904279D02*
X6365625Y-12942374D01*
X6365625Y-12942374D02*
X6365625Y-12989993D01*
X6365625Y-12989993D02*
X6356102Y-13028088D01*
X6356102Y-13028088D02*
X6346578Y-13047136D01*
X6346578Y-13047136D02*
X6337054Y-13056660D01*
X6337054Y-13056660D02*
X6318006Y-13066184D01*
X6318006Y-13066184D02*
X6298959Y-13066184D01*
X6298959Y-13066184D02*
X6279911Y-13056660D01*
X6279911Y-13056660D02*
X6270387Y-13047136D01*
X6270387Y-13047136D02*
X6260863Y-13028088D01*
X6260863Y-13028088D02*
X6251340Y-12989993D01*
X6251340Y-12989993D02*
X6251340Y-12942374D01*
X6251340Y-12942374D02*
X6260863Y-12904279D01*
X6260863Y-12904279D02*
X6270387Y-12885231D01*
X6270387Y-12885231D02*
X6279911Y-12875708D01*
X6279911Y-12875708D02*
X6298959Y-12866184D01*
X6451340Y-13066184D02*
X6451340Y-12932850D01*
X6451340Y-12951898D02*
X6460863Y-12942374D01*
X6460863Y-12942374D02*
X6479911Y-12932850D01*
X6479911Y-12932850D02*
X6508483Y-12932850D01*
X6508483Y-12932850D02*
X6527530Y-12942374D01*
X6527530Y-12942374D02*
X6537054Y-12961422D01*
X6537054Y-12961422D02*
X6537054Y-13066184D01*
X6537054Y-12961422D02*
X6546578Y-12942374D01*
X6546578Y-12942374D02*
X6565625Y-12932850D01*
X6565625Y-12932850D02*
X6594197Y-12932850D01*
X6594197Y-12932850D02*
X6613244Y-12942374D01*
X6613244Y-12942374D02*
X6622768Y-12961422D01*
X6622768Y-12961422D02*
X6622768Y-13066184D01*
X6718006Y-13066184D02*
X6718006Y-12932850D01*
X6718006Y-12951898D02*
X6727530Y-12942374D01*
X6727530Y-12942374D02*
X6746578Y-12932850D01*
X6746578Y-12932850D02*
X6775149Y-12932850D01*
X6775149Y-12932850D02*
X6794197Y-12942374D01*
X6794197Y-12942374D02*
X6803721Y-12961422D01*
X6803721Y-12961422D02*
X6803721Y-13066184D01*
X6803721Y-12961422D02*
X6813244Y-12942374D01*
X6813244Y-12942374D02*
X6832292Y-12932850D01*
X6832292Y-12932850D02*
X6860863Y-12932850D01*
X6860863Y-12932850D02*
X6879911Y-12942374D01*
X6879911Y-12942374D02*
X6889435Y-12961422D01*
X6889435Y-12961422D02*
X6889435Y-13066184D01*
X7279911Y-12856660D02*
X7108483Y-13113803D01*
X7537054Y-12866184D02*
X7556102Y-12866184D01*
X7556102Y-12866184D02*
X7575149Y-12875708D01*
X7575149Y-12875708D02*
X7584673Y-12885231D01*
X7584673Y-12885231D02*
X7594197Y-12904279D01*
X7594197Y-12904279D02*
X7603721Y-12942374D01*
X7603721Y-12942374D02*
X7603721Y-12989993D01*
X7603721Y-12989993D02*
X7594197Y-13028088D01*
X7594197Y-13028088D02*
X7584673Y-13047136D01*
X7584673Y-13047136D02*
X7575149Y-13056660D01*
X7575149Y-13056660D02*
X7556102Y-13066184D01*
X7556102Y-13066184D02*
X7537054Y-13066184D01*
X7537054Y-13066184D02*
X7518006Y-13056660D01*
X7518006Y-13056660D02*
X7508483Y-13047136D01*
X7508483Y-13047136D02*
X7498959Y-13028088D01*
X7498959Y-13028088D02*
X7489435Y-12989993D01*
X7489435Y-12989993D02*
X7489435Y-12942374D01*
X7489435Y-12942374D02*
X7498959Y-12904279D01*
X7498959Y-12904279D02*
X7508483Y-12885231D01*
X7508483Y-12885231D02*
X7518006Y-12875708D01*
X7518006Y-12875708D02*
X7537054Y-12866184D01*
X7689435Y-13047136D02*
X7698959Y-13056660D01*
X7698959Y-13056660D02*
X7689435Y-13066184D01*
X7689435Y-13066184D02*
X7679911Y-13056660D01*
X7679911Y-13056660D02*
X7689435Y-13047136D01*
X7689435Y-13047136D02*
X7689435Y-13066184D01*
X7822768Y-12866184D02*
X7841816Y-12866184D01*
X7841816Y-12866184D02*
X7860864Y-12875708D01*
X7860864Y-12875708D02*
X7870387Y-12885231D01*
X7870387Y-12885231D02*
X7879911Y-12904279D01*
X7879911Y-12904279D02*
X7889435Y-12942374D01*
X7889435Y-12942374D02*
X7889435Y-12989993D01*
X7889435Y-12989993D02*
X7879911Y-13028088D01*
X7879911Y-13028088D02*
X7870387Y-13047136D01*
X7870387Y-13047136D02*
X7860864Y-13056660D01*
X7860864Y-13056660D02*
X7841816Y-13066184D01*
X7841816Y-13066184D02*
X7822768Y-13066184D01*
X7822768Y-13066184D02*
X7803721Y-13056660D01*
X7803721Y-13056660D02*
X7794197Y-13047136D01*
X7794197Y-13047136D02*
X7784673Y-13028088D01*
X7784673Y-13028088D02*
X7775149Y-12989993D01*
X7775149Y-12989993D02*
X7775149Y-12942374D01*
X7775149Y-12942374D02*
X7784673Y-12904279D01*
X7784673Y-12904279D02*
X7794197Y-12885231D01*
X7794197Y-12885231D02*
X7803721Y-12875708D01*
X7803721Y-12875708D02*
X7822768Y-12866184D01*
X8070387Y-12866184D02*
X7975149Y-12866184D01*
X7975149Y-12866184D02*
X7965626Y-12961422D01*
X7965626Y-12961422D02*
X7975149Y-12951898D01*
X7975149Y-12951898D02*
X7994197Y-12942374D01*
X7994197Y-12942374D02*
X8041816Y-12942374D01*
X8041816Y-12942374D02*
X8060864Y-12951898D01*
X8060864Y-12951898D02*
X8070387Y-12961422D01*
X8070387Y-12961422D02*
X8079911Y-12980469D01*
X8079911Y-12980469D02*
X8079911Y-13028088D01*
X8079911Y-13028088D02*
X8070387Y-13047136D01*
X8070387Y-13047136D02*
X8060864Y-13056660D01*
X8060864Y-13056660D02*
X8041816Y-13066184D01*
X8041816Y-13066184D02*
X7994197Y-13066184D01*
X7994197Y-13066184D02*
X7975149Y-13056660D01*
X7975149Y-13056660D02*
X7965626Y-13047136D01*
X8270387Y-13066184D02*
X8156102Y-13066184D01*
X8213245Y-13066184D02*
X8213245Y-12866184D01*
X8213245Y-12866184D02*
X8194197Y-12894755D01*
X8194197Y-12894755D02*
X8175149Y-12913803D01*
X8175149Y-12913803D02*
X8156102Y-12923327D01*
X8346578Y-12885231D02*
X8356102Y-12875708D01*
X8356102Y-12875708D02*
X8375149Y-12866184D01*
X8375149Y-12866184D02*
X8422769Y-12866184D01*
X8422769Y-12866184D02*
X8441816Y-12875708D01*
X8441816Y-12875708D02*
X8451340Y-12885231D01*
X8451340Y-12885231D02*
X8460864Y-12904279D01*
X8460864Y-12904279D02*
X8460864Y-12923327D01*
X8460864Y-12923327D02*
X8451340Y-12951898D01*
X8451340Y-12951898D02*
X8337054Y-13066184D01*
X8337054Y-13066184D02*
X8460864Y-13066184D01*
X8537054Y-12866184D02*
X8537054Y-12904279D01*
X8613245Y-12866184D02*
X8613245Y-12904279D01*
X8908483Y-13142374D02*
X8898959Y-13132850D01*
X8898959Y-13132850D02*
X8879911Y-13104279D01*
X8879911Y-13104279D02*
X8870388Y-13085231D01*
X8870388Y-13085231D02*
X8860864Y-13056660D01*
X8860864Y-13056660D02*
X8851340Y-13009041D01*
X8851340Y-13009041D02*
X8851340Y-12970946D01*
X8851340Y-12970946D02*
X8860864Y-12923327D01*
X8860864Y-12923327D02*
X8870388Y-12894755D01*
X8870388Y-12894755D02*
X8879911Y-12875708D01*
X8879911Y-12875708D02*
X8898959Y-12847136D01*
X8898959Y-12847136D02*
X8908483Y-12837612D01*
X9070388Y-12932850D02*
X9070388Y-13066184D01*
X9022769Y-12856660D02*
X8975150Y-12999517D01*
X8975150Y-12999517D02*
X9098959Y-12999517D01*
X9327531Y-13066184D02*
X9327531Y-12866184D01*
X9413245Y-13066184D02*
X9413245Y-12961422D01*
X9413245Y-12961422D02*
X9403721Y-12942374D01*
X9403721Y-12942374D02*
X9384673Y-12932850D01*
X9384673Y-12932850D02*
X9356102Y-12932850D01*
X9356102Y-12932850D02*
X9337054Y-12942374D01*
X9337054Y-12942374D02*
X9327531Y-12951898D01*
X9537054Y-13066184D02*
X9518007Y-13056660D01*
X9518007Y-13056660D02*
X9508483Y-13047136D01*
X9508483Y-13047136D02*
X9498959Y-13028088D01*
X9498959Y-13028088D02*
X9498959Y-12970946D01*
X9498959Y-12970946D02*
X9508483Y-12951898D01*
X9508483Y-12951898D02*
X9518007Y-12942374D01*
X9518007Y-12942374D02*
X9537054Y-12932850D01*
X9537054Y-12932850D02*
X9565626Y-12932850D01*
X9565626Y-12932850D02*
X9584673Y-12942374D01*
X9584673Y-12942374D02*
X9594197Y-12951898D01*
X9594197Y-12951898D02*
X9603721Y-12970946D01*
X9603721Y-12970946D02*
X9603721Y-13028088D01*
X9603721Y-13028088D02*
X9594197Y-13047136D01*
X9594197Y-13047136D02*
X9584673Y-13056660D01*
X9584673Y-13056660D02*
X9565626Y-13066184D01*
X9565626Y-13066184D02*
X9537054Y-13066184D01*
X9718007Y-13066184D02*
X9698959Y-13056660D01*
X9698959Y-13056660D02*
X9689435Y-13037612D01*
X9689435Y-13037612D02*
X9689435Y-12866184D01*
X9870388Y-13056660D02*
X9851340Y-13066184D01*
X9851340Y-13066184D02*
X9813245Y-13066184D01*
X9813245Y-13066184D02*
X9794197Y-13056660D01*
X9794197Y-13056660D02*
X9784673Y-13037612D01*
X9784673Y-13037612D02*
X9784673Y-12961422D01*
X9784673Y-12961422D02*
X9794197Y-12942374D01*
X9794197Y-12942374D02*
X9813245Y-12932850D01*
X9813245Y-12932850D02*
X9851340Y-12932850D01*
X9851340Y-12932850D02*
X9870388Y-12942374D01*
X9870388Y-12942374D02*
X9879912Y-12961422D01*
X9879912Y-12961422D02*
X9879912Y-12980469D01*
X9879912Y-12980469D02*
X9784673Y-12999517D01*
X9956102Y-13056660D02*
X9975150Y-13066184D01*
X9975150Y-13066184D02*
X10013245Y-13066184D01*
X10013245Y-13066184D02*
X10032293Y-13056660D01*
X10032293Y-13056660D02*
X10041816Y-13037612D01*
X10041816Y-13037612D02*
X10041816Y-13028088D01*
X10041816Y-13028088D02*
X10032293Y-13009041D01*
X10032293Y-13009041D02*
X10013245Y-12999517D01*
X10013245Y-12999517D02*
X9984673Y-12999517D01*
X9984673Y-12999517D02*
X9965626Y-12989993D01*
X9965626Y-12989993D02*
X9956102Y-12970946D01*
X9956102Y-12970946D02*
X9956102Y-12961422D01*
X9956102Y-12961422D02*
X9965626Y-12942374D01*
X9965626Y-12942374D02*
X9984673Y-12932850D01*
X9984673Y-12932850D02*
X10013245Y-12932850D01*
X10013245Y-12932850D02*
X10032293Y-12942374D01*
X10108483Y-13142374D02*
X10118007Y-13132850D01*
X10118007Y-13132850D02*
X10137054Y-13104279D01*
X10137054Y-13104279D02*
X10146578Y-13085231D01*
X10146578Y-13085231D02*
X10156102Y-13056660D01*
X10156102Y-13056660D02*
X10165626Y-13009041D01*
X10165626Y-13009041D02*
X10165626Y-12970946D01*
X10165626Y-12970946D02*
X10156102Y-12923327D01*
X10156102Y-12923327D02*
X10146578Y-12894755D01*
X10146578Y-12894755D02*
X10137054Y-12875708D01*
X10137054Y-12875708D02*
X10118007Y-12847136D01*
X10118007Y-12847136D02*
X10108483Y-12837612D01*
X5133420Y-13138700D02*
X5333420Y-13338700D01*
X5333420Y-13138700D02*
X5133420Y-13338700D01*
X5333420Y-13238700D02*
G75*
G02*
X5133420Y-13238700I-100000J0D01*
G01*
X5133420Y-13238700D02*
G75*
G02*
X5333420Y-13238700I100000J0D01*
G01*
X5584673Y-13149231D02*
X5594197Y-13139708D01*
X5594197Y-13139708D02*
X5613244Y-13130184D01*
X5613244Y-13130184D02*
X5660863Y-13130184D01*
X5660863Y-13130184D02*
X5679911Y-13139708D01*
X5679911Y-13139708D02*
X5689435Y-13149231D01*
X5689435Y-13149231D02*
X5698959Y-13168279D01*
X5698959Y-13168279D02*
X5698959Y-13187327D01*
X5698959Y-13187327D02*
X5689435Y-13215898D01*
X5689435Y-13215898D02*
X5575149Y-13330184D01*
X5575149Y-13330184D02*
X5698959Y-13330184D01*
X5784673Y-13311136D02*
X5794197Y-13320660D01*
X5794197Y-13320660D02*
X5784673Y-13330184D01*
X5784673Y-13330184D02*
X5775149Y-13320660D01*
X5775149Y-13320660D02*
X5784673Y-13311136D01*
X5784673Y-13311136D02*
X5784673Y-13330184D01*
X5860863Y-13130184D02*
X5984673Y-13130184D01*
X5984673Y-13130184D02*
X5918006Y-13206374D01*
X5918006Y-13206374D02*
X5946578Y-13206374D01*
X5946578Y-13206374D02*
X5965625Y-13215898D01*
X5965625Y-13215898D02*
X5975149Y-13225422D01*
X5975149Y-13225422D02*
X5984673Y-13244469D01*
X5984673Y-13244469D02*
X5984673Y-13292088D01*
X5984673Y-13292088D02*
X5975149Y-13311136D01*
X5975149Y-13311136D02*
X5965625Y-13320660D01*
X5965625Y-13320660D02*
X5946578Y-13330184D01*
X5946578Y-13330184D02*
X5889435Y-13330184D01*
X5889435Y-13330184D02*
X5870387Y-13320660D01*
X5870387Y-13320660D02*
X5860863Y-13311136D01*
X6108482Y-13130184D02*
X6127530Y-13130184D01*
X6127530Y-13130184D02*
X6146578Y-13139708D01*
X6146578Y-13139708D02*
X6156102Y-13149231D01*
X6156102Y-13149231D02*
X6165625Y-13168279D01*
X6165625Y-13168279D02*
X6175149Y-13206374D01*
X6175149Y-13206374D02*
X6175149Y-13253993D01*
X6175149Y-13253993D02*
X6165625Y-13292088D01*
X6165625Y-13292088D02*
X6156102Y-13311136D01*
X6156102Y-13311136D02*
X6146578Y-13320660D01*
X6146578Y-13320660D02*
X6127530Y-13330184D01*
X6127530Y-13330184D02*
X6108482Y-13330184D01*
X6108482Y-13330184D02*
X6089435Y-13320660D01*
X6089435Y-13320660D02*
X6079911Y-13311136D01*
X6079911Y-13311136D02*
X6070387Y-13292088D01*
X6070387Y-13292088D02*
X6060863Y-13253993D01*
X6060863Y-13253993D02*
X6060863Y-13206374D01*
X6060863Y-13206374D02*
X6070387Y-13168279D01*
X6070387Y-13168279D02*
X6079911Y-13149231D01*
X6079911Y-13149231D02*
X6089435Y-13139708D01*
X6089435Y-13139708D02*
X6108482Y-13130184D01*
X6298959Y-13130184D02*
X6318006Y-13130184D01*
X6318006Y-13130184D02*
X6337054Y-13139708D01*
X6337054Y-13139708D02*
X6346578Y-13149231D01*
X6346578Y-13149231D02*
X6356102Y-13168279D01*
X6356102Y-13168279D02*
X6365625Y-13206374D01*
X6365625Y-13206374D02*
X6365625Y-13253993D01*
X6365625Y-13253993D02*
X6356102Y-13292088D01*
X6356102Y-13292088D02*
X6346578Y-13311136D01*
X6346578Y-13311136D02*
X6337054Y-13320660D01*
X6337054Y-13320660D02*
X6318006Y-13330184D01*
X6318006Y-13330184D02*
X6298959Y-13330184D01*
X6298959Y-13330184D02*
X6279911Y-13320660D01*
X6279911Y-13320660D02*
X6270387Y-13311136D01*
X6270387Y-13311136D02*
X6260863Y-13292088D01*
X6260863Y-13292088D02*
X6251340Y-13253993D01*
X6251340Y-13253993D02*
X6251340Y-13206374D01*
X6251340Y-13206374D02*
X6260863Y-13168279D01*
X6260863Y-13168279D02*
X6270387Y-13149231D01*
X6270387Y-13149231D02*
X6279911Y-13139708D01*
X6279911Y-13139708D02*
X6298959Y-13130184D01*
X6451340Y-13330184D02*
X6451340Y-13196850D01*
X6451340Y-13215898D02*
X6460863Y-13206374D01*
X6460863Y-13206374D02*
X6479911Y-13196850D01*
X6479911Y-13196850D02*
X6508483Y-13196850D01*
X6508483Y-13196850D02*
X6527530Y-13206374D01*
X6527530Y-13206374D02*
X6537054Y-13225422D01*
X6537054Y-13225422D02*
X6537054Y-13330184D01*
X6537054Y-13225422D02*
X6546578Y-13206374D01*
X6546578Y-13206374D02*
X6565625Y-13196850D01*
X6565625Y-13196850D02*
X6594197Y-13196850D01*
X6594197Y-13196850D02*
X6613244Y-13206374D01*
X6613244Y-13206374D02*
X6622768Y-13225422D01*
X6622768Y-13225422D02*
X6622768Y-13330184D01*
X6718006Y-13330184D02*
X6718006Y-13196850D01*
X6718006Y-13215898D02*
X6727530Y-13206374D01*
X6727530Y-13206374D02*
X6746578Y-13196850D01*
X6746578Y-13196850D02*
X6775149Y-13196850D01*
X6775149Y-13196850D02*
X6794197Y-13206374D01*
X6794197Y-13206374D02*
X6803721Y-13225422D01*
X6803721Y-13225422D02*
X6803721Y-13330184D01*
X6803721Y-13225422D02*
X6813244Y-13206374D01*
X6813244Y-13206374D02*
X6832292Y-13196850D01*
X6832292Y-13196850D02*
X6860863Y-13196850D01*
X6860863Y-13196850D02*
X6879911Y-13206374D01*
X6879911Y-13206374D02*
X6889435Y-13225422D01*
X6889435Y-13225422D02*
X6889435Y-13330184D01*
X7279911Y-13120660D02*
X7108483Y-13377803D01*
X7537054Y-13130184D02*
X7556102Y-13130184D01*
X7556102Y-13130184D02*
X7575149Y-13139708D01*
X7575149Y-13139708D02*
X7584673Y-13149231D01*
X7584673Y-13149231D02*
X7594197Y-13168279D01*
X7594197Y-13168279D02*
X7603721Y-13206374D01*
X7603721Y-13206374D02*
X7603721Y-13253993D01*
X7603721Y-13253993D02*
X7594197Y-13292088D01*
X7594197Y-13292088D02*
X7584673Y-13311136D01*
X7584673Y-13311136D02*
X7575149Y-13320660D01*
X7575149Y-13320660D02*
X7556102Y-13330184D01*
X7556102Y-13330184D02*
X7537054Y-13330184D01*
X7537054Y-13330184D02*
X7518006Y-13320660D01*
X7518006Y-13320660D02*
X7508483Y-13311136D01*
X7508483Y-13311136D02*
X7498959Y-13292088D01*
X7498959Y-13292088D02*
X7489435Y-13253993D01*
X7489435Y-13253993D02*
X7489435Y-13206374D01*
X7489435Y-13206374D02*
X7498959Y-13168279D01*
X7498959Y-13168279D02*
X7508483Y-13149231D01*
X7508483Y-13149231D02*
X7518006Y-13139708D01*
X7518006Y-13139708D02*
X7537054Y-13130184D01*
X7689435Y-13311136D02*
X7698959Y-13320660D01*
X7698959Y-13320660D02*
X7689435Y-13330184D01*
X7689435Y-13330184D02*
X7679911Y-13320660D01*
X7679911Y-13320660D02*
X7689435Y-13311136D01*
X7689435Y-13311136D02*
X7689435Y-13330184D01*
X7822768Y-13130184D02*
X7841816Y-13130184D01*
X7841816Y-13130184D02*
X7860864Y-13139708D01*
X7860864Y-13139708D02*
X7870387Y-13149231D01*
X7870387Y-13149231D02*
X7879911Y-13168279D01*
X7879911Y-13168279D02*
X7889435Y-13206374D01*
X7889435Y-13206374D02*
X7889435Y-13253993D01*
X7889435Y-13253993D02*
X7879911Y-13292088D01*
X7879911Y-13292088D02*
X7870387Y-13311136D01*
X7870387Y-13311136D02*
X7860864Y-13320660D01*
X7860864Y-13320660D02*
X7841816Y-13330184D01*
X7841816Y-13330184D02*
X7822768Y-13330184D01*
X7822768Y-13330184D02*
X7803721Y-13320660D01*
X7803721Y-13320660D02*
X7794197Y-13311136D01*
X7794197Y-13311136D02*
X7784673Y-13292088D01*
X7784673Y-13292088D02*
X7775149Y-13253993D01*
X7775149Y-13253993D02*
X7775149Y-13206374D01*
X7775149Y-13206374D02*
X7784673Y-13168279D01*
X7784673Y-13168279D02*
X7794197Y-13149231D01*
X7794197Y-13149231D02*
X7803721Y-13139708D01*
X7803721Y-13139708D02*
X7822768Y-13130184D01*
X7984673Y-13330184D02*
X8022768Y-13330184D01*
X8022768Y-13330184D02*
X8041816Y-13320660D01*
X8041816Y-13320660D02*
X8051340Y-13311136D01*
X8051340Y-13311136D02*
X8070387Y-13282565D01*
X8070387Y-13282565D02*
X8079911Y-13244469D01*
X8079911Y-13244469D02*
X8079911Y-13168279D01*
X8079911Y-13168279D02*
X8070387Y-13149231D01*
X8070387Y-13149231D02*
X8060864Y-13139708D01*
X8060864Y-13139708D02*
X8041816Y-13130184D01*
X8041816Y-13130184D02*
X8003721Y-13130184D01*
X8003721Y-13130184D02*
X7984673Y-13139708D01*
X7984673Y-13139708D02*
X7975149Y-13149231D01*
X7975149Y-13149231D02*
X7965626Y-13168279D01*
X7965626Y-13168279D02*
X7965626Y-13215898D01*
X7965626Y-13215898D02*
X7975149Y-13234946D01*
X7975149Y-13234946D02*
X7984673Y-13244469D01*
X7984673Y-13244469D02*
X8003721Y-13253993D01*
X8003721Y-13253993D02*
X8041816Y-13253993D01*
X8041816Y-13253993D02*
X8060864Y-13244469D01*
X8060864Y-13244469D02*
X8070387Y-13234946D01*
X8070387Y-13234946D02*
X8079911Y-13215898D01*
X8203721Y-13130184D02*
X8222768Y-13130184D01*
X8222768Y-13130184D02*
X8241816Y-13139708D01*
X8241816Y-13139708D02*
X8251340Y-13149231D01*
X8251340Y-13149231D02*
X8260864Y-13168279D01*
X8260864Y-13168279D02*
X8270387Y-13206374D01*
X8270387Y-13206374D02*
X8270387Y-13253993D01*
X8270387Y-13253993D02*
X8260864Y-13292088D01*
X8260864Y-13292088D02*
X8251340Y-13311136D01*
X8251340Y-13311136D02*
X8241816Y-13320660D01*
X8241816Y-13320660D02*
X8222768Y-13330184D01*
X8222768Y-13330184D02*
X8203721Y-13330184D01*
X8203721Y-13330184D02*
X8184673Y-13320660D01*
X8184673Y-13320660D02*
X8175149Y-13311136D01*
X8175149Y-13311136D02*
X8165626Y-13292088D01*
X8165626Y-13292088D02*
X8156102Y-13253993D01*
X8156102Y-13253993D02*
X8156102Y-13206374D01*
X8156102Y-13206374D02*
X8165626Y-13168279D01*
X8165626Y-13168279D02*
X8175149Y-13149231D01*
X8175149Y-13149231D02*
X8184673Y-13139708D01*
X8184673Y-13139708D02*
X8203721Y-13130184D01*
X8441816Y-13130184D02*
X8403721Y-13130184D01*
X8403721Y-13130184D02*
X8384673Y-13139708D01*
X8384673Y-13139708D02*
X8375149Y-13149231D01*
X8375149Y-13149231D02*
X8356102Y-13177803D01*
X8356102Y-13177803D02*
X8346578Y-13215898D01*
X8346578Y-13215898D02*
X8346578Y-13292088D01*
X8346578Y-13292088D02*
X8356102Y-13311136D01*
X8356102Y-13311136D02*
X8365626Y-13320660D01*
X8365626Y-13320660D02*
X8384673Y-13330184D01*
X8384673Y-13330184D02*
X8422769Y-13330184D01*
X8422769Y-13330184D02*
X8441816Y-13320660D01*
X8441816Y-13320660D02*
X8451340Y-13311136D01*
X8451340Y-13311136D02*
X8460864Y-13292088D01*
X8460864Y-13292088D02*
X8460864Y-13244469D01*
X8460864Y-13244469D02*
X8451340Y-13225422D01*
X8451340Y-13225422D02*
X8441816Y-13215898D01*
X8441816Y-13215898D02*
X8422769Y-13206374D01*
X8422769Y-13206374D02*
X8384673Y-13206374D01*
X8384673Y-13206374D02*
X8365626Y-13215898D01*
X8365626Y-13215898D02*
X8356102Y-13225422D01*
X8356102Y-13225422D02*
X8346578Y-13244469D01*
X8537054Y-13130184D02*
X8537054Y-13168279D01*
X8613245Y-13130184D02*
X8613245Y-13168279D01*
X8908483Y-13406374D02*
X8898959Y-13396850D01*
X8898959Y-13396850D02*
X8879911Y-13368279D01*
X8879911Y-13368279D02*
X8870388Y-13349231D01*
X8870388Y-13349231D02*
X8860864Y-13320660D01*
X8860864Y-13320660D02*
X8851340Y-13273041D01*
X8851340Y-13273041D02*
X8851340Y-13234946D01*
X8851340Y-13234946D02*
X8860864Y-13187327D01*
X8860864Y-13187327D02*
X8870388Y-13158755D01*
X8870388Y-13158755D02*
X8879911Y-13139708D01*
X8879911Y-13139708D02*
X8898959Y-13111136D01*
X8898959Y-13111136D02*
X8908483Y-13101612D01*
X9089435Y-13330184D02*
X8975150Y-13330184D01*
X9032292Y-13330184D02*
X9032292Y-13130184D01*
X9032292Y-13130184D02*
X9013245Y-13158755D01*
X9013245Y-13158755D02*
X8994197Y-13177803D01*
X8994197Y-13177803D02*
X8975150Y-13187327D01*
X9260864Y-13130184D02*
X9222769Y-13130184D01*
X9222769Y-13130184D02*
X9203721Y-13139708D01*
X9203721Y-13139708D02*
X9194197Y-13149231D01*
X9194197Y-13149231D02*
X9175150Y-13177803D01*
X9175150Y-13177803D02*
X9165626Y-13215898D01*
X9165626Y-13215898D02*
X9165626Y-13292088D01*
X9165626Y-13292088D02*
X9175150Y-13311136D01*
X9175150Y-13311136D02*
X9184673Y-13320660D01*
X9184673Y-13320660D02*
X9203721Y-13330184D01*
X9203721Y-13330184D02*
X9241816Y-13330184D01*
X9241816Y-13330184D02*
X9260864Y-13320660D01*
X9260864Y-13320660D02*
X9270388Y-13311136D01*
X9270388Y-13311136D02*
X9279911Y-13292088D01*
X9279911Y-13292088D02*
X9279911Y-13244469D01*
X9279911Y-13244469D02*
X9270388Y-13225422D01*
X9270388Y-13225422D02*
X9260864Y-13215898D01*
X9260864Y-13215898D02*
X9241816Y-13206374D01*
X9241816Y-13206374D02*
X9203721Y-13206374D01*
X9203721Y-13206374D02*
X9184673Y-13215898D01*
X9184673Y-13215898D02*
X9175150Y-13225422D01*
X9175150Y-13225422D02*
X9165626Y-13244469D01*
X9518007Y-13330184D02*
X9518007Y-13130184D01*
X9603721Y-13330184D02*
X9603721Y-13225422D01*
X9603721Y-13225422D02*
X9594197Y-13206374D01*
X9594197Y-13206374D02*
X9575150Y-13196850D01*
X9575150Y-13196850D02*
X9546578Y-13196850D01*
X9546578Y-13196850D02*
X9527531Y-13206374D01*
X9527531Y-13206374D02*
X9518007Y-13215898D01*
X9727531Y-13330184D02*
X9708483Y-13320660D01*
X9708483Y-13320660D02*
X9698959Y-13311136D01*
X9698959Y-13311136D02*
X9689435Y-13292088D01*
X9689435Y-13292088D02*
X9689435Y-13234946D01*
X9689435Y-13234946D02*
X9698959Y-13215898D01*
X9698959Y-13215898D02*
X9708483Y-13206374D01*
X9708483Y-13206374D02*
X9727531Y-13196850D01*
X9727531Y-13196850D02*
X9756102Y-13196850D01*
X9756102Y-13196850D02*
X9775150Y-13206374D01*
X9775150Y-13206374D02*
X9784673Y-13215898D01*
X9784673Y-13215898D02*
X9794197Y-13234946D01*
X9794197Y-13234946D02*
X9794197Y-13292088D01*
X9794197Y-13292088D02*
X9784673Y-13311136D01*
X9784673Y-13311136D02*
X9775150Y-13320660D01*
X9775150Y-13320660D02*
X9756102Y-13330184D01*
X9756102Y-13330184D02*
X9727531Y-13330184D01*
X9908483Y-13330184D02*
X9889435Y-13320660D01*
X9889435Y-13320660D02*
X9879912Y-13301612D01*
X9879912Y-13301612D02*
X9879912Y-13130184D01*
X10060864Y-13320660D02*
X10041816Y-13330184D01*
X10041816Y-13330184D02*
X10003721Y-13330184D01*
X10003721Y-13330184D02*
X9984673Y-13320660D01*
X9984673Y-13320660D02*
X9975150Y-13301612D01*
X9975150Y-13301612D02*
X9975150Y-13225422D01*
X9975150Y-13225422D02*
X9984673Y-13206374D01*
X9984673Y-13206374D02*
X10003721Y-13196850D01*
X10003721Y-13196850D02*
X10041816Y-13196850D01*
X10041816Y-13196850D02*
X10060864Y-13206374D01*
X10060864Y-13206374D02*
X10070388Y-13225422D01*
X10070388Y-13225422D02*
X10070388Y-13244469D01*
X10070388Y-13244469D02*
X9975150Y-13263517D01*
X10146578Y-13320660D02*
X10165626Y-13330184D01*
X10165626Y-13330184D02*
X10203721Y-13330184D01*
X10203721Y-13330184D02*
X10222769Y-13320660D01*
X10222769Y-13320660D02*
X10232293Y-13301612D01*
X10232293Y-13301612D02*
X10232293Y-13292088D01*
X10232293Y-13292088D02*
X10222769Y-13273041D01*
X10222769Y-13273041D02*
X10203721Y-13263517D01*
X10203721Y-13263517D02*
X10175150Y-13263517D01*
X10175150Y-13263517D02*
X10156102Y-13253993D01*
X10156102Y-13253993D02*
X10146578Y-13234946D01*
X10146578Y-13234946D02*
X10146578Y-13225422D01*
X10146578Y-13225422D02*
X10156102Y-13206374D01*
X10156102Y-13206374D02*
X10175150Y-13196850D01*
X10175150Y-13196850D02*
X10203721Y-13196850D01*
X10203721Y-13196850D02*
X10222769Y-13206374D01*
X10298959Y-13406374D02*
X10308483Y-13396850D01*
X10308483Y-13396850D02*
X10327531Y-13368279D01*
X10327531Y-13368279D02*
X10337054Y-13349231D01*
X10337054Y-13349231D02*
X10346578Y-13320660D01*
X10346578Y-13320660D02*
X10356102Y-13273041D01*
X10356102Y-13273041D02*
X10356102Y-13234946D01*
X10356102Y-13234946D02*
X10346578Y-13187327D01*
X10346578Y-13187327D02*
X10337054Y-13158755D01*
X10337054Y-13158755D02*
X10327531Y-13139708D01*
X10327531Y-13139708D02*
X10308483Y-13111136D01*
X10308483Y-13111136D02*
X10298959Y-13101612D01*
X5133420Y-13458700D02*
X5333420Y-13658700D01*
X5333420Y-13458700D02*
X5133420Y-13658700D01*
X5233420Y-13458700D02*
X5233420Y-13658700D01*
X5133420Y-13558700D02*
X5333420Y-13558700D01*
X5575149Y-13450184D02*
X5698959Y-13450184D01*
X5698959Y-13450184D02*
X5632292Y-13526374D01*
X5632292Y-13526374D02*
X5660863Y-13526374D01*
X5660863Y-13526374D02*
X5679911Y-13535898D01*
X5679911Y-13535898D02*
X5689435Y-13545422D01*
X5689435Y-13545422D02*
X5698959Y-13564469D01*
X5698959Y-13564469D02*
X5698959Y-13612088D01*
X5698959Y-13612088D02*
X5689435Y-13631136D01*
X5689435Y-13631136D02*
X5679911Y-13640660D01*
X5679911Y-13640660D02*
X5660863Y-13650184D01*
X5660863Y-13650184D02*
X5603721Y-13650184D01*
X5603721Y-13650184D02*
X5584673Y-13640660D01*
X5584673Y-13640660D02*
X5575149Y-13631136D01*
X5784673Y-13631136D02*
X5794197Y-13640660D01*
X5794197Y-13640660D02*
X5784673Y-13650184D01*
X5784673Y-13650184D02*
X5775149Y-13640660D01*
X5775149Y-13640660D02*
X5784673Y-13631136D01*
X5784673Y-13631136D02*
X5784673Y-13650184D01*
X5870387Y-13469231D02*
X5879911Y-13459708D01*
X5879911Y-13459708D02*
X5898959Y-13450184D01*
X5898959Y-13450184D02*
X5946578Y-13450184D01*
X5946578Y-13450184D02*
X5965625Y-13459708D01*
X5965625Y-13459708D02*
X5975149Y-13469231D01*
X5975149Y-13469231D02*
X5984673Y-13488279D01*
X5984673Y-13488279D02*
X5984673Y-13507327D01*
X5984673Y-13507327D02*
X5975149Y-13535898D01*
X5975149Y-13535898D02*
X5860863Y-13650184D01*
X5860863Y-13650184D02*
X5984673Y-13650184D01*
X6108482Y-13450184D02*
X6127530Y-13450184D01*
X6127530Y-13450184D02*
X6146578Y-13459708D01*
X6146578Y-13459708D02*
X6156102Y-13469231D01*
X6156102Y-13469231D02*
X6165625Y-13488279D01*
X6165625Y-13488279D02*
X6175149Y-13526374D01*
X6175149Y-13526374D02*
X6175149Y-13573993D01*
X6175149Y-13573993D02*
X6165625Y-13612088D01*
X6165625Y-13612088D02*
X6156102Y-13631136D01*
X6156102Y-13631136D02*
X6146578Y-13640660D01*
X6146578Y-13640660D02*
X6127530Y-13650184D01*
X6127530Y-13650184D02*
X6108482Y-13650184D01*
X6108482Y-13650184D02*
X6089435Y-13640660D01*
X6089435Y-13640660D02*
X6079911Y-13631136D01*
X6079911Y-13631136D02*
X6070387Y-13612088D01*
X6070387Y-13612088D02*
X6060863Y-13573993D01*
X6060863Y-13573993D02*
X6060863Y-13526374D01*
X6060863Y-13526374D02*
X6070387Y-13488279D01*
X6070387Y-13488279D02*
X6079911Y-13469231D01*
X6079911Y-13469231D02*
X6089435Y-13459708D01*
X6089435Y-13459708D02*
X6108482Y-13450184D01*
X6298959Y-13450184D02*
X6318006Y-13450184D01*
X6318006Y-13450184D02*
X6337054Y-13459708D01*
X6337054Y-13459708D02*
X6346578Y-13469231D01*
X6346578Y-13469231D02*
X6356102Y-13488279D01*
X6356102Y-13488279D02*
X6365625Y-13526374D01*
X6365625Y-13526374D02*
X6365625Y-13573993D01*
X6365625Y-13573993D02*
X6356102Y-13612088D01*
X6356102Y-13612088D02*
X6346578Y-13631136D01*
X6346578Y-13631136D02*
X6337054Y-13640660D01*
X6337054Y-13640660D02*
X6318006Y-13650184D01*
X6318006Y-13650184D02*
X6298959Y-13650184D01*
X6298959Y-13650184D02*
X6279911Y-13640660D01*
X6279911Y-13640660D02*
X6270387Y-13631136D01*
X6270387Y-13631136D02*
X6260863Y-13612088D01*
X6260863Y-13612088D02*
X6251340Y-13573993D01*
X6251340Y-13573993D02*
X6251340Y-13526374D01*
X6251340Y-13526374D02*
X6260863Y-13488279D01*
X6260863Y-13488279D02*
X6270387Y-13469231D01*
X6270387Y-13469231D02*
X6279911Y-13459708D01*
X6279911Y-13459708D02*
X6298959Y-13450184D01*
X6451340Y-13650184D02*
X6451340Y-13516850D01*
X6451340Y-13535898D02*
X6460863Y-13526374D01*
X6460863Y-13526374D02*
X6479911Y-13516850D01*
X6479911Y-13516850D02*
X6508483Y-13516850D01*
X6508483Y-13516850D02*
X6527530Y-13526374D01*
X6527530Y-13526374D02*
X6537054Y-13545422D01*
X6537054Y-13545422D02*
X6537054Y-13650184D01*
X6537054Y-13545422D02*
X6546578Y-13526374D01*
X6546578Y-13526374D02*
X6565625Y-13516850D01*
X6565625Y-13516850D02*
X6594197Y-13516850D01*
X6594197Y-13516850D02*
X6613244Y-13526374D01*
X6613244Y-13526374D02*
X6622768Y-13545422D01*
X6622768Y-13545422D02*
X6622768Y-13650184D01*
X6718006Y-13650184D02*
X6718006Y-13516850D01*
X6718006Y-13535898D02*
X6727530Y-13526374D01*
X6727530Y-13526374D02*
X6746578Y-13516850D01*
X6746578Y-13516850D02*
X6775149Y-13516850D01*
X6775149Y-13516850D02*
X6794197Y-13526374D01*
X6794197Y-13526374D02*
X6803721Y-13545422D01*
X6803721Y-13545422D02*
X6803721Y-13650184D01*
X6803721Y-13545422D02*
X6813244Y-13526374D01*
X6813244Y-13526374D02*
X6832292Y-13516850D01*
X6832292Y-13516850D02*
X6860863Y-13516850D01*
X6860863Y-13516850D02*
X6879911Y-13526374D01*
X6879911Y-13526374D02*
X6889435Y-13545422D01*
X6889435Y-13545422D02*
X6889435Y-13650184D01*
X7279911Y-13440660D02*
X7108483Y-13697803D01*
X7537054Y-13450184D02*
X7556102Y-13450184D01*
X7556102Y-13450184D02*
X7575149Y-13459708D01*
X7575149Y-13459708D02*
X7584673Y-13469231D01*
X7584673Y-13469231D02*
X7594197Y-13488279D01*
X7594197Y-13488279D02*
X7603721Y-13526374D01*
X7603721Y-13526374D02*
X7603721Y-13573993D01*
X7603721Y-13573993D02*
X7594197Y-13612088D01*
X7594197Y-13612088D02*
X7584673Y-13631136D01*
X7584673Y-13631136D02*
X7575149Y-13640660D01*
X7575149Y-13640660D02*
X7556102Y-13650184D01*
X7556102Y-13650184D02*
X7537054Y-13650184D01*
X7537054Y-13650184D02*
X7518006Y-13640660D01*
X7518006Y-13640660D02*
X7508483Y-13631136D01*
X7508483Y-13631136D02*
X7498959Y-13612088D01*
X7498959Y-13612088D02*
X7489435Y-13573993D01*
X7489435Y-13573993D02*
X7489435Y-13526374D01*
X7489435Y-13526374D02*
X7498959Y-13488279D01*
X7498959Y-13488279D02*
X7508483Y-13469231D01*
X7508483Y-13469231D02*
X7518006Y-13459708D01*
X7518006Y-13459708D02*
X7537054Y-13450184D01*
X7689435Y-13631136D02*
X7698959Y-13640660D01*
X7698959Y-13640660D02*
X7689435Y-13650184D01*
X7689435Y-13650184D02*
X7679911Y-13640660D01*
X7679911Y-13640660D02*
X7689435Y-13631136D01*
X7689435Y-13631136D02*
X7689435Y-13650184D01*
X7889435Y-13650184D02*
X7775149Y-13650184D01*
X7832292Y-13650184D02*
X7832292Y-13450184D01*
X7832292Y-13450184D02*
X7813245Y-13478755D01*
X7813245Y-13478755D02*
X7794197Y-13497803D01*
X7794197Y-13497803D02*
X7775149Y-13507327D01*
X7965626Y-13469231D02*
X7975149Y-13459708D01*
X7975149Y-13459708D02*
X7994197Y-13450184D01*
X7994197Y-13450184D02*
X8041816Y-13450184D01*
X8041816Y-13450184D02*
X8060864Y-13459708D01*
X8060864Y-13459708D02*
X8070387Y-13469231D01*
X8070387Y-13469231D02*
X8079911Y-13488279D01*
X8079911Y-13488279D02*
X8079911Y-13507327D01*
X8079911Y-13507327D02*
X8070387Y-13535898D01*
X8070387Y-13535898D02*
X7956102Y-13650184D01*
X7956102Y-13650184D02*
X8079911Y-13650184D01*
X8251340Y-13450184D02*
X8213245Y-13450184D01*
X8213245Y-13450184D02*
X8194197Y-13459708D01*
X8194197Y-13459708D02*
X8184673Y-13469231D01*
X8184673Y-13469231D02*
X8165626Y-13497803D01*
X8165626Y-13497803D02*
X8156102Y-13535898D01*
X8156102Y-13535898D02*
X8156102Y-13612088D01*
X8156102Y-13612088D02*
X8165626Y-13631136D01*
X8165626Y-13631136D02*
X8175149Y-13640660D01*
X8175149Y-13640660D02*
X8194197Y-13650184D01*
X8194197Y-13650184D02*
X8232292Y-13650184D01*
X8232292Y-13650184D02*
X8251340Y-13640660D01*
X8251340Y-13640660D02*
X8260864Y-13631136D01*
X8260864Y-13631136D02*
X8270387Y-13612088D01*
X8270387Y-13612088D02*
X8270387Y-13564469D01*
X8270387Y-13564469D02*
X8260864Y-13545422D01*
X8260864Y-13545422D02*
X8251340Y-13535898D01*
X8251340Y-13535898D02*
X8232292Y-13526374D01*
X8232292Y-13526374D02*
X8194197Y-13526374D01*
X8194197Y-13526374D02*
X8175149Y-13535898D01*
X8175149Y-13535898D02*
X8165626Y-13545422D01*
X8165626Y-13545422D02*
X8156102Y-13564469D01*
X8394197Y-13450184D02*
X8413245Y-13450184D01*
X8413245Y-13450184D02*
X8432292Y-13459708D01*
X8432292Y-13459708D02*
X8441816Y-13469231D01*
X8441816Y-13469231D02*
X8451340Y-13488279D01*
X8451340Y-13488279D02*
X8460864Y-13526374D01*
X8460864Y-13526374D02*
X8460864Y-13573993D01*
X8460864Y-13573993D02*
X8451340Y-13612088D01*
X8451340Y-13612088D02*
X8441816Y-13631136D01*
X8441816Y-13631136D02*
X8432292Y-13640660D01*
X8432292Y-13640660D02*
X8413245Y-13650184D01*
X8413245Y-13650184D02*
X8394197Y-13650184D01*
X8394197Y-13650184D02*
X8375149Y-13640660D01*
X8375149Y-13640660D02*
X8365626Y-13631136D01*
X8365626Y-13631136D02*
X8356102Y-13612088D01*
X8356102Y-13612088D02*
X8346578Y-13573993D01*
X8346578Y-13573993D02*
X8346578Y-13526374D01*
X8346578Y-13526374D02*
X8356102Y-13488279D01*
X8356102Y-13488279D02*
X8365626Y-13469231D01*
X8365626Y-13469231D02*
X8375149Y-13459708D01*
X8375149Y-13459708D02*
X8394197Y-13450184D01*
X8537054Y-13450184D02*
X8537054Y-13488279D01*
X8613245Y-13450184D02*
X8613245Y-13488279D01*
X8908483Y-13726374D02*
X8898959Y-13716850D01*
X8898959Y-13716850D02*
X8879911Y-13688279D01*
X8879911Y-13688279D02*
X8870388Y-13669231D01*
X8870388Y-13669231D02*
X8860864Y-13640660D01*
X8860864Y-13640660D02*
X8851340Y-13593041D01*
X8851340Y-13593041D02*
X8851340Y-13554946D01*
X8851340Y-13554946D02*
X8860864Y-13507327D01*
X8860864Y-13507327D02*
X8870388Y-13478755D01*
X8870388Y-13478755D02*
X8879911Y-13459708D01*
X8879911Y-13459708D02*
X8898959Y-13431136D01*
X8898959Y-13431136D02*
X8908483Y-13421612D01*
X9070388Y-13516850D02*
X9070388Y-13650184D01*
X9022769Y-13440660D02*
X8975150Y-13583517D01*
X8975150Y-13583517D02*
X9098959Y-13583517D01*
X9327531Y-13650184D02*
X9327531Y-13450184D01*
X9413245Y-13650184D02*
X9413245Y-13545422D01*
X9413245Y-13545422D02*
X9403721Y-13526374D01*
X9403721Y-13526374D02*
X9384673Y-13516850D01*
X9384673Y-13516850D02*
X9356102Y-13516850D01*
X9356102Y-13516850D02*
X9337054Y-13526374D01*
X9337054Y-13526374D02*
X9327531Y-13535898D01*
X9537054Y-13650184D02*
X9518007Y-13640660D01*
X9518007Y-13640660D02*
X9508483Y-13631136D01*
X9508483Y-13631136D02*
X9498959Y-13612088D01*
X9498959Y-13612088D02*
X9498959Y-13554946D01*
X9498959Y-13554946D02*
X9508483Y-13535898D01*
X9508483Y-13535898D02*
X9518007Y-13526374D01*
X9518007Y-13526374D02*
X9537054Y-13516850D01*
X9537054Y-13516850D02*
X9565626Y-13516850D01*
X9565626Y-13516850D02*
X9584673Y-13526374D01*
X9584673Y-13526374D02*
X9594197Y-13535898D01*
X9594197Y-13535898D02*
X9603721Y-13554946D01*
X9603721Y-13554946D02*
X9603721Y-13612088D01*
X9603721Y-13612088D02*
X9594197Y-13631136D01*
X9594197Y-13631136D02*
X9584673Y-13640660D01*
X9584673Y-13640660D02*
X9565626Y-13650184D01*
X9565626Y-13650184D02*
X9537054Y-13650184D01*
X9718007Y-13650184D02*
X9698959Y-13640660D01*
X9698959Y-13640660D02*
X9689435Y-13621612D01*
X9689435Y-13621612D02*
X9689435Y-13450184D01*
X9870388Y-13640660D02*
X9851340Y-13650184D01*
X9851340Y-13650184D02*
X9813245Y-13650184D01*
X9813245Y-13650184D02*
X9794197Y-13640660D01*
X9794197Y-13640660D02*
X9784673Y-13621612D01*
X9784673Y-13621612D02*
X9784673Y-13545422D01*
X9784673Y-13545422D02*
X9794197Y-13526374D01*
X9794197Y-13526374D02*
X9813245Y-13516850D01*
X9813245Y-13516850D02*
X9851340Y-13516850D01*
X9851340Y-13516850D02*
X9870388Y-13526374D01*
X9870388Y-13526374D02*
X9879912Y-13545422D01*
X9879912Y-13545422D02*
X9879912Y-13564469D01*
X9879912Y-13564469D02*
X9784673Y-13583517D01*
X9956102Y-13640660D02*
X9975150Y-13650184D01*
X9975150Y-13650184D02*
X10013245Y-13650184D01*
X10013245Y-13650184D02*
X10032293Y-13640660D01*
X10032293Y-13640660D02*
X10041816Y-13621612D01*
X10041816Y-13621612D02*
X10041816Y-13612088D01*
X10041816Y-13612088D02*
X10032293Y-13593041D01*
X10032293Y-13593041D02*
X10013245Y-13583517D01*
X10013245Y-13583517D02*
X9984673Y-13583517D01*
X9984673Y-13583517D02*
X9965626Y-13573993D01*
X9965626Y-13573993D02*
X9956102Y-13554946D01*
X9956102Y-13554946D02*
X9956102Y-13545422D01*
X9956102Y-13545422D02*
X9965626Y-13526374D01*
X9965626Y-13526374D02*
X9984673Y-13516850D01*
X9984673Y-13516850D02*
X10013245Y-13516850D01*
X10013245Y-13516850D02*
X10032293Y-13526374D01*
X10108483Y-13726374D02*
X10118007Y-13716850D01*
X10118007Y-13716850D02*
X10137054Y-13688279D01*
X10137054Y-13688279D02*
X10146578Y-13669231D01*
X10146578Y-13669231D02*
X10156102Y-13640660D01*
X10156102Y-13640660D02*
X10165626Y-13593041D01*
X10165626Y-13593041D02*
X10165626Y-13554946D01*
X10165626Y-13554946D02*
X10156102Y-13507327D01*
X10156102Y-13507327D02*
X10146578Y-13478755D01*
X10146578Y-13478755D02*
X10137054Y-13459708D01*
X10137054Y-13459708D02*
X10118007Y-13431136D01*
X10118007Y-13431136D02*
X10108483Y-13421612D01*
M02*
