G04 #@! TF.GenerationSoftware,KiCad,Pcbnew,9.0.5*
G04 #@! TF.CreationDate,2025-10-23T19:13:02+02:00*
G04 #@! TF.ProjectId,main-board,6d61696e-2d62-46f6-9172-642e6b696361,1.0a*
G04 #@! TF.SameCoordinates,Original*
G04 #@! TF.FileFunction,Soldermask,Bot*
G04 #@! TF.FilePolarity,Negative*
%FSLAX46Y46*%
G04 Gerber Fmt 4.6, Leading zero omitted, Abs format (unit mm)*
G04 Created by KiCad (PCBNEW 9.0.5) date 2025-10-23 19:13:02*
%MOMM*%
%LPD*%
G01*
G04 APERTURE LIST*
G04 Aperture macros list*
%AMRoundRect*
0 Rectangle with rounded corners*
0 $1 Rounding radius*
0 $2 $3 $4 $5 $6 $7 $8 $9 X,Y pos of 4 corners*
0 Add a 4 corners polygon primitive as box body*
4,1,4,$2,$3,$4,$5,$6,$7,$8,$9,$2,$3,0*
0 Add four circle primitives for the rounded corners*
1,1,$1+$1,$2,$3*
1,1,$1+$1,$4,$5*
1,1,$1+$1,$6,$7*
1,1,$1+$1,$8,$9*
0 Add four rect primitives between the rounded corners*
20,1,$1+$1,$2,$3,$4,$5,0*
20,1,$1+$1,$4,$5,$6,$7,0*
20,1,$1+$1,$6,$7,$8,$9,0*
20,1,$1+$1,$8,$9,$2,$3,0*%
G04 Aperture macros list end*
%ADD10C,0.650000*%
%ADD11O,1.000000X2.100000*%
%ADD12O,1.000000X1.800000*%
%ADD13C,6.400000*%
%ADD14RoundRect,0.250000X-0.600000X-0.600000X0.600000X-0.600000X0.600000X0.600000X-0.600000X0.600000X0*%
%ADD15C,1.700000*%
%ADD16RoundRect,0.250000X0.600000X-0.600000X0.600000X0.600000X-0.600000X0.600000X-0.600000X-0.600000X0*%
%ADD17RoundRect,0.250000X-0.337500X-0.475000X0.337500X-0.475000X0.337500X0.475000X-0.337500X0.475000X0*%
%ADD18RoundRect,0.250000X0.475000X-0.337500X0.475000X0.337500X-0.475000X0.337500X-0.475000X-0.337500X0*%
%ADD19RoundRect,0.250000X0.337500X0.475000X-0.337500X0.475000X-0.337500X-0.475000X0.337500X-0.475000X0*%
%ADD20RoundRect,0.250000X-0.475000X0.337500X-0.475000X-0.337500X0.475000X-0.337500X0.475000X0.337500X0*%
%ADD21C,2.300000*%
%ADD22C,3.600000*%
%ADD23C,1.200000*%
%ADD24C,1.100000*%
%ADD25RoundRect,0.250000X0.450000X-0.325000X0.450000X0.325000X-0.450000X0.325000X-0.450000X-0.325000X0*%
%ADD26RoundRect,0.250000X-0.650000X0.412500X-0.650000X-0.412500X0.650000X-0.412500X0.650000X0.412500X0*%
G04 APERTURE END LIST*
D10*
X35506000Y-93750200D03*
X41286000Y-93750200D03*
D11*
X34076000Y-93250200D03*
D12*
X34076000Y-97430200D03*
D11*
X42716000Y-93250200D03*
D12*
X42716000Y-97430200D03*
D13*
X26396000Y-30755200D03*
D14*
X25755000Y-59399200D03*
D15*
X28295000Y-59399200D03*
X25755000Y-61939200D03*
X28295000Y-61939200D03*
X25755000Y-64479200D03*
X28295000Y-64479200D03*
X25755000Y-67019200D03*
X28295000Y-67019200D03*
X25755000Y-69559200D03*
X28295000Y-69559200D03*
X25755000Y-72099200D03*
X28295000Y-72099200D03*
X25755000Y-74639200D03*
X28295000Y-74639200D03*
X25755000Y-77179200D03*
X28295000Y-77179200D03*
X25755000Y-79719200D03*
X28295000Y-79719200D03*
X25755000Y-82259200D03*
X28295000Y-82259200D03*
D13*
X114396000Y-92755200D03*
D14*
X112242000Y-47207200D03*
D15*
X114782000Y-47207200D03*
X112242000Y-49747200D03*
X114782000Y-49747200D03*
X112242000Y-52287200D03*
X114782000Y-52287200D03*
X112242000Y-54827200D03*
X114782000Y-54827200D03*
X112242000Y-57367200D03*
X114782000Y-57367200D03*
D16*
X38201000Y-32856200D03*
D15*
X38201000Y-30316200D03*
X40741000Y-32856200D03*
X40741000Y-30316200D03*
X43281000Y-32856200D03*
X43281000Y-30316200D03*
X45821000Y-32856200D03*
X45821000Y-30316200D03*
X48361000Y-32856200D03*
X48361000Y-30316200D03*
D17*
X46032000Y-59399200D03*
X48107000Y-59399200D03*
X84218000Y-53176200D03*
X86293000Y-53176200D03*
D18*
X89806000Y-59526200D03*
X89806000Y-57451200D03*
D17*
X84218000Y-59399200D03*
X86293000Y-59399200D03*
X84048000Y-42254200D03*
X86123000Y-42254200D03*
D19*
X101998000Y-59399200D03*
X99923000Y-59399200D03*
D17*
X41354500Y-84926200D03*
X43429500Y-84926200D03*
D20*
X57505000Y-51736200D03*
X57505000Y-53811200D03*
D17*
X46032000Y-57367200D03*
X48107000Y-57367200D03*
X84091000Y-48223200D03*
X86166000Y-48223200D03*
D21*
X102396000Y-90755200D03*
D22*
X105696000Y-94055200D03*
X105696000Y-87455200D03*
X99096000Y-94055200D03*
X99096000Y-87455200D03*
D16*
X75793000Y-32856200D03*
D15*
X75793000Y-30316200D03*
X78333000Y-32856200D03*
X78333000Y-30316200D03*
X80873000Y-32856200D03*
X80873000Y-30316200D03*
X83413000Y-32856200D03*
X83413000Y-30316200D03*
X85953000Y-32856200D03*
X85953000Y-30316200D03*
D23*
X27914000Y-50509200D03*
D24*
X27914000Y-44159200D03*
D21*
X54396000Y-90755200D03*
D22*
X57696000Y-94055200D03*
X57696000Y-87455200D03*
X51096000Y-94055200D03*
X51096000Y-87455200D03*
D21*
X70396000Y-90755200D03*
D22*
X73696000Y-94055200D03*
X73696000Y-87455200D03*
X67096000Y-94055200D03*
X67096000Y-87455200D03*
D21*
X86396000Y-90755200D03*
D22*
X89696000Y-94055200D03*
X89696000Y-87455200D03*
X83096000Y-94055200D03*
X83096000Y-87455200D03*
D19*
X34031500Y-79973200D03*
X31956500Y-79973200D03*
D17*
X84218000Y-57367200D03*
X86293000Y-57367200D03*
D20*
X101871000Y-46191200D03*
X101871000Y-48266200D03*
D19*
X96537000Y-59399200D03*
X94462000Y-59399200D03*
D17*
X45905000Y-49747200D03*
X47980000Y-49747200D03*
D25*
X89806000Y-55344200D03*
X89806000Y-53294200D03*
D20*
X101871000Y-42211200D03*
X101871000Y-44286200D03*
D17*
X45905000Y-51779200D03*
X47980000Y-51779200D03*
D19*
X34031500Y-82640200D03*
X31956500Y-82640200D03*
D18*
X53060000Y-58912700D03*
X53060000Y-56837700D03*
D17*
X84218000Y-55335200D03*
X86293000Y-55335200D03*
D18*
X50266000Y-54870200D03*
X50266000Y-52795200D03*
D26*
X92092000Y-53391700D03*
X92092000Y-56516700D03*
D20*
X101871000Y-50085200D03*
X101871000Y-52160200D03*
D18*
X55092000Y-58891200D03*
X55092000Y-56816200D03*
D20*
X57505000Y-46804700D03*
X57505000Y-48879700D03*
D17*
X45905000Y-47080200D03*
X47980000Y-47080200D03*
X84091000Y-46191200D03*
X86166000Y-46191200D03*
D20*
X55219000Y-46804700D03*
X55219000Y-48879700D03*
D13*
X26396000Y-92755200D03*
X114396000Y-30755200D03*
M02*
