%TF.GenerationSoftware,KiCad,Pcbnew,9.0.5*%
%TF.CreationDate,2025-10-23T02:28:37+02:00*%
%TF.ProjectId,main-board,6d61696e-2d62-46f6-9172-642e6b696361,1.0a*%
%TF.SameCoordinates,Original*%
%TF.FileFunction,Drillmap*%
%TF.FilePolarity,Positive*%
%FSLAX45Y45*%
G04 Gerber Fmt 4.5, Leading zero omitted, Abs format (unit mm)*
G04 Created by KiCad (PCBNEW 9.0.5) date 2025-10-23 02:28:37*
%MOMM*%
%LPD*%
G01*
G04 APERTURE LIST*
%ADD10C,0.050000*%
%ADD11C,0.200000*%
%ADD12C,0.100000*%
%ADD13C,0.110000*%
%ADD14C,0.120000*%
G04 APERTURE END LIST*
D10*
X5335920Y-11276200D02*
X5335920Y-3876200D01*
X5335920Y-11276200D02*
X6435920Y-11276200D01*
X15335920Y-3876200D02*
X15335920Y-11276200D01*
X6435920Y-11276200D02*
X7835920Y-11276200D01*
X15335920Y-11276200D02*
X7835920Y-11276200D01*
X5335920Y-3876200D02*
X15335920Y-3876200D01*
D11*
D12*
X6814420Y-10743200D02*
X6879420Y-10808200D01*
X6879420Y-10743200D02*
X6814420Y-10808200D01*
X7392420Y-10743200D02*
X7457420Y-10808200D01*
X7457420Y-10743200D02*
X7392420Y-10808200D01*
D13*
X6142720Y-5816600D02*
G75*
G02*
X6032720Y-5816600I-55000J0D01*
G01*
X6032720Y-5816600D02*
G75*
G02*
X6142720Y-5816600I55000J0D01*
G01*
D14*
X6087720Y-6391600D02*
X6087720Y-6511600D01*
X6027720Y-6451600D02*
X6147720Y-6451600D01*
D11*
X5594197Y-11590184D02*
X5594197Y-11390184D01*
X5594197Y-11390184D02*
X5641816Y-11390184D01*
X5641816Y-11390184D02*
X5670387Y-11399708D01*
X5670387Y-11399708D02*
X5689435Y-11418755D01*
X5689435Y-11418755D02*
X5698959Y-11437803D01*
X5698959Y-11437803D02*
X5708482Y-11475898D01*
X5708482Y-11475898D02*
X5708482Y-11504469D01*
X5708482Y-11504469D02*
X5698959Y-11542565D01*
X5698959Y-11542565D02*
X5689435Y-11561612D01*
X5689435Y-11561612D02*
X5670387Y-11580660D01*
X5670387Y-11580660D02*
X5641816Y-11590184D01*
X5641816Y-11590184D02*
X5594197Y-11590184D01*
X5794197Y-11590184D02*
X5794197Y-11456850D01*
X5794197Y-11494946D02*
X5803721Y-11475898D01*
X5803721Y-11475898D02*
X5813244Y-11466374D01*
X5813244Y-11466374D02*
X5832292Y-11456850D01*
X5832292Y-11456850D02*
X5851340Y-11456850D01*
X5918006Y-11590184D02*
X5918006Y-11456850D01*
X5918006Y-11390184D02*
X5908482Y-11399708D01*
X5908482Y-11399708D02*
X5918006Y-11409231D01*
X5918006Y-11409231D02*
X5927530Y-11399708D01*
X5927530Y-11399708D02*
X5918006Y-11390184D01*
X5918006Y-11390184D02*
X5918006Y-11409231D01*
X6041816Y-11590184D02*
X6022768Y-11580660D01*
X6022768Y-11580660D02*
X6013244Y-11561612D01*
X6013244Y-11561612D02*
X6013244Y-11390184D01*
X6146578Y-11590184D02*
X6127530Y-11580660D01*
X6127530Y-11580660D02*
X6118006Y-11561612D01*
X6118006Y-11561612D02*
X6118006Y-11390184D01*
X6375149Y-11590184D02*
X6375149Y-11390184D01*
X6375149Y-11390184D02*
X6441816Y-11533041D01*
X6441816Y-11533041D02*
X6508482Y-11390184D01*
X6508482Y-11390184D02*
X6508482Y-11590184D01*
X6689435Y-11590184D02*
X6689435Y-11485422D01*
X6689435Y-11485422D02*
X6679911Y-11466374D01*
X6679911Y-11466374D02*
X6660863Y-11456850D01*
X6660863Y-11456850D02*
X6622768Y-11456850D01*
X6622768Y-11456850D02*
X6603721Y-11466374D01*
X6689435Y-11580660D02*
X6670387Y-11590184D01*
X6670387Y-11590184D02*
X6622768Y-11590184D01*
X6622768Y-11590184D02*
X6603721Y-11580660D01*
X6603721Y-11580660D02*
X6594197Y-11561612D01*
X6594197Y-11561612D02*
X6594197Y-11542565D01*
X6594197Y-11542565D02*
X6603721Y-11523517D01*
X6603721Y-11523517D02*
X6622768Y-11513993D01*
X6622768Y-11513993D02*
X6670387Y-11513993D01*
X6670387Y-11513993D02*
X6689435Y-11504469D01*
X6784673Y-11456850D02*
X6784673Y-11656850D01*
X6784673Y-11466374D02*
X6803721Y-11456850D01*
X6803721Y-11456850D02*
X6841816Y-11456850D01*
X6841816Y-11456850D02*
X6860863Y-11466374D01*
X6860863Y-11466374D02*
X6870387Y-11475898D01*
X6870387Y-11475898D02*
X6879911Y-11494946D01*
X6879911Y-11494946D02*
X6879911Y-11552088D01*
X6879911Y-11552088D02*
X6870387Y-11571136D01*
X6870387Y-11571136D02*
X6860863Y-11580660D01*
X6860863Y-11580660D02*
X6841816Y-11590184D01*
X6841816Y-11590184D02*
X6803721Y-11590184D01*
X6803721Y-11590184D02*
X6784673Y-11580660D01*
X6965625Y-11571136D02*
X6975149Y-11580660D01*
X6975149Y-11580660D02*
X6965625Y-11590184D01*
X6965625Y-11590184D02*
X6956102Y-11580660D01*
X6956102Y-11580660D02*
X6965625Y-11571136D01*
X6965625Y-11571136D02*
X6965625Y-11590184D01*
X6965625Y-11466374D02*
X6975149Y-11475898D01*
X6975149Y-11475898D02*
X6965625Y-11485422D01*
X6965625Y-11485422D02*
X6956102Y-11475898D01*
X6956102Y-11475898D02*
X6965625Y-11466374D01*
X6965625Y-11466374D02*
X6965625Y-11485422D01*
D12*
X5268420Y-11886200D02*
X5333420Y-11951200D01*
X5333420Y-11886200D02*
X5268420Y-11951200D01*
D11*
X5632292Y-11810184D02*
X5651340Y-11810184D01*
X5651340Y-11810184D02*
X5670387Y-11819708D01*
X5670387Y-11819708D02*
X5679911Y-11829231D01*
X5679911Y-11829231D02*
X5689435Y-11848279D01*
X5689435Y-11848279D02*
X5698959Y-11886374D01*
X5698959Y-11886374D02*
X5698959Y-11933993D01*
X5698959Y-11933993D02*
X5689435Y-11972088D01*
X5689435Y-11972088D02*
X5679911Y-11991136D01*
X5679911Y-11991136D02*
X5670387Y-12000660D01*
X5670387Y-12000660D02*
X5651340Y-12010184D01*
X5651340Y-12010184D02*
X5632292Y-12010184D01*
X5632292Y-12010184D02*
X5613244Y-12000660D01*
X5613244Y-12000660D02*
X5603721Y-11991136D01*
X5603721Y-11991136D02*
X5594197Y-11972088D01*
X5594197Y-11972088D02*
X5584673Y-11933993D01*
X5584673Y-11933993D02*
X5584673Y-11886374D01*
X5584673Y-11886374D02*
X5594197Y-11848279D01*
X5594197Y-11848279D02*
X5603721Y-11829231D01*
X5603721Y-11829231D02*
X5613244Y-11819708D01*
X5613244Y-11819708D02*
X5632292Y-11810184D01*
X5784673Y-11991136D02*
X5794197Y-12000660D01*
X5794197Y-12000660D02*
X5784673Y-12010184D01*
X5784673Y-12010184D02*
X5775149Y-12000660D01*
X5775149Y-12000660D02*
X5784673Y-11991136D01*
X5784673Y-11991136D02*
X5784673Y-12010184D01*
X5965625Y-11810184D02*
X5927530Y-11810184D01*
X5927530Y-11810184D02*
X5908482Y-11819708D01*
X5908482Y-11819708D02*
X5898959Y-11829231D01*
X5898959Y-11829231D02*
X5879911Y-11857803D01*
X5879911Y-11857803D02*
X5870387Y-11895898D01*
X5870387Y-11895898D02*
X5870387Y-11972088D01*
X5870387Y-11972088D02*
X5879911Y-11991136D01*
X5879911Y-11991136D02*
X5889435Y-12000660D01*
X5889435Y-12000660D02*
X5908482Y-12010184D01*
X5908482Y-12010184D02*
X5946578Y-12010184D01*
X5946578Y-12010184D02*
X5965625Y-12000660D01*
X5965625Y-12000660D02*
X5975149Y-11991136D01*
X5975149Y-11991136D02*
X5984673Y-11972088D01*
X5984673Y-11972088D02*
X5984673Y-11924469D01*
X5984673Y-11924469D02*
X5975149Y-11905422D01*
X5975149Y-11905422D02*
X5965625Y-11895898D01*
X5965625Y-11895898D02*
X5946578Y-11886374D01*
X5946578Y-11886374D02*
X5908482Y-11886374D01*
X5908482Y-11886374D02*
X5889435Y-11895898D01*
X5889435Y-11895898D02*
X5879911Y-11905422D01*
X5879911Y-11905422D02*
X5870387Y-11924469D01*
X6165625Y-11810184D02*
X6070387Y-11810184D01*
X6070387Y-11810184D02*
X6060863Y-11905422D01*
X6060863Y-11905422D02*
X6070387Y-11895898D01*
X6070387Y-11895898D02*
X6089435Y-11886374D01*
X6089435Y-11886374D02*
X6137054Y-11886374D01*
X6137054Y-11886374D02*
X6156102Y-11895898D01*
X6156102Y-11895898D02*
X6165625Y-11905422D01*
X6165625Y-11905422D02*
X6175149Y-11924469D01*
X6175149Y-11924469D02*
X6175149Y-11972088D01*
X6175149Y-11972088D02*
X6165625Y-11991136D01*
X6165625Y-11991136D02*
X6156102Y-12000660D01*
X6156102Y-12000660D02*
X6137054Y-12010184D01*
X6137054Y-12010184D02*
X6089435Y-12010184D01*
X6089435Y-12010184D02*
X6070387Y-12000660D01*
X6070387Y-12000660D02*
X6060863Y-11991136D01*
X6298959Y-11810184D02*
X6318006Y-11810184D01*
X6318006Y-11810184D02*
X6337054Y-11819708D01*
X6337054Y-11819708D02*
X6346578Y-11829231D01*
X6346578Y-11829231D02*
X6356102Y-11848279D01*
X6356102Y-11848279D02*
X6365625Y-11886374D01*
X6365625Y-11886374D02*
X6365625Y-11933993D01*
X6365625Y-11933993D02*
X6356102Y-11972088D01*
X6356102Y-11972088D02*
X6346578Y-11991136D01*
X6346578Y-11991136D02*
X6337054Y-12000660D01*
X6337054Y-12000660D02*
X6318006Y-12010184D01*
X6318006Y-12010184D02*
X6298959Y-12010184D01*
X6298959Y-12010184D02*
X6279911Y-12000660D01*
X6279911Y-12000660D02*
X6270387Y-11991136D01*
X6270387Y-11991136D02*
X6260863Y-11972088D01*
X6260863Y-11972088D02*
X6251340Y-11933993D01*
X6251340Y-11933993D02*
X6251340Y-11886374D01*
X6251340Y-11886374D02*
X6260863Y-11848279D01*
X6260863Y-11848279D02*
X6270387Y-11829231D01*
X6270387Y-11829231D02*
X6279911Y-11819708D01*
X6279911Y-11819708D02*
X6298959Y-11810184D01*
X6451340Y-12010184D02*
X6451340Y-11876850D01*
X6451340Y-11895898D02*
X6460863Y-11886374D01*
X6460863Y-11886374D02*
X6479911Y-11876850D01*
X6479911Y-11876850D02*
X6508483Y-11876850D01*
X6508483Y-11876850D02*
X6527530Y-11886374D01*
X6527530Y-11886374D02*
X6537054Y-11905422D01*
X6537054Y-11905422D02*
X6537054Y-12010184D01*
X6537054Y-11905422D02*
X6546578Y-11886374D01*
X6546578Y-11886374D02*
X6565625Y-11876850D01*
X6565625Y-11876850D02*
X6594197Y-11876850D01*
X6594197Y-11876850D02*
X6613244Y-11886374D01*
X6613244Y-11886374D02*
X6622768Y-11905422D01*
X6622768Y-11905422D02*
X6622768Y-12010184D01*
X6718006Y-12010184D02*
X6718006Y-11876850D01*
X6718006Y-11895898D02*
X6727530Y-11886374D01*
X6727530Y-11886374D02*
X6746578Y-11876850D01*
X6746578Y-11876850D02*
X6775149Y-11876850D01*
X6775149Y-11876850D02*
X6794197Y-11886374D01*
X6794197Y-11886374D02*
X6803721Y-11905422D01*
X6803721Y-11905422D02*
X6803721Y-12010184D01*
X6803721Y-11905422D02*
X6813244Y-11886374D01*
X6813244Y-11886374D02*
X6832292Y-11876850D01*
X6832292Y-11876850D02*
X6860863Y-11876850D01*
X6860863Y-11876850D02*
X6879911Y-11886374D01*
X6879911Y-11886374D02*
X6889435Y-11905422D01*
X6889435Y-11905422D02*
X6889435Y-12010184D01*
X7279911Y-11800660D02*
X7108483Y-12057803D01*
X7537054Y-11810184D02*
X7556102Y-11810184D01*
X7556102Y-11810184D02*
X7575149Y-11819708D01*
X7575149Y-11819708D02*
X7584673Y-11829231D01*
X7584673Y-11829231D02*
X7594197Y-11848279D01*
X7594197Y-11848279D02*
X7603721Y-11886374D01*
X7603721Y-11886374D02*
X7603721Y-11933993D01*
X7603721Y-11933993D02*
X7594197Y-11972088D01*
X7594197Y-11972088D02*
X7584673Y-11991136D01*
X7584673Y-11991136D02*
X7575149Y-12000660D01*
X7575149Y-12000660D02*
X7556102Y-12010184D01*
X7556102Y-12010184D02*
X7537054Y-12010184D01*
X7537054Y-12010184D02*
X7518006Y-12000660D01*
X7518006Y-12000660D02*
X7508483Y-11991136D01*
X7508483Y-11991136D02*
X7498959Y-11972088D01*
X7498959Y-11972088D02*
X7489435Y-11933993D01*
X7489435Y-11933993D02*
X7489435Y-11886374D01*
X7489435Y-11886374D02*
X7498959Y-11848279D01*
X7498959Y-11848279D02*
X7508483Y-11829231D01*
X7508483Y-11829231D02*
X7518006Y-11819708D01*
X7518006Y-11819708D02*
X7537054Y-11810184D01*
X7689435Y-11991136D02*
X7698959Y-12000660D01*
X7698959Y-12000660D02*
X7689435Y-12010184D01*
X7689435Y-12010184D02*
X7679911Y-12000660D01*
X7679911Y-12000660D02*
X7689435Y-11991136D01*
X7689435Y-11991136D02*
X7689435Y-12010184D01*
X7822768Y-11810184D02*
X7841816Y-11810184D01*
X7841816Y-11810184D02*
X7860864Y-11819708D01*
X7860864Y-11819708D02*
X7870387Y-11829231D01*
X7870387Y-11829231D02*
X7879911Y-11848279D01*
X7879911Y-11848279D02*
X7889435Y-11886374D01*
X7889435Y-11886374D02*
X7889435Y-11933993D01*
X7889435Y-11933993D02*
X7879911Y-11972088D01*
X7879911Y-11972088D02*
X7870387Y-11991136D01*
X7870387Y-11991136D02*
X7860864Y-12000660D01*
X7860864Y-12000660D02*
X7841816Y-12010184D01*
X7841816Y-12010184D02*
X7822768Y-12010184D01*
X7822768Y-12010184D02*
X7803721Y-12000660D01*
X7803721Y-12000660D02*
X7794197Y-11991136D01*
X7794197Y-11991136D02*
X7784673Y-11972088D01*
X7784673Y-11972088D02*
X7775149Y-11933993D01*
X7775149Y-11933993D02*
X7775149Y-11886374D01*
X7775149Y-11886374D02*
X7784673Y-11848279D01*
X7784673Y-11848279D02*
X7794197Y-11829231D01*
X7794197Y-11829231D02*
X7803721Y-11819708D01*
X7803721Y-11819708D02*
X7822768Y-11810184D01*
X7965626Y-11829231D02*
X7975149Y-11819708D01*
X7975149Y-11819708D02*
X7994197Y-11810184D01*
X7994197Y-11810184D02*
X8041816Y-11810184D01*
X8041816Y-11810184D02*
X8060864Y-11819708D01*
X8060864Y-11819708D02*
X8070387Y-11829231D01*
X8070387Y-11829231D02*
X8079911Y-11848279D01*
X8079911Y-11848279D02*
X8079911Y-11867327D01*
X8079911Y-11867327D02*
X8070387Y-11895898D01*
X8070387Y-11895898D02*
X7956102Y-12010184D01*
X7956102Y-12010184D02*
X8079911Y-12010184D01*
X8260864Y-11810184D02*
X8165626Y-11810184D01*
X8165626Y-11810184D02*
X8156102Y-11905422D01*
X8156102Y-11905422D02*
X8165626Y-11895898D01*
X8165626Y-11895898D02*
X8184673Y-11886374D01*
X8184673Y-11886374D02*
X8232292Y-11886374D01*
X8232292Y-11886374D02*
X8251340Y-11895898D01*
X8251340Y-11895898D02*
X8260864Y-11905422D01*
X8260864Y-11905422D02*
X8270387Y-11924469D01*
X8270387Y-11924469D02*
X8270387Y-11972088D01*
X8270387Y-11972088D02*
X8260864Y-11991136D01*
X8260864Y-11991136D02*
X8251340Y-12000660D01*
X8251340Y-12000660D02*
X8232292Y-12010184D01*
X8232292Y-12010184D02*
X8184673Y-12010184D01*
X8184673Y-12010184D02*
X8165626Y-12000660D01*
X8165626Y-12000660D02*
X8156102Y-11991136D01*
X8441816Y-11810184D02*
X8403721Y-11810184D01*
X8403721Y-11810184D02*
X8384673Y-11819708D01*
X8384673Y-11819708D02*
X8375149Y-11829231D01*
X8375149Y-11829231D02*
X8356102Y-11857803D01*
X8356102Y-11857803D02*
X8346578Y-11895898D01*
X8346578Y-11895898D02*
X8346578Y-11972088D01*
X8346578Y-11972088D02*
X8356102Y-11991136D01*
X8356102Y-11991136D02*
X8365626Y-12000660D01*
X8365626Y-12000660D02*
X8384673Y-12010184D01*
X8384673Y-12010184D02*
X8422769Y-12010184D01*
X8422769Y-12010184D02*
X8441816Y-12000660D01*
X8441816Y-12000660D02*
X8451340Y-11991136D01*
X8451340Y-11991136D02*
X8460864Y-11972088D01*
X8460864Y-11972088D02*
X8460864Y-11924469D01*
X8460864Y-11924469D02*
X8451340Y-11905422D01*
X8451340Y-11905422D02*
X8441816Y-11895898D01*
X8441816Y-11895898D02*
X8422769Y-11886374D01*
X8422769Y-11886374D02*
X8384673Y-11886374D01*
X8384673Y-11886374D02*
X8365626Y-11895898D01*
X8365626Y-11895898D02*
X8356102Y-11905422D01*
X8356102Y-11905422D02*
X8346578Y-11924469D01*
X8537054Y-11810184D02*
X8537054Y-11848279D01*
X8613245Y-11810184D02*
X8613245Y-11848279D01*
X8908483Y-12086374D02*
X8898959Y-12076850D01*
X8898959Y-12076850D02*
X8879911Y-12048279D01*
X8879911Y-12048279D02*
X8870388Y-12029231D01*
X8870388Y-12029231D02*
X8860864Y-12000660D01*
X8860864Y-12000660D02*
X8851340Y-11953041D01*
X8851340Y-11953041D02*
X8851340Y-11914946D01*
X8851340Y-11914946D02*
X8860864Y-11867327D01*
X8860864Y-11867327D02*
X8870388Y-11838755D01*
X8870388Y-11838755D02*
X8879911Y-11819708D01*
X8879911Y-11819708D02*
X8898959Y-11791136D01*
X8898959Y-11791136D02*
X8908483Y-11781612D01*
X8975150Y-11829231D02*
X8984673Y-11819708D01*
X8984673Y-11819708D02*
X9003721Y-11810184D01*
X9003721Y-11810184D02*
X9051340Y-11810184D01*
X9051340Y-11810184D02*
X9070388Y-11819708D01*
X9070388Y-11819708D02*
X9079911Y-11829231D01*
X9079911Y-11829231D02*
X9089435Y-11848279D01*
X9089435Y-11848279D02*
X9089435Y-11867327D01*
X9089435Y-11867327D02*
X9079911Y-11895898D01*
X9079911Y-11895898D02*
X8965626Y-12010184D01*
X8965626Y-12010184D02*
X9089435Y-12010184D01*
X9327531Y-12010184D02*
X9327531Y-11810184D01*
X9413245Y-12010184D02*
X9413245Y-11905422D01*
X9413245Y-11905422D02*
X9403721Y-11886374D01*
X9403721Y-11886374D02*
X9384673Y-11876850D01*
X9384673Y-11876850D02*
X9356102Y-11876850D01*
X9356102Y-11876850D02*
X9337054Y-11886374D01*
X9337054Y-11886374D02*
X9327531Y-11895898D01*
X9537054Y-12010184D02*
X9518007Y-12000660D01*
X9518007Y-12000660D02*
X9508483Y-11991136D01*
X9508483Y-11991136D02*
X9498959Y-11972088D01*
X9498959Y-11972088D02*
X9498959Y-11914946D01*
X9498959Y-11914946D02*
X9508483Y-11895898D01*
X9508483Y-11895898D02*
X9518007Y-11886374D01*
X9518007Y-11886374D02*
X9537054Y-11876850D01*
X9537054Y-11876850D02*
X9565626Y-11876850D01*
X9565626Y-11876850D02*
X9584673Y-11886374D01*
X9584673Y-11886374D02*
X9594197Y-11895898D01*
X9594197Y-11895898D02*
X9603721Y-11914946D01*
X9603721Y-11914946D02*
X9603721Y-11972088D01*
X9603721Y-11972088D02*
X9594197Y-11991136D01*
X9594197Y-11991136D02*
X9584673Y-12000660D01*
X9584673Y-12000660D02*
X9565626Y-12010184D01*
X9565626Y-12010184D02*
X9537054Y-12010184D01*
X9718007Y-12010184D02*
X9698959Y-12000660D01*
X9698959Y-12000660D02*
X9689435Y-11981612D01*
X9689435Y-11981612D02*
X9689435Y-11810184D01*
X9870388Y-12000660D02*
X9851340Y-12010184D01*
X9851340Y-12010184D02*
X9813245Y-12010184D01*
X9813245Y-12010184D02*
X9794197Y-12000660D01*
X9794197Y-12000660D02*
X9784673Y-11981612D01*
X9784673Y-11981612D02*
X9784673Y-11905422D01*
X9784673Y-11905422D02*
X9794197Y-11886374D01*
X9794197Y-11886374D02*
X9813245Y-11876850D01*
X9813245Y-11876850D02*
X9851340Y-11876850D01*
X9851340Y-11876850D02*
X9870388Y-11886374D01*
X9870388Y-11886374D02*
X9879912Y-11905422D01*
X9879912Y-11905422D02*
X9879912Y-11924469D01*
X9879912Y-11924469D02*
X9784673Y-11943517D01*
X9956102Y-12000660D02*
X9975150Y-12010184D01*
X9975150Y-12010184D02*
X10013245Y-12010184D01*
X10013245Y-12010184D02*
X10032293Y-12000660D01*
X10032293Y-12000660D02*
X10041816Y-11981612D01*
X10041816Y-11981612D02*
X10041816Y-11972088D01*
X10041816Y-11972088D02*
X10032293Y-11953041D01*
X10032293Y-11953041D02*
X10013245Y-11943517D01*
X10013245Y-11943517D02*
X9984673Y-11943517D01*
X9984673Y-11943517D02*
X9965626Y-11933993D01*
X9965626Y-11933993D02*
X9956102Y-11914946D01*
X9956102Y-11914946D02*
X9956102Y-11905422D01*
X9956102Y-11905422D02*
X9965626Y-11886374D01*
X9965626Y-11886374D02*
X9984673Y-11876850D01*
X9984673Y-11876850D02*
X10013245Y-11876850D01*
X10013245Y-11876850D02*
X10032293Y-11886374D01*
X10108483Y-12086374D02*
X10118007Y-12076850D01*
X10118007Y-12076850D02*
X10137054Y-12048279D01*
X10137054Y-12048279D02*
X10146578Y-12029231D01*
X10146578Y-12029231D02*
X10156102Y-12000660D01*
X10156102Y-12000660D02*
X10165626Y-11953041D01*
X10165626Y-11953041D02*
X10165626Y-11914946D01*
X10165626Y-11914946D02*
X10156102Y-11867327D01*
X10156102Y-11867327D02*
X10146578Y-11838755D01*
X10146578Y-11838755D02*
X10137054Y-11819708D01*
X10137054Y-11819708D02*
X10118007Y-11791136D01*
X10118007Y-11791136D02*
X10108483Y-11781612D01*
X10470388Y-12086374D02*
X10460864Y-12076850D01*
X10460864Y-12076850D02*
X10441816Y-12048279D01*
X10441816Y-12048279D02*
X10432293Y-12029231D01*
X10432293Y-12029231D02*
X10422769Y-12000660D01*
X10422769Y-12000660D02*
X10413245Y-11953041D01*
X10413245Y-11953041D02*
X10413245Y-11914946D01*
X10413245Y-11914946D02*
X10422769Y-11867327D01*
X10422769Y-11867327D02*
X10432293Y-11838755D01*
X10432293Y-11838755D02*
X10441816Y-11819708D01*
X10441816Y-11819708D02*
X10460864Y-11791136D01*
X10460864Y-11791136D02*
X10470388Y-11781612D01*
X10546578Y-11876850D02*
X10546578Y-12010184D01*
X10546578Y-11895898D02*
X10556102Y-11886374D01*
X10556102Y-11886374D02*
X10575150Y-11876850D01*
X10575150Y-11876850D02*
X10603721Y-11876850D01*
X10603721Y-11876850D02*
X10622769Y-11886374D01*
X10622769Y-11886374D02*
X10632293Y-11905422D01*
X10632293Y-11905422D02*
X10632293Y-12010184D01*
X10756102Y-12010184D02*
X10737054Y-12000660D01*
X10737054Y-12000660D02*
X10727531Y-11991136D01*
X10727531Y-11991136D02*
X10718007Y-11972088D01*
X10718007Y-11972088D02*
X10718007Y-11914946D01*
X10718007Y-11914946D02*
X10727531Y-11895898D01*
X10727531Y-11895898D02*
X10737054Y-11886374D01*
X10737054Y-11886374D02*
X10756102Y-11876850D01*
X10756102Y-11876850D02*
X10784674Y-11876850D01*
X10784674Y-11876850D02*
X10803721Y-11886374D01*
X10803721Y-11886374D02*
X10813245Y-11895898D01*
X10813245Y-11895898D02*
X10822769Y-11914946D01*
X10822769Y-11914946D02*
X10822769Y-11972088D01*
X10822769Y-11972088D02*
X10813245Y-11991136D01*
X10813245Y-11991136D02*
X10803721Y-12000660D01*
X10803721Y-12000660D02*
X10784674Y-12010184D01*
X10784674Y-12010184D02*
X10756102Y-12010184D01*
X10879912Y-11876850D02*
X10956102Y-11876850D01*
X10908483Y-11810184D02*
X10908483Y-11981612D01*
X10908483Y-11981612D02*
X10918007Y-12000660D01*
X10918007Y-12000660D02*
X10937054Y-12010184D01*
X10937054Y-12010184D02*
X10956102Y-12010184D01*
X11175150Y-11876850D02*
X11175150Y-12076850D01*
X11175150Y-11886374D02*
X11194197Y-11876850D01*
X11194197Y-11876850D02*
X11232293Y-11876850D01*
X11232293Y-11876850D02*
X11251340Y-11886374D01*
X11251340Y-11886374D02*
X11260864Y-11895898D01*
X11260864Y-11895898D02*
X11270388Y-11914946D01*
X11270388Y-11914946D02*
X11270388Y-11972088D01*
X11270388Y-11972088D02*
X11260864Y-11991136D01*
X11260864Y-11991136D02*
X11251340Y-12000660D01*
X11251340Y-12000660D02*
X11232293Y-12010184D01*
X11232293Y-12010184D02*
X11194197Y-12010184D01*
X11194197Y-12010184D02*
X11175150Y-12000660D01*
X11384673Y-12010184D02*
X11365626Y-12000660D01*
X11365626Y-12000660D02*
X11356102Y-11981612D01*
X11356102Y-11981612D02*
X11356102Y-11810184D01*
X11546578Y-12010184D02*
X11546578Y-11905422D01*
X11546578Y-11905422D02*
X11537054Y-11886374D01*
X11537054Y-11886374D02*
X11518007Y-11876850D01*
X11518007Y-11876850D02*
X11479912Y-11876850D01*
X11479912Y-11876850D02*
X11460864Y-11886374D01*
X11546578Y-12000660D02*
X11527531Y-12010184D01*
X11527531Y-12010184D02*
X11479912Y-12010184D01*
X11479912Y-12010184D02*
X11460864Y-12000660D01*
X11460864Y-12000660D02*
X11451340Y-11981612D01*
X11451340Y-11981612D02*
X11451340Y-11962565D01*
X11451340Y-11962565D02*
X11460864Y-11943517D01*
X11460864Y-11943517D02*
X11479912Y-11933993D01*
X11479912Y-11933993D02*
X11527531Y-11933993D01*
X11527531Y-11933993D02*
X11546578Y-11924469D01*
X11613245Y-11876850D02*
X11689435Y-11876850D01*
X11641816Y-11810184D02*
X11641816Y-11981612D01*
X11641816Y-11981612D02*
X11651340Y-12000660D01*
X11651340Y-12000660D02*
X11670388Y-12010184D01*
X11670388Y-12010184D02*
X11689435Y-12010184D01*
X11832293Y-12000660D02*
X11813245Y-12010184D01*
X11813245Y-12010184D02*
X11775150Y-12010184D01*
X11775150Y-12010184D02*
X11756102Y-12000660D01*
X11756102Y-12000660D02*
X11746578Y-11981612D01*
X11746578Y-11981612D02*
X11746578Y-11905422D01*
X11746578Y-11905422D02*
X11756102Y-11886374D01*
X11756102Y-11886374D02*
X11775150Y-11876850D01*
X11775150Y-11876850D02*
X11813245Y-11876850D01*
X11813245Y-11876850D02*
X11832293Y-11886374D01*
X11832293Y-11886374D02*
X11841816Y-11905422D01*
X11841816Y-11905422D02*
X11841816Y-11924469D01*
X11841816Y-11924469D02*
X11746578Y-11943517D01*
X12013245Y-12010184D02*
X12013245Y-11810184D01*
X12013245Y-12000660D02*
X11994197Y-12010184D01*
X11994197Y-12010184D02*
X11956102Y-12010184D01*
X11956102Y-12010184D02*
X11937054Y-12000660D01*
X11937054Y-12000660D02*
X11927531Y-11991136D01*
X11927531Y-11991136D02*
X11918007Y-11972088D01*
X11918007Y-11972088D02*
X11918007Y-11914946D01*
X11918007Y-11914946D02*
X11927531Y-11895898D01*
X11927531Y-11895898D02*
X11937054Y-11886374D01*
X11937054Y-11886374D02*
X11956102Y-11876850D01*
X11956102Y-11876850D02*
X11994197Y-11876850D01*
X11994197Y-11876850D02*
X12013245Y-11886374D01*
X12089435Y-12086374D02*
X12098959Y-12076850D01*
X12098959Y-12076850D02*
X12118007Y-12048279D01*
X12118007Y-12048279D02*
X12127531Y-12029231D01*
X12127531Y-12029231D02*
X12137054Y-12000660D01*
X12137054Y-12000660D02*
X12146578Y-11953041D01*
X12146578Y-11953041D02*
X12146578Y-11914946D01*
X12146578Y-11914946D02*
X12137054Y-11867327D01*
X12137054Y-11867327D02*
X12127531Y-11838755D01*
X12127531Y-11838755D02*
X12118007Y-11819708D01*
X12118007Y-11819708D02*
X12098959Y-11791136D01*
X12098959Y-11791136D02*
X12089435Y-11781612D01*
D13*
X5333420Y-12182700D02*
G75*
G02*
X5223420Y-12182700I-55000J0D01*
G01*
X5223420Y-12182700D02*
G75*
G02*
X5333420Y-12182700I55000J0D01*
G01*
D11*
X5698959Y-12274184D02*
X5584673Y-12274184D01*
X5641816Y-12274184D02*
X5641816Y-12074184D01*
X5641816Y-12074184D02*
X5622768Y-12102755D01*
X5622768Y-12102755D02*
X5603721Y-12121803D01*
X5603721Y-12121803D02*
X5584673Y-12131327D01*
X5784673Y-12255136D02*
X5794197Y-12264660D01*
X5794197Y-12264660D02*
X5784673Y-12274184D01*
X5784673Y-12274184D02*
X5775149Y-12264660D01*
X5775149Y-12264660D02*
X5784673Y-12255136D01*
X5784673Y-12255136D02*
X5784673Y-12274184D01*
X5984673Y-12274184D02*
X5870387Y-12274184D01*
X5927530Y-12274184D02*
X5927530Y-12074184D01*
X5927530Y-12074184D02*
X5908482Y-12102755D01*
X5908482Y-12102755D02*
X5889435Y-12121803D01*
X5889435Y-12121803D02*
X5870387Y-12131327D01*
X6108482Y-12074184D02*
X6127530Y-12074184D01*
X6127530Y-12074184D02*
X6146578Y-12083708D01*
X6146578Y-12083708D02*
X6156102Y-12093231D01*
X6156102Y-12093231D02*
X6165625Y-12112279D01*
X6165625Y-12112279D02*
X6175149Y-12150374D01*
X6175149Y-12150374D02*
X6175149Y-12197993D01*
X6175149Y-12197993D02*
X6165625Y-12236088D01*
X6165625Y-12236088D02*
X6156102Y-12255136D01*
X6156102Y-12255136D02*
X6146578Y-12264660D01*
X6146578Y-12264660D02*
X6127530Y-12274184D01*
X6127530Y-12274184D02*
X6108482Y-12274184D01*
X6108482Y-12274184D02*
X6089435Y-12264660D01*
X6089435Y-12264660D02*
X6079911Y-12255136D01*
X6079911Y-12255136D02*
X6070387Y-12236088D01*
X6070387Y-12236088D02*
X6060863Y-12197993D01*
X6060863Y-12197993D02*
X6060863Y-12150374D01*
X6060863Y-12150374D02*
X6070387Y-12112279D01*
X6070387Y-12112279D02*
X6079911Y-12093231D01*
X6079911Y-12093231D02*
X6089435Y-12083708D01*
X6089435Y-12083708D02*
X6108482Y-12074184D01*
X6298959Y-12074184D02*
X6318006Y-12074184D01*
X6318006Y-12074184D02*
X6337054Y-12083708D01*
X6337054Y-12083708D02*
X6346578Y-12093231D01*
X6346578Y-12093231D02*
X6356102Y-12112279D01*
X6356102Y-12112279D02*
X6365625Y-12150374D01*
X6365625Y-12150374D02*
X6365625Y-12197993D01*
X6365625Y-12197993D02*
X6356102Y-12236088D01*
X6356102Y-12236088D02*
X6346578Y-12255136D01*
X6346578Y-12255136D02*
X6337054Y-12264660D01*
X6337054Y-12264660D02*
X6318006Y-12274184D01*
X6318006Y-12274184D02*
X6298959Y-12274184D01*
X6298959Y-12274184D02*
X6279911Y-12264660D01*
X6279911Y-12264660D02*
X6270387Y-12255136D01*
X6270387Y-12255136D02*
X6260863Y-12236088D01*
X6260863Y-12236088D02*
X6251340Y-12197993D01*
X6251340Y-12197993D02*
X6251340Y-12150374D01*
X6251340Y-12150374D02*
X6260863Y-12112279D01*
X6260863Y-12112279D02*
X6270387Y-12093231D01*
X6270387Y-12093231D02*
X6279911Y-12083708D01*
X6279911Y-12083708D02*
X6298959Y-12074184D01*
X6451340Y-12274184D02*
X6451340Y-12140850D01*
X6451340Y-12159898D02*
X6460863Y-12150374D01*
X6460863Y-12150374D02*
X6479911Y-12140850D01*
X6479911Y-12140850D02*
X6508483Y-12140850D01*
X6508483Y-12140850D02*
X6527530Y-12150374D01*
X6527530Y-12150374D02*
X6537054Y-12169422D01*
X6537054Y-12169422D02*
X6537054Y-12274184D01*
X6537054Y-12169422D02*
X6546578Y-12150374D01*
X6546578Y-12150374D02*
X6565625Y-12140850D01*
X6565625Y-12140850D02*
X6594197Y-12140850D01*
X6594197Y-12140850D02*
X6613244Y-12150374D01*
X6613244Y-12150374D02*
X6622768Y-12169422D01*
X6622768Y-12169422D02*
X6622768Y-12274184D01*
X6718006Y-12274184D02*
X6718006Y-12140850D01*
X6718006Y-12159898D02*
X6727530Y-12150374D01*
X6727530Y-12150374D02*
X6746578Y-12140850D01*
X6746578Y-12140850D02*
X6775149Y-12140850D01*
X6775149Y-12140850D02*
X6794197Y-12150374D01*
X6794197Y-12150374D02*
X6803721Y-12169422D01*
X6803721Y-12169422D02*
X6803721Y-12274184D01*
X6803721Y-12169422D02*
X6813244Y-12150374D01*
X6813244Y-12150374D02*
X6832292Y-12140850D01*
X6832292Y-12140850D02*
X6860863Y-12140850D01*
X6860863Y-12140850D02*
X6879911Y-12150374D01*
X6879911Y-12150374D02*
X6889435Y-12169422D01*
X6889435Y-12169422D02*
X6889435Y-12274184D01*
X7279911Y-12064660D02*
X7108483Y-12321803D01*
X7537054Y-12074184D02*
X7556102Y-12074184D01*
X7556102Y-12074184D02*
X7575149Y-12083708D01*
X7575149Y-12083708D02*
X7584673Y-12093231D01*
X7584673Y-12093231D02*
X7594197Y-12112279D01*
X7594197Y-12112279D02*
X7603721Y-12150374D01*
X7603721Y-12150374D02*
X7603721Y-12197993D01*
X7603721Y-12197993D02*
X7594197Y-12236088D01*
X7594197Y-12236088D02*
X7584673Y-12255136D01*
X7584673Y-12255136D02*
X7575149Y-12264660D01*
X7575149Y-12264660D02*
X7556102Y-12274184D01*
X7556102Y-12274184D02*
X7537054Y-12274184D01*
X7537054Y-12274184D02*
X7518006Y-12264660D01*
X7518006Y-12264660D02*
X7508483Y-12255136D01*
X7508483Y-12255136D02*
X7498959Y-12236088D01*
X7498959Y-12236088D02*
X7489435Y-12197993D01*
X7489435Y-12197993D02*
X7489435Y-12150374D01*
X7489435Y-12150374D02*
X7498959Y-12112279D01*
X7498959Y-12112279D02*
X7508483Y-12093231D01*
X7508483Y-12093231D02*
X7518006Y-12083708D01*
X7518006Y-12083708D02*
X7537054Y-12074184D01*
X7689435Y-12255136D02*
X7698959Y-12264660D01*
X7698959Y-12264660D02*
X7689435Y-12274184D01*
X7689435Y-12274184D02*
X7679911Y-12264660D01*
X7679911Y-12264660D02*
X7689435Y-12255136D01*
X7689435Y-12255136D02*
X7689435Y-12274184D01*
X7822768Y-12074184D02*
X7841816Y-12074184D01*
X7841816Y-12074184D02*
X7860864Y-12083708D01*
X7860864Y-12083708D02*
X7870387Y-12093231D01*
X7870387Y-12093231D02*
X7879911Y-12112279D01*
X7879911Y-12112279D02*
X7889435Y-12150374D01*
X7889435Y-12150374D02*
X7889435Y-12197993D01*
X7889435Y-12197993D02*
X7879911Y-12236088D01*
X7879911Y-12236088D02*
X7870387Y-12255136D01*
X7870387Y-12255136D02*
X7860864Y-12264660D01*
X7860864Y-12264660D02*
X7841816Y-12274184D01*
X7841816Y-12274184D02*
X7822768Y-12274184D01*
X7822768Y-12274184D02*
X7803721Y-12264660D01*
X7803721Y-12264660D02*
X7794197Y-12255136D01*
X7794197Y-12255136D02*
X7784673Y-12236088D01*
X7784673Y-12236088D02*
X7775149Y-12197993D01*
X7775149Y-12197993D02*
X7775149Y-12150374D01*
X7775149Y-12150374D02*
X7784673Y-12112279D01*
X7784673Y-12112279D02*
X7794197Y-12093231D01*
X7794197Y-12093231D02*
X7803721Y-12083708D01*
X7803721Y-12083708D02*
X7822768Y-12074184D01*
X8060864Y-12140850D02*
X8060864Y-12274184D01*
X8013245Y-12064660D02*
X7965626Y-12207517D01*
X7965626Y-12207517D02*
X8089435Y-12207517D01*
X8146578Y-12074184D02*
X8270387Y-12074184D01*
X8270387Y-12074184D02*
X8203721Y-12150374D01*
X8203721Y-12150374D02*
X8232292Y-12150374D01*
X8232292Y-12150374D02*
X8251340Y-12159898D01*
X8251340Y-12159898D02*
X8260864Y-12169422D01*
X8260864Y-12169422D02*
X8270387Y-12188469D01*
X8270387Y-12188469D02*
X8270387Y-12236088D01*
X8270387Y-12236088D02*
X8260864Y-12255136D01*
X8260864Y-12255136D02*
X8251340Y-12264660D01*
X8251340Y-12264660D02*
X8232292Y-12274184D01*
X8232292Y-12274184D02*
X8175149Y-12274184D01*
X8175149Y-12274184D02*
X8156102Y-12264660D01*
X8156102Y-12264660D02*
X8146578Y-12255136D01*
X8337054Y-12074184D02*
X8460864Y-12074184D01*
X8460864Y-12074184D02*
X8394197Y-12150374D01*
X8394197Y-12150374D02*
X8422769Y-12150374D01*
X8422769Y-12150374D02*
X8441816Y-12159898D01*
X8441816Y-12159898D02*
X8451340Y-12169422D01*
X8451340Y-12169422D02*
X8460864Y-12188469D01*
X8460864Y-12188469D02*
X8460864Y-12236088D01*
X8460864Y-12236088D02*
X8451340Y-12255136D01*
X8451340Y-12255136D02*
X8441816Y-12264660D01*
X8441816Y-12264660D02*
X8422769Y-12274184D01*
X8422769Y-12274184D02*
X8365626Y-12274184D01*
X8365626Y-12274184D02*
X8346578Y-12264660D01*
X8346578Y-12264660D02*
X8337054Y-12255136D01*
X8537054Y-12074184D02*
X8537054Y-12112279D01*
X8613245Y-12074184D02*
X8613245Y-12112279D01*
X8908483Y-12350374D02*
X8898959Y-12340850D01*
X8898959Y-12340850D02*
X8879911Y-12312279D01*
X8879911Y-12312279D02*
X8870388Y-12293231D01*
X8870388Y-12293231D02*
X8860864Y-12264660D01*
X8860864Y-12264660D02*
X8851340Y-12217041D01*
X8851340Y-12217041D02*
X8851340Y-12178946D01*
X8851340Y-12178946D02*
X8860864Y-12131327D01*
X8860864Y-12131327D02*
X8870388Y-12102755D01*
X8870388Y-12102755D02*
X8879911Y-12083708D01*
X8879911Y-12083708D02*
X8898959Y-12055136D01*
X8898959Y-12055136D02*
X8908483Y-12045612D01*
X9089435Y-12274184D02*
X8975150Y-12274184D01*
X9032292Y-12274184D02*
X9032292Y-12074184D01*
X9032292Y-12074184D02*
X9013245Y-12102755D01*
X9013245Y-12102755D02*
X8994197Y-12121803D01*
X8994197Y-12121803D02*
X8975150Y-12131327D01*
X9327531Y-12274184D02*
X9327531Y-12074184D01*
X9413245Y-12274184D02*
X9413245Y-12169422D01*
X9413245Y-12169422D02*
X9403721Y-12150374D01*
X9403721Y-12150374D02*
X9384673Y-12140850D01*
X9384673Y-12140850D02*
X9356102Y-12140850D01*
X9356102Y-12140850D02*
X9337054Y-12150374D01*
X9337054Y-12150374D02*
X9327531Y-12159898D01*
X9537054Y-12274184D02*
X9518007Y-12264660D01*
X9518007Y-12264660D02*
X9508483Y-12255136D01*
X9508483Y-12255136D02*
X9498959Y-12236088D01*
X9498959Y-12236088D02*
X9498959Y-12178946D01*
X9498959Y-12178946D02*
X9508483Y-12159898D01*
X9508483Y-12159898D02*
X9518007Y-12150374D01*
X9518007Y-12150374D02*
X9537054Y-12140850D01*
X9537054Y-12140850D02*
X9565626Y-12140850D01*
X9565626Y-12140850D02*
X9584673Y-12150374D01*
X9584673Y-12150374D02*
X9594197Y-12159898D01*
X9594197Y-12159898D02*
X9603721Y-12178946D01*
X9603721Y-12178946D02*
X9603721Y-12236088D01*
X9603721Y-12236088D02*
X9594197Y-12255136D01*
X9594197Y-12255136D02*
X9584673Y-12264660D01*
X9584673Y-12264660D02*
X9565626Y-12274184D01*
X9565626Y-12274184D02*
X9537054Y-12274184D01*
X9718007Y-12274184D02*
X9698959Y-12264660D01*
X9698959Y-12264660D02*
X9689435Y-12245612D01*
X9689435Y-12245612D02*
X9689435Y-12074184D01*
X9870388Y-12264660D02*
X9851340Y-12274184D01*
X9851340Y-12274184D02*
X9813245Y-12274184D01*
X9813245Y-12274184D02*
X9794197Y-12264660D01*
X9794197Y-12264660D02*
X9784673Y-12245612D01*
X9784673Y-12245612D02*
X9784673Y-12169422D01*
X9784673Y-12169422D02*
X9794197Y-12150374D01*
X9794197Y-12150374D02*
X9813245Y-12140850D01*
X9813245Y-12140850D02*
X9851340Y-12140850D01*
X9851340Y-12140850D02*
X9870388Y-12150374D01*
X9870388Y-12150374D02*
X9879912Y-12169422D01*
X9879912Y-12169422D02*
X9879912Y-12188469D01*
X9879912Y-12188469D02*
X9784673Y-12207517D01*
X9946578Y-12350374D02*
X9956102Y-12340850D01*
X9956102Y-12340850D02*
X9975150Y-12312279D01*
X9975150Y-12312279D02*
X9984673Y-12293231D01*
X9984673Y-12293231D02*
X9994197Y-12264660D01*
X9994197Y-12264660D02*
X10003721Y-12217041D01*
X10003721Y-12217041D02*
X10003721Y-12178946D01*
X10003721Y-12178946D02*
X9994197Y-12131327D01*
X9994197Y-12131327D02*
X9984673Y-12102755D01*
X9984673Y-12102755D02*
X9975150Y-12083708D01*
X9975150Y-12083708D02*
X9956102Y-12055136D01*
X9956102Y-12055136D02*
X9946578Y-12045612D01*
X10308483Y-12350374D02*
X10298959Y-12340850D01*
X10298959Y-12340850D02*
X10279912Y-12312279D01*
X10279912Y-12312279D02*
X10270388Y-12293231D01*
X10270388Y-12293231D02*
X10260864Y-12264660D01*
X10260864Y-12264660D02*
X10251340Y-12217041D01*
X10251340Y-12217041D02*
X10251340Y-12178946D01*
X10251340Y-12178946D02*
X10260864Y-12131327D01*
X10260864Y-12131327D02*
X10270388Y-12102755D01*
X10270388Y-12102755D02*
X10279912Y-12083708D01*
X10279912Y-12083708D02*
X10298959Y-12055136D01*
X10298959Y-12055136D02*
X10308483Y-12045612D01*
X10384673Y-12140850D02*
X10384673Y-12274184D01*
X10384673Y-12159898D02*
X10394197Y-12150374D01*
X10394197Y-12150374D02*
X10413245Y-12140850D01*
X10413245Y-12140850D02*
X10441816Y-12140850D01*
X10441816Y-12140850D02*
X10460864Y-12150374D01*
X10460864Y-12150374D02*
X10470388Y-12169422D01*
X10470388Y-12169422D02*
X10470388Y-12274184D01*
X10594197Y-12274184D02*
X10575150Y-12264660D01*
X10575150Y-12264660D02*
X10565626Y-12255136D01*
X10565626Y-12255136D02*
X10556102Y-12236088D01*
X10556102Y-12236088D02*
X10556102Y-12178946D01*
X10556102Y-12178946D02*
X10565626Y-12159898D01*
X10565626Y-12159898D02*
X10575150Y-12150374D01*
X10575150Y-12150374D02*
X10594197Y-12140850D01*
X10594197Y-12140850D02*
X10622769Y-12140850D01*
X10622769Y-12140850D02*
X10641816Y-12150374D01*
X10641816Y-12150374D02*
X10651340Y-12159898D01*
X10651340Y-12159898D02*
X10660864Y-12178946D01*
X10660864Y-12178946D02*
X10660864Y-12236088D01*
X10660864Y-12236088D02*
X10651340Y-12255136D01*
X10651340Y-12255136D02*
X10641816Y-12264660D01*
X10641816Y-12264660D02*
X10622769Y-12274184D01*
X10622769Y-12274184D02*
X10594197Y-12274184D01*
X10718007Y-12140850D02*
X10794197Y-12140850D01*
X10746578Y-12074184D02*
X10746578Y-12245612D01*
X10746578Y-12245612D02*
X10756102Y-12264660D01*
X10756102Y-12264660D02*
X10775150Y-12274184D01*
X10775150Y-12274184D02*
X10794197Y-12274184D01*
X11013245Y-12140850D02*
X11013245Y-12340850D01*
X11013245Y-12150374D02*
X11032293Y-12140850D01*
X11032293Y-12140850D02*
X11070388Y-12140850D01*
X11070388Y-12140850D02*
X11089435Y-12150374D01*
X11089435Y-12150374D02*
X11098959Y-12159898D01*
X11098959Y-12159898D02*
X11108483Y-12178946D01*
X11108483Y-12178946D02*
X11108483Y-12236088D01*
X11108483Y-12236088D02*
X11098959Y-12255136D01*
X11098959Y-12255136D02*
X11089435Y-12264660D01*
X11089435Y-12264660D02*
X11070388Y-12274184D01*
X11070388Y-12274184D02*
X11032293Y-12274184D01*
X11032293Y-12274184D02*
X11013245Y-12264660D01*
X11222769Y-12274184D02*
X11203721Y-12264660D01*
X11203721Y-12264660D02*
X11194197Y-12245612D01*
X11194197Y-12245612D02*
X11194197Y-12074184D01*
X11384673Y-12274184D02*
X11384673Y-12169422D01*
X11384673Y-12169422D02*
X11375150Y-12150374D01*
X11375150Y-12150374D02*
X11356102Y-12140850D01*
X11356102Y-12140850D02*
X11318007Y-12140850D01*
X11318007Y-12140850D02*
X11298959Y-12150374D01*
X11384673Y-12264660D02*
X11365626Y-12274184D01*
X11365626Y-12274184D02*
X11318007Y-12274184D01*
X11318007Y-12274184D02*
X11298959Y-12264660D01*
X11298959Y-12264660D02*
X11289435Y-12245612D01*
X11289435Y-12245612D02*
X11289435Y-12226565D01*
X11289435Y-12226565D02*
X11298959Y-12207517D01*
X11298959Y-12207517D02*
X11318007Y-12197993D01*
X11318007Y-12197993D02*
X11365626Y-12197993D01*
X11365626Y-12197993D02*
X11384673Y-12188469D01*
X11451340Y-12140850D02*
X11527531Y-12140850D01*
X11479912Y-12074184D02*
X11479912Y-12245612D01*
X11479912Y-12245612D02*
X11489435Y-12264660D01*
X11489435Y-12264660D02*
X11508483Y-12274184D01*
X11508483Y-12274184D02*
X11527531Y-12274184D01*
X11670388Y-12264660D02*
X11651340Y-12274184D01*
X11651340Y-12274184D02*
X11613245Y-12274184D01*
X11613245Y-12274184D02*
X11594197Y-12264660D01*
X11594197Y-12264660D02*
X11584673Y-12245612D01*
X11584673Y-12245612D02*
X11584673Y-12169422D01*
X11584673Y-12169422D02*
X11594197Y-12150374D01*
X11594197Y-12150374D02*
X11613245Y-12140850D01*
X11613245Y-12140850D02*
X11651340Y-12140850D01*
X11651340Y-12140850D02*
X11670388Y-12150374D01*
X11670388Y-12150374D02*
X11679912Y-12169422D01*
X11679912Y-12169422D02*
X11679912Y-12188469D01*
X11679912Y-12188469D02*
X11584673Y-12207517D01*
X11851340Y-12274184D02*
X11851340Y-12074184D01*
X11851340Y-12264660D02*
X11832293Y-12274184D01*
X11832293Y-12274184D02*
X11794197Y-12274184D01*
X11794197Y-12274184D02*
X11775150Y-12264660D01*
X11775150Y-12264660D02*
X11765626Y-12255136D01*
X11765626Y-12255136D02*
X11756102Y-12236088D01*
X11756102Y-12236088D02*
X11756102Y-12178946D01*
X11756102Y-12178946D02*
X11765626Y-12159898D01*
X11765626Y-12159898D02*
X11775150Y-12150374D01*
X11775150Y-12150374D02*
X11794197Y-12140850D01*
X11794197Y-12140850D02*
X11832293Y-12140850D01*
X11832293Y-12140850D02*
X11851340Y-12150374D01*
X11927531Y-12350374D02*
X11937054Y-12340850D01*
X11937054Y-12340850D02*
X11956102Y-12312279D01*
X11956102Y-12312279D02*
X11965626Y-12293231D01*
X11965626Y-12293231D02*
X11975150Y-12264660D01*
X11975150Y-12264660D02*
X11984673Y-12217041D01*
X11984673Y-12217041D02*
X11984673Y-12178946D01*
X11984673Y-12178946D02*
X11975150Y-12131327D01*
X11975150Y-12131327D02*
X11965626Y-12102755D01*
X11965626Y-12102755D02*
X11956102Y-12083708D01*
X11956102Y-12083708D02*
X11937054Y-12055136D01*
X11937054Y-12055136D02*
X11927531Y-12045612D01*
D14*
X5273420Y-12386700D02*
X5273420Y-12506700D01*
X5213420Y-12446700D02*
X5333420Y-12446700D01*
D11*
X5698959Y-12538184D02*
X5584673Y-12538184D01*
X5641816Y-12538184D02*
X5641816Y-12338184D01*
X5641816Y-12338184D02*
X5622768Y-12366755D01*
X5622768Y-12366755D02*
X5603721Y-12385803D01*
X5603721Y-12385803D02*
X5584673Y-12395327D01*
X5784673Y-12519136D02*
X5794197Y-12528660D01*
X5794197Y-12528660D02*
X5784673Y-12538184D01*
X5784673Y-12538184D02*
X5775149Y-12528660D01*
X5775149Y-12528660D02*
X5784673Y-12519136D01*
X5784673Y-12519136D02*
X5784673Y-12538184D01*
X5870387Y-12357231D02*
X5879911Y-12347708D01*
X5879911Y-12347708D02*
X5898959Y-12338184D01*
X5898959Y-12338184D02*
X5946578Y-12338184D01*
X5946578Y-12338184D02*
X5965625Y-12347708D01*
X5965625Y-12347708D02*
X5975149Y-12357231D01*
X5975149Y-12357231D02*
X5984673Y-12376279D01*
X5984673Y-12376279D02*
X5984673Y-12395327D01*
X5984673Y-12395327D02*
X5975149Y-12423898D01*
X5975149Y-12423898D02*
X5860863Y-12538184D01*
X5860863Y-12538184D02*
X5984673Y-12538184D01*
X6108482Y-12338184D02*
X6127530Y-12338184D01*
X6127530Y-12338184D02*
X6146578Y-12347708D01*
X6146578Y-12347708D02*
X6156102Y-12357231D01*
X6156102Y-12357231D02*
X6165625Y-12376279D01*
X6165625Y-12376279D02*
X6175149Y-12414374D01*
X6175149Y-12414374D02*
X6175149Y-12461993D01*
X6175149Y-12461993D02*
X6165625Y-12500088D01*
X6165625Y-12500088D02*
X6156102Y-12519136D01*
X6156102Y-12519136D02*
X6146578Y-12528660D01*
X6146578Y-12528660D02*
X6127530Y-12538184D01*
X6127530Y-12538184D02*
X6108482Y-12538184D01*
X6108482Y-12538184D02*
X6089435Y-12528660D01*
X6089435Y-12528660D02*
X6079911Y-12519136D01*
X6079911Y-12519136D02*
X6070387Y-12500088D01*
X6070387Y-12500088D02*
X6060863Y-12461993D01*
X6060863Y-12461993D02*
X6060863Y-12414374D01*
X6060863Y-12414374D02*
X6070387Y-12376279D01*
X6070387Y-12376279D02*
X6079911Y-12357231D01*
X6079911Y-12357231D02*
X6089435Y-12347708D01*
X6089435Y-12347708D02*
X6108482Y-12338184D01*
X6298959Y-12338184D02*
X6318006Y-12338184D01*
X6318006Y-12338184D02*
X6337054Y-12347708D01*
X6337054Y-12347708D02*
X6346578Y-12357231D01*
X6346578Y-12357231D02*
X6356102Y-12376279D01*
X6356102Y-12376279D02*
X6365625Y-12414374D01*
X6365625Y-12414374D02*
X6365625Y-12461993D01*
X6365625Y-12461993D02*
X6356102Y-12500088D01*
X6356102Y-12500088D02*
X6346578Y-12519136D01*
X6346578Y-12519136D02*
X6337054Y-12528660D01*
X6337054Y-12528660D02*
X6318006Y-12538184D01*
X6318006Y-12538184D02*
X6298959Y-12538184D01*
X6298959Y-12538184D02*
X6279911Y-12528660D01*
X6279911Y-12528660D02*
X6270387Y-12519136D01*
X6270387Y-12519136D02*
X6260863Y-12500088D01*
X6260863Y-12500088D02*
X6251340Y-12461993D01*
X6251340Y-12461993D02*
X6251340Y-12414374D01*
X6251340Y-12414374D02*
X6260863Y-12376279D01*
X6260863Y-12376279D02*
X6270387Y-12357231D01*
X6270387Y-12357231D02*
X6279911Y-12347708D01*
X6279911Y-12347708D02*
X6298959Y-12338184D01*
X6451340Y-12538184D02*
X6451340Y-12404850D01*
X6451340Y-12423898D02*
X6460863Y-12414374D01*
X6460863Y-12414374D02*
X6479911Y-12404850D01*
X6479911Y-12404850D02*
X6508483Y-12404850D01*
X6508483Y-12404850D02*
X6527530Y-12414374D01*
X6527530Y-12414374D02*
X6537054Y-12433422D01*
X6537054Y-12433422D02*
X6537054Y-12538184D01*
X6537054Y-12433422D02*
X6546578Y-12414374D01*
X6546578Y-12414374D02*
X6565625Y-12404850D01*
X6565625Y-12404850D02*
X6594197Y-12404850D01*
X6594197Y-12404850D02*
X6613244Y-12414374D01*
X6613244Y-12414374D02*
X6622768Y-12433422D01*
X6622768Y-12433422D02*
X6622768Y-12538184D01*
X6718006Y-12538184D02*
X6718006Y-12404850D01*
X6718006Y-12423898D02*
X6727530Y-12414374D01*
X6727530Y-12414374D02*
X6746578Y-12404850D01*
X6746578Y-12404850D02*
X6775149Y-12404850D01*
X6775149Y-12404850D02*
X6794197Y-12414374D01*
X6794197Y-12414374D02*
X6803721Y-12433422D01*
X6803721Y-12433422D02*
X6803721Y-12538184D01*
X6803721Y-12433422D02*
X6813244Y-12414374D01*
X6813244Y-12414374D02*
X6832292Y-12404850D01*
X6832292Y-12404850D02*
X6860863Y-12404850D01*
X6860863Y-12404850D02*
X6879911Y-12414374D01*
X6879911Y-12414374D02*
X6889435Y-12433422D01*
X6889435Y-12433422D02*
X6889435Y-12538184D01*
X7279911Y-12328660D02*
X7108483Y-12585803D01*
X7537054Y-12338184D02*
X7556102Y-12338184D01*
X7556102Y-12338184D02*
X7575149Y-12347708D01*
X7575149Y-12347708D02*
X7584673Y-12357231D01*
X7584673Y-12357231D02*
X7594197Y-12376279D01*
X7594197Y-12376279D02*
X7603721Y-12414374D01*
X7603721Y-12414374D02*
X7603721Y-12461993D01*
X7603721Y-12461993D02*
X7594197Y-12500088D01*
X7594197Y-12500088D02*
X7584673Y-12519136D01*
X7584673Y-12519136D02*
X7575149Y-12528660D01*
X7575149Y-12528660D02*
X7556102Y-12538184D01*
X7556102Y-12538184D02*
X7537054Y-12538184D01*
X7537054Y-12538184D02*
X7518006Y-12528660D01*
X7518006Y-12528660D02*
X7508483Y-12519136D01*
X7508483Y-12519136D02*
X7498959Y-12500088D01*
X7498959Y-12500088D02*
X7489435Y-12461993D01*
X7489435Y-12461993D02*
X7489435Y-12414374D01*
X7489435Y-12414374D02*
X7498959Y-12376279D01*
X7498959Y-12376279D02*
X7508483Y-12357231D01*
X7508483Y-12357231D02*
X7518006Y-12347708D01*
X7518006Y-12347708D02*
X7537054Y-12338184D01*
X7689435Y-12519136D02*
X7698959Y-12528660D01*
X7698959Y-12528660D02*
X7689435Y-12538184D01*
X7689435Y-12538184D02*
X7679911Y-12528660D01*
X7679911Y-12528660D02*
X7689435Y-12519136D01*
X7689435Y-12519136D02*
X7689435Y-12538184D01*
X7822768Y-12338184D02*
X7841816Y-12338184D01*
X7841816Y-12338184D02*
X7860864Y-12347708D01*
X7860864Y-12347708D02*
X7870387Y-12357231D01*
X7870387Y-12357231D02*
X7879911Y-12376279D01*
X7879911Y-12376279D02*
X7889435Y-12414374D01*
X7889435Y-12414374D02*
X7889435Y-12461993D01*
X7889435Y-12461993D02*
X7879911Y-12500088D01*
X7879911Y-12500088D02*
X7870387Y-12519136D01*
X7870387Y-12519136D02*
X7860864Y-12528660D01*
X7860864Y-12528660D02*
X7841816Y-12538184D01*
X7841816Y-12538184D02*
X7822768Y-12538184D01*
X7822768Y-12538184D02*
X7803721Y-12528660D01*
X7803721Y-12528660D02*
X7794197Y-12519136D01*
X7794197Y-12519136D02*
X7784673Y-12500088D01*
X7784673Y-12500088D02*
X7775149Y-12461993D01*
X7775149Y-12461993D02*
X7775149Y-12414374D01*
X7775149Y-12414374D02*
X7784673Y-12376279D01*
X7784673Y-12376279D02*
X7794197Y-12357231D01*
X7794197Y-12357231D02*
X7803721Y-12347708D01*
X7803721Y-12347708D02*
X7822768Y-12338184D01*
X8060864Y-12404850D02*
X8060864Y-12538184D01*
X8013245Y-12328660D02*
X7965626Y-12471517D01*
X7965626Y-12471517D02*
X8089435Y-12471517D01*
X8146578Y-12338184D02*
X8279911Y-12338184D01*
X8279911Y-12338184D02*
X8194197Y-12538184D01*
X8346578Y-12357231D02*
X8356102Y-12347708D01*
X8356102Y-12347708D02*
X8375149Y-12338184D01*
X8375149Y-12338184D02*
X8422769Y-12338184D01*
X8422769Y-12338184D02*
X8441816Y-12347708D01*
X8441816Y-12347708D02*
X8451340Y-12357231D01*
X8451340Y-12357231D02*
X8460864Y-12376279D01*
X8460864Y-12376279D02*
X8460864Y-12395327D01*
X8460864Y-12395327D02*
X8451340Y-12423898D01*
X8451340Y-12423898D02*
X8337054Y-12538184D01*
X8337054Y-12538184D02*
X8460864Y-12538184D01*
X8537054Y-12338184D02*
X8537054Y-12376279D01*
X8613245Y-12338184D02*
X8613245Y-12376279D01*
X8908483Y-12614374D02*
X8898959Y-12604850D01*
X8898959Y-12604850D02*
X8879911Y-12576279D01*
X8879911Y-12576279D02*
X8870388Y-12557231D01*
X8870388Y-12557231D02*
X8860864Y-12528660D01*
X8860864Y-12528660D02*
X8851340Y-12481041D01*
X8851340Y-12481041D02*
X8851340Y-12442946D01*
X8851340Y-12442946D02*
X8860864Y-12395327D01*
X8860864Y-12395327D02*
X8870388Y-12366755D01*
X8870388Y-12366755D02*
X8879911Y-12347708D01*
X8879911Y-12347708D02*
X8898959Y-12319136D01*
X8898959Y-12319136D02*
X8908483Y-12309612D01*
X9089435Y-12538184D02*
X8975150Y-12538184D01*
X9032292Y-12538184D02*
X9032292Y-12338184D01*
X9032292Y-12338184D02*
X9013245Y-12366755D01*
X9013245Y-12366755D02*
X8994197Y-12385803D01*
X8994197Y-12385803D02*
X8975150Y-12395327D01*
X9327531Y-12538184D02*
X9327531Y-12338184D01*
X9413245Y-12538184D02*
X9413245Y-12433422D01*
X9413245Y-12433422D02*
X9403721Y-12414374D01*
X9403721Y-12414374D02*
X9384673Y-12404850D01*
X9384673Y-12404850D02*
X9356102Y-12404850D01*
X9356102Y-12404850D02*
X9337054Y-12414374D01*
X9337054Y-12414374D02*
X9327531Y-12423898D01*
X9537054Y-12538184D02*
X9518007Y-12528660D01*
X9518007Y-12528660D02*
X9508483Y-12519136D01*
X9508483Y-12519136D02*
X9498959Y-12500088D01*
X9498959Y-12500088D02*
X9498959Y-12442946D01*
X9498959Y-12442946D02*
X9508483Y-12423898D01*
X9508483Y-12423898D02*
X9518007Y-12414374D01*
X9518007Y-12414374D02*
X9537054Y-12404850D01*
X9537054Y-12404850D02*
X9565626Y-12404850D01*
X9565626Y-12404850D02*
X9584673Y-12414374D01*
X9584673Y-12414374D02*
X9594197Y-12423898D01*
X9594197Y-12423898D02*
X9603721Y-12442946D01*
X9603721Y-12442946D02*
X9603721Y-12500088D01*
X9603721Y-12500088D02*
X9594197Y-12519136D01*
X9594197Y-12519136D02*
X9584673Y-12528660D01*
X9584673Y-12528660D02*
X9565626Y-12538184D01*
X9565626Y-12538184D02*
X9537054Y-12538184D01*
X9718007Y-12538184D02*
X9698959Y-12528660D01*
X9698959Y-12528660D02*
X9689435Y-12509612D01*
X9689435Y-12509612D02*
X9689435Y-12338184D01*
X9870388Y-12528660D02*
X9851340Y-12538184D01*
X9851340Y-12538184D02*
X9813245Y-12538184D01*
X9813245Y-12538184D02*
X9794197Y-12528660D01*
X9794197Y-12528660D02*
X9784673Y-12509612D01*
X9784673Y-12509612D02*
X9784673Y-12433422D01*
X9784673Y-12433422D02*
X9794197Y-12414374D01*
X9794197Y-12414374D02*
X9813245Y-12404850D01*
X9813245Y-12404850D02*
X9851340Y-12404850D01*
X9851340Y-12404850D02*
X9870388Y-12414374D01*
X9870388Y-12414374D02*
X9879912Y-12433422D01*
X9879912Y-12433422D02*
X9879912Y-12452469D01*
X9879912Y-12452469D02*
X9784673Y-12471517D01*
X9946578Y-12614374D02*
X9956102Y-12604850D01*
X9956102Y-12604850D02*
X9975150Y-12576279D01*
X9975150Y-12576279D02*
X9984673Y-12557231D01*
X9984673Y-12557231D02*
X9994197Y-12528660D01*
X9994197Y-12528660D02*
X10003721Y-12481041D01*
X10003721Y-12481041D02*
X10003721Y-12442946D01*
X10003721Y-12442946D02*
X9994197Y-12395327D01*
X9994197Y-12395327D02*
X9984673Y-12366755D01*
X9984673Y-12366755D02*
X9975150Y-12347708D01*
X9975150Y-12347708D02*
X9956102Y-12319136D01*
X9956102Y-12319136D02*
X9946578Y-12309612D01*
X10308483Y-12614374D02*
X10298959Y-12604850D01*
X10298959Y-12604850D02*
X10279912Y-12576279D01*
X10279912Y-12576279D02*
X10270388Y-12557231D01*
X10270388Y-12557231D02*
X10260864Y-12528660D01*
X10260864Y-12528660D02*
X10251340Y-12481041D01*
X10251340Y-12481041D02*
X10251340Y-12442946D01*
X10251340Y-12442946D02*
X10260864Y-12395327D01*
X10260864Y-12395327D02*
X10270388Y-12366755D01*
X10270388Y-12366755D02*
X10279912Y-12347708D01*
X10279912Y-12347708D02*
X10298959Y-12319136D01*
X10298959Y-12319136D02*
X10308483Y-12309612D01*
X10384673Y-12404850D02*
X10384673Y-12538184D01*
X10384673Y-12423898D02*
X10394197Y-12414374D01*
X10394197Y-12414374D02*
X10413245Y-12404850D01*
X10413245Y-12404850D02*
X10441816Y-12404850D01*
X10441816Y-12404850D02*
X10460864Y-12414374D01*
X10460864Y-12414374D02*
X10470388Y-12433422D01*
X10470388Y-12433422D02*
X10470388Y-12538184D01*
X10594197Y-12538184D02*
X10575150Y-12528660D01*
X10575150Y-12528660D02*
X10565626Y-12519136D01*
X10565626Y-12519136D02*
X10556102Y-12500088D01*
X10556102Y-12500088D02*
X10556102Y-12442946D01*
X10556102Y-12442946D02*
X10565626Y-12423898D01*
X10565626Y-12423898D02*
X10575150Y-12414374D01*
X10575150Y-12414374D02*
X10594197Y-12404850D01*
X10594197Y-12404850D02*
X10622769Y-12404850D01*
X10622769Y-12404850D02*
X10641816Y-12414374D01*
X10641816Y-12414374D02*
X10651340Y-12423898D01*
X10651340Y-12423898D02*
X10660864Y-12442946D01*
X10660864Y-12442946D02*
X10660864Y-12500088D01*
X10660864Y-12500088D02*
X10651340Y-12519136D01*
X10651340Y-12519136D02*
X10641816Y-12528660D01*
X10641816Y-12528660D02*
X10622769Y-12538184D01*
X10622769Y-12538184D02*
X10594197Y-12538184D01*
X10718007Y-12404850D02*
X10794197Y-12404850D01*
X10746578Y-12338184D02*
X10746578Y-12509612D01*
X10746578Y-12509612D02*
X10756102Y-12528660D01*
X10756102Y-12528660D02*
X10775150Y-12538184D01*
X10775150Y-12538184D02*
X10794197Y-12538184D01*
X11013245Y-12404850D02*
X11013245Y-12604850D01*
X11013245Y-12414374D02*
X11032293Y-12404850D01*
X11032293Y-12404850D02*
X11070388Y-12404850D01*
X11070388Y-12404850D02*
X11089435Y-12414374D01*
X11089435Y-12414374D02*
X11098959Y-12423898D01*
X11098959Y-12423898D02*
X11108483Y-12442946D01*
X11108483Y-12442946D02*
X11108483Y-12500088D01*
X11108483Y-12500088D02*
X11098959Y-12519136D01*
X11098959Y-12519136D02*
X11089435Y-12528660D01*
X11089435Y-12528660D02*
X11070388Y-12538184D01*
X11070388Y-12538184D02*
X11032293Y-12538184D01*
X11032293Y-12538184D02*
X11013245Y-12528660D01*
X11222769Y-12538184D02*
X11203721Y-12528660D01*
X11203721Y-12528660D02*
X11194197Y-12509612D01*
X11194197Y-12509612D02*
X11194197Y-12338184D01*
X11384673Y-12538184D02*
X11384673Y-12433422D01*
X11384673Y-12433422D02*
X11375150Y-12414374D01*
X11375150Y-12414374D02*
X11356102Y-12404850D01*
X11356102Y-12404850D02*
X11318007Y-12404850D01*
X11318007Y-12404850D02*
X11298959Y-12414374D01*
X11384673Y-12528660D02*
X11365626Y-12538184D01*
X11365626Y-12538184D02*
X11318007Y-12538184D01*
X11318007Y-12538184D02*
X11298959Y-12528660D01*
X11298959Y-12528660D02*
X11289435Y-12509612D01*
X11289435Y-12509612D02*
X11289435Y-12490565D01*
X11289435Y-12490565D02*
X11298959Y-12471517D01*
X11298959Y-12471517D02*
X11318007Y-12461993D01*
X11318007Y-12461993D02*
X11365626Y-12461993D01*
X11365626Y-12461993D02*
X11384673Y-12452469D01*
X11451340Y-12404850D02*
X11527531Y-12404850D01*
X11479912Y-12338184D02*
X11479912Y-12509612D01*
X11479912Y-12509612D02*
X11489435Y-12528660D01*
X11489435Y-12528660D02*
X11508483Y-12538184D01*
X11508483Y-12538184D02*
X11527531Y-12538184D01*
X11670388Y-12528660D02*
X11651340Y-12538184D01*
X11651340Y-12538184D02*
X11613245Y-12538184D01*
X11613245Y-12538184D02*
X11594197Y-12528660D01*
X11594197Y-12528660D02*
X11584673Y-12509612D01*
X11584673Y-12509612D02*
X11584673Y-12433422D01*
X11584673Y-12433422D02*
X11594197Y-12414374D01*
X11594197Y-12414374D02*
X11613245Y-12404850D01*
X11613245Y-12404850D02*
X11651340Y-12404850D01*
X11651340Y-12404850D02*
X11670388Y-12414374D01*
X11670388Y-12414374D02*
X11679912Y-12433422D01*
X11679912Y-12433422D02*
X11679912Y-12452469D01*
X11679912Y-12452469D02*
X11584673Y-12471517D01*
X11851340Y-12538184D02*
X11851340Y-12338184D01*
X11851340Y-12528660D02*
X11832293Y-12538184D01*
X11832293Y-12538184D02*
X11794197Y-12538184D01*
X11794197Y-12538184D02*
X11775150Y-12528660D01*
X11775150Y-12528660D02*
X11765626Y-12519136D01*
X11765626Y-12519136D02*
X11756102Y-12500088D01*
X11756102Y-12500088D02*
X11756102Y-12442946D01*
X11756102Y-12442946D02*
X11765626Y-12423898D01*
X11765626Y-12423898D02*
X11775150Y-12414374D01*
X11775150Y-12414374D02*
X11794197Y-12404850D01*
X11794197Y-12404850D02*
X11832293Y-12404850D01*
X11832293Y-12404850D02*
X11851340Y-12414374D01*
X11927531Y-12614374D02*
X11937054Y-12604850D01*
X11937054Y-12604850D02*
X11956102Y-12576279D01*
X11956102Y-12576279D02*
X11965626Y-12557231D01*
X11965626Y-12557231D02*
X11975150Y-12528660D01*
X11975150Y-12528660D02*
X11984673Y-12481041D01*
X11984673Y-12481041D02*
X11984673Y-12442946D01*
X11984673Y-12442946D02*
X11975150Y-12395327D01*
X11975150Y-12395327D02*
X11965626Y-12366755D01*
X11965626Y-12366755D02*
X11956102Y-12347708D01*
X11956102Y-12347708D02*
X11937054Y-12319136D01*
X11937054Y-12319136D02*
X11927531Y-12309612D01*
M02*
