G04 #@! TF.GenerationSoftware,KiCad,Pcbnew,9.0.5*
G04 #@! TF.CreationDate,2025-10-23T19:13:01+02:00*
G04 #@! TF.ProjectId,main-board,6d61696e-2d62-46f6-9172-642e6b696361,1.0a*
G04 #@! TF.SameCoordinates,Original*
G04 #@! TF.FileFunction,Paste,Bot*
G04 #@! TF.FilePolarity,Positive*
%FSLAX46Y46*%
G04 Gerber Fmt 4.6, Leading zero omitted, Abs format (unit mm)*
G04 Created by KiCad (PCBNEW 9.0.5) date 2025-10-23 19:13:01*
%MOMM*%
%LPD*%
G01*
G04 APERTURE LIST*
G04 Aperture macros list*
%AMRoundRect*
0 Rectangle with rounded corners*
0 $1 Rounding radius*
0 $2 $3 $4 $5 $6 $7 $8 $9 X,Y pos of 4 corners*
0 Add a 4 corners polygon primitive as box body*
4,1,4,$2,$3,$4,$5,$6,$7,$8,$9,$2,$3,0*
0 Add four circle primitives for the rounded corners*
1,1,$1+$1,$2,$3*
1,1,$1+$1,$4,$5*
1,1,$1+$1,$6,$7*
1,1,$1+$1,$8,$9*
0 Add four rect primitives between the rounded corners*
20,1,$1+$1,$2,$3,$4,$5,0*
20,1,$1+$1,$4,$5,$6,$7,0*
20,1,$1+$1,$6,$7,$8,$9,0*
20,1,$1+$1,$8,$9,$2,$3,0*%
G04 Aperture macros list end*
%ADD10RoundRect,0.250000X-0.337500X-0.475000X0.337500X-0.475000X0.337500X0.475000X-0.337500X0.475000X0*%
%ADD11RoundRect,0.250000X0.475000X-0.337500X0.475000X0.337500X-0.475000X0.337500X-0.475000X-0.337500X0*%
%ADD12RoundRect,0.250000X0.337500X0.475000X-0.337500X0.475000X-0.337500X-0.475000X0.337500X-0.475000X0*%
%ADD13RoundRect,0.250000X-0.475000X0.337500X-0.475000X-0.337500X0.475000X-0.337500X0.475000X0.337500X0*%
%ADD14RoundRect,0.250000X0.450000X-0.325000X0.450000X0.325000X-0.450000X0.325000X-0.450000X-0.325000X0*%
%ADD15RoundRect,0.250000X-0.650000X0.412500X-0.650000X-0.412500X0.650000X-0.412500X0.650000X0.412500X0*%
G04 APERTURE END LIST*
D10*
X46032000Y-59399200D03*
X48107000Y-59399200D03*
X84218000Y-53176200D03*
X86293000Y-53176200D03*
D11*
X89806000Y-59526200D03*
X89806000Y-57451200D03*
D10*
X84218000Y-59399200D03*
X86293000Y-59399200D03*
X84048000Y-42254200D03*
X86123000Y-42254200D03*
D12*
X101998000Y-59399200D03*
X99923000Y-59399200D03*
D10*
X41354500Y-84926200D03*
X43429500Y-84926200D03*
D13*
X57505000Y-51736200D03*
X57505000Y-53811200D03*
D10*
X46032000Y-57367200D03*
X48107000Y-57367200D03*
X84091000Y-48223200D03*
X86166000Y-48223200D03*
D12*
X34031500Y-79973200D03*
X31956500Y-79973200D03*
D10*
X84218000Y-57367200D03*
X86293000Y-57367200D03*
D13*
X101871000Y-46191200D03*
X101871000Y-48266200D03*
D12*
X96537000Y-59399200D03*
X94462000Y-59399200D03*
D10*
X45905000Y-49747200D03*
X47980000Y-49747200D03*
D14*
X89806000Y-55344200D03*
X89806000Y-53294200D03*
D13*
X101871000Y-42211200D03*
X101871000Y-44286200D03*
D10*
X45905000Y-51779200D03*
X47980000Y-51779200D03*
D12*
X34031500Y-82640200D03*
X31956500Y-82640200D03*
D11*
X53060000Y-58912700D03*
X53060000Y-56837700D03*
D10*
X84218000Y-55335200D03*
X86293000Y-55335200D03*
D11*
X50266000Y-54870200D03*
X50266000Y-52795200D03*
D15*
X92092000Y-53391700D03*
X92092000Y-56516700D03*
D13*
X101871000Y-50085200D03*
X101871000Y-52160200D03*
D11*
X55092000Y-58891200D03*
X55092000Y-56816200D03*
D13*
X57505000Y-46804700D03*
X57505000Y-48879700D03*
D10*
X45905000Y-47080200D03*
X47980000Y-47080200D03*
X84091000Y-46191200D03*
X86166000Y-46191200D03*
D13*
X55219000Y-46804700D03*
X55219000Y-48879700D03*
M02*
