G04 #@! TF.GenerationSoftware,KiCad,Pcbnew,9.0.5*
G04 #@! TF.CreationDate,2025-10-23T02:28:30+02:00*
G04 #@! TF.ProjectId,main-board,6d61696e-2d62-46f6-9172-642e6b696361,1.0a*
G04 #@! TF.SameCoordinates,Original*
G04 #@! TF.FileFunction,Soldermask,Bot*
G04 #@! TF.FilePolarity,Negative*
%FSLAX46Y46*%
G04 Gerber Fmt 4.6, Leading zero omitted, Abs format (unit mm)*
G04 Created by KiCad (PCBNEW 9.0.5) date 2025-10-23 02:28:30*
%MOMM*%
%LPD*%
G01*
G04 APERTURE LIST*
G04 Aperture macros list*
%AMRoundRect*
0 Rectangle with rounded corners*
0 $1 Rounding radius*
0 $2 $3 $4 $5 $6 $7 $8 $9 X,Y pos of 4 corners*
0 Add a 4 corners polygon primitive as box body*
4,1,4,$2,$3,$4,$5,$6,$7,$8,$9,$2,$3,0*
0 Add four circle primitives for the rounded corners*
1,1,$1+$1,$2,$3*
1,1,$1+$1,$4,$5*
1,1,$1+$1,$6,$7*
1,1,$1+$1,$8,$9*
0 Add four rect primitives between the rounded corners*
20,1,$1+$1,$2,$3,$4,$5,0*
20,1,$1+$1,$4,$5,$6,$7,0*
20,1,$1+$1,$6,$7,$8,$9,0*
20,1,$1+$1,$8,$9,$2,$3,0*%
G04 Aperture macros list end*
%ADD10C,0.650000*%
%ADD11O,1.000000X2.100000*%
%ADD12O,1.000000X1.800000*%
%ADD13C,2.300000*%
%ADD14C,3.600000*%
%ADD15RoundRect,0.250000X-0.600000X-0.600000X0.600000X-0.600000X0.600000X0.600000X-0.600000X0.600000X0*%
%ADD16C,1.700000*%
%ADD17C,6.400000*%
%ADD18C,1.200000*%
%ADD19C,1.100000*%
%ADD20RoundRect,0.250000X0.600000X-0.600000X0.600000X0.600000X-0.600000X0.600000X-0.600000X-0.600000X0*%
%ADD21RoundRect,0.250000X-0.337500X-0.475000X0.337500X-0.475000X0.337500X0.475000X-0.337500X0.475000X0*%
%ADD22RoundRect,0.250000X0.475000X-0.337500X0.475000X0.337500X-0.475000X0.337500X-0.475000X-0.337500X0*%
%ADD23RoundRect,0.250000X-0.475000X0.337500X-0.475000X-0.337500X0.475000X-0.337500X0.475000X0.337500X0*%
%ADD24RoundRect,0.250000X0.337500X0.475000X-0.337500X0.475000X-0.337500X-0.475000X0.337500X-0.475000X0*%
%ADD25RoundRect,0.250000X0.450000X-0.325000X0.450000X0.325000X-0.450000X0.325000X-0.450000X-0.325000X0*%
%ADD26RoundRect,0.250000X-0.650000X0.412500X-0.650000X-0.412500X0.650000X-0.412500X0.650000X0.412500X0*%
G04 APERTURE END LIST*
D10*
X68469200Y-107757000D03*
X74249200Y-107757000D03*
D11*
X67039200Y-107257000D03*
D12*
X67039200Y-111437000D03*
D11*
X75679200Y-107257000D03*
D12*
X75679200Y-111437000D03*
D13*
X103359200Y-104762000D03*
D14*
X106659200Y-108062000D03*
X106659200Y-101462000D03*
X100059200Y-108062000D03*
X100059200Y-101462000D03*
D15*
X145205200Y-61214000D03*
D16*
X147745200Y-61214000D03*
X145205200Y-63754000D03*
X147745200Y-63754000D03*
X145205200Y-66294000D03*
X147745200Y-66294000D03*
X145205200Y-68834000D03*
X147745200Y-68834000D03*
X145205200Y-71374000D03*
X147745200Y-71374000D03*
D17*
X147359200Y-44762000D03*
D18*
X60877200Y-64516000D03*
D19*
X60877200Y-58166000D03*
D17*
X59359200Y-44762000D03*
D20*
X108756200Y-46863000D03*
D16*
X108756200Y-44323000D03*
X111296200Y-46863000D03*
X111296200Y-44323000D03*
X113836200Y-46863000D03*
X113836200Y-44323000D03*
X116376200Y-46863000D03*
X116376200Y-44323000D03*
X118916200Y-46863000D03*
X118916200Y-44323000D03*
D15*
X58718200Y-73406000D03*
D16*
X61258200Y-73406000D03*
X58718200Y-75946000D03*
X61258200Y-75946000D03*
X58718200Y-78486000D03*
X61258200Y-78486000D03*
X58718200Y-81026000D03*
X61258200Y-81026000D03*
X58718200Y-83566000D03*
X61258200Y-83566000D03*
X58718200Y-86106000D03*
X61258200Y-86106000D03*
X58718200Y-88646000D03*
X61258200Y-88646000D03*
X58718200Y-91186000D03*
X61258200Y-91186000D03*
X58718200Y-93726000D03*
X61258200Y-93726000D03*
X58718200Y-96266000D03*
X61258200Y-96266000D03*
D17*
X147359200Y-106762000D03*
X59359200Y-106762000D03*
D13*
X119359200Y-104762000D03*
D14*
X122659200Y-108062000D03*
X122659200Y-101462000D03*
X116059200Y-108062000D03*
X116059200Y-101462000D03*
D20*
X71164200Y-46863000D03*
D16*
X71164200Y-44323000D03*
X73704200Y-46863000D03*
X73704200Y-44323000D03*
X76244200Y-46863000D03*
X76244200Y-44323000D03*
X78784200Y-46863000D03*
X78784200Y-44323000D03*
X81324200Y-46863000D03*
X81324200Y-44323000D03*
D13*
X135359200Y-104762000D03*
D14*
X138659200Y-108062000D03*
X138659200Y-101462000D03*
X132059200Y-108062000D03*
X132059200Y-101462000D03*
D13*
X87359200Y-104762000D03*
D14*
X90659200Y-108062000D03*
X90659200Y-101462000D03*
X84059200Y-108062000D03*
X84059200Y-101462000D03*
D21*
X117054200Y-62230000D03*
X119129200Y-62230000D03*
X78868200Y-65786000D03*
X80943200Y-65786000D03*
D22*
X83229200Y-68877000D03*
X83229200Y-66802000D03*
D23*
X90468200Y-60811500D03*
X90468200Y-62886500D03*
X134834200Y-64092000D03*
X134834200Y-66167000D03*
D21*
X117181200Y-69342000D03*
X119256200Y-69342000D03*
X74317700Y-98933000D03*
X76392700Y-98933000D03*
D23*
X90468200Y-65743000D03*
X90468200Y-67818000D03*
D21*
X117181200Y-71374000D03*
X119256200Y-71374000D03*
D22*
X88055200Y-72898000D03*
X88055200Y-70823000D03*
D24*
X134961200Y-73406000D03*
X132886200Y-73406000D03*
D21*
X117181200Y-67183000D03*
X119256200Y-67183000D03*
X78995200Y-73406000D03*
X81070200Y-73406000D03*
D22*
X86023200Y-72919500D03*
X86023200Y-70844500D03*
D21*
X78995200Y-71374000D03*
X81070200Y-71374000D03*
X117011200Y-56261000D03*
X119086200Y-56261000D03*
D24*
X66994700Y-96647000D03*
X64919700Y-96647000D03*
D21*
X117054200Y-60198000D03*
X119129200Y-60198000D03*
D23*
X134834200Y-56218000D03*
X134834200Y-58293000D03*
D24*
X129500200Y-73406000D03*
X127425200Y-73406000D03*
D25*
X122769200Y-69351000D03*
X122769200Y-67301000D03*
D24*
X66994700Y-93980000D03*
X64919700Y-93980000D03*
D21*
X78868200Y-63754000D03*
X80943200Y-63754000D03*
D23*
X88182200Y-60811500D03*
X88182200Y-62886500D03*
D26*
X125055200Y-67398500D03*
X125055200Y-70523500D03*
D23*
X134834200Y-60198000D03*
X134834200Y-62273000D03*
D21*
X117181200Y-73406000D03*
X119256200Y-73406000D03*
D22*
X122769200Y-73533000D03*
X122769200Y-71458000D03*
D21*
X78868200Y-61087000D03*
X80943200Y-61087000D03*
M02*
