G04 #@! TF.GenerationSoftware,KiCad,Pcbnew,9.0.5*
G04 #@! TF.CreationDate,2025-10-23T02:28:29+02:00*
G04 #@! TF.ProjectId,main-board,6d61696e-2d62-46f6-9172-642e6b696361,1.0a*
G04 #@! TF.SameCoordinates,Original*
G04 #@! TF.FileFunction,Paste,Top*
G04 #@! TF.FilePolarity,Positive*
%FSLAX46Y46*%
G04 Gerber Fmt 4.6, Leading zero omitted, Abs format (unit mm)*
G04 Created by KiCad (PCBNEW 9.0.5) date 2025-10-23 02:28:29*
%MOMM*%
%LPD*%
G01*
G04 APERTURE LIST*
G04 Aperture macros list*
%AMRoundRect*
0 Rectangle with rounded corners*
0 $1 Rounding radius*
0 $2 $3 $4 $5 $6 $7 $8 $9 X,Y pos of 4 corners*
0 Add a 4 corners polygon primitive as box body*
4,1,4,$2,$3,$4,$5,$6,$7,$8,$9,$2,$3,0*
0 Add four circle primitives for the rounded corners*
1,1,$1+$1,$2,$3*
1,1,$1+$1,$4,$5*
1,1,$1+$1,$6,$7*
1,1,$1+$1,$8,$9*
0 Add four rect primitives between the rounded corners*
20,1,$1+$1,$2,$3,$4,$5,0*
20,1,$1+$1,$4,$5,$6,$7,0*
20,1,$1+$1,$6,$7,$8,$9,0*
20,1,$1+$1,$8,$9,$2,$3,0*%
G04 Aperture macros list end*
%ADD10RoundRect,0.250000X-0.350000X-0.450000X0.350000X-0.450000X0.350000X0.450000X-0.350000X0.450000X0*%
%ADD11RoundRect,0.250000X0.475000X-0.337500X0.475000X0.337500X-0.475000X0.337500X-0.475000X-0.337500X0*%
%ADD12RoundRect,0.162500X-0.162500X0.617500X-0.162500X-0.617500X0.162500X-0.617500X0.162500X0.617500X0*%
%ADD13RoundRect,0.175000X-0.175000X-0.325000X0.175000X-0.325000X0.175000X0.325000X-0.175000X0.325000X0*%
%ADD14RoundRect,0.150000X-0.200000X-0.150000X0.200000X-0.150000X0.200000X0.150000X-0.200000X0.150000X0*%
%ADD15RoundRect,0.250000X-0.450000X0.350000X-0.450000X-0.350000X0.450000X-0.350000X0.450000X0.350000X0*%
%ADD16RoundRect,0.250000X-0.337500X-0.475000X0.337500X-0.475000X0.337500X0.475000X-0.337500X0.475000X0*%
%ADD17RoundRect,0.250000X0.450000X-0.350000X0.450000X0.350000X-0.450000X0.350000X-0.450000X-0.350000X0*%
%ADD18RoundRect,0.250000X-0.475000X0.337500X-0.475000X-0.337500X0.475000X-0.337500X0.475000X0.337500X0*%
%ADD19RoundRect,0.250000X0.575000X-0.725000X0.575000X0.725000X-0.575000X0.725000X-0.575000X-0.725000X0*%
%ADD20RoundRect,0.232500X0.232500X-0.232500X0.232500X0.232500X-0.232500X0.232500X-0.232500X-0.232500X0*%
%ADD21RoundRect,0.062500X0.062500X-0.375000X0.062500X0.375000X-0.062500X0.375000X-0.062500X-0.375000X0*%
%ADD22RoundRect,0.062500X0.375000X-0.062500X0.375000X0.062500X-0.375000X0.062500X-0.375000X-0.062500X0*%
%ADD23RoundRect,0.150000X-0.150000X-0.425000X0.150000X-0.425000X0.150000X0.425000X-0.150000X0.425000X0*%
%ADD24RoundRect,0.075000X-0.075000X-0.500000X0.075000X-0.500000X0.075000X0.500000X-0.075000X0.500000X0*%
%ADD25O,1.000000X2.100000*%
%ADD26O,1.000000X1.800000*%
%ADD27RoundRect,0.175000X-0.325000X0.175000X-0.325000X-0.175000X0.325000X-0.175000X0.325000X0.175000X0*%
%ADD28RoundRect,0.150000X-0.150000X0.200000X-0.150000X-0.200000X0.150000X-0.200000X0.150000X0.200000X0*%
%ADD29RoundRect,0.250000X-0.412500X-0.650000X0.412500X-0.650000X0.412500X0.650000X-0.412500X0.650000X0*%
%ADD30RoundRect,0.112500X1.037500X-0.262500X1.037500X0.262500X-1.037500X0.262500X-1.037500X-0.262500X0*%
%ADD31RoundRect,0.250000X0.337500X0.475000X-0.337500X0.475000X-0.337500X-0.475000X0.337500X-0.475000X0*%
%ADD32RoundRect,0.250000X0.350000X0.450000X-0.350000X0.450000X-0.350000X-0.450000X0.350000X-0.450000X0*%
%ADD33RoundRect,0.250000X-0.325000X-0.450000X0.325000X-0.450000X0.325000X0.450000X-0.325000X0.450000X0*%
%ADD34RoundRect,0.225000X0.225000X0.375000X-0.225000X0.375000X-0.225000X-0.375000X0.225000X-0.375000X0*%
%ADD35RoundRect,0.250000X0.650000X-0.412500X0.650000X0.412500X-0.650000X0.412500X-0.650000X-0.412500X0*%
%ADD36RoundRect,0.250000X0.285000X-0.285000X0.285000X0.285000X-0.285000X0.285000X-0.285000X-0.285000X0*%
%ADD37RoundRect,0.075000X0.075000X-0.662500X0.075000X0.662500X-0.075000X0.662500X-0.075000X-0.662500X0*%
%ADD38RoundRect,0.075000X0.662500X-0.075000X0.662500X0.075000X-0.662500X0.075000X-0.662500X-0.075000X0*%
%ADD39RoundRect,0.075000X-0.725000X-0.075000X0.725000X-0.075000X0.725000X0.075000X-0.725000X0.075000X0*%
%ADD40RoundRect,0.075000X-0.075000X-0.725000X0.075000X-0.725000X0.075000X0.725000X-0.075000X0.725000X0*%
G04 APERTURE END LIST*
D10*
X100169200Y-76581000D03*
X102169200Y-76581000D03*
D11*
X125647200Y-51964500D03*
X125647200Y-49889500D03*
D12*
X104245200Y-90598000D03*
X103295200Y-90598000D03*
X102345200Y-90598000D03*
X102345200Y-93298000D03*
X103295200Y-93298000D03*
X104245200Y-93298000D03*
D13*
X94437200Y-103070000D03*
D14*
X94437200Y-104770000D03*
X96437200Y-104770000D03*
X96437200Y-102870000D03*
D15*
X138347200Y-95266000D03*
X138347200Y-97266000D03*
D16*
X122069700Y-85090000D03*
X124144700Y-85090000D03*
D17*
X139744200Y-76803000D03*
X139744200Y-74803000D03*
D18*
X79165200Y-89005500D03*
X79165200Y-91080500D03*
D19*
X124207200Y-82655000D03*
X124207200Y-79905000D03*
X122007200Y-79905000D03*
X122007200Y-82655000D03*
D20*
X70423200Y-97059500D03*
X71573200Y-97059500D03*
X72723200Y-97059500D03*
X70423200Y-95909500D03*
X71573200Y-95909500D03*
X72723200Y-95909500D03*
X70423200Y-94759500D03*
X71573200Y-94759500D03*
X72723200Y-94759500D03*
D21*
X69823200Y-98347000D03*
X70323200Y-98347000D03*
X70823200Y-98347000D03*
X71323200Y-98347000D03*
X71823200Y-98347000D03*
X72323200Y-98347000D03*
X72823200Y-98347000D03*
X73323200Y-98347000D03*
D22*
X74010700Y-97659500D03*
X74010700Y-97159500D03*
X74010700Y-96659500D03*
X74010700Y-96159500D03*
X74010700Y-95659500D03*
X74010700Y-95159500D03*
X74010700Y-94659500D03*
X74010700Y-94159500D03*
D21*
X73323200Y-93472000D03*
X72823200Y-93472000D03*
X72323200Y-93472000D03*
X71823200Y-93472000D03*
X71323200Y-93472000D03*
X70823200Y-93472000D03*
X70323200Y-93472000D03*
X69823200Y-93472000D03*
D22*
X69135700Y-94159500D03*
X69135700Y-94659500D03*
X69135700Y-95159500D03*
X69135700Y-95659500D03*
X69135700Y-96159500D03*
X69135700Y-96659500D03*
X69135700Y-97159500D03*
X69135700Y-97659500D03*
D10*
X73101200Y-52832000D03*
X75101200Y-52832000D03*
D23*
X68159200Y-106682000D03*
X68959200Y-106682000D03*
D24*
X70109200Y-106682000D03*
X71109200Y-106682000D03*
X71609200Y-106682000D03*
X72609200Y-106682000D03*
D23*
X73759200Y-106682000D03*
X74559200Y-106682000D03*
X74559200Y-106682000D03*
X73759200Y-106682000D03*
D24*
X73109200Y-106682000D03*
X72109200Y-106682000D03*
X70609200Y-106682000D03*
X69609200Y-106682000D03*
D23*
X68959200Y-106682000D03*
X68159200Y-106682000D03*
D25*
X67039200Y-107257000D03*
D26*
X67039200Y-111437000D03*
D25*
X75679200Y-107257000D03*
D26*
X75679200Y-111437000D03*
D10*
X73085200Y-54864000D03*
X75085200Y-54864000D03*
D15*
X100247200Y-95266000D03*
X100247200Y-97266000D03*
D27*
X74327200Y-99838000D03*
D28*
X72627200Y-99838000D03*
X72627200Y-101838000D03*
X74527200Y-101838000D03*
D29*
X129634200Y-87376000D03*
X132759200Y-87376000D03*
D19*
X71545200Y-68282000D03*
X71545200Y-65532000D03*
X69345200Y-65532000D03*
X69345200Y-68282000D03*
D30*
X62782200Y-65151000D03*
X58972200Y-65151000D03*
X62782200Y-63881000D03*
X58972200Y-63881000D03*
X62782200Y-62611000D03*
X58972200Y-62611000D03*
X62782200Y-61341000D03*
X58972200Y-61341000D03*
X62782200Y-60071000D03*
X58972200Y-60071000D03*
X62782200Y-58801000D03*
X58972200Y-58801000D03*
X62782200Y-57531000D03*
X58972200Y-57531000D03*
D10*
X66878200Y-100457000D03*
X68878200Y-100457000D03*
X110439200Y-59563000D03*
X112439200Y-59563000D03*
D15*
X90341200Y-95266000D03*
X90341200Y-97266000D03*
D11*
X96818200Y-64940000D03*
X96818200Y-62865000D03*
D18*
X87039200Y-95228500D03*
X87039200Y-97303500D03*
D31*
X70804700Y-70739000D03*
X68729700Y-70739000D03*
D10*
X73101200Y-56896000D03*
X75101200Y-56896000D03*
D11*
X76244200Y-94150000D03*
X76244200Y-92075000D03*
D12*
X114913200Y-76501000D03*
X113963200Y-76501000D03*
X113013200Y-76501000D03*
X113013200Y-79201000D03*
X113963200Y-79201000D03*
X114913200Y-79201000D03*
D11*
X130473200Y-51964500D03*
X130473200Y-49889500D03*
D32*
X68846200Y-102362000D03*
X66846200Y-102362000D03*
D18*
X74847200Y-71860500D03*
X74847200Y-73935500D03*
X134791200Y-95250000D03*
X134791200Y-97325000D03*
X84245200Y-86465500D03*
X84245200Y-88540500D03*
X72815200Y-71860500D03*
X72815200Y-73935500D03*
D10*
X95802200Y-57150000D03*
X97802200Y-57150000D03*
D15*
X106343200Y-95266000D03*
X106343200Y-97266000D03*
D32*
X101374200Y-47656000D03*
X99374200Y-47656000D03*
D10*
X74101200Y-104394000D03*
X76101200Y-104394000D03*
D18*
X111296200Y-92815500D03*
X111296200Y-94890500D03*
X74593200Y-67796500D03*
X74593200Y-69871500D03*
D15*
X139744200Y-85233000D03*
X139744200Y-87233000D03*
D10*
X96834200Y-70231000D03*
X98834200Y-70231000D03*
D18*
X109746800Y-81766500D03*
X109746800Y-83841500D03*
D32*
X114471200Y-90170000D03*
X112471200Y-90170000D03*
D15*
X116249200Y-95266000D03*
X116249200Y-97266000D03*
D11*
X66973200Y-94531000D03*
X66973200Y-92456000D03*
D18*
X114344200Y-81915000D03*
X114344200Y-83990000D03*
D15*
X122345200Y-95266000D03*
X122345200Y-97266000D03*
D16*
X120545700Y-51816000D03*
X122620700Y-51816000D03*
D33*
X69250200Y-52832000D03*
X71300200Y-52832000D03*
D10*
X88976200Y-47402000D03*
X90976200Y-47402000D03*
X110439200Y-66802000D03*
X112439200Y-66802000D03*
D16*
X92732700Y-74930000D03*
X94807700Y-74930000D03*
D34*
X96816200Y-45878000D03*
X93516200Y-45878000D03*
D33*
X69250200Y-56896000D03*
X71300200Y-56896000D03*
D13*
X126441200Y-102948000D03*
D14*
X126441200Y-104648000D03*
X128441200Y-104648000D03*
X128441200Y-102748000D03*
D12*
X120313200Y-90598000D03*
X119363200Y-90598000D03*
X118413200Y-90598000D03*
X118413200Y-93298000D03*
X119363200Y-93298000D03*
X120313200Y-93298000D03*
D33*
X69250200Y-54864000D03*
X71300200Y-54864000D03*
D15*
X132251200Y-95266000D03*
X132251200Y-97266000D03*
D35*
X67989200Y-77254500D03*
X67989200Y-74129500D03*
D18*
X96818200Y-49657000D03*
X96818200Y-51732000D03*
D10*
X73085200Y-58928000D03*
X75085200Y-58928000D03*
D18*
X102787200Y-95228500D03*
X102787200Y-97303500D03*
D19*
X132335200Y-82528000D03*
X132335200Y-79778000D03*
X130135200Y-79778000D03*
X130135200Y-82528000D03*
D15*
X139744200Y-80169000D03*
X139744200Y-82169000D03*
D10*
X88976200Y-44452000D03*
X90976200Y-44452000D03*
X95818200Y-59055000D03*
X97818200Y-59055000D03*
X110423200Y-68834000D03*
X112423200Y-68834000D03*
D32*
X68862200Y-104394000D03*
X66862200Y-104394000D03*
D36*
X124674200Y-65906000D03*
X126004200Y-65906000D03*
X127334200Y-65906000D03*
X124674200Y-64576000D03*
X126004200Y-64576000D03*
X127334200Y-64576000D03*
X124674200Y-63246000D03*
X126004200Y-63246000D03*
X127334200Y-63246000D03*
D37*
X117254200Y-75238500D03*
X117754200Y-75238500D03*
X118254200Y-75238500D03*
X118754200Y-75238500D03*
X119254200Y-75238500D03*
X119754200Y-75238500D03*
X120254200Y-75238500D03*
X120754200Y-75238500D03*
X121254200Y-75238500D03*
X121754200Y-75238500D03*
X122254200Y-75238500D03*
X122754200Y-75238500D03*
X123254200Y-75238500D03*
X123754200Y-75238500D03*
X124254200Y-75238500D03*
X124754200Y-75238500D03*
X125254200Y-75238500D03*
X125754200Y-75238500D03*
X126254200Y-75238500D03*
X126754200Y-75238500D03*
X127254200Y-75238500D03*
X127754200Y-75238500D03*
X128254200Y-75238500D03*
X128754200Y-75238500D03*
X129254200Y-75238500D03*
X129754200Y-75238500D03*
X130254200Y-75238500D03*
X130754200Y-75238500D03*
X131254200Y-75238500D03*
X131754200Y-75238500D03*
X132254200Y-75238500D03*
X132754200Y-75238500D03*
X133254200Y-75238500D03*
X133754200Y-75238500D03*
X134254200Y-75238500D03*
X134754200Y-75238500D03*
D38*
X136666700Y-73326000D03*
X136666700Y-72826000D03*
X136666700Y-72326000D03*
X136666700Y-71826000D03*
X136666700Y-71326000D03*
X136666700Y-70826000D03*
X136666700Y-70326000D03*
X136666700Y-69826000D03*
X136666700Y-69326000D03*
X136666700Y-68826000D03*
X136666700Y-68326000D03*
X136666700Y-67826000D03*
X136666700Y-67326000D03*
X136666700Y-66826000D03*
X136666700Y-66326000D03*
X136666700Y-65826000D03*
X136666700Y-65326000D03*
X136666700Y-64826000D03*
X136666700Y-64326000D03*
X136666700Y-63826000D03*
X136666700Y-63326000D03*
X136666700Y-62826000D03*
X136666700Y-62326000D03*
X136666700Y-61826000D03*
X136666700Y-61326000D03*
X136666700Y-60826000D03*
X136666700Y-60326000D03*
X136666700Y-59826000D03*
X136666700Y-59326000D03*
X136666700Y-58826000D03*
X136666700Y-58326000D03*
X136666700Y-57826000D03*
X136666700Y-57326000D03*
X136666700Y-56826000D03*
X136666700Y-56326000D03*
X136666700Y-55826000D03*
D37*
X134754200Y-53913500D03*
X134254200Y-53913500D03*
X133754200Y-53913500D03*
X133254200Y-53913500D03*
X132754200Y-53913500D03*
X132254200Y-53913500D03*
X131754200Y-53913500D03*
X131254200Y-53913500D03*
X130754200Y-53913500D03*
X130254200Y-53913500D03*
X129754200Y-53913500D03*
X129254200Y-53913500D03*
X128754200Y-53913500D03*
X128254200Y-53913500D03*
X127754200Y-53913500D03*
X127254200Y-53913500D03*
X126754200Y-53913500D03*
X126254200Y-53913500D03*
X125754200Y-53913500D03*
X125254200Y-53913500D03*
X124754200Y-53913500D03*
X124254200Y-53913500D03*
X123754200Y-53913500D03*
X123254200Y-53913500D03*
X122754200Y-53913500D03*
X122254200Y-53913500D03*
X121754200Y-53913500D03*
X121254200Y-53913500D03*
X120754200Y-53913500D03*
X120254200Y-53913500D03*
X119754200Y-53913500D03*
X119254200Y-53913500D03*
X118754200Y-53913500D03*
X118254200Y-53913500D03*
X117754200Y-53913500D03*
X117254200Y-53913500D03*
D38*
X115341700Y-55826000D03*
X115341700Y-56326000D03*
X115341700Y-56826000D03*
X115341700Y-57326000D03*
X115341700Y-57826000D03*
X115341700Y-58326000D03*
X115341700Y-58826000D03*
X115341700Y-59326000D03*
X115341700Y-59826000D03*
X115341700Y-60326000D03*
X115341700Y-60826000D03*
X115341700Y-61326000D03*
X115341700Y-61826000D03*
X115341700Y-62326000D03*
X115341700Y-62826000D03*
X115341700Y-63326000D03*
X115341700Y-63826000D03*
X115341700Y-64326000D03*
X115341700Y-64826000D03*
X115341700Y-65326000D03*
X115341700Y-65826000D03*
X115341700Y-66326000D03*
X115341700Y-66826000D03*
X115341700Y-67326000D03*
X115341700Y-67826000D03*
X115341700Y-68326000D03*
X115341700Y-68826000D03*
X115341700Y-69326000D03*
X115341700Y-69826000D03*
X115341700Y-70326000D03*
X115341700Y-70826000D03*
X115341700Y-71326000D03*
X115341700Y-71826000D03*
X115341700Y-72326000D03*
X115341700Y-72826000D03*
X115341700Y-73326000D03*
D33*
X69250200Y-58928000D03*
X71300200Y-58928000D03*
D16*
X130092200Y-85090000D03*
X132167200Y-85090000D03*
D15*
X84499200Y-95266000D03*
X84499200Y-97266000D03*
D18*
X67227200Y-65743000D03*
X67227200Y-67818000D03*
D10*
X96834200Y-72136000D03*
X98834200Y-72136000D03*
D32*
X124234200Y-77597000D03*
X122234200Y-77597000D03*
D12*
X110356400Y-76548000D03*
X109406400Y-76548000D03*
X108456400Y-76548000D03*
X108456400Y-79248000D03*
X109406400Y-79248000D03*
X110356400Y-79248000D03*
X136249200Y-90598000D03*
X135299200Y-90598000D03*
X134349200Y-90598000D03*
X134349200Y-93298000D03*
X135299200Y-93298000D03*
X136249200Y-93298000D03*
D29*
X121544700Y-87376000D03*
X124669700Y-87376000D03*
D10*
X110439200Y-61468000D03*
X112439200Y-61468000D03*
D16*
X130451700Y-77470000D03*
X132526700Y-77470000D03*
D18*
X66973200Y-96498500D03*
X66973200Y-98573500D03*
X78403200Y-76813500D03*
X78403200Y-78888500D03*
X118789200Y-95228500D03*
X118789200Y-97303500D03*
X126409200Y-79099500D03*
X126409200Y-81174500D03*
X139744200Y-88984000D03*
X139744200Y-91059000D03*
D12*
X88309200Y-90598000D03*
X87359200Y-90598000D03*
X86409200Y-90598000D03*
X86409200Y-93298000D03*
X87359200Y-93298000D03*
X88309200Y-93298000D03*
D39*
X76888200Y-60857000D03*
X76888200Y-61357000D03*
X76888200Y-61857000D03*
X76888200Y-62357000D03*
X76888200Y-62857000D03*
X76888200Y-63357000D03*
X76888200Y-63857000D03*
X76888200Y-64357000D03*
X76888200Y-64857000D03*
X76888200Y-65357000D03*
X76888200Y-65857000D03*
X76888200Y-66357000D03*
X76888200Y-66857000D03*
X76888200Y-67357000D03*
X76888200Y-67857000D03*
X76888200Y-68357000D03*
X76888200Y-68857000D03*
X76888200Y-69357000D03*
X76888200Y-69857000D03*
X76888200Y-70357000D03*
X76888200Y-70857000D03*
X76888200Y-71357000D03*
X76888200Y-71857000D03*
X76888200Y-72357000D03*
X76888200Y-72857000D03*
D40*
X78563200Y-74532000D03*
X79063200Y-74532000D03*
X79563200Y-74532000D03*
X80063200Y-74532000D03*
X80563200Y-74532000D03*
X81063200Y-74532000D03*
X81563200Y-74532000D03*
X82063200Y-74532000D03*
X82563200Y-74532000D03*
X83063200Y-74532000D03*
X83563200Y-74532000D03*
X84063200Y-74532000D03*
X84563200Y-74532000D03*
X85063200Y-74532000D03*
X85563200Y-74532000D03*
X86063200Y-74532000D03*
X86563200Y-74532000D03*
X87063200Y-74532000D03*
X87563200Y-74532000D03*
X88063200Y-74532000D03*
X88563200Y-74532000D03*
X89063200Y-74532000D03*
X89563200Y-74532000D03*
X90063200Y-74532000D03*
X90563200Y-74532000D03*
D39*
X92238200Y-72857000D03*
X92238200Y-72357000D03*
X92238200Y-71857000D03*
X92238200Y-71357000D03*
X92238200Y-70857000D03*
X92238200Y-70357000D03*
X92238200Y-69857000D03*
X92238200Y-69357000D03*
X92238200Y-68857000D03*
X92238200Y-68357000D03*
X92238200Y-67857000D03*
X92238200Y-67357000D03*
X92238200Y-66857000D03*
X92238200Y-66357000D03*
X92238200Y-65857000D03*
X92238200Y-65357000D03*
X92238200Y-64857000D03*
X92238200Y-64357000D03*
X92238200Y-63857000D03*
X92238200Y-63357000D03*
X92238200Y-62857000D03*
X92238200Y-62357000D03*
X92238200Y-61857000D03*
X92238200Y-61357000D03*
X92238200Y-60857000D03*
D40*
X90563200Y-59182000D03*
X90063200Y-59182000D03*
X89563200Y-59182000D03*
X89063200Y-59182000D03*
X88563200Y-59182000D03*
X88063200Y-59182000D03*
X87563200Y-59182000D03*
X87063200Y-59182000D03*
X86563200Y-59182000D03*
X86063200Y-59182000D03*
X85563200Y-59182000D03*
X85063200Y-59182000D03*
X84563200Y-59182000D03*
X84063200Y-59182000D03*
X83563200Y-59182000D03*
X83063200Y-59182000D03*
X82563200Y-59182000D03*
X82063200Y-59182000D03*
X81563200Y-59182000D03*
X81063200Y-59182000D03*
X80563200Y-59182000D03*
X80063200Y-59182000D03*
X79563200Y-59182000D03*
X79063200Y-59182000D03*
X78563200Y-59182000D03*
D32*
X101374200Y-44227000D03*
X99374200Y-44227000D03*
M02*
