%TF.GenerationSoftware,KiCad,Pcbnew,9.0.5*%
%TF.CreationDate,2025-10-23T20:15:36+02:00*%
%TF.ProjectId,display-board,64697370-6c61-4792-9d62-6f6172642e6b,1.0a*%
%TF.SameCoordinates,Original*%
%TF.FileFunction,Drillmap*%
%TF.FilePolarity,Positive*%
%FSLAX45Y45*%
G04 Gerber Fmt 4.5, Leading zero omitted, Abs format (unit mm)*
G04 Created by KiCad (PCBNEW 9.0.5) date 2025-10-23 20:15:36*
%MOMM*%
%LPD*%
G01*
G04 APERTURE LIST*
%ADD10C,0.050000*%
%ADD11C,0.200000*%
%ADD12C,0.100000*%
%ADD13C,0.320000*%
G04 APERTURE END LIST*
D10*
X2265640Y-2431040D02*
X22265640Y-2431040D01*
X22265640Y-6281840D01*
X2265640Y-6281840D01*
X2265640Y-2431040D01*
D11*
D12*
X2405540Y-4343640D02*
X2435540Y-4373640D01*
X2435540Y-4343640D02*
X2405540Y-4373640D01*
X2405540Y-4673840D02*
X2435540Y-4703840D01*
X2435540Y-4673840D02*
X2405540Y-4703840D01*
X2405540Y-5270740D02*
X2435540Y-5300740D01*
X2435540Y-5270740D02*
X2405540Y-5300740D01*
X2405540Y-5664440D02*
X2435540Y-5694440D01*
X2435540Y-5664440D02*
X2405540Y-5694440D01*
X2418240Y-4953240D02*
X2448240Y-4983240D01*
X2448240Y-4953240D02*
X2418240Y-4983240D01*
X2430940Y-4089640D02*
X2460940Y-4119640D01*
X2460940Y-4089640D02*
X2430940Y-4119640D01*
X2481740Y-3772140D02*
X2511740Y-3802140D01*
X2511740Y-3772140D02*
X2481740Y-3802140D01*
X2583340Y-3416540D02*
X2613340Y-3446540D01*
X2613340Y-3416540D02*
X2583340Y-3446540D01*
X2634140Y-3734040D02*
X2664140Y-3764040D01*
X2664140Y-3734040D02*
X2634140Y-3764040D01*
X2684940Y-6096240D02*
X2714940Y-6126240D01*
X2714940Y-6096240D02*
X2684940Y-6126240D01*
X3040540Y-3149840D02*
X3070540Y-3179840D01*
X3070540Y-3149840D02*
X3040540Y-3179840D01*
X3040540Y-3772140D02*
X3070540Y-3802140D01*
X3070540Y-3772140D02*
X3040540Y-3802140D01*
X3053240Y-5893040D02*
X3083240Y-5923040D01*
X3083240Y-5893040D02*
X3053240Y-5923040D01*
X3167540Y-2692640D02*
X3197540Y-2722640D01*
X3197540Y-2692640D02*
X3167540Y-2722640D01*
X3358040Y-4140440D02*
X3388040Y-4170440D01*
X3388040Y-4140440D02*
X3358040Y-4170440D01*
X3370740Y-3670540D02*
X3400740Y-3700540D01*
X3400740Y-3670540D02*
X3370740Y-3700540D01*
X3370740Y-3810240D02*
X3400740Y-3840240D01*
X3400740Y-3810240D02*
X3370740Y-3840240D01*
X3383440Y-3530840D02*
X3413440Y-3560840D01*
X3413440Y-3530840D02*
X3383440Y-3560840D01*
X3383440Y-4534140D02*
X3413440Y-4564140D01*
X3413440Y-4534140D02*
X3383440Y-4564140D01*
X3383440Y-5181840D02*
X3413440Y-5211840D01*
X3413440Y-5181840D02*
X3383440Y-5211840D01*
X3383440Y-5334240D02*
X3413440Y-5364240D01*
X3413440Y-5334240D02*
X3383440Y-5364240D01*
X3383440Y-5423140D02*
X3413440Y-5453140D01*
X3413440Y-5423140D02*
X3383440Y-5453140D01*
X3383440Y-5537440D02*
X3413440Y-5567440D01*
X3413440Y-5537440D02*
X3383440Y-5567440D01*
X3383440Y-5689840D02*
X3413440Y-5719840D01*
X3413440Y-5689840D02*
X3383440Y-5719840D01*
X3446940Y-4991340D02*
X3476940Y-5021340D01*
X3476940Y-4991340D02*
X3446940Y-5021340D01*
X3459640Y-5791440D02*
X3489640Y-5821440D01*
X3489640Y-5791440D02*
X3459640Y-5821440D01*
X3472340Y-2679940D02*
X3502340Y-2709940D01*
X3502340Y-2679940D02*
X3472340Y-2709940D01*
X3472340Y-6134340D02*
X3502340Y-6164340D01*
X3502340Y-6134340D02*
X3472340Y-6164340D01*
X3485040Y-3530840D02*
X3515040Y-3560840D01*
X3515040Y-3530840D02*
X3485040Y-3560840D01*
X3497740Y-3149840D02*
X3527740Y-3179840D01*
X3527740Y-3149840D02*
X3497740Y-3179840D01*
X3535840Y-5842240D02*
X3565840Y-5872240D01*
X3565840Y-5842240D02*
X3535840Y-5872240D01*
X3548540Y-5473940D02*
X3578540Y-5503940D01*
X3578540Y-5473940D02*
X3548540Y-5503940D01*
X3560262Y-5638062D02*
X3590262Y-5668062D01*
X3590262Y-5638062D02*
X3560262Y-5668062D01*
X3561240Y-5385040D02*
X3591240Y-5415040D01*
X3591240Y-5385040D02*
X3561240Y-5415040D01*
X3567590Y-5556490D02*
X3597590Y-5586490D01*
X3597590Y-5556490D02*
X3567590Y-5586490D01*
X3573940Y-5067540D02*
X3603940Y-5097540D01*
X3603940Y-5067540D02*
X3573940Y-5097540D01*
X3599340Y-5308840D02*
X3629340Y-5338840D01*
X3629340Y-5308840D02*
X3599340Y-5338840D01*
X3662840Y-5986240D02*
X3692840Y-6016240D01*
X3692840Y-5986240D02*
X3662840Y-6016240D01*
X3688240Y-3327640D02*
X3718240Y-3357640D01*
X3718240Y-3327640D02*
X3688240Y-3357640D01*
X3688240Y-5766040D02*
X3718240Y-5796040D01*
X3718240Y-5766040D02*
X3688240Y-5796040D01*
X3713640Y-3886440D02*
X3743640Y-3916440D01*
X3743640Y-3886440D02*
X3713640Y-3916440D01*
X3713640Y-4496040D02*
X3743640Y-4526040D01*
X3743640Y-4496040D02*
X3713640Y-4526040D01*
X3751740Y-6020040D02*
X3781740Y-6050040D01*
X3781740Y-6020040D02*
X3751740Y-6050040D01*
X3815240Y-6168440D02*
X3845240Y-6198440D01*
X3845240Y-6168440D02*
X3815240Y-6198440D01*
X3847029Y-4855164D02*
X3877029Y-4885164D01*
X3877029Y-4855164D02*
X3847029Y-4885164D01*
X3878740Y-5423140D02*
X3908740Y-5453140D01*
X3908740Y-5423140D02*
X3878740Y-5453140D01*
X3891440Y-4965940D02*
X3921440Y-4995940D01*
X3921440Y-4965940D02*
X3891440Y-4995940D01*
X3973990Y-4857990D02*
X4003990Y-4887990D01*
X4003990Y-4857990D02*
X3973990Y-4887990D01*
X4018440Y-4953240D02*
X4048440Y-4983240D01*
X4048440Y-4953240D02*
X4018440Y-4983240D01*
X4031140Y-5702540D02*
X4061140Y-5732540D01*
X4061140Y-5702540D02*
X4031140Y-5732540D01*
X4107340Y-4877040D02*
X4137340Y-4907040D01*
X4137340Y-4877040D02*
X4107340Y-4907040D01*
X4120040Y-5778740D02*
X4150040Y-5808740D01*
X4150040Y-5778740D02*
X4120040Y-5808740D01*
X4148097Y-4457940D02*
X4178097Y-4487940D01*
X4178097Y-4457940D02*
X4148097Y-4487940D01*
X4158140Y-4940540D02*
X4188140Y-4970540D01*
X4188140Y-4940540D02*
X4158140Y-4970540D01*
X4183540Y-5854940D02*
X4213540Y-5884940D01*
X4213540Y-5854940D02*
X4183540Y-5884940D01*
X4196240Y-5423140D02*
X4226240Y-5453140D01*
X4226240Y-5423140D02*
X4196240Y-5453140D01*
X4221640Y-5296140D02*
X4251640Y-5326140D01*
X4251640Y-5296140D02*
X4221640Y-5326140D01*
X4247040Y-4940540D02*
X4277040Y-4970540D01*
X4277040Y-4940540D02*
X4247040Y-4970540D01*
X4259740Y-5905740D02*
X4289740Y-5935740D01*
X4289740Y-5905740D02*
X4259740Y-5935740D01*
X4297840Y-5131040D02*
X4327840Y-5161040D01*
X4327840Y-5131040D02*
X4297840Y-5161040D01*
X4348640Y-5715240D02*
X4378640Y-5745240D01*
X4378640Y-5715240D02*
X4348640Y-5745240D01*
X4374040Y-4927840D02*
X4404040Y-4957840D01*
X4404040Y-4927840D02*
X4374040Y-4957840D01*
X4374040Y-5016740D02*
X4404040Y-5046740D01*
X4404040Y-5016740D02*
X4374040Y-5046740D01*
X4378791Y-5097691D02*
X4408791Y-5127691D01*
X4408791Y-5097691D02*
X4378791Y-5127691D01*
X4380640Y-5842240D02*
X4410640Y-5872240D01*
X4410640Y-5842240D02*
X4380640Y-5872240D01*
X4385442Y-5233938D02*
X4415442Y-5263938D01*
X4415442Y-5233938D02*
X4385442Y-5263938D01*
X4386740Y-5321540D02*
X4416740Y-5351540D01*
X4416740Y-5321540D02*
X4386740Y-5351540D01*
X4386740Y-5410440D02*
X4416740Y-5440440D01*
X4416740Y-5410440D02*
X4386740Y-5440440D01*
X4448640Y-3001368D02*
X4478640Y-3031368D01*
X4478640Y-3001368D02*
X4448640Y-3031368D01*
X4450240Y-3962640D02*
X4480240Y-3992640D01*
X4480240Y-3962640D02*
X4450240Y-3992640D01*
X4501040Y-5488540D02*
X4531040Y-5518540D01*
X4531040Y-5488540D02*
X4501040Y-5518540D01*
X4666140Y-5880340D02*
X4696140Y-5910340D01*
X4696140Y-5880340D02*
X4666140Y-5910340D01*
X4767740Y-5893040D02*
X4797740Y-5923040D01*
X4797740Y-5893040D02*
X4767740Y-5923040D01*
X5021740Y-2679940D02*
X5051740Y-2709940D01*
X5051740Y-2679940D02*
X5021740Y-2709940D01*
X5263040Y-3327640D02*
X5293040Y-3357640D01*
X5293040Y-3327640D02*
X5263040Y-3357640D01*
X5351940Y-3340340D02*
X5381940Y-3370340D01*
X5381940Y-3340340D02*
X5351940Y-3370340D01*
X5440840Y-3340340D02*
X5470840Y-3370340D01*
X5470840Y-3340340D02*
X5440840Y-3370340D01*
X5529740Y-3340340D02*
X5559740Y-3370340D01*
X5559740Y-3340340D02*
X5529740Y-3370340D01*
X5618640Y-3327640D02*
X5648640Y-3357640D01*
X5648640Y-3327640D02*
X5618640Y-3357640D01*
X5707540Y-3340340D02*
X5737540Y-3370340D01*
X5737540Y-3340340D02*
X5707540Y-3370340D01*
X5796440Y-3340340D02*
X5826440Y-3370340D01*
X5826440Y-3340340D02*
X5796440Y-3370340D01*
X5885340Y-3340340D02*
X5915340Y-3370340D01*
X5915340Y-3340340D02*
X5885340Y-3370340D01*
X5974240Y-3314940D02*
X6004240Y-3344940D01*
X6004240Y-3314940D02*
X5974240Y-3344940D01*
X6113940Y-3365740D02*
X6143940Y-3395740D01*
X6143940Y-3365740D02*
X6113940Y-3395740D01*
X6564790Y-5899390D02*
X6594790Y-5929390D01*
X6594790Y-5899390D02*
X6564790Y-5929390D01*
X6710840Y-5880340D02*
X6740840Y-5910340D01*
X6740840Y-5880340D02*
X6710840Y-5910340D01*
X6736240Y-5727940D02*
X6766240Y-5757940D01*
X6766240Y-5727940D02*
X6736240Y-5757940D01*
X6837840Y-5905740D02*
X6867840Y-5935740D01*
X6867840Y-5905740D02*
X6837840Y-5935740D01*
X7447440Y-3010140D02*
X7477440Y-3040140D01*
X7477440Y-3010140D02*
X7447440Y-3040140D01*
X7523640Y-2616440D02*
X7553640Y-2646440D01*
X7553640Y-2616440D02*
X7523640Y-2646440D01*
X7663340Y-4292840D02*
X7693340Y-4322840D01*
X7693340Y-4292840D02*
X7663340Y-4322840D01*
X7663340Y-4546840D02*
X7693340Y-4576840D01*
X7693340Y-4546840D02*
X7663340Y-4576840D01*
X7663340Y-4813540D02*
X7693340Y-4843540D01*
X7693340Y-4813540D02*
X7663340Y-4843540D01*
X7663340Y-5054840D02*
X7693340Y-5084840D01*
X7693340Y-5054840D02*
X7663340Y-5084840D01*
X7663340Y-5308840D02*
X7693340Y-5338840D01*
X7693340Y-5308840D02*
X7663340Y-5338840D01*
X7663340Y-5550140D02*
X7693340Y-5580140D01*
X7693340Y-5550140D02*
X7663340Y-5580140D01*
X7663340Y-5804140D02*
X7693340Y-5834140D01*
X7693340Y-5804140D02*
X7663340Y-5834140D01*
X7676040Y-3518140D02*
X7706040Y-3548140D01*
X7706040Y-3518140D02*
X7676040Y-3548140D01*
X7676040Y-3784840D02*
X7706040Y-3814840D01*
X7706040Y-3784840D02*
X7676040Y-3814840D01*
X7676040Y-4038840D02*
X7706040Y-4068840D01*
X7706040Y-4038840D02*
X7676040Y-4068840D01*
X7701440Y-2514840D02*
X7731440Y-2544840D01*
X7731440Y-2514840D02*
X7701440Y-2544840D01*
X7701440Y-3060940D02*
X7731440Y-3090940D01*
X7731440Y-3060940D02*
X7701440Y-3090940D01*
X8285640Y-3175240D02*
X8315640Y-3205240D01*
X8315640Y-3175240D02*
X8285640Y-3205240D01*
X8590440Y-3187940D02*
X8620440Y-3217940D01*
X8620440Y-3187940D02*
X8590440Y-3217940D01*
X8717440Y-4280140D02*
X8747440Y-4310140D01*
X8747440Y-4280140D02*
X8717440Y-4310140D01*
X8717440Y-4534140D02*
X8747440Y-4564140D01*
X8747440Y-4534140D02*
X8717440Y-4564140D01*
X8717440Y-4800840D02*
X8747440Y-4830840D01*
X8747440Y-4800840D02*
X8717440Y-4830840D01*
X8717440Y-5042140D02*
X8747440Y-5072140D01*
X8747440Y-5042140D02*
X8717440Y-5072140D01*
X8717440Y-5296140D02*
X8747440Y-5326140D01*
X8747440Y-5296140D02*
X8717440Y-5326140D01*
X8717440Y-5537440D02*
X8747440Y-5567440D01*
X8747440Y-5537440D02*
X8717440Y-5567440D01*
X8717440Y-5791440D02*
X8747440Y-5821440D01*
X8747440Y-5791440D02*
X8717440Y-5821440D01*
X8730140Y-3505440D02*
X8760140Y-3535440D01*
X8760140Y-3505440D02*
X8730140Y-3535440D01*
X8730140Y-3772140D02*
X8760140Y-3802140D01*
X8760140Y-3772140D02*
X8730140Y-3802140D01*
X8730140Y-4026140D02*
X8760140Y-4056140D01*
X8760140Y-4026140D02*
X8730140Y-4056140D01*
X9758840Y-4280140D02*
X9788840Y-4310140D01*
X9788840Y-4280140D02*
X9758840Y-4310140D01*
X9758840Y-4534140D02*
X9788840Y-4564140D01*
X9788840Y-4534140D02*
X9758840Y-4564140D01*
X9758840Y-4800840D02*
X9788840Y-4830840D01*
X9788840Y-4800840D02*
X9758840Y-4830840D01*
X9758840Y-5042140D02*
X9788840Y-5072140D01*
X9788840Y-5042140D02*
X9758840Y-5072140D01*
X9758840Y-5296140D02*
X9788840Y-5326140D01*
X9788840Y-5296140D02*
X9758840Y-5326140D01*
X9758840Y-5537440D02*
X9788840Y-5567440D01*
X9788840Y-5537440D02*
X9758840Y-5567440D01*
X9758840Y-5791440D02*
X9788840Y-5821440D01*
X9788840Y-5791440D02*
X9758840Y-5821440D01*
X9771540Y-3505440D02*
X9801540Y-3535440D01*
X9801540Y-3505440D02*
X9771540Y-3535440D01*
X9771540Y-3772140D02*
X9801540Y-3802140D01*
X9801540Y-3772140D02*
X9771540Y-3802140D01*
X9771540Y-4026140D02*
X9801540Y-4056140D01*
X9801540Y-4026140D02*
X9771540Y-4056140D01*
X10812940Y-4280140D02*
X10842940Y-4310140D01*
X10842940Y-4280140D02*
X10812940Y-4310140D01*
X10812940Y-4534140D02*
X10842940Y-4564140D01*
X10842940Y-4534140D02*
X10812940Y-4564140D01*
X10812940Y-4800840D02*
X10842940Y-4830840D01*
X10842940Y-4800840D02*
X10812940Y-4830840D01*
X10812940Y-5042140D02*
X10842940Y-5072140D01*
X10842940Y-5042140D02*
X10812940Y-5072140D01*
X10812940Y-5296140D02*
X10842940Y-5326140D01*
X10842940Y-5296140D02*
X10812940Y-5326140D01*
X10812940Y-5537440D02*
X10842940Y-5567440D01*
X10842940Y-5537440D02*
X10812940Y-5567440D01*
X10812940Y-5791440D02*
X10842940Y-5821440D01*
X10842940Y-5791440D02*
X10812940Y-5821440D01*
X10825640Y-3505440D02*
X10855640Y-3535440D01*
X10855640Y-3505440D02*
X10825640Y-3535440D01*
X10825640Y-3772140D02*
X10855640Y-3802140D01*
X10855640Y-3772140D02*
X10825640Y-3802140D01*
X10825640Y-4026140D02*
X10855640Y-4056140D01*
X10855640Y-4026140D02*
X10825640Y-4056140D01*
X11867040Y-4292840D02*
X11897040Y-4322840D01*
X11897040Y-4292840D02*
X11867040Y-4322840D01*
X11867040Y-4546840D02*
X11897040Y-4576840D01*
X11897040Y-4546840D02*
X11867040Y-4576840D01*
X11867040Y-4813540D02*
X11897040Y-4843540D01*
X11897040Y-4813540D02*
X11867040Y-4843540D01*
X11867040Y-5054840D02*
X11897040Y-5084840D01*
X11897040Y-5054840D02*
X11867040Y-5084840D01*
X11867040Y-5308840D02*
X11897040Y-5338840D01*
X11897040Y-5308840D02*
X11867040Y-5338840D01*
X11867040Y-5550140D02*
X11897040Y-5580140D01*
X11897040Y-5550140D02*
X11867040Y-5580140D01*
X11867040Y-5804140D02*
X11897040Y-5834140D01*
X11897040Y-5804140D02*
X11867040Y-5834140D01*
X11879740Y-3518140D02*
X11909740Y-3548140D01*
X11909740Y-3518140D02*
X11879740Y-3548140D01*
X11879740Y-3784840D02*
X11909740Y-3814840D01*
X11909740Y-3784840D02*
X11879740Y-3814840D01*
X11879740Y-4038840D02*
X11909740Y-4068840D01*
X11909740Y-4038840D02*
X11879740Y-4068840D01*
X12527440Y-3378440D02*
X12557440Y-3408440D01*
X12557440Y-3378440D02*
X12527440Y-3408440D01*
X2661440Y-5793740D02*
G75*
G02*
X2611440Y-5793740I-25000J0D01*
G01*
X2611440Y-5793740D02*
G75*
G02*
X2661440Y-5793740I25000J0D01*
G01*
X2699540Y-5933440D02*
G75*
G02*
X2649540Y-5933440I-25000J0D01*
G01*
X2649540Y-5933440D02*
G75*
G02*
X2699540Y-5933440I25000J0D01*
G01*
X3588540Y-5984240D02*
G75*
G02*
X3538540Y-5984240I-25000J0D01*
G01*
X3538540Y-5984240D02*
G75*
G02*
X3588540Y-5984240I25000J0D01*
G01*
X4261640Y-2936240D02*
G75*
G02*
X4211640Y-2936240I-25000J0D01*
G01*
X4211640Y-2936240D02*
G75*
G02*
X4261640Y-2936240I25000J0D01*
G01*
X4642640Y-5539740D02*
G75*
G02*
X4592640Y-5539740I-25000J0D01*
G01*
X4592640Y-5539740D02*
G75*
G02*
X4642640Y-5539740I25000J0D01*
G01*
X4668040Y-5768340D02*
G75*
G02*
X4618040Y-5768340I-25000J0D01*
G01*
X4618040Y-5768340D02*
G75*
G02*
X4668040Y-5768340I25000J0D01*
G01*
X4795040Y-5285740D02*
G75*
G02*
X4745040Y-5285740I-25000J0D01*
G01*
X4745040Y-5285740D02*
G75*
G02*
X4795040Y-5285740I25000J0D01*
G01*
X4947440Y-5095240D02*
G75*
G02*
X4897440Y-5095240I-25000J0D01*
G01*
X4897440Y-5095240D02*
G75*
G02*
X4947440Y-5095240I25000J0D01*
G01*
X4998240Y-5590540D02*
G75*
G02*
X4948240Y-5590540I-25000J0D01*
G01*
X4948240Y-5590540D02*
G75*
G02*
X4998240Y-5590540I25000J0D01*
G01*
X4998240Y-5831840D02*
G75*
G02*
X4948240Y-5831840I-25000J0D01*
G01*
X4948240Y-5831840D02*
G75*
G02*
X4998240Y-5831840I25000J0D01*
G01*
X5061740Y-5209540D02*
G75*
G02*
X5011740Y-5209540I-25000J0D01*
G01*
X5011740Y-5209540D02*
G75*
G02*
X5061740Y-5209540I25000J0D01*
G01*
X5087140Y-5781040D02*
G75*
G02*
X5037140Y-5781040I-25000J0D01*
G01*
X5037140Y-5781040D02*
G75*
G02*
X5087140Y-5781040I25000J0D01*
G01*
X6446040Y-3444240D02*
G75*
G02*
X6396040Y-3444240I-25000J0D01*
G01*
X6396040Y-3444240D02*
G75*
G02*
X6446040Y-3444240I25000J0D01*
G01*
X6496840Y-3545840D02*
G75*
G02*
X6446840Y-3545840I-25000J0D01*
G01*
X6446840Y-3545840D02*
G75*
G02*
X6496840Y-3545840I25000J0D01*
G01*
X6949499Y-3439597D02*
G75*
G02*
X6899499Y-3439597I-25000J0D01*
G01*
X6899499Y-3439597D02*
G75*
G02*
X6949499Y-3439597I25000J0D01*
G01*
X13875540Y-3266440D02*
G75*
G02*
X13825540Y-3266440I-25000J0D01*
G01*
X13825540Y-3266440D02*
G75*
G02*
X13875540Y-3266440I25000J0D01*
G01*
X14402640Y-2733040D02*
G75*
G02*
X14352640Y-2733040I-25000J0D01*
G01*
X14352640Y-2733040D02*
G75*
G02*
X14402640Y-2733040I25000J0D01*
G01*
X14612140Y-2606040D02*
G75*
G02*
X14562140Y-2606040I-25000J0D01*
G01*
X14562140Y-2606040D02*
G75*
G02*
X14612140Y-2606040I25000J0D01*
G01*
X15452640Y-2796540D02*
G75*
G02*
X15402640Y-2796540I-25000J0D01*
G01*
X15402640Y-2796540D02*
G75*
G02*
X15452640Y-2796540I25000J0D01*
G01*
X16517140Y-2733040D02*
G75*
G02*
X16467140Y-2733040I-25000J0D01*
G01*
X16467140Y-2733040D02*
G75*
G02*
X16517140Y-2733040I25000J0D01*
G01*
X17545840Y-2809240D02*
G75*
G02*
X17495840Y-2809240I-25000J0D01*
G01*
X17495840Y-2809240D02*
G75*
G02*
X17545840Y-2809240I25000J0D01*
G01*
X18612640Y-2910840D02*
G75*
G02*
X18562640Y-2910840I-25000J0D01*
G01*
X18562640Y-2910840D02*
G75*
G02*
X18612640Y-2910840I25000J0D01*
G01*
X19666740Y-2974340D02*
G75*
G02*
X19616740Y-2974340I-25000J0D01*
G01*
X19616740Y-2974340D02*
G75*
G02*
X19666740Y-2974340I25000J0D01*
G01*
X20702640Y-3088640D02*
G75*
G02*
X20652640Y-3088640I-25000J0D01*
G01*
X20652640Y-3088640D02*
G75*
G02*
X20702640Y-3088640I25000J0D01*
G01*
X2961640Y-3586040D02*
X2961640Y-3676040D01*
X2916640Y-3631040D02*
X3006640Y-3631040D01*
X2961640Y-3886040D02*
X2961640Y-3976040D01*
X2916640Y-3931040D02*
X3006640Y-3931040D01*
X2961640Y-4186040D02*
X2961640Y-4276040D01*
X2916640Y-4231040D02*
X3006640Y-4231040D01*
X2961640Y-4486040D02*
X2961640Y-4576040D01*
X2916640Y-4531040D02*
X3006640Y-4531040D01*
X2961640Y-4786040D02*
X2961640Y-4876040D01*
X2916640Y-4831040D02*
X3006640Y-4831040D01*
X2961640Y-5086040D02*
X2961640Y-5176040D01*
X2916640Y-5131040D02*
X3006640Y-5131040D01*
X2961640Y-5386040D02*
X2961640Y-5476040D01*
X2916640Y-5431040D02*
X3006640Y-5431040D01*
X2961640Y-5686040D02*
X2961640Y-5776040D01*
X2916640Y-5731040D02*
X3006640Y-5731040D01*
X3215640Y-3586040D02*
X3215640Y-3676040D01*
X3170640Y-3631040D02*
X3260640Y-3631040D01*
X3215640Y-3886040D02*
X3215640Y-3976040D01*
X3170640Y-3931040D02*
X3260640Y-3931040D01*
X3215640Y-4186040D02*
X3215640Y-4276040D01*
X3170640Y-4231040D02*
X3260640Y-4231040D01*
X3215640Y-4486040D02*
X3215640Y-4576040D01*
X3170640Y-4531040D02*
X3260640Y-4531040D01*
X3215640Y-4786040D02*
X3215640Y-4876040D01*
X3170640Y-4831040D02*
X3260640Y-4831040D01*
X3215640Y-5086040D02*
X3215640Y-5176040D01*
X3170640Y-5131040D02*
X3260640Y-5131040D01*
X3215640Y-5386040D02*
X3215640Y-5476040D01*
X3170640Y-5431040D02*
X3260640Y-5431040D01*
X3215640Y-5686040D02*
X3215640Y-5776040D01*
X3170640Y-5731040D02*
X3260640Y-5731040D01*
X5247969Y-3577369D02*
X5247969Y-3512711D01*
X5183311Y-3512711D01*
X5183311Y-3577369D01*
X5247969Y-3577369D01*
X5247969Y-3831369D02*
X5247969Y-3766711D01*
X5183311Y-3766711D01*
X5183311Y-3831369D01*
X5247969Y-3831369D01*
X5247969Y-4085369D02*
X5247969Y-4020711D01*
X5183311Y-4020711D01*
X5183311Y-4085369D01*
X5247969Y-4085369D01*
X5247969Y-4339369D02*
X5247969Y-4274711D01*
X5183311Y-4274711D01*
X5183311Y-4339369D01*
X5247969Y-4339369D01*
X5247969Y-4593369D02*
X5247969Y-4528711D01*
X5183311Y-4528711D01*
X5183311Y-4593369D01*
X5247969Y-4593369D01*
X5247969Y-4847369D02*
X5247969Y-4782711D01*
X5183311Y-4782711D01*
X5183311Y-4847369D01*
X5247969Y-4847369D01*
X5247969Y-5101369D02*
X5247969Y-5036711D01*
X5183311Y-5036711D01*
X5183311Y-5101369D01*
X5247969Y-5101369D01*
X5247969Y-5355369D02*
X5247969Y-5290711D01*
X5183311Y-5290711D01*
X5183311Y-5355369D01*
X5247969Y-5355369D01*
X5247969Y-5609369D02*
X5247969Y-5544711D01*
X5183311Y-5544711D01*
X5183311Y-5609369D01*
X5247969Y-5609369D01*
X5247969Y-5863369D02*
X5247969Y-5798711D01*
X5183311Y-5798711D01*
X5183311Y-5863369D01*
X5247969Y-5863369D01*
X6009969Y-3577369D02*
X6009969Y-3512711D01*
X5945311Y-3512711D01*
X5945311Y-3577369D01*
X6009969Y-3577369D01*
X6009969Y-3831369D02*
X6009969Y-3766711D01*
X5945311Y-3766711D01*
X5945311Y-3831369D01*
X6009969Y-3831369D01*
X6009969Y-4085369D02*
X6009969Y-4020711D01*
X5945311Y-4020711D01*
X5945311Y-4085369D01*
X6009969Y-4085369D01*
X6009969Y-4339369D02*
X6009969Y-4274711D01*
X5945311Y-4274711D01*
X5945311Y-4339369D01*
X6009969Y-4339369D01*
X6009969Y-4593369D02*
X6009969Y-4528711D01*
X5945311Y-4528711D01*
X5945311Y-4593369D01*
X6009969Y-4593369D01*
X6009969Y-4847369D02*
X6009969Y-4782711D01*
X5945311Y-4782711D01*
X5945311Y-4847369D01*
X6009969Y-4847369D01*
X6009969Y-5101369D02*
X6009969Y-5036711D01*
X5945311Y-5036711D01*
X5945311Y-5101369D01*
X6009969Y-5101369D01*
X6009969Y-5355369D02*
X6009969Y-5290711D01*
X5945311Y-5290711D01*
X5945311Y-5355369D01*
X6009969Y-5355369D01*
X6009969Y-5609369D02*
X6009969Y-5544711D01*
X5945311Y-5544711D01*
X5945311Y-5609369D01*
X6009969Y-5609369D01*
X6009969Y-5863369D02*
X6009969Y-5798711D01*
X5945311Y-5798711D01*
X5945311Y-5863369D01*
X6009969Y-5863369D01*
X6297969Y-3577369D02*
X6297969Y-3512711D01*
X6233311Y-3512711D01*
X6233311Y-3577369D01*
X6297969Y-3577369D01*
X6297969Y-3831369D02*
X6297969Y-3766711D01*
X6233311Y-3766711D01*
X6233311Y-3831369D01*
X6297969Y-3831369D01*
X6297969Y-4085369D02*
X6297969Y-4020711D01*
X6233311Y-4020711D01*
X6233311Y-4085369D01*
X6297969Y-4085369D01*
X6297969Y-4339369D02*
X6297969Y-4274711D01*
X6233311Y-4274711D01*
X6233311Y-4339369D01*
X6297969Y-4339369D01*
X6297969Y-4593369D02*
X6297969Y-4528711D01*
X6233311Y-4528711D01*
X6233311Y-4593369D01*
X6297969Y-4593369D01*
X6297969Y-4847369D02*
X6297969Y-4782711D01*
X6233311Y-4782711D01*
X6233311Y-4847369D01*
X6297969Y-4847369D01*
X6297969Y-5101369D02*
X6297969Y-5036711D01*
X6233311Y-5036711D01*
X6233311Y-5101369D01*
X6297969Y-5101369D01*
X6297969Y-5355369D02*
X6297969Y-5290711D01*
X6233311Y-5290711D01*
X6233311Y-5355369D01*
X6297969Y-5355369D01*
X6297969Y-5609369D02*
X6297969Y-5544711D01*
X6233311Y-5544711D01*
X6233311Y-5609369D01*
X6297969Y-5609369D01*
X6297969Y-5863369D02*
X6297969Y-5798711D01*
X6233311Y-5798711D01*
X6233311Y-5863369D01*
X6297969Y-5863369D01*
X7059969Y-3577369D02*
X7059969Y-3512711D01*
X6995311Y-3512711D01*
X6995311Y-3577369D01*
X7059969Y-3577369D01*
X7059969Y-3831369D02*
X7059969Y-3766711D01*
X6995311Y-3766711D01*
X6995311Y-3831369D01*
X7059969Y-3831369D01*
X7059969Y-4085369D02*
X7059969Y-4020711D01*
X6995311Y-4020711D01*
X6995311Y-4085369D01*
X7059969Y-4085369D01*
X7059969Y-4339369D02*
X7059969Y-4274711D01*
X6995311Y-4274711D01*
X6995311Y-4339369D01*
X7059969Y-4339369D01*
X7059969Y-4593369D02*
X7059969Y-4528711D01*
X6995311Y-4528711D01*
X6995311Y-4593369D01*
X7059969Y-4593369D01*
X7059969Y-4847369D02*
X7059969Y-4782711D01*
X6995311Y-4782711D01*
X6995311Y-4847369D01*
X7059969Y-4847369D01*
X7059969Y-5101369D02*
X7059969Y-5036711D01*
X6995311Y-5036711D01*
X6995311Y-5101369D01*
X7059969Y-5101369D01*
X7059969Y-5355369D02*
X7059969Y-5290711D01*
X6995311Y-5290711D01*
X6995311Y-5355369D01*
X7059969Y-5355369D01*
X7059969Y-5609369D02*
X7059969Y-5544711D01*
X6995311Y-5544711D01*
X6995311Y-5609369D01*
X7059969Y-5609369D01*
X7059969Y-5863369D02*
X7059969Y-5798711D01*
X6995311Y-5798711D01*
X6995311Y-5863369D01*
X7059969Y-5863369D01*
X7347969Y-3577369D02*
X7347969Y-3512711D01*
X7283311Y-3512711D01*
X7283311Y-3577369D01*
X7347969Y-3577369D01*
X7347969Y-3831369D02*
X7347969Y-3766711D01*
X7283311Y-3766711D01*
X7283311Y-3831369D01*
X7347969Y-3831369D01*
X7347969Y-4085369D02*
X7347969Y-4020711D01*
X7283311Y-4020711D01*
X7283311Y-4085369D01*
X7347969Y-4085369D01*
X7347969Y-4339369D02*
X7347969Y-4274711D01*
X7283311Y-4274711D01*
X7283311Y-4339369D01*
X7347969Y-4339369D01*
X7347969Y-4593369D02*
X7347969Y-4528711D01*
X7283311Y-4528711D01*
X7283311Y-4593369D01*
X7347969Y-4593369D01*
X7347969Y-4847369D02*
X7347969Y-4782711D01*
X7283311Y-4782711D01*
X7283311Y-4847369D01*
X7347969Y-4847369D01*
X7347969Y-5101369D02*
X7347969Y-5036711D01*
X7283311Y-5036711D01*
X7283311Y-5101369D01*
X7347969Y-5101369D01*
X7347969Y-5355369D02*
X7347969Y-5290711D01*
X7283311Y-5290711D01*
X7283311Y-5355369D01*
X7347969Y-5355369D01*
X7347969Y-5609369D02*
X7347969Y-5544711D01*
X7283311Y-5544711D01*
X7283311Y-5609369D01*
X7347969Y-5609369D01*
X7347969Y-5863369D02*
X7347969Y-5798711D01*
X7283311Y-5798711D01*
X7283311Y-5863369D01*
X7347969Y-5863369D01*
X8109969Y-3577369D02*
X8109969Y-3512711D01*
X8045311Y-3512711D01*
X8045311Y-3577369D01*
X8109969Y-3577369D01*
X8109969Y-3831369D02*
X8109969Y-3766711D01*
X8045311Y-3766711D01*
X8045311Y-3831369D01*
X8109969Y-3831369D01*
X8109969Y-4085369D02*
X8109969Y-4020711D01*
X8045311Y-4020711D01*
X8045311Y-4085369D01*
X8109969Y-4085369D01*
X8109969Y-4339369D02*
X8109969Y-4274711D01*
X8045311Y-4274711D01*
X8045311Y-4339369D01*
X8109969Y-4339369D01*
X8109969Y-4593369D02*
X8109969Y-4528711D01*
X8045311Y-4528711D01*
X8045311Y-4593369D01*
X8109969Y-4593369D01*
X8109969Y-4847369D02*
X8109969Y-4782711D01*
X8045311Y-4782711D01*
X8045311Y-4847369D01*
X8109969Y-4847369D01*
X8109969Y-5101369D02*
X8109969Y-5036711D01*
X8045311Y-5036711D01*
X8045311Y-5101369D01*
X8109969Y-5101369D01*
X8109969Y-5355369D02*
X8109969Y-5290711D01*
X8045311Y-5290711D01*
X8045311Y-5355369D01*
X8109969Y-5355369D01*
X8109969Y-5609369D02*
X8109969Y-5544711D01*
X8045311Y-5544711D01*
X8045311Y-5609369D01*
X8109969Y-5609369D01*
X8109969Y-5863369D02*
X8109969Y-5798711D01*
X8045311Y-5798711D01*
X8045311Y-5863369D01*
X8109969Y-5863369D01*
X8397969Y-3577369D02*
X8397969Y-3512711D01*
X8333311Y-3512711D01*
X8333311Y-3577369D01*
X8397969Y-3577369D01*
X8397969Y-3831369D02*
X8397969Y-3766711D01*
X8333311Y-3766711D01*
X8333311Y-3831369D01*
X8397969Y-3831369D01*
X8397969Y-4085369D02*
X8397969Y-4020711D01*
X8333311Y-4020711D01*
X8333311Y-4085369D01*
X8397969Y-4085369D01*
X8397969Y-4339369D02*
X8397969Y-4274711D01*
X8333311Y-4274711D01*
X8333311Y-4339369D01*
X8397969Y-4339369D01*
X8397969Y-4593369D02*
X8397969Y-4528711D01*
X8333311Y-4528711D01*
X8333311Y-4593369D01*
X8397969Y-4593369D01*
X8397969Y-4847369D02*
X8397969Y-4782711D01*
X8333311Y-4782711D01*
X8333311Y-4847369D01*
X8397969Y-4847369D01*
X8397969Y-5101369D02*
X8397969Y-5036711D01*
X8333311Y-5036711D01*
X8333311Y-5101369D01*
X8397969Y-5101369D01*
X8397969Y-5355369D02*
X8397969Y-5290711D01*
X8333311Y-5290711D01*
X8333311Y-5355369D01*
X8397969Y-5355369D01*
X8397969Y-5609369D02*
X8397969Y-5544711D01*
X8333311Y-5544711D01*
X8333311Y-5609369D01*
X8397969Y-5609369D01*
X8397969Y-5863369D02*
X8397969Y-5798711D01*
X8333311Y-5798711D01*
X8333311Y-5863369D01*
X8397969Y-5863369D01*
X9159969Y-3577369D02*
X9159969Y-3512711D01*
X9095311Y-3512711D01*
X9095311Y-3577369D01*
X9159969Y-3577369D01*
X9159969Y-3831369D02*
X9159969Y-3766711D01*
X9095311Y-3766711D01*
X9095311Y-3831369D01*
X9159969Y-3831369D01*
X9159969Y-4085369D02*
X9159969Y-4020711D01*
X9095311Y-4020711D01*
X9095311Y-4085369D01*
X9159969Y-4085369D01*
X9159969Y-4339369D02*
X9159969Y-4274711D01*
X9095311Y-4274711D01*
X9095311Y-4339369D01*
X9159969Y-4339369D01*
X9159969Y-4593369D02*
X9159969Y-4528711D01*
X9095311Y-4528711D01*
X9095311Y-4593369D01*
X9159969Y-4593369D01*
X9159969Y-4847369D02*
X9159969Y-4782711D01*
X9095311Y-4782711D01*
X9095311Y-4847369D01*
X9159969Y-4847369D01*
X9159969Y-5101369D02*
X9159969Y-5036711D01*
X9095311Y-5036711D01*
X9095311Y-5101369D01*
X9159969Y-5101369D01*
X9159969Y-5355369D02*
X9159969Y-5290711D01*
X9095311Y-5290711D01*
X9095311Y-5355369D01*
X9159969Y-5355369D01*
X9159969Y-5609369D02*
X9159969Y-5544711D01*
X9095311Y-5544711D01*
X9095311Y-5609369D01*
X9159969Y-5609369D01*
X9159969Y-5863369D02*
X9159969Y-5798711D01*
X9095311Y-5798711D01*
X9095311Y-5863369D01*
X9159969Y-5863369D01*
X9447969Y-3577369D02*
X9447969Y-3512711D01*
X9383311Y-3512711D01*
X9383311Y-3577369D01*
X9447969Y-3577369D01*
X9447969Y-3831369D02*
X9447969Y-3766711D01*
X9383311Y-3766711D01*
X9383311Y-3831369D01*
X9447969Y-3831369D01*
X9447969Y-4085369D02*
X9447969Y-4020711D01*
X9383311Y-4020711D01*
X9383311Y-4085369D01*
X9447969Y-4085369D01*
X9447969Y-4339369D02*
X9447969Y-4274711D01*
X9383311Y-4274711D01*
X9383311Y-4339369D01*
X9447969Y-4339369D01*
X9447969Y-4593369D02*
X9447969Y-4528711D01*
X9383311Y-4528711D01*
X9383311Y-4593369D01*
X9447969Y-4593369D01*
X9447969Y-4847369D02*
X9447969Y-4782711D01*
X9383311Y-4782711D01*
X9383311Y-4847369D01*
X9447969Y-4847369D01*
X9447969Y-5101369D02*
X9447969Y-5036711D01*
X9383311Y-5036711D01*
X9383311Y-5101369D01*
X9447969Y-5101369D01*
X9447969Y-5355369D02*
X9447969Y-5290711D01*
X9383311Y-5290711D01*
X9383311Y-5355369D01*
X9447969Y-5355369D01*
X9447969Y-5609369D02*
X9447969Y-5544711D01*
X9383311Y-5544711D01*
X9383311Y-5609369D01*
X9447969Y-5609369D01*
X9447969Y-5863369D02*
X9447969Y-5798711D01*
X9383311Y-5798711D01*
X9383311Y-5863369D01*
X9447969Y-5863369D01*
X10209969Y-3577369D02*
X10209969Y-3512711D01*
X10145311Y-3512711D01*
X10145311Y-3577369D01*
X10209969Y-3577369D01*
X10209969Y-3831369D02*
X10209969Y-3766711D01*
X10145311Y-3766711D01*
X10145311Y-3831369D01*
X10209969Y-3831369D01*
X10209969Y-4085369D02*
X10209969Y-4020711D01*
X10145311Y-4020711D01*
X10145311Y-4085369D01*
X10209969Y-4085369D01*
X10209969Y-4339369D02*
X10209969Y-4274711D01*
X10145311Y-4274711D01*
X10145311Y-4339369D01*
X10209969Y-4339369D01*
X10209969Y-4593369D02*
X10209969Y-4528711D01*
X10145311Y-4528711D01*
X10145311Y-4593369D01*
X10209969Y-4593369D01*
X10209969Y-4847369D02*
X10209969Y-4782711D01*
X10145311Y-4782711D01*
X10145311Y-4847369D01*
X10209969Y-4847369D01*
X10209969Y-5101369D02*
X10209969Y-5036711D01*
X10145311Y-5036711D01*
X10145311Y-5101369D01*
X10209969Y-5101369D01*
X10209969Y-5355369D02*
X10209969Y-5290711D01*
X10145311Y-5290711D01*
X10145311Y-5355369D01*
X10209969Y-5355369D01*
X10209969Y-5609369D02*
X10209969Y-5544711D01*
X10145311Y-5544711D01*
X10145311Y-5609369D01*
X10209969Y-5609369D01*
X10209969Y-5863369D02*
X10209969Y-5798711D01*
X10145311Y-5798711D01*
X10145311Y-5863369D01*
X10209969Y-5863369D01*
X10497969Y-3577369D02*
X10497969Y-3512711D01*
X10433311Y-3512711D01*
X10433311Y-3577369D01*
X10497969Y-3577369D01*
X10497969Y-3831369D02*
X10497969Y-3766711D01*
X10433311Y-3766711D01*
X10433311Y-3831369D01*
X10497969Y-3831369D01*
X10497969Y-4085369D02*
X10497969Y-4020711D01*
X10433311Y-4020711D01*
X10433311Y-4085369D01*
X10497969Y-4085369D01*
X10497969Y-4339369D02*
X10497969Y-4274711D01*
X10433311Y-4274711D01*
X10433311Y-4339369D01*
X10497969Y-4339369D01*
X10497969Y-4593369D02*
X10497969Y-4528711D01*
X10433311Y-4528711D01*
X10433311Y-4593369D01*
X10497969Y-4593369D01*
X10497969Y-4847369D02*
X10497969Y-4782711D01*
X10433311Y-4782711D01*
X10433311Y-4847369D01*
X10497969Y-4847369D01*
X10497969Y-5101369D02*
X10497969Y-5036711D01*
X10433311Y-5036711D01*
X10433311Y-5101369D01*
X10497969Y-5101369D01*
X10497969Y-5355369D02*
X10497969Y-5290711D01*
X10433311Y-5290711D01*
X10433311Y-5355369D01*
X10497969Y-5355369D01*
X10497969Y-5609369D02*
X10497969Y-5544711D01*
X10433311Y-5544711D01*
X10433311Y-5609369D01*
X10497969Y-5609369D01*
X10497969Y-5863369D02*
X10497969Y-5798711D01*
X10433311Y-5798711D01*
X10433311Y-5863369D01*
X10497969Y-5863369D01*
X11259969Y-3577369D02*
X11259969Y-3512711D01*
X11195311Y-3512711D01*
X11195311Y-3577369D01*
X11259969Y-3577369D01*
X11259969Y-3831369D02*
X11259969Y-3766711D01*
X11195311Y-3766711D01*
X11195311Y-3831369D01*
X11259969Y-3831369D01*
X11259969Y-4085369D02*
X11259969Y-4020711D01*
X11195311Y-4020711D01*
X11195311Y-4085369D01*
X11259969Y-4085369D01*
X11259969Y-4339369D02*
X11259969Y-4274711D01*
X11195311Y-4274711D01*
X11195311Y-4339369D01*
X11259969Y-4339369D01*
X11259969Y-4593369D02*
X11259969Y-4528711D01*
X11195311Y-4528711D01*
X11195311Y-4593369D01*
X11259969Y-4593369D01*
X11259969Y-4847369D02*
X11259969Y-4782711D01*
X11195311Y-4782711D01*
X11195311Y-4847369D01*
X11259969Y-4847369D01*
X11259969Y-5101369D02*
X11259969Y-5036711D01*
X11195311Y-5036711D01*
X11195311Y-5101369D01*
X11259969Y-5101369D01*
X11259969Y-5355369D02*
X11259969Y-5290711D01*
X11195311Y-5290711D01*
X11195311Y-5355369D01*
X11259969Y-5355369D01*
X11259969Y-5609369D02*
X11259969Y-5544711D01*
X11195311Y-5544711D01*
X11195311Y-5609369D01*
X11259969Y-5609369D01*
X11259969Y-5863369D02*
X11259969Y-5798711D01*
X11195311Y-5798711D01*
X11195311Y-5863369D01*
X11259969Y-5863369D01*
X11547969Y-3577369D02*
X11547969Y-3512711D01*
X11483311Y-3512711D01*
X11483311Y-3577369D01*
X11547969Y-3577369D01*
X11547969Y-3831369D02*
X11547969Y-3766711D01*
X11483311Y-3766711D01*
X11483311Y-3831369D01*
X11547969Y-3831369D01*
X11547969Y-4085369D02*
X11547969Y-4020711D01*
X11483311Y-4020711D01*
X11483311Y-4085369D01*
X11547969Y-4085369D01*
X11547969Y-4339369D02*
X11547969Y-4274711D01*
X11483311Y-4274711D01*
X11483311Y-4339369D01*
X11547969Y-4339369D01*
X11547969Y-4593369D02*
X11547969Y-4528711D01*
X11483311Y-4528711D01*
X11483311Y-4593369D01*
X11547969Y-4593369D01*
X11547969Y-4847369D02*
X11547969Y-4782711D01*
X11483311Y-4782711D01*
X11483311Y-4847369D01*
X11547969Y-4847369D01*
X11547969Y-5101369D02*
X11547969Y-5036711D01*
X11483311Y-5036711D01*
X11483311Y-5101369D01*
X11547969Y-5101369D01*
X11547969Y-5355369D02*
X11547969Y-5290711D01*
X11483311Y-5290711D01*
X11483311Y-5355369D01*
X11547969Y-5355369D01*
X11547969Y-5609369D02*
X11547969Y-5544711D01*
X11483311Y-5544711D01*
X11483311Y-5609369D01*
X11547969Y-5609369D01*
X11547969Y-5863369D02*
X11547969Y-5798711D01*
X11483311Y-5798711D01*
X11483311Y-5863369D01*
X11547969Y-5863369D01*
X12309969Y-3577369D02*
X12309969Y-3512711D01*
X12245311Y-3512711D01*
X12245311Y-3577369D01*
X12309969Y-3577369D01*
X12309969Y-3831369D02*
X12309969Y-3766711D01*
X12245311Y-3766711D01*
X12245311Y-3831369D01*
X12309969Y-3831369D01*
X12309969Y-4085369D02*
X12309969Y-4020711D01*
X12245311Y-4020711D01*
X12245311Y-4085369D01*
X12309969Y-4085369D01*
X12309969Y-4339369D02*
X12309969Y-4274711D01*
X12245311Y-4274711D01*
X12245311Y-4339369D01*
X12309969Y-4339369D01*
X12309969Y-4593369D02*
X12309969Y-4528711D01*
X12245311Y-4528711D01*
X12245311Y-4593369D01*
X12309969Y-4593369D01*
X12309969Y-4847369D02*
X12309969Y-4782711D01*
X12245311Y-4782711D01*
X12245311Y-4847369D01*
X12309969Y-4847369D01*
X12309969Y-5101369D02*
X12309969Y-5036711D01*
X12245311Y-5036711D01*
X12245311Y-5101369D01*
X12309969Y-5101369D01*
X12309969Y-5355369D02*
X12309969Y-5290711D01*
X12245311Y-5290711D01*
X12245311Y-5355369D01*
X12309969Y-5355369D01*
X12309969Y-5609369D02*
X12309969Y-5544711D01*
X12245311Y-5544711D01*
X12245311Y-5609369D01*
X12309969Y-5609369D01*
X12309969Y-5863369D02*
X12309969Y-5798711D01*
X12245311Y-5798711D01*
X12245311Y-5863369D01*
X12309969Y-5863369D01*
X12597969Y-3577369D02*
X12597969Y-3512711D01*
X12533311Y-3512711D01*
X12533311Y-3577369D01*
X12597969Y-3577369D01*
X12597969Y-3831369D02*
X12597969Y-3766711D01*
X12533311Y-3766711D01*
X12533311Y-3831369D01*
X12597969Y-3831369D01*
X12597969Y-4085369D02*
X12597969Y-4020711D01*
X12533311Y-4020711D01*
X12533311Y-4085369D01*
X12597969Y-4085369D01*
X12597969Y-4339369D02*
X12597969Y-4274711D01*
X12533311Y-4274711D01*
X12533311Y-4339369D01*
X12597969Y-4339369D01*
X12597969Y-4593369D02*
X12597969Y-4528711D01*
X12533311Y-4528711D01*
X12533311Y-4593369D01*
X12597969Y-4593369D01*
X12597969Y-4847369D02*
X12597969Y-4782711D01*
X12533311Y-4782711D01*
X12533311Y-4847369D01*
X12597969Y-4847369D01*
X12597969Y-5101369D02*
X12597969Y-5036711D01*
X12533311Y-5036711D01*
X12533311Y-5101369D01*
X12597969Y-5101369D01*
X12597969Y-5355369D02*
X12597969Y-5290711D01*
X12533311Y-5290711D01*
X12533311Y-5355369D01*
X12597969Y-5355369D01*
X12597969Y-5609369D02*
X12597969Y-5544711D01*
X12533311Y-5544711D01*
X12533311Y-5609369D01*
X12597969Y-5609369D01*
X12597969Y-5863369D02*
X12597969Y-5798711D01*
X12533311Y-5798711D01*
X12533311Y-5863369D01*
X12597969Y-5863369D01*
X13359969Y-3577369D02*
X13359969Y-3512711D01*
X13295311Y-3512711D01*
X13295311Y-3577369D01*
X13359969Y-3577369D01*
X13359969Y-3831369D02*
X13359969Y-3766711D01*
X13295311Y-3766711D01*
X13295311Y-3831369D01*
X13359969Y-3831369D01*
X13359969Y-4085369D02*
X13359969Y-4020711D01*
X13295311Y-4020711D01*
X13295311Y-4085369D01*
X13359969Y-4085369D01*
X13359969Y-4339369D02*
X13359969Y-4274711D01*
X13295311Y-4274711D01*
X13295311Y-4339369D01*
X13359969Y-4339369D01*
X13359969Y-4593369D02*
X13359969Y-4528711D01*
X13295311Y-4528711D01*
X13295311Y-4593369D01*
X13359969Y-4593369D01*
X13359969Y-4847369D02*
X13359969Y-4782711D01*
X13295311Y-4782711D01*
X13295311Y-4847369D01*
X13359969Y-4847369D01*
X13359969Y-5101369D02*
X13359969Y-5036711D01*
X13295311Y-5036711D01*
X13295311Y-5101369D01*
X13359969Y-5101369D01*
X13359969Y-5355369D02*
X13359969Y-5290711D01*
X13295311Y-5290711D01*
X13295311Y-5355369D01*
X13359969Y-5355369D01*
X13359969Y-5609369D02*
X13359969Y-5544711D01*
X13295311Y-5544711D01*
X13295311Y-5609369D01*
X13359969Y-5609369D01*
X13359969Y-5863369D02*
X13359969Y-5798711D01*
X13295311Y-5798711D01*
X13295311Y-5863369D01*
X13359969Y-5863369D01*
X13647969Y-3577369D02*
X13647969Y-3512711D01*
X13583311Y-3512711D01*
X13583311Y-3577369D01*
X13647969Y-3577369D01*
X13647969Y-3831369D02*
X13647969Y-3766711D01*
X13583311Y-3766711D01*
X13583311Y-3831369D01*
X13647969Y-3831369D01*
X13647969Y-4085369D02*
X13647969Y-4020711D01*
X13583311Y-4020711D01*
X13583311Y-4085369D01*
X13647969Y-4085369D01*
X13647969Y-4339369D02*
X13647969Y-4274711D01*
X13583311Y-4274711D01*
X13583311Y-4339369D01*
X13647969Y-4339369D01*
X13647969Y-4593369D02*
X13647969Y-4528711D01*
X13583311Y-4528711D01*
X13583311Y-4593369D01*
X13647969Y-4593369D01*
X13647969Y-4847369D02*
X13647969Y-4782711D01*
X13583311Y-4782711D01*
X13583311Y-4847369D01*
X13647969Y-4847369D01*
X13647969Y-5101369D02*
X13647969Y-5036711D01*
X13583311Y-5036711D01*
X13583311Y-5101369D01*
X13647969Y-5101369D01*
X13647969Y-5355369D02*
X13647969Y-5290711D01*
X13583311Y-5290711D01*
X13583311Y-5355369D01*
X13647969Y-5355369D01*
X13647969Y-5609369D02*
X13647969Y-5544711D01*
X13583311Y-5544711D01*
X13583311Y-5609369D01*
X13647969Y-5609369D01*
X13647969Y-5863369D02*
X13647969Y-5798711D01*
X13583311Y-5798711D01*
X13583311Y-5863369D01*
X13647969Y-5863369D01*
X14409969Y-3577369D02*
X14409969Y-3512711D01*
X14345311Y-3512711D01*
X14345311Y-3577369D01*
X14409969Y-3577369D01*
X14409969Y-3831369D02*
X14409969Y-3766711D01*
X14345311Y-3766711D01*
X14345311Y-3831369D01*
X14409969Y-3831369D01*
X14409969Y-4085369D02*
X14409969Y-4020711D01*
X14345311Y-4020711D01*
X14345311Y-4085369D01*
X14409969Y-4085369D01*
X14409969Y-4339369D02*
X14409969Y-4274711D01*
X14345311Y-4274711D01*
X14345311Y-4339369D01*
X14409969Y-4339369D01*
X14409969Y-4593369D02*
X14409969Y-4528711D01*
X14345311Y-4528711D01*
X14345311Y-4593369D01*
X14409969Y-4593369D01*
X14409969Y-4847369D02*
X14409969Y-4782711D01*
X14345311Y-4782711D01*
X14345311Y-4847369D01*
X14409969Y-4847369D01*
X14409969Y-5101369D02*
X14409969Y-5036711D01*
X14345311Y-5036711D01*
X14345311Y-5101369D01*
X14409969Y-5101369D01*
X14409969Y-5355369D02*
X14409969Y-5290711D01*
X14345311Y-5290711D01*
X14345311Y-5355369D01*
X14409969Y-5355369D01*
X14409969Y-5609369D02*
X14409969Y-5544711D01*
X14345311Y-5544711D01*
X14345311Y-5609369D01*
X14409969Y-5609369D01*
X14409969Y-5863369D02*
X14409969Y-5798711D01*
X14345311Y-5798711D01*
X14345311Y-5863369D01*
X14409969Y-5863369D01*
X14697969Y-3577369D02*
X14697969Y-3512711D01*
X14633311Y-3512711D01*
X14633311Y-3577369D01*
X14697969Y-3577369D01*
X14697969Y-3831369D02*
X14697969Y-3766711D01*
X14633311Y-3766711D01*
X14633311Y-3831369D01*
X14697969Y-3831369D01*
X14697969Y-4085369D02*
X14697969Y-4020711D01*
X14633311Y-4020711D01*
X14633311Y-4085369D01*
X14697969Y-4085369D01*
X14697969Y-4339369D02*
X14697969Y-4274711D01*
X14633311Y-4274711D01*
X14633311Y-4339369D01*
X14697969Y-4339369D01*
X14697969Y-4593369D02*
X14697969Y-4528711D01*
X14633311Y-4528711D01*
X14633311Y-4593369D01*
X14697969Y-4593369D01*
X14697969Y-4847369D02*
X14697969Y-4782711D01*
X14633311Y-4782711D01*
X14633311Y-4847369D01*
X14697969Y-4847369D01*
X14697969Y-5101369D02*
X14697969Y-5036711D01*
X14633311Y-5036711D01*
X14633311Y-5101369D01*
X14697969Y-5101369D01*
X14697969Y-5355369D02*
X14697969Y-5290711D01*
X14633311Y-5290711D01*
X14633311Y-5355369D01*
X14697969Y-5355369D01*
X14697969Y-5609369D02*
X14697969Y-5544711D01*
X14633311Y-5544711D01*
X14633311Y-5609369D01*
X14697969Y-5609369D01*
X14697969Y-5863369D02*
X14697969Y-5798711D01*
X14633311Y-5798711D01*
X14633311Y-5863369D01*
X14697969Y-5863369D01*
X15459969Y-3577369D02*
X15459969Y-3512711D01*
X15395311Y-3512711D01*
X15395311Y-3577369D01*
X15459969Y-3577369D01*
X15459969Y-3831369D02*
X15459969Y-3766711D01*
X15395311Y-3766711D01*
X15395311Y-3831369D01*
X15459969Y-3831369D01*
X15459969Y-4085369D02*
X15459969Y-4020711D01*
X15395311Y-4020711D01*
X15395311Y-4085369D01*
X15459969Y-4085369D01*
X15459969Y-4339369D02*
X15459969Y-4274711D01*
X15395311Y-4274711D01*
X15395311Y-4339369D01*
X15459969Y-4339369D01*
X15459969Y-4593369D02*
X15459969Y-4528711D01*
X15395311Y-4528711D01*
X15395311Y-4593369D01*
X15459969Y-4593369D01*
X15459969Y-4847369D02*
X15459969Y-4782711D01*
X15395311Y-4782711D01*
X15395311Y-4847369D01*
X15459969Y-4847369D01*
X15459969Y-5101369D02*
X15459969Y-5036711D01*
X15395311Y-5036711D01*
X15395311Y-5101369D01*
X15459969Y-5101369D01*
X15459969Y-5355369D02*
X15459969Y-5290711D01*
X15395311Y-5290711D01*
X15395311Y-5355369D01*
X15459969Y-5355369D01*
X15459969Y-5609369D02*
X15459969Y-5544711D01*
X15395311Y-5544711D01*
X15395311Y-5609369D01*
X15459969Y-5609369D01*
X15459969Y-5863369D02*
X15459969Y-5798711D01*
X15395311Y-5798711D01*
X15395311Y-5863369D01*
X15459969Y-5863369D01*
X15747969Y-3577369D02*
X15747969Y-3512711D01*
X15683311Y-3512711D01*
X15683311Y-3577369D01*
X15747969Y-3577369D01*
X15747969Y-3831369D02*
X15747969Y-3766711D01*
X15683311Y-3766711D01*
X15683311Y-3831369D01*
X15747969Y-3831369D01*
X15747969Y-4085369D02*
X15747969Y-4020711D01*
X15683311Y-4020711D01*
X15683311Y-4085369D01*
X15747969Y-4085369D01*
X15747969Y-4339369D02*
X15747969Y-4274711D01*
X15683311Y-4274711D01*
X15683311Y-4339369D01*
X15747969Y-4339369D01*
X15747969Y-4593369D02*
X15747969Y-4528711D01*
X15683311Y-4528711D01*
X15683311Y-4593369D01*
X15747969Y-4593369D01*
X15747969Y-4847369D02*
X15747969Y-4782711D01*
X15683311Y-4782711D01*
X15683311Y-4847369D01*
X15747969Y-4847369D01*
X15747969Y-5101369D02*
X15747969Y-5036711D01*
X15683311Y-5036711D01*
X15683311Y-5101369D01*
X15747969Y-5101369D01*
X15747969Y-5355369D02*
X15747969Y-5290711D01*
X15683311Y-5290711D01*
X15683311Y-5355369D01*
X15747969Y-5355369D01*
X15747969Y-5609369D02*
X15747969Y-5544711D01*
X15683311Y-5544711D01*
X15683311Y-5609369D01*
X15747969Y-5609369D01*
X15747969Y-5863369D02*
X15747969Y-5798711D01*
X15683311Y-5798711D01*
X15683311Y-5863369D01*
X15747969Y-5863369D01*
X16509969Y-3577369D02*
X16509969Y-3512711D01*
X16445311Y-3512711D01*
X16445311Y-3577369D01*
X16509969Y-3577369D01*
X16509969Y-3831369D02*
X16509969Y-3766711D01*
X16445311Y-3766711D01*
X16445311Y-3831369D01*
X16509969Y-3831369D01*
X16509969Y-4085369D02*
X16509969Y-4020711D01*
X16445311Y-4020711D01*
X16445311Y-4085369D01*
X16509969Y-4085369D01*
X16509969Y-4339369D02*
X16509969Y-4274711D01*
X16445311Y-4274711D01*
X16445311Y-4339369D01*
X16509969Y-4339369D01*
X16509969Y-4593369D02*
X16509969Y-4528711D01*
X16445311Y-4528711D01*
X16445311Y-4593369D01*
X16509969Y-4593369D01*
X16509969Y-4847369D02*
X16509969Y-4782711D01*
X16445311Y-4782711D01*
X16445311Y-4847369D01*
X16509969Y-4847369D01*
X16509969Y-5101369D02*
X16509969Y-5036711D01*
X16445311Y-5036711D01*
X16445311Y-5101369D01*
X16509969Y-5101369D01*
X16509969Y-5355369D02*
X16509969Y-5290711D01*
X16445311Y-5290711D01*
X16445311Y-5355369D01*
X16509969Y-5355369D01*
X16509969Y-5609369D02*
X16509969Y-5544711D01*
X16445311Y-5544711D01*
X16445311Y-5609369D01*
X16509969Y-5609369D01*
X16509969Y-5863369D02*
X16509969Y-5798711D01*
X16445311Y-5798711D01*
X16445311Y-5863369D01*
X16509969Y-5863369D01*
X16797969Y-3577369D02*
X16797969Y-3512711D01*
X16733311Y-3512711D01*
X16733311Y-3577369D01*
X16797969Y-3577369D01*
X16797969Y-3831369D02*
X16797969Y-3766711D01*
X16733311Y-3766711D01*
X16733311Y-3831369D01*
X16797969Y-3831369D01*
X16797969Y-4085369D02*
X16797969Y-4020711D01*
X16733311Y-4020711D01*
X16733311Y-4085369D01*
X16797969Y-4085369D01*
X16797969Y-4339369D02*
X16797969Y-4274711D01*
X16733311Y-4274711D01*
X16733311Y-4339369D01*
X16797969Y-4339369D01*
X16797969Y-4593369D02*
X16797969Y-4528711D01*
X16733311Y-4528711D01*
X16733311Y-4593369D01*
X16797969Y-4593369D01*
X16797969Y-4847369D02*
X16797969Y-4782711D01*
X16733311Y-4782711D01*
X16733311Y-4847369D01*
X16797969Y-4847369D01*
X16797969Y-5101369D02*
X16797969Y-5036711D01*
X16733311Y-5036711D01*
X16733311Y-5101369D01*
X16797969Y-5101369D01*
X16797969Y-5355369D02*
X16797969Y-5290711D01*
X16733311Y-5290711D01*
X16733311Y-5355369D01*
X16797969Y-5355369D01*
X16797969Y-5609369D02*
X16797969Y-5544711D01*
X16733311Y-5544711D01*
X16733311Y-5609369D01*
X16797969Y-5609369D01*
X16797969Y-5863369D02*
X16797969Y-5798711D01*
X16733311Y-5798711D01*
X16733311Y-5863369D01*
X16797969Y-5863369D01*
X17559969Y-3577369D02*
X17559969Y-3512711D01*
X17495311Y-3512711D01*
X17495311Y-3577369D01*
X17559969Y-3577369D01*
X17559969Y-3831369D02*
X17559969Y-3766711D01*
X17495311Y-3766711D01*
X17495311Y-3831369D01*
X17559969Y-3831369D01*
X17559969Y-4085369D02*
X17559969Y-4020711D01*
X17495311Y-4020711D01*
X17495311Y-4085369D01*
X17559969Y-4085369D01*
X17559969Y-4339369D02*
X17559969Y-4274711D01*
X17495311Y-4274711D01*
X17495311Y-4339369D01*
X17559969Y-4339369D01*
X17559969Y-4593369D02*
X17559969Y-4528711D01*
X17495311Y-4528711D01*
X17495311Y-4593369D01*
X17559969Y-4593369D01*
X17559969Y-4847369D02*
X17559969Y-4782711D01*
X17495311Y-4782711D01*
X17495311Y-4847369D01*
X17559969Y-4847369D01*
X17559969Y-5101369D02*
X17559969Y-5036711D01*
X17495311Y-5036711D01*
X17495311Y-5101369D01*
X17559969Y-5101369D01*
X17559969Y-5355369D02*
X17559969Y-5290711D01*
X17495311Y-5290711D01*
X17495311Y-5355369D01*
X17559969Y-5355369D01*
X17559969Y-5609369D02*
X17559969Y-5544711D01*
X17495311Y-5544711D01*
X17495311Y-5609369D01*
X17559969Y-5609369D01*
X17559969Y-5863369D02*
X17559969Y-5798711D01*
X17495311Y-5798711D01*
X17495311Y-5863369D01*
X17559969Y-5863369D01*
X17847969Y-3577369D02*
X17847969Y-3512711D01*
X17783311Y-3512711D01*
X17783311Y-3577369D01*
X17847969Y-3577369D01*
X17847969Y-3831369D02*
X17847969Y-3766711D01*
X17783311Y-3766711D01*
X17783311Y-3831369D01*
X17847969Y-3831369D01*
X17847969Y-4085369D02*
X17847969Y-4020711D01*
X17783311Y-4020711D01*
X17783311Y-4085369D01*
X17847969Y-4085369D01*
X17847969Y-4339369D02*
X17847969Y-4274711D01*
X17783311Y-4274711D01*
X17783311Y-4339369D01*
X17847969Y-4339369D01*
X17847969Y-4593369D02*
X17847969Y-4528711D01*
X17783311Y-4528711D01*
X17783311Y-4593369D01*
X17847969Y-4593369D01*
X17847969Y-4847369D02*
X17847969Y-4782711D01*
X17783311Y-4782711D01*
X17783311Y-4847369D01*
X17847969Y-4847369D01*
X17847969Y-5101369D02*
X17847969Y-5036711D01*
X17783311Y-5036711D01*
X17783311Y-5101369D01*
X17847969Y-5101369D01*
X17847969Y-5355369D02*
X17847969Y-5290711D01*
X17783311Y-5290711D01*
X17783311Y-5355369D01*
X17847969Y-5355369D01*
X17847969Y-5609369D02*
X17847969Y-5544711D01*
X17783311Y-5544711D01*
X17783311Y-5609369D01*
X17847969Y-5609369D01*
X17847969Y-5863369D02*
X17847969Y-5798711D01*
X17783311Y-5798711D01*
X17783311Y-5863369D01*
X17847969Y-5863369D01*
X18609969Y-3577369D02*
X18609969Y-3512711D01*
X18545311Y-3512711D01*
X18545311Y-3577369D01*
X18609969Y-3577369D01*
X18609969Y-3831369D02*
X18609969Y-3766711D01*
X18545311Y-3766711D01*
X18545311Y-3831369D01*
X18609969Y-3831369D01*
X18609969Y-4085369D02*
X18609969Y-4020711D01*
X18545311Y-4020711D01*
X18545311Y-4085369D01*
X18609969Y-4085369D01*
X18609969Y-4339369D02*
X18609969Y-4274711D01*
X18545311Y-4274711D01*
X18545311Y-4339369D01*
X18609969Y-4339369D01*
X18609969Y-4593369D02*
X18609969Y-4528711D01*
X18545311Y-4528711D01*
X18545311Y-4593369D01*
X18609969Y-4593369D01*
X18609969Y-4847369D02*
X18609969Y-4782711D01*
X18545311Y-4782711D01*
X18545311Y-4847369D01*
X18609969Y-4847369D01*
X18609969Y-5101369D02*
X18609969Y-5036711D01*
X18545311Y-5036711D01*
X18545311Y-5101369D01*
X18609969Y-5101369D01*
X18609969Y-5355369D02*
X18609969Y-5290711D01*
X18545311Y-5290711D01*
X18545311Y-5355369D01*
X18609969Y-5355369D01*
X18609969Y-5609369D02*
X18609969Y-5544711D01*
X18545311Y-5544711D01*
X18545311Y-5609369D01*
X18609969Y-5609369D01*
X18609969Y-5863369D02*
X18609969Y-5798711D01*
X18545311Y-5798711D01*
X18545311Y-5863369D01*
X18609969Y-5863369D01*
X18897969Y-3577369D02*
X18897969Y-3512711D01*
X18833311Y-3512711D01*
X18833311Y-3577369D01*
X18897969Y-3577369D01*
X18897969Y-3831369D02*
X18897969Y-3766711D01*
X18833311Y-3766711D01*
X18833311Y-3831369D01*
X18897969Y-3831369D01*
X18897969Y-4085369D02*
X18897969Y-4020711D01*
X18833311Y-4020711D01*
X18833311Y-4085369D01*
X18897969Y-4085369D01*
X18897969Y-4339369D02*
X18897969Y-4274711D01*
X18833311Y-4274711D01*
X18833311Y-4339369D01*
X18897969Y-4339369D01*
X18897969Y-4593369D02*
X18897969Y-4528711D01*
X18833311Y-4528711D01*
X18833311Y-4593369D01*
X18897969Y-4593369D01*
X18897969Y-4847369D02*
X18897969Y-4782711D01*
X18833311Y-4782711D01*
X18833311Y-4847369D01*
X18897969Y-4847369D01*
X18897969Y-5101369D02*
X18897969Y-5036711D01*
X18833311Y-5036711D01*
X18833311Y-5101369D01*
X18897969Y-5101369D01*
X18897969Y-5355369D02*
X18897969Y-5290711D01*
X18833311Y-5290711D01*
X18833311Y-5355369D01*
X18897969Y-5355369D01*
X18897969Y-5609369D02*
X18897969Y-5544711D01*
X18833311Y-5544711D01*
X18833311Y-5609369D01*
X18897969Y-5609369D01*
X18897969Y-5863369D02*
X18897969Y-5798711D01*
X18833311Y-5798711D01*
X18833311Y-5863369D01*
X18897969Y-5863369D01*
X19659969Y-3577369D02*
X19659969Y-3512711D01*
X19595311Y-3512711D01*
X19595311Y-3577369D01*
X19659969Y-3577369D01*
X19659969Y-3831369D02*
X19659969Y-3766711D01*
X19595311Y-3766711D01*
X19595311Y-3831369D01*
X19659969Y-3831369D01*
X19659969Y-4085369D02*
X19659969Y-4020711D01*
X19595311Y-4020711D01*
X19595311Y-4085369D01*
X19659969Y-4085369D01*
X19659969Y-4339369D02*
X19659969Y-4274711D01*
X19595311Y-4274711D01*
X19595311Y-4339369D01*
X19659969Y-4339369D01*
X19659969Y-4593369D02*
X19659969Y-4528711D01*
X19595311Y-4528711D01*
X19595311Y-4593369D01*
X19659969Y-4593369D01*
X19659969Y-4847369D02*
X19659969Y-4782711D01*
X19595311Y-4782711D01*
X19595311Y-4847369D01*
X19659969Y-4847369D01*
X19659969Y-5101369D02*
X19659969Y-5036711D01*
X19595311Y-5036711D01*
X19595311Y-5101369D01*
X19659969Y-5101369D01*
X19659969Y-5355369D02*
X19659969Y-5290711D01*
X19595311Y-5290711D01*
X19595311Y-5355369D01*
X19659969Y-5355369D01*
X19659969Y-5609369D02*
X19659969Y-5544711D01*
X19595311Y-5544711D01*
X19595311Y-5609369D01*
X19659969Y-5609369D01*
X19659969Y-5863369D02*
X19659969Y-5798711D01*
X19595311Y-5798711D01*
X19595311Y-5863369D01*
X19659969Y-5863369D01*
X19947969Y-3577369D02*
X19947969Y-3512711D01*
X19883311Y-3512711D01*
X19883311Y-3577369D01*
X19947969Y-3577369D01*
X19947969Y-3831369D02*
X19947969Y-3766711D01*
X19883311Y-3766711D01*
X19883311Y-3831369D01*
X19947969Y-3831369D01*
X19947969Y-4085369D02*
X19947969Y-4020711D01*
X19883311Y-4020711D01*
X19883311Y-4085369D01*
X19947969Y-4085369D01*
X19947969Y-4339369D02*
X19947969Y-4274711D01*
X19883311Y-4274711D01*
X19883311Y-4339369D01*
X19947969Y-4339369D01*
X19947969Y-4593369D02*
X19947969Y-4528711D01*
X19883311Y-4528711D01*
X19883311Y-4593369D01*
X19947969Y-4593369D01*
X19947969Y-4847369D02*
X19947969Y-4782711D01*
X19883311Y-4782711D01*
X19883311Y-4847369D01*
X19947969Y-4847369D01*
X19947969Y-5101369D02*
X19947969Y-5036711D01*
X19883311Y-5036711D01*
X19883311Y-5101369D01*
X19947969Y-5101369D01*
X19947969Y-5355369D02*
X19947969Y-5290711D01*
X19883311Y-5290711D01*
X19883311Y-5355369D01*
X19947969Y-5355369D01*
X19947969Y-5609369D02*
X19947969Y-5544711D01*
X19883311Y-5544711D01*
X19883311Y-5609369D01*
X19947969Y-5609369D01*
X19947969Y-5863369D02*
X19947969Y-5798711D01*
X19883311Y-5798711D01*
X19883311Y-5863369D01*
X19947969Y-5863369D01*
X20709969Y-3577369D02*
X20709969Y-3512711D01*
X20645311Y-3512711D01*
X20645311Y-3577369D01*
X20709969Y-3577369D01*
X20709969Y-3831369D02*
X20709969Y-3766711D01*
X20645311Y-3766711D01*
X20645311Y-3831369D01*
X20709969Y-3831369D01*
X20709969Y-4085369D02*
X20709969Y-4020711D01*
X20645311Y-4020711D01*
X20645311Y-4085369D01*
X20709969Y-4085369D01*
X20709969Y-4339369D02*
X20709969Y-4274711D01*
X20645311Y-4274711D01*
X20645311Y-4339369D01*
X20709969Y-4339369D01*
X20709969Y-4593369D02*
X20709969Y-4528711D01*
X20645311Y-4528711D01*
X20645311Y-4593369D01*
X20709969Y-4593369D01*
X20709969Y-4847369D02*
X20709969Y-4782711D01*
X20645311Y-4782711D01*
X20645311Y-4847369D01*
X20709969Y-4847369D01*
X20709969Y-5101369D02*
X20709969Y-5036711D01*
X20645311Y-5036711D01*
X20645311Y-5101369D01*
X20709969Y-5101369D01*
X20709969Y-5355369D02*
X20709969Y-5290711D01*
X20645311Y-5290711D01*
X20645311Y-5355369D01*
X20709969Y-5355369D01*
X20709969Y-5609369D02*
X20709969Y-5544711D01*
X20645311Y-5544711D01*
X20645311Y-5609369D01*
X20709969Y-5609369D01*
X20709969Y-5863369D02*
X20709969Y-5798711D01*
X20645311Y-5798711D01*
X20645311Y-5863369D01*
X20709969Y-5863369D01*
X20997969Y-3577369D02*
X20997969Y-3512711D01*
X20933311Y-3512711D01*
X20933311Y-3577369D01*
X20997969Y-3577369D01*
X20997969Y-3831369D02*
X20997969Y-3766711D01*
X20933311Y-3766711D01*
X20933311Y-3831369D01*
X20997969Y-3831369D01*
X20997969Y-4085369D02*
X20997969Y-4020711D01*
X20933311Y-4020711D01*
X20933311Y-4085369D01*
X20997969Y-4085369D01*
X20997969Y-4339369D02*
X20997969Y-4274711D01*
X20933311Y-4274711D01*
X20933311Y-4339369D01*
X20997969Y-4339369D01*
X20997969Y-4593369D02*
X20997969Y-4528711D01*
X20933311Y-4528711D01*
X20933311Y-4593369D01*
X20997969Y-4593369D01*
X20997969Y-4847369D02*
X20997969Y-4782711D01*
X20933311Y-4782711D01*
X20933311Y-4847369D01*
X20997969Y-4847369D01*
X20997969Y-5101369D02*
X20997969Y-5036711D01*
X20933311Y-5036711D01*
X20933311Y-5101369D01*
X20997969Y-5101369D01*
X20997969Y-5355369D02*
X20997969Y-5290711D01*
X20933311Y-5290711D01*
X20933311Y-5355369D01*
X20997969Y-5355369D01*
X20997969Y-5609369D02*
X20997969Y-5544711D01*
X20933311Y-5544711D01*
X20933311Y-5609369D01*
X20997969Y-5609369D01*
X20997969Y-5863369D02*
X20997969Y-5798711D01*
X20933311Y-5798711D01*
X20933311Y-5863369D01*
X20997969Y-5863369D01*
X21759969Y-3577369D02*
X21759969Y-3512711D01*
X21695311Y-3512711D01*
X21695311Y-3577369D01*
X21759969Y-3577369D01*
X21759969Y-3831369D02*
X21759969Y-3766711D01*
X21695311Y-3766711D01*
X21695311Y-3831369D01*
X21759969Y-3831369D01*
X21759969Y-4085369D02*
X21759969Y-4020711D01*
X21695311Y-4020711D01*
X21695311Y-4085369D01*
X21759969Y-4085369D01*
X21759969Y-4339369D02*
X21759969Y-4274711D01*
X21695311Y-4274711D01*
X21695311Y-4339369D01*
X21759969Y-4339369D01*
X21759969Y-4593369D02*
X21759969Y-4528711D01*
X21695311Y-4528711D01*
X21695311Y-4593369D01*
X21759969Y-4593369D01*
X21759969Y-4847369D02*
X21759969Y-4782711D01*
X21695311Y-4782711D01*
X21695311Y-4847369D01*
X21759969Y-4847369D01*
X21759969Y-5101369D02*
X21759969Y-5036711D01*
X21695311Y-5036711D01*
X21695311Y-5101369D01*
X21759969Y-5101369D01*
X21759969Y-5355369D02*
X21759969Y-5290711D01*
X21695311Y-5290711D01*
X21695311Y-5355369D01*
X21759969Y-5355369D01*
X21759969Y-5609369D02*
X21759969Y-5544711D01*
X21695311Y-5544711D01*
X21695311Y-5609369D01*
X21759969Y-5609369D01*
X21759969Y-5863369D02*
X21759969Y-5798711D01*
X21695311Y-5798711D01*
X21695311Y-5863369D01*
X21759969Y-5863369D01*
X5949640Y-2827040D02*
X5999640Y-2777040D01*
X5949640Y-2727040D01*
X5899640Y-2777040D01*
X5949640Y-2827040D01*
X5949640Y-3081040D02*
X5999640Y-3031040D01*
X5949640Y-2981040D01*
X5899640Y-3031040D01*
X5949640Y-3081040D01*
X6203640Y-2827040D02*
X6253640Y-2777040D01*
X6203640Y-2727040D01*
X6153640Y-2777040D01*
X6203640Y-2827040D01*
X6203640Y-3081040D02*
X6253640Y-3031040D01*
X6203640Y-2981040D01*
X6153640Y-3031040D01*
X6203640Y-3081040D01*
X6457640Y-2827040D02*
X6507640Y-2777040D01*
X6457640Y-2727040D01*
X6407640Y-2777040D01*
X6457640Y-2827040D01*
X6457640Y-3081040D02*
X6507640Y-3031040D01*
X6457640Y-2981040D01*
X6407640Y-3031040D01*
X6457640Y-3081040D01*
X6711640Y-2827040D02*
X6761640Y-2777040D01*
X6711640Y-2727040D01*
X6661640Y-2777040D01*
X6711640Y-2827040D01*
X6711640Y-3081040D02*
X6761640Y-3031040D01*
X6711640Y-2981040D01*
X6661640Y-3031040D01*
X6711640Y-3081040D01*
X6965640Y-2827040D02*
X7015640Y-2777040D01*
X6965640Y-2727040D01*
X6915640Y-2777040D01*
X6965640Y-2827040D01*
X6965640Y-3081040D02*
X7015640Y-3031040D01*
X6965640Y-2981040D01*
X6915640Y-3031040D01*
X6965640Y-3081040D01*
D13*
X2555640Y-2721040D02*
X2875640Y-3041040D01*
X2875640Y-2721040D02*
X2555640Y-3041040D01*
X2875640Y-2881040D02*
G75*
G02*
X2555640Y-2881040I-160000J0D01*
G01*
X2555640Y-2881040D02*
G75*
G02*
X2875640Y-2881040I160000J0D01*
G01*
X21655640Y-2721040D02*
X21975640Y-3041040D01*
X21975640Y-2721040D02*
X21655640Y-3041040D01*
X21975640Y-2881040D02*
G75*
G02*
X21655640Y-2881040I-160000J0D01*
G01*
X21655640Y-2881040D02*
G75*
G02*
X21975640Y-2881040I160000J0D01*
G01*
D11*
X2523917Y-6595824D02*
X2523917Y-6395824D01*
X2523917Y-6395824D02*
X2571536Y-6395824D01*
X2571536Y-6395824D02*
X2600107Y-6405348D01*
X2600107Y-6405348D02*
X2619155Y-6424395D01*
X2619155Y-6424395D02*
X2628679Y-6443443D01*
X2628679Y-6443443D02*
X2638203Y-6481538D01*
X2638203Y-6481538D02*
X2638203Y-6510109D01*
X2638203Y-6510109D02*
X2628679Y-6548205D01*
X2628679Y-6548205D02*
X2619155Y-6567252D01*
X2619155Y-6567252D02*
X2600107Y-6586300D01*
X2600107Y-6586300D02*
X2571536Y-6595824D01*
X2571536Y-6595824D02*
X2523917Y-6595824D01*
X2723917Y-6595824D02*
X2723917Y-6462490D01*
X2723917Y-6500586D02*
X2733441Y-6481538D01*
X2733441Y-6481538D02*
X2742964Y-6472014D01*
X2742964Y-6472014D02*
X2762012Y-6462490D01*
X2762012Y-6462490D02*
X2781060Y-6462490D01*
X2847726Y-6595824D02*
X2847726Y-6462490D01*
X2847726Y-6395824D02*
X2838202Y-6405348D01*
X2838202Y-6405348D02*
X2847726Y-6414871D01*
X2847726Y-6414871D02*
X2857250Y-6405348D01*
X2857250Y-6405348D02*
X2847726Y-6395824D01*
X2847726Y-6395824D02*
X2847726Y-6414871D01*
X2971536Y-6595824D02*
X2952488Y-6586300D01*
X2952488Y-6586300D02*
X2942964Y-6567252D01*
X2942964Y-6567252D02*
X2942964Y-6395824D01*
X3076298Y-6595824D02*
X3057250Y-6586300D01*
X3057250Y-6586300D02*
X3047726Y-6567252D01*
X3047726Y-6567252D02*
X3047726Y-6395824D01*
X3304869Y-6595824D02*
X3304869Y-6395824D01*
X3304869Y-6395824D02*
X3371536Y-6538681D01*
X3371536Y-6538681D02*
X3438202Y-6395824D01*
X3438202Y-6395824D02*
X3438202Y-6595824D01*
X3619155Y-6595824D02*
X3619155Y-6491062D01*
X3619155Y-6491062D02*
X3609631Y-6472014D01*
X3609631Y-6472014D02*
X3590583Y-6462490D01*
X3590583Y-6462490D02*
X3552488Y-6462490D01*
X3552488Y-6462490D02*
X3533441Y-6472014D01*
X3619155Y-6586300D02*
X3600107Y-6595824D01*
X3600107Y-6595824D02*
X3552488Y-6595824D01*
X3552488Y-6595824D02*
X3533441Y-6586300D01*
X3533441Y-6586300D02*
X3523917Y-6567252D01*
X3523917Y-6567252D02*
X3523917Y-6548205D01*
X3523917Y-6548205D02*
X3533441Y-6529157D01*
X3533441Y-6529157D02*
X3552488Y-6519633D01*
X3552488Y-6519633D02*
X3600107Y-6519633D01*
X3600107Y-6519633D02*
X3619155Y-6510109D01*
X3714393Y-6462490D02*
X3714393Y-6662490D01*
X3714393Y-6472014D02*
X3733441Y-6462490D01*
X3733441Y-6462490D02*
X3771536Y-6462490D01*
X3771536Y-6462490D02*
X3790583Y-6472014D01*
X3790583Y-6472014D02*
X3800107Y-6481538D01*
X3800107Y-6481538D02*
X3809631Y-6500586D01*
X3809631Y-6500586D02*
X3809631Y-6557728D01*
X3809631Y-6557728D02*
X3800107Y-6576776D01*
X3800107Y-6576776D02*
X3790583Y-6586300D01*
X3790583Y-6586300D02*
X3771536Y-6595824D01*
X3771536Y-6595824D02*
X3733441Y-6595824D01*
X3733441Y-6595824D02*
X3714393Y-6586300D01*
X3895345Y-6576776D02*
X3904869Y-6586300D01*
X3904869Y-6586300D02*
X3895345Y-6595824D01*
X3895345Y-6595824D02*
X3885822Y-6586300D01*
X3885822Y-6586300D02*
X3895345Y-6576776D01*
X3895345Y-6576776D02*
X3895345Y-6595824D01*
X3895345Y-6472014D02*
X3904869Y-6481538D01*
X3904869Y-6481538D02*
X3895345Y-6491062D01*
X3895345Y-6491062D02*
X3885822Y-6481538D01*
X3885822Y-6481538D02*
X3895345Y-6472014D01*
X3895345Y-6472014D02*
X3895345Y-6491062D01*
D12*
X2233140Y-6909340D02*
X2263140Y-6939340D01*
X2263140Y-6909340D02*
X2233140Y-6939340D01*
D11*
X2562012Y-6815824D02*
X2581060Y-6815824D01*
X2581060Y-6815824D02*
X2600107Y-6825348D01*
X2600107Y-6825348D02*
X2609631Y-6834871D01*
X2609631Y-6834871D02*
X2619155Y-6853919D01*
X2619155Y-6853919D02*
X2628679Y-6892014D01*
X2628679Y-6892014D02*
X2628679Y-6939633D01*
X2628679Y-6939633D02*
X2619155Y-6977728D01*
X2619155Y-6977728D02*
X2609631Y-6996776D01*
X2609631Y-6996776D02*
X2600107Y-7006300D01*
X2600107Y-7006300D02*
X2581060Y-7015824D01*
X2581060Y-7015824D02*
X2562012Y-7015824D01*
X2562012Y-7015824D02*
X2542964Y-7006300D01*
X2542964Y-7006300D02*
X2533441Y-6996776D01*
X2533441Y-6996776D02*
X2523917Y-6977728D01*
X2523917Y-6977728D02*
X2514393Y-6939633D01*
X2514393Y-6939633D02*
X2514393Y-6892014D01*
X2514393Y-6892014D02*
X2523917Y-6853919D01*
X2523917Y-6853919D02*
X2533441Y-6834871D01*
X2533441Y-6834871D02*
X2542964Y-6825348D01*
X2542964Y-6825348D02*
X2562012Y-6815824D01*
X2714393Y-6996776D02*
X2723917Y-7006300D01*
X2723917Y-7006300D02*
X2714393Y-7015824D01*
X2714393Y-7015824D02*
X2704869Y-7006300D01*
X2704869Y-7006300D02*
X2714393Y-6996776D01*
X2714393Y-6996776D02*
X2714393Y-7015824D01*
X2790584Y-6815824D02*
X2914393Y-6815824D01*
X2914393Y-6815824D02*
X2847726Y-6892014D01*
X2847726Y-6892014D02*
X2876298Y-6892014D01*
X2876298Y-6892014D02*
X2895345Y-6901538D01*
X2895345Y-6901538D02*
X2904869Y-6911062D01*
X2904869Y-6911062D02*
X2914393Y-6930109D01*
X2914393Y-6930109D02*
X2914393Y-6977728D01*
X2914393Y-6977728D02*
X2904869Y-6996776D01*
X2904869Y-6996776D02*
X2895345Y-7006300D01*
X2895345Y-7006300D02*
X2876298Y-7015824D01*
X2876298Y-7015824D02*
X2819155Y-7015824D01*
X2819155Y-7015824D02*
X2800107Y-7006300D01*
X2800107Y-7006300D02*
X2790584Y-6996776D01*
X3038202Y-6815824D02*
X3057250Y-6815824D01*
X3057250Y-6815824D02*
X3076298Y-6825348D01*
X3076298Y-6825348D02*
X3085822Y-6834871D01*
X3085822Y-6834871D02*
X3095345Y-6853919D01*
X3095345Y-6853919D02*
X3104869Y-6892014D01*
X3104869Y-6892014D02*
X3104869Y-6939633D01*
X3104869Y-6939633D02*
X3095345Y-6977728D01*
X3095345Y-6977728D02*
X3085822Y-6996776D01*
X3085822Y-6996776D02*
X3076298Y-7006300D01*
X3076298Y-7006300D02*
X3057250Y-7015824D01*
X3057250Y-7015824D02*
X3038202Y-7015824D01*
X3038202Y-7015824D02*
X3019155Y-7006300D01*
X3019155Y-7006300D02*
X3009631Y-6996776D01*
X3009631Y-6996776D02*
X3000107Y-6977728D01*
X3000107Y-6977728D02*
X2990583Y-6939633D01*
X2990583Y-6939633D02*
X2990583Y-6892014D01*
X2990583Y-6892014D02*
X3000107Y-6853919D01*
X3000107Y-6853919D02*
X3009631Y-6834871D01*
X3009631Y-6834871D02*
X3019155Y-6825348D01*
X3019155Y-6825348D02*
X3038202Y-6815824D01*
X3228679Y-6815824D02*
X3247726Y-6815824D01*
X3247726Y-6815824D02*
X3266774Y-6825348D01*
X3266774Y-6825348D02*
X3276298Y-6834871D01*
X3276298Y-6834871D02*
X3285822Y-6853919D01*
X3285822Y-6853919D02*
X3295345Y-6892014D01*
X3295345Y-6892014D02*
X3295345Y-6939633D01*
X3295345Y-6939633D02*
X3285822Y-6977728D01*
X3285822Y-6977728D02*
X3276298Y-6996776D01*
X3276298Y-6996776D02*
X3266774Y-7006300D01*
X3266774Y-7006300D02*
X3247726Y-7015824D01*
X3247726Y-7015824D02*
X3228679Y-7015824D01*
X3228679Y-7015824D02*
X3209631Y-7006300D01*
X3209631Y-7006300D02*
X3200107Y-6996776D01*
X3200107Y-6996776D02*
X3190583Y-6977728D01*
X3190583Y-6977728D02*
X3181060Y-6939633D01*
X3181060Y-6939633D02*
X3181060Y-6892014D01*
X3181060Y-6892014D02*
X3190583Y-6853919D01*
X3190583Y-6853919D02*
X3200107Y-6834871D01*
X3200107Y-6834871D02*
X3209631Y-6825348D01*
X3209631Y-6825348D02*
X3228679Y-6815824D01*
X3381060Y-7015824D02*
X3381060Y-6882490D01*
X3381060Y-6901538D02*
X3390583Y-6892014D01*
X3390583Y-6892014D02*
X3409631Y-6882490D01*
X3409631Y-6882490D02*
X3438203Y-6882490D01*
X3438203Y-6882490D02*
X3457250Y-6892014D01*
X3457250Y-6892014D02*
X3466774Y-6911062D01*
X3466774Y-6911062D02*
X3466774Y-7015824D01*
X3466774Y-6911062D02*
X3476298Y-6892014D01*
X3476298Y-6892014D02*
X3495345Y-6882490D01*
X3495345Y-6882490D02*
X3523917Y-6882490D01*
X3523917Y-6882490D02*
X3542964Y-6892014D01*
X3542964Y-6892014D02*
X3552488Y-6911062D01*
X3552488Y-6911062D02*
X3552488Y-7015824D01*
X3647726Y-7015824D02*
X3647726Y-6882490D01*
X3647726Y-6901538D02*
X3657250Y-6892014D01*
X3657250Y-6892014D02*
X3676298Y-6882490D01*
X3676298Y-6882490D02*
X3704869Y-6882490D01*
X3704869Y-6882490D02*
X3723917Y-6892014D01*
X3723917Y-6892014D02*
X3733441Y-6911062D01*
X3733441Y-6911062D02*
X3733441Y-7015824D01*
X3733441Y-6911062D02*
X3742964Y-6892014D01*
X3742964Y-6892014D02*
X3762012Y-6882490D01*
X3762012Y-6882490D02*
X3790583Y-6882490D01*
X3790583Y-6882490D02*
X3809631Y-6892014D01*
X3809631Y-6892014D02*
X3819155Y-6911062D01*
X3819155Y-6911062D02*
X3819155Y-7015824D01*
X4209631Y-6806300D02*
X4038203Y-7063443D01*
X4466774Y-6815824D02*
X4485822Y-6815824D01*
X4485822Y-6815824D02*
X4504869Y-6825348D01*
X4504869Y-6825348D02*
X4514393Y-6834871D01*
X4514393Y-6834871D02*
X4523917Y-6853919D01*
X4523917Y-6853919D02*
X4533441Y-6892014D01*
X4533441Y-6892014D02*
X4533441Y-6939633D01*
X4533441Y-6939633D02*
X4523917Y-6977728D01*
X4523917Y-6977728D02*
X4514393Y-6996776D01*
X4514393Y-6996776D02*
X4504869Y-7006300D01*
X4504869Y-7006300D02*
X4485822Y-7015824D01*
X4485822Y-7015824D02*
X4466774Y-7015824D01*
X4466774Y-7015824D02*
X4447727Y-7006300D01*
X4447727Y-7006300D02*
X4438203Y-6996776D01*
X4438203Y-6996776D02*
X4428679Y-6977728D01*
X4428679Y-6977728D02*
X4419155Y-6939633D01*
X4419155Y-6939633D02*
X4419155Y-6892014D01*
X4419155Y-6892014D02*
X4428679Y-6853919D01*
X4428679Y-6853919D02*
X4438203Y-6834871D01*
X4438203Y-6834871D02*
X4447727Y-6825348D01*
X4447727Y-6825348D02*
X4466774Y-6815824D01*
X4619155Y-6996776D02*
X4628679Y-7006300D01*
X4628679Y-7006300D02*
X4619155Y-7015824D01*
X4619155Y-7015824D02*
X4609631Y-7006300D01*
X4609631Y-7006300D02*
X4619155Y-6996776D01*
X4619155Y-6996776D02*
X4619155Y-7015824D01*
X4752488Y-6815824D02*
X4771536Y-6815824D01*
X4771536Y-6815824D02*
X4790584Y-6825348D01*
X4790584Y-6825348D02*
X4800108Y-6834871D01*
X4800108Y-6834871D02*
X4809631Y-6853919D01*
X4809631Y-6853919D02*
X4819155Y-6892014D01*
X4819155Y-6892014D02*
X4819155Y-6939633D01*
X4819155Y-6939633D02*
X4809631Y-6977728D01*
X4809631Y-6977728D02*
X4800108Y-6996776D01*
X4800108Y-6996776D02*
X4790584Y-7006300D01*
X4790584Y-7006300D02*
X4771536Y-7015824D01*
X4771536Y-7015824D02*
X4752488Y-7015824D01*
X4752488Y-7015824D02*
X4733441Y-7006300D01*
X4733441Y-7006300D02*
X4723917Y-6996776D01*
X4723917Y-6996776D02*
X4714393Y-6977728D01*
X4714393Y-6977728D02*
X4704869Y-6939633D01*
X4704869Y-6939633D02*
X4704869Y-6892014D01*
X4704869Y-6892014D02*
X4714393Y-6853919D01*
X4714393Y-6853919D02*
X4723917Y-6834871D01*
X4723917Y-6834871D02*
X4733441Y-6825348D01*
X4733441Y-6825348D02*
X4752488Y-6815824D01*
X5009631Y-7015824D02*
X4895346Y-7015824D01*
X4952488Y-7015824D02*
X4952488Y-6815824D01*
X4952488Y-6815824D02*
X4933441Y-6844395D01*
X4933441Y-6844395D02*
X4914393Y-6863443D01*
X4914393Y-6863443D02*
X4895346Y-6872967D01*
X5200108Y-7015824D02*
X5085822Y-7015824D01*
X5142965Y-7015824D02*
X5142965Y-6815824D01*
X5142965Y-6815824D02*
X5123917Y-6844395D01*
X5123917Y-6844395D02*
X5104869Y-6863443D01*
X5104869Y-6863443D02*
X5085822Y-6872967D01*
X5314393Y-6901538D02*
X5295346Y-6892014D01*
X5295346Y-6892014D02*
X5285822Y-6882490D01*
X5285822Y-6882490D02*
X5276298Y-6863443D01*
X5276298Y-6863443D02*
X5276298Y-6853919D01*
X5276298Y-6853919D02*
X5285822Y-6834871D01*
X5285822Y-6834871D02*
X5295346Y-6825348D01*
X5295346Y-6825348D02*
X5314393Y-6815824D01*
X5314393Y-6815824D02*
X5352489Y-6815824D01*
X5352489Y-6815824D02*
X5371536Y-6825348D01*
X5371536Y-6825348D02*
X5381060Y-6834871D01*
X5381060Y-6834871D02*
X5390584Y-6853919D01*
X5390584Y-6853919D02*
X5390584Y-6863443D01*
X5390584Y-6863443D02*
X5381060Y-6882490D01*
X5381060Y-6882490D02*
X5371536Y-6892014D01*
X5371536Y-6892014D02*
X5352489Y-6901538D01*
X5352489Y-6901538D02*
X5314393Y-6901538D01*
X5314393Y-6901538D02*
X5295346Y-6911062D01*
X5295346Y-6911062D02*
X5285822Y-6920586D01*
X5285822Y-6920586D02*
X5276298Y-6939633D01*
X5276298Y-6939633D02*
X5276298Y-6977728D01*
X5276298Y-6977728D02*
X5285822Y-6996776D01*
X5285822Y-6996776D02*
X5295346Y-7006300D01*
X5295346Y-7006300D02*
X5314393Y-7015824D01*
X5314393Y-7015824D02*
X5352489Y-7015824D01*
X5352489Y-7015824D02*
X5371536Y-7006300D01*
X5371536Y-7006300D02*
X5381060Y-6996776D01*
X5381060Y-6996776D02*
X5390584Y-6977728D01*
X5390584Y-6977728D02*
X5390584Y-6939633D01*
X5390584Y-6939633D02*
X5381060Y-6920586D01*
X5381060Y-6920586D02*
X5371536Y-6911062D01*
X5371536Y-6911062D02*
X5352489Y-6901538D01*
X5466774Y-6815824D02*
X5466774Y-6853919D01*
X5542965Y-6815824D02*
X5542965Y-6853919D01*
X5838203Y-7092014D02*
X5828679Y-7082490D01*
X5828679Y-7082490D02*
X5809631Y-7053919D01*
X5809631Y-7053919D02*
X5800108Y-7034871D01*
X5800108Y-7034871D02*
X5790584Y-7006300D01*
X5790584Y-7006300D02*
X5781060Y-6958681D01*
X5781060Y-6958681D02*
X5781060Y-6920586D01*
X5781060Y-6920586D02*
X5790584Y-6872967D01*
X5790584Y-6872967D02*
X5800108Y-6844395D01*
X5800108Y-6844395D02*
X5809631Y-6825348D01*
X5809631Y-6825348D02*
X5828679Y-6796776D01*
X5828679Y-6796776D02*
X5838203Y-6787252D01*
X6019155Y-7015824D02*
X5904869Y-7015824D01*
X5962012Y-7015824D02*
X5962012Y-6815824D01*
X5962012Y-6815824D02*
X5942965Y-6844395D01*
X5942965Y-6844395D02*
X5923917Y-6863443D01*
X5923917Y-6863443D02*
X5904869Y-6872967D01*
X6190584Y-6882490D02*
X6190584Y-7015824D01*
X6142965Y-6806300D02*
X6095346Y-6949157D01*
X6095346Y-6949157D02*
X6219155Y-6949157D01*
X6390584Y-6815824D02*
X6295346Y-6815824D01*
X6295346Y-6815824D02*
X6285822Y-6911062D01*
X6285822Y-6911062D02*
X6295346Y-6901538D01*
X6295346Y-6901538D02*
X6314393Y-6892014D01*
X6314393Y-6892014D02*
X6362012Y-6892014D01*
X6362012Y-6892014D02*
X6381060Y-6901538D01*
X6381060Y-6901538D02*
X6390584Y-6911062D01*
X6390584Y-6911062D02*
X6400108Y-6930109D01*
X6400108Y-6930109D02*
X6400108Y-6977728D01*
X6400108Y-6977728D02*
X6390584Y-6996776D01*
X6390584Y-6996776D02*
X6381060Y-7006300D01*
X6381060Y-7006300D02*
X6362012Y-7015824D01*
X6362012Y-7015824D02*
X6314393Y-7015824D01*
X6314393Y-7015824D02*
X6295346Y-7006300D01*
X6295346Y-7006300D02*
X6285822Y-6996776D01*
X6638203Y-7015824D02*
X6638203Y-6815824D01*
X6723917Y-7015824D02*
X6723917Y-6911062D01*
X6723917Y-6911062D02*
X6714393Y-6892014D01*
X6714393Y-6892014D02*
X6695346Y-6882490D01*
X6695346Y-6882490D02*
X6666774Y-6882490D01*
X6666774Y-6882490D02*
X6647727Y-6892014D01*
X6647727Y-6892014D02*
X6638203Y-6901538D01*
X6847727Y-7015824D02*
X6828679Y-7006300D01*
X6828679Y-7006300D02*
X6819155Y-6996776D01*
X6819155Y-6996776D02*
X6809631Y-6977728D01*
X6809631Y-6977728D02*
X6809631Y-6920586D01*
X6809631Y-6920586D02*
X6819155Y-6901538D01*
X6819155Y-6901538D02*
X6828679Y-6892014D01*
X6828679Y-6892014D02*
X6847727Y-6882490D01*
X6847727Y-6882490D02*
X6876298Y-6882490D01*
X6876298Y-6882490D02*
X6895346Y-6892014D01*
X6895346Y-6892014D02*
X6904870Y-6901538D01*
X6904870Y-6901538D02*
X6914393Y-6920586D01*
X6914393Y-6920586D02*
X6914393Y-6977728D01*
X6914393Y-6977728D02*
X6904870Y-6996776D01*
X6904870Y-6996776D02*
X6895346Y-7006300D01*
X6895346Y-7006300D02*
X6876298Y-7015824D01*
X6876298Y-7015824D02*
X6847727Y-7015824D01*
X7028679Y-7015824D02*
X7009631Y-7006300D01*
X7009631Y-7006300D02*
X7000108Y-6987252D01*
X7000108Y-6987252D02*
X7000108Y-6815824D01*
X7181060Y-7006300D02*
X7162012Y-7015824D01*
X7162012Y-7015824D02*
X7123917Y-7015824D01*
X7123917Y-7015824D02*
X7104870Y-7006300D01*
X7104870Y-7006300D02*
X7095346Y-6987252D01*
X7095346Y-6987252D02*
X7095346Y-6911062D01*
X7095346Y-6911062D02*
X7104870Y-6892014D01*
X7104870Y-6892014D02*
X7123917Y-6882490D01*
X7123917Y-6882490D02*
X7162012Y-6882490D01*
X7162012Y-6882490D02*
X7181060Y-6892014D01*
X7181060Y-6892014D02*
X7190584Y-6911062D01*
X7190584Y-6911062D02*
X7190584Y-6930109D01*
X7190584Y-6930109D02*
X7095346Y-6949157D01*
X7266774Y-7006300D02*
X7285822Y-7015824D01*
X7285822Y-7015824D02*
X7323917Y-7015824D01*
X7323917Y-7015824D02*
X7342965Y-7006300D01*
X7342965Y-7006300D02*
X7352489Y-6987252D01*
X7352489Y-6987252D02*
X7352489Y-6977728D01*
X7352489Y-6977728D02*
X7342965Y-6958681D01*
X7342965Y-6958681D02*
X7323917Y-6949157D01*
X7323917Y-6949157D02*
X7295346Y-6949157D01*
X7295346Y-6949157D02*
X7276298Y-6939633D01*
X7276298Y-6939633D02*
X7266774Y-6920586D01*
X7266774Y-6920586D02*
X7266774Y-6911062D01*
X7266774Y-6911062D02*
X7276298Y-6892014D01*
X7276298Y-6892014D02*
X7295346Y-6882490D01*
X7295346Y-6882490D02*
X7323917Y-6882490D01*
X7323917Y-6882490D02*
X7342965Y-6892014D01*
X7419155Y-7092014D02*
X7428679Y-7082490D01*
X7428679Y-7082490D02*
X7447727Y-7053919D01*
X7447727Y-7053919D02*
X7457251Y-7034871D01*
X7457251Y-7034871D02*
X7466774Y-7006300D01*
X7466774Y-7006300D02*
X7476298Y-6958681D01*
X7476298Y-6958681D02*
X7476298Y-6920586D01*
X7476298Y-6920586D02*
X7466774Y-6872967D01*
X7466774Y-6872967D02*
X7457251Y-6844395D01*
X7457251Y-6844395D02*
X7447727Y-6825348D01*
X7447727Y-6825348D02*
X7428679Y-6796776D01*
X7428679Y-6796776D02*
X7419155Y-6787252D01*
D12*
X2263140Y-7188340D02*
G75*
G02*
X2213140Y-7188340I-25000J0D01*
G01*
X2213140Y-7188340D02*
G75*
G02*
X2263140Y-7188340I25000J0D01*
G01*
D11*
X2562012Y-7079824D02*
X2581060Y-7079824D01*
X2581060Y-7079824D02*
X2600107Y-7089348D01*
X2600107Y-7089348D02*
X2609631Y-7098871D01*
X2609631Y-7098871D02*
X2619155Y-7117919D01*
X2619155Y-7117919D02*
X2628679Y-7156014D01*
X2628679Y-7156014D02*
X2628679Y-7203633D01*
X2628679Y-7203633D02*
X2619155Y-7241728D01*
X2619155Y-7241728D02*
X2609631Y-7260776D01*
X2609631Y-7260776D02*
X2600107Y-7270300D01*
X2600107Y-7270300D02*
X2581060Y-7279824D01*
X2581060Y-7279824D02*
X2562012Y-7279824D01*
X2562012Y-7279824D02*
X2542964Y-7270300D01*
X2542964Y-7270300D02*
X2533441Y-7260776D01*
X2533441Y-7260776D02*
X2523917Y-7241728D01*
X2523917Y-7241728D02*
X2514393Y-7203633D01*
X2514393Y-7203633D02*
X2514393Y-7156014D01*
X2514393Y-7156014D02*
X2523917Y-7117919D01*
X2523917Y-7117919D02*
X2533441Y-7098871D01*
X2533441Y-7098871D02*
X2542964Y-7089348D01*
X2542964Y-7089348D02*
X2562012Y-7079824D01*
X2714393Y-7260776D02*
X2723917Y-7270300D01*
X2723917Y-7270300D02*
X2714393Y-7279824D01*
X2714393Y-7279824D02*
X2704869Y-7270300D01*
X2704869Y-7270300D02*
X2714393Y-7260776D01*
X2714393Y-7260776D02*
X2714393Y-7279824D01*
X2904869Y-7079824D02*
X2809631Y-7079824D01*
X2809631Y-7079824D02*
X2800107Y-7175062D01*
X2800107Y-7175062D02*
X2809631Y-7165538D01*
X2809631Y-7165538D02*
X2828679Y-7156014D01*
X2828679Y-7156014D02*
X2876298Y-7156014D01*
X2876298Y-7156014D02*
X2895345Y-7165538D01*
X2895345Y-7165538D02*
X2904869Y-7175062D01*
X2904869Y-7175062D02*
X2914393Y-7194109D01*
X2914393Y-7194109D02*
X2914393Y-7241728D01*
X2914393Y-7241728D02*
X2904869Y-7260776D01*
X2904869Y-7260776D02*
X2895345Y-7270300D01*
X2895345Y-7270300D02*
X2876298Y-7279824D01*
X2876298Y-7279824D02*
X2828679Y-7279824D01*
X2828679Y-7279824D02*
X2809631Y-7270300D01*
X2809631Y-7270300D02*
X2800107Y-7260776D01*
X3038202Y-7079824D02*
X3057250Y-7079824D01*
X3057250Y-7079824D02*
X3076298Y-7089348D01*
X3076298Y-7089348D02*
X3085822Y-7098871D01*
X3085822Y-7098871D02*
X3095345Y-7117919D01*
X3095345Y-7117919D02*
X3104869Y-7156014D01*
X3104869Y-7156014D02*
X3104869Y-7203633D01*
X3104869Y-7203633D02*
X3095345Y-7241728D01*
X3095345Y-7241728D02*
X3085822Y-7260776D01*
X3085822Y-7260776D02*
X3076298Y-7270300D01*
X3076298Y-7270300D02*
X3057250Y-7279824D01*
X3057250Y-7279824D02*
X3038202Y-7279824D01*
X3038202Y-7279824D02*
X3019155Y-7270300D01*
X3019155Y-7270300D02*
X3009631Y-7260776D01*
X3009631Y-7260776D02*
X3000107Y-7241728D01*
X3000107Y-7241728D02*
X2990583Y-7203633D01*
X2990583Y-7203633D02*
X2990583Y-7156014D01*
X2990583Y-7156014D02*
X3000107Y-7117919D01*
X3000107Y-7117919D02*
X3009631Y-7098871D01*
X3009631Y-7098871D02*
X3019155Y-7089348D01*
X3019155Y-7089348D02*
X3038202Y-7079824D01*
X3228679Y-7079824D02*
X3247726Y-7079824D01*
X3247726Y-7079824D02*
X3266774Y-7089348D01*
X3266774Y-7089348D02*
X3276298Y-7098871D01*
X3276298Y-7098871D02*
X3285822Y-7117919D01*
X3285822Y-7117919D02*
X3295345Y-7156014D01*
X3295345Y-7156014D02*
X3295345Y-7203633D01*
X3295345Y-7203633D02*
X3285822Y-7241728D01*
X3285822Y-7241728D02*
X3276298Y-7260776D01*
X3276298Y-7260776D02*
X3266774Y-7270300D01*
X3266774Y-7270300D02*
X3247726Y-7279824D01*
X3247726Y-7279824D02*
X3228679Y-7279824D01*
X3228679Y-7279824D02*
X3209631Y-7270300D01*
X3209631Y-7270300D02*
X3200107Y-7260776D01*
X3200107Y-7260776D02*
X3190583Y-7241728D01*
X3190583Y-7241728D02*
X3181060Y-7203633D01*
X3181060Y-7203633D02*
X3181060Y-7156014D01*
X3181060Y-7156014D02*
X3190583Y-7117919D01*
X3190583Y-7117919D02*
X3200107Y-7098871D01*
X3200107Y-7098871D02*
X3209631Y-7089348D01*
X3209631Y-7089348D02*
X3228679Y-7079824D01*
X3381060Y-7279824D02*
X3381060Y-7146490D01*
X3381060Y-7165538D02*
X3390583Y-7156014D01*
X3390583Y-7156014D02*
X3409631Y-7146490D01*
X3409631Y-7146490D02*
X3438203Y-7146490D01*
X3438203Y-7146490D02*
X3457250Y-7156014D01*
X3457250Y-7156014D02*
X3466774Y-7175062D01*
X3466774Y-7175062D02*
X3466774Y-7279824D01*
X3466774Y-7175062D02*
X3476298Y-7156014D01*
X3476298Y-7156014D02*
X3495345Y-7146490D01*
X3495345Y-7146490D02*
X3523917Y-7146490D01*
X3523917Y-7146490D02*
X3542964Y-7156014D01*
X3542964Y-7156014D02*
X3552488Y-7175062D01*
X3552488Y-7175062D02*
X3552488Y-7279824D01*
X3647726Y-7279824D02*
X3647726Y-7146490D01*
X3647726Y-7165538D02*
X3657250Y-7156014D01*
X3657250Y-7156014D02*
X3676298Y-7146490D01*
X3676298Y-7146490D02*
X3704869Y-7146490D01*
X3704869Y-7146490D02*
X3723917Y-7156014D01*
X3723917Y-7156014D02*
X3733441Y-7175062D01*
X3733441Y-7175062D02*
X3733441Y-7279824D01*
X3733441Y-7175062D02*
X3742964Y-7156014D01*
X3742964Y-7156014D02*
X3762012Y-7146490D01*
X3762012Y-7146490D02*
X3790583Y-7146490D01*
X3790583Y-7146490D02*
X3809631Y-7156014D01*
X3809631Y-7156014D02*
X3819155Y-7175062D01*
X3819155Y-7175062D02*
X3819155Y-7279824D01*
X4209631Y-7070300D02*
X4038203Y-7327443D01*
X4466774Y-7079824D02*
X4485822Y-7079824D01*
X4485822Y-7079824D02*
X4504869Y-7089348D01*
X4504869Y-7089348D02*
X4514393Y-7098871D01*
X4514393Y-7098871D02*
X4523917Y-7117919D01*
X4523917Y-7117919D02*
X4533441Y-7156014D01*
X4533441Y-7156014D02*
X4533441Y-7203633D01*
X4533441Y-7203633D02*
X4523917Y-7241728D01*
X4523917Y-7241728D02*
X4514393Y-7260776D01*
X4514393Y-7260776D02*
X4504869Y-7270300D01*
X4504869Y-7270300D02*
X4485822Y-7279824D01*
X4485822Y-7279824D02*
X4466774Y-7279824D01*
X4466774Y-7279824D02*
X4447727Y-7270300D01*
X4447727Y-7270300D02*
X4438203Y-7260776D01*
X4438203Y-7260776D02*
X4428679Y-7241728D01*
X4428679Y-7241728D02*
X4419155Y-7203633D01*
X4419155Y-7203633D02*
X4419155Y-7156014D01*
X4419155Y-7156014D02*
X4428679Y-7117919D01*
X4428679Y-7117919D02*
X4438203Y-7098871D01*
X4438203Y-7098871D02*
X4447727Y-7089348D01*
X4447727Y-7089348D02*
X4466774Y-7079824D01*
X4619155Y-7260776D02*
X4628679Y-7270300D01*
X4628679Y-7270300D02*
X4619155Y-7279824D01*
X4619155Y-7279824D02*
X4609631Y-7270300D01*
X4609631Y-7270300D02*
X4619155Y-7260776D01*
X4619155Y-7260776D02*
X4619155Y-7279824D01*
X4752488Y-7079824D02*
X4771536Y-7079824D01*
X4771536Y-7079824D02*
X4790584Y-7089348D01*
X4790584Y-7089348D02*
X4800108Y-7098871D01*
X4800108Y-7098871D02*
X4809631Y-7117919D01*
X4809631Y-7117919D02*
X4819155Y-7156014D01*
X4819155Y-7156014D02*
X4819155Y-7203633D01*
X4819155Y-7203633D02*
X4809631Y-7241728D01*
X4809631Y-7241728D02*
X4800108Y-7260776D01*
X4800108Y-7260776D02*
X4790584Y-7270300D01*
X4790584Y-7270300D02*
X4771536Y-7279824D01*
X4771536Y-7279824D02*
X4752488Y-7279824D01*
X4752488Y-7279824D02*
X4733441Y-7270300D01*
X4733441Y-7270300D02*
X4723917Y-7260776D01*
X4723917Y-7260776D02*
X4714393Y-7241728D01*
X4714393Y-7241728D02*
X4704869Y-7203633D01*
X4704869Y-7203633D02*
X4704869Y-7156014D01*
X4704869Y-7156014D02*
X4714393Y-7117919D01*
X4714393Y-7117919D02*
X4723917Y-7098871D01*
X4723917Y-7098871D02*
X4733441Y-7089348D01*
X4733441Y-7089348D02*
X4752488Y-7079824D01*
X5009631Y-7279824D02*
X4895346Y-7279824D01*
X4952488Y-7279824D02*
X4952488Y-7079824D01*
X4952488Y-7079824D02*
X4933441Y-7108395D01*
X4933441Y-7108395D02*
X4914393Y-7127443D01*
X4914393Y-7127443D02*
X4895346Y-7136967D01*
X5104869Y-7279824D02*
X5142965Y-7279824D01*
X5142965Y-7279824D02*
X5162012Y-7270300D01*
X5162012Y-7270300D02*
X5171536Y-7260776D01*
X5171536Y-7260776D02*
X5190584Y-7232205D01*
X5190584Y-7232205D02*
X5200108Y-7194109D01*
X5200108Y-7194109D02*
X5200108Y-7117919D01*
X5200108Y-7117919D02*
X5190584Y-7098871D01*
X5190584Y-7098871D02*
X5181060Y-7089348D01*
X5181060Y-7089348D02*
X5162012Y-7079824D01*
X5162012Y-7079824D02*
X5123917Y-7079824D01*
X5123917Y-7079824D02*
X5104869Y-7089348D01*
X5104869Y-7089348D02*
X5095346Y-7098871D01*
X5095346Y-7098871D02*
X5085822Y-7117919D01*
X5085822Y-7117919D02*
X5085822Y-7165538D01*
X5085822Y-7165538D02*
X5095346Y-7184586D01*
X5095346Y-7184586D02*
X5104869Y-7194109D01*
X5104869Y-7194109D02*
X5123917Y-7203633D01*
X5123917Y-7203633D02*
X5162012Y-7203633D01*
X5162012Y-7203633D02*
X5181060Y-7194109D01*
X5181060Y-7194109D02*
X5190584Y-7184586D01*
X5190584Y-7184586D02*
X5200108Y-7165538D01*
X5266774Y-7079824D02*
X5400108Y-7079824D01*
X5400108Y-7079824D02*
X5314393Y-7279824D01*
X5466774Y-7079824D02*
X5466774Y-7117919D01*
X5542965Y-7079824D02*
X5542965Y-7117919D01*
X5838203Y-7356014D02*
X5828679Y-7346490D01*
X5828679Y-7346490D02*
X5809631Y-7317919D01*
X5809631Y-7317919D02*
X5800108Y-7298871D01*
X5800108Y-7298871D02*
X5790584Y-7270300D01*
X5790584Y-7270300D02*
X5781060Y-7222681D01*
X5781060Y-7222681D02*
X5781060Y-7184586D01*
X5781060Y-7184586D02*
X5790584Y-7136967D01*
X5790584Y-7136967D02*
X5800108Y-7108395D01*
X5800108Y-7108395D02*
X5809631Y-7089348D01*
X5809631Y-7089348D02*
X5828679Y-7060776D01*
X5828679Y-7060776D02*
X5838203Y-7051252D01*
X5904869Y-7098871D02*
X5914393Y-7089348D01*
X5914393Y-7089348D02*
X5933441Y-7079824D01*
X5933441Y-7079824D02*
X5981060Y-7079824D01*
X5981060Y-7079824D02*
X6000108Y-7089348D01*
X6000108Y-7089348D02*
X6009631Y-7098871D01*
X6009631Y-7098871D02*
X6019155Y-7117919D01*
X6019155Y-7117919D02*
X6019155Y-7136967D01*
X6019155Y-7136967D02*
X6009631Y-7165538D01*
X6009631Y-7165538D02*
X5895346Y-7279824D01*
X5895346Y-7279824D02*
X6019155Y-7279824D01*
X6190584Y-7146490D02*
X6190584Y-7279824D01*
X6142965Y-7070300D02*
X6095346Y-7213157D01*
X6095346Y-7213157D02*
X6219155Y-7213157D01*
X6447727Y-7279824D02*
X6447727Y-7079824D01*
X6533441Y-7279824D02*
X6533441Y-7175062D01*
X6533441Y-7175062D02*
X6523917Y-7156014D01*
X6523917Y-7156014D02*
X6504870Y-7146490D01*
X6504870Y-7146490D02*
X6476298Y-7146490D01*
X6476298Y-7146490D02*
X6457250Y-7156014D01*
X6457250Y-7156014D02*
X6447727Y-7165538D01*
X6657250Y-7279824D02*
X6638203Y-7270300D01*
X6638203Y-7270300D02*
X6628679Y-7260776D01*
X6628679Y-7260776D02*
X6619155Y-7241728D01*
X6619155Y-7241728D02*
X6619155Y-7184586D01*
X6619155Y-7184586D02*
X6628679Y-7165538D01*
X6628679Y-7165538D02*
X6638203Y-7156014D01*
X6638203Y-7156014D02*
X6657250Y-7146490D01*
X6657250Y-7146490D02*
X6685822Y-7146490D01*
X6685822Y-7146490D02*
X6704870Y-7156014D01*
X6704870Y-7156014D02*
X6714393Y-7165538D01*
X6714393Y-7165538D02*
X6723917Y-7184586D01*
X6723917Y-7184586D02*
X6723917Y-7241728D01*
X6723917Y-7241728D02*
X6714393Y-7260776D01*
X6714393Y-7260776D02*
X6704870Y-7270300D01*
X6704870Y-7270300D02*
X6685822Y-7279824D01*
X6685822Y-7279824D02*
X6657250Y-7279824D01*
X6838203Y-7279824D02*
X6819155Y-7270300D01*
X6819155Y-7270300D02*
X6809631Y-7251252D01*
X6809631Y-7251252D02*
X6809631Y-7079824D01*
X6990584Y-7270300D02*
X6971536Y-7279824D01*
X6971536Y-7279824D02*
X6933441Y-7279824D01*
X6933441Y-7279824D02*
X6914393Y-7270300D01*
X6914393Y-7270300D02*
X6904870Y-7251252D01*
X6904870Y-7251252D02*
X6904870Y-7175062D01*
X6904870Y-7175062D02*
X6914393Y-7156014D01*
X6914393Y-7156014D02*
X6933441Y-7146490D01*
X6933441Y-7146490D02*
X6971536Y-7146490D01*
X6971536Y-7146490D02*
X6990584Y-7156014D01*
X6990584Y-7156014D02*
X7000108Y-7175062D01*
X7000108Y-7175062D02*
X7000108Y-7194109D01*
X7000108Y-7194109D02*
X6904870Y-7213157D01*
X7076298Y-7270300D02*
X7095346Y-7279824D01*
X7095346Y-7279824D02*
X7133441Y-7279824D01*
X7133441Y-7279824D02*
X7152489Y-7270300D01*
X7152489Y-7270300D02*
X7162012Y-7251252D01*
X7162012Y-7251252D02*
X7162012Y-7241728D01*
X7162012Y-7241728D02*
X7152489Y-7222681D01*
X7152489Y-7222681D02*
X7133441Y-7213157D01*
X7133441Y-7213157D02*
X7104870Y-7213157D01*
X7104870Y-7213157D02*
X7085822Y-7203633D01*
X7085822Y-7203633D02*
X7076298Y-7184586D01*
X7076298Y-7184586D02*
X7076298Y-7175062D01*
X7076298Y-7175062D02*
X7085822Y-7156014D01*
X7085822Y-7156014D02*
X7104870Y-7146490D01*
X7104870Y-7146490D02*
X7133441Y-7146490D01*
X7133441Y-7146490D02*
X7152489Y-7156014D01*
X7228679Y-7356014D02*
X7238203Y-7346490D01*
X7238203Y-7346490D02*
X7257251Y-7317919D01*
X7257251Y-7317919D02*
X7266774Y-7298871D01*
X7266774Y-7298871D02*
X7276298Y-7270300D01*
X7276298Y-7270300D02*
X7285822Y-7222681D01*
X7285822Y-7222681D02*
X7285822Y-7184586D01*
X7285822Y-7184586D02*
X7276298Y-7136967D01*
X7276298Y-7136967D02*
X7266774Y-7108395D01*
X7266774Y-7108395D02*
X7257251Y-7089348D01*
X7257251Y-7089348D02*
X7238203Y-7060776D01*
X7238203Y-7060776D02*
X7228679Y-7051252D01*
D12*
X2218140Y-7407340D02*
X2218140Y-7497340D01*
X2173140Y-7452340D02*
X2263140Y-7452340D01*
D11*
X2562012Y-7343824D02*
X2581060Y-7343824D01*
X2581060Y-7343824D02*
X2600107Y-7353348D01*
X2600107Y-7353348D02*
X2609631Y-7362871D01*
X2609631Y-7362871D02*
X2619155Y-7381919D01*
X2619155Y-7381919D02*
X2628679Y-7420014D01*
X2628679Y-7420014D02*
X2628679Y-7467633D01*
X2628679Y-7467633D02*
X2619155Y-7505728D01*
X2619155Y-7505728D02*
X2609631Y-7524776D01*
X2609631Y-7524776D02*
X2600107Y-7534300D01*
X2600107Y-7534300D02*
X2581060Y-7543824D01*
X2581060Y-7543824D02*
X2562012Y-7543824D01*
X2562012Y-7543824D02*
X2542964Y-7534300D01*
X2542964Y-7534300D02*
X2533441Y-7524776D01*
X2533441Y-7524776D02*
X2523917Y-7505728D01*
X2523917Y-7505728D02*
X2514393Y-7467633D01*
X2514393Y-7467633D02*
X2514393Y-7420014D01*
X2514393Y-7420014D02*
X2523917Y-7381919D01*
X2523917Y-7381919D02*
X2533441Y-7362871D01*
X2533441Y-7362871D02*
X2542964Y-7353348D01*
X2542964Y-7353348D02*
X2562012Y-7343824D01*
X2714393Y-7524776D02*
X2723917Y-7534300D01*
X2723917Y-7534300D02*
X2714393Y-7543824D01*
X2714393Y-7543824D02*
X2704869Y-7534300D01*
X2704869Y-7534300D02*
X2714393Y-7524776D01*
X2714393Y-7524776D02*
X2714393Y-7543824D01*
X2819155Y-7543824D02*
X2857250Y-7543824D01*
X2857250Y-7543824D02*
X2876298Y-7534300D01*
X2876298Y-7534300D02*
X2885822Y-7524776D01*
X2885822Y-7524776D02*
X2904869Y-7496205D01*
X2904869Y-7496205D02*
X2914393Y-7458109D01*
X2914393Y-7458109D02*
X2914393Y-7381919D01*
X2914393Y-7381919D02*
X2904869Y-7362871D01*
X2904869Y-7362871D02*
X2895345Y-7353348D01*
X2895345Y-7353348D02*
X2876298Y-7343824D01*
X2876298Y-7343824D02*
X2838202Y-7343824D01*
X2838202Y-7343824D02*
X2819155Y-7353348D01*
X2819155Y-7353348D02*
X2809631Y-7362871D01*
X2809631Y-7362871D02*
X2800107Y-7381919D01*
X2800107Y-7381919D02*
X2800107Y-7429538D01*
X2800107Y-7429538D02*
X2809631Y-7448586D01*
X2809631Y-7448586D02*
X2819155Y-7458109D01*
X2819155Y-7458109D02*
X2838202Y-7467633D01*
X2838202Y-7467633D02*
X2876298Y-7467633D01*
X2876298Y-7467633D02*
X2895345Y-7458109D01*
X2895345Y-7458109D02*
X2904869Y-7448586D01*
X2904869Y-7448586D02*
X2914393Y-7429538D01*
X3038202Y-7343824D02*
X3057250Y-7343824D01*
X3057250Y-7343824D02*
X3076298Y-7353348D01*
X3076298Y-7353348D02*
X3085822Y-7362871D01*
X3085822Y-7362871D02*
X3095345Y-7381919D01*
X3095345Y-7381919D02*
X3104869Y-7420014D01*
X3104869Y-7420014D02*
X3104869Y-7467633D01*
X3104869Y-7467633D02*
X3095345Y-7505728D01*
X3095345Y-7505728D02*
X3085822Y-7524776D01*
X3085822Y-7524776D02*
X3076298Y-7534300D01*
X3076298Y-7534300D02*
X3057250Y-7543824D01*
X3057250Y-7543824D02*
X3038202Y-7543824D01*
X3038202Y-7543824D02*
X3019155Y-7534300D01*
X3019155Y-7534300D02*
X3009631Y-7524776D01*
X3009631Y-7524776D02*
X3000107Y-7505728D01*
X3000107Y-7505728D02*
X2990583Y-7467633D01*
X2990583Y-7467633D02*
X2990583Y-7420014D01*
X2990583Y-7420014D02*
X3000107Y-7381919D01*
X3000107Y-7381919D02*
X3009631Y-7362871D01*
X3009631Y-7362871D02*
X3019155Y-7353348D01*
X3019155Y-7353348D02*
X3038202Y-7343824D01*
X3228679Y-7343824D02*
X3247726Y-7343824D01*
X3247726Y-7343824D02*
X3266774Y-7353348D01*
X3266774Y-7353348D02*
X3276298Y-7362871D01*
X3276298Y-7362871D02*
X3285822Y-7381919D01*
X3285822Y-7381919D02*
X3295345Y-7420014D01*
X3295345Y-7420014D02*
X3295345Y-7467633D01*
X3295345Y-7467633D02*
X3285822Y-7505728D01*
X3285822Y-7505728D02*
X3276298Y-7524776D01*
X3276298Y-7524776D02*
X3266774Y-7534300D01*
X3266774Y-7534300D02*
X3247726Y-7543824D01*
X3247726Y-7543824D02*
X3228679Y-7543824D01*
X3228679Y-7543824D02*
X3209631Y-7534300D01*
X3209631Y-7534300D02*
X3200107Y-7524776D01*
X3200107Y-7524776D02*
X3190583Y-7505728D01*
X3190583Y-7505728D02*
X3181060Y-7467633D01*
X3181060Y-7467633D02*
X3181060Y-7420014D01*
X3181060Y-7420014D02*
X3190583Y-7381919D01*
X3190583Y-7381919D02*
X3200107Y-7362871D01*
X3200107Y-7362871D02*
X3209631Y-7353348D01*
X3209631Y-7353348D02*
X3228679Y-7343824D01*
X3381060Y-7543824D02*
X3381060Y-7410490D01*
X3381060Y-7429538D02*
X3390583Y-7420014D01*
X3390583Y-7420014D02*
X3409631Y-7410490D01*
X3409631Y-7410490D02*
X3438203Y-7410490D01*
X3438203Y-7410490D02*
X3457250Y-7420014D01*
X3457250Y-7420014D02*
X3466774Y-7439062D01*
X3466774Y-7439062D02*
X3466774Y-7543824D01*
X3466774Y-7439062D02*
X3476298Y-7420014D01*
X3476298Y-7420014D02*
X3495345Y-7410490D01*
X3495345Y-7410490D02*
X3523917Y-7410490D01*
X3523917Y-7410490D02*
X3542964Y-7420014D01*
X3542964Y-7420014D02*
X3552488Y-7439062D01*
X3552488Y-7439062D02*
X3552488Y-7543824D01*
X3647726Y-7543824D02*
X3647726Y-7410490D01*
X3647726Y-7429538D02*
X3657250Y-7420014D01*
X3657250Y-7420014D02*
X3676298Y-7410490D01*
X3676298Y-7410490D02*
X3704869Y-7410490D01*
X3704869Y-7410490D02*
X3723917Y-7420014D01*
X3723917Y-7420014D02*
X3733441Y-7439062D01*
X3733441Y-7439062D02*
X3733441Y-7543824D01*
X3733441Y-7439062D02*
X3742964Y-7420014D01*
X3742964Y-7420014D02*
X3762012Y-7410490D01*
X3762012Y-7410490D02*
X3790583Y-7410490D01*
X3790583Y-7410490D02*
X3809631Y-7420014D01*
X3809631Y-7420014D02*
X3819155Y-7439062D01*
X3819155Y-7439062D02*
X3819155Y-7543824D01*
X4209631Y-7334300D02*
X4038203Y-7591443D01*
X4466774Y-7343824D02*
X4485822Y-7343824D01*
X4485822Y-7343824D02*
X4504869Y-7353348D01*
X4504869Y-7353348D02*
X4514393Y-7362871D01*
X4514393Y-7362871D02*
X4523917Y-7381919D01*
X4523917Y-7381919D02*
X4533441Y-7420014D01*
X4533441Y-7420014D02*
X4533441Y-7467633D01*
X4533441Y-7467633D02*
X4523917Y-7505728D01*
X4523917Y-7505728D02*
X4514393Y-7524776D01*
X4514393Y-7524776D02*
X4504869Y-7534300D01*
X4504869Y-7534300D02*
X4485822Y-7543824D01*
X4485822Y-7543824D02*
X4466774Y-7543824D01*
X4466774Y-7543824D02*
X4447727Y-7534300D01*
X4447727Y-7534300D02*
X4438203Y-7524776D01*
X4438203Y-7524776D02*
X4428679Y-7505728D01*
X4428679Y-7505728D02*
X4419155Y-7467633D01*
X4419155Y-7467633D02*
X4419155Y-7420014D01*
X4419155Y-7420014D02*
X4428679Y-7381919D01*
X4428679Y-7381919D02*
X4438203Y-7362871D01*
X4438203Y-7362871D02*
X4447727Y-7353348D01*
X4447727Y-7353348D02*
X4466774Y-7343824D01*
X4619155Y-7524776D02*
X4628679Y-7534300D01*
X4628679Y-7534300D02*
X4619155Y-7543824D01*
X4619155Y-7543824D02*
X4609631Y-7534300D01*
X4609631Y-7534300D02*
X4619155Y-7524776D01*
X4619155Y-7524776D02*
X4619155Y-7543824D01*
X4752488Y-7343824D02*
X4771536Y-7343824D01*
X4771536Y-7343824D02*
X4790584Y-7353348D01*
X4790584Y-7353348D02*
X4800108Y-7362871D01*
X4800108Y-7362871D02*
X4809631Y-7381919D01*
X4809631Y-7381919D02*
X4819155Y-7420014D01*
X4819155Y-7420014D02*
X4819155Y-7467633D01*
X4819155Y-7467633D02*
X4809631Y-7505728D01*
X4809631Y-7505728D02*
X4800108Y-7524776D01*
X4800108Y-7524776D02*
X4790584Y-7534300D01*
X4790584Y-7534300D02*
X4771536Y-7543824D01*
X4771536Y-7543824D02*
X4752488Y-7543824D01*
X4752488Y-7543824D02*
X4733441Y-7534300D01*
X4733441Y-7534300D02*
X4723917Y-7524776D01*
X4723917Y-7524776D02*
X4714393Y-7505728D01*
X4714393Y-7505728D02*
X4704869Y-7467633D01*
X4704869Y-7467633D02*
X4704869Y-7420014D01*
X4704869Y-7420014D02*
X4714393Y-7381919D01*
X4714393Y-7381919D02*
X4723917Y-7362871D01*
X4723917Y-7362871D02*
X4733441Y-7353348D01*
X4733441Y-7353348D02*
X4752488Y-7343824D01*
X4885822Y-7343824D02*
X5009631Y-7343824D01*
X5009631Y-7343824D02*
X4942965Y-7420014D01*
X4942965Y-7420014D02*
X4971536Y-7420014D01*
X4971536Y-7420014D02*
X4990584Y-7429538D01*
X4990584Y-7429538D02*
X5000108Y-7439062D01*
X5000108Y-7439062D02*
X5009631Y-7458109D01*
X5009631Y-7458109D02*
X5009631Y-7505728D01*
X5009631Y-7505728D02*
X5000108Y-7524776D01*
X5000108Y-7524776D02*
X4990584Y-7534300D01*
X4990584Y-7534300D02*
X4971536Y-7543824D01*
X4971536Y-7543824D02*
X4914393Y-7543824D01*
X4914393Y-7543824D02*
X4895346Y-7534300D01*
X4895346Y-7534300D02*
X4885822Y-7524776D01*
X5190584Y-7343824D02*
X5095346Y-7343824D01*
X5095346Y-7343824D02*
X5085822Y-7439062D01*
X5085822Y-7439062D02*
X5095346Y-7429538D01*
X5095346Y-7429538D02*
X5114393Y-7420014D01*
X5114393Y-7420014D02*
X5162012Y-7420014D01*
X5162012Y-7420014D02*
X5181060Y-7429538D01*
X5181060Y-7429538D02*
X5190584Y-7439062D01*
X5190584Y-7439062D02*
X5200108Y-7458109D01*
X5200108Y-7458109D02*
X5200108Y-7505728D01*
X5200108Y-7505728D02*
X5190584Y-7524776D01*
X5190584Y-7524776D02*
X5181060Y-7534300D01*
X5181060Y-7534300D02*
X5162012Y-7543824D01*
X5162012Y-7543824D02*
X5114393Y-7543824D01*
X5114393Y-7543824D02*
X5095346Y-7534300D01*
X5095346Y-7534300D02*
X5085822Y-7524776D01*
X5371536Y-7410490D02*
X5371536Y-7543824D01*
X5323917Y-7334300D02*
X5276298Y-7477157D01*
X5276298Y-7477157D02*
X5400108Y-7477157D01*
X5466774Y-7343824D02*
X5466774Y-7381919D01*
X5542965Y-7343824D02*
X5542965Y-7381919D01*
X5838203Y-7620014D02*
X5828679Y-7610490D01*
X5828679Y-7610490D02*
X5809631Y-7581919D01*
X5809631Y-7581919D02*
X5800108Y-7562871D01*
X5800108Y-7562871D02*
X5790584Y-7534300D01*
X5790584Y-7534300D02*
X5781060Y-7486681D01*
X5781060Y-7486681D02*
X5781060Y-7448586D01*
X5781060Y-7448586D02*
X5790584Y-7400967D01*
X5790584Y-7400967D02*
X5800108Y-7372395D01*
X5800108Y-7372395D02*
X5809631Y-7353348D01*
X5809631Y-7353348D02*
X5828679Y-7324776D01*
X5828679Y-7324776D02*
X5838203Y-7315252D01*
X6019155Y-7543824D02*
X5904869Y-7543824D01*
X5962012Y-7543824D02*
X5962012Y-7343824D01*
X5962012Y-7343824D02*
X5942965Y-7372395D01*
X5942965Y-7372395D02*
X5923917Y-7391443D01*
X5923917Y-7391443D02*
X5904869Y-7400967D01*
X6190584Y-7343824D02*
X6152488Y-7343824D01*
X6152488Y-7343824D02*
X6133441Y-7353348D01*
X6133441Y-7353348D02*
X6123917Y-7362871D01*
X6123917Y-7362871D02*
X6104869Y-7391443D01*
X6104869Y-7391443D02*
X6095346Y-7429538D01*
X6095346Y-7429538D02*
X6095346Y-7505728D01*
X6095346Y-7505728D02*
X6104869Y-7524776D01*
X6104869Y-7524776D02*
X6114393Y-7534300D01*
X6114393Y-7534300D02*
X6133441Y-7543824D01*
X6133441Y-7543824D02*
X6171536Y-7543824D01*
X6171536Y-7543824D02*
X6190584Y-7534300D01*
X6190584Y-7534300D02*
X6200108Y-7524776D01*
X6200108Y-7524776D02*
X6209631Y-7505728D01*
X6209631Y-7505728D02*
X6209631Y-7458109D01*
X6209631Y-7458109D02*
X6200108Y-7439062D01*
X6200108Y-7439062D02*
X6190584Y-7429538D01*
X6190584Y-7429538D02*
X6171536Y-7420014D01*
X6171536Y-7420014D02*
X6133441Y-7420014D01*
X6133441Y-7420014D02*
X6114393Y-7429538D01*
X6114393Y-7429538D02*
X6104869Y-7439062D01*
X6104869Y-7439062D02*
X6095346Y-7458109D01*
X6447727Y-7543824D02*
X6447727Y-7343824D01*
X6533441Y-7543824D02*
X6533441Y-7439062D01*
X6533441Y-7439062D02*
X6523917Y-7420014D01*
X6523917Y-7420014D02*
X6504870Y-7410490D01*
X6504870Y-7410490D02*
X6476298Y-7410490D01*
X6476298Y-7410490D02*
X6457250Y-7420014D01*
X6457250Y-7420014D02*
X6447727Y-7429538D01*
X6657250Y-7543824D02*
X6638203Y-7534300D01*
X6638203Y-7534300D02*
X6628679Y-7524776D01*
X6628679Y-7524776D02*
X6619155Y-7505728D01*
X6619155Y-7505728D02*
X6619155Y-7448586D01*
X6619155Y-7448586D02*
X6628679Y-7429538D01*
X6628679Y-7429538D02*
X6638203Y-7420014D01*
X6638203Y-7420014D02*
X6657250Y-7410490D01*
X6657250Y-7410490D02*
X6685822Y-7410490D01*
X6685822Y-7410490D02*
X6704870Y-7420014D01*
X6704870Y-7420014D02*
X6714393Y-7429538D01*
X6714393Y-7429538D02*
X6723917Y-7448586D01*
X6723917Y-7448586D02*
X6723917Y-7505728D01*
X6723917Y-7505728D02*
X6714393Y-7524776D01*
X6714393Y-7524776D02*
X6704870Y-7534300D01*
X6704870Y-7534300D02*
X6685822Y-7543824D01*
X6685822Y-7543824D02*
X6657250Y-7543824D01*
X6838203Y-7543824D02*
X6819155Y-7534300D01*
X6819155Y-7534300D02*
X6809631Y-7515252D01*
X6809631Y-7515252D02*
X6809631Y-7343824D01*
X6990584Y-7534300D02*
X6971536Y-7543824D01*
X6971536Y-7543824D02*
X6933441Y-7543824D01*
X6933441Y-7543824D02*
X6914393Y-7534300D01*
X6914393Y-7534300D02*
X6904870Y-7515252D01*
X6904870Y-7515252D02*
X6904870Y-7439062D01*
X6904870Y-7439062D02*
X6914393Y-7420014D01*
X6914393Y-7420014D02*
X6933441Y-7410490D01*
X6933441Y-7410490D02*
X6971536Y-7410490D01*
X6971536Y-7410490D02*
X6990584Y-7420014D01*
X6990584Y-7420014D02*
X7000108Y-7439062D01*
X7000108Y-7439062D02*
X7000108Y-7458109D01*
X7000108Y-7458109D02*
X6904870Y-7477157D01*
X7076298Y-7534300D02*
X7095346Y-7543824D01*
X7095346Y-7543824D02*
X7133441Y-7543824D01*
X7133441Y-7543824D02*
X7152489Y-7534300D01*
X7152489Y-7534300D02*
X7162012Y-7515252D01*
X7162012Y-7515252D02*
X7162012Y-7505728D01*
X7162012Y-7505728D02*
X7152489Y-7486681D01*
X7152489Y-7486681D02*
X7133441Y-7477157D01*
X7133441Y-7477157D02*
X7104870Y-7477157D01*
X7104870Y-7477157D02*
X7085822Y-7467633D01*
X7085822Y-7467633D02*
X7076298Y-7448586D01*
X7076298Y-7448586D02*
X7076298Y-7439062D01*
X7076298Y-7439062D02*
X7085822Y-7420014D01*
X7085822Y-7420014D02*
X7104870Y-7410490D01*
X7104870Y-7410490D02*
X7133441Y-7410490D01*
X7133441Y-7410490D02*
X7152489Y-7420014D01*
X7228679Y-7620014D02*
X7238203Y-7610490D01*
X7238203Y-7610490D02*
X7257251Y-7581919D01*
X7257251Y-7581919D02*
X7266774Y-7562871D01*
X7266774Y-7562871D02*
X7276298Y-7534300D01*
X7276298Y-7534300D02*
X7285822Y-7486681D01*
X7285822Y-7486681D02*
X7285822Y-7448586D01*
X7285822Y-7448586D02*
X7276298Y-7400967D01*
X7276298Y-7400967D02*
X7266774Y-7372395D01*
X7266774Y-7372395D02*
X7257251Y-7353348D01*
X7257251Y-7353348D02*
X7238203Y-7324776D01*
X7238203Y-7324776D02*
X7228679Y-7315252D01*
D12*
X2249749Y-7748669D02*
X2249749Y-7684011D01*
X2185091Y-7684011D01*
X2185091Y-7748669D01*
X2249749Y-7748669D01*
D11*
X2562012Y-7607824D02*
X2581060Y-7607824D01*
X2581060Y-7607824D02*
X2600107Y-7617348D01*
X2600107Y-7617348D02*
X2609631Y-7626871D01*
X2609631Y-7626871D02*
X2619155Y-7645919D01*
X2619155Y-7645919D02*
X2628679Y-7684014D01*
X2628679Y-7684014D02*
X2628679Y-7731633D01*
X2628679Y-7731633D02*
X2619155Y-7769728D01*
X2619155Y-7769728D02*
X2609631Y-7788776D01*
X2609631Y-7788776D02*
X2600107Y-7798300D01*
X2600107Y-7798300D02*
X2581060Y-7807824D01*
X2581060Y-7807824D02*
X2562012Y-7807824D01*
X2562012Y-7807824D02*
X2542964Y-7798300D01*
X2542964Y-7798300D02*
X2533441Y-7788776D01*
X2533441Y-7788776D02*
X2523917Y-7769728D01*
X2523917Y-7769728D02*
X2514393Y-7731633D01*
X2514393Y-7731633D02*
X2514393Y-7684014D01*
X2514393Y-7684014D02*
X2523917Y-7645919D01*
X2523917Y-7645919D02*
X2533441Y-7626871D01*
X2533441Y-7626871D02*
X2542964Y-7617348D01*
X2542964Y-7617348D02*
X2562012Y-7607824D01*
X2714393Y-7788776D02*
X2723917Y-7798300D01*
X2723917Y-7798300D02*
X2714393Y-7807824D01*
X2714393Y-7807824D02*
X2704869Y-7798300D01*
X2704869Y-7798300D02*
X2714393Y-7788776D01*
X2714393Y-7788776D02*
X2714393Y-7807824D01*
X2819155Y-7807824D02*
X2857250Y-7807824D01*
X2857250Y-7807824D02*
X2876298Y-7798300D01*
X2876298Y-7798300D02*
X2885822Y-7788776D01*
X2885822Y-7788776D02*
X2904869Y-7760205D01*
X2904869Y-7760205D02*
X2914393Y-7722109D01*
X2914393Y-7722109D02*
X2914393Y-7645919D01*
X2914393Y-7645919D02*
X2904869Y-7626871D01*
X2904869Y-7626871D02*
X2895345Y-7617348D01*
X2895345Y-7617348D02*
X2876298Y-7607824D01*
X2876298Y-7607824D02*
X2838202Y-7607824D01*
X2838202Y-7607824D02*
X2819155Y-7617348D01*
X2819155Y-7617348D02*
X2809631Y-7626871D01*
X2809631Y-7626871D02*
X2800107Y-7645919D01*
X2800107Y-7645919D02*
X2800107Y-7693538D01*
X2800107Y-7693538D02*
X2809631Y-7712586D01*
X2809631Y-7712586D02*
X2819155Y-7722109D01*
X2819155Y-7722109D02*
X2838202Y-7731633D01*
X2838202Y-7731633D02*
X2876298Y-7731633D01*
X2876298Y-7731633D02*
X2895345Y-7722109D01*
X2895345Y-7722109D02*
X2904869Y-7712586D01*
X2904869Y-7712586D02*
X2914393Y-7693538D01*
X3104869Y-7807824D02*
X2990583Y-7807824D01*
X3047726Y-7807824D02*
X3047726Y-7607824D01*
X3047726Y-7607824D02*
X3028679Y-7636395D01*
X3028679Y-7636395D02*
X3009631Y-7655443D01*
X3009631Y-7655443D02*
X2990583Y-7664967D01*
X3276298Y-7674490D02*
X3276298Y-7807824D01*
X3228679Y-7598300D02*
X3181060Y-7741157D01*
X3181060Y-7741157D02*
X3304869Y-7741157D01*
X3381060Y-7807824D02*
X3381060Y-7674490D01*
X3381060Y-7693538D02*
X3390583Y-7684014D01*
X3390583Y-7684014D02*
X3409631Y-7674490D01*
X3409631Y-7674490D02*
X3438203Y-7674490D01*
X3438203Y-7674490D02*
X3457250Y-7684014D01*
X3457250Y-7684014D02*
X3466774Y-7703062D01*
X3466774Y-7703062D02*
X3466774Y-7807824D01*
X3466774Y-7703062D02*
X3476298Y-7684014D01*
X3476298Y-7684014D02*
X3495345Y-7674490D01*
X3495345Y-7674490D02*
X3523917Y-7674490D01*
X3523917Y-7674490D02*
X3542964Y-7684014D01*
X3542964Y-7684014D02*
X3552488Y-7703062D01*
X3552488Y-7703062D02*
X3552488Y-7807824D01*
X3647726Y-7807824D02*
X3647726Y-7674490D01*
X3647726Y-7693538D02*
X3657250Y-7684014D01*
X3657250Y-7684014D02*
X3676298Y-7674490D01*
X3676298Y-7674490D02*
X3704869Y-7674490D01*
X3704869Y-7674490D02*
X3723917Y-7684014D01*
X3723917Y-7684014D02*
X3733441Y-7703062D01*
X3733441Y-7703062D02*
X3733441Y-7807824D01*
X3733441Y-7703062D02*
X3742964Y-7684014D01*
X3742964Y-7684014D02*
X3762012Y-7674490D01*
X3762012Y-7674490D02*
X3790583Y-7674490D01*
X3790583Y-7674490D02*
X3809631Y-7684014D01*
X3809631Y-7684014D02*
X3819155Y-7703062D01*
X3819155Y-7703062D02*
X3819155Y-7807824D01*
X4209631Y-7598300D02*
X4038203Y-7855443D01*
X4466774Y-7607824D02*
X4485822Y-7607824D01*
X4485822Y-7607824D02*
X4504869Y-7617348D01*
X4504869Y-7617348D02*
X4514393Y-7626871D01*
X4514393Y-7626871D02*
X4523917Y-7645919D01*
X4523917Y-7645919D02*
X4533441Y-7684014D01*
X4533441Y-7684014D02*
X4533441Y-7731633D01*
X4533441Y-7731633D02*
X4523917Y-7769728D01*
X4523917Y-7769728D02*
X4514393Y-7788776D01*
X4514393Y-7788776D02*
X4504869Y-7798300D01*
X4504869Y-7798300D02*
X4485822Y-7807824D01*
X4485822Y-7807824D02*
X4466774Y-7807824D01*
X4466774Y-7807824D02*
X4447727Y-7798300D01*
X4447727Y-7798300D02*
X4438203Y-7788776D01*
X4438203Y-7788776D02*
X4428679Y-7769728D01*
X4428679Y-7769728D02*
X4419155Y-7731633D01*
X4419155Y-7731633D02*
X4419155Y-7684014D01*
X4419155Y-7684014D02*
X4428679Y-7645919D01*
X4428679Y-7645919D02*
X4438203Y-7626871D01*
X4438203Y-7626871D02*
X4447727Y-7617348D01*
X4447727Y-7617348D02*
X4466774Y-7607824D01*
X4619155Y-7788776D02*
X4628679Y-7798300D01*
X4628679Y-7798300D02*
X4619155Y-7807824D01*
X4619155Y-7807824D02*
X4609631Y-7798300D01*
X4609631Y-7798300D02*
X4619155Y-7788776D01*
X4619155Y-7788776D02*
X4619155Y-7807824D01*
X4752488Y-7607824D02*
X4771536Y-7607824D01*
X4771536Y-7607824D02*
X4790584Y-7617348D01*
X4790584Y-7617348D02*
X4800108Y-7626871D01*
X4800108Y-7626871D02*
X4809631Y-7645919D01*
X4809631Y-7645919D02*
X4819155Y-7684014D01*
X4819155Y-7684014D02*
X4819155Y-7731633D01*
X4819155Y-7731633D02*
X4809631Y-7769728D01*
X4809631Y-7769728D02*
X4800108Y-7788776D01*
X4800108Y-7788776D02*
X4790584Y-7798300D01*
X4790584Y-7798300D02*
X4771536Y-7807824D01*
X4771536Y-7807824D02*
X4752488Y-7807824D01*
X4752488Y-7807824D02*
X4733441Y-7798300D01*
X4733441Y-7798300D02*
X4723917Y-7788776D01*
X4723917Y-7788776D02*
X4714393Y-7769728D01*
X4714393Y-7769728D02*
X4704869Y-7731633D01*
X4704869Y-7731633D02*
X4704869Y-7684014D01*
X4704869Y-7684014D02*
X4714393Y-7645919D01*
X4714393Y-7645919D02*
X4723917Y-7626871D01*
X4723917Y-7626871D02*
X4733441Y-7617348D01*
X4733441Y-7617348D02*
X4752488Y-7607824D01*
X4885822Y-7607824D02*
X5009631Y-7607824D01*
X5009631Y-7607824D02*
X4942965Y-7684014D01*
X4942965Y-7684014D02*
X4971536Y-7684014D01*
X4971536Y-7684014D02*
X4990584Y-7693538D01*
X4990584Y-7693538D02*
X5000108Y-7703062D01*
X5000108Y-7703062D02*
X5009631Y-7722109D01*
X5009631Y-7722109D02*
X5009631Y-7769728D01*
X5009631Y-7769728D02*
X5000108Y-7788776D01*
X5000108Y-7788776D02*
X4990584Y-7798300D01*
X4990584Y-7798300D02*
X4971536Y-7807824D01*
X4971536Y-7807824D02*
X4914393Y-7807824D01*
X4914393Y-7807824D02*
X4895346Y-7798300D01*
X4895346Y-7798300D02*
X4885822Y-7788776D01*
X5181060Y-7607824D02*
X5142965Y-7607824D01*
X5142965Y-7607824D02*
X5123917Y-7617348D01*
X5123917Y-7617348D02*
X5114393Y-7626871D01*
X5114393Y-7626871D02*
X5095346Y-7655443D01*
X5095346Y-7655443D02*
X5085822Y-7693538D01*
X5085822Y-7693538D02*
X5085822Y-7769728D01*
X5085822Y-7769728D02*
X5095346Y-7788776D01*
X5095346Y-7788776D02*
X5104869Y-7798300D01*
X5104869Y-7798300D02*
X5123917Y-7807824D01*
X5123917Y-7807824D02*
X5162012Y-7807824D01*
X5162012Y-7807824D02*
X5181060Y-7798300D01*
X5181060Y-7798300D02*
X5190584Y-7788776D01*
X5190584Y-7788776D02*
X5200108Y-7769728D01*
X5200108Y-7769728D02*
X5200108Y-7722109D01*
X5200108Y-7722109D02*
X5190584Y-7703062D01*
X5190584Y-7703062D02*
X5181060Y-7693538D01*
X5181060Y-7693538D02*
X5162012Y-7684014D01*
X5162012Y-7684014D02*
X5123917Y-7684014D01*
X5123917Y-7684014D02*
X5104869Y-7693538D01*
X5104869Y-7693538D02*
X5095346Y-7703062D01*
X5095346Y-7703062D02*
X5085822Y-7722109D01*
X5323917Y-7607824D02*
X5342965Y-7607824D01*
X5342965Y-7607824D02*
X5362012Y-7617348D01*
X5362012Y-7617348D02*
X5371536Y-7626871D01*
X5371536Y-7626871D02*
X5381060Y-7645919D01*
X5381060Y-7645919D02*
X5390584Y-7684014D01*
X5390584Y-7684014D02*
X5390584Y-7731633D01*
X5390584Y-7731633D02*
X5381060Y-7769728D01*
X5381060Y-7769728D02*
X5371536Y-7788776D01*
X5371536Y-7788776D02*
X5362012Y-7798300D01*
X5362012Y-7798300D02*
X5342965Y-7807824D01*
X5342965Y-7807824D02*
X5323917Y-7807824D01*
X5323917Y-7807824D02*
X5304869Y-7798300D01*
X5304869Y-7798300D02*
X5295346Y-7788776D01*
X5295346Y-7788776D02*
X5285822Y-7769728D01*
X5285822Y-7769728D02*
X5276298Y-7731633D01*
X5276298Y-7731633D02*
X5276298Y-7684014D01*
X5276298Y-7684014D02*
X5285822Y-7645919D01*
X5285822Y-7645919D02*
X5295346Y-7626871D01*
X5295346Y-7626871D02*
X5304869Y-7617348D01*
X5304869Y-7617348D02*
X5323917Y-7607824D01*
X5466774Y-7607824D02*
X5466774Y-7645919D01*
X5542965Y-7607824D02*
X5542965Y-7645919D01*
X5838203Y-7884014D02*
X5828679Y-7874490D01*
X5828679Y-7874490D02*
X5809631Y-7845919D01*
X5809631Y-7845919D02*
X5800108Y-7826871D01*
X5800108Y-7826871D02*
X5790584Y-7798300D01*
X5790584Y-7798300D02*
X5781060Y-7750681D01*
X5781060Y-7750681D02*
X5781060Y-7712586D01*
X5781060Y-7712586D02*
X5790584Y-7664967D01*
X5790584Y-7664967D02*
X5800108Y-7636395D01*
X5800108Y-7636395D02*
X5809631Y-7617348D01*
X5809631Y-7617348D02*
X5828679Y-7588776D01*
X5828679Y-7588776D02*
X5838203Y-7579252D01*
X5895346Y-7607824D02*
X6019155Y-7607824D01*
X6019155Y-7607824D02*
X5952488Y-7684014D01*
X5952488Y-7684014D02*
X5981060Y-7684014D01*
X5981060Y-7684014D02*
X6000108Y-7693538D01*
X6000108Y-7693538D02*
X6009631Y-7703062D01*
X6009631Y-7703062D02*
X6019155Y-7722109D01*
X6019155Y-7722109D02*
X6019155Y-7769728D01*
X6019155Y-7769728D02*
X6009631Y-7788776D01*
X6009631Y-7788776D02*
X6000108Y-7798300D01*
X6000108Y-7798300D02*
X5981060Y-7807824D01*
X5981060Y-7807824D02*
X5923917Y-7807824D01*
X5923917Y-7807824D02*
X5904869Y-7798300D01*
X5904869Y-7798300D02*
X5895346Y-7788776D01*
X6095346Y-7626871D02*
X6104869Y-7617348D01*
X6104869Y-7617348D02*
X6123917Y-7607824D01*
X6123917Y-7607824D02*
X6171536Y-7607824D01*
X6171536Y-7607824D02*
X6190584Y-7617348D01*
X6190584Y-7617348D02*
X6200108Y-7626871D01*
X6200108Y-7626871D02*
X6209631Y-7645919D01*
X6209631Y-7645919D02*
X6209631Y-7664967D01*
X6209631Y-7664967D02*
X6200108Y-7693538D01*
X6200108Y-7693538D02*
X6085822Y-7807824D01*
X6085822Y-7807824D02*
X6209631Y-7807824D01*
X6333441Y-7607824D02*
X6352489Y-7607824D01*
X6352489Y-7607824D02*
X6371536Y-7617348D01*
X6371536Y-7617348D02*
X6381060Y-7626871D01*
X6381060Y-7626871D02*
X6390584Y-7645919D01*
X6390584Y-7645919D02*
X6400108Y-7684014D01*
X6400108Y-7684014D02*
X6400108Y-7731633D01*
X6400108Y-7731633D02*
X6390584Y-7769728D01*
X6390584Y-7769728D02*
X6381060Y-7788776D01*
X6381060Y-7788776D02*
X6371536Y-7798300D01*
X6371536Y-7798300D02*
X6352489Y-7807824D01*
X6352489Y-7807824D02*
X6333441Y-7807824D01*
X6333441Y-7807824D02*
X6314393Y-7798300D01*
X6314393Y-7798300D02*
X6304869Y-7788776D01*
X6304869Y-7788776D02*
X6295346Y-7769728D01*
X6295346Y-7769728D02*
X6285822Y-7731633D01*
X6285822Y-7731633D02*
X6285822Y-7684014D01*
X6285822Y-7684014D02*
X6295346Y-7645919D01*
X6295346Y-7645919D02*
X6304869Y-7626871D01*
X6304869Y-7626871D02*
X6314393Y-7617348D01*
X6314393Y-7617348D02*
X6333441Y-7607824D01*
X6638203Y-7807824D02*
X6638203Y-7607824D01*
X6723917Y-7807824D02*
X6723917Y-7703062D01*
X6723917Y-7703062D02*
X6714393Y-7684014D01*
X6714393Y-7684014D02*
X6695346Y-7674490D01*
X6695346Y-7674490D02*
X6666774Y-7674490D01*
X6666774Y-7674490D02*
X6647727Y-7684014D01*
X6647727Y-7684014D02*
X6638203Y-7693538D01*
X6847727Y-7807824D02*
X6828679Y-7798300D01*
X6828679Y-7798300D02*
X6819155Y-7788776D01*
X6819155Y-7788776D02*
X6809631Y-7769728D01*
X6809631Y-7769728D02*
X6809631Y-7712586D01*
X6809631Y-7712586D02*
X6819155Y-7693538D01*
X6819155Y-7693538D02*
X6828679Y-7684014D01*
X6828679Y-7684014D02*
X6847727Y-7674490D01*
X6847727Y-7674490D02*
X6876298Y-7674490D01*
X6876298Y-7674490D02*
X6895346Y-7684014D01*
X6895346Y-7684014D02*
X6904870Y-7693538D01*
X6904870Y-7693538D02*
X6914393Y-7712586D01*
X6914393Y-7712586D02*
X6914393Y-7769728D01*
X6914393Y-7769728D02*
X6904870Y-7788776D01*
X6904870Y-7788776D02*
X6895346Y-7798300D01*
X6895346Y-7798300D02*
X6876298Y-7807824D01*
X6876298Y-7807824D02*
X6847727Y-7807824D01*
X7028679Y-7807824D02*
X7009631Y-7798300D01*
X7009631Y-7798300D02*
X7000108Y-7779252D01*
X7000108Y-7779252D02*
X7000108Y-7607824D01*
X7181060Y-7798300D02*
X7162012Y-7807824D01*
X7162012Y-7807824D02*
X7123917Y-7807824D01*
X7123917Y-7807824D02*
X7104870Y-7798300D01*
X7104870Y-7798300D02*
X7095346Y-7779252D01*
X7095346Y-7779252D02*
X7095346Y-7703062D01*
X7095346Y-7703062D02*
X7104870Y-7684014D01*
X7104870Y-7684014D02*
X7123917Y-7674490D01*
X7123917Y-7674490D02*
X7162012Y-7674490D01*
X7162012Y-7674490D02*
X7181060Y-7684014D01*
X7181060Y-7684014D02*
X7190584Y-7703062D01*
X7190584Y-7703062D02*
X7190584Y-7722109D01*
X7190584Y-7722109D02*
X7095346Y-7741157D01*
X7266774Y-7798300D02*
X7285822Y-7807824D01*
X7285822Y-7807824D02*
X7323917Y-7807824D01*
X7323917Y-7807824D02*
X7342965Y-7798300D01*
X7342965Y-7798300D02*
X7352489Y-7779252D01*
X7352489Y-7779252D02*
X7352489Y-7769728D01*
X7352489Y-7769728D02*
X7342965Y-7750681D01*
X7342965Y-7750681D02*
X7323917Y-7741157D01*
X7323917Y-7741157D02*
X7295346Y-7741157D01*
X7295346Y-7741157D02*
X7276298Y-7731633D01*
X7276298Y-7731633D02*
X7266774Y-7712586D01*
X7266774Y-7712586D02*
X7266774Y-7703062D01*
X7266774Y-7703062D02*
X7276298Y-7684014D01*
X7276298Y-7684014D02*
X7295346Y-7674490D01*
X7295346Y-7674490D02*
X7323917Y-7674490D01*
X7323917Y-7674490D02*
X7342965Y-7684014D01*
X7419155Y-7884014D02*
X7428679Y-7874490D01*
X7428679Y-7874490D02*
X7447727Y-7845919D01*
X7447727Y-7845919D02*
X7457251Y-7826871D01*
X7457251Y-7826871D02*
X7466774Y-7798300D01*
X7466774Y-7798300D02*
X7476298Y-7750681D01*
X7476298Y-7750681D02*
X7476298Y-7712586D01*
X7476298Y-7712586D02*
X7466774Y-7664967D01*
X7466774Y-7664967D02*
X7457251Y-7636395D01*
X7457251Y-7636395D02*
X7447727Y-7617348D01*
X7447727Y-7617348D02*
X7428679Y-7588776D01*
X7428679Y-7588776D02*
X7419155Y-7579252D01*
D12*
X2213140Y-8030340D02*
X2263140Y-7980340D01*
X2213140Y-7930340D01*
X2163140Y-7980340D01*
X2213140Y-8030340D01*
D11*
X2628679Y-8071824D02*
X2514393Y-8071824D01*
X2571536Y-8071824D02*
X2571536Y-7871824D01*
X2571536Y-7871824D02*
X2552488Y-7900395D01*
X2552488Y-7900395D02*
X2533441Y-7919443D01*
X2533441Y-7919443D02*
X2514393Y-7928967D01*
X2714393Y-8052776D02*
X2723917Y-8062300D01*
X2723917Y-8062300D02*
X2714393Y-8071824D01*
X2714393Y-8071824D02*
X2704869Y-8062300D01*
X2704869Y-8062300D02*
X2714393Y-8052776D01*
X2714393Y-8052776D02*
X2714393Y-8071824D01*
X2847726Y-7871824D02*
X2866774Y-7871824D01*
X2866774Y-7871824D02*
X2885822Y-7881348D01*
X2885822Y-7881348D02*
X2895345Y-7890871D01*
X2895345Y-7890871D02*
X2904869Y-7909919D01*
X2904869Y-7909919D02*
X2914393Y-7948014D01*
X2914393Y-7948014D02*
X2914393Y-7995633D01*
X2914393Y-7995633D02*
X2904869Y-8033728D01*
X2904869Y-8033728D02*
X2895345Y-8052776D01*
X2895345Y-8052776D02*
X2885822Y-8062300D01*
X2885822Y-8062300D02*
X2866774Y-8071824D01*
X2866774Y-8071824D02*
X2847726Y-8071824D01*
X2847726Y-8071824D02*
X2828679Y-8062300D01*
X2828679Y-8062300D02*
X2819155Y-8052776D01*
X2819155Y-8052776D02*
X2809631Y-8033728D01*
X2809631Y-8033728D02*
X2800107Y-7995633D01*
X2800107Y-7995633D02*
X2800107Y-7948014D01*
X2800107Y-7948014D02*
X2809631Y-7909919D01*
X2809631Y-7909919D02*
X2819155Y-7890871D01*
X2819155Y-7890871D02*
X2828679Y-7881348D01*
X2828679Y-7881348D02*
X2847726Y-7871824D01*
X3038202Y-7871824D02*
X3057250Y-7871824D01*
X3057250Y-7871824D02*
X3076298Y-7881348D01*
X3076298Y-7881348D02*
X3085822Y-7890871D01*
X3085822Y-7890871D02*
X3095345Y-7909919D01*
X3095345Y-7909919D02*
X3104869Y-7948014D01*
X3104869Y-7948014D02*
X3104869Y-7995633D01*
X3104869Y-7995633D02*
X3095345Y-8033728D01*
X3095345Y-8033728D02*
X3085822Y-8052776D01*
X3085822Y-8052776D02*
X3076298Y-8062300D01*
X3076298Y-8062300D02*
X3057250Y-8071824D01*
X3057250Y-8071824D02*
X3038202Y-8071824D01*
X3038202Y-8071824D02*
X3019155Y-8062300D01*
X3019155Y-8062300D02*
X3009631Y-8052776D01*
X3009631Y-8052776D02*
X3000107Y-8033728D01*
X3000107Y-8033728D02*
X2990583Y-7995633D01*
X2990583Y-7995633D02*
X2990583Y-7948014D01*
X2990583Y-7948014D02*
X3000107Y-7909919D01*
X3000107Y-7909919D02*
X3009631Y-7890871D01*
X3009631Y-7890871D02*
X3019155Y-7881348D01*
X3019155Y-7881348D02*
X3038202Y-7871824D01*
X3228679Y-7871824D02*
X3247726Y-7871824D01*
X3247726Y-7871824D02*
X3266774Y-7881348D01*
X3266774Y-7881348D02*
X3276298Y-7890871D01*
X3276298Y-7890871D02*
X3285822Y-7909919D01*
X3285822Y-7909919D02*
X3295345Y-7948014D01*
X3295345Y-7948014D02*
X3295345Y-7995633D01*
X3295345Y-7995633D02*
X3285822Y-8033728D01*
X3285822Y-8033728D02*
X3276298Y-8052776D01*
X3276298Y-8052776D02*
X3266774Y-8062300D01*
X3266774Y-8062300D02*
X3247726Y-8071824D01*
X3247726Y-8071824D02*
X3228679Y-8071824D01*
X3228679Y-8071824D02*
X3209631Y-8062300D01*
X3209631Y-8062300D02*
X3200107Y-8052776D01*
X3200107Y-8052776D02*
X3190583Y-8033728D01*
X3190583Y-8033728D02*
X3181060Y-7995633D01*
X3181060Y-7995633D02*
X3181060Y-7948014D01*
X3181060Y-7948014D02*
X3190583Y-7909919D01*
X3190583Y-7909919D02*
X3200107Y-7890871D01*
X3200107Y-7890871D02*
X3209631Y-7881348D01*
X3209631Y-7881348D02*
X3228679Y-7871824D01*
X3381060Y-8071824D02*
X3381060Y-7938490D01*
X3381060Y-7957538D02*
X3390583Y-7948014D01*
X3390583Y-7948014D02*
X3409631Y-7938490D01*
X3409631Y-7938490D02*
X3438203Y-7938490D01*
X3438203Y-7938490D02*
X3457250Y-7948014D01*
X3457250Y-7948014D02*
X3466774Y-7967062D01*
X3466774Y-7967062D02*
X3466774Y-8071824D01*
X3466774Y-7967062D02*
X3476298Y-7948014D01*
X3476298Y-7948014D02*
X3495345Y-7938490D01*
X3495345Y-7938490D02*
X3523917Y-7938490D01*
X3523917Y-7938490D02*
X3542964Y-7948014D01*
X3542964Y-7948014D02*
X3552488Y-7967062D01*
X3552488Y-7967062D02*
X3552488Y-8071824D01*
X3647726Y-8071824D02*
X3647726Y-7938490D01*
X3647726Y-7957538D02*
X3657250Y-7948014D01*
X3657250Y-7948014D02*
X3676298Y-7938490D01*
X3676298Y-7938490D02*
X3704869Y-7938490D01*
X3704869Y-7938490D02*
X3723917Y-7948014D01*
X3723917Y-7948014D02*
X3733441Y-7967062D01*
X3733441Y-7967062D02*
X3733441Y-8071824D01*
X3733441Y-7967062D02*
X3742964Y-7948014D01*
X3742964Y-7948014D02*
X3762012Y-7938490D01*
X3762012Y-7938490D02*
X3790583Y-7938490D01*
X3790583Y-7938490D02*
X3809631Y-7948014D01*
X3809631Y-7948014D02*
X3819155Y-7967062D01*
X3819155Y-7967062D02*
X3819155Y-8071824D01*
X4209631Y-7862300D02*
X4038203Y-8119443D01*
X4466774Y-7871824D02*
X4485822Y-7871824D01*
X4485822Y-7871824D02*
X4504869Y-7881348D01*
X4504869Y-7881348D02*
X4514393Y-7890871D01*
X4514393Y-7890871D02*
X4523917Y-7909919D01*
X4523917Y-7909919D02*
X4533441Y-7948014D01*
X4533441Y-7948014D02*
X4533441Y-7995633D01*
X4533441Y-7995633D02*
X4523917Y-8033728D01*
X4523917Y-8033728D02*
X4514393Y-8052776D01*
X4514393Y-8052776D02*
X4504869Y-8062300D01*
X4504869Y-8062300D02*
X4485822Y-8071824D01*
X4485822Y-8071824D02*
X4466774Y-8071824D01*
X4466774Y-8071824D02*
X4447727Y-8062300D01*
X4447727Y-8062300D02*
X4438203Y-8052776D01*
X4438203Y-8052776D02*
X4428679Y-8033728D01*
X4428679Y-8033728D02*
X4419155Y-7995633D01*
X4419155Y-7995633D02*
X4419155Y-7948014D01*
X4419155Y-7948014D02*
X4428679Y-7909919D01*
X4428679Y-7909919D02*
X4438203Y-7890871D01*
X4438203Y-7890871D02*
X4447727Y-7881348D01*
X4447727Y-7881348D02*
X4466774Y-7871824D01*
X4619155Y-8052776D02*
X4628679Y-8062300D01*
X4628679Y-8062300D02*
X4619155Y-8071824D01*
X4619155Y-8071824D02*
X4609631Y-8062300D01*
X4609631Y-8062300D02*
X4619155Y-8052776D01*
X4619155Y-8052776D02*
X4619155Y-8071824D01*
X4752488Y-7871824D02*
X4771536Y-7871824D01*
X4771536Y-7871824D02*
X4790584Y-7881348D01*
X4790584Y-7881348D02*
X4800108Y-7890871D01*
X4800108Y-7890871D02*
X4809631Y-7909919D01*
X4809631Y-7909919D02*
X4819155Y-7948014D01*
X4819155Y-7948014D02*
X4819155Y-7995633D01*
X4819155Y-7995633D02*
X4809631Y-8033728D01*
X4809631Y-8033728D02*
X4800108Y-8052776D01*
X4800108Y-8052776D02*
X4790584Y-8062300D01*
X4790584Y-8062300D02*
X4771536Y-8071824D01*
X4771536Y-8071824D02*
X4752488Y-8071824D01*
X4752488Y-8071824D02*
X4733441Y-8062300D01*
X4733441Y-8062300D02*
X4723917Y-8052776D01*
X4723917Y-8052776D02*
X4714393Y-8033728D01*
X4714393Y-8033728D02*
X4704869Y-7995633D01*
X4704869Y-7995633D02*
X4704869Y-7948014D01*
X4704869Y-7948014D02*
X4714393Y-7909919D01*
X4714393Y-7909919D02*
X4723917Y-7890871D01*
X4723917Y-7890871D02*
X4733441Y-7881348D01*
X4733441Y-7881348D02*
X4752488Y-7871824D01*
X4885822Y-7871824D02*
X5009631Y-7871824D01*
X5009631Y-7871824D02*
X4942965Y-7948014D01*
X4942965Y-7948014D02*
X4971536Y-7948014D01*
X4971536Y-7948014D02*
X4990584Y-7957538D01*
X4990584Y-7957538D02*
X5000108Y-7967062D01*
X5000108Y-7967062D02*
X5009631Y-7986109D01*
X5009631Y-7986109D02*
X5009631Y-8033728D01*
X5009631Y-8033728D02*
X5000108Y-8052776D01*
X5000108Y-8052776D02*
X4990584Y-8062300D01*
X4990584Y-8062300D02*
X4971536Y-8071824D01*
X4971536Y-8071824D02*
X4914393Y-8071824D01*
X4914393Y-8071824D02*
X4895346Y-8062300D01*
X4895346Y-8062300D02*
X4885822Y-8052776D01*
X5104869Y-8071824D02*
X5142965Y-8071824D01*
X5142965Y-8071824D02*
X5162012Y-8062300D01*
X5162012Y-8062300D02*
X5171536Y-8052776D01*
X5171536Y-8052776D02*
X5190584Y-8024205D01*
X5190584Y-8024205D02*
X5200108Y-7986109D01*
X5200108Y-7986109D02*
X5200108Y-7909919D01*
X5200108Y-7909919D02*
X5190584Y-7890871D01*
X5190584Y-7890871D02*
X5181060Y-7881348D01*
X5181060Y-7881348D02*
X5162012Y-7871824D01*
X5162012Y-7871824D02*
X5123917Y-7871824D01*
X5123917Y-7871824D02*
X5104869Y-7881348D01*
X5104869Y-7881348D02*
X5095346Y-7890871D01*
X5095346Y-7890871D02*
X5085822Y-7909919D01*
X5085822Y-7909919D02*
X5085822Y-7957538D01*
X5085822Y-7957538D02*
X5095346Y-7976586D01*
X5095346Y-7976586D02*
X5104869Y-7986109D01*
X5104869Y-7986109D02*
X5123917Y-7995633D01*
X5123917Y-7995633D02*
X5162012Y-7995633D01*
X5162012Y-7995633D02*
X5181060Y-7986109D01*
X5181060Y-7986109D02*
X5190584Y-7976586D01*
X5190584Y-7976586D02*
X5200108Y-7957538D01*
X5371536Y-7938490D02*
X5371536Y-8071824D01*
X5323917Y-7862300D02*
X5276298Y-8005157D01*
X5276298Y-8005157D02*
X5400108Y-8005157D01*
X5466774Y-7871824D02*
X5466774Y-7909919D01*
X5542965Y-7871824D02*
X5542965Y-7909919D01*
X5838203Y-8148014D02*
X5828679Y-8138490D01*
X5828679Y-8138490D02*
X5809631Y-8109919D01*
X5809631Y-8109919D02*
X5800108Y-8090871D01*
X5800108Y-8090871D02*
X5790584Y-8062300D01*
X5790584Y-8062300D02*
X5781060Y-8014681D01*
X5781060Y-8014681D02*
X5781060Y-7976586D01*
X5781060Y-7976586D02*
X5790584Y-7928967D01*
X5790584Y-7928967D02*
X5800108Y-7900395D01*
X5800108Y-7900395D02*
X5809631Y-7881348D01*
X5809631Y-7881348D02*
X5828679Y-7852776D01*
X5828679Y-7852776D02*
X5838203Y-7843252D01*
X6019155Y-8071824D02*
X5904869Y-8071824D01*
X5962012Y-8071824D02*
X5962012Y-7871824D01*
X5962012Y-7871824D02*
X5942965Y-7900395D01*
X5942965Y-7900395D02*
X5923917Y-7919443D01*
X5923917Y-7919443D02*
X5904869Y-7928967D01*
X6142965Y-7871824D02*
X6162012Y-7871824D01*
X6162012Y-7871824D02*
X6181060Y-7881348D01*
X6181060Y-7881348D02*
X6190584Y-7890871D01*
X6190584Y-7890871D02*
X6200108Y-7909919D01*
X6200108Y-7909919D02*
X6209631Y-7948014D01*
X6209631Y-7948014D02*
X6209631Y-7995633D01*
X6209631Y-7995633D02*
X6200108Y-8033728D01*
X6200108Y-8033728D02*
X6190584Y-8052776D01*
X6190584Y-8052776D02*
X6181060Y-8062300D01*
X6181060Y-8062300D02*
X6162012Y-8071824D01*
X6162012Y-8071824D02*
X6142965Y-8071824D01*
X6142965Y-8071824D02*
X6123917Y-8062300D01*
X6123917Y-8062300D02*
X6114393Y-8052776D01*
X6114393Y-8052776D02*
X6104869Y-8033728D01*
X6104869Y-8033728D02*
X6095346Y-7995633D01*
X6095346Y-7995633D02*
X6095346Y-7948014D01*
X6095346Y-7948014D02*
X6104869Y-7909919D01*
X6104869Y-7909919D02*
X6114393Y-7890871D01*
X6114393Y-7890871D02*
X6123917Y-7881348D01*
X6123917Y-7881348D02*
X6142965Y-7871824D01*
X6447727Y-8071824D02*
X6447727Y-7871824D01*
X6533441Y-8071824D02*
X6533441Y-7967062D01*
X6533441Y-7967062D02*
X6523917Y-7948014D01*
X6523917Y-7948014D02*
X6504870Y-7938490D01*
X6504870Y-7938490D02*
X6476298Y-7938490D01*
X6476298Y-7938490D02*
X6457250Y-7948014D01*
X6457250Y-7948014D02*
X6447727Y-7957538D01*
X6657250Y-8071824D02*
X6638203Y-8062300D01*
X6638203Y-8062300D02*
X6628679Y-8052776D01*
X6628679Y-8052776D02*
X6619155Y-8033728D01*
X6619155Y-8033728D02*
X6619155Y-7976586D01*
X6619155Y-7976586D02*
X6628679Y-7957538D01*
X6628679Y-7957538D02*
X6638203Y-7948014D01*
X6638203Y-7948014D02*
X6657250Y-7938490D01*
X6657250Y-7938490D02*
X6685822Y-7938490D01*
X6685822Y-7938490D02*
X6704870Y-7948014D01*
X6704870Y-7948014D02*
X6714393Y-7957538D01*
X6714393Y-7957538D02*
X6723917Y-7976586D01*
X6723917Y-7976586D02*
X6723917Y-8033728D01*
X6723917Y-8033728D02*
X6714393Y-8052776D01*
X6714393Y-8052776D02*
X6704870Y-8062300D01*
X6704870Y-8062300D02*
X6685822Y-8071824D01*
X6685822Y-8071824D02*
X6657250Y-8071824D01*
X6838203Y-8071824D02*
X6819155Y-8062300D01*
X6819155Y-8062300D02*
X6809631Y-8043252D01*
X6809631Y-8043252D02*
X6809631Y-7871824D01*
X6990584Y-8062300D02*
X6971536Y-8071824D01*
X6971536Y-8071824D02*
X6933441Y-8071824D01*
X6933441Y-8071824D02*
X6914393Y-8062300D01*
X6914393Y-8062300D02*
X6904870Y-8043252D01*
X6904870Y-8043252D02*
X6904870Y-7967062D01*
X6904870Y-7967062D02*
X6914393Y-7948014D01*
X6914393Y-7948014D02*
X6933441Y-7938490D01*
X6933441Y-7938490D02*
X6971536Y-7938490D01*
X6971536Y-7938490D02*
X6990584Y-7948014D01*
X6990584Y-7948014D02*
X7000108Y-7967062D01*
X7000108Y-7967062D02*
X7000108Y-7986109D01*
X7000108Y-7986109D02*
X6904870Y-8005157D01*
X7076298Y-8062300D02*
X7095346Y-8071824D01*
X7095346Y-8071824D02*
X7133441Y-8071824D01*
X7133441Y-8071824D02*
X7152489Y-8062300D01*
X7152489Y-8062300D02*
X7162012Y-8043252D01*
X7162012Y-8043252D02*
X7162012Y-8033728D01*
X7162012Y-8033728D02*
X7152489Y-8014681D01*
X7152489Y-8014681D02*
X7133441Y-8005157D01*
X7133441Y-8005157D02*
X7104870Y-8005157D01*
X7104870Y-8005157D02*
X7085822Y-7995633D01*
X7085822Y-7995633D02*
X7076298Y-7976586D01*
X7076298Y-7976586D02*
X7076298Y-7967062D01*
X7076298Y-7967062D02*
X7085822Y-7948014D01*
X7085822Y-7948014D02*
X7104870Y-7938490D01*
X7104870Y-7938490D02*
X7133441Y-7938490D01*
X7133441Y-7938490D02*
X7152489Y-7948014D01*
X7228679Y-8148014D02*
X7238203Y-8138490D01*
X7238203Y-8138490D02*
X7257251Y-8109919D01*
X7257251Y-8109919D02*
X7266774Y-8090871D01*
X7266774Y-8090871D02*
X7276298Y-8062300D01*
X7276298Y-8062300D02*
X7285822Y-8014681D01*
X7285822Y-8014681D02*
X7285822Y-7976586D01*
X7285822Y-7976586D02*
X7276298Y-7928967D01*
X7276298Y-7928967D02*
X7266774Y-7900395D01*
X7266774Y-7900395D02*
X7257251Y-7881348D01*
X7257251Y-7881348D02*
X7238203Y-7852776D01*
X7238203Y-7852776D02*
X7228679Y-7843252D01*
X2063140Y-8144340D02*
X2263140Y-8344340D01*
X2263140Y-8144340D02*
X2063140Y-8344340D01*
X2263140Y-8244340D02*
G75*
G02*
X2063140Y-8244340I-100000J0D01*
G01*
X2063140Y-8244340D02*
G75*
G02*
X2263140Y-8244340I100000J0D01*
G01*
X2504869Y-8135824D02*
X2628679Y-8135824D01*
X2628679Y-8135824D02*
X2562012Y-8212014D01*
X2562012Y-8212014D02*
X2590584Y-8212014D01*
X2590584Y-8212014D02*
X2609631Y-8221538D01*
X2609631Y-8221538D02*
X2619155Y-8231062D01*
X2619155Y-8231062D02*
X2628679Y-8250109D01*
X2628679Y-8250109D02*
X2628679Y-8297728D01*
X2628679Y-8297728D02*
X2619155Y-8316776D01*
X2619155Y-8316776D02*
X2609631Y-8326300D01*
X2609631Y-8326300D02*
X2590584Y-8335824D01*
X2590584Y-8335824D02*
X2533441Y-8335824D01*
X2533441Y-8335824D02*
X2514393Y-8326300D01*
X2514393Y-8326300D02*
X2504869Y-8316776D01*
X2714393Y-8316776D02*
X2723917Y-8326300D01*
X2723917Y-8326300D02*
X2714393Y-8335824D01*
X2714393Y-8335824D02*
X2704869Y-8326300D01*
X2704869Y-8326300D02*
X2714393Y-8316776D01*
X2714393Y-8316776D02*
X2714393Y-8335824D01*
X2800107Y-8154871D02*
X2809631Y-8145348D01*
X2809631Y-8145348D02*
X2828679Y-8135824D01*
X2828679Y-8135824D02*
X2876298Y-8135824D01*
X2876298Y-8135824D02*
X2895345Y-8145348D01*
X2895345Y-8145348D02*
X2904869Y-8154871D01*
X2904869Y-8154871D02*
X2914393Y-8173919D01*
X2914393Y-8173919D02*
X2914393Y-8192967D01*
X2914393Y-8192967D02*
X2904869Y-8221538D01*
X2904869Y-8221538D02*
X2790584Y-8335824D01*
X2790584Y-8335824D02*
X2914393Y-8335824D01*
X3038202Y-8135824D02*
X3057250Y-8135824D01*
X3057250Y-8135824D02*
X3076298Y-8145348D01*
X3076298Y-8145348D02*
X3085822Y-8154871D01*
X3085822Y-8154871D02*
X3095345Y-8173919D01*
X3095345Y-8173919D02*
X3104869Y-8212014D01*
X3104869Y-8212014D02*
X3104869Y-8259633D01*
X3104869Y-8259633D02*
X3095345Y-8297728D01*
X3095345Y-8297728D02*
X3085822Y-8316776D01*
X3085822Y-8316776D02*
X3076298Y-8326300D01*
X3076298Y-8326300D02*
X3057250Y-8335824D01*
X3057250Y-8335824D02*
X3038202Y-8335824D01*
X3038202Y-8335824D02*
X3019155Y-8326300D01*
X3019155Y-8326300D02*
X3009631Y-8316776D01*
X3009631Y-8316776D02*
X3000107Y-8297728D01*
X3000107Y-8297728D02*
X2990583Y-8259633D01*
X2990583Y-8259633D02*
X2990583Y-8212014D01*
X2990583Y-8212014D02*
X3000107Y-8173919D01*
X3000107Y-8173919D02*
X3009631Y-8154871D01*
X3009631Y-8154871D02*
X3019155Y-8145348D01*
X3019155Y-8145348D02*
X3038202Y-8135824D01*
X3228679Y-8135824D02*
X3247726Y-8135824D01*
X3247726Y-8135824D02*
X3266774Y-8145348D01*
X3266774Y-8145348D02*
X3276298Y-8154871D01*
X3276298Y-8154871D02*
X3285822Y-8173919D01*
X3285822Y-8173919D02*
X3295345Y-8212014D01*
X3295345Y-8212014D02*
X3295345Y-8259633D01*
X3295345Y-8259633D02*
X3285822Y-8297728D01*
X3285822Y-8297728D02*
X3276298Y-8316776D01*
X3276298Y-8316776D02*
X3266774Y-8326300D01*
X3266774Y-8326300D02*
X3247726Y-8335824D01*
X3247726Y-8335824D02*
X3228679Y-8335824D01*
X3228679Y-8335824D02*
X3209631Y-8326300D01*
X3209631Y-8326300D02*
X3200107Y-8316776D01*
X3200107Y-8316776D02*
X3190583Y-8297728D01*
X3190583Y-8297728D02*
X3181060Y-8259633D01*
X3181060Y-8259633D02*
X3181060Y-8212014D01*
X3181060Y-8212014D02*
X3190583Y-8173919D01*
X3190583Y-8173919D02*
X3200107Y-8154871D01*
X3200107Y-8154871D02*
X3209631Y-8145348D01*
X3209631Y-8145348D02*
X3228679Y-8135824D01*
X3381060Y-8335824D02*
X3381060Y-8202490D01*
X3381060Y-8221538D02*
X3390583Y-8212014D01*
X3390583Y-8212014D02*
X3409631Y-8202490D01*
X3409631Y-8202490D02*
X3438203Y-8202490D01*
X3438203Y-8202490D02*
X3457250Y-8212014D01*
X3457250Y-8212014D02*
X3466774Y-8231062D01*
X3466774Y-8231062D02*
X3466774Y-8335824D01*
X3466774Y-8231062D02*
X3476298Y-8212014D01*
X3476298Y-8212014D02*
X3495345Y-8202490D01*
X3495345Y-8202490D02*
X3523917Y-8202490D01*
X3523917Y-8202490D02*
X3542964Y-8212014D01*
X3542964Y-8212014D02*
X3552488Y-8231062D01*
X3552488Y-8231062D02*
X3552488Y-8335824D01*
X3647726Y-8335824D02*
X3647726Y-8202490D01*
X3647726Y-8221538D02*
X3657250Y-8212014D01*
X3657250Y-8212014D02*
X3676298Y-8202490D01*
X3676298Y-8202490D02*
X3704869Y-8202490D01*
X3704869Y-8202490D02*
X3723917Y-8212014D01*
X3723917Y-8212014D02*
X3733441Y-8231062D01*
X3733441Y-8231062D02*
X3733441Y-8335824D01*
X3733441Y-8231062D02*
X3742964Y-8212014D01*
X3742964Y-8212014D02*
X3762012Y-8202490D01*
X3762012Y-8202490D02*
X3790583Y-8202490D01*
X3790583Y-8202490D02*
X3809631Y-8212014D01*
X3809631Y-8212014D02*
X3819155Y-8231062D01*
X3819155Y-8231062D02*
X3819155Y-8335824D01*
X4209631Y-8126300D02*
X4038203Y-8383443D01*
X4466774Y-8135824D02*
X4485822Y-8135824D01*
X4485822Y-8135824D02*
X4504869Y-8145348D01*
X4504869Y-8145348D02*
X4514393Y-8154871D01*
X4514393Y-8154871D02*
X4523917Y-8173919D01*
X4523917Y-8173919D02*
X4533441Y-8212014D01*
X4533441Y-8212014D02*
X4533441Y-8259633D01*
X4533441Y-8259633D02*
X4523917Y-8297728D01*
X4523917Y-8297728D02*
X4514393Y-8316776D01*
X4514393Y-8316776D02*
X4504869Y-8326300D01*
X4504869Y-8326300D02*
X4485822Y-8335824D01*
X4485822Y-8335824D02*
X4466774Y-8335824D01*
X4466774Y-8335824D02*
X4447727Y-8326300D01*
X4447727Y-8326300D02*
X4438203Y-8316776D01*
X4438203Y-8316776D02*
X4428679Y-8297728D01*
X4428679Y-8297728D02*
X4419155Y-8259633D01*
X4419155Y-8259633D02*
X4419155Y-8212014D01*
X4419155Y-8212014D02*
X4428679Y-8173919D01*
X4428679Y-8173919D02*
X4438203Y-8154871D01*
X4438203Y-8154871D02*
X4447727Y-8145348D01*
X4447727Y-8145348D02*
X4466774Y-8135824D01*
X4619155Y-8316776D02*
X4628679Y-8326300D01*
X4628679Y-8326300D02*
X4619155Y-8335824D01*
X4619155Y-8335824D02*
X4609631Y-8326300D01*
X4609631Y-8326300D02*
X4619155Y-8316776D01*
X4619155Y-8316776D02*
X4619155Y-8335824D01*
X4819155Y-8335824D02*
X4704869Y-8335824D01*
X4762012Y-8335824D02*
X4762012Y-8135824D01*
X4762012Y-8135824D02*
X4742965Y-8164395D01*
X4742965Y-8164395D02*
X4723917Y-8183443D01*
X4723917Y-8183443D02*
X4704869Y-8192967D01*
X4895346Y-8154871D02*
X4904869Y-8145348D01*
X4904869Y-8145348D02*
X4923917Y-8135824D01*
X4923917Y-8135824D02*
X4971536Y-8135824D01*
X4971536Y-8135824D02*
X4990584Y-8145348D01*
X4990584Y-8145348D02*
X5000108Y-8154871D01*
X5000108Y-8154871D02*
X5009631Y-8173919D01*
X5009631Y-8173919D02*
X5009631Y-8192967D01*
X5009631Y-8192967D02*
X5000108Y-8221538D01*
X5000108Y-8221538D02*
X4885822Y-8335824D01*
X4885822Y-8335824D02*
X5009631Y-8335824D01*
X5181060Y-8135824D02*
X5142965Y-8135824D01*
X5142965Y-8135824D02*
X5123917Y-8145348D01*
X5123917Y-8145348D02*
X5114393Y-8154871D01*
X5114393Y-8154871D02*
X5095346Y-8183443D01*
X5095346Y-8183443D02*
X5085822Y-8221538D01*
X5085822Y-8221538D02*
X5085822Y-8297728D01*
X5085822Y-8297728D02*
X5095346Y-8316776D01*
X5095346Y-8316776D02*
X5104869Y-8326300D01*
X5104869Y-8326300D02*
X5123917Y-8335824D01*
X5123917Y-8335824D02*
X5162012Y-8335824D01*
X5162012Y-8335824D02*
X5181060Y-8326300D01*
X5181060Y-8326300D02*
X5190584Y-8316776D01*
X5190584Y-8316776D02*
X5200108Y-8297728D01*
X5200108Y-8297728D02*
X5200108Y-8250109D01*
X5200108Y-8250109D02*
X5190584Y-8231062D01*
X5190584Y-8231062D02*
X5181060Y-8221538D01*
X5181060Y-8221538D02*
X5162012Y-8212014D01*
X5162012Y-8212014D02*
X5123917Y-8212014D01*
X5123917Y-8212014D02*
X5104869Y-8221538D01*
X5104869Y-8221538D02*
X5095346Y-8231062D01*
X5095346Y-8231062D02*
X5085822Y-8250109D01*
X5323917Y-8135824D02*
X5342965Y-8135824D01*
X5342965Y-8135824D02*
X5362012Y-8145348D01*
X5362012Y-8145348D02*
X5371536Y-8154871D01*
X5371536Y-8154871D02*
X5381060Y-8173919D01*
X5381060Y-8173919D02*
X5390584Y-8212014D01*
X5390584Y-8212014D02*
X5390584Y-8259633D01*
X5390584Y-8259633D02*
X5381060Y-8297728D01*
X5381060Y-8297728D02*
X5371536Y-8316776D01*
X5371536Y-8316776D02*
X5362012Y-8326300D01*
X5362012Y-8326300D02*
X5342965Y-8335824D01*
X5342965Y-8335824D02*
X5323917Y-8335824D01*
X5323917Y-8335824D02*
X5304869Y-8326300D01*
X5304869Y-8326300D02*
X5295346Y-8316776D01*
X5295346Y-8316776D02*
X5285822Y-8297728D01*
X5285822Y-8297728D02*
X5276298Y-8259633D01*
X5276298Y-8259633D02*
X5276298Y-8212014D01*
X5276298Y-8212014D02*
X5285822Y-8173919D01*
X5285822Y-8173919D02*
X5295346Y-8154871D01*
X5295346Y-8154871D02*
X5304869Y-8145348D01*
X5304869Y-8145348D02*
X5323917Y-8135824D01*
X5466774Y-8135824D02*
X5466774Y-8173919D01*
X5542965Y-8135824D02*
X5542965Y-8173919D01*
X5838203Y-8412014D02*
X5828679Y-8402490D01*
X5828679Y-8402490D02*
X5809631Y-8373919D01*
X5809631Y-8373919D02*
X5800108Y-8354871D01*
X5800108Y-8354871D02*
X5790584Y-8326300D01*
X5790584Y-8326300D02*
X5781060Y-8278681D01*
X5781060Y-8278681D02*
X5781060Y-8240586D01*
X5781060Y-8240586D02*
X5790584Y-8192967D01*
X5790584Y-8192967D02*
X5800108Y-8164395D01*
X5800108Y-8164395D02*
X5809631Y-8145348D01*
X5809631Y-8145348D02*
X5828679Y-8116776D01*
X5828679Y-8116776D02*
X5838203Y-8107252D01*
X5904869Y-8154871D02*
X5914393Y-8145348D01*
X5914393Y-8145348D02*
X5933441Y-8135824D01*
X5933441Y-8135824D02*
X5981060Y-8135824D01*
X5981060Y-8135824D02*
X6000108Y-8145348D01*
X6000108Y-8145348D02*
X6009631Y-8154871D01*
X6009631Y-8154871D02*
X6019155Y-8173919D01*
X6019155Y-8173919D02*
X6019155Y-8192967D01*
X6019155Y-8192967D02*
X6009631Y-8221538D01*
X6009631Y-8221538D02*
X5895346Y-8335824D01*
X5895346Y-8335824D02*
X6019155Y-8335824D01*
X6257250Y-8335824D02*
X6257250Y-8135824D01*
X6342965Y-8335824D02*
X6342965Y-8231062D01*
X6342965Y-8231062D02*
X6333441Y-8212014D01*
X6333441Y-8212014D02*
X6314393Y-8202490D01*
X6314393Y-8202490D02*
X6285822Y-8202490D01*
X6285822Y-8202490D02*
X6266774Y-8212014D01*
X6266774Y-8212014D02*
X6257250Y-8221538D01*
X6466774Y-8335824D02*
X6447727Y-8326300D01*
X6447727Y-8326300D02*
X6438203Y-8316776D01*
X6438203Y-8316776D02*
X6428679Y-8297728D01*
X6428679Y-8297728D02*
X6428679Y-8240586D01*
X6428679Y-8240586D02*
X6438203Y-8221538D01*
X6438203Y-8221538D02*
X6447727Y-8212014D01*
X6447727Y-8212014D02*
X6466774Y-8202490D01*
X6466774Y-8202490D02*
X6495346Y-8202490D01*
X6495346Y-8202490D02*
X6514393Y-8212014D01*
X6514393Y-8212014D02*
X6523917Y-8221538D01*
X6523917Y-8221538D02*
X6533441Y-8240586D01*
X6533441Y-8240586D02*
X6533441Y-8297728D01*
X6533441Y-8297728D02*
X6523917Y-8316776D01*
X6523917Y-8316776D02*
X6514393Y-8326300D01*
X6514393Y-8326300D02*
X6495346Y-8335824D01*
X6495346Y-8335824D02*
X6466774Y-8335824D01*
X6647727Y-8335824D02*
X6628679Y-8326300D01*
X6628679Y-8326300D02*
X6619155Y-8307252D01*
X6619155Y-8307252D02*
X6619155Y-8135824D01*
X6800108Y-8326300D02*
X6781060Y-8335824D01*
X6781060Y-8335824D02*
X6742965Y-8335824D01*
X6742965Y-8335824D02*
X6723917Y-8326300D01*
X6723917Y-8326300D02*
X6714393Y-8307252D01*
X6714393Y-8307252D02*
X6714393Y-8231062D01*
X6714393Y-8231062D02*
X6723917Y-8212014D01*
X6723917Y-8212014D02*
X6742965Y-8202490D01*
X6742965Y-8202490D02*
X6781060Y-8202490D01*
X6781060Y-8202490D02*
X6800108Y-8212014D01*
X6800108Y-8212014D02*
X6809631Y-8231062D01*
X6809631Y-8231062D02*
X6809631Y-8250109D01*
X6809631Y-8250109D02*
X6714393Y-8269157D01*
X6885822Y-8326300D02*
X6904870Y-8335824D01*
X6904870Y-8335824D02*
X6942965Y-8335824D01*
X6942965Y-8335824D02*
X6962012Y-8326300D01*
X6962012Y-8326300D02*
X6971536Y-8307252D01*
X6971536Y-8307252D02*
X6971536Y-8297728D01*
X6971536Y-8297728D02*
X6962012Y-8278681D01*
X6962012Y-8278681D02*
X6942965Y-8269157D01*
X6942965Y-8269157D02*
X6914393Y-8269157D01*
X6914393Y-8269157D02*
X6895346Y-8259633D01*
X6895346Y-8259633D02*
X6885822Y-8240586D01*
X6885822Y-8240586D02*
X6885822Y-8231062D01*
X6885822Y-8231062D02*
X6895346Y-8212014D01*
X6895346Y-8212014D02*
X6914393Y-8202490D01*
X6914393Y-8202490D02*
X6942965Y-8202490D01*
X6942965Y-8202490D02*
X6962012Y-8212014D01*
X7038203Y-8412014D02*
X7047727Y-8402490D01*
X7047727Y-8402490D02*
X7066774Y-8373919D01*
X7066774Y-8373919D02*
X7076298Y-8354871D01*
X7076298Y-8354871D02*
X7085822Y-8326300D01*
X7085822Y-8326300D02*
X7095346Y-8278681D01*
X7095346Y-8278681D02*
X7095346Y-8240586D01*
X7095346Y-8240586D02*
X7085822Y-8192967D01*
X7085822Y-8192967D02*
X7076298Y-8164395D01*
X7076298Y-8164395D02*
X7066774Y-8145348D01*
X7066774Y-8145348D02*
X7047727Y-8116776D01*
X7047727Y-8116776D02*
X7038203Y-8107252D01*
M02*
