G04 #@! TF.GenerationSoftware,KiCad,Pcbnew,9.0.5*
G04 #@! TF.CreationDate,2025-10-23T19:13:29+02:00*
G04 #@! TF.ProjectId,display-board,64697370-6c61-4792-9d62-6f6172642e6b,1.0a*
G04 #@! TF.SameCoordinates,Original*
G04 #@! TF.FileFunction,Soldermask,Top*
G04 #@! TF.FilePolarity,Negative*
%FSLAX46Y46*%
G04 Gerber Fmt 4.6, Leading zero omitted, Abs format (unit mm)*
G04 Created by KiCad (PCBNEW 9.0.5) date 2025-10-23 19:13:29*
%MOMM*%
%LPD*%
G01*
G04 APERTURE LIST*
G04 Aperture macros list*
%AMRoundRect*
0 Rectangle with rounded corners*
0 $1 Rounding radius*
0 $2 $3 $4 $5 $6 $7 $8 $9 X,Y pos of 4 corners*
0 Add a 4 corners polygon primitive as box body*
4,1,4,$2,$3,$4,$5,$6,$7,$8,$9,$2,$3,0*
0 Add four circle primitives for the rounded corners*
1,1,$1+$1,$2,$3*
1,1,$1+$1,$4,$5*
1,1,$1+$1,$6,$7*
1,1,$1+$1,$8,$9*
0 Add four rect primitives between the rounded corners*
20,1,$1+$1,$2,$3,$4,$5,0*
20,1,$1+$1,$4,$5,$6,$7,0*
20,1,$1+$1,$6,$7,$8,$9,0*
20,1,$1+$1,$8,$9,$2,$3,0*%
G04 Aperture macros list end*
%ADD10RoundRect,0.250000X-0.350000X-0.450000X0.350000X-0.450000X0.350000X0.450000X-0.350000X0.450000X0*%
%ADD11RoundRect,0.250000X0.350000X0.450000X-0.350000X0.450000X-0.350000X-0.450000X0.350000X-0.450000X0*%
%ADD12R,1.800000X1.800000*%
%ADD13C,1.800000*%
%ADD14R,1.850000X1.850000*%
%ADD15C,1.850000*%
%ADD16RoundRect,0.062500X-0.687500X-0.062500X0.687500X-0.062500X0.687500X0.062500X-0.687500X0.062500X0*%
%ADD17RoundRect,0.062500X-0.062500X-0.687500X0.062500X-0.687500X0.062500X0.687500X-0.062500X0.687500X0*%
%ADD18RoundRect,0.250000X1.412500X0.550000X-1.412500X0.550000X-1.412500X-0.550000X1.412500X-0.550000X0*%
%ADD19RoundRect,0.250000X0.600000X-0.600000X0.600000X0.600000X-0.600000X0.600000X-0.600000X-0.600000X0*%
%ADD20C,1.700000*%
%ADD21RoundRect,0.250000X-0.475000X0.337500X-0.475000X-0.337500X0.475000X-0.337500X0.475000X0.337500X0*%
%ADD22RoundRect,0.250000X-0.450000X0.350000X-0.450000X-0.350000X0.450000X-0.350000X0.450000X0.350000X0*%
%ADD23C,6.400000*%
%ADD24RoundRect,0.250000X0.475000X-0.337500X0.475000X0.337500X-0.475000X0.337500X-0.475000X-0.337500X0*%
G04 APERTURE END LIST*
D10*
X43636400Y-27076400D03*
X45636400Y-27076400D03*
X43636400Y-30886400D03*
X45636400Y-30886400D03*
X43652400Y-40792400D03*
X45652400Y-40792400D03*
X43652400Y-42824400D03*
X45652400Y-42824400D03*
D11*
X34238400Y-59842400D03*
X32238400Y-59842400D03*
D10*
X43636400Y-36728400D03*
X45636400Y-36728400D03*
X115661400Y-28600400D03*
X117661400Y-28600400D03*
D12*
X29616400Y-36310400D03*
D13*
X32156400Y-36310400D03*
D14*
X83656400Y-58310400D03*
D15*
X83656400Y-55770400D03*
X83656400Y-53230400D03*
X83656400Y-50690400D03*
X83656400Y-48150400D03*
X83656400Y-45610400D03*
X83656400Y-43070400D03*
X83656400Y-40530400D03*
X83656400Y-37990400D03*
X83656400Y-35450400D03*
X91276400Y-35450400D03*
X91276400Y-37990400D03*
X91276400Y-40530400D03*
X91276400Y-43070400D03*
X91276400Y-45610400D03*
X91276400Y-48150400D03*
X91276400Y-50690400D03*
X91276400Y-53230400D03*
X91276400Y-55770400D03*
X91276400Y-58310400D03*
D14*
X52156400Y-58310400D03*
D15*
X52156400Y-55770400D03*
X52156400Y-53230400D03*
X52156400Y-50690400D03*
X52156400Y-48150400D03*
X52156400Y-45610400D03*
X52156400Y-43070400D03*
X52156400Y-40530400D03*
X52156400Y-37990400D03*
X52156400Y-35450400D03*
X59776400Y-35450400D03*
X59776400Y-37990400D03*
X59776400Y-40530400D03*
X59776400Y-43070400D03*
X59776400Y-45610400D03*
X59776400Y-48150400D03*
X59776400Y-50690400D03*
X59776400Y-53230400D03*
X59776400Y-55770400D03*
X59776400Y-58310400D03*
D12*
X29616400Y-42310400D03*
D13*
X32156400Y-42310400D03*
D12*
X29616400Y-51310400D03*
D13*
X32156400Y-51310400D03*
D14*
X73156400Y-58310400D03*
D15*
X73156400Y-55770400D03*
X73156400Y-53230400D03*
X73156400Y-50690400D03*
X73156400Y-48150400D03*
X73156400Y-45610400D03*
X73156400Y-43070400D03*
X73156400Y-40530400D03*
X73156400Y-37990400D03*
X73156400Y-35450400D03*
X80776400Y-35450400D03*
X80776400Y-37990400D03*
X80776400Y-40530400D03*
X80776400Y-43070400D03*
X80776400Y-45610400D03*
X80776400Y-48150400D03*
X80776400Y-50690400D03*
X80776400Y-53230400D03*
X80776400Y-55770400D03*
X80776400Y-58310400D03*
D14*
X115156400Y-58310400D03*
D15*
X115156400Y-55770400D03*
X115156400Y-53230400D03*
X115156400Y-50690400D03*
X115156400Y-48150400D03*
X115156400Y-45610400D03*
X115156400Y-43070400D03*
X115156400Y-40530400D03*
X115156400Y-37990400D03*
X115156400Y-35450400D03*
X122776400Y-35450400D03*
X122776400Y-37990400D03*
X122776400Y-40530400D03*
X122776400Y-43070400D03*
X122776400Y-45610400D03*
X122776400Y-48150400D03*
X122776400Y-50690400D03*
X122776400Y-53230400D03*
X122776400Y-55770400D03*
X122776400Y-58310400D03*
D16*
X37429400Y-48460400D03*
X37429400Y-48860400D03*
X37429400Y-49260400D03*
X37429400Y-49660400D03*
X37429400Y-50060400D03*
X37429400Y-50460400D03*
X37429400Y-50860400D03*
X37429400Y-51260400D03*
X37429400Y-51660400D03*
X37429400Y-52060400D03*
X37429400Y-52460400D03*
X37429400Y-52860400D03*
X37429400Y-53260400D03*
X37429400Y-53660400D03*
X37429400Y-54060400D03*
X37429400Y-54460400D03*
D17*
X38604400Y-55635400D03*
X39004400Y-55635400D03*
X39404400Y-55635400D03*
X39804400Y-55635400D03*
X40204400Y-55635400D03*
X40604400Y-55635400D03*
X41004400Y-55635400D03*
X41404400Y-55635400D03*
X41804400Y-55635400D03*
X42204400Y-55635400D03*
X42604400Y-55635400D03*
X43004400Y-55635400D03*
X43404400Y-55635400D03*
X43804400Y-55635400D03*
X44204400Y-55635400D03*
X44604400Y-55635400D03*
D16*
X45779400Y-54460400D03*
X45779400Y-54060400D03*
X45779400Y-53660400D03*
X45779400Y-53260400D03*
X45779400Y-52860400D03*
X45779400Y-52460400D03*
X45779400Y-52060400D03*
X45779400Y-51660400D03*
X45779400Y-51260400D03*
X45779400Y-50860400D03*
X45779400Y-50460400D03*
X45779400Y-50060400D03*
X45779400Y-49660400D03*
X45779400Y-49260400D03*
X45779400Y-48860400D03*
X45779400Y-48460400D03*
D17*
X44604400Y-47285400D03*
X44204400Y-47285400D03*
X43804400Y-47285400D03*
X43404400Y-47285400D03*
X43004400Y-47285400D03*
X42604400Y-47285400D03*
X42204400Y-47285400D03*
X41804400Y-47285400D03*
X41404400Y-47285400D03*
X41004400Y-47285400D03*
X40604400Y-47285400D03*
X40204400Y-47285400D03*
X39804400Y-47285400D03*
X39404400Y-47285400D03*
X39004400Y-47285400D03*
X38604400Y-47285400D03*
D10*
X43652400Y-34696400D03*
X45652400Y-34696400D03*
D18*
X40193900Y-29310400D03*
X35118900Y-29310400D03*
D19*
X59496400Y-30310400D03*
D20*
X59496400Y-27770400D03*
X62036400Y-30310400D03*
X62036400Y-27770400D03*
X64576400Y-30310400D03*
X64576400Y-27770400D03*
X67116400Y-30310400D03*
X67116400Y-27770400D03*
X69656400Y-30310400D03*
X69656400Y-27770400D03*
D21*
X37032400Y-56899900D03*
X37032400Y-58974900D03*
D10*
X43636400Y-28981400D03*
X45636400Y-28981400D03*
X43636400Y-38760400D03*
X45636400Y-38760400D03*
X106771400Y-29870400D03*
X108771400Y-29870400D03*
D11*
X34206400Y-33934400D03*
X32206400Y-33934400D03*
D21*
X47954400Y-54232900D03*
X47954400Y-56307900D03*
D22*
X136219400Y-30775400D03*
X136219400Y-32775400D03*
D10*
X93436400Y-31775400D03*
X95436400Y-31775400D03*
D23*
X218156400Y-28810400D03*
D10*
X111216400Y-29235400D03*
X113216400Y-29235400D03*
X88991400Y-32410400D03*
X90991400Y-32410400D03*
D24*
X34238400Y-48941900D03*
X34238400Y-46866900D03*
D10*
X124551400Y-27330400D03*
X126551400Y-27330400D03*
X43636400Y-32791400D03*
X45636400Y-32791400D03*
X102326400Y-30505400D03*
X104326400Y-30505400D03*
D12*
X29616400Y-48310400D03*
D13*
X32156400Y-48310400D03*
D14*
X104656400Y-58310400D03*
D15*
X104656400Y-55770400D03*
X104656400Y-53230400D03*
X104656400Y-50690400D03*
X104656400Y-48150400D03*
X104656400Y-45610400D03*
X104656400Y-43070400D03*
X104656400Y-40530400D03*
X104656400Y-37990400D03*
X104656400Y-35450400D03*
X112276400Y-35450400D03*
X112276400Y-37990400D03*
X112276400Y-40530400D03*
X112276400Y-43070400D03*
X112276400Y-45610400D03*
X112276400Y-48150400D03*
X112276400Y-50690400D03*
X112276400Y-53230400D03*
X112276400Y-55770400D03*
X112276400Y-58310400D03*
D14*
X125656400Y-58310400D03*
D15*
X125656400Y-55770400D03*
X125656400Y-53230400D03*
X125656400Y-50690400D03*
X125656400Y-48150400D03*
X125656400Y-45610400D03*
X125656400Y-43070400D03*
X125656400Y-40530400D03*
X125656400Y-37990400D03*
X125656400Y-35450400D03*
X133276400Y-35450400D03*
X133276400Y-37990400D03*
X133276400Y-40530400D03*
X133276400Y-43070400D03*
X133276400Y-45610400D03*
X133276400Y-48150400D03*
X133276400Y-50690400D03*
X133276400Y-53230400D03*
X133276400Y-55770400D03*
X133276400Y-58310400D03*
D14*
X62656400Y-58310400D03*
D15*
X62656400Y-55770400D03*
X62656400Y-53230400D03*
X62656400Y-50690400D03*
X62656400Y-48150400D03*
X62656400Y-45610400D03*
X62656400Y-43070400D03*
X62656400Y-40530400D03*
X62656400Y-37990400D03*
X62656400Y-35450400D03*
X70276400Y-35450400D03*
X70276400Y-37990400D03*
X70276400Y-40530400D03*
X70276400Y-43070400D03*
X70276400Y-45610400D03*
X70276400Y-48150400D03*
X70276400Y-50690400D03*
X70276400Y-53230400D03*
X70276400Y-55770400D03*
X70276400Y-58310400D03*
D14*
X199156400Y-58310400D03*
D15*
X199156400Y-55770400D03*
X199156400Y-53230400D03*
X199156400Y-50690400D03*
X199156400Y-48150400D03*
X199156400Y-45610400D03*
X199156400Y-43070400D03*
X199156400Y-40530400D03*
X199156400Y-37990400D03*
X199156400Y-35450400D03*
X206776400Y-35450400D03*
X206776400Y-37990400D03*
X206776400Y-40530400D03*
X206776400Y-43070400D03*
X206776400Y-45610400D03*
X206776400Y-48150400D03*
X206776400Y-50690400D03*
X206776400Y-53230400D03*
X206776400Y-55770400D03*
X206776400Y-58310400D03*
D14*
X157156400Y-58310400D03*
D15*
X157156400Y-55770400D03*
X157156400Y-53230400D03*
X157156400Y-50690400D03*
X157156400Y-48150400D03*
X157156400Y-45610400D03*
X157156400Y-43070400D03*
X157156400Y-40530400D03*
X157156400Y-37990400D03*
X157156400Y-35450400D03*
X164776400Y-35450400D03*
X164776400Y-37990400D03*
X164776400Y-40530400D03*
X164776400Y-43070400D03*
X164776400Y-45610400D03*
X164776400Y-48150400D03*
X164776400Y-50690400D03*
X164776400Y-53230400D03*
X164776400Y-55770400D03*
X164776400Y-58310400D03*
D14*
X188656400Y-58310400D03*
D15*
X188656400Y-55770400D03*
X188656400Y-53230400D03*
X188656400Y-50690400D03*
X188656400Y-48150400D03*
X188656400Y-45610400D03*
X188656400Y-43070400D03*
X188656400Y-40530400D03*
X188656400Y-37990400D03*
X188656400Y-35450400D03*
X196276400Y-35450400D03*
X196276400Y-37990400D03*
X196276400Y-40530400D03*
X196276400Y-43070400D03*
X196276400Y-45610400D03*
X196276400Y-48150400D03*
X196276400Y-50690400D03*
X196276400Y-53230400D03*
X196276400Y-55770400D03*
X196276400Y-58310400D03*
D14*
X178156400Y-58310400D03*
D15*
X178156400Y-55770400D03*
X178156400Y-53230400D03*
X178156400Y-50690400D03*
X178156400Y-48150400D03*
X178156400Y-45610400D03*
X178156400Y-43070400D03*
X178156400Y-40530400D03*
X178156400Y-37990400D03*
X178156400Y-35450400D03*
X185776400Y-35450400D03*
X185776400Y-37990400D03*
X185776400Y-40530400D03*
X185776400Y-43070400D03*
X185776400Y-45610400D03*
X185776400Y-48150400D03*
X185776400Y-50690400D03*
X185776400Y-53230400D03*
X185776400Y-55770400D03*
X185776400Y-58310400D03*
D14*
X209656400Y-58310400D03*
D15*
X209656400Y-55770400D03*
X209656400Y-53230400D03*
X209656400Y-50690400D03*
X209656400Y-48150400D03*
X209656400Y-45610400D03*
X209656400Y-43070400D03*
X209656400Y-40530400D03*
X209656400Y-37990400D03*
X209656400Y-35450400D03*
X217276400Y-35450400D03*
X217276400Y-37990400D03*
X217276400Y-40530400D03*
X217276400Y-43070400D03*
X217276400Y-45610400D03*
X217276400Y-48150400D03*
X217276400Y-50690400D03*
X217276400Y-53230400D03*
X217276400Y-55770400D03*
X217276400Y-58310400D03*
D14*
X94156400Y-58310400D03*
D15*
X94156400Y-55770400D03*
X94156400Y-53230400D03*
X94156400Y-50690400D03*
X94156400Y-48150400D03*
X94156400Y-45610400D03*
X94156400Y-43070400D03*
X94156400Y-40530400D03*
X94156400Y-37990400D03*
X94156400Y-35450400D03*
X101776400Y-35450400D03*
X101776400Y-37990400D03*
X101776400Y-40530400D03*
X101776400Y-43070400D03*
X101776400Y-45610400D03*
X101776400Y-48150400D03*
X101776400Y-50690400D03*
X101776400Y-53230400D03*
X101776400Y-55770400D03*
X101776400Y-58310400D03*
D12*
X29616400Y-45310400D03*
D13*
X32156400Y-45310400D03*
D12*
X29616400Y-39310400D03*
D13*
X32156400Y-39310400D03*
D12*
X29616400Y-57310400D03*
D13*
X32156400Y-57310400D03*
D12*
X29616400Y-54310400D03*
D13*
X32156400Y-54310400D03*
D14*
X167656400Y-58310400D03*
D15*
X167656400Y-55770400D03*
X167656400Y-53230400D03*
X167656400Y-50690400D03*
X167656400Y-48150400D03*
X167656400Y-45610400D03*
X167656400Y-43070400D03*
X167656400Y-40530400D03*
X167656400Y-37990400D03*
X167656400Y-35450400D03*
X175276400Y-35450400D03*
X175276400Y-37990400D03*
X175276400Y-40530400D03*
X175276400Y-43070400D03*
X175276400Y-45610400D03*
X175276400Y-48150400D03*
X175276400Y-50690400D03*
X175276400Y-53230400D03*
X175276400Y-55770400D03*
X175276400Y-58310400D03*
D14*
X146656400Y-58310400D03*
D15*
X146656400Y-55770400D03*
X146656400Y-53230400D03*
X146656400Y-50690400D03*
X146656400Y-48150400D03*
X146656400Y-45610400D03*
X146656400Y-43070400D03*
X146656400Y-40530400D03*
X146656400Y-37990400D03*
X146656400Y-35450400D03*
X154276400Y-35450400D03*
X154276400Y-37990400D03*
X154276400Y-40530400D03*
X154276400Y-43070400D03*
X154276400Y-45610400D03*
X154276400Y-48150400D03*
X154276400Y-50690400D03*
X154276400Y-53230400D03*
X154276400Y-55770400D03*
X154276400Y-58310400D03*
D14*
X136156400Y-58310400D03*
D15*
X136156400Y-55770400D03*
X136156400Y-53230400D03*
X136156400Y-50690400D03*
X136156400Y-48150400D03*
X136156400Y-45610400D03*
X136156400Y-43070400D03*
X136156400Y-40530400D03*
X136156400Y-37990400D03*
X136156400Y-35450400D03*
X143776400Y-35450400D03*
X143776400Y-37990400D03*
X143776400Y-40530400D03*
X143776400Y-43070400D03*
X143776400Y-45610400D03*
X143776400Y-48150400D03*
X143776400Y-50690400D03*
X143776400Y-53230400D03*
X143776400Y-55770400D03*
X143776400Y-58310400D03*
D10*
X43652400Y-44856400D03*
X45652400Y-44856400D03*
X97881400Y-31140400D03*
X99881400Y-31140400D03*
X120106400Y-27965400D03*
X122106400Y-27965400D03*
D23*
X27156400Y-28810400D03*
M02*
