%TF.GenerationSoftware,KiCad,Pcbnew,9.0.5*%
%TF.CreationDate,2025-10-23T20:15:36+02:00*%
%TF.ProjectId,display-board,64697370-6c61-4792-9d62-6f6172642e6b,1.0a*%
%TF.SameCoordinates,Original*%
%TF.FileFunction,Drillmap*%
%TF.FilePolarity,Positive*%
%FSLAX45Y45*%
G04 Gerber Fmt 4.5, Leading zero omitted, Abs format (unit mm)*
G04 Created by KiCad (PCBNEW 9.0.5) date 2025-10-23 20:15:36*
%MOMM*%
%LPD*%
G01*
G04 APERTURE LIST*
%ADD10C,0.050000*%
%ADD11C,0.200000*%
G04 APERTURE END LIST*
D10*
X2265640Y-2431040D02*
X22265640Y-2431040D01*
X22265640Y-6281840D01*
X2265640Y-6281840D01*
X2265640Y-2431040D01*
D11*
X2523917Y-6595824D02*
X2523917Y-6395824D01*
X2523917Y-6395824D02*
X2571536Y-6395824D01*
X2571536Y-6395824D02*
X2600107Y-6405348D01*
X2600107Y-6405348D02*
X2619155Y-6424395D01*
X2619155Y-6424395D02*
X2628679Y-6443443D01*
X2628679Y-6443443D02*
X2638203Y-6481538D01*
X2638203Y-6481538D02*
X2638203Y-6510109D01*
X2638203Y-6510109D02*
X2628679Y-6548205D01*
X2628679Y-6548205D02*
X2619155Y-6567252D01*
X2619155Y-6567252D02*
X2600107Y-6586300D01*
X2600107Y-6586300D02*
X2571536Y-6595824D01*
X2571536Y-6595824D02*
X2523917Y-6595824D01*
X2723917Y-6595824D02*
X2723917Y-6462490D01*
X2723917Y-6500586D02*
X2733441Y-6481538D01*
X2733441Y-6481538D02*
X2742964Y-6472014D01*
X2742964Y-6472014D02*
X2762012Y-6462490D01*
X2762012Y-6462490D02*
X2781060Y-6462490D01*
X2847726Y-6595824D02*
X2847726Y-6462490D01*
X2847726Y-6395824D02*
X2838202Y-6405348D01*
X2838202Y-6405348D02*
X2847726Y-6414871D01*
X2847726Y-6414871D02*
X2857250Y-6405348D01*
X2857250Y-6405348D02*
X2847726Y-6395824D01*
X2847726Y-6395824D02*
X2847726Y-6414871D01*
X2971536Y-6595824D02*
X2952488Y-6586300D01*
X2952488Y-6586300D02*
X2942964Y-6567252D01*
X2942964Y-6567252D02*
X2942964Y-6395824D01*
X3076298Y-6595824D02*
X3057250Y-6586300D01*
X3057250Y-6586300D02*
X3047726Y-6567252D01*
X3047726Y-6567252D02*
X3047726Y-6395824D01*
X3304869Y-6595824D02*
X3304869Y-6395824D01*
X3304869Y-6395824D02*
X3371536Y-6538681D01*
X3371536Y-6538681D02*
X3438202Y-6395824D01*
X3438202Y-6395824D02*
X3438202Y-6595824D01*
X3619155Y-6595824D02*
X3619155Y-6491062D01*
X3619155Y-6491062D02*
X3609631Y-6472014D01*
X3609631Y-6472014D02*
X3590583Y-6462490D01*
X3590583Y-6462490D02*
X3552488Y-6462490D01*
X3552488Y-6462490D02*
X3533441Y-6472014D01*
X3619155Y-6586300D02*
X3600107Y-6595824D01*
X3600107Y-6595824D02*
X3552488Y-6595824D01*
X3552488Y-6595824D02*
X3533441Y-6586300D01*
X3533441Y-6586300D02*
X3523917Y-6567252D01*
X3523917Y-6567252D02*
X3523917Y-6548205D01*
X3523917Y-6548205D02*
X3533441Y-6529157D01*
X3533441Y-6529157D02*
X3552488Y-6519633D01*
X3552488Y-6519633D02*
X3600107Y-6519633D01*
X3600107Y-6519633D02*
X3619155Y-6510109D01*
X3714393Y-6462490D02*
X3714393Y-6662490D01*
X3714393Y-6472014D02*
X3733441Y-6462490D01*
X3733441Y-6462490D02*
X3771536Y-6462490D01*
X3771536Y-6462490D02*
X3790583Y-6472014D01*
X3790583Y-6472014D02*
X3800107Y-6481538D01*
X3800107Y-6481538D02*
X3809631Y-6500586D01*
X3809631Y-6500586D02*
X3809631Y-6557728D01*
X3809631Y-6557728D02*
X3800107Y-6576776D01*
X3800107Y-6576776D02*
X3790583Y-6586300D01*
X3790583Y-6586300D02*
X3771536Y-6595824D01*
X3771536Y-6595824D02*
X3733441Y-6595824D01*
X3733441Y-6595824D02*
X3714393Y-6586300D01*
X3895345Y-6576776D02*
X3904869Y-6586300D01*
X3904869Y-6586300D02*
X3895345Y-6595824D01*
X3895345Y-6595824D02*
X3885822Y-6586300D01*
X3885822Y-6586300D02*
X3895345Y-6576776D01*
X3895345Y-6576776D02*
X3895345Y-6595824D01*
X3895345Y-6472014D02*
X3904869Y-6481538D01*
X3904869Y-6481538D02*
X3895345Y-6491062D01*
X3895345Y-6491062D02*
X3885822Y-6481538D01*
X3885822Y-6481538D02*
X3895345Y-6472014D01*
X3895345Y-6472014D02*
X3895345Y-6491062D01*
M02*
