M48
; DRILL file {KiCad 9.0.5} date 2025-10-23T02:31:42+0200
; FORMAT={-:-/ absolute / metric / decimal}
; #@! TF.CreationDate,2025-10-23T02:31:42+02:00
; #@! TF.GenerationSoftware,Kicad,Pcbnew,9.0.5
; #@! TF.FileFunction,Plated,1,2,PTH
FMAT,2
METRIC
; #@! TA.AperFunction,Plated,PTH,ViaDrill
T1C0.300
; #@! TA.AperFunction,Plated,PTH,ViaDrill
T2C0.500
; #@! TA.AperFunction,Plated,PTH,ComponentDrill
T3C0.900
; #@! TA.AperFunction,Plated,PTH,ComponentDrill
T4C0.914
; #@! TA.AperFunction,Plated,PTH,ComponentDrill
T5C1.000
; #@! TA.AperFunction,Plated,PTH,ComponentDrill
T6C3.200
%
G90
G05
T1
X34.416Y-60.93
X34.416Y-64.232
X34.416Y-70.201
X34.416Y-74.138
X34.543Y-67.026
X34.67Y-58.39
X35.178Y-55.215
X36.194Y-51.659
X36.702Y-54.834
X37.21Y-78.456
X40.766Y-48.992
X40.766Y-55.215
X40.893Y-76.424
X42.036Y-44.42
X43.941Y-58.898
X44.068Y-54.199
X44.068Y-55.596
X44.195Y-52.802
X44.195Y-62.835
X44.195Y-69.312
X44.195Y-70.836
X44.195Y-71.725
X44.195Y-72.868
X44.195Y-74.392
X44.83Y-67.407
X44.957Y-75.408
X45.084Y-44.293
X45.084Y-78.837
X45.211Y-52.802
X45.338Y-48.992
X45.719Y-75.916
X45.846Y-72.233
X45.963Y-73.875
X45.973Y-71.344
X46.037Y-73.059
X46.1Y-68.169
X46.354Y-70.582
X46.989Y-77.356
X47.243Y-50.77
X47.243Y-75.154
X47.497Y-56.358
X47.497Y-62.454
X47.878Y-77.694
X48.513Y-79.178
X48.831Y-66.046
X49.148Y-71.725
X49.275Y-67.153
X50.101Y-66.074
X50.545Y-67.026
X50.672Y-74.519
X51.434Y-66.264
X51.561Y-75.281
X51.842Y-62.073
X51.942Y-66.899
X52.196Y-76.043
X52.323Y-71.725
X52.577Y-70.455
X52.831Y-66.899
X52.958Y-76.551
X53.339Y-68.804
X53.847Y-74.646
X54.101Y-66.772
X54.101Y-67.661
X54.149Y-68.471
X54.167Y-75.916
X54.215Y-69.833
X54.228Y-70.709
X54.228Y-71.598
X54.847Y-47.508
X54.863Y-57.12
X55.371Y-72.379
X57.022Y-76.297
X58.038Y-76.424
X60.578Y-44.293
X62.991Y-50.77
X63.88Y-50.897
X64.769Y-50.897
X65.658Y-50.897
X66.547Y-50.77
X67.436Y-50.897
X68.325Y-50.897
X69.214Y-50.897
X70.103Y-50.643
X71.5Y-51.151
X76.009Y-76.488
X77.469Y-76.297
X77.723Y-74.773
X78.739Y-76.551
X84.835Y-47.595
X85.597Y-43.658
X86.994Y-60.422
X86.994Y-62.962
X86.994Y-65.629
X86.994Y-68.042
X86.994Y-70.582
X86.994Y-72.995
X86.994Y-75.535
X87.121Y-52.675
X87.121Y-55.342
X87.121Y-57.882
X87.375Y-42.642
X87.375Y-48.103
X93.217Y-49.246
X96.265Y-49.373
X97.535Y-60.295
X97.535Y-62.835
X97.535Y-65.502
X97.535Y-67.915
X97.535Y-70.455
X97.535Y-72.868
X97.535Y-75.408
X97.662Y-52.548
X97.662Y-55.215
X97.662Y-57.755
X107.949Y-60.295
X107.949Y-62.835
X107.949Y-65.502
X107.949Y-67.915
X107.949Y-70.455
X107.949Y-72.868
X107.949Y-75.408
X108.076Y-52.548
X108.076Y-55.215
X108.076Y-57.755
X118.49Y-60.295
X118.49Y-62.835
X118.49Y-65.502
X118.49Y-67.915
X118.49Y-70.455
X118.49Y-72.868
X118.49Y-75.408
X118.617Y-52.548
X118.617Y-55.215
X118.617Y-57.755
X129.031Y-60.422
X129.031Y-62.962
X129.031Y-65.629
X129.031Y-68.042
X129.031Y-70.582
X129.031Y-72.995
X129.031Y-75.535
X129.158Y-52.675
X129.158Y-55.342
X129.158Y-57.882
X135.635Y-51.278
T2
X36.575Y-75.281
X36.956Y-76.678
X45.846Y-77.186
X52.577Y-46.706
X56.387Y-72.741
X56.641Y-75.027
X57.911Y-70.201
X59.435Y-68.296
X59.943Y-73.249
X59.943Y-75.662
X60.578Y-69.439
X60.832Y-75.154
X74.421Y-51.786
X74.929Y-52.802
X79.456Y-51.74
X148.716Y-50.008
X153.987Y-44.674
X156.082Y-43.404
X164.487Y-45.309
X175.132Y-44.674
X185.419Y-45.436
X196.087Y-46.452
X206.628Y-47.087
X216.987Y-48.23
T3
X39.827Y-53.654
X39.827Y-56.654
X39.827Y-59.654
X39.827Y-62.654
X39.827Y-65.654
X39.827Y-68.654
X39.827Y-71.654
X39.827Y-74.654
X42.367Y-53.654
X42.367Y-56.654
X42.367Y-59.654
X42.367Y-62.654
X42.367Y-65.654
X42.367Y-68.654
X42.367Y-71.654
X42.367Y-74.654
T4
X62.367Y-52.794
X62.367Y-55.334
X62.367Y-57.874
X62.367Y-60.414
X62.367Y-62.954
X62.367Y-65.494
X62.367Y-68.034
X62.367Y-70.574
X62.367Y-73.114
X62.367Y-75.654
X69.987Y-52.794
X69.987Y-55.334
X69.987Y-57.874
X69.987Y-60.414
X69.987Y-62.954
X69.987Y-65.494
X69.987Y-68.034
X69.987Y-70.574
X69.987Y-73.114
X69.987Y-75.654
X72.867Y-52.794
X72.867Y-55.334
X72.867Y-57.874
X72.867Y-60.414
X72.867Y-62.954
X72.867Y-65.494
X72.867Y-68.034
X72.867Y-70.574
X72.867Y-73.114
X72.867Y-75.654
X80.487Y-52.794
X80.487Y-55.334
X80.487Y-57.874
X80.487Y-60.414
X80.487Y-62.954
X80.487Y-65.494
X80.487Y-68.034
X80.487Y-70.574
X80.487Y-73.114
X80.487Y-75.654
X83.367Y-52.794
X83.367Y-55.334
X83.367Y-57.874
X83.367Y-60.414
X83.367Y-62.954
X83.367Y-65.494
X83.367Y-68.034
X83.367Y-70.574
X83.367Y-73.114
X83.367Y-75.654
X90.987Y-52.794
X90.987Y-55.334
X90.987Y-57.874
X90.987Y-60.414
X90.987Y-62.954
X90.987Y-65.494
X90.987Y-68.034
X90.987Y-70.574
X90.987Y-73.114
X90.987Y-75.654
X93.867Y-52.794
X93.867Y-55.334
X93.867Y-57.874
X93.867Y-60.414
X93.867Y-62.954
X93.867Y-65.494
X93.867Y-68.034
X93.867Y-70.574
X93.867Y-73.114
X93.867Y-75.654
X101.487Y-52.794
X101.487Y-55.334
X101.487Y-57.874
X101.487Y-60.414
X101.487Y-62.954
X101.487Y-65.494
X101.487Y-68.034
X101.487Y-70.574
X101.487Y-73.114
X101.487Y-75.654
X104.367Y-52.794
X104.367Y-55.334
X104.367Y-57.874
X104.367Y-60.414
X104.367Y-62.954
X104.367Y-65.494
X104.367Y-68.034
X104.367Y-70.574
X104.367Y-73.114
X104.367Y-75.654
X111.987Y-52.794
X111.987Y-55.334
X111.987Y-57.874
X111.987Y-60.414
X111.987Y-62.954
X111.987Y-65.494
X111.987Y-68.034
X111.987Y-70.574
X111.987Y-73.114
X111.987Y-75.654
X114.867Y-52.794
X114.867Y-55.334
X114.867Y-57.874
X114.867Y-60.414
X114.867Y-62.954
X114.867Y-65.494
X114.867Y-68.034
X114.867Y-70.574
X114.867Y-73.114
X114.867Y-75.654
X122.487Y-52.794
X122.487Y-55.334
X122.487Y-57.874
X122.487Y-60.414
X122.487Y-62.954
X122.487Y-65.494
X122.487Y-68.034
X122.487Y-70.574
X122.487Y-73.114
X122.487Y-75.654
X125.367Y-52.794
X125.367Y-55.334
X125.367Y-57.874
X125.367Y-60.414
X125.367Y-62.954
X125.367Y-65.494
X125.367Y-68.034
X125.367Y-70.574
X125.367Y-73.114
X125.367Y-75.654
X132.987Y-52.794
X132.987Y-55.334
X132.987Y-57.874
X132.987Y-60.414
X132.987Y-62.954
X132.987Y-65.494
X132.987Y-68.034
X132.987Y-70.574
X132.987Y-73.114
X132.987Y-75.654
X135.867Y-52.794
X135.867Y-55.334
X135.867Y-57.874
X135.867Y-60.414
X135.867Y-62.954
X135.867Y-65.494
X135.867Y-68.034
X135.867Y-70.574
X135.867Y-73.114
X135.867Y-75.654
X143.487Y-52.794
X143.487Y-55.334
X143.487Y-57.874
X143.487Y-60.414
X143.487Y-62.954
X143.487Y-65.494
X143.487Y-68.034
X143.487Y-70.574
X143.487Y-73.114
X143.487Y-75.654
X146.367Y-52.794
X146.367Y-55.334
X146.367Y-57.874
X146.367Y-60.414
X146.367Y-62.954
X146.367Y-65.494
X146.367Y-68.034
X146.367Y-70.574
X146.367Y-73.114
X146.367Y-75.654
X153.987Y-52.794
X153.987Y-55.334
X153.987Y-57.874
X153.987Y-60.414
X153.987Y-62.954
X153.987Y-65.494
X153.987Y-68.034
X153.987Y-70.574
X153.987Y-73.114
X153.987Y-75.654
X156.867Y-52.794
X156.867Y-55.334
X156.867Y-57.874
X156.867Y-60.414
X156.867Y-62.954
X156.867Y-65.494
X156.867Y-68.034
X156.867Y-70.574
X156.867Y-73.114
X156.867Y-75.654
X164.487Y-52.794
X164.487Y-55.334
X164.487Y-57.874
X164.487Y-60.414
X164.487Y-62.954
X164.487Y-65.494
X164.487Y-68.034
X164.487Y-70.574
X164.487Y-73.114
X164.487Y-75.654
X167.367Y-52.794
X167.367Y-55.334
X167.367Y-57.874
X167.367Y-60.414
X167.367Y-62.954
X167.367Y-65.494
X167.367Y-68.034
X167.367Y-70.574
X167.367Y-73.114
X167.367Y-75.654
X174.987Y-52.794
X174.987Y-55.334
X174.987Y-57.874
X174.987Y-60.414
X174.987Y-62.954
X174.987Y-65.494
X174.987Y-68.034
X174.987Y-70.574
X174.987Y-73.114
X174.987Y-75.654
X177.867Y-52.794
X177.867Y-55.334
X177.867Y-57.874
X177.867Y-60.414
X177.867Y-62.954
X177.867Y-65.494
X177.867Y-68.034
X177.867Y-70.574
X177.867Y-73.114
X177.867Y-75.654
X185.487Y-52.794
X185.487Y-55.334
X185.487Y-57.874
X185.487Y-60.414
X185.487Y-62.954
X185.487Y-65.494
X185.487Y-68.034
X185.487Y-70.574
X185.487Y-73.114
X185.487Y-75.654
X188.367Y-52.794
X188.367Y-55.334
X188.367Y-57.874
X188.367Y-60.414
X188.367Y-62.954
X188.367Y-65.494
X188.367Y-68.034
X188.367Y-70.574
X188.367Y-73.114
X188.367Y-75.654
X195.987Y-52.794
X195.987Y-55.334
X195.987Y-57.874
X195.987Y-60.414
X195.987Y-62.954
X195.987Y-65.494
X195.987Y-68.034
X195.987Y-70.574
X195.987Y-73.114
X195.987Y-75.654
X198.867Y-52.794
X198.867Y-55.334
X198.867Y-57.874
X198.867Y-60.414
X198.867Y-62.954
X198.867Y-65.494
X198.867Y-68.034
X198.867Y-70.574
X198.867Y-73.114
X198.867Y-75.654
X206.487Y-52.794
X206.487Y-55.334
X206.487Y-57.874
X206.487Y-60.414
X206.487Y-62.954
X206.487Y-65.494
X206.487Y-68.034
X206.487Y-70.574
X206.487Y-73.114
X206.487Y-75.654
X209.367Y-52.794
X209.367Y-55.334
X209.367Y-57.874
X209.367Y-60.414
X209.367Y-62.954
X209.367Y-65.494
X209.367Y-68.034
X209.367Y-70.574
X209.367Y-73.114
X209.367Y-75.654
X216.987Y-52.794
X216.987Y-55.334
X216.987Y-57.874
X216.987Y-60.414
X216.987Y-62.954
X216.987Y-65.494
X216.987Y-68.034
X216.987Y-70.574
X216.987Y-73.114
X216.987Y-75.654
X219.867Y-52.794
X219.867Y-55.334
X219.867Y-57.874
X219.867Y-60.414
X219.867Y-62.954
X219.867Y-65.494
X219.867Y-68.034
X219.867Y-70.574
X219.867Y-73.114
X219.867Y-75.654
X227.487Y-52.794
X227.487Y-55.334
X227.487Y-57.874
X227.487Y-60.414
X227.487Y-62.954
X227.487Y-65.494
X227.487Y-68.034
X227.487Y-70.574
X227.487Y-73.114
X227.487Y-75.654
T5
X69.707Y-45.114
X69.707Y-47.654
X72.247Y-45.114
X72.247Y-47.654
X74.787Y-45.114
X74.787Y-47.654
X77.327Y-45.114
X77.327Y-47.654
X79.867Y-45.114
X79.867Y-47.654
T6
X37.367Y-46.154
X228.367Y-46.154
M30
