G04 #@! TF.GenerationSoftware,KiCad,Pcbnew,9.0.5*
G04 #@! TF.CreationDate,2025-10-23T02:31:39+02:00*
G04 #@! TF.ProjectId,display-board,64697370-6c61-4792-9d62-6f6172642e6b,1.0a*
G04 #@! TF.SameCoordinates,Original*
G04 #@! TF.FileFunction,Legend,Top*
G04 #@! TF.FilePolarity,Positive*
%FSLAX46Y46*%
G04 Gerber Fmt 4.6, Leading zero omitted, Abs format (unit mm)*
G04 Created by KiCad (PCBNEW 9.0.5) date 2025-10-23 02:31:39*
%MOMM*%
%LPD*%
G01*
G04 APERTURE LIST*
G04 Aperture macros list*
%AMRoundRect*
0 Rectangle with rounded corners*
0 $1 Rounding radius*
0 $2 $3 $4 $5 $6 $7 $8 $9 X,Y pos of 4 corners*
0 Add a 4 corners polygon primitive as box body*
4,1,4,$2,$3,$4,$5,$6,$7,$8,$9,$2,$3,0*
0 Add four circle primitives for the rounded corners*
1,1,$1+$1,$2,$3*
1,1,$1+$1,$4,$5*
1,1,$1+$1,$6,$7*
1,1,$1+$1,$8,$9*
0 Add four rect primitives between the rounded corners*
20,1,$1+$1,$2,$3,$4,$5,0*
20,1,$1+$1,$4,$5,$6,$7,0*
20,1,$1+$1,$6,$7,$8,$9,0*
20,1,$1+$1,$8,$9,$2,$3,0*%
G04 Aperture macros list end*
%ADD10C,0.250000*%
%ADD11C,0.320000*%
%ADD12C,0.400000*%
%ADD13C,0.200000*%
%ADD14C,0.170000*%
%ADD15C,0.100000*%
%ADD16R,1.800000X1.800000*%
%ADD17C,1.800000*%
%ADD18R,1.850000X1.850000*%
%ADD19C,1.850000*%
%ADD20RoundRect,0.062500X-0.687500X-0.062500X0.687500X-0.062500X0.687500X0.062500X-0.687500X0.062500X0*%
%ADD21RoundRect,0.062500X-0.062500X-0.687500X0.062500X-0.687500X0.062500X0.687500X-0.062500X0.687500X0*%
%ADD22RoundRect,0.250000X0.600000X-0.600000X0.600000X0.600000X-0.600000X0.600000X-0.600000X-0.600000X0*%
%ADD23C,1.700000*%
%ADD24RoundRect,0.250000X-0.350000X-0.450000X0.350000X-0.450000X0.350000X0.450000X-0.350000X0.450000X0*%
%ADD25RoundRect,0.250000X1.412500X0.550000X-1.412500X0.550000X-1.412500X-0.550000X1.412500X-0.550000X0*%
%ADD26RoundRect,0.250000X0.350000X0.450000X-0.350000X0.450000X-0.350000X-0.450000X0.350000X-0.450000X0*%
%ADD27RoundRect,0.250000X-0.475000X0.337500X-0.475000X-0.337500X0.475000X-0.337500X0.475000X0.337500X0*%
%ADD28C,6.400000*%
%ADD29RoundRect,0.250000X-0.450000X0.350000X-0.450000X-0.350000X0.450000X-0.350000X0.450000X0.350000X0*%
%ADD30RoundRect,0.250000X0.475000X-0.337500X0.475000X0.337500X-0.475000X0.337500X-0.475000X-0.337500X0*%
G04 APERTURE END LIST*
D10*
G36*
X193119249Y-49108949D02*
G01*
X193435421Y-49108949D01*
X193435421Y-47738746D01*
X193460578Y-47572783D01*
X193365446Y-47707117D01*
X193130362Y-47897504D01*
X193024116Y-47771597D01*
X193533363Y-47295690D01*
X193636800Y-47295690D01*
X193636800Y-49108949D01*
X193941859Y-49108949D01*
X193941859Y-49288712D01*
X193119249Y-49288712D01*
X193119249Y-49108949D01*
G37*
G36*
X194223715Y-49162316D02*
G01*
X194234072Y-49091722D01*
X194261451Y-49046056D01*
X194304786Y-49017462D01*
X194363666Y-49007344D01*
X194422420Y-49017462D01*
X194465638Y-49046056D01*
X194493109Y-49091734D01*
X194503495Y-49162316D01*
X194493015Y-49235250D01*
X194465638Y-49281262D01*
X194422420Y-49309857D01*
X194363666Y-49319975D01*
X194304786Y-49309856D01*
X194261451Y-49281262D01*
X194234166Y-49235263D01*
X194223715Y-49162316D01*
G37*
G36*
X195330353Y-47302442D02*
G01*
X195407624Y-47321811D01*
X195475948Y-47353087D01*
X195536709Y-47396979D01*
X195591211Y-47455828D01*
X195639713Y-47531995D01*
X195693456Y-47664217D01*
X195734846Y-47846580D01*
X195757272Y-48048730D01*
X195765620Y-48307832D01*
X195756474Y-48569205D01*
X195732037Y-48770550D01*
X195687813Y-48951465D01*
X195631287Y-49083670D01*
X195581260Y-49160180D01*
X195526730Y-49219031D01*
X195467522Y-49262700D01*
X195401100Y-49294098D01*
X195327487Y-49313331D01*
X195245139Y-49319975D01*
X195155379Y-49313033D01*
X195077227Y-49293185D01*
X195008712Y-49261234D01*
X194948052Y-49216437D01*
X194893579Y-49156654D01*
X194845069Y-49079518D01*
X194791220Y-48946312D01*
X194749936Y-48765055D01*
X194727502Y-48564321D01*
X194719162Y-48307832D01*
X194928966Y-48307832D01*
X194939111Y-48576850D01*
X194965865Y-48777876D01*
X195004437Y-48924423D01*
X195052612Y-49026192D01*
X195108650Y-49091022D01*
X195172695Y-49127793D01*
X195247948Y-49140212D01*
X195321398Y-49128619D01*
X195383671Y-49094504D01*
X195437866Y-49034991D01*
X195484375Y-48942619D01*
X195521298Y-48807032D01*
X195548029Y-48602646D01*
X195558502Y-48307832D01*
X195548943Y-48040651D01*
X195523676Y-47839914D01*
X195487183Y-47692707D01*
X195440896Y-47590709D01*
X195385308Y-47525454D01*
X195320284Y-47488158D01*
X195242330Y-47475453D01*
X195168760Y-47486978D01*
X195106195Y-47520907D01*
X195051568Y-47580049D01*
X195004437Y-47671702D01*
X194966910Y-47806468D01*
X194939667Y-48011056D01*
X194928966Y-48307832D01*
X194719162Y-48307832D01*
X194728270Y-48048755D01*
X194752745Y-47846580D01*
X194797021Y-47664376D01*
X194853495Y-47531995D01*
X194903592Y-47455596D01*
X194958520Y-47396772D01*
X195018481Y-47353087D01*
X195085843Y-47321572D01*
X195159970Y-47302321D01*
X195242330Y-47295690D01*
X195330353Y-47302442D01*
G37*
G36*
X196575147Y-47875930D02*
G01*
X196653199Y-47901290D01*
X196717441Y-47943186D01*
X196765062Y-47996667D01*
X196798471Y-48060601D01*
X196818307Y-48134176D01*
X196830885Y-48295376D01*
X196823802Y-48623394D01*
X196816842Y-48926377D01*
X196823802Y-49124092D01*
X196850425Y-49296527D01*
X196696552Y-49296527D01*
X196649047Y-49132518D01*
X196637812Y-49132518D01*
X196587188Y-49199502D01*
X196514713Y-49258914D01*
X196458100Y-49287143D01*
X196386574Y-49305474D01*
X196296482Y-49312159D01*
X196200302Y-49300103D01*
X196118887Y-49265314D01*
X196048698Y-49207134D01*
X195996820Y-49131715D01*
X195964046Y-49036886D01*
X195952222Y-48917218D01*
X195953909Y-48899511D01*
X196162149Y-48899511D01*
X196168922Y-48971523D01*
X196187525Y-49027674D01*
X196216615Y-49071457D01*
X196256429Y-49105212D01*
X196302868Y-49125393D01*
X196358031Y-49132396D01*
X196434507Y-49125457D01*
X196493867Y-49106468D01*
X196539870Y-49076953D01*
X196595418Y-49017374D01*
X196629385Y-48954954D01*
X196629385Y-48661130D01*
X196573454Y-48657099D01*
X196517522Y-48655634D01*
X196385997Y-48666747D01*
X196324223Y-48682317D01*
X196271203Y-48705582D01*
X196225947Y-48738310D01*
X196191458Y-48780442D01*
X196169977Y-48831721D01*
X196162149Y-48899511D01*
X195953909Y-48899511D01*
X195963108Y-48802954D01*
X195992766Y-48715596D01*
X196041889Y-48641974D01*
X196107560Y-48583949D01*
X196187031Y-48541542D01*
X196283781Y-48512508D01*
X196389132Y-48497014D01*
X196511904Y-48491503D01*
X196567836Y-48491503D01*
X196626576Y-48494312D01*
X196635003Y-48338240D01*
X196628270Y-48230294D01*
X196611216Y-48157892D01*
X196587375Y-48111339D01*
X196550480Y-48077168D01*
X196495066Y-48054619D01*
X196413963Y-48046004D01*
X196334253Y-48051861D01*
X196243237Y-48070672D01*
X196155792Y-48099664D01*
X196089364Y-48132954D01*
X196022197Y-47972975D01*
X196109227Y-47929167D01*
X196219424Y-47894329D01*
X196337596Y-47873391D01*
X196464277Y-47866241D01*
X196575147Y-47875930D01*
G37*
D11*
G36*
X188422084Y-45075928D02*
G01*
X188668281Y-45075928D01*
X188668281Y-45365111D01*
X188422084Y-45365111D01*
X188422084Y-45904400D01*
X188105912Y-45904400D01*
X188105912Y-45365111D01*
X187414827Y-45365111D01*
X187414827Y-45154330D01*
X187447749Y-45098276D01*
X187708529Y-45098276D01*
X187851289Y-45075928D01*
X188105912Y-45075928D01*
X188105912Y-44642519D01*
X188136687Y-44390949D01*
X188125451Y-44390949D01*
X188041554Y-44617362D01*
X187820514Y-44992030D01*
X187708529Y-45098276D01*
X187447749Y-45098276D01*
X188131069Y-43934825D01*
X188422084Y-43934825D01*
X188422084Y-45075928D01*
G37*
G36*
X189077754Y-45188157D02*
G01*
X188744851Y-44505376D01*
X189136495Y-44505376D01*
X189279255Y-44835593D01*
X189332377Y-45014623D01*
X189391118Y-44835593D01*
X189536687Y-44505376D01*
X189897678Y-44505376D01*
X189561844Y-45176922D01*
X189920026Y-45904400D01*
X189542304Y-45904400D01*
X189371578Y-45540722D01*
X189310029Y-45342030D01*
X189245671Y-45540722D01*
X189074945Y-45904400D01*
X188716885Y-45904400D01*
X189077754Y-45188157D01*
G37*
G36*
X191342130Y-45904400D02*
G01*
X190972712Y-45904400D01*
X190852423Y-45458901D01*
X190390804Y-45458901D01*
X190276010Y-45904400D01*
X189926254Y-45904400D01*
X190138122Y-45169717D01*
X190466275Y-45169717D01*
X190790874Y-45169717D01*
X190678888Y-44716402D01*
X190634192Y-44410488D01*
X190622957Y-44410488D01*
X190575451Y-44719211D01*
X190466275Y-45169717D01*
X190138122Y-45169717D01*
X190494241Y-43934825D01*
X190771334Y-43934825D01*
X191342130Y-45904400D01*
G37*
G36*
X192093864Y-43928013D02*
G01*
X192221642Y-43952535D01*
X192327527Y-43990513D01*
X192425399Y-44045373D01*
X192507856Y-44112312D01*
X192576533Y-44191891D01*
X192631832Y-44282095D01*
X192676318Y-44385448D01*
X192709523Y-44503789D01*
X192738447Y-44691139D01*
X192748724Y-44909232D01*
X192739090Y-45110612D01*
X192710867Y-45299410D01*
X192678605Y-45420616D01*
X192634216Y-45529228D01*
X192577999Y-45626695D01*
X192507844Y-45713687D01*
X192422595Y-45788516D01*
X192320567Y-45851765D01*
X192209240Y-45896525D01*
X192074639Y-45925316D01*
X191912070Y-45935663D01*
X191814129Y-45932854D01*
X191685413Y-45925771D01*
X191556697Y-45917466D01*
X191461564Y-45907697D01*
X191461564Y-44255760D01*
X191814129Y-44255760D01*
X191814129Y-45596287D01*
X191843438Y-45600439D01*
X191888257Y-45603248D01*
X191933075Y-45606057D01*
X191962384Y-45607400D01*
X192044519Y-45600344D01*
X192112619Y-45580522D01*
X192169380Y-45549026D01*
X192241245Y-45481625D01*
X192296753Y-45393321D01*
X192335229Y-45291003D01*
X192361111Y-45169351D01*
X192374661Y-45041099D01*
X192379307Y-44903737D01*
X192375404Y-44777052D01*
X192363920Y-44656319D01*
X192340847Y-44541503D01*
X192305179Y-44446270D01*
X192252435Y-44364593D01*
X192182081Y-44301678D01*
X192126454Y-44272582D01*
X192058837Y-44254086D01*
X191976428Y-44247456D01*
X191885448Y-44248921D01*
X191814129Y-44255760D01*
X191461564Y-44255760D01*
X191461564Y-43947159D01*
X191574893Y-43934581D01*
X191703609Y-43926277D01*
X191830860Y-43920659D01*
X191940036Y-43919194D01*
X192093864Y-43928013D01*
G37*
G36*
X194167531Y-45904400D02*
G01*
X193798114Y-45904400D01*
X193677824Y-45458901D01*
X193216205Y-45458901D01*
X193101411Y-45904400D01*
X192751655Y-45904400D01*
X192963523Y-45169717D01*
X193291676Y-45169717D01*
X193616275Y-45169717D01*
X193504290Y-44716402D01*
X193459593Y-44410488D01*
X193448358Y-44410488D01*
X193400853Y-44719211D01*
X193291676Y-45169717D01*
X192963523Y-45169717D01*
X193319642Y-43934825D01*
X193596735Y-43934825D01*
X194167531Y-45904400D01*
G37*
G36*
X195281278Y-44270903D02*
G01*
X194816851Y-44270903D01*
X194816851Y-45904400D01*
X194464286Y-45904400D01*
X194464286Y-44270903D01*
X193999736Y-44270903D01*
X193999736Y-43942641D01*
X195281278Y-43942641D01*
X195281278Y-44270903D01*
G37*
G36*
X195939513Y-43942641D02*
G01*
X196292077Y-43942641D01*
X196292077Y-45904400D01*
X195939513Y-45904400D01*
X195939513Y-43942641D01*
G37*
G36*
X197263309Y-45904400D02*
G01*
X197263309Y-45055411D01*
X197252261Y-44914109D01*
X197226917Y-44840356D01*
X197197947Y-44806915D01*
X197158164Y-44786396D01*
X197103818Y-44778928D01*
X197035658Y-44790228D01*
X196977911Y-44823625D01*
X196932565Y-44873786D01*
X196902440Y-44935366D01*
X196902440Y-45904400D01*
X196569415Y-45904400D01*
X196569415Y-44505376D01*
X196835273Y-44505376D01*
X196874474Y-44669630D01*
X196882901Y-44669630D01*
X196941589Y-44595318D01*
X197019921Y-44531388D01*
X197080398Y-44500793D01*
X197154858Y-44481185D01*
X197246578Y-44474113D01*
X197327578Y-44480684D01*
X197396177Y-44499270D01*
X197456510Y-44532302D01*
X197506697Y-44581702D01*
X197544550Y-44645701D01*
X197573864Y-44735331D01*
X197590161Y-44837488D01*
X197596334Y-44974201D01*
X197596334Y-45904400D01*
X197263309Y-45904400D01*
G37*
G36*
X197716746Y-44505376D02*
G01*
X197870619Y-44505376D01*
X197870619Y-44241838D01*
X198203522Y-44138035D01*
X198203522Y-44505376D01*
X198474998Y-44505376D01*
X198474998Y-44802376D01*
X198203522Y-44802376D01*
X198203522Y-45410540D01*
X198210742Y-45521468D01*
X198227336Y-45580656D01*
X198259969Y-45617935D01*
X198312698Y-45630848D01*
X198388169Y-45623032D01*
X198460954Y-45599584D01*
X198502964Y-45863489D01*
X198438349Y-45890909D01*
X198360204Y-45914780D01*
X198277699Y-45930357D01*
X198189600Y-45935663D01*
X198087317Y-45924283D01*
X198009531Y-45893064D01*
X197950364Y-45843583D01*
X197909641Y-45776851D01*
X197881510Y-45677481D01*
X197870619Y-45533761D01*
X197870619Y-44802376D01*
X197716746Y-44802376D01*
X197716746Y-44505376D01*
G37*
G36*
X199243749Y-44472950D02*
G01*
X199328871Y-44492798D01*
X199408028Y-44528197D01*
X199478592Y-44582069D01*
X199536677Y-44653093D01*
X199584959Y-44749497D01*
X199614415Y-44861628D01*
X199625504Y-45013035D01*
X199618421Y-45144194D01*
X199597538Y-45294769D01*
X198917688Y-45294769D01*
X198929657Y-45409325D01*
X198954748Y-45496319D01*
X198990472Y-45561605D01*
X199041901Y-45611529D01*
X199111647Y-45642831D01*
X199205895Y-45654295D01*
X199292806Y-45647152D01*
X199369537Y-45626573D01*
X199438393Y-45596352D01*
X199482866Y-45568321D01*
X199586303Y-45802428D01*
X199507472Y-45856841D01*
X199396038Y-45904033D01*
X199273520Y-45933526D01*
X199144223Y-45943478D01*
X199005384Y-45930147D01*
X198893874Y-45893042D01*
X198798420Y-45831413D01*
X198721805Y-45747351D01*
X198664500Y-45644451D01*
X198622398Y-45516053D01*
X198598776Y-45375066D01*
X198590280Y-45206231D01*
X198597935Y-45075928D01*
X198928801Y-45075928D01*
X199314949Y-45075928D01*
X199314354Y-44970788D01*
X199302151Y-44893230D01*
X199281366Y-44837058D01*
X199247447Y-44791146D01*
X199204594Y-44764677D01*
X199149841Y-44755481D01*
X199083566Y-44765254D01*
X199031587Y-44793007D01*
X198990350Y-44839745D01*
X198961755Y-44898367D01*
X198940611Y-44975573D01*
X198928801Y-45075928D01*
X198597935Y-45075928D01*
X198601654Y-45012621D01*
X198632592Y-44859706D01*
X198679374Y-44739975D01*
X198739879Y-44647159D01*
X198820922Y-44568852D01*
X198915230Y-44513010D01*
X199025443Y-44478448D01*
X199155458Y-44466298D01*
X199243749Y-44472950D01*
G37*
G36*
X200498672Y-44827655D02*
G01*
X200432343Y-44808297D01*
X200375574Y-44802376D01*
X200304592Y-44813179D01*
X200245514Y-44844630D01*
X200200305Y-44894392D01*
X200171387Y-44963088D01*
X200171387Y-45904400D01*
X199838361Y-45904400D01*
X199838361Y-44505376D01*
X200092985Y-44505376D01*
X200132186Y-44670485D01*
X200143421Y-44670485D01*
X200188708Y-44586770D01*
X200248201Y-44526015D01*
X200321661Y-44487218D01*
X200406348Y-44474113D01*
X200472479Y-44480944D01*
X200537873Y-44501713D01*
X200498672Y-44827655D01*
G37*
G36*
X200559122Y-44505376D02*
G01*
X200710308Y-44505376D01*
X200710308Y-44427463D01*
X200718032Y-44291479D01*
X200738835Y-44186248D01*
X200769910Y-44105820D01*
X200809593Y-44045223D01*
X200883284Y-43980825D01*
X200976011Y-43941179D01*
X201093648Y-43927009D01*
X201216279Y-43933333D01*
X201317765Y-43950855D01*
X201401393Y-43977812D01*
X201339844Y-44263088D01*
X201250207Y-44236587D01*
X201169119Y-44231824D01*
X201119356Y-44239504D01*
X201086382Y-44260121D01*
X201065560Y-44293984D01*
X201050032Y-44367067D01*
X201043211Y-44505376D01*
X201281104Y-44505376D01*
X201281104Y-44802376D01*
X201043211Y-44802376D01*
X201043211Y-45904400D01*
X200710308Y-45904400D01*
X200710308Y-44802376D01*
X200559122Y-44802376D01*
X200559122Y-44505376D01*
G37*
G36*
X202021516Y-44483449D02*
G01*
X202112906Y-44508634D01*
X202181876Y-44546836D01*
X202233040Y-44597334D01*
X202282500Y-44684385D01*
X202314880Y-44798477D01*
X202326830Y-44947090D01*
X202319869Y-45206109D01*
X202310099Y-45455115D01*
X202314251Y-45690321D01*
X202327338Y-45801482D01*
X202351987Y-45904400D01*
X202080633Y-45904400D01*
X202027510Y-45739413D01*
X202016275Y-45739413D01*
X201962718Y-45813614D01*
X201890368Y-45874480D01*
X201833988Y-45903239D01*
X201766739Y-45921389D01*
X201686181Y-45927847D01*
X201581233Y-45914781D01*
X201496033Y-45877707D01*
X201425940Y-45816594D01*
X201374643Y-45737340D01*
X201342371Y-45639797D01*
X201330807Y-45519106D01*
X201336494Y-45462808D01*
X201674945Y-45462808D01*
X201684680Y-45542556D01*
X201709872Y-45594089D01*
X201751021Y-45627276D01*
X201806470Y-45638663D01*
X201876677Y-45628722D01*
X201929447Y-45601050D01*
X201971612Y-45560558D01*
X201999422Y-45518618D01*
X201999422Y-45286954D01*
X201876324Y-45284267D01*
X201819832Y-45293573D01*
X201772765Y-45309302D01*
X201732345Y-45333584D01*
X201701446Y-45366577D01*
X201681988Y-45407954D01*
X201674945Y-45462808D01*
X201336494Y-45462808D01*
X201343318Y-45395253D01*
X201378008Y-45297298D01*
X201433020Y-45219535D01*
X201509837Y-45158482D01*
X201600092Y-45115318D01*
X201708447Y-45084669D01*
X201838384Y-45068108D01*
X201993927Y-45068112D01*
X201997492Y-44959855D01*
X201989187Y-44885143D01*
X201972922Y-44835349D01*
X201942998Y-44797109D01*
X201895509Y-44772637D01*
X201823201Y-44763297D01*
X201738842Y-44768252D01*
X201649666Y-44783569D01*
X201563593Y-44808702D01*
X201490176Y-44841455D01*
X201406278Y-44588053D01*
X201496893Y-44543270D01*
X201616083Y-44505499D01*
X201746574Y-44482385D01*
X201901481Y-44474113D01*
X202021516Y-44483449D01*
G37*
G36*
X203383668Y-45832104D02*
G01*
X203308047Y-45880158D01*
X203215751Y-45915635D01*
X203117368Y-45936584D01*
X203019991Y-45943478D01*
X202925939Y-45937153D01*
X202846989Y-45919418D01*
X202780633Y-45891577D01*
X202693334Y-45828768D01*
X202622608Y-45742711D01*
X202570845Y-45638717D01*
X202534436Y-45509581D01*
X202514903Y-45369205D01*
X202507936Y-45204888D01*
X202517919Y-45016010D01*
X202545162Y-44865086D01*
X202586380Y-44745525D01*
X202639460Y-44651678D01*
X202712271Y-44571128D01*
X202798820Y-44514068D01*
X202901821Y-44478765D01*
X203025608Y-44466298D01*
X203145647Y-44472488D01*
X203231261Y-44488524D01*
X203307981Y-44514005D01*
X203372555Y-44543845D01*
X203294153Y-44818007D01*
X203197678Y-44782836D01*
X203087158Y-44771113D01*
X203014674Y-44782757D01*
X202957146Y-44816264D01*
X202910814Y-44873939D01*
X202881236Y-44945623D01*
X202860248Y-45052127D01*
X202852074Y-45204888D01*
X202859612Y-45331711D01*
X202880358Y-45434535D01*
X202912158Y-45517519D01*
X202961195Y-45585753D01*
X203023632Y-45625015D01*
X203103888Y-45638663D01*
X203170889Y-45633918D01*
X203222712Y-45621078D01*
X203313693Y-45576137D01*
X203383668Y-45832104D01*
G37*
G36*
X204103205Y-44472950D02*
G01*
X204188327Y-44492798D01*
X204267484Y-44528197D01*
X204338047Y-44582069D01*
X204396133Y-44653093D01*
X204444415Y-44749497D01*
X204473871Y-44861628D01*
X204484959Y-45013035D01*
X204477876Y-45144194D01*
X204456994Y-45294769D01*
X203777144Y-45294769D01*
X203789113Y-45409325D01*
X203814204Y-45496319D01*
X203849928Y-45561605D01*
X203901357Y-45611529D01*
X203971103Y-45642831D01*
X204065350Y-45654295D01*
X204152261Y-45647152D01*
X204228993Y-45626573D01*
X204297848Y-45596352D01*
X204342322Y-45568321D01*
X204445758Y-45802428D01*
X204366928Y-45856841D01*
X204255493Y-45904033D01*
X204132975Y-45933526D01*
X204003679Y-45943478D01*
X203864840Y-45930147D01*
X203753330Y-45893042D01*
X203657876Y-45831413D01*
X203581261Y-45747351D01*
X203523956Y-45644451D01*
X203481854Y-45516053D01*
X203458232Y-45375066D01*
X203449736Y-45206231D01*
X203457390Y-45075928D01*
X203788257Y-45075928D01*
X204174405Y-45075928D01*
X204173810Y-44970788D01*
X204161607Y-44893230D01*
X204140821Y-44837058D01*
X204106903Y-44791146D01*
X204064050Y-44764677D01*
X204009296Y-44755481D01*
X203943022Y-44765254D01*
X203891042Y-44793007D01*
X203849806Y-44839745D01*
X203821211Y-44898367D01*
X203800067Y-44975573D01*
X203788257Y-45075928D01*
X203457390Y-45075928D01*
X203461109Y-45012621D01*
X203492048Y-44859706D01*
X203538830Y-44739975D01*
X203599335Y-44647159D01*
X203680377Y-44568852D01*
X203774686Y-44513010D01*
X203884899Y-44478448D01*
X204014914Y-44466298D01*
X204103205Y-44472950D01*
G37*
G36*
X205164565Y-44935244D02*
G01*
X205746596Y-44935244D01*
X205746596Y-45263506D01*
X205164565Y-45263506D01*
X205164565Y-44935244D01*
G37*
G36*
X207018079Y-43928013D02*
G01*
X207145857Y-43952535D01*
X207251742Y-43990513D01*
X207349614Y-44045373D01*
X207432071Y-44112312D01*
X207500748Y-44191891D01*
X207556047Y-44282095D01*
X207600533Y-44385448D01*
X207633738Y-44503789D01*
X207662662Y-44691139D01*
X207672939Y-44909232D01*
X207663305Y-45110612D01*
X207635082Y-45299410D01*
X207602820Y-45420616D01*
X207558431Y-45529228D01*
X207502213Y-45626695D01*
X207432059Y-45713687D01*
X207346810Y-45788516D01*
X207244781Y-45851765D01*
X207133455Y-45896525D01*
X206998854Y-45925316D01*
X206836285Y-45935663D01*
X206738344Y-45932854D01*
X206609628Y-45925771D01*
X206480912Y-45917466D01*
X206385779Y-45907697D01*
X206385779Y-44255760D01*
X206738344Y-44255760D01*
X206738344Y-45596287D01*
X206767653Y-45600439D01*
X206812472Y-45603248D01*
X206857290Y-45606057D01*
X206886599Y-45607400D01*
X206968734Y-45600344D01*
X207036834Y-45580522D01*
X207093595Y-45549026D01*
X207165460Y-45481625D01*
X207220968Y-45393321D01*
X207259444Y-45291003D01*
X207285326Y-45169351D01*
X207298876Y-45041099D01*
X207303522Y-44903737D01*
X207299619Y-44777052D01*
X207288135Y-44656319D01*
X207265062Y-44541503D01*
X207229394Y-44446270D01*
X207176650Y-44364593D01*
X207106296Y-44301678D01*
X207050669Y-44272582D01*
X206983052Y-44254086D01*
X206900643Y-44247456D01*
X206809663Y-44248921D01*
X206738344Y-44255760D01*
X206385779Y-44255760D01*
X206385779Y-43947159D01*
X206499108Y-43934581D01*
X206627824Y-43926277D01*
X206755075Y-43920659D01*
X206864251Y-43919194D01*
X207018079Y-43928013D01*
G37*
G36*
X207904848Y-44505376D02*
G01*
X208237873Y-44505376D01*
X208237873Y-45904400D01*
X207904848Y-45904400D01*
X207904848Y-44505376D01*
G37*
G36*
X207865769Y-44113489D02*
G01*
X207879400Y-44035488D01*
X207918892Y-43974148D01*
X207957683Y-43944529D01*
X208007038Y-43925915D01*
X208070078Y-43919194D01*
X208133340Y-43925636D01*
X208184717Y-43943706D01*
X208226760Y-43972683D01*
X208259135Y-44011675D01*
X208278671Y-44057877D01*
X208285500Y-44113489D01*
X208278608Y-44169010D01*
X208259035Y-44214201D01*
X208226760Y-44251486D01*
X208160571Y-44288721D01*
X208070078Y-44302166D01*
X208006799Y-44295750D01*
X207957452Y-44278062D01*
X207918892Y-44250143D01*
X207879491Y-44191029D01*
X207865769Y-44113489D01*
G37*
G36*
X208976097Y-45531441D02*
G01*
X208966489Y-45476906D01*
X208938239Y-45432278D01*
X208896553Y-45394159D01*
X208841763Y-45356807D01*
X208717322Y-45285488D01*
X208653761Y-45245080D01*
X208592880Y-45195729D01*
X208539739Y-45137281D01*
X208496282Y-45066647D01*
X208468739Y-44984787D01*
X208458546Y-44875893D01*
X208471617Y-44749180D01*
X208507698Y-44650288D01*
X208564792Y-44572910D01*
X208642267Y-44516077D01*
X208744275Y-44479655D01*
X208878278Y-44466298D01*
X208999176Y-44473136D01*
X209110430Y-44493042D01*
X209212962Y-44524688D01*
X209283965Y-44559110D01*
X209205563Y-44818007D01*
X209076847Y-44775875D01*
X209001313Y-44760488D01*
X208928592Y-44755481D01*
X208864052Y-44763945D01*
X208823694Y-44785746D01*
X208800053Y-44819559D01*
X208791449Y-44869543D01*
X208800956Y-44918072D01*
X208829185Y-44957226D01*
X208925783Y-45025492D01*
X209050225Y-45095345D01*
X209113784Y-45136077D01*
X209174788Y-45186692D01*
X209227788Y-45246710D01*
X209271264Y-45320048D01*
X209298974Y-45404367D01*
X209309122Y-45513733D01*
X209295208Y-45638086D01*
X209255786Y-45740375D01*
X209191519Y-45825509D01*
X209129636Y-45874644D01*
X209052987Y-45911331D01*
X208958391Y-45934947D01*
X208841763Y-45943478D01*
X208728065Y-45936357D01*
X208616571Y-45915024D01*
X208512914Y-45880655D01*
X208438885Y-45841141D01*
X208531209Y-45568321D01*
X208592960Y-45599907D01*
X208666885Y-45628527D01*
X208745254Y-45647799D01*
X208827842Y-45654295D01*
X208888140Y-45646530D01*
X208934087Y-45624986D01*
X208964941Y-45588371D01*
X208976097Y-45531441D01*
G37*
G36*
X210220346Y-44484866D02*
G01*
X210305854Y-44515330D01*
X210377581Y-44564723D01*
X210437768Y-44634825D01*
X210479686Y-44715182D01*
X210513576Y-44825598D01*
X210536762Y-44974044D01*
X210545479Y-45169717D01*
X210535450Y-45361239D01*
X210507866Y-45516978D01*
X210465774Y-45642811D01*
X210411146Y-45743810D01*
X210336116Y-45831485D01*
X210248238Y-45892804D01*
X210145043Y-45930324D01*
X210022311Y-45943478D01*
X209907517Y-45932243D01*
X209818002Y-45895973D01*
X209818002Y-46467135D01*
X209484977Y-46467135D01*
X209484977Y-44935610D01*
X209818002Y-44935610D01*
X209818002Y-45590670D01*
X209880895Y-45632557D01*
X209918809Y-45642627D01*
X209971875Y-45646479D01*
X210040089Y-45634457D01*
X210095921Y-45599096D01*
X210142601Y-45536448D01*
X210171716Y-45459597D01*
X210192932Y-45339701D01*
X210201341Y-45161413D01*
X210195180Y-45028621D01*
X210179201Y-44933456D01*
X210156523Y-44867344D01*
X210119439Y-44813143D01*
X210071229Y-44781983D01*
X210008267Y-44771113D01*
X209944886Y-44781050D01*
X209893644Y-44809770D01*
X209851435Y-44859212D01*
X209818002Y-44935610D01*
X209484977Y-44935610D01*
X209484977Y-44505376D01*
X209733982Y-44505376D01*
X209767566Y-44666821D01*
X209775992Y-44666821D01*
X209846591Y-44577516D01*
X209920096Y-44520275D01*
X210006231Y-44486380D01*
X210117322Y-44474113D01*
X210220346Y-44484866D01*
G37*
G36*
X211074143Y-45450474D02*
G01*
X211080037Y-45541320D01*
X211093682Y-45590670D01*
X211119771Y-45622286D01*
X211158040Y-45632679D01*
X211209698Y-45627062D01*
X211269904Y-45607400D01*
X211300678Y-45874480D01*
X211260526Y-45894022D01*
X211185884Y-45916123D01*
X211104151Y-45930771D01*
X211020898Y-45935663D01*
X210930282Y-45926814D01*
X210862118Y-45902833D01*
X210811093Y-45865687D01*
X210775036Y-45814133D01*
X210750540Y-45737841D01*
X210741118Y-45627794D01*
X210741118Y-43942641D01*
X211074143Y-43942641D01*
X211074143Y-45450474D01*
G37*
G36*
X212033519Y-44483449D02*
G01*
X212124909Y-44508634D01*
X212193879Y-44546836D01*
X212245043Y-44597334D01*
X212294503Y-44684385D01*
X212326883Y-44798477D01*
X212338832Y-44947090D01*
X212331872Y-45206109D01*
X212322102Y-45455115D01*
X212326254Y-45690321D01*
X212339341Y-45801482D01*
X212363989Y-45904400D01*
X212092636Y-45904400D01*
X212039513Y-45739413D01*
X212028278Y-45739413D01*
X211974721Y-45813614D01*
X211902370Y-45874480D01*
X211845991Y-45903239D01*
X211778742Y-45921389D01*
X211698183Y-45927847D01*
X211593235Y-45914781D01*
X211508036Y-45877707D01*
X211437943Y-45816594D01*
X211386646Y-45737340D01*
X211354374Y-45639797D01*
X211342810Y-45519106D01*
X211348497Y-45462808D01*
X211686948Y-45462808D01*
X211696683Y-45542556D01*
X211721875Y-45594089D01*
X211763024Y-45627276D01*
X211818473Y-45638663D01*
X211888680Y-45628722D01*
X211941449Y-45601050D01*
X211983615Y-45560558D01*
X212011425Y-45518618D01*
X212011425Y-45286954D01*
X211888327Y-45284267D01*
X211831835Y-45293573D01*
X211784768Y-45309302D01*
X211744348Y-45333584D01*
X211713449Y-45366577D01*
X211693991Y-45407954D01*
X211686948Y-45462808D01*
X211348497Y-45462808D01*
X211355321Y-45395253D01*
X211390011Y-45297298D01*
X211445023Y-45219535D01*
X211521840Y-45158482D01*
X211612095Y-45115318D01*
X211720450Y-45084669D01*
X211850387Y-45068108D01*
X212005929Y-45068112D01*
X212009495Y-44959855D01*
X212001190Y-44885143D01*
X211984925Y-44835349D01*
X211955001Y-44797109D01*
X211907512Y-44772637D01*
X211835204Y-44763297D01*
X211750845Y-44768252D01*
X211661669Y-44783569D01*
X211575596Y-44808702D01*
X211502179Y-44841455D01*
X211418281Y-44588053D01*
X211508896Y-44543270D01*
X211628086Y-44505499D01*
X211758577Y-44482385D01*
X211913484Y-44474113D01*
X212033519Y-44483449D01*
G37*
G36*
X213017950Y-45291594D02*
G01*
X213054342Y-45509825D01*
X213068386Y-45509825D01*
X213093543Y-45288785D01*
X213255842Y-44505376D01*
X213597172Y-44505376D01*
X213247416Y-45765303D01*
X213157779Y-46061448D01*
X213112778Y-46187128D01*
X213068264Y-46284930D01*
X213015551Y-46368933D01*
X212960553Y-46425980D01*
X212895237Y-46462461D01*
X212816571Y-46474951D01*
X212703121Y-46465059D01*
X212651268Y-46451697D01*
X212609454Y-46432819D01*
X212665385Y-46146688D01*
X212739513Y-46159267D01*
X212775535Y-46151853D01*
X212809488Y-46131667D01*
X212838539Y-46100193D01*
X212866885Y-46050335D01*
X212888789Y-45990353D01*
X212908895Y-45904400D01*
X212421997Y-44505376D01*
X212822067Y-44505376D01*
X213017950Y-45291594D01*
G37*
G36*
X214803708Y-43924194D02*
G01*
X214918403Y-43938855D01*
X215026369Y-43967576D01*
X215117095Y-44012006D01*
X215193201Y-44075155D01*
X215252772Y-44159773D01*
X215279535Y-44224520D01*
X215296910Y-44304516D01*
X215303208Y-44403039D01*
X215287821Y-44547997D01*
X215267815Y-44617765D01*
X215238850Y-44682941D01*
X215200088Y-44742261D01*
X215150678Y-44794072D01*
X215091696Y-44835802D01*
X215020619Y-44867222D01*
X215020619Y-44884075D01*
X215086064Y-44905008D01*
X215147869Y-44934267D01*
X215203858Y-44973388D01*
X215252772Y-45025003D01*
X215292227Y-45086920D01*
X215324091Y-45164466D01*
X215343607Y-45250796D01*
X215350713Y-45358272D01*
X215337065Y-45502261D01*
X215298934Y-45619124D01*
X215237372Y-45720049D01*
X215158982Y-45799009D01*
X215064611Y-45859136D01*
X214953330Y-45902201D01*
X214833457Y-45927146D01*
X214704324Y-45935663D01*
X214603696Y-45935663D01*
X214470706Y-45931388D01*
X214323794Y-45918810D01*
X214183965Y-45893653D01*
X214183965Y-45614361D01*
X214536530Y-45614361D01*
X214613466Y-45626818D01*
X214712751Y-45630848D01*
X214788113Y-45622214D01*
X214851577Y-45597487D01*
X214905825Y-45556720D01*
X214946247Y-45502654D01*
X214972007Y-45432029D01*
X214981418Y-45339832D01*
X214974401Y-45254568D01*
X214956261Y-45195851D01*
X214926257Y-45147664D01*
X214889094Y-45113419D01*
X214844415Y-45089941D01*
X214792496Y-45076416D01*
X214679290Y-45068112D01*
X214536530Y-45068112D01*
X214536530Y-45614361D01*
X214183965Y-45614361D01*
X214183965Y-44235244D01*
X214536530Y-44235244D01*
X214536530Y-44778928D01*
X214617618Y-44778928D01*
X214688937Y-44774776D01*
X214754761Y-44764884D01*
X214829633Y-44724537D01*
X214893246Y-44664012D01*
X214924312Y-44614400D01*
X214943734Y-44554542D01*
X214950643Y-44481807D01*
X214945342Y-44412246D01*
X214930982Y-44358587D01*
X214907275Y-44312360D01*
X214877859Y-44278719D01*
X214841468Y-44253679D01*
X214798114Y-44236709D01*
X214698829Y-44224009D01*
X214592519Y-44227443D01*
X214536530Y-44235244D01*
X214183965Y-44235244D01*
X214183965Y-43961203D01*
X214411966Y-43931772D01*
X214681976Y-43919194D01*
X214803708Y-43924194D01*
G37*
G36*
X216188340Y-44479139D02*
G01*
X216300445Y-44515085D01*
X216392435Y-44572283D01*
X216467758Y-44651678D01*
X216523284Y-44745906D01*
X216566227Y-44865619D01*
X216594539Y-45016418D01*
X216604900Y-45204888D01*
X216593825Y-45397614D01*
X216563692Y-45550059D01*
X216518148Y-45669586D01*
X216459331Y-45762372D01*
X216380280Y-45840815D01*
X216287862Y-45896702D01*
X216179416Y-45931301D01*
X216050957Y-45943478D01*
X215921766Y-45931940D01*
X215814764Y-45899506D01*
X215725541Y-45847791D01*
X215651043Y-45776108D01*
X215589893Y-45681550D01*
X215542542Y-45559287D01*
X215511214Y-45402939D01*
X215499701Y-45204888D01*
X215843839Y-45204888D01*
X215850161Y-45346052D01*
X215866925Y-45452523D01*
X215891345Y-45531196D01*
X215931838Y-45596988D01*
X215983842Y-45633835D01*
X216050957Y-45646479D01*
X216115814Y-45635364D01*
X216167375Y-45603112D01*
X216208982Y-45546706D01*
X216234594Y-45477073D01*
X216253325Y-45367861D01*
X216260762Y-45204888D01*
X216254326Y-45059758D01*
X216237433Y-44952776D01*
X216213135Y-44875893D01*
X216172796Y-44812059D01*
X216120048Y-44775851D01*
X216050957Y-44763297D01*
X215991394Y-44774035D01*
X215941436Y-44805983D01*
X215898428Y-44863192D01*
X215871382Y-44932926D01*
X215851663Y-45042088D01*
X215843839Y-45204888D01*
X215499701Y-45204888D01*
X215510716Y-45013804D01*
X215540748Y-44861978D01*
X215586249Y-44742318D01*
X215645148Y-44648869D01*
X215724362Y-44569575D01*
X215816473Y-44513262D01*
X215924045Y-44478504D01*
X216050957Y-44466298D01*
X216188340Y-44479139D01*
G37*
G36*
X217412723Y-44483449D02*
G01*
X217504113Y-44508634D01*
X217573083Y-44546836D01*
X217624248Y-44597334D01*
X217673707Y-44684385D01*
X217706087Y-44798477D01*
X217718037Y-44947090D01*
X217711076Y-45206109D01*
X217701306Y-45455115D01*
X217705458Y-45690321D01*
X217718546Y-45801482D01*
X217743194Y-45904400D01*
X217471840Y-45904400D01*
X217418717Y-45739413D01*
X217407482Y-45739413D01*
X217353926Y-45813614D01*
X217281575Y-45874480D01*
X217225195Y-45903239D01*
X217157946Y-45921389D01*
X217077388Y-45927847D01*
X216972440Y-45914781D01*
X216887241Y-45877707D01*
X216817147Y-45816594D01*
X216765851Y-45737340D01*
X216733578Y-45639797D01*
X216722015Y-45519106D01*
X216727701Y-45462808D01*
X217066153Y-45462808D01*
X217075888Y-45542556D01*
X217101079Y-45594089D01*
X217142229Y-45627276D01*
X217197678Y-45638663D01*
X217267884Y-45628722D01*
X217320654Y-45601050D01*
X217362819Y-45560558D01*
X217390629Y-45518618D01*
X217390629Y-45286954D01*
X217267531Y-45284267D01*
X217211040Y-45293573D01*
X217163972Y-45309302D01*
X217123553Y-45333584D01*
X217092653Y-45366577D01*
X217073195Y-45407954D01*
X217066153Y-45462808D01*
X216727701Y-45462808D01*
X216734525Y-45395253D01*
X216769215Y-45297298D01*
X216824227Y-45219535D01*
X216901045Y-45158482D01*
X216991299Y-45115318D01*
X217099654Y-45084669D01*
X217229591Y-45068108D01*
X217385134Y-45068112D01*
X217388699Y-44959855D01*
X217380394Y-44885143D01*
X217364129Y-44835349D01*
X217334205Y-44797109D01*
X217286716Y-44772637D01*
X217214408Y-44763297D01*
X217130049Y-44768252D01*
X217040874Y-44783569D01*
X216954800Y-44808702D01*
X216881383Y-44841455D01*
X216797486Y-44588053D01*
X216888100Y-44543270D01*
X217007290Y-44505499D01*
X217137782Y-44482385D01*
X217292688Y-44474113D01*
X217412723Y-44483449D01*
G37*
G36*
X218609768Y-44827655D02*
G01*
X218543438Y-44808297D01*
X218486669Y-44802376D01*
X218415687Y-44813179D01*
X218356610Y-44844630D01*
X218311400Y-44894392D01*
X218282482Y-44963088D01*
X218282482Y-45904400D01*
X217949457Y-45904400D01*
X217949457Y-44505376D01*
X218204080Y-44505376D01*
X218243281Y-44670485D01*
X218254516Y-44670485D01*
X218299804Y-44586770D01*
X218359296Y-44526015D01*
X218432757Y-44487218D01*
X218517444Y-44474113D01*
X218583575Y-44480944D01*
X218648969Y-44501713D01*
X218609768Y-44827655D01*
G37*
G36*
X219772730Y-45409075D02*
G01*
X219775539Y-45644159D01*
X219782233Y-45764470D01*
X219797887Y-45904400D01*
X219562803Y-45904400D01*
X219518107Y-45747229D01*
X219506872Y-45747229D01*
X219450201Y-45833301D01*
X219378095Y-45893218D01*
X219287844Y-45930243D01*
X219173969Y-45943478D01*
X219071468Y-45932561D01*
X218983433Y-45901163D01*
X218906727Y-45849485D01*
X218839478Y-45775317D01*
X218791537Y-45690393D01*
X218753345Y-45576126D01*
X218727496Y-45425046D01*
X218718397Y-45239693D01*
X219061983Y-45239693D01*
X219068170Y-45369440D01*
X219084488Y-45465970D01*
X219108145Y-45536203D01*
X219146328Y-45594882D01*
X219193391Y-45627566D01*
X219252248Y-45638663D01*
X219322096Y-45628563D01*
X219372538Y-45600806D01*
X219410603Y-45555920D01*
X219439705Y-45489797D01*
X219439705Y-44826678D01*
X219409876Y-44804857D01*
X219376690Y-44790164D01*
X219285832Y-44778928D01*
X219217070Y-44790284D01*
X219162271Y-44823115D01*
X219117915Y-44880045D01*
X219090429Y-44951007D01*
X219070120Y-45065379D01*
X219061983Y-45239693D01*
X218718397Y-45239693D01*
X218717845Y-45228457D01*
X218727752Y-45038691D01*
X218754890Y-44885719D01*
X218796111Y-44763339D01*
X218849370Y-44666210D01*
X218922599Y-44582670D01*
X219010118Y-44523587D01*
X219114732Y-44487036D01*
X219241013Y-44474113D01*
X219352876Y-44482540D01*
X219439705Y-44510628D01*
X219439705Y-43942641D01*
X219772730Y-43942641D01*
X219772730Y-45409075D01*
G37*
G36*
X188085216Y-47285246D02*
G01*
X188200922Y-47303252D01*
X188309981Y-47337613D01*
X188403766Y-47390935D01*
X188482535Y-47464673D01*
X188546526Y-47563492D01*
X188575570Y-47638113D01*
X188594344Y-47728977D01*
X188601114Y-47839365D01*
X188590163Y-47997792D01*
X188559871Y-48126633D01*
X188512943Y-48231252D01*
X188445792Y-48322828D01*
X188365701Y-48391270D01*
X188271020Y-48439103D01*
X188382883Y-48527152D01*
X188743874Y-49264400D01*
X188338065Y-49264400D01*
X187996735Y-48506270D01*
X187845671Y-48469878D01*
X187845671Y-49264400D01*
X187493107Y-49264400D01*
X187493107Y-47621378D01*
X187845671Y-47621378D01*
X187845671Y-48217086D01*
X187965961Y-48217086D01*
X188050059Y-48207399D01*
X188114746Y-48180639D01*
X188164652Y-48137829D01*
X188199559Y-48080835D01*
X188222970Y-48001112D01*
X188231819Y-47891388D01*
X188224989Y-47809523D01*
X188205901Y-47742276D01*
X188175765Y-47686835D01*
X188132845Y-47643786D01*
X188075685Y-47617130D01*
X187999544Y-47607456D01*
X187912838Y-47610265D01*
X187845671Y-47621378D01*
X187493107Y-47621378D01*
X187493107Y-47326699D01*
X187610122Y-47305329D01*
X187739303Y-47290429D01*
X187965961Y-47279194D01*
X188085216Y-47285246D01*
G37*
G36*
X189386108Y-47832950D02*
G01*
X189471230Y-47852798D01*
X189550387Y-47888197D01*
X189620950Y-47942069D01*
X189679036Y-48013093D01*
X189727318Y-48109497D01*
X189756774Y-48221628D01*
X189767862Y-48373035D01*
X189760779Y-48504194D01*
X189739897Y-48654769D01*
X189060047Y-48654769D01*
X189072016Y-48769325D01*
X189097107Y-48856319D01*
X189132831Y-48921605D01*
X189184260Y-48971529D01*
X189254006Y-49002831D01*
X189348253Y-49014295D01*
X189435164Y-49007152D01*
X189511896Y-48986573D01*
X189580751Y-48956352D01*
X189625225Y-48928321D01*
X189728661Y-49162428D01*
X189649831Y-49216841D01*
X189538396Y-49264033D01*
X189415878Y-49293526D01*
X189286582Y-49303478D01*
X189147743Y-49290147D01*
X189036233Y-49253042D01*
X188940779Y-49191413D01*
X188864164Y-49107351D01*
X188806859Y-49004451D01*
X188764757Y-48876053D01*
X188741135Y-48735066D01*
X188732639Y-48566231D01*
X188740293Y-48435928D01*
X189071160Y-48435928D01*
X189457308Y-48435928D01*
X189456713Y-48330788D01*
X189444510Y-48253230D01*
X189423724Y-48197058D01*
X189389806Y-48151146D01*
X189346953Y-48124677D01*
X189292200Y-48115481D01*
X189225925Y-48125254D01*
X189173945Y-48153007D01*
X189132709Y-48199745D01*
X189104114Y-48258367D01*
X189082970Y-48335573D01*
X189071160Y-48435928D01*
X188740293Y-48435928D01*
X188744012Y-48372621D01*
X188774951Y-48219706D01*
X188821733Y-48099975D01*
X188882238Y-48007159D01*
X188963280Y-47928852D01*
X189057589Y-47873010D01*
X189167802Y-47838448D01*
X189297817Y-47826298D01*
X189386108Y-47832950D01*
G37*
G36*
X190378714Y-48597006D02*
G01*
X190412175Y-48818412D01*
X190423410Y-48818412D01*
X190454185Y-48594197D01*
X190627719Y-47865376D01*
X190985902Y-47865376D01*
X190515856Y-49280031D01*
X190292008Y-49280031D01*
X189796683Y-47865376D01*
X190185640Y-47865376D01*
X190378714Y-48597006D01*
G37*
G36*
X191164199Y-48067243D02*
G01*
X191170999Y-48000426D01*
X191189576Y-47949476D01*
X191218665Y-47910684D01*
X191280498Y-47871408D01*
X191362890Y-47857561D01*
X191425994Y-47864092D01*
X191475262Y-47882128D01*
X191513832Y-47910684D01*
X191542216Y-47949376D01*
X191560406Y-48000321D01*
X191567077Y-48067243D01*
X191560395Y-48132188D01*
X191541880Y-48183347D01*
X191512489Y-48223803D01*
X191472947Y-48254097D01*
X191423991Y-48272898D01*
X191362890Y-48279612D01*
X191303712Y-48272939D01*
X191256058Y-48254184D01*
X191217322Y-48223803D01*
X191188779Y-48183461D01*
X191170728Y-48132305D01*
X191164199Y-48067243D01*
G37*
G36*
X191164199Y-49083293D02*
G01*
X191170999Y-49016476D01*
X191189576Y-48965526D01*
X191218665Y-48926734D01*
X191280498Y-48887458D01*
X191362890Y-48873611D01*
X191425994Y-48880142D01*
X191475262Y-48898178D01*
X191513832Y-48926734D01*
X191542216Y-48965427D01*
X191560406Y-49016371D01*
X191567077Y-49083293D01*
X191560395Y-49148238D01*
X191541880Y-49199397D01*
X191512489Y-49239853D01*
X191472947Y-49270147D01*
X191423991Y-49288949D01*
X191362890Y-49295663D01*
X191303712Y-49288989D01*
X191256058Y-49270234D01*
X191217322Y-49239853D01*
X191188779Y-49199511D01*
X191170728Y-49148355D01*
X191164199Y-49083293D01*
G37*
D12*
G36*
X202614407Y-47273013D02*
G01*
X202742184Y-47297535D01*
X202848070Y-47335513D01*
X202945942Y-47390373D01*
X203028399Y-47457312D01*
X203097075Y-47536891D01*
X203152374Y-47627095D01*
X203196860Y-47730448D01*
X203230066Y-47848789D01*
X203258989Y-48036139D01*
X203269266Y-48254232D01*
X203259632Y-48455612D01*
X203231409Y-48644410D01*
X203199147Y-48765616D01*
X203154758Y-48874228D01*
X203098541Y-48971695D01*
X203028386Y-49058687D01*
X202943137Y-49133516D01*
X202841109Y-49196765D01*
X202729782Y-49241525D01*
X202595181Y-49270316D01*
X202432613Y-49280663D01*
X202334671Y-49277854D01*
X202205955Y-49270771D01*
X202077239Y-49262466D01*
X201982107Y-49252697D01*
X201982107Y-47600760D01*
X202334671Y-47600760D01*
X202334671Y-48941287D01*
X202363980Y-48945439D01*
X202408799Y-48948248D01*
X202453618Y-48951057D01*
X202482927Y-48952400D01*
X202565061Y-48945344D01*
X202633161Y-48925522D01*
X202689922Y-48894026D01*
X202761787Y-48826625D01*
X202817295Y-48738321D01*
X202855771Y-48636003D01*
X202881653Y-48514351D01*
X202895203Y-48386099D01*
X202899849Y-48248737D01*
X202895946Y-48122052D01*
X202884462Y-48001319D01*
X202861389Y-47886503D01*
X202825721Y-47791270D01*
X202772977Y-47709593D01*
X202702623Y-47646678D01*
X202646996Y-47617582D01*
X202579379Y-47599086D01*
X202496971Y-47592456D01*
X202405990Y-47593921D01*
X202334671Y-47600760D01*
X201982107Y-47600760D01*
X201982107Y-47292159D01*
X202095435Y-47279581D01*
X202224151Y-47271277D01*
X202351402Y-47265659D01*
X202460578Y-47264194D01*
X202614407Y-47273013D01*
G37*
G36*
X204091255Y-47828449D02*
G01*
X204182646Y-47853634D01*
X204251616Y-47891836D01*
X204302780Y-47942334D01*
X204352240Y-48029385D01*
X204384620Y-48143477D01*
X204396569Y-48292090D01*
X204389608Y-48551109D01*
X204379839Y-48800115D01*
X204383991Y-49035321D01*
X204397078Y-49146482D01*
X204421726Y-49249400D01*
X204150373Y-49249400D01*
X204097250Y-49084413D01*
X204086015Y-49084413D01*
X204032458Y-49158614D01*
X203960107Y-49219480D01*
X203903728Y-49248239D01*
X203836479Y-49266389D01*
X203755920Y-49272847D01*
X203650972Y-49259781D01*
X203565773Y-49222707D01*
X203495680Y-49161594D01*
X203444383Y-49082340D01*
X203412111Y-48984797D01*
X203400547Y-48864106D01*
X203406234Y-48807808D01*
X203744685Y-48807808D01*
X203754420Y-48887556D01*
X203779612Y-48939089D01*
X203820761Y-48972276D01*
X203876210Y-48983663D01*
X203946417Y-48973722D01*
X203999186Y-48946050D01*
X204041351Y-48905558D01*
X204069162Y-48863618D01*
X204069162Y-48631954D01*
X203946063Y-48629267D01*
X203889572Y-48638573D01*
X203842504Y-48654302D01*
X203802085Y-48678584D01*
X203771186Y-48711577D01*
X203751728Y-48752954D01*
X203744685Y-48807808D01*
X203406234Y-48807808D01*
X203413058Y-48740253D01*
X203447748Y-48642298D01*
X203502760Y-48564535D01*
X203579577Y-48503482D01*
X203669832Y-48460318D01*
X203778187Y-48429669D01*
X203908124Y-48413108D01*
X204063666Y-48413112D01*
X204067232Y-48304855D01*
X204058927Y-48230143D01*
X204042661Y-48180349D01*
X204012738Y-48142109D01*
X203965249Y-48117637D01*
X203892941Y-48108297D01*
X203808582Y-48113252D01*
X203719406Y-48128569D01*
X203633333Y-48153702D01*
X203559915Y-48186455D01*
X203476018Y-47933053D01*
X203566633Y-47888270D01*
X203685823Y-47850499D01*
X203816314Y-47827385D01*
X203971220Y-47819113D01*
X204091255Y-47828449D01*
G37*
G36*
X204518935Y-47850376D02*
G01*
X204672808Y-47850376D01*
X204672808Y-47586838D01*
X205005711Y-47483035D01*
X205005711Y-47850376D01*
X205277187Y-47850376D01*
X205277187Y-48147376D01*
X205005711Y-48147376D01*
X205005711Y-48755540D01*
X205012932Y-48866468D01*
X205029525Y-48925656D01*
X205062158Y-48962935D01*
X205114888Y-48975848D01*
X205190359Y-48968032D01*
X205263143Y-48944584D01*
X205305153Y-49208489D01*
X205240538Y-49235909D01*
X205162393Y-49259780D01*
X205079888Y-49275357D01*
X204991789Y-49280663D01*
X204889506Y-49269283D01*
X204811720Y-49238064D01*
X204752553Y-49188583D01*
X204711830Y-49121851D01*
X204683699Y-49022481D01*
X204672808Y-48878761D01*
X204672808Y-48147376D01*
X204518935Y-48147376D01*
X204518935Y-47850376D01*
G37*
G36*
X206045938Y-47817950D02*
G01*
X206131060Y-47837798D01*
X206210217Y-47873197D01*
X206280781Y-47927069D01*
X206338866Y-47998093D01*
X206387149Y-48094497D01*
X206416605Y-48206628D01*
X206427693Y-48358035D01*
X206420610Y-48489194D01*
X206399727Y-48639769D01*
X205719877Y-48639769D01*
X205731846Y-48754325D01*
X205756937Y-48841319D01*
X205792661Y-48906605D01*
X205844090Y-48956529D01*
X205913836Y-48987831D01*
X206008084Y-48999295D01*
X206094995Y-48992152D01*
X206171726Y-48971573D01*
X206240582Y-48941352D01*
X206285055Y-48913321D01*
X206388492Y-49147428D01*
X206309661Y-49201841D01*
X206198227Y-49249033D01*
X206075709Y-49278526D01*
X205946412Y-49288478D01*
X205807573Y-49275147D01*
X205696063Y-49238042D01*
X205600609Y-49176413D01*
X205523994Y-49092351D01*
X205466689Y-48989451D01*
X205424587Y-48861053D01*
X205400966Y-48720066D01*
X205392470Y-48551231D01*
X205400124Y-48420928D01*
X205730990Y-48420928D01*
X206117138Y-48420928D01*
X206116543Y-48315788D01*
X206104340Y-48238230D01*
X206083555Y-48182058D01*
X206049637Y-48136146D01*
X206006783Y-48109677D01*
X205952030Y-48100481D01*
X205885755Y-48110254D01*
X205833776Y-48138007D01*
X205792539Y-48184745D01*
X205763944Y-48243367D01*
X205742800Y-48320573D01*
X205730990Y-48420928D01*
X205400124Y-48420928D01*
X205403843Y-48357621D01*
X205434781Y-48204706D01*
X205481563Y-48084975D01*
X205542068Y-47992159D01*
X205623111Y-47913852D01*
X205717419Y-47858010D01*
X205827633Y-47823448D01*
X205957648Y-47811298D01*
X206045938Y-47817950D01*
G37*
G36*
X206735683Y-48052243D02*
G01*
X206742484Y-47985426D01*
X206761061Y-47934476D01*
X206790149Y-47895684D01*
X206851982Y-47856408D01*
X206934375Y-47842561D01*
X206997479Y-47849092D01*
X207046747Y-47867128D01*
X207085317Y-47895684D01*
X207113701Y-47934376D01*
X207131891Y-47985321D01*
X207138562Y-48052243D01*
X207131879Y-48117188D01*
X207113364Y-48168347D01*
X207083973Y-48208803D01*
X207044432Y-48239097D01*
X206995475Y-48257898D01*
X206934375Y-48264612D01*
X206875196Y-48257939D01*
X206827542Y-48239184D01*
X206788806Y-48208803D01*
X206760263Y-48168461D01*
X206742212Y-48117305D01*
X206735683Y-48052243D01*
G37*
G36*
X206735683Y-49068293D02*
G01*
X206742484Y-49001476D01*
X206761061Y-48950526D01*
X206790149Y-48911734D01*
X206851982Y-48872458D01*
X206934375Y-48858611D01*
X206997479Y-48865142D01*
X207046747Y-48883178D01*
X207085317Y-48911734D01*
X207113701Y-48950427D01*
X207131891Y-49001371D01*
X207138562Y-49068293D01*
X207131879Y-49133238D01*
X207113364Y-49184397D01*
X207083973Y-49224853D01*
X207044432Y-49255147D01*
X206995475Y-49273949D01*
X206934375Y-49280663D01*
X206875196Y-49273989D01*
X206827542Y-49255234D01*
X206788806Y-49224853D01*
X206760263Y-49184511D01*
X206742212Y-49133355D01*
X206735683Y-49068293D01*
G37*
D13*
X186367200Y-42904400D02*
X220867200Y-42904400D01*
X220867200Y-50404400D01*
X186367200Y-50404400D01*
X186367200Y-42904400D01*
D10*
G36*
X209385927Y-47720195D02*
G01*
X209374739Y-47875855D01*
X209339765Y-48043573D01*
X209287462Y-48210679D01*
X209222163Y-48376720D01*
X209146435Y-48538338D01*
X209062672Y-48692892D01*
X208973477Y-48839635D01*
X208890603Y-48962781D01*
X208778740Y-49086367D01*
X208778740Y-49094794D01*
X208926995Y-49069637D01*
X209416702Y-49069637D01*
X209416702Y-49249400D01*
X208510072Y-49249400D01*
X208510072Y-49163548D01*
X208633171Y-49000150D01*
X208777274Y-48784605D01*
X208922721Y-48536577D01*
X208990436Y-48404185D01*
X209050093Y-48270352D01*
X209101152Y-48134659D01*
X209140952Y-48002662D01*
X209167503Y-47871037D01*
X209176001Y-47748894D01*
X209167863Y-47655211D01*
X209145374Y-47580470D01*
X209110177Y-47520771D01*
X209060864Y-47474534D01*
X208998385Y-47446243D01*
X208918569Y-47436141D01*
X208838741Y-47443882D01*
X208760544Y-47467282D01*
X208687834Y-47502966D01*
X208627675Y-47545561D01*
X208549273Y-47397306D01*
X208631676Y-47339137D01*
X208733921Y-47293747D01*
X208845300Y-47265814D01*
X208963387Y-47256378D01*
X209065670Y-47265270D01*
X209150095Y-47290213D01*
X209220125Y-47329811D01*
X209278216Y-47384361D01*
X209336474Y-47475135D01*
X209372932Y-47585382D01*
X209385927Y-47720195D01*
G37*
G36*
X210332098Y-47263130D02*
G01*
X210409368Y-47282499D01*
X210477693Y-47313775D01*
X210538453Y-47357667D01*
X210592956Y-47416516D01*
X210641458Y-47492683D01*
X210695201Y-47624905D01*
X210736590Y-47807268D01*
X210759017Y-48009418D01*
X210767365Y-48268520D01*
X210758219Y-48529893D01*
X210733781Y-48731238D01*
X210689557Y-48912153D01*
X210633031Y-49044358D01*
X210583004Y-49120868D01*
X210528474Y-49179719D01*
X210469266Y-49223388D01*
X210402845Y-49254786D01*
X210329232Y-49274019D01*
X210246883Y-49280663D01*
X210157124Y-49273721D01*
X210078972Y-49253873D01*
X210010456Y-49221922D01*
X209949797Y-49177125D01*
X209895324Y-49117342D01*
X209846814Y-49040206D01*
X209792965Y-48907000D01*
X209751681Y-48725743D01*
X209729246Y-48525009D01*
X209720906Y-48268520D01*
X209930711Y-48268520D01*
X209940855Y-48537538D01*
X209967610Y-48738564D01*
X210006182Y-48885111D01*
X210054356Y-48986880D01*
X210110395Y-49051710D01*
X210174439Y-49088481D01*
X210249692Y-49100900D01*
X210323142Y-49089307D01*
X210385415Y-49055192D01*
X210439611Y-48995679D01*
X210486119Y-48903307D01*
X210523043Y-48767720D01*
X210549774Y-48563334D01*
X210560247Y-48268520D01*
X210550687Y-48001339D01*
X210525420Y-47800602D01*
X210488928Y-47653395D01*
X210442640Y-47551397D01*
X210387052Y-47486142D01*
X210322029Y-47448846D01*
X210244075Y-47436141D01*
X210170505Y-47447666D01*
X210107939Y-47481595D01*
X210053312Y-47540737D01*
X210006182Y-47632390D01*
X209968655Y-47767156D01*
X209941411Y-47971744D01*
X209930711Y-48268520D01*
X209720906Y-48268520D01*
X209730015Y-48009443D01*
X209754490Y-47807268D01*
X209798766Y-47625064D01*
X209855240Y-47492683D01*
X209905337Y-47416284D01*
X209960265Y-47357460D01*
X210020226Y-47313775D01*
X210087588Y-47282260D01*
X210161715Y-47263009D01*
X210244075Y-47256378D01*
X210332098Y-47263130D01*
G37*
G36*
X211902606Y-47720195D02*
G01*
X211891418Y-47875855D01*
X211856444Y-48043573D01*
X211804140Y-48210679D01*
X211738841Y-48376720D01*
X211663113Y-48538338D01*
X211579350Y-48692892D01*
X211490155Y-48839635D01*
X211407281Y-48962781D01*
X211295418Y-49086367D01*
X211295418Y-49094794D01*
X211443673Y-49069637D01*
X211933380Y-49069637D01*
X211933380Y-49249400D01*
X211026751Y-49249400D01*
X211026751Y-49163548D01*
X211149849Y-49000150D01*
X211293952Y-48784605D01*
X211439399Y-48536577D01*
X211507115Y-48404185D01*
X211566772Y-48270352D01*
X211617830Y-48134659D01*
X211657630Y-48002662D01*
X211684182Y-47871037D01*
X211692679Y-47748894D01*
X211684542Y-47655211D01*
X211662052Y-47580470D01*
X211626855Y-47520771D01*
X211577542Y-47474534D01*
X211515063Y-47446243D01*
X211435247Y-47436141D01*
X211355419Y-47443882D01*
X211277222Y-47467282D01*
X211204513Y-47502966D01*
X211144354Y-47545561D01*
X211065952Y-47397306D01*
X211148354Y-47339137D01*
X211250599Y-47293747D01*
X211361979Y-47265814D01*
X211480066Y-47256378D01*
X211582348Y-47265270D01*
X211666773Y-47290213D01*
X211736803Y-47329811D01*
X211794895Y-47384361D01*
X211853152Y-47475135D01*
X211889610Y-47585382D01*
X211902606Y-47720195D01*
G37*
G36*
X213130170Y-47287641D02*
G01*
X213130170Y-47483035D01*
X212598454Y-47483035D01*
X212598454Y-48054075D01*
X212693586Y-48045771D01*
X212803061Y-48057159D01*
X212896423Y-48086896D01*
X212976750Y-48134124D01*
X213046151Y-48199766D01*
X213099630Y-48277976D01*
X213140268Y-48373859D01*
X213167032Y-48491000D01*
X213177675Y-48633785D01*
X213164126Y-48785073D01*
X213131514Y-48911001D01*
X213079118Y-49023649D01*
X213012567Y-49114089D01*
X212930415Y-49186697D01*
X212836224Y-49238653D01*
X212732727Y-49270029D01*
X212620802Y-49280663D01*
X212492248Y-49274136D01*
X212390295Y-49256404D01*
X212310247Y-49229738D01*
X212360561Y-49056081D01*
X212413084Y-49077205D01*
X212472546Y-49091130D01*
X212615184Y-49100900D01*
X212716071Y-49087493D01*
X212801016Y-49048728D01*
X212873959Y-48983419D01*
X212927169Y-48899554D01*
X212962118Y-48791702D01*
X212976175Y-48653325D01*
X212961677Y-48511179D01*
X212926432Y-48406539D01*
X212873959Y-48330436D01*
X212801575Y-48273488D01*
X212711477Y-48238162D01*
X212598454Y-48225533D01*
X212413806Y-48239577D01*
X212413806Y-47287641D01*
X213130170Y-47287641D01*
G37*
G36*
X213521081Y-48350586D02*
G01*
X214072337Y-48350586D01*
X214072337Y-48545980D01*
X213521081Y-48545980D01*
X213521081Y-48350586D01*
G37*
G36*
X214467400Y-49069637D02*
G01*
X214783572Y-49069637D01*
X214783572Y-47699434D01*
X214808729Y-47533471D01*
X214713597Y-47667805D01*
X214478513Y-47858192D01*
X214372267Y-47732285D01*
X214881514Y-47256378D01*
X214984950Y-47256378D01*
X214984950Y-49069637D01*
X215290010Y-49069637D01*
X215290010Y-49249400D01*
X214467400Y-49249400D01*
X214467400Y-49069637D01*
G37*
G36*
X216180248Y-47263130D02*
G01*
X216257519Y-47282499D01*
X216325844Y-47313775D01*
X216386604Y-47357667D01*
X216441107Y-47416516D01*
X216489608Y-47492683D01*
X216543352Y-47624905D01*
X216584741Y-47807268D01*
X216607167Y-48009418D01*
X216615516Y-48268520D01*
X216606370Y-48529893D01*
X216581932Y-48731238D01*
X216537708Y-48912153D01*
X216481182Y-49044358D01*
X216431155Y-49120868D01*
X216376625Y-49179719D01*
X216317417Y-49223388D01*
X216250996Y-49254786D01*
X216177383Y-49274019D01*
X216095034Y-49280663D01*
X216005274Y-49273721D01*
X215927123Y-49253873D01*
X215858607Y-49221922D01*
X215797948Y-49177125D01*
X215743475Y-49117342D01*
X215694964Y-49040206D01*
X215641116Y-48907000D01*
X215599832Y-48725743D01*
X215577397Y-48525009D01*
X215569057Y-48268520D01*
X215778862Y-48268520D01*
X215789006Y-48537538D01*
X215815760Y-48738564D01*
X215854333Y-48885111D01*
X215902507Y-48986880D01*
X215958546Y-49051710D01*
X216022590Y-49088481D01*
X216097843Y-49100900D01*
X216171293Y-49089307D01*
X216233566Y-49055192D01*
X216287761Y-48995679D01*
X216334270Y-48903307D01*
X216371194Y-48767720D01*
X216397924Y-48563334D01*
X216408398Y-48268520D01*
X216398838Y-48001339D01*
X216373571Y-47800602D01*
X216337079Y-47653395D01*
X216290791Y-47551397D01*
X216235203Y-47486142D01*
X216170179Y-47448846D01*
X216092225Y-47436141D01*
X216018655Y-47447666D01*
X215956090Y-47481595D01*
X215901463Y-47540737D01*
X215854333Y-47632390D01*
X215816806Y-47767156D01*
X215789562Y-47971744D01*
X215778862Y-48268520D01*
X215569057Y-48268520D01*
X215578165Y-48009443D01*
X215602641Y-47807268D01*
X215646916Y-47625064D01*
X215703391Y-47492683D01*
X215753487Y-47416284D01*
X215808416Y-47357460D01*
X215868377Y-47313775D01*
X215935739Y-47282260D01*
X216009865Y-47263009D01*
X216092225Y-47256378D01*
X216180248Y-47263130D01*
G37*
G36*
X216852553Y-48350586D02*
G01*
X217403809Y-48350586D01*
X217403809Y-48545980D01*
X216852553Y-48545980D01*
X216852553Y-48350586D01*
G37*
G36*
X218565551Y-47720195D02*
G01*
X218554362Y-47875855D01*
X218519389Y-48043573D01*
X218467085Y-48210679D01*
X218401786Y-48376720D01*
X218326058Y-48538338D01*
X218242295Y-48692892D01*
X218153100Y-48839635D01*
X218070226Y-48962781D01*
X217958363Y-49086367D01*
X217958363Y-49094794D01*
X218106618Y-49069637D01*
X218596325Y-49069637D01*
X218596325Y-49249400D01*
X217689696Y-49249400D01*
X217689696Y-49163548D01*
X217812794Y-49000150D01*
X217956897Y-48784605D01*
X218102344Y-48536577D01*
X218170059Y-48404185D01*
X218229717Y-48270352D01*
X218280775Y-48134659D01*
X218320575Y-48002662D01*
X218347126Y-47871037D01*
X218355624Y-47748894D01*
X218347487Y-47655211D01*
X218324997Y-47580470D01*
X218289800Y-47520771D01*
X218240487Y-47474534D01*
X218178008Y-47446243D01*
X218098192Y-47436141D01*
X218018364Y-47443882D01*
X217940167Y-47467282D01*
X217867458Y-47502966D01*
X217807299Y-47545561D01*
X217728897Y-47397306D01*
X217811299Y-47339137D01*
X217913544Y-47293747D01*
X218024924Y-47265814D01*
X218143010Y-47256378D01*
X218245293Y-47265270D01*
X218329718Y-47290213D01*
X218399748Y-47329811D01*
X218457839Y-47384361D01*
X218516097Y-47475135D01*
X218552555Y-47585382D01*
X218565551Y-47720195D01*
G37*
G36*
X219054403Y-49034344D02*
G01*
X219110377Y-49062180D01*
X219176036Y-49083559D01*
X219247467Y-49096294D01*
X219334183Y-49100900D01*
X219407232Y-49092972D01*
X219472668Y-49069759D01*
X219531215Y-49032350D01*
X219581845Y-48981831D01*
X219622256Y-48920674D01*
X219653164Y-48847009D01*
X219671822Y-48766484D01*
X219678321Y-48675307D01*
X219666371Y-48538048D01*
X219634756Y-48439100D01*
X219587340Y-48368904D01*
X219521040Y-48316558D01*
X219438274Y-48284059D01*
X219334183Y-48272428D01*
X219166266Y-48272428D01*
X219166266Y-48191339D01*
X219490865Y-47565223D01*
X219600041Y-47447742D01*
X219446168Y-47467404D01*
X219006775Y-47467404D01*
X219006775Y-47287641D01*
X219818272Y-47287641D01*
X219818272Y-47368852D01*
X219460090Y-48038321D01*
X219376193Y-48119410D01*
X219376193Y-48125028D01*
X219457281Y-48108297D01*
X219542007Y-48117080D01*
X219622389Y-48143346D01*
X219694927Y-48186479D01*
X219756723Y-48246783D01*
X219806033Y-48321408D01*
X219846238Y-48416043D01*
X219870909Y-48521638D01*
X219879821Y-48651127D01*
X219868466Y-48796985D01*
X219836468Y-48919794D01*
X219784374Y-49029539D01*
X219718865Y-49117020D01*
X219638344Y-49187404D01*
X219545453Y-49238775D01*
X219443486Y-49270093D01*
X219334183Y-49280663D01*
X219237858Y-49276340D01*
X219149535Y-49263810D01*
X219066331Y-49242908D01*
X218998471Y-49216305D01*
X219054403Y-49034344D01*
G37*
D14*
X55520628Y-63832702D02*
X55520628Y-64804131D01*
X55520628Y-64804131D02*
X55565866Y-64918417D01*
X55565866Y-64918417D02*
X55611104Y-64975560D01*
X55611104Y-64975560D02*
X55701580Y-65032702D01*
X55701580Y-65032702D02*
X55882533Y-65032702D01*
X55882533Y-65032702D02*
X55973009Y-64975560D01*
X55973009Y-64975560D02*
X56018247Y-64918417D01*
X56018247Y-64918417D02*
X56063485Y-64804131D01*
X56063485Y-64804131D02*
X56063485Y-63832702D01*
X56425390Y-63832702D02*
X57013485Y-63832702D01*
X57013485Y-63832702D02*
X56696818Y-64289845D01*
X56696818Y-64289845D02*
X56832533Y-64289845D01*
X56832533Y-64289845D02*
X56923009Y-64346988D01*
X56923009Y-64346988D02*
X56968247Y-64404131D01*
X56968247Y-64404131D02*
X57013485Y-64518417D01*
X57013485Y-64518417D02*
X57013485Y-64804131D01*
X57013485Y-64804131D02*
X56968247Y-64918417D01*
X56968247Y-64918417D02*
X56923009Y-64975560D01*
X56923009Y-64975560D02*
X56832533Y-65032702D01*
X56832533Y-65032702D02*
X56561104Y-65032702D01*
X56561104Y-65032702D02*
X56470628Y-64975560D01*
X56470628Y-64975560D02*
X56425390Y-64918417D01*
X57601580Y-63832702D02*
X57692057Y-63832702D01*
X57692057Y-63832702D02*
X57782533Y-63889845D01*
X57782533Y-63889845D02*
X57827771Y-63946988D01*
X57827771Y-63946988D02*
X57873009Y-64061274D01*
X57873009Y-64061274D02*
X57918247Y-64289845D01*
X57918247Y-64289845D02*
X57918247Y-64575560D01*
X57918247Y-64575560D02*
X57873009Y-64804131D01*
X57873009Y-64804131D02*
X57827771Y-64918417D01*
X57827771Y-64918417D02*
X57782533Y-64975560D01*
X57782533Y-64975560D02*
X57692057Y-65032702D01*
X57692057Y-65032702D02*
X57601580Y-65032702D01*
X57601580Y-65032702D02*
X57511104Y-64975560D01*
X57511104Y-64975560D02*
X57465866Y-64918417D01*
X57465866Y-64918417D02*
X57420628Y-64804131D01*
X57420628Y-64804131D02*
X57375390Y-64575560D01*
X57375390Y-64575560D02*
X57375390Y-64289845D01*
X57375390Y-64289845D02*
X57420628Y-64061274D01*
X57420628Y-64061274D02*
X57465866Y-63946988D01*
X57465866Y-63946988D02*
X57511104Y-63889845D01*
X57511104Y-63889845D02*
X57601580Y-63832702D01*
X58823009Y-65032702D02*
X58280152Y-65032702D01*
X58551580Y-65032702D02*
X58551580Y-63832702D01*
X58551580Y-63832702D02*
X58461104Y-64004131D01*
X58461104Y-64004131D02*
X58370628Y-64118417D01*
X58370628Y-64118417D02*
X58280152Y-64175560D01*
X62953502Y-47605828D02*
X63810645Y-47605828D01*
X63810645Y-47605828D02*
X63982074Y-47651067D01*
X63982074Y-47651067D02*
X64096360Y-47741543D01*
X64096360Y-47741543D02*
X64153502Y-47877257D01*
X64153502Y-47877257D02*
X64153502Y-47967733D01*
X62953502Y-47243923D02*
X62953502Y-46655828D01*
X62953502Y-46655828D02*
X63410645Y-46972495D01*
X63410645Y-46972495D02*
X63410645Y-46836780D01*
X63410645Y-46836780D02*
X63467788Y-46746304D01*
X63467788Y-46746304D02*
X63524931Y-46701066D01*
X63524931Y-46701066D02*
X63639217Y-46655828D01*
X63639217Y-46655828D02*
X63924931Y-46655828D01*
X63924931Y-46655828D02*
X64039217Y-46701066D01*
X64039217Y-46701066D02*
X64096360Y-46746304D01*
X64096360Y-46746304D02*
X64153502Y-46836780D01*
X64153502Y-46836780D02*
X64153502Y-47108209D01*
X64153502Y-47108209D02*
X64096360Y-47198685D01*
X64096360Y-47198685D02*
X64039217Y-47243923D01*
X62953502Y-46067733D02*
X62953502Y-45977256D01*
X62953502Y-45977256D02*
X63010645Y-45886780D01*
X63010645Y-45886780D02*
X63067788Y-45841542D01*
X63067788Y-45841542D02*
X63182074Y-45796304D01*
X63182074Y-45796304D02*
X63410645Y-45751066D01*
X63410645Y-45751066D02*
X63696360Y-45751066D01*
X63696360Y-45751066D02*
X63924931Y-45796304D01*
X63924931Y-45796304D02*
X64039217Y-45841542D01*
X64039217Y-45841542D02*
X64096360Y-45886780D01*
X64096360Y-45886780D02*
X64153502Y-45977256D01*
X64153502Y-45977256D02*
X64153502Y-46067733D01*
X64153502Y-46067733D02*
X64096360Y-46158209D01*
X64096360Y-46158209D02*
X64039217Y-46203447D01*
X64039217Y-46203447D02*
X63924931Y-46248685D01*
X63924931Y-46248685D02*
X63696360Y-46293923D01*
X63696360Y-46293923D02*
X63410645Y-46293923D01*
X63410645Y-46293923D02*
X63182074Y-46248685D01*
X63182074Y-46248685D02*
X63067788Y-46203447D01*
X63067788Y-46203447D02*
X63010645Y-46158209D01*
X63010645Y-46158209D02*
X62953502Y-46067733D01*
X64153502Y-44846304D02*
X64153502Y-45389161D01*
X64153502Y-45117733D02*
X62953502Y-45117733D01*
X62953502Y-45117733D02*
X63124931Y-45208209D01*
X63124931Y-45208209D02*
X63239217Y-45298685D01*
X63239217Y-45298685D02*
X63296360Y-45389161D01*
X57626104Y-52586702D02*
X57309437Y-52015274D01*
X57083247Y-52586702D02*
X57083247Y-51386702D01*
X57083247Y-51386702D02*
X57445152Y-51386702D01*
X57445152Y-51386702D02*
X57535628Y-51443845D01*
X57535628Y-51443845D02*
X57580866Y-51500988D01*
X57580866Y-51500988D02*
X57626104Y-51615274D01*
X57626104Y-51615274D02*
X57626104Y-51786702D01*
X57626104Y-51786702D02*
X57580866Y-51900988D01*
X57580866Y-51900988D02*
X57535628Y-51958131D01*
X57535628Y-51958131D02*
X57445152Y-52015274D01*
X57445152Y-52015274D02*
X57083247Y-52015274D01*
X57942771Y-51386702D02*
X58530866Y-51386702D01*
X58530866Y-51386702D02*
X58214199Y-51843845D01*
X58214199Y-51843845D02*
X58349914Y-51843845D01*
X58349914Y-51843845D02*
X58440390Y-51900988D01*
X58440390Y-51900988D02*
X58485628Y-51958131D01*
X58485628Y-51958131D02*
X58530866Y-52072417D01*
X58530866Y-52072417D02*
X58530866Y-52358131D01*
X58530866Y-52358131D02*
X58485628Y-52472417D01*
X58485628Y-52472417D02*
X58440390Y-52529560D01*
X58440390Y-52529560D02*
X58349914Y-52586702D01*
X58349914Y-52586702D02*
X58078485Y-52586702D01*
X58078485Y-52586702D02*
X57988009Y-52529560D01*
X57988009Y-52529560D02*
X57942771Y-52472417D01*
X59435628Y-52586702D02*
X58892771Y-52586702D01*
X59164199Y-52586702D02*
X59164199Y-51386702D01*
X59164199Y-51386702D02*
X59073723Y-51558131D01*
X59073723Y-51558131D02*
X58983247Y-51672417D01*
X58983247Y-51672417D02*
X58892771Y-51729560D01*
X60295152Y-51386702D02*
X59842771Y-51386702D01*
X59842771Y-51386702D02*
X59797533Y-51958131D01*
X59797533Y-51958131D02*
X59842771Y-51900988D01*
X59842771Y-51900988D02*
X59933247Y-51843845D01*
X59933247Y-51843845D02*
X60159438Y-51843845D01*
X60159438Y-51843845D02*
X60249914Y-51900988D01*
X60249914Y-51900988D02*
X60295152Y-51958131D01*
X60295152Y-51958131D02*
X60340390Y-52072417D01*
X60340390Y-52072417D02*
X60340390Y-52358131D01*
X60340390Y-52358131D02*
X60295152Y-52472417D01*
X60295152Y-52472417D02*
X60249914Y-52529560D01*
X60249914Y-52529560D02*
X60159438Y-52586702D01*
X60159438Y-52586702D02*
X59933247Y-52586702D01*
X59933247Y-52586702D02*
X59842771Y-52529560D01*
X59842771Y-52529560D02*
X59797533Y-52472417D01*
X42761717Y-47717495D02*
X42818860Y-47762733D01*
X42818860Y-47762733D02*
X42876002Y-47898447D01*
X42876002Y-47898447D02*
X42876002Y-47988923D01*
X42876002Y-47988923D02*
X42818860Y-48124638D01*
X42818860Y-48124638D02*
X42704574Y-48215114D01*
X42704574Y-48215114D02*
X42590288Y-48260352D01*
X42590288Y-48260352D02*
X42361717Y-48305590D01*
X42361717Y-48305590D02*
X42190288Y-48305590D01*
X42190288Y-48305590D02*
X41961717Y-48260352D01*
X41961717Y-48260352D02*
X41847431Y-48215114D01*
X41847431Y-48215114D02*
X41733145Y-48124638D01*
X41733145Y-48124638D02*
X41676002Y-47988923D01*
X41676002Y-47988923D02*
X41676002Y-47898447D01*
X41676002Y-47898447D02*
X41733145Y-47762733D01*
X41733145Y-47762733D02*
X41790288Y-47717495D01*
X41676002Y-47400828D02*
X41676002Y-46812733D01*
X41676002Y-46812733D02*
X42133145Y-47129400D01*
X42133145Y-47129400D02*
X42133145Y-46993685D01*
X42133145Y-46993685D02*
X42190288Y-46903209D01*
X42190288Y-46903209D02*
X42247431Y-46857971D01*
X42247431Y-46857971D02*
X42361717Y-46812733D01*
X42361717Y-46812733D02*
X42647431Y-46812733D01*
X42647431Y-46812733D02*
X42761717Y-46857971D01*
X42761717Y-46857971D02*
X42818860Y-46903209D01*
X42818860Y-46903209D02*
X42876002Y-46993685D01*
X42876002Y-46993685D02*
X42876002Y-47265114D01*
X42876002Y-47265114D02*
X42818860Y-47355590D01*
X42818860Y-47355590D02*
X42761717Y-47400828D01*
X41676002Y-46224638D02*
X41676002Y-46134161D01*
X41676002Y-46134161D02*
X41733145Y-46043685D01*
X41733145Y-46043685D02*
X41790288Y-45998447D01*
X41790288Y-45998447D02*
X41904574Y-45953209D01*
X41904574Y-45953209D02*
X42133145Y-45907971D01*
X42133145Y-45907971D02*
X42418860Y-45907971D01*
X42418860Y-45907971D02*
X42647431Y-45953209D01*
X42647431Y-45953209D02*
X42761717Y-45998447D01*
X42761717Y-45998447D02*
X42818860Y-46043685D01*
X42818860Y-46043685D02*
X42876002Y-46134161D01*
X42876002Y-46134161D02*
X42876002Y-46224638D01*
X42876002Y-46224638D02*
X42818860Y-46315114D01*
X42818860Y-46315114D02*
X42761717Y-46360352D01*
X42761717Y-46360352D02*
X42647431Y-46405590D01*
X42647431Y-46405590D02*
X42418860Y-46450828D01*
X42418860Y-46450828D02*
X42133145Y-46450828D01*
X42133145Y-46450828D02*
X41904574Y-46405590D01*
X41904574Y-46405590D02*
X41790288Y-46360352D01*
X41790288Y-46360352D02*
X41733145Y-46315114D01*
X41733145Y-46315114D02*
X41676002Y-46224638D01*
X42076002Y-45093685D02*
X42876002Y-45093685D01*
X41618860Y-45319876D02*
X42476002Y-45546066D01*
X42476002Y-45546066D02*
X42476002Y-44957971D01*
X38306104Y-51824702D02*
X37989437Y-51253274D01*
X37763247Y-51824702D02*
X37763247Y-50624702D01*
X37763247Y-50624702D02*
X38125152Y-50624702D01*
X38125152Y-50624702D02*
X38215628Y-50681845D01*
X38215628Y-50681845D02*
X38260866Y-50738988D01*
X38260866Y-50738988D02*
X38306104Y-50853274D01*
X38306104Y-50853274D02*
X38306104Y-51024702D01*
X38306104Y-51024702D02*
X38260866Y-51138988D01*
X38260866Y-51138988D02*
X38215628Y-51196131D01*
X38215628Y-51196131D02*
X38125152Y-51253274D01*
X38125152Y-51253274D02*
X37763247Y-51253274D01*
X38622771Y-50624702D02*
X39210866Y-50624702D01*
X39210866Y-50624702D02*
X38894199Y-51081845D01*
X38894199Y-51081845D02*
X39029914Y-51081845D01*
X39029914Y-51081845D02*
X39120390Y-51138988D01*
X39120390Y-51138988D02*
X39165628Y-51196131D01*
X39165628Y-51196131D02*
X39210866Y-51310417D01*
X39210866Y-51310417D02*
X39210866Y-51596131D01*
X39210866Y-51596131D02*
X39165628Y-51710417D01*
X39165628Y-51710417D02*
X39120390Y-51767560D01*
X39120390Y-51767560D02*
X39029914Y-51824702D01*
X39029914Y-51824702D02*
X38758485Y-51824702D01*
X38758485Y-51824702D02*
X38668009Y-51767560D01*
X38668009Y-51767560D02*
X38622771Y-51710417D01*
X39572771Y-50738988D02*
X39618009Y-50681845D01*
X39618009Y-50681845D02*
X39708485Y-50624702D01*
X39708485Y-50624702D02*
X39934676Y-50624702D01*
X39934676Y-50624702D02*
X40025152Y-50681845D01*
X40025152Y-50681845D02*
X40070390Y-50738988D01*
X40070390Y-50738988D02*
X40115628Y-50853274D01*
X40115628Y-50853274D02*
X40115628Y-50967560D01*
X40115628Y-50967560D02*
X40070390Y-51138988D01*
X40070390Y-51138988D02*
X39527533Y-51824702D01*
X39527533Y-51824702D02*
X40115628Y-51824702D01*
X41020390Y-51824702D02*
X40477533Y-51824702D01*
X40748961Y-51824702D02*
X40748961Y-50624702D01*
X40748961Y-50624702D02*
X40658485Y-50796131D01*
X40658485Y-50796131D02*
X40568009Y-50910417D01*
X40568009Y-50910417D02*
X40477533Y-50967560D01*
X116919104Y-46110702D02*
X116602437Y-45539274D01*
X116376247Y-46110702D02*
X116376247Y-44910702D01*
X116376247Y-44910702D02*
X116738152Y-44910702D01*
X116738152Y-44910702D02*
X116828628Y-44967845D01*
X116828628Y-44967845D02*
X116873866Y-45024988D01*
X116873866Y-45024988D02*
X116919104Y-45139274D01*
X116919104Y-45139274D02*
X116919104Y-45310702D01*
X116919104Y-45310702D02*
X116873866Y-45424988D01*
X116873866Y-45424988D02*
X116828628Y-45482131D01*
X116828628Y-45482131D02*
X116738152Y-45539274D01*
X116738152Y-45539274D02*
X116376247Y-45539274D01*
X117235771Y-44910702D02*
X117823866Y-44910702D01*
X117823866Y-44910702D02*
X117507199Y-45367845D01*
X117507199Y-45367845D02*
X117642914Y-45367845D01*
X117642914Y-45367845D02*
X117733390Y-45424988D01*
X117733390Y-45424988D02*
X117778628Y-45482131D01*
X117778628Y-45482131D02*
X117823866Y-45596417D01*
X117823866Y-45596417D02*
X117823866Y-45882131D01*
X117823866Y-45882131D02*
X117778628Y-45996417D01*
X117778628Y-45996417D02*
X117733390Y-46053560D01*
X117733390Y-46053560D02*
X117642914Y-46110702D01*
X117642914Y-46110702D02*
X117371485Y-46110702D01*
X117371485Y-46110702D02*
X117281009Y-46053560D01*
X117281009Y-46053560D02*
X117235771Y-45996417D01*
X118411961Y-44910702D02*
X118502438Y-44910702D01*
X118502438Y-44910702D02*
X118592914Y-44967845D01*
X118592914Y-44967845D02*
X118638152Y-45024988D01*
X118638152Y-45024988D02*
X118683390Y-45139274D01*
X118683390Y-45139274D02*
X118728628Y-45367845D01*
X118728628Y-45367845D02*
X118728628Y-45653560D01*
X118728628Y-45653560D02*
X118683390Y-45882131D01*
X118683390Y-45882131D02*
X118638152Y-45996417D01*
X118638152Y-45996417D02*
X118592914Y-46053560D01*
X118592914Y-46053560D02*
X118502438Y-46110702D01*
X118502438Y-46110702D02*
X118411961Y-46110702D01*
X118411961Y-46110702D02*
X118321485Y-46053560D01*
X118321485Y-46053560D02*
X118276247Y-45996417D01*
X118276247Y-45996417D02*
X118231009Y-45882131D01*
X118231009Y-45882131D02*
X118185771Y-45653560D01*
X118185771Y-45653560D02*
X118185771Y-45367845D01*
X118185771Y-45367845D02*
X118231009Y-45139274D01*
X118231009Y-45139274D02*
X118276247Y-45024988D01*
X118276247Y-45024988D02*
X118321485Y-44967845D01*
X118321485Y-44967845D02*
X118411961Y-44910702D01*
X119542914Y-44910702D02*
X119361961Y-44910702D01*
X119361961Y-44910702D02*
X119271485Y-44967845D01*
X119271485Y-44967845D02*
X119226247Y-45024988D01*
X119226247Y-45024988D02*
X119135771Y-45196417D01*
X119135771Y-45196417D02*
X119090533Y-45424988D01*
X119090533Y-45424988D02*
X119090533Y-45882131D01*
X119090533Y-45882131D02*
X119135771Y-45996417D01*
X119135771Y-45996417D02*
X119181009Y-46053560D01*
X119181009Y-46053560D02*
X119271485Y-46110702D01*
X119271485Y-46110702D02*
X119452438Y-46110702D01*
X119452438Y-46110702D02*
X119542914Y-46053560D01*
X119542914Y-46053560D02*
X119588152Y-45996417D01*
X119588152Y-45996417D02*
X119633390Y-45882131D01*
X119633390Y-45882131D02*
X119633390Y-45596417D01*
X119633390Y-45596417D02*
X119588152Y-45482131D01*
X119588152Y-45482131D02*
X119542914Y-45424988D01*
X119542914Y-45424988D02*
X119452438Y-45367845D01*
X119452438Y-45367845D02*
X119271485Y-45367845D01*
X119271485Y-45367845D02*
X119181009Y-45424988D01*
X119181009Y-45424988D02*
X119135771Y-45482131D01*
X119135771Y-45482131D02*
X119090533Y-45596417D01*
X49101104Y-75713417D02*
X49055866Y-75770560D01*
X49055866Y-75770560D02*
X48920152Y-75827702D01*
X48920152Y-75827702D02*
X48829676Y-75827702D01*
X48829676Y-75827702D02*
X48693961Y-75770560D01*
X48693961Y-75770560D02*
X48603485Y-75656274D01*
X48603485Y-75656274D02*
X48558247Y-75541988D01*
X48558247Y-75541988D02*
X48513009Y-75313417D01*
X48513009Y-75313417D02*
X48513009Y-75141988D01*
X48513009Y-75141988D02*
X48558247Y-74913417D01*
X48558247Y-74913417D02*
X48603485Y-74799131D01*
X48603485Y-74799131D02*
X48693961Y-74684845D01*
X48693961Y-74684845D02*
X48829676Y-74627702D01*
X48829676Y-74627702D02*
X48920152Y-74627702D01*
X48920152Y-74627702D02*
X49055866Y-74684845D01*
X49055866Y-74684845D02*
X49101104Y-74741988D01*
X49417771Y-74627702D02*
X50005866Y-74627702D01*
X50005866Y-74627702D02*
X49689199Y-75084845D01*
X49689199Y-75084845D02*
X49824914Y-75084845D01*
X49824914Y-75084845D02*
X49915390Y-75141988D01*
X49915390Y-75141988D02*
X49960628Y-75199131D01*
X49960628Y-75199131D02*
X50005866Y-75313417D01*
X50005866Y-75313417D02*
X50005866Y-75599131D01*
X50005866Y-75599131D02*
X49960628Y-75713417D01*
X49960628Y-75713417D02*
X49915390Y-75770560D01*
X49915390Y-75770560D02*
X49824914Y-75827702D01*
X49824914Y-75827702D02*
X49553485Y-75827702D01*
X49553485Y-75827702D02*
X49463009Y-75770560D01*
X49463009Y-75770560D02*
X49417771Y-75713417D01*
X50593961Y-74627702D02*
X50684438Y-74627702D01*
X50684438Y-74627702D02*
X50774914Y-74684845D01*
X50774914Y-74684845D02*
X50820152Y-74741988D01*
X50820152Y-74741988D02*
X50865390Y-74856274D01*
X50865390Y-74856274D02*
X50910628Y-75084845D01*
X50910628Y-75084845D02*
X50910628Y-75370560D01*
X50910628Y-75370560D02*
X50865390Y-75599131D01*
X50865390Y-75599131D02*
X50820152Y-75713417D01*
X50820152Y-75713417D02*
X50774914Y-75770560D01*
X50774914Y-75770560D02*
X50684438Y-75827702D01*
X50684438Y-75827702D02*
X50593961Y-75827702D01*
X50593961Y-75827702D02*
X50503485Y-75770560D01*
X50503485Y-75770560D02*
X50458247Y-75713417D01*
X50458247Y-75713417D02*
X50413009Y-75599131D01*
X50413009Y-75599131D02*
X50367771Y-75370560D01*
X50367771Y-75370560D02*
X50367771Y-75084845D01*
X50367771Y-75084845D02*
X50413009Y-74856274D01*
X50413009Y-74856274D02*
X50458247Y-74741988D01*
X50458247Y-74741988D02*
X50503485Y-74684845D01*
X50503485Y-74684845D02*
X50593961Y-74627702D01*
X51815390Y-75827702D02*
X51272533Y-75827702D01*
X51543961Y-75827702D02*
X51543961Y-74627702D01*
X51543961Y-74627702D02*
X51453485Y-74799131D01*
X51453485Y-74799131D02*
X51363009Y-74913417D01*
X51363009Y-74913417D02*
X51272533Y-74970560D01*
X57610104Y-46871702D02*
X57293437Y-46300274D01*
X57067247Y-46871702D02*
X57067247Y-45671702D01*
X57067247Y-45671702D02*
X57429152Y-45671702D01*
X57429152Y-45671702D02*
X57519628Y-45728845D01*
X57519628Y-45728845D02*
X57564866Y-45785988D01*
X57564866Y-45785988D02*
X57610104Y-45900274D01*
X57610104Y-45900274D02*
X57610104Y-46071702D01*
X57610104Y-46071702D02*
X57564866Y-46185988D01*
X57564866Y-46185988D02*
X57519628Y-46243131D01*
X57519628Y-46243131D02*
X57429152Y-46300274D01*
X57429152Y-46300274D02*
X57067247Y-46300274D01*
X57926771Y-45671702D02*
X58514866Y-45671702D01*
X58514866Y-45671702D02*
X58198199Y-46128845D01*
X58198199Y-46128845D02*
X58333914Y-46128845D01*
X58333914Y-46128845D02*
X58424390Y-46185988D01*
X58424390Y-46185988D02*
X58469628Y-46243131D01*
X58469628Y-46243131D02*
X58514866Y-46357417D01*
X58514866Y-46357417D02*
X58514866Y-46643131D01*
X58514866Y-46643131D02*
X58469628Y-46757417D01*
X58469628Y-46757417D02*
X58424390Y-46814560D01*
X58424390Y-46814560D02*
X58333914Y-46871702D01*
X58333914Y-46871702D02*
X58062485Y-46871702D01*
X58062485Y-46871702D02*
X57972009Y-46814560D01*
X57972009Y-46814560D02*
X57926771Y-46757417D01*
X59419628Y-46871702D02*
X58876771Y-46871702D01*
X59148199Y-46871702D02*
X59148199Y-45671702D01*
X59148199Y-45671702D02*
X59057723Y-45843131D01*
X59057723Y-45843131D02*
X58967247Y-45957417D01*
X58967247Y-45957417D02*
X58876771Y-46014560D01*
X59781533Y-45785988D02*
X59826771Y-45728845D01*
X59826771Y-45728845D02*
X59917247Y-45671702D01*
X59917247Y-45671702D02*
X60143438Y-45671702D01*
X60143438Y-45671702D02*
X60233914Y-45728845D01*
X60233914Y-45728845D02*
X60279152Y-45785988D01*
X60279152Y-45785988D02*
X60324390Y-45900274D01*
X60324390Y-45900274D02*
X60324390Y-46014560D01*
X60324390Y-46014560D02*
X60279152Y-46185988D01*
X60279152Y-46185988D02*
X59736295Y-46871702D01*
X59736295Y-46871702D02*
X60324390Y-46871702D01*
X57594104Y-56650702D02*
X57277437Y-56079274D01*
X57051247Y-56650702D02*
X57051247Y-55450702D01*
X57051247Y-55450702D02*
X57413152Y-55450702D01*
X57413152Y-55450702D02*
X57503628Y-55507845D01*
X57503628Y-55507845D02*
X57548866Y-55564988D01*
X57548866Y-55564988D02*
X57594104Y-55679274D01*
X57594104Y-55679274D02*
X57594104Y-55850702D01*
X57594104Y-55850702D02*
X57548866Y-55964988D01*
X57548866Y-55964988D02*
X57503628Y-56022131D01*
X57503628Y-56022131D02*
X57413152Y-56079274D01*
X57413152Y-56079274D02*
X57051247Y-56079274D01*
X57910771Y-55450702D02*
X58498866Y-55450702D01*
X58498866Y-55450702D02*
X58182199Y-55907845D01*
X58182199Y-55907845D02*
X58317914Y-55907845D01*
X58317914Y-55907845D02*
X58408390Y-55964988D01*
X58408390Y-55964988D02*
X58453628Y-56022131D01*
X58453628Y-56022131D02*
X58498866Y-56136417D01*
X58498866Y-56136417D02*
X58498866Y-56422131D01*
X58498866Y-56422131D02*
X58453628Y-56536417D01*
X58453628Y-56536417D02*
X58408390Y-56593560D01*
X58408390Y-56593560D02*
X58317914Y-56650702D01*
X58317914Y-56650702D02*
X58046485Y-56650702D01*
X58046485Y-56650702D02*
X57956009Y-56593560D01*
X57956009Y-56593560D02*
X57910771Y-56536417D01*
X59403628Y-56650702D02*
X58860771Y-56650702D01*
X59132199Y-56650702D02*
X59132199Y-55450702D01*
X59132199Y-55450702D02*
X59041723Y-55622131D01*
X59041723Y-55622131D02*
X58951247Y-55736417D01*
X58951247Y-55736417D02*
X58860771Y-55793560D01*
X59720295Y-55450702D02*
X60353628Y-55450702D01*
X60353628Y-55450702D02*
X59946485Y-56650702D01*
X103584104Y-48015702D02*
X103267437Y-47444274D01*
X103041247Y-48015702D02*
X103041247Y-46815702D01*
X103041247Y-46815702D02*
X103403152Y-46815702D01*
X103403152Y-46815702D02*
X103493628Y-46872845D01*
X103493628Y-46872845D02*
X103538866Y-46929988D01*
X103538866Y-46929988D02*
X103584104Y-47044274D01*
X103584104Y-47044274D02*
X103584104Y-47215702D01*
X103584104Y-47215702D02*
X103538866Y-47329988D01*
X103538866Y-47329988D02*
X103493628Y-47387131D01*
X103493628Y-47387131D02*
X103403152Y-47444274D01*
X103403152Y-47444274D02*
X103041247Y-47444274D01*
X103900771Y-46815702D02*
X104488866Y-46815702D01*
X104488866Y-46815702D02*
X104172199Y-47272845D01*
X104172199Y-47272845D02*
X104307914Y-47272845D01*
X104307914Y-47272845D02*
X104398390Y-47329988D01*
X104398390Y-47329988D02*
X104443628Y-47387131D01*
X104443628Y-47387131D02*
X104488866Y-47501417D01*
X104488866Y-47501417D02*
X104488866Y-47787131D01*
X104488866Y-47787131D02*
X104443628Y-47901417D01*
X104443628Y-47901417D02*
X104398390Y-47958560D01*
X104398390Y-47958560D02*
X104307914Y-48015702D01*
X104307914Y-48015702D02*
X104036485Y-48015702D01*
X104036485Y-48015702D02*
X103946009Y-47958560D01*
X103946009Y-47958560D02*
X103900771Y-47901417D01*
X105076961Y-46815702D02*
X105167438Y-46815702D01*
X105167438Y-46815702D02*
X105257914Y-46872845D01*
X105257914Y-46872845D02*
X105303152Y-46929988D01*
X105303152Y-46929988D02*
X105348390Y-47044274D01*
X105348390Y-47044274D02*
X105393628Y-47272845D01*
X105393628Y-47272845D02*
X105393628Y-47558560D01*
X105393628Y-47558560D02*
X105348390Y-47787131D01*
X105348390Y-47787131D02*
X105303152Y-47901417D01*
X105303152Y-47901417D02*
X105257914Y-47958560D01*
X105257914Y-47958560D02*
X105167438Y-48015702D01*
X105167438Y-48015702D02*
X105076961Y-48015702D01*
X105076961Y-48015702D02*
X104986485Y-47958560D01*
X104986485Y-47958560D02*
X104941247Y-47901417D01*
X104941247Y-47901417D02*
X104896009Y-47787131D01*
X104896009Y-47787131D02*
X104850771Y-47558560D01*
X104850771Y-47558560D02*
X104850771Y-47272845D01*
X104850771Y-47272845D02*
X104896009Y-47044274D01*
X104896009Y-47044274D02*
X104941247Y-46929988D01*
X104941247Y-46929988D02*
X104986485Y-46872845D01*
X104986485Y-46872845D02*
X105076961Y-46815702D01*
X105846009Y-48015702D02*
X106026961Y-48015702D01*
X106026961Y-48015702D02*
X106117438Y-47958560D01*
X106117438Y-47958560D02*
X106162676Y-47901417D01*
X106162676Y-47901417D02*
X106253152Y-47729988D01*
X106253152Y-47729988D02*
X106298390Y-47501417D01*
X106298390Y-47501417D02*
X106298390Y-47044274D01*
X106298390Y-47044274D02*
X106253152Y-46929988D01*
X106253152Y-46929988D02*
X106207914Y-46872845D01*
X106207914Y-46872845D02*
X106117438Y-46815702D01*
X106117438Y-46815702D02*
X105936485Y-46815702D01*
X105936485Y-46815702D02*
X105846009Y-46872845D01*
X105846009Y-46872845D02*
X105800771Y-46929988D01*
X105800771Y-46929988D02*
X105755533Y-47044274D01*
X105755533Y-47044274D02*
X105755533Y-47329988D01*
X105755533Y-47329988D02*
X105800771Y-47444274D01*
X105800771Y-47444274D02*
X105846009Y-47501417D01*
X105846009Y-47501417D02*
X105936485Y-47558560D01*
X105936485Y-47558560D02*
X106117438Y-47558560D01*
X106117438Y-47558560D02*
X106207914Y-47501417D01*
X106207914Y-47501417D02*
X106253152Y-47444274D01*
X106253152Y-47444274D02*
X106298390Y-47329988D01*
X58597217Y-77487495D02*
X58654360Y-77532733D01*
X58654360Y-77532733D02*
X58711502Y-77668447D01*
X58711502Y-77668447D02*
X58711502Y-77758923D01*
X58711502Y-77758923D02*
X58654360Y-77894638D01*
X58654360Y-77894638D02*
X58540074Y-77985114D01*
X58540074Y-77985114D02*
X58425788Y-78030352D01*
X58425788Y-78030352D02*
X58197217Y-78075590D01*
X58197217Y-78075590D02*
X58025788Y-78075590D01*
X58025788Y-78075590D02*
X57797217Y-78030352D01*
X57797217Y-78030352D02*
X57682931Y-77985114D01*
X57682931Y-77985114D02*
X57568645Y-77894638D01*
X57568645Y-77894638D02*
X57511502Y-77758923D01*
X57511502Y-77758923D02*
X57511502Y-77668447D01*
X57511502Y-77668447D02*
X57568645Y-77532733D01*
X57568645Y-77532733D02*
X57625788Y-77487495D01*
X57511502Y-77170828D02*
X57511502Y-76582733D01*
X57511502Y-76582733D02*
X57968645Y-76899400D01*
X57968645Y-76899400D02*
X57968645Y-76763685D01*
X57968645Y-76763685D02*
X58025788Y-76673209D01*
X58025788Y-76673209D02*
X58082931Y-76627971D01*
X58082931Y-76627971D02*
X58197217Y-76582733D01*
X58197217Y-76582733D02*
X58482931Y-76582733D01*
X58482931Y-76582733D02*
X58597217Y-76627971D01*
X58597217Y-76627971D02*
X58654360Y-76673209D01*
X58654360Y-76673209D02*
X58711502Y-76763685D01*
X58711502Y-76763685D02*
X58711502Y-77035114D01*
X58711502Y-77035114D02*
X58654360Y-77125590D01*
X58654360Y-77125590D02*
X58597217Y-77170828D01*
X57511502Y-75994638D02*
X57511502Y-75904161D01*
X57511502Y-75904161D02*
X57568645Y-75813685D01*
X57568645Y-75813685D02*
X57625788Y-75768447D01*
X57625788Y-75768447D02*
X57740074Y-75723209D01*
X57740074Y-75723209D02*
X57968645Y-75677971D01*
X57968645Y-75677971D02*
X58254360Y-75677971D01*
X58254360Y-75677971D02*
X58482931Y-75723209D01*
X58482931Y-75723209D02*
X58597217Y-75768447D01*
X58597217Y-75768447D02*
X58654360Y-75813685D01*
X58654360Y-75813685D02*
X58711502Y-75904161D01*
X58711502Y-75904161D02*
X58711502Y-75994638D01*
X58711502Y-75994638D02*
X58654360Y-76085114D01*
X58654360Y-76085114D02*
X58597217Y-76130352D01*
X58597217Y-76130352D02*
X58482931Y-76175590D01*
X58482931Y-76175590D02*
X58254360Y-76220828D01*
X58254360Y-76220828D02*
X57968645Y-76220828D01*
X57968645Y-76220828D02*
X57740074Y-76175590D01*
X57740074Y-76175590D02*
X57625788Y-76130352D01*
X57625788Y-76130352D02*
X57568645Y-76085114D01*
X57568645Y-76085114D02*
X57511502Y-75994638D01*
X57511502Y-75361304D02*
X57511502Y-74773209D01*
X57511502Y-74773209D02*
X57968645Y-75089876D01*
X57968645Y-75089876D02*
X57968645Y-74954161D01*
X57968645Y-74954161D02*
X58025788Y-74863685D01*
X58025788Y-74863685D02*
X58082931Y-74818447D01*
X58082931Y-74818447D02*
X58197217Y-74773209D01*
X58197217Y-74773209D02*
X58482931Y-74773209D01*
X58482931Y-74773209D02*
X58597217Y-74818447D01*
X58597217Y-74818447D02*
X58654360Y-74863685D01*
X58654360Y-74863685D02*
X58711502Y-74954161D01*
X58711502Y-74954161D02*
X58711502Y-75225590D01*
X58711502Y-75225590D02*
X58654360Y-75316066D01*
X58654360Y-75316066D02*
X58597217Y-75361304D01*
X148881502Y-50182495D02*
X148310074Y-50499162D01*
X148881502Y-50725352D02*
X147681502Y-50725352D01*
X147681502Y-50725352D02*
X147681502Y-50363447D01*
X147681502Y-50363447D02*
X147738645Y-50272971D01*
X147738645Y-50272971D02*
X147795788Y-50227733D01*
X147795788Y-50227733D02*
X147910074Y-50182495D01*
X147910074Y-50182495D02*
X148081502Y-50182495D01*
X148081502Y-50182495D02*
X148195788Y-50227733D01*
X148195788Y-50227733D02*
X148252931Y-50272971D01*
X148252931Y-50272971D02*
X148310074Y-50363447D01*
X148310074Y-50363447D02*
X148310074Y-50725352D01*
X147681502Y-49865828D02*
X147681502Y-49277733D01*
X147681502Y-49277733D02*
X148138645Y-49594400D01*
X148138645Y-49594400D02*
X148138645Y-49458685D01*
X148138645Y-49458685D02*
X148195788Y-49368209D01*
X148195788Y-49368209D02*
X148252931Y-49322971D01*
X148252931Y-49322971D02*
X148367217Y-49277733D01*
X148367217Y-49277733D02*
X148652931Y-49277733D01*
X148652931Y-49277733D02*
X148767217Y-49322971D01*
X148767217Y-49322971D02*
X148824360Y-49368209D01*
X148824360Y-49368209D02*
X148881502Y-49458685D01*
X148881502Y-49458685D02*
X148881502Y-49730114D01*
X148881502Y-49730114D02*
X148824360Y-49820590D01*
X148824360Y-49820590D02*
X148767217Y-49865828D01*
X147681502Y-48689638D02*
X147681502Y-48599161D01*
X147681502Y-48599161D02*
X147738645Y-48508685D01*
X147738645Y-48508685D02*
X147795788Y-48463447D01*
X147795788Y-48463447D02*
X147910074Y-48418209D01*
X147910074Y-48418209D02*
X148138645Y-48372971D01*
X148138645Y-48372971D02*
X148424360Y-48372971D01*
X148424360Y-48372971D02*
X148652931Y-48418209D01*
X148652931Y-48418209D02*
X148767217Y-48463447D01*
X148767217Y-48463447D02*
X148824360Y-48508685D01*
X148824360Y-48508685D02*
X148881502Y-48599161D01*
X148881502Y-48599161D02*
X148881502Y-48689638D01*
X148881502Y-48689638D02*
X148824360Y-48780114D01*
X148824360Y-48780114D02*
X148767217Y-48825352D01*
X148767217Y-48825352D02*
X148652931Y-48870590D01*
X148652931Y-48870590D02*
X148424360Y-48915828D01*
X148424360Y-48915828D02*
X148138645Y-48915828D01*
X148138645Y-48915828D02*
X147910074Y-48870590D01*
X147910074Y-48870590D02*
X147795788Y-48825352D01*
X147795788Y-48825352D02*
X147738645Y-48780114D01*
X147738645Y-48780114D02*
X147681502Y-48689638D01*
X148881502Y-47468209D02*
X148881502Y-48011066D01*
X148881502Y-47739638D02*
X147681502Y-47739638D01*
X147681502Y-47739638D02*
X147852931Y-47830114D01*
X147852931Y-47830114D02*
X147967217Y-47920590D01*
X147967217Y-47920590D02*
X148024360Y-48011066D01*
X121364104Y-45475702D02*
X121047437Y-44904274D01*
X120821247Y-45475702D02*
X120821247Y-44275702D01*
X120821247Y-44275702D02*
X121183152Y-44275702D01*
X121183152Y-44275702D02*
X121273628Y-44332845D01*
X121273628Y-44332845D02*
X121318866Y-44389988D01*
X121318866Y-44389988D02*
X121364104Y-44504274D01*
X121364104Y-44504274D02*
X121364104Y-44675702D01*
X121364104Y-44675702D02*
X121318866Y-44789988D01*
X121318866Y-44789988D02*
X121273628Y-44847131D01*
X121273628Y-44847131D02*
X121183152Y-44904274D01*
X121183152Y-44904274D02*
X120821247Y-44904274D01*
X121680771Y-44275702D02*
X122268866Y-44275702D01*
X122268866Y-44275702D02*
X121952199Y-44732845D01*
X121952199Y-44732845D02*
X122087914Y-44732845D01*
X122087914Y-44732845D02*
X122178390Y-44789988D01*
X122178390Y-44789988D02*
X122223628Y-44847131D01*
X122223628Y-44847131D02*
X122268866Y-44961417D01*
X122268866Y-44961417D02*
X122268866Y-45247131D01*
X122268866Y-45247131D02*
X122223628Y-45361417D01*
X122223628Y-45361417D02*
X122178390Y-45418560D01*
X122178390Y-45418560D02*
X122087914Y-45475702D01*
X122087914Y-45475702D02*
X121816485Y-45475702D01*
X121816485Y-45475702D02*
X121726009Y-45418560D01*
X121726009Y-45418560D02*
X121680771Y-45361417D01*
X122856961Y-44275702D02*
X122947438Y-44275702D01*
X122947438Y-44275702D02*
X123037914Y-44332845D01*
X123037914Y-44332845D02*
X123083152Y-44389988D01*
X123083152Y-44389988D02*
X123128390Y-44504274D01*
X123128390Y-44504274D02*
X123173628Y-44732845D01*
X123173628Y-44732845D02*
X123173628Y-45018560D01*
X123173628Y-45018560D02*
X123128390Y-45247131D01*
X123128390Y-45247131D02*
X123083152Y-45361417D01*
X123083152Y-45361417D02*
X123037914Y-45418560D01*
X123037914Y-45418560D02*
X122947438Y-45475702D01*
X122947438Y-45475702D02*
X122856961Y-45475702D01*
X122856961Y-45475702D02*
X122766485Y-45418560D01*
X122766485Y-45418560D02*
X122721247Y-45361417D01*
X122721247Y-45361417D02*
X122676009Y-45247131D01*
X122676009Y-45247131D02*
X122630771Y-45018560D01*
X122630771Y-45018560D02*
X122630771Y-44732845D01*
X122630771Y-44732845D02*
X122676009Y-44504274D01*
X122676009Y-44504274D02*
X122721247Y-44389988D01*
X122721247Y-44389988D02*
X122766485Y-44332845D01*
X122766485Y-44332845D02*
X122856961Y-44275702D01*
X124033152Y-44275702D02*
X123580771Y-44275702D01*
X123580771Y-44275702D02*
X123535533Y-44847131D01*
X123535533Y-44847131D02*
X123580771Y-44789988D01*
X123580771Y-44789988D02*
X123671247Y-44732845D01*
X123671247Y-44732845D02*
X123897438Y-44732845D01*
X123897438Y-44732845D02*
X123987914Y-44789988D01*
X123987914Y-44789988D02*
X124033152Y-44847131D01*
X124033152Y-44847131D02*
X124078390Y-44961417D01*
X124078390Y-44961417D02*
X124078390Y-45247131D01*
X124078390Y-45247131D02*
X124033152Y-45361417D01*
X124033152Y-45361417D02*
X123987914Y-45418560D01*
X123987914Y-45418560D02*
X123897438Y-45475702D01*
X123897438Y-45475702D02*
X123671247Y-45475702D01*
X123671247Y-45475702D02*
X123580771Y-45418560D01*
X123580771Y-45418560D02*
X123535533Y-45361417D01*
X99139104Y-48650702D02*
X98822437Y-48079274D01*
X98596247Y-48650702D02*
X98596247Y-47450702D01*
X98596247Y-47450702D02*
X98958152Y-47450702D01*
X98958152Y-47450702D02*
X99048628Y-47507845D01*
X99048628Y-47507845D02*
X99093866Y-47564988D01*
X99093866Y-47564988D02*
X99139104Y-47679274D01*
X99139104Y-47679274D02*
X99139104Y-47850702D01*
X99139104Y-47850702D02*
X99093866Y-47964988D01*
X99093866Y-47964988D02*
X99048628Y-48022131D01*
X99048628Y-48022131D02*
X98958152Y-48079274D01*
X98958152Y-48079274D02*
X98596247Y-48079274D01*
X99455771Y-47450702D02*
X100043866Y-47450702D01*
X100043866Y-47450702D02*
X99727199Y-47907845D01*
X99727199Y-47907845D02*
X99862914Y-47907845D01*
X99862914Y-47907845D02*
X99953390Y-47964988D01*
X99953390Y-47964988D02*
X99998628Y-48022131D01*
X99998628Y-48022131D02*
X100043866Y-48136417D01*
X100043866Y-48136417D02*
X100043866Y-48422131D01*
X100043866Y-48422131D02*
X99998628Y-48536417D01*
X99998628Y-48536417D02*
X99953390Y-48593560D01*
X99953390Y-48593560D02*
X99862914Y-48650702D01*
X99862914Y-48650702D02*
X99591485Y-48650702D01*
X99591485Y-48650702D02*
X99501009Y-48593560D01*
X99501009Y-48593560D02*
X99455771Y-48536417D01*
X100948628Y-48650702D02*
X100405771Y-48650702D01*
X100677199Y-48650702D02*
X100677199Y-47450702D01*
X100677199Y-47450702D02*
X100586723Y-47622131D01*
X100586723Y-47622131D02*
X100496247Y-47736417D01*
X100496247Y-47736417D02*
X100405771Y-47793560D01*
X101536723Y-47450702D02*
X101627200Y-47450702D01*
X101627200Y-47450702D02*
X101717676Y-47507845D01*
X101717676Y-47507845D02*
X101762914Y-47564988D01*
X101762914Y-47564988D02*
X101808152Y-47679274D01*
X101808152Y-47679274D02*
X101853390Y-47907845D01*
X101853390Y-47907845D02*
X101853390Y-48193560D01*
X101853390Y-48193560D02*
X101808152Y-48422131D01*
X101808152Y-48422131D02*
X101762914Y-48536417D01*
X101762914Y-48536417D02*
X101717676Y-48593560D01*
X101717676Y-48593560D02*
X101627200Y-48650702D01*
X101627200Y-48650702D02*
X101536723Y-48650702D01*
X101536723Y-48650702D02*
X101446247Y-48593560D01*
X101446247Y-48593560D02*
X101401009Y-48536417D01*
X101401009Y-48536417D02*
X101355771Y-48422131D01*
X101355771Y-48422131D02*
X101310533Y-48193560D01*
X101310533Y-48193560D02*
X101310533Y-47907845D01*
X101310533Y-47907845D02*
X101355771Y-47679274D01*
X101355771Y-47679274D02*
X101401009Y-47564988D01*
X101401009Y-47564988D02*
X101446247Y-47507845D01*
X101446247Y-47507845D02*
X101536723Y-47450702D01*
X57610104Y-50681702D02*
X57293437Y-50110274D01*
X57067247Y-50681702D02*
X57067247Y-49481702D01*
X57067247Y-49481702D02*
X57429152Y-49481702D01*
X57429152Y-49481702D02*
X57519628Y-49538845D01*
X57519628Y-49538845D02*
X57564866Y-49595988D01*
X57564866Y-49595988D02*
X57610104Y-49710274D01*
X57610104Y-49710274D02*
X57610104Y-49881702D01*
X57610104Y-49881702D02*
X57564866Y-49995988D01*
X57564866Y-49995988D02*
X57519628Y-50053131D01*
X57519628Y-50053131D02*
X57429152Y-50110274D01*
X57429152Y-50110274D02*
X57067247Y-50110274D01*
X57926771Y-49481702D02*
X58514866Y-49481702D01*
X58514866Y-49481702D02*
X58198199Y-49938845D01*
X58198199Y-49938845D02*
X58333914Y-49938845D01*
X58333914Y-49938845D02*
X58424390Y-49995988D01*
X58424390Y-49995988D02*
X58469628Y-50053131D01*
X58469628Y-50053131D02*
X58514866Y-50167417D01*
X58514866Y-50167417D02*
X58514866Y-50453131D01*
X58514866Y-50453131D02*
X58469628Y-50567417D01*
X58469628Y-50567417D02*
X58424390Y-50624560D01*
X58424390Y-50624560D02*
X58333914Y-50681702D01*
X58333914Y-50681702D02*
X58062485Y-50681702D01*
X58062485Y-50681702D02*
X57972009Y-50624560D01*
X57972009Y-50624560D02*
X57926771Y-50567417D01*
X59419628Y-50681702D02*
X58876771Y-50681702D01*
X59148199Y-50681702D02*
X59148199Y-49481702D01*
X59148199Y-49481702D02*
X59057723Y-49653131D01*
X59057723Y-49653131D02*
X58967247Y-49767417D01*
X58967247Y-49767417D02*
X58876771Y-49824560D01*
X60233914Y-49881702D02*
X60233914Y-50681702D01*
X60007723Y-49424560D02*
X59781533Y-50281702D01*
X59781533Y-50281702D02*
X60369628Y-50281702D01*
X44881217Y-62311495D02*
X44938360Y-62356733D01*
X44938360Y-62356733D02*
X44995502Y-62492447D01*
X44995502Y-62492447D02*
X44995502Y-62582923D01*
X44995502Y-62582923D02*
X44938360Y-62718638D01*
X44938360Y-62718638D02*
X44824074Y-62809114D01*
X44824074Y-62809114D02*
X44709788Y-62854352D01*
X44709788Y-62854352D02*
X44481217Y-62899590D01*
X44481217Y-62899590D02*
X44309788Y-62899590D01*
X44309788Y-62899590D02*
X44081217Y-62854352D01*
X44081217Y-62854352D02*
X43966931Y-62809114D01*
X43966931Y-62809114D02*
X43852645Y-62718638D01*
X43852645Y-62718638D02*
X43795502Y-62582923D01*
X43795502Y-62582923D02*
X43795502Y-62492447D01*
X43795502Y-62492447D02*
X43852645Y-62356733D01*
X43852645Y-62356733D02*
X43909788Y-62311495D01*
X43795502Y-61994828D02*
X43795502Y-61406733D01*
X43795502Y-61406733D02*
X44252645Y-61723400D01*
X44252645Y-61723400D02*
X44252645Y-61587685D01*
X44252645Y-61587685D02*
X44309788Y-61497209D01*
X44309788Y-61497209D02*
X44366931Y-61451971D01*
X44366931Y-61451971D02*
X44481217Y-61406733D01*
X44481217Y-61406733D02*
X44766931Y-61406733D01*
X44766931Y-61406733D02*
X44881217Y-61451971D01*
X44881217Y-61451971D02*
X44938360Y-61497209D01*
X44938360Y-61497209D02*
X44995502Y-61587685D01*
X44995502Y-61587685D02*
X44995502Y-61859114D01*
X44995502Y-61859114D02*
X44938360Y-61949590D01*
X44938360Y-61949590D02*
X44881217Y-61994828D01*
X43795502Y-60818638D02*
X43795502Y-60728161D01*
X43795502Y-60728161D02*
X43852645Y-60637685D01*
X43852645Y-60637685D02*
X43909788Y-60592447D01*
X43909788Y-60592447D02*
X44024074Y-60547209D01*
X44024074Y-60547209D02*
X44252645Y-60501971D01*
X44252645Y-60501971D02*
X44538360Y-60501971D01*
X44538360Y-60501971D02*
X44766931Y-60547209D01*
X44766931Y-60547209D02*
X44881217Y-60592447D01*
X44881217Y-60592447D02*
X44938360Y-60637685D01*
X44938360Y-60637685D02*
X44995502Y-60728161D01*
X44995502Y-60728161D02*
X44995502Y-60818638D01*
X44995502Y-60818638D02*
X44938360Y-60909114D01*
X44938360Y-60909114D02*
X44881217Y-60954352D01*
X44881217Y-60954352D02*
X44766931Y-60999590D01*
X44766931Y-60999590D02*
X44538360Y-61044828D01*
X44538360Y-61044828D02*
X44252645Y-61044828D01*
X44252645Y-61044828D02*
X44024074Y-60999590D01*
X44024074Y-60999590D02*
X43909788Y-60954352D01*
X43909788Y-60954352D02*
X43852645Y-60909114D01*
X43852645Y-60909114D02*
X43795502Y-60818638D01*
X43909788Y-60140066D02*
X43852645Y-60094828D01*
X43852645Y-60094828D02*
X43795502Y-60004352D01*
X43795502Y-60004352D02*
X43795502Y-59778161D01*
X43795502Y-59778161D02*
X43852645Y-59687685D01*
X43852645Y-59687685D02*
X43909788Y-59642447D01*
X43909788Y-59642447D02*
X44024074Y-59597209D01*
X44024074Y-59597209D02*
X44138360Y-59597209D01*
X44138360Y-59597209D02*
X44309788Y-59642447D01*
X44309788Y-59642447D02*
X44995502Y-60185304D01*
X44995502Y-60185304D02*
X44995502Y-59597209D01*
X138509104Y-45220702D02*
X138192437Y-44649274D01*
X137966247Y-45220702D02*
X137966247Y-44020702D01*
X137966247Y-44020702D02*
X138328152Y-44020702D01*
X138328152Y-44020702D02*
X138418628Y-44077845D01*
X138418628Y-44077845D02*
X138463866Y-44134988D01*
X138463866Y-44134988D02*
X138509104Y-44249274D01*
X138509104Y-44249274D02*
X138509104Y-44420702D01*
X138509104Y-44420702D02*
X138463866Y-44534988D01*
X138463866Y-44534988D02*
X138418628Y-44592131D01*
X138418628Y-44592131D02*
X138328152Y-44649274D01*
X138328152Y-44649274D02*
X137966247Y-44649274D01*
X138825771Y-44020702D02*
X139413866Y-44020702D01*
X139413866Y-44020702D02*
X139097199Y-44477845D01*
X139097199Y-44477845D02*
X139232914Y-44477845D01*
X139232914Y-44477845D02*
X139323390Y-44534988D01*
X139323390Y-44534988D02*
X139368628Y-44592131D01*
X139368628Y-44592131D02*
X139413866Y-44706417D01*
X139413866Y-44706417D02*
X139413866Y-44992131D01*
X139413866Y-44992131D02*
X139368628Y-45106417D01*
X139368628Y-45106417D02*
X139323390Y-45163560D01*
X139323390Y-45163560D02*
X139232914Y-45220702D01*
X139232914Y-45220702D02*
X138961485Y-45220702D01*
X138961485Y-45220702D02*
X138871009Y-45163560D01*
X138871009Y-45163560D02*
X138825771Y-45106417D01*
X140001961Y-44020702D02*
X140092438Y-44020702D01*
X140092438Y-44020702D02*
X140182914Y-44077845D01*
X140182914Y-44077845D02*
X140228152Y-44134988D01*
X140228152Y-44134988D02*
X140273390Y-44249274D01*
X140273390Y-44249274D02*
X140318628Y-44477845D01*
X140318628Y-44477845D02*
X140318628Y-44763560D01*
X140318628Y-44763560D02*
X140273390Y-44992131D01*
X140273390Y-44992131D02*
X140228152Y-45106417D01*
X140228152Y-45106417D02*
X140182914Y-45163560D01*
X140182914Y-45163560D02*
X140092438Y-45220702D01*
X140092438Y-45220702D02*
X140001961Y-45220702D01*
X140001961Y-45220702D02*
X139911485Y-45163560D01*
X139911485Y-45163560D02*
X139866247Y-45106417D01*
X139866247Y-45106417D02*
X139821009Y-44992131D01*
X139821009Y-44992131D02*
X139775771Y-44763560D01*
X139775771Y-44763560D02*
X139775771Y-44477845D01*
X139775771Y-44477845D02*
X139821009Y-44249274D01*
X139821009Y-44249274D02*
X139866247Y-44134988D01*
X139866247Y-44134988D02*
X139911485Y-44077845D01*
X139911485Y-44077845D02*
X140001961Y-44020702D01*
X140680533Y-44134988D02*
X140725771Y-44077845D01*
X140725771Y-44077845D02*
X140816247Y-44020702D01*
X140816247Y-44020702D02*
X141042438Y-44020702D01*
X141042438Y-44020702D02*
X141132914Y-44077845D01*
X141132914Y-44077845D02*
X141178152Y-44134988D01*
X141178152Y-44134988D02*
X141223390Y-44249274D01*
X141223390Y-44249274D02*
X141223390Y-44363560D01*
X141223390Y-44363560D02*
X141178152Y-44534988D01*
X141178152Y-44534988D02*
X140635295Y-45220702D01*
X140635295Y-45220702D02*
X141223390Y-45220702D01*
X112474104Y-46745702D02*
X112157437Y-46174274D01*
X111931247Y-46745702D02*
X111931247Y-45545702D01*
X111931247Y-45545702D02*
X112293152Y-45545702D01*
X112293152Y-45545702D02*
X112383628Y-45602845D01*
X112383628Y-45602845D02*
X112428866Y-45659988D01*
X112428866Y-45659988D02*
X112474104Y-45774274D01*
X112474104Y-45774274D02*
X112474104Y-45945702D01*
X112474104Y-45945702D02*
X112428866Y-46059988D01*
X112428866Y-46059988D02*
X112383628Y-46117131D01*
X112383628Y-46117131D02*
X112293152Y-46174274D01*
X112293152Y-46174274D02*
X111931247Y-46174274D01*
X112790771Y-45545702D02*
X113378866Y-45545702D01*
X113378866Y-45545702D02*
X113062199Y-46002845D01*
X113062199Y-46002845D02*
X113197914Y-46002845D01*
X113197914Y-46002845D02*
X113288390Y-46059988D01*
X113288390Y-46059988D02*
X113333628Y-46117131D01*
X113333628Y-46117131D02*
X113378866Y-46231417D01*
X113378866Y-46231417D02*
X113378866Y-46517131D01*
X113378866Y-46517131D02*
X113333628Y-46631417D01*
X113333628Y-46631417D02*
X113288390Y-46688560D01*
X113288390Y-46688560D02*
X113197914Y-46745702D01*
X113197914Y-46745702D02*
X112926485Y-46745702D01*
X112926485Y-46745702D02*
X112836009Y-46688560D01*
X112836009Y-46688560D02*
X112790771Y-46631417D01*
X113966961Y-45545702D02*
X114057438Y-45545702D01*
X114057438Y-45545702D02*
X114147914Y-45602845D01*
X114147914Y-45602845D02*
X114193152Y-45659988D01*
X114193152Y-45659988D02*
X114238390Y-45774274D01*
X114238390Y-45774274D02*
X114283628Y-46002845D01*
X114283628Y-46002845D02*
X114283628Y-46288560D01*
X114283628Y-46288560D02*
X114238390Y-46517131D01*
X114238390Y-46517131D02*
X114193152Y-46631417D01*
X114193152Y-46631417D02*
X114147914Y-46688560D01*
X114147914Y-46688560D02*
X114057438Y-46745702D01*
X114057438Y-46745702D02*
X113966961Y-46745702D01*
X113966961Y-46745702D02*
X113876485Y-46688560D01*
X113876485Y-46688560D02*
X113831247Y-46631417D01*
X113831247Y-46631417D02*
X113786009Y-46517131D01*
X113786009Y-46517131D02*
X113740771Y-46288560D01*
X113740771Y-46288560D02*
X113740771Y-46002845D01*
X113740771Y-46002845D02*
X113786009Y-45774274D01*
X113786009Y-45774274D02*
X113831247Y-45659988D01*
X113831247Y-45659988D02*
X113876485Y-45602845D01*
X113876485Y-45602845D02*
X113966961Y-45545702D01*
X114600295Y-45545702D02*
X115233628Y-45545702D01*
X115233628Y-45545702D02*
X114826485Y-46745702D01*
X57610104Y-62746702D02*
X57293437Y-62175274D01*
X57067247Y-62746702D02*
X57067247Y-61546702D01*
X57067247Y-61546702D02*
X57429152Y-61546702D01*
X57429152Y-61546702D02*
X57519628Y-61603845D01*
X57519628Y-61603845D02*
X57564866Y-61660988D01*
X57564866Y-61660988D02*
X57610104Y-61775274D01*
X57610104Y-61775274D02*
X57610104Y-61946702D01*
X57610104Y-61946702D02*
X57564866Y-62060988D01*
X57564866Y-62060988D02*
X57519628Y-62118131D01*
X57519628Y-62118131D02*
X57429152Y-62175274D01*
X57429152Y-62175274D02*
X57067247Y-62175274D01*
X57926771Y-61546702D02*
X58514866Y-61546702D01*
X58514866Y-61546702D02*
X58198199Y-62003845D01*
X58198199Y-62003845D02*
X58333914Y-62003845D01*
X58333914Y-62003845D02*
X58424390Y-62060988D01*
X58424390Y-62060988D02*
X58469628Y-62118131D01*
X58469628Y-62118131D02*
X58514866Y-62232417D01*
X58514866Y-62232417D02*
X58514866Y-62518131D01*
X58514866Y-62518131D02*
X58469628Y-62632417D01*
X58469628Y-62632417D02*
X58424390Y-62689560D01*
X58424390Y-62689560D02*
X58333914Y-62746702D01*
X58333914Y-62746702D02*
X58062485Y-62746702D01*
X58062485Y-62746702D02*
X57972009Y-62689560D01*
X57972009Y-62689560D02*
X57926771Y-62632417D01*
X58876771Y-61660988D02*
X58922009Y-61603845D01*
X58922009Y-61603845D02*
X59012485Y-61546702D01*
X59012485Y-61546702D02*
X59238676Y-61546702D01*
X59238676Y-61546702D02*
X59329152Y-61603845D01*
X59329152Y-61603845D02*
X59374390Y-61660988D01*
X59374390Y-61660988D02*
X59419628Y-61775274D01*
X59419628Y-61775274D02*
X59419628Y-61889560D01*
X59419628Y-61889560D02*
X59374390Y-62060988D01*
X59374390Y-62060988D02*
X58831533Y-62746702D01*
X58831533Y-62746702D02*
X59419628Y-62746702D01*
X60007723Y-61546702D02*
X60098200Y-61546702D01*
X60098200Y-61546702D02*
X60188676Y-61603845D01*
X60188676Y-61603845D02*
X60233914Y-61660988D01*
X60233914Y-61660988D02*
X60279152Y-61775274D01*
X60279152Y-61775274D02*
X60324390Y-62003845D01*
X60324390Y-62003845D02*
X60324390Y-62289560D01*
X60324390Y-62289560D02*
X60279152Y-62518131D01*
X60279152Y-62518131D02*
X60233914Y-62632417D01*
X60233914Y-62632417D02*
X60188676Y-62689560D01*
X60188676Y-62689560D02*
X60098200Y-62746702D01*
X60098200Y-62746702D02*
X60007723Y-62746702D01*
X60007723Y-62746702D02*
X59917247Y-62689560D01*
X59917247Y-62689560D02*
X59872009Y-62632417D01*
X59872009Y-62632417D02*
X59826771Y-62518131D01*
X59826771Y-62518131D02*
X59781533Y-62289560D01*
X59781533Y-62289560D02*
X59781533Y-62003845D01*
X59781533Y-62003845D02*
X59826771Y-61775274D01*
X59826771Y-61775274D02*
X59872009Y-61660988D01*
X59872009Y-61660988D02*
X59917247Y-61603845D01*
X59917247Y-61603845D02*
X60007723Y-61546702D01*
X108029104Y-47380702D02*
X107712437Y-46809274D01*
X107486247Y-47380702D02*
X107486247Y-46180702D01*
X107486247Y-46180702D02*
X107848152Y-46180702D01*
X107848152Y-46180702D02*
X107938628Y-46237845D01*
X107938628Y-46237845D02*
X107983866Y-46294988D01*
X107983866Y-46294988D02*
X108029104Y-46409274D01*
X108029104Y-46409274D02*
X108029104Y-46580702D01*
X108029104Y-46580702D02*
X107983866Y-46694988D01*
X107983866Y-46694988D02*
X107938628Y-46752131D01*
X107938628Y-46752131D02*
X107848152Y-46809274D01*
X107848152Y-46809274D02*
X107486247Y-46809274D01*
X108345771Y-46180702D02*
X108933866Y-46180702D01*
X108933866Y-46180702D02*
X108617199Y-46637845D01*
X108617199Y-46637845D02*
X108752914Y-46637845D01*
X108752914Y-46637845D02*
X108843390Y-46694988D01*
X108843390Y-46694988D02*
X108888628Y-46752131D01*
X108888628Y-46752131D02*
X108933866Y-46866417D01*
X108933866Y-46866417D02*
X108933866Y-47152131D01*
X108933866Y-47152131D02*
X108888628Y-47266417D01*
X108888628Y-47266417D02*
X108843390Y-47323560D01*
X108843390Y-47323560D02*
X108752914Y-47380702D01*
X108752914Y-47380702D02*
X108481485Y-47380702D01*
X108481485Y-47380702D02*
X108391009Y-47323560D01*
X108391009Y-47323560D02*
X108345771Y-47266417D01*
X109521961Y-46180702D02*
X109612438Y-46180702D01*
X109612438Y-46180702D02*
X109702914Y-46237845D01*
X109702914Y-46237845D02*
X109748152Y-46294988D01*
X109748152Y-46294988D02*
X109793390Y-46409274D01*
X109793390Y-46409274D02*
X109838628Y-46637845D01*
X109838628Y-46637845D02*
X109838628Y-46923560D01*
X109838628Y-46923560D02*
X109793390Y-47152131D01*
X109793390Y-47152131D02*
X109748152Y-47266417D01*
X109748152Y-47266417D02*
X109702914Y-47323560D01*
X109702914Y-47323560D02*
X109612438Y-47380702D01*
X109612438Y-47380702D02*
X109521961Y-47380702D01*
X109521961Y-47380702D02*
X109431485Y-47323560D01*
X109431485Y-47323560D02*
X109386247Y-47266417D01*
X109386247Y-47266417D02*
X109341009Y-47152131D01*
X109341009Y-47152131D02*
X109295771Y-46923560D01*
X109295771Y-46923560D02*
X109295771Y-46637845D01*
X109295771Y-46637845D02*
X109341009Y-46409274D01*
X109341009Y-46409274D02*
X109386247Y-46294988D01*
X109386247Y-46294988D02*
X109431485Y-46237845D01*
X109431485Y-46237845D02*
X109521961Y-46180702D01*
X110381485Y-46694988D02*
X110291009Y-46637845D01*
X110291009Y-46637845D02*
X110245771Y-46580702D01*
X110245771Y-46580702D02*
X110200533Y-46466417D01*
X110200533Y-46466417D02*
X110200533Y-46409274D01*
X110200533Y-46409274D02*
X110245771Y-46294988D01*
X110245771Y-46294988D02*
X110291009Y-46237845D01*
X110291009Y-46237845D02*
X110381485Y-46180702D01*
X110381485Y-46180702D02*
X110562438Y-46180702D01*
X110562438Y-46180702D02*
X110652914Y-46237845D01*
X110652914Y-46237845D02*
X110698152Y-46294988D01*
X110698152Y-46294988D02*
X110743390Y-46409274D01*
X110743390Y-46409274D02*
X110743390Y-46466417D01*
X110743390Y-46466417D02*
X110698152Y-46580702D01*
X110698152Y-46580702D02*
X110652914Y-46637845D01*
X110652914Y-46637845D02*
X110562438Y-46694988D01*
X110562438Y-46694988D02*
X110381485Y-46694988D01*
X110381485Y-46694988D02*
X110291009Y-46752131D01*
X110291009Y-46752131D02*
X110245771Y-46809274D01*
X110245771Y-46809274D02*
X110200533Y-46923560D01*
X110200533Y-46923560D02*
X110200533Y-47152131D01*
X110200533Y-47152131D02*
X110245771Y-47266417D01*
X110245771Y-47266417D02*
X110291009Y-47323560D01*
X110291009Y-47323560D02*
X110381485Y-47380702D01*
X110381485Y-47380702D02*
X110562438Y-47380702D01*
X110562438Y-47380702D02*
X110652914Y-47323560D01*
X110652914Y-47323560D02*
X110698152Y-47266417D01*
X110698152Y-47266417D02*
X110743390Y-47152131D01*
X110743390Y-47152131D02*
X110743390Y-46923560D01*
X110743390Y-46923560D02*
X110698152Y-46809274D01*
X110698152Y-46809274D02*
X110652914Y-46752131D01*
X110652914Y-46752131D02*
X110562438Y-46694988D01*
X130254104Y-44205702D02*
X129937437Y-43634274D01*
X129711247Y-44205702D02*
X129711247Y-43005702D01*
X129711247Y-43005702D02*
X130073152Y-43005702D01*
X130073152Y-43005702D02*
X130163628Y-43062845D01*
X130163628Y-43062845D02*
X130208866Y-43119988D01*
X130208866Y-43119988D02*
X130254104Y-43234274D01*
X130254104Y-43234274D02*
X130254104Y-43405702D01*
X130254104Y-43405702D02*
X130208866Y-43519988D01*
X130208866Y-43519988D02*
X130163628Y-43577131D01*
X130163628Y-43577131D02*
X130073152Y-43634274D01*
X130073152Y-43634274D02*
X129711247Y-43634274D01*
X130570771Y-43005702D02*
X131158866Y-43005702D01*
X131158866Y-43005702D02*
X130842199Y-43462845D01*
X130842199Y-43462845D02*
X130977914Y-43462845D01*
X130977914Y-43462845D02*
X131068390Y-43519988D01*
X131068390Y-43519988D02*
X131113628Y-43577131D01*
X131113628Y-43577131D02*
X131158866Y-43691417D01*
X131158866Y-43691417D02*
X131158866Y-43977131D01*
X131158866Y-43977131D02*
X131113628Y-44091417D01*
X131113628Y-44091417D02*
X131068390Y-44148560D01*
X131068390Y-44148560D02*
X130977914Y-44205702D01*
X130977914Y-44205702D02*
X130706485Y-44205702D01*
X130706485Y-44205702D02*
X130616009Y-44148560D01*
X130616009Y-44148560D02*
X130570771Y-44091417D01*
X131746961Y-43005702D02*
X131837438Y-43005702D01*
X131837438Y-43005702D02*
X131927914Y-43062845D01*
X131927914Y-43062845D02*
X131973152Y-43119988D01*
X131973152Y-43119988D02*
X132018390Y-43234274D01*
X132018390Y-43234274D02*
X132063628Y-43462845D01*
X132063628Y-43462845D02*
X132063628Y-43748560D01*
X132063628Y-43748560D02*
X132018390Y-43977131D01*
X132018390Y-43977131D02*
X131973152Y-44091417D01*
X131973152Y-44091417D02*
X131927914Y-44148560D01*
X131927914Y-44148560D02*
X131837438Y-44205702D01*
X131837438Y-44205702D02*
X131746961Y-44205702D01*
X131746961Y-44205702D02*
X131656485Y-44148560D01*
X131656485Y-44148560D02*
X131611247Y-44091417D01*
X131611247Y-44091417D02*
X131566009Y-43977131D01*
X131566009Y-43977131D02*
X131520771Y-43748560D01*
X131520771Y-43748560D02*
X131520771Y-43462845D01*
X131520771Y-43462845D02*
X131566009Y-43234274D01*
X131566009Y-43234274D02*
X131611247Y-43119988D01*
X131611247Y-43119988D02*
X131656485Y-43062845D01*
X131656485Y-43062845D02*
X131746961Y-43005702D01*
X132380295Y-43005702D02*
X132968390Y-43005702D01*
X132968390Y-43005702D02*
X132651723Y-43462845D01*
X132651723Y-43462845D02*
X132787438Y-43462845D01*
X132787438Y-43462845D02*
X132877914Y-43519988D01*
X132877914Y-43519988D02*
X132923152Y-43577131D01*
X132923152Y-43577131D02*
X132968390Y-43691417D01*
X132968390Y-43691417D02*
X132968390Y-43977131D01*
X132968390Y-43977131D02*
X132923152Y-44091417D01*
X132923152Y-44091417D02*
X132877914Y-44148560D01*
X132877914Y-44148560D02*
X132787438Y-44205702D01*
X132787438Y-44205702D02*
X132516009Y-44205702D01*
X132516009Y-44205702D02*
X132425533Y-44148560D01*
X132425533Y-44148560D02*
X132380295Y-44091417D01*
X57610104Y-44966702D02*
X57293437Y-44395274D01*
X57067247Y-44966702D02*
X57067247Y-43766702D01*
X57067247Y-43766702D02*
X57429152Y-43766702D01*
X57429152Y-43766702D02*
X57519628Y-43823845D01*
X57519628Y-43823845D02*
X57564866Y-43880988D01*
X57564866Y-43880988D02*
X57610104Y-43995274D01*
X57610104Y-43995274D02*
X57610104Y-44166702D01*
X57610104Y-44166702D02*
X57564866Y-44280988D01*
X57564866Y-44280988D02*
X57519628Y-44338131D01*
X57519628Y-44338131D02*
X57429152Y-44395274D01*
X57429152Y-44395274D02*
X57067247Y-44395274D01*
X57926771Y-43766702D02*
X58514866Y-43766702D01*
X58514866Y-43766702D02*
X58198199Y-44223845D01*
X58198199Y-44223845D02*
X58333914Y-44223845D01*
X58333914Y-44223845D02*
X58424390Y-44280988D01*
X58424390Y-44280988D02*
X58469628Y-44338131D01*
X58469628Y-44338131D02*
X58514866Y-44452417D01*
X58514866Y-44452417D02*
X58514866Y-44738131D01*
X58514866Y-44738131D02*
X58469628Y-44852417D01*
X58469628Y-44852417D02*
X58424390Y-44909560D01*
X58424390Y-44909560D02*
X58333914Y-44966702D01*
X58333914Y-44966702D02*
X58062485Y-44966702D01*
X58062485Y-44966702D02*
X57972009Y-44909560D01*
X57972009Y-44909560D02*
X57926771Y-44852417D01*
X59419628Y-44966702D02*
X58876771Y-44966702D01*
X59148199Y-44966702D02*
X59148199Y-43766702D01*
X59148199Y-43766702D02*
X59057723Y-43938131D01*
X59057723Y-43938131D02*
X58967247Y-44052417D01*
X58967247Y-44052417D02*
X58876771Y-44109560D01*
X60324390Y-44966702D02*
X59781533Y-44966702D01*
X60052961Y-44966702D02*
X60052961Y-43766702D01*
X60052961Y-43766702D02*
X59962485Y-43938131D01*
X59962485Y-43938131D02*
X59872009Y-44052417D01*
X59872009Y-44052417D02*
X59781533Y-44109560D01*
X57610104Y-48776702D02*
X57293437Y-48205274D01*
X57067247Y-48776702D02*
X57067247Y-47576702D01*
X57067247Y-47576702D02*
X57429152Y-47576702D01*
X57429152Y-47576702D02*
X57519628Y-47633845D01*
X57519628Y-47633845D02*
X57564866Y-47690988D01*
X57564866Y-47690988D02*
X57610104Y-47805274D01*
X57610104Y-47805274D02*
X57610104Y-47976702D01*
X57610104Y-47976702D02*
X57564866Y-48090988D01*
X57564866Y-48090988D02*
X57519628Y-48148131D01*
X57519628Y-48148131D02*
X57429152Y-48205274D01*
X57429152Y-48205274D02*
X57067247Y-48205274D01*
X57926771Y-47576702D02*
X58514866Y-47576702D01*
X58514866Y-47576702D02*
X58198199Y-48033845D01*
X58198199Y-48033845D02*
X58333914Y-48033845D01*
X58333914Y-48033845D02*
X58424390Y-48090988D01*
X58424390Y-48090988D02*
X58469628Y-48148131D01*
X58469628Y-48148131D02*
X58514866Y-48262417D01*
X58514866Y-48262417D02*
X58514866Y-48548131D01*
X58514866Y-48548131D02*
X58469628Y-48662417D01*
X58469628Y-48662417D02*
X58424390Y-48719560D01*
X58424390Y-48719560D02*
X58333914Y-48776702D01*
X58333914Y-48776702D02*
X58062485Y-48776702D01*
X58062485Y-48776702D02*
X57972009Y-48719560D01*
X57972009Y-48719560D02*
X57926771Y-48662417D01*
X59419628Y-48776702D02*
X58876771Y-48776702D01*
X59148199Y-48776702D02*
X59148199Y-47576702D01*
X59148199Y-47576702D02*
X59057723Y-47748131D01*
X59057723Y-47748131D02*
X58967247Y-47862417D01*
X58967247Y-47862417D02*
X58876771Y-47919560D01*
X59736295Y-47576702D02*
X60324390Y-47576702D01*
X60324390Y-47576702D02*
X60007723Y-48033845D01*
X60007723Y-48033845D02*
X60143438Y-48033845D01*
X60143438Y-48033845D02*
X60233914Y-48090988D01*
X60233914Y-48090988D02*
X60279152Y-48148131D01*
X60279152Y-48148131D02*
X60324390Y-48262417D01*
X60324390Y-48262417D02*
X60324390Y-48548131D01*
X60324390Y-48548131D02*
X60279152Y-48662417D01*
X60279152Y-48662417D02*
X60233914Y-48719560D01*
X60233914Y-48719560D02*
X60143438Y-48776702D01*
X60143438Y-48776702D02*
X59872009Y-48776702D01*
X59872009Y-48776702D02*
X59781533Y-48719560D01*
X59781533Y-48719560D02*
X59736295Y-48662417D01*
X57610104Y-58682702D02*
X57293437Y-58111274D01*
X57067247Y-58682702D02*
X57067247Y-57482702D01*
X57067247Y-57482702D02*
X57429152Y-57482702D01*
X57429152Y-57482702D02*
X57519628Y-57539845D01*
X57519628Y-57539845D02*
X57564866Y-57596988D01*
X57564866Y-57596988D02*
X57610104Y-57711274D01*
X57610104Y-57711274D02*
X57610104Y-57882702D01*
X57610104Y-57882702D02*
X57564866Y-57996988D01*
X57564866Y-57996988D02*
X57519628Y-58054131D01*
X57519628Y-58054131D02*
X57429152Y-58111274D01*
X57429152Y-58111274D02*
X57067247Y-58111274D01*
X57926771Y-57482702D02*
X58514866Y-57482702D01*
X58514866Y-57482702D02*
X58198199Y-57939845D01*
X58198199Y-57939845D02*
X58333914Y-57939845D01*
X58333914Y-57939845D02*
X58424390Y-57996988D01*
X58424390Y-57996988D02*
X58469628Y-58054131D01*
X58469628Y-58054131D02*
X58514866Y-58168417D01*
X58514866Y-58168417D02*
X58514866Y-58454131D01*
X58514866Y-58454131D02*
X58469628Y-58568417D01*
X58469628Y-58568417D02*
X58424390Y-58625560D01*
X58424390Y-58625560D02*
X58333914Y-58682702D01*
X58333914Y-58682702D02*
X58062485Y-58682702D01*
X58062485Y-58682702D02*
X57972009Y-58625560D01*
X57972009Y-58625560D02*
X57926771Y-58568417D01*
X59419628Y-58682702D02*
X58876771Y-58682702D01*
X59148199Y-58682702D02*
X59148199Y-57482702D01*
X59148199Y-57482702D02*
X59057723Y-57654131D01*
X59057723Y-57654131D02*
X58967247Y-57768417D01*
X58967247Y-57768417D02*
X58876771Y-57825560D01*
X59962485Y-57996988D02*
X59872009Y-57939845D01*
X59872009Y-57939845D02*
X59826771Y-57882702D01*
X59826771Y-57882702D02*
X59781533Y-57768417D01*
X59781533Y-57768417D02*
X59781533Y-57711274D01*
X59781533Y-57711274D02*
X59826771Y-57596988D01*
X59826771Y-57596988D02*
X59872009Y-57539845D01*
X59872009Y-57539845D02*
X59962485Y-57482702D01*
X59962485Y-57482702D02*
X60143438Y-57482702D01*
X60143438Y-57482702D02*
X60233914Y-57539845D01*
X60233914Y-57539845D02*
X60279152Y-57596988D01*
X60279152Y-57596988D02*
X60324390Y-57711274D01*
X60324390Y-57711274D02*
X60324390Y-57768417D01*
X60324390Y-57768417D02*
X60279152Y-57882702D01*
X60279152Y-57882702D02*
X60233914Y-57939845D01*
X60233914Y-57939845D02*
X60143438Y-57996988D01*
X60143438Y-57996988D02*
X59962485Y-57996988D01*
X59962485Y-57996988D02*
X59872009Y-58054131D01*
X59872009Y-58054131D02*
X59826771Y-58111274D01*
X59826771Y-58111274D02*
X59781533Y-58225560D01*
X59781533Y-58225560D02*
X59781533Y-58454131D01*
X59781533Y-58454131D02*
X59826771Y-58568417D01*
X59826771Y-58568417D02*
X59872009Y-58625560D01*
X59872009Y-58625560D02*
X59962485Y-58682702D01*
X59962485Y-58682702D02*
X60143438Y-58682702D01*
X60143438Y-58682702D02*
X60233914Y-58625560D01*
X60233914Y-58625560D02*
X60279152Y-58568417D01*
X60279152Y-58568417D02*
X60324390Y-58454131D01*
X60324390Y-58454131D02*
X60324390Y-58225560D01*
X60324390Y-58225560D02*
X60279152Y-58111274D01*
X60279152Y-58111274D02*
X60233914Y-58054131D01*
X60233914Y-58054131D02*
X60143438Y-57996988D01*
X38306104Y-77732702D02*
X37989437Y-77161274D01*
X37763247Y-77732702D02*
X37763247Y-76532702D01*
X37763247Y-76532702D02*
X38125152Y-76532702D01*
X38125152Y-76532702D02*
X38215628Y-76589845D01*
X38215628Y-76589845D02*
X38260866Y-76646988D01*
X38260866Y-76646988D02*
X38306104Y-76761274D01*
X38306104Y-76761274D02*
X38306104Y-76932702D01*
X38306104Y-76932702D02*
X38260866Y-77046988D01*
X38260866Y-77046988D02*
X38215628Y-77104131D01*
X38215628Y-77104131D02*
X38125152Y-77161274D01*
X38125152Y-77161274D02*
X37763247Y-77161274D01*
X38622771Y-76532702D02*
X39210866Y-76532702D01*
X39210866Y-76532702D02*
X38894199Y-76989845D01*
X38894199Y-76989845D02*
X39029914Y-76989845D01*
X39029914Y-76989845D02*
X39120390Y-77046988D01*
X39120390Y-77046988D02*
X39165628Y-77104131D01*
X39165628Y-77104131D02*
X39210866Y-77218417D01*
X39210866Y-77218417D02*
X39210866Y-77504131D01*
X39210866Y-77504131D02*
X39165628Y-77618417D01*
X39165628Y-77618417D02*
X39120390Y-77675560D01*
X39120390Y-77675560D02*
X39029914Y-77732702D01*
X39029914Y-77732702D02*
X38758485Y-77732702D01*
X38758485Y-77732702D02*
X38668009Y-77675560D01*
X38668009Y-77675560D02*
X38622771Y-77618417D01*
X39572771Y-76646988D02*
X39618009Y-76589845D01*
X39618009Y-76589845D02*
X39708485Y-76532702D01*
X39708485Y-76532702D02*
X39934676Y-76532702D01*
X39934676Y-76532702D02*
X40025152Y-76589845D01*
X40025152Y-76589845D02*
X40070390Y-76646988D01*
X40070390Y-76646988D02*
X40115628Y-76761274D01*
X40115628Y-76761274D02*
X40115628Y-76875560D01*
X40115628Y-76875560D02*
X40070390Y-77046988D01*
X40070390Y-77046988D02*
X39527533Y-77732702D01*
X39527533Y-77732702D02*
X40115628Y-77732702D01*
X40477533Y-76646988D02*
X40522771Y-76589845D01*
X40522771Y-76589845D02*
X40613247Y-76532702D01*
X40613247Y-76532702D02*
X40839438Y-76532702D01*
X40839438Y-76532702D02*
X40929914Y-76589845D01*
X40929914Y-76589845D02*
X40975152Y-76646988D01*
X40975152Y-76646988D02*
X41020390Y-76761274D01*
X41020390Y-76761274D02*
X41020390Y-76875560D01*
X41020390Y-76875560D02*
X40975152Y-77046988D01*
X40975152Y-77046988D02*
X40432295Y-77732702D01*
X40432295Y-77732702D02*
X41020390Y-77732702D01*
X57610104Y-60714702D02*
X57293437Y-60143274D01*
X57067247Y-60714702D02*
X57067247Y-59514702D01*
X57067247Y-59514702D02*
X57429152Y-59514702D01*
X57429152Y-59514702D02*
X57519628Y-59571845D01*
X57519628Y-59571845D02*
X57564866Y-59628988D01*
X57564866Y-59628988D02*
X57610104Y-59743274D01*
X57610104Y-59743274D02*
X57610104Y-59914702D01*
X57610104Y-59914702D02*
X57564866Y-60028988D01*
X57564866Y-60028988D02*
X57519628Y-60086131D01*
X57519628Y-60086131D02*
X57429152Y-60143274D01*
X57429152Y-60143274D02*
X57067247Y-60143274D01*
X57926771Y-59514702D02*
X58514866Y-59514702D01*
X58514866Y-59514702D02*
X58198199Y-59971845D01*
X58198199Y-59971845D02*
X58333914Y-59971845D01*
X58333914Y-59971845D02*
X58424390Y-60028988D01*
X58424390Y-60028988D02*
X58469628Y-60086131D01*
X58469628Y-60086131D02*
X58514866Y-60200417D01*
X58514866Y-60200417D02*
X58514866Y-60486131D01*
X58514866Y-60486131D02*
X58469628Y-60600417D01*
X58469628Y-60600417D02*
X58424390Y-60657560D01*
X58424390Y-60657560D02*
X58333914Y-60714702D01*
X58333914Y-60714702D02*
X58062485Y-60714702D01*
X58062485Y-60714702D02*
X57972009Y-60657560D01*
X57972009Y-60657560D02*
X57926771Y-60600417D01*
X59419628Y-60714702D02*
X58876771Y-60714702D01*
X59148199Y-60714702D02*
X59148199Y-59514702D01*
X59148199Y-59514702D02*
X59057723Y-59686131D01*
X59057723Y-59686131D02*
X58967247Y-59800417D01*
X58967247Y-59800417D02*
X58876771Y-59857560D01*
X59872009Y-60714702D02*
X60052961Y-60714702D01*
X60052961Y-60714702D02*
X60143438Y-60657560D01*
X60143438Y-60657560D02*
X60188676Y-60600417D01*
X60188676Y-60600417D02*
X60279152Y-60428988D01*
X60279152Y-60428988D02*
X60324390Y-60200417D01*
X60324390Y-60200417D02*
X60324390Y-59743274D01*
X60324390Y-59743274D02*
X60279152Y-59628988D01*
X60279152Y-59628988D02*
X60233914Y-59571845D01*
X60233914Y-59571845D02*
X60143438Y-59514702D01*
X60143438Y-59514702D02*
X59962485Y-59514702D01*
X59962485Y-59514702D02*
X59872009Y-59571845D01*
X59872009Y-59571845D02*
X59826771Y-59628988D01*
X59826771Y-59628988D02*
X59781533Y-59743274D01*
X59781533Y-59743274D02*
X59781533Y-60028988D01*
X59781533Y-60028988D02*
X59826771Y-60143274D01*
X59826771Y-60143274D02*
X59872009Y-60200417D01*
X59872009Y-60200417D02*
X59962485Y-60257560D01*
X59962485Y-60257560D02*
X60143438Y-60257560D01*
X60143438Y-60257560D02*
X60233914Y-60200417D01*
X60233914Y-60200417D02*
X60279152Y-60143274D01*
X60279152Y-60143274D02*
X60324390Y-60028988D01*
X57594104Y-54618702D02*
X57277437Y-54047274D01*
X57051247Y-54618702D02*
X57051247Y-53418702D01*
X57051247Y-53418702D02*
X57413152Y-53418702D01*
X57413152Y-53418702D02*
X57503628Y-53475845D01*
X57503628Y-53475845D02*
X57548866Y-53532988D01*
X57548866Y-53532988D02*
X57594104Y-53647274D01*
X57594104Y-53647274D02*
X57594104Y-53818702D01*
X57594104Y-53818702D02*
X57548866Y-53932988D01*
X57548866Y-53932988D02*
X57503628Y-53990131D01*
X57503628Y-53990131D02*
X57413152Y-54047274D01*
X57413152Y-54047274D02*
X57051247Y-54047274D01*
X57910771Y-53418702D02*
X58498866Y-53418702D01*
X58498866Y-53418702D02*
X58182199Y-53875845D01*
X58182199Y-53875845D02*
X58317914Y-53875845D01*
X58317914Y-53875845D02*
X58408390Y-53932988D01*
X58408390Y-53932988D02*
X58453628Y-53990131D01*
X58453628Y-53990131D02*
X58498866Y-54104417D01*
X58498866Y-54104417D02*
X58498866Y-54390131D01*
X58498866Y-54390131D02*
X58453628Y-54504417D01*
X58453628Y-54504417D02*
X58408390Y-54561560D01*
X58408390Y-54561560D02*
X58317914Y-54618702D01*
X58317914Y-54618702D02*
X58046485Y-54618702D01*
X58046485Y-54618702D02*
X57956009Y-54561560D01*
X57956009Y-54561560D02*
X57910771Y-54504417D01*
X59403628Y-54618702D02*
X58860771Y-54618702D01*
X59132199Y-54618702D02*
X59132199Y-53418702D01*
X59132199Y-53418702D02*
X59041723Y-53590131D01*
X59041723Y-53590131D02*
X58951247Y-53704417D01*
X58951247Y-53704417D02*
X58860771Y-53761560D01*
X60217914Y-53418702D02*
X60036961Y-53418702D01*
X60036961Y-53418702D02*
X59946485Y-53475845D01*
X59946485Y-53475845D02*
X59901247Y-53532988D01*
X59901247Y-53532988D02*
X59810771Y-53704417D01*
X59810771Y-53704417D02*
X59765533Y-53932988D01*
X59765533Y-53932988D02*
X59765533Y-54390131D01*
X59765533Y-54390131D02*
X59810771Y-54504417D01*
X59810771Y-54504417D02*
X59856009Y-54561560D01*
X59856009Y-54561560D02*
X59946485Y-54618702D01*
X59946485Y-54618702D02*
X60127438Y-54618702D01*
X60127438Y-54618702D02*
X60217914Y-54561560D01*
X60217914Y-54561560D02*
X60263152Y-54504417D01*
X60263152Y-54504417D02*
X60308390Y-54390131D01*
X60308390Y-54390131D02*
X60308390Y-54104417D01*
X60308390Y-54104417D02*
X60263152Y-53990131D01*
X60263152Y-53990131D02*
X60217914Y-53932988D01*
X60217914Y-53932988D02*
X60127438Y-53875845D01*
X60127438Y-53875845D02*
X59946485Y-53875845D01*
X59946485Y-53875845D02*
X59856009Y-53932988D01*
X59856009Y-53932988D02*
X59810771Y-53990131D01*
X59810771Y-53990131D02*
X59765533Y-54104417D01*
X125809104Y-44840702D02*
X125492437Y-44269274D01*
X125266247Y-44840702D02*
X125266247Y-43640702D01*
X125266247Y-43640702D02*
X125628152Y-43640702D01*
X125628152Y-43640702D02*
X125718628Y-43697845D01*
X125718628Y-43697845D02*
X125763866Y-43754988D01*
X125763866Y-43754988D02*
X125809104Y-43869274D01*
X125809104Y-43869274D02*
X125809104Y-44040702D01*
X125809104Y-44040702D02*
X125763866Y-44154988D01*
X125763866Y-44154988D02*
X125718628Y-44212131D01*
X125718628Y-44212131D02*
X125628152Y-44269274D01*
X125628152Y-44269274D02*
X125266247Y-44269274D01*
X126125771Y-43640702D02*
X126713866Y-43640702D01*
X126713866Y-43640702D02*
X126397199Y-44097845D01*
X126397199Y-44097845D02*
X126532914Y-44097845D01*
X126532914Y-44097845D02*
X126623390Y-44154988D01*
X126623390Y-44154988D02*
X126668628Y-44212131D01*
X126668628Y-44212131D02*
X126713866Y-44326417D01*
X126713866Y-44326417D02*
X126713866Y-44612131D01*
X126713866Y-44612131D02*
X126668628Y-44726417D01*
X126668628Y-44726417D02*
X126623390Y-44783560D01*
X126623390Y-44783560D02*
X126532914Y-44840702D01*
X126532914Y-44840702D02*
X126261485Y-44840702D01*
X126261485Y-44840702D02*
X126171009Y-44783560D01*
X126171009Y-44783560D02*
X126125771Y-44726417D01*
X127301961Y-43640702D02*
X127392438Y-43640702D01*
X127392438Y-43640702D02*
X127482914Y-43697845D01*
X127482914Y-43697845D02*
X127528152Y-43754988D01*
X127528152Y-43754988D02*
X127573390Y-43869274D01*
X127573390Y-43869274D02*
X127618628Y-44097845D01*
X127618628Y-44097845D02*
X127618628Y-44383560D01*
X127618628Y-44383560D02*
X127573390Y-44612131D01*
X127573390Y-44612131D02*
X127528152Y-44726417D01*
X127528152Y-44726417D02*
X127482914Y-44783560D01*
X127482914Y-44783560D02*
X127392438Y-44840702D01*
X127392438Y-44840702D02*
X127301961Y-44840702D01*
X127301961Y-44840702D02*
X127211485Y-44783560D01*
X127211485Y-44783560D02*
X127166247Y-44726417D01*
X127166247Y-44726417D02*
X127121009Y-44612131D01*
X127121009Y-44612131D02*
X127075771Y-44383560D01*
X127075771Y-44383560D02*
X127075771Y-44097845D01*
X127075771Y-44097845D02*
X127121009Y-43869274D01*
X127121009Y-43869274D02*
X127166247Y-43754988D01*
X127166247Y-43754988D02*
X127211485Y-43697845D01*
X127211485Y-43697845D02*
X127301961Y-43640702D01*
X128432914Y-44040702D02*
X128432914Y-44840702D01*
X128206723Y-43583560D02*
X127980533Y-44440702D01*
X127980533Y-44440702D02*
X128568628Y-44440702D01*
D15*
X48205200Y-65194400D02*
X48430200Y-65194400D01*
X48205200Y-65419400D02*
X48205200Y-65194400D01*
X48205200Y-72414400D02*
X48205200Y-72189400D01*
X48430200Y-72414400D02*
X48205200Y-72414400D01*
X55200200Y-65194400D02*
X55425200Y-65194400D01*
X55425200Y-65194400D02*
X55425200Y-65419400D01*
X55425200Y-72189400D02*
X55425200Y-72414400D01*
X55425200Y-72414400D02*
X55200200Y-72414400D01*
X47565200Y-65414400D02*
X47225200Y-64944400D01*
X47905200Y-64944400D01*
X47565200Y-65414400D01*
G36*
X47565200Y-65414400D02*
G01*
X47225200Y-64944400D01*
X47905200Y-64944400D01*
X47565200Y-65414400D01*
G37*
X64497200Y-41824400D02*
X85077200Y-41824400D01*
X64497200Y-50944400D02*
X64497200Y-41824400D01*
X65797200Y-43134400D02*
X83777200Y-43134400D01*
X65797200Y-49634400D02*
X65797200Y-43134400D01*
X69207200Y-52334400D02*
X70207200Y-52334400D01*
X69707200Y-51334400D02*
X69207200Y-52334400D01*
X70207200Y-52334400D02*
X69707200Y-51334400D01*
X72737200Y-49634400D02*
X65797200Y-49634400D01*
X72737200Y-50944400D02*
X72737200Y-49634400D01*
X76837200Y-49634400D02*
X76837200Y-50944400D01*
X83777200Y-43134400D02*
X83777200Y-49634400D01*
X83777200Y-49634400D02*
X76837200Y-49634400D01*
X85077200Y-41824400D02*
X85077200Y-50944400D01*
X85077200Y-50944400D02*
X64497200Y-50944400D01*
X54636136Y-51305400D02*
X55090264Y-51305400D01*
X54636136Y-52775400D02*
X55090264Y-52775400D01*
X44457200Y-43244400D02*
X44457200Y-45594400D01*
X44457200Y-50064400D02*
X44457200Y-47714400D01*
X50212763Y-43244400D02*
X44457200Y-43244400D01*
X50212763Y-50064400D02*
X44457200Y-50064400D01*
X51277200Y-44308837D02*
X50212763Y-43244400D01*
X51277200Y-44308837D02*
X51277200Y-45594400D01*
X51277200Y-48999963D02*
X50212763Y-50064400D01*
X51277200Y-48999963D02*
X51277200Y-47714400D01*
X43644264Y-50543400D02*
X43190136Y-50543400D01*
X43644264Y-52013400D02*
X43190136Y-52013400D01*
X117755136Y-46479400D02*
X118209264Y-46479400D01*
X117755136Y-47949400D02*
X118209264Y-47949400D01*
X46508200Y-75020148D02*
X46508200Y-75542652D01*
X47978200Y-75020148D02*
X47978200Y-75542652D01*
X54620136Y-45590400D02*
X55074264Y-45590400D01*
X54620136Y-47060400D02*
X55074264Y-47060400D01*
X54620136Y-55369400D02*
X55074264Y-55369400D01*
X54620136Y-56839400D02*
X55074264Y-56839400D01*
X104420136Y-48384400D02*
X104874264Y-48384400D01*
X104420136Y-49854400D02*
X104874264Y-49854400D01*
X57430200Y-72353148D02*
X57430200Y-72875652D01*
X58900200Y-72353148D02*
X58900200Y-72875652D01*
X145695200Y-48892336D02*
X145695200Y-49346464D01*
X147165200Y-48892336D02*
X147165200Y-49346464D01*
X122200136Y-45844400D02*
X122654264Y-45844400D01*
X122200136Y-47314400D02*
X122654264Y-47314400D01*
X99975136Y-49019400D02*
X100429264Y-49019400D01*
X99975136Y-50489400D02*
X100429264Y-50489400D01*
X54620136Y-49400400D02*
X55074264Y-49400400D01*
X54620136Y-50870400D02*
X55074264Y-50870400D01*
X43714200Y-65509652D02*
X43714200Y-64987148D01*
X45184200Y-65509652D02*
X45184200Y-64987148D01*
X135535136Y-43939400D02*
X135989264Y-43939400D01*
X135535136Y-45409400D02*
X135989264Y-45409400D01*
X113310136Y-47114400D02*
X113764264Y-47114400D01*
X113310136Y-48584400D02*
X113764264Y-48584400D01*
X54636136Y-61465400D02*
X55090264Y-61465400D01*
X54636136Y-62935400D02*
X55090264Y-62935400D01*
X108865136Y-47749400D02*
X109319264Y-47749400D01*
X108865136Y-49219400D02*
X109319264Y-49219400D01*
X131090136Y-44574400D02*
X131544264Y-44574400D01*
X131090136Y-46044400D02*
X131544264Y-46044400D01*
X54620136Y-43685400D02*
X55074264Y-43685400D01*
X54620136Y-45155400D02*
X55074264Y-45155400D01*
X54620136Y-47495400D02*
X55074264Y-47495400D01*
X54620136Y-48965400D02*
X55074264Y-48965400D01*
X54636136Y-57401400D02*
X55090264Y-57401400D01*
X54636136Y-58871400D02*
X55090264Y-58871400D01*
X43676264Y-76451400D02*
X43222136Y-76451400D01*
X43676264Y-77921400D02*
X43222136Y-77921400D01*
X54636136Y-59433400D02*
X55090264Y-59433400D01*
X54636136Y-60903400D02*
X55090264Y-60903400D01*
X54620136Y-53337400D02*
X55074264Y-53337400D01*
X54620136Y-54807400D02*
X55074264Y-54807400D01*
X126645136Y-45209400D02*
X127099264Y-45209400D01*
X126645136Y-46679400D02*
X127099264Y-46679400D01*
%LPC*%
D16*
X39827200Y-53654400D03*
D17*
X42367200Y-53654400D03*
D16*
X39827200Y-68654400D03*
D17*
X42367200Y-68654400D03*
D18*
X93867200Y-75654400D03*
D19*
X93867200Y-73114400D03*
X93867200Y-70574400D03*
X93867200Y-68034400D03*
X93867200Y-65494400D03*
X93867200Y-62954400D03*
X93867200Y-60414400D03*
X93867200Y-57874400D03*
X93867200Y-55334400D03*
X93867200Y-52794400D03*
X101487200Y-52794400D03*
X101487200Y-55334400D03*
X101487200Y-57874400D03*
X101487200Y-60414400D03*
X101487200Y-62954400D03*
X101487200Y-65494400D03*
X101487200Y-68034400D03*
X101487200Y-70574400D03*
X101487200Y-73114400D03*
X101487200Y-75654400D03*
D18*
X62367200Y-75654400D03*
D19*
X62367200Y-73114400D03*
X62367200Y-70574400D03*
X62367200Y-68034400D03*
X62367200Y-65494400D03*
X62367200Y-62954400D03*
X62367200Y-60414400D03*
X62367200Y-57874400D03*
X62367200Y-55334400D03*
X62367200Y-52794400D03*
X69987200Y-52794400D03*
X69987200Y-55334400D03*
X69987200Y-57874400D03*
X69987200Y-60414400D03*
X69987200Y-62954400D03*
X69987200Y-65494400D03*
X69987200Y-68034400D03*
X69987200Y-70574400D03*
X69987200Y-73114400D03*
X69987200Y-75654400D03*
D16*
X39827200Y-59654400D03*
D17*
X42367200Y-59654400D03*
D18*
X83367200Y-75654400D03*
D19*
X83367200Y-73114400D03*
X83367200Y-70574400D03*
X83367200Y-68034400D03*
X83367200Y-65494400D03*
X83367200Y-62954400D03*
X83367200Y-60414400D03*
X83367200Y-57874400D03*
X83367200Y-55334400D03*
X83367200Y-52794400D03*
X90987200Y-52794400D03*
X90987200Y-55334400D03*
X90987200Y-57874400D03*
X90987200Y-60414400D03*
X90987200Y-62954400D03*
X90987200Y-65494400D03*
X90987200Y-68034400D03*
X90987200Y-70574400D03*
X90987200Y-73114400D03*
X90987200Y-75654400D03*
D18*
X125367200Y-75654400D03*
D19*
X125367200Y-73114400D03*
X125367200Y-70574400D03*
X125367200Y-68034400D03*
X125367200Y-65494400D03*
X125367200Y-62954400D03*
X125367200Y-60414400D03*
X125367200Y-57874400D03*
X125367200Y-55334400D03*
X125367200Y-52794400D03*
X132987200Y-52794400D03*
X132987200Y-55334400D03*
X132987200Y-57874400D03*
X132987200Y-60414400D03*
X132987200Y-62954400D03*
X132987200Y-65494400D03*
X132987200Y-68034400D03*
X132987200Y-70574400D03*
X132987200Y-73114400D03*
X132987200Y-75654400D03*
D20*
X47640200Y-65804400D03*
X47640200Y-66204400D03*
X47640200Y-66604400D03*
X47640200Y-67004400D03*
X47640200Y-67404400D03*
X47640200Y-67804400D03*
X47640200Y-68204400D03*
X47640200Y-68604400D03*
X47640200Y-69004400D03*
X47640200Y-69404400D03*
X47640200Y-69804400D03*
X47640200Y-70204400D03*
X47640200Y-70604400D03*
X47640200Y-71004400D03*
X47640200Y-71404400D03*
X47640200Y-71804400D03*
D21*
X48815200Y-72979400D03*
X49215200Y-72979400D03*
X49615200Y-72979400D03*
X50015200Y-72979400D03*
X50415200Y-72979400D03*
X50815200Y-72979400D03*
X51215200Y-72979400D03*
X51615200Y-72979400D03*
X52015200Y-72979400D03*
X52415200Y-72979400D03*
X52815200Y-72979400D03*
X53215200Y-72979400D03*
X53615200Y-72979400D03*
X54015200Y-72979400D03*
X54415200Y-72979400D03*
X54815200Y-72979400D03*
D20*
X55990200Y-71804400D03*
X55990200Y-71404400D03*
X55990200Y-71004400D03*
X55990200Y-70604400D03*
X55990200Y-70204400D03*
X55990200Y-69804400D03*
X55990200Y-69404400D03*
X55990200Y-69004400D03*
X55990200Y-68604400D03*
X55990200Y-68204400D03*
X55990200Y-67804400D03*
X55990200Y-67404400D03*
X55990200Y-67004400D03*
X55990200Y-66604400D03*
X55990200Y-66204400D03*
X55990200Y-65804400D03*
D21*
X54815200Y-64629400D03*
X54415200Y-64629400D03*
X54015200Y-64629400D03*
X53615200Y-64629400D03*
X53215200Y-64629400D03*
X52815200Y-64629400D03*
X52415200Y-64629400D03*
X52015200Y-64629400D03*
X51615200Y-64629400D03*
X51215200Y-64629400D03*
X50815200Y-64629400D03*
X50415200Y-64629400D03*
X50015200Y-64629400D03*
X49615200Y-64629400D03*
X49215200Y-64629400D03*
X48815200Y-64629400D03*
D22*
X69707200Y-47654400D03*
D23*
X69707200Y-45114400D03*
X72247200Y-47654400D03*
X72247200Y-45114400D03*
X74787200Y-47654400D03*
X74787200Y-45114400D03*
X77327200Y-47654400D03*
X77327200Y-45114400D03*
X79867200Y-47654400D03*
X79867200Y-45114400D03*
D24*
X53863200Y-52040400D03*
X55863200Y-52040400D03*
D25*
X50404700Y-46654400D03*
X45329700Y-46654400D03*
D26*
X44417200Y-51278400D03*
X42417200Y-51278400D03*
D24*
X116982200Y-47214400D03*
X118982200Y-47214400D03*
D27*
X47243200Y-74243900D03*
X47243200Y-76318900D03*
D24*
X53847200Y-46325400D03*
X55847200Y-46325400D03*
X53847200Y-56104400D03*
X55847200Y-56104400D03*
D28*
X228367200Y-46154400D03*
D24*
X103647200Y-49119400D03*
X105647200Y-49119400D03*
D27*
X58165200Y-71576900D03*
X58165200Y-73651900D03*
D29*
X146430200Y-48119400D03*
X146430200Y-50119400D03*
D24*
X121427200Y-46579400D03*
X123427200Y-46579400D03*
X99202200Y-49754400D03*
X101202200Y-49754400D03*
X53847200Y-50135400D03*
X55847200Y-50135400D03*
D30*
X44449200Y-66285900D03*
X44449200Y-64210900D03*
D24*
X134762200Y-44674400D03*
X136762200Y-44674400D03*
X112537200Y-47849400D03*
X114537200Y-47849400D03*
D18*
X188367200Y-75654400D03*
D19*
X188367200Y-73114400D03*
X188367200Y-70574400D03*
X188367200Y-68034400D03*
X188367200Y-65494400D03*
X188367200Y-62954400D03*
X188367200Y-60414400D03*
X188367200Y-57874400D03*
X188367200Y-55334400D03*
X188367200Y-52794400D03*
X195987200Y-52794400D03*
X195987200Y-55334400D03*
X195987200Y-57874400D03*
X195987200Y-60414400D03*
X195987200Y-62954400D03*
X195987200Y-65494400D03*
X195987200Y-68034400D03*
X195987200Y-70574400D03*
X195987200Y-73114400D03*
X195987200Y-75654400D03*
D18*
X198867200Y-75654400D03*
D19*
X198867200Y-73114400D03*
X198867200Y-70574400D03*
X198867200Y-68034400D03*
X198867200Y-65494400D03*
X198867200Y-62954400D03*
X198867200Y-60414400D03*
X198867200Y-57874400D03*
X198867200Y-55334400D03*
X198867200Y-52794400D03*
X206487200Y-52794400D03*
X206487200Y-55334400D03*
X206487200Y-57874400D03*
X206487200Y-60414400D03*
X206487200Y-62954400D03*
X206487200Y-65494400D03*
X206487200Y-68034400D03*
X206487200Y-70574400D03*
X206487200Y-73114400D03*
X206487200Y-75654400D03*
D18*
X72867200Y-75654400D03*
D19*
X72867200Y-73114400D03*
X72867200Y-70574400D03*
X72867200Y-68034400D03*
X72867200Y-65494400D03*
X72867200Y-62954400D03*
X72867200Y-60414400D03*
X72867200Y-57874400D03*
X72867200Y-55334400D03*
X72867200Y-52794400D03*
X80487200Y-52794400D03*
X80487200Y-55334400D03*
X80487200Y-57874400D03*
X80487200Y-60414400D03*
X80487200Y-62954400D03*
X80487200Y-65494400D03*
X80487200Y-68034400D03*
X80487200Y-70574400D03*
X80487200Y-73114400D03*
X80487200Y-75654400D03*
D18*
X209367200Y-75654400D03*
D19*
X209367200Y-73114400D03*
X209367200Y-70574400D03*
X209367200Y-68034400D03*
X209367200Y-65494400D03*
X209367200Y-62954400D03*
X209367200Y-60414400D03*
X209367200Y-57874400D03*
X209367200Y-55334400D03*
X209367200Y-52794400D03*
X216987200Y-52794400D03*
X216987200Y-55334400D03*
X216987200Y-57874400D03*
X216987200Y-60414400D03*
X216987200Y-62954400D03*
X216987200Y-65494400D03*
X216987200Y-68034400D03*
X216987200Y-70574400D03*
X216987200Y-73114400D03*
X216987200Y-75654400D03*
D18*
X167367200Y-75654400D03*
D19*
X167367200Y-73114400D03*
X167367200Y-70574400D03*
X167367200Y-68034400D03*
X167367200Y-65494400D03*
X167367200Y-62954400D03*
X167367200Y-60414400D03*
X167367200Y-57874400D03*
X167367200Y-55334400D03*
X167367200Y-52794400D03*
X174987200Y-52794400D03*
X174987200Y-55334400D03*
X174987200Y-57874400D03*
X174987200Y-60414400D03*
X174987200Y-62954400D03*
X174987200Y-65494400D03*
X174987200Y-68034400D03*
X174987200Y-70574400D03*
X174987200Y-73114400D03*
X174987200Y-75654400D03*
D18*
X114867200Y-75654400D03*
D19*
X114867200Y-73114400D03*
X114867200Y-70574400D03*
X114867200Y-68034400D03*
X114867200Y-65494400D03*
X114867200Y-62954400D03*
X114867200Y-60414400D03*
X114867200Y-57874400D03*
X114867200Y-55334400D03*
X114867200Y-52794400D03*
X122487200Y-52794400D03*
X122487200Y-55334400D03*
X122487200Y-57874400D03*
X122487200Y-60414400D03*
X122487200Y-62954400D03*
X122487200Y-65494400D03*
X122487200Y-68034400D03*
X122487200Y-70574400D03*
X122487200Y-73114400D03*
X122487200Y-75654400D03*
D18*
X135867200Y-75654400D03*
D19*
X135867200Y-73114400D03*
X135867200Y-70574400D03*
X135867200Y-68034400D03*
X135867200Y-65494400D03*
X135867200Y-62954400D03*
X135867200Y-60414400D03*
X135867200Y-57874400D03*
X135867200Y-55334400D03*
X135867200Y-52794400D03*
X143487200Y-52794400D03*
X143487200Y-55334400D03*
X143487200Y-57874400D03*
X143487200Y-60414400D03*
X143487200Y-62954400D03*
X143487200Y-65494400D03*
X143487200Y-68034400D03*
X143487200Y-70574400D03*
X143487200Y-73114400D03*
X143487200Y-75654400D03*
D18*
X219867200Y-75654400D03*
D19*
X219867200Y-73114400D03*
X219867200Y-70574400D03*
X219867200Y-68034400D03*
X219867200Y-65494400D03*
X219867200Y-62954400D03*
X219867200Y-60414400D03*
X219867200Y-57874400D03*
X219867200Y-55334400D03*
X219867200Y-52794400D03*
X227487200Y-52794400D03*
X227487200Y-55334400D03*
X227487200Y-57874400D03*
X227487200Y-60414400D03*
X227487200Y-62954400D03*
X227487200Y-65494400D03*
X227487200Y-68034400D03*
X227487200Y-70574400D03*
X227487200Y-73114400D03*
X227487200Y-75654400D03*
D16*
X39827200Y-65654400D03*
D17*
X42367200Y-65654400D03*
D16*
X39827200Y-62654400D03*
D17*
X42367200Y-62654400D03*
D18*
X156867200Y-75654400D03*
D19*
X156867200Y-73114400D03*
X156867200Y-70574400D03*
X156867200Y-68034400D03*
X156867200Y-65494400D03*
X156867200Y-62954400D03*
X156867200Y-60414400D03*
X156867200Y-57874400D03*
X156867200Y-55334400D03*
X156867200Y-52794400D03*
X164487200Y-52794400D03*
X164487200Y-55334400D03*
X164487200Y-57874400D03*
X164487200Y-60414400D03*
X164487200Y-62954400D03*
X164487200Y-65494400D03*
X164487200Y-68034400D03*
X164487200Y-70574400D03*
X164487200Y-73114400D03*
X164487200Y-75654400D03*
D18*
X104367200Y-75654400D03*
D19*
X104367200Y-73114400D03*
X104367200Y-70574400D03*
X104367200Y-68034400D03*
X104367200Y-65494400D03*
X104367200Y-62954400D03*
X104367200Y-60414400D03*
X104367200Y-57874400D03*
X104367200Y-55334400D03*
X104367200Y-52794400D03*
X111987200Y-52794400D03*
X111987200Y-55334400D03*
X111987200Y-57874400D03*
X111987200Y-60414400D03*
X111987200Y-62954400D03*
X111987200Y-65494400D03*
X111987200Y-68034400D03*
X111987200Y-70574400D03*
X111987200Y-73114400D03*
X111987200Y-75654400D03*
D18*
X146367200Y-75654400D03*
D19*
X146367200Y-73114400D03*
X146367200Y-70574400D03*
X146367200Y-68034400D03*
X146367200Y-65494400D03*
X146367200Y-62954400D03*
X146367200Y-60414400D03*
X146367200Y-57874400D03*
X146367200Y-55334400D03*
X146367200Y-52794400D03*
X153987200Y-52794400D03*
X153987200Y-55334400D03*
X153987200Y-57874400D03*
X153987200Y-60414400D03*
X153987200Y-62954400D03*
X153987200Y-65494400D03*
X153987200Y-68034400D03*
X153987200Y-70574400D03*
X153987200Y-73114400D03*
X153987200Y-75654400D03*
D16*
X39827200Y-71654400D03*
D17*
X42367200Y-71654400D03*
D18*
X177867200Y-75654400D03*
D19*
X177867200Y-73114400D03*
X177867200Y-70574400D03*
X177867200Y-68034400D03*
X177867200Y-65494400D03*
X177867200Y-62954400D03*
X177867200Y-60414400D03*
X177867200Y-57874400D03*
X177867200Y-55334400D03*
X177867200Y-52794400D03*
X185487200Y-52794400D03*
X185487200Y-55334400D03*
X185487200Y-57874400D03*
X185487200Y-60414400D03*
X185487200Y-62954400D03*
X185487200Y-65494400D03*
X185487200Y-68034400D03*
X185487200Y-70574400D03*
X185487200Y-73114400D03*
X185487200Y-75654400D03*
D16*
X39827200Y-56654400D03*
D17*
X42367200Y-56654400D03*
D16*
X39827200Y-74654400D03*
D17*
X42367200Y-74654400D03*
D24*
X53863200Y-62200400D03*
X55863200Y-62200400D03*
X108092200Y-48484400D03*
X110092200Y-48484400D03*
X130317200Y-45309400D03*
X132317200Y-45309400D03*
D28*
X37367200Y-46154400D03*
D24*
X53847200Y-44420400D03*
X55847200Y-44420400D03*
X53847200Y-48230400D03*
X55847200Y-48230400D03*
X53863200Y-58136400D03*
X55863200Y-58136400D03*
D26*
X44449200Y-77186400D03*
X42449200Y-77186400D03*
D24*
X53863200Y-60168400D03*
X55863200Y-60168400D03*
X53847200Y-54072400D03*
X55847200Y-54072400D03*
X125872200Y-45944400D03*
X127872200Y-45944400D03*
%LPD*%
M02*
