%TF.GenerationSoftware,KiCad,Pcbnew,9.0.5*%
%TF.CreationDate,2025-10-23T02:31:42+02:00*%
%TF.ProjectId,display-board,64697370-6c61-4792-9d62-6f6172642e6b,1.0a*%
%TF.SameCoordinates,Original*%
%TF.FileFunction,Drillmap*%
%TF.FilePolarity,Positive*%
%FSLAX45Y45*%
G04 Gerber Fmt 4.5, Leading zero omitted, Abs format (unit mm)*
G04 Created by KiCad (PCBNEW 9.0.5) date 2025-10-23 02:31:42*
%MOMM*%
%LPD*%
G01*
G04 APERTURE LIST*
%ADD10C,0.050000*%
%ADD11C,0.200000*%
G04 APERTURE END LIST*
D10*
X3286720Y-4165440D02*
X23286720Y-4165440D01*
X23286720Y-8016240D01*
X3286720Y-8016240D01*
X3286720Y-4165440D01*
D11*
X3544997Y-8330224D02*
X3544997Y-8130224D01*
X3544997Y-8130224D02*
X3592616Y-8130224D01*
X3592616Y-8130224D02*
X3621187Y-8139748D01*
X3621187Y-8139748D02*
X3640235Y-8158795D01*
X3640235Y-8158795D02*
X3649759Y-8177843D01*
X3649759Y-8177843D02*
X3659282Y-8215938D01*
X3659282Y-8215938D02*
X3659282Y-8244509D01*
X3659282Y-8244509D02*
X3649759Y-8282605D01*
X3649759Y-8282605D02*
X3640235Y-8301652D01*
X3640235Y-8301652D02*
X3621187Y-8320700D01*
X3621187Y-8320700D02*
X3592616Y-8330224D01*
X3592616Y-8330224D02*
X3544997Y-8330224D01*
X3744997Y-8330224D02*
X3744997Y-8196890D01*
X3744997Y-8234986D02*
X3754521Y-8215938D01*
X3754521Y-8215938D02*
X3764044Y-8206414D01*
X3764044Y-8206414D02*
X3783092Y-8196890D01*
X3783092Y-8196890D02*
X3802140Y-8196890D01*
X3868806Y-8330224D02*
X3868806Y-8196890D01*
X3868806Y-8130224D02*
X3859282Y-8139748D01*
X3859282Y-8139748D02*
X3868806Y-8149271D01*
X3868806Y-8149271D02*
X3878330Y-8139748D01*
X3878330Y-8139748D02*
X3868806Y-8130224D01*
X3868806Y-8130224D02*
X3868806Y-8149271D01*
X3992616Y-8330224D02*
X3973568Y-8320700D01*
X3973568Y-8320700D02*
X3964044Y-8301652D01*
X3964044Y-8301652D02*
X3964044Y-8130224D01*
X4097378Y-8330224D02*
X4078330Y-8320700D01*
X4078330Y-8320700D02*
X4068806Y-8301652D01*
X4068806Y-8301652D02*
X4068806Y-8130224D01*
X4325949Y-8330224D02*
X4325949Y-8130224D01*
X4325949Y-8130224D02*
X4392616Y-8273081D01*
X4392616Y-8273081D02*
X4459283Y-8130224D01*
X4459283Y-8130224D02*
X4459283Y-8330224D01*
X4640235Y-8330224D02*
X4640235Y-8225462D01*
X4640235Y-8225462D02*
X4630711Y-8206414D01*
X4630711Y-8206414D02*
X4611664Y-8196890D01*
X4611664Y-8196890D02*
X4573568Y-8196890D01*
X4573568Y-8196890D02*
X4554521Y-8206414D01*
X4640235Y-8320700D02*
X4621187Y-8330224D01*
X4621187Y-8330224D02*
X4573568Y-8330224D01*
X4573568Y-8330224D02*
X4554521Y-8320700D01*
X4554521Y-8320700D02*
X4544997Y-8301652D01*
X4544997Y-8301652D02*
X4544997Y-8282605D01*
X4544997Y-8282605D02*
X4554521Y-8263557D01*
X4554521Y-8263557D02*
X4573568Y-8254033D01*
X4573568Y-8254033D02*
X4621187Y-8254033D01*
X4621187Y-8254033D02*
X4640235Y-8244509D01*
X4735473Y-8196890D02*
X4735473Y-8396890D01*
X4735473Y-8206414D02*
X4754521Y-8196890D01*
X4754521Y-8196890D02*
X4792616Y-8196890D01*
X4792616Y-8196890D02*
X4811664Y-8206414D01*
X4811664Y-8206414D02*
X4821187Y-8215938D01*
X4821187Y-8215938D02*
X4830711Y-8234986D01*
X4830711Y-8234986D02*
X4830711Y-8292128D01*
X4830711Y-8292128D02*
X4821187Y-8311176D01*
X4821187Y-8311176D02*
X4811664Y-8320700D01*
X4811664Y-8320700D02*
X4792616Y-8330224D01*
X4792616Y-8330224D02*
X4754521Y-8330224D01*
X4754521Y-8330224D02*
X4735473Y-8320700D01*
X4916425Y-8311176D02*
X4925949Y-8320700D01*
X4925949Y-8320700D02*
X4916425Y-8330224D01*
X4916425Y-8330224D02*
X4906902Y-8320700D01*
X4906902Y-8320700D02*
X4916425Y-8311176D01*
X4916425Y-8311176D02*
X4916425Y-8330224D01*
X4916425Y-8206414D02*
X4925949Y-8215938D01*
X4925949Y-8215938D02*
X4916425Y-8225462D01*
X4916425Y-8225462D02*
X4906902Y-8215938D01*
X4906902Y-8215938D02*
X4916425Y-8206414D01*
X4916425Y-8206414D02*
X4916425Y-8225462D01*
M02*
