G04 #@! TF.GenerationSoftware,KiCad,Pcbnew,9.0.5*
G04 #@! TF.CreationDate,2025-10-23T02:31:39+02:00*
G04 #@! TF.ProjectId,display-board,64697370-6c61-4792-9d62-6f6172642e6b,1.0a*
G04 #@! TF.SameCoordinates,Original*
G04 #@! TF.FileFunction,Soldermask,Bot*
G04 #@! TF.FilePolarity,Negative*
%FSLAX46Y46*%
G04 Gerber Fmt 4.6, Leading zero omitted, Abs format (unit mm)*
G04 Created by KiCad (PCBNEW 9.0.5) date 2025-10-23 02:31:39*
%MOMM*%
%LPD*%
G01*
G04 APERTURE LIST*
G04 Aperture macros list*
%AMRoundRect*
0 Rectangle with rounded corners*
0 $1 Rounding radius*
0 $2 $3 $4 $5 $6 $7 $8 $9 X,Y pos of 4 corners*
0 Add a 4 corners polygon primitive as box body*
4,1,4,$2,$3,$4,$5,$6,$7,$8,$9,$2,$3,0*
0 Add four circle primitives for the rounded corners*
1,1,$1+$1,$2,$3*
1,1,$1+$1,$4,$5*
1,1,$1+$1,$6,$7*
1,1,$1+$1,$8,$9*
0 Add four rect primitives between the rounded corners*
20,1,$1+$1,$2,$3,$4,$5,0*
20,1,$1+$1,$4,$5,$6,$7,0*
20,1,$1+$1,$6,$7,$8,$9,0*
20,1,$1+$1,$8,$9,$2,$3,0*%
G04 Aperture macros list end*
%ADD10RoundRect,0.250000X-0.500000X0.750000X-0.500000X-0.750000X0.500000X-0.750000X0.500000X0.750000X0*%
%ADD11R,1.800000X1.800000*%
%ADD12C,1.800000*%
%ADD13R,1.850000X1.850000*%
%ADD14C,1.850000*%
%ADD15RoundRect,0.250000X0.600000X-0.600000X0.600000X0.600000X-0.600000X0.600000X-0.600000X-0.600000X0*%
%ADD16C,1.700000*%
%ADD17C,6.400000*%
G04 APERTURE END LIST*
D10*
X50367200Y-62004400D03*
X50367200Y-76304400D03*
X55367200Y-62004400D03*
X55367200Y-76304400D03*
X50367200Y-45004400D03*
X50367200Y-59304400D03*
X55367200Y-45004400D03*
X55367200Y-59304400D03*
D11*
X39827200Y-53654400D03*
D12*
X42367200Y-53654400D03*
D11*
X39827200Y-68654400D03*
D12*
X42367200Y-68654400D03*
D13*
X93867200Y-75654400D03*
D14*
X93867200Y-73114400D03*
X93867200Y-70574400D03*
X93867200Y-68034400D03*
X93867200Y-65494400D03*
X93867200Y-62954400D03*
X93867200Y-60414400D03*
X93867200Y-57874400D03*
X93867200Y-55334400D03*
X93867200Y-52794400D03*
X101487200Y-52794400D03*
X101487200Y-55334400D03*
X101487200Y-57874400D03*
X101487200Y-60414400D03*
X101487200Y-62954400D03*
X101487200Y-65494400D03*
X101487200Y-68034400D03*
X101487200Y-70574400D03*
X101487200Y-73114400D03*
X101487200Y-75654400D03*
D13*
X62367200Y-75654400D03*
D14*
X62367200Y-73114400D03*
X62367200Y-70574400D03*
X62367200Y-68034400D03*
X62367200Y-65494400D03*
X62367200Y-62954400D03*
X62367200Y-60414400D03*
X62367200Y-57874400D03*
X62367200Y-55334400D03*
X62367200Y-52794400D03*
X69987200Y-52794400D03*
X69987200Y-55334400D03*
X69987200Y-57874400D03*
X69987200Y-60414400D03*
X69987200Y-62954400D03*
X69987200Y-65494400D03*
X69987200Y-68034400D03*
X69987200Y-70574400D03*
X69987200Y-73114400D03*
X69987200Y-75654400D03*
D11*
X39827200Y-59654400D03*
D12*
X42367200Y-59654400D03*
D13*
X83367200Y-75654400D03*
D14*
X83367200Y-73114400D03*
X83367200Y-70574400D03*
X83367200Y-68034400D03*
X83367200Y-65494400D03*
X83367200Y-62954400D03*
X83367200Y-60414400D03*
X83367200Y-57874400D03*
X83367200Y-55334400D03*
X83367200Y-52794400D03*
X90987200Y-52794400D03*
X90987200Y-55334400D03*
X90987200Y-57874400D03*
X90987200Y-60414400D03*
X90987200Y-62954400D03*
X90987200Y-65494400D03*
X90987200Y-68034400D03*
X90987200Y-70574400D03*
X90987200Y-73114400D03*
X90987200Y-75654400D03*
D13*
X125367200Y-75654400D03*
D14*
X125367200Y-73114400D03*
X125367200Y-70574400D03*
X125367200Y-68034400D03*
X125367200Y-65494400D03*
X125367200Y-62954400D03*
X125367200Y-60414400D03*
X125367200Y-57874400D03*
X125367200Y-55334400D03*
X125367200Y-52794400D03*
X132987200Y-52794400D03*
X132987200Y-55334400D03*
X132987200Y-57874400D03*
X132987200Y-60414400D03*
X132987200Y-62954400D03*
X132987200Y-65494400D03*
X132987200Y-68034400D03*
X132987200Y-70574400D03*
X132987200Y-73114400D03*
X132987200Y-75654400D03*
D15*
X69707200Y-47654400D03*
D16*
X69707200Y-45114400D03*
X72247200Y-47654400D03*
X72247200Y-45114400D03*
X74787200Y-47654400D03*
X74787200Y-45114400D03*
X77327200Y-47654400D03*
X77327200Y-45114400D03*
X79867200Y-47654400D03*
X79867200Y-45114400D03*
D17*
X228367200Y-46154400D03*
D13*
X188367200Y-75654400D03*
D14*
X188367200Y-73114400D03*
X188367200Y-70574400D03*
X188367200Y-68034400D03*
X188367200Y-65494400D03*
X188367200Y-62954400D03*
X188367200Y-60414400D03*
X188367200Y-57874400D03*
X188367200Y-55334400D03*
X188367200Y-52794400D03*
X195987200Y-52794400D03*
X195987200Y-55334400D03*
X195987200Y-57874400D03*
X195987200Y-60414400D03*
X195987200Y-62954400D03*
X195987200Y-65494400D03*
X195987200Y-68034400D03*
X195987200Y-70574400D03*
X195987200Y-73114400D03*
X195987200Y-75654400D03*
D13*
X198867200Y-75654400D03*
D14*
X198867200Y-73114400D03*
X198867200Y-70574400D03*
X198867200Y-68034400D03*
X198867200Y-65494400D03*
X198867200Y-62954400D03*
X198867200Y-60414400D03*
X198867200Y-57874400D03*
X198867200Y-55334400D03*
X198867200Y-52794400D03*
X206487200Y-52794400D03*
X206487200Y-55334400D03*
X206487200Y-57874400D03*
X206487200Y-60414400D03*
X206487200Y-62954400D03*
X206487200Y-65494400D03*
X206487200Y-68034400D03*
X206487200Y-70574400D03*
X206487200Y-73114400D03*
X206487200Y-75654400D03*
D13*
X72867200Y-75654400D03*
D14*
X72867200Y-73114400D03*
X72867200Y-70574400D03*
X72867200Y-68034400D03*
X72867200Y-65494400D03*
X72867200Y-62954400D03*
X72867200Y-60414400D03*
X72867200Y-57874400D03*
X72867200Y-55334400D03*
X72867200Y-52794400D03*
X80487200Y-52794400D03*
X80487200Y-55334400D03*
X80487200Y-57874400D03*
X80487200Y-60414400D03*
X80487200Y-62954400D03*
X80487200Y-65494400D03*
X80487200Y-68034400D03*
X80487200Y-70574400D03*
X80487200Y-73114400D03*
X80487200Y-75654400D03*
D13*
X209367200Y-75654400D03*
D14*
X209367200Y-73114400D03*
X209367200Y-70574400D03*
X209367200Y-68034400D03*
X209367200Y-65494400D03*
X209367200Y-62954400D03*
X209367200Y-60414400D03*
X209367200Y-57874400D03*
X209367200Y-55334400D03*
X209367200Y-52794400D03*
X216987200Y-52794400D03*
X216987200Y-55334400D03*
X216987200Y-57874400D03*
X216987200Y-60414400D03*
X216987200Y-62954400D03*
X216987200Y-65494400D03*
X216987200Y-68034400D03*
X216987200Y-70574400D03*
X216987200Y-73114400D03*
X216987200Y-75654400D03*
D13*
X167367200Y-75654400D03*
D14*
X167367200Y-73114400D03*
X167367200Y-70574400D03*
X167367200Y-68034400D03*
X167367200Y-65494400D03*
X167367200Y-62954400D03*
X167367200Y-60414400D03*
X167367200Y-57874400D03*
X167367200Y-55334400D03*
X167367200Y-52794400D03*
X174987200Y-52794400D03*
X174987200Y-55334400D03*
X174987200Y-57874400D03*
X174987200Y-60414400D03*
X174987200Y-62954400D03*
X174987200Y-65494400D03*
X174987200Y-68034400D03*
X174987200Y-70574400D03*
X174987200Y-73114400D03*
X174987200Y-75654400D03*
D13*
X114867200Y-75654400D03*
D14*
X114867200Y-73114400D03*
X114867200Y-70574400D03*
X114867200Y-68034400D03*
X114867200Y-65494400D03*
X114867200Y-62954400D03*
X114867200Y-60414400D03*
X114867200Y-57874400D03*
X114867200Y-55334400D03*
X114867200Y-52794400D03*
X122487200Y-52794400D03*
X122487200Y-55334400D03*
X122487200Y-57874400D03*
X122487200Y-60414400D03*
X122487200Y-62954400D03*
X122487200Y-65494400D03*
X122487200Y-68034400D03*
X122487200Y-70574400D03*
X122487200Y-73114400D03*
X122487200Y-75654400D03*
D13*
X135867200Y-75654400D03*
D14*
X135867200Y-73114400D03*
X135867200Y-70574400D03*
X135867200Y-68034400D03*
X135867200Y-65494400D03*
X135867200Y-62954400D03*
X135867200Y-60414400D03*
X135867200Y-57874400D03*
X135867200Y-55334400D03*
X135867200Y-52794400D03*
X143487200Y-52794400D03*
X143487200Y-55334400D03*
X143487200Y-57874400D03*
X143487200Y-60414400D03*
X143487200Y-62954400D03*
X143487200Y-65494400D03*
X143487200Y-68034400D03*
X143487200Y-70574400D03*
X143487200Y-73114400D03*
X143487200Y-75654400D03*
D13*
X219867200Y-75654400D03*
D14*
X219867200Y-73114400D03*
X219867200Y-70574400D03*
X219867200Y-68034400D03*
X219867200Y-65494400D03*
X219867200Y-62954400D03*
X219867200Y-60414400D03*
X219867200Y-57874400D03*
X219867200Y-55334400D03*
X219867200Y-52794400D03*
X227487200Y-52794400D03*
X227487200Y-55334400D03*
X227487200Y-57874400D03*
X227487200Y-60414400D03*
X227487200Y-62954400D03*
X227487200Y-65494400D03*
X227487200Y-68034400D03*
X227487200Y-70574400D03*
X227487200Y-73114400D03*
X227487200Y-75654400D03*
D11*
X39827200Y-65654400D03*
D12*
X42367200Y-65654400D03*
D11*
X39827200Y-62654400D03*
D12*
X42367200Y-62654400D03*
D13*
X156867200Y-75654400D03*
D14*
X156867200Y-73114400D03*
X156867200Y-70574400D03*
X156867200Y-68034400D03*
X156867200Y-65494400D03*
X156867200Y-62954400D03*
X156867200Y-60414400D03*
X156867200Y-57874400D03*
X156867200Y-55334400D03*
X156867200Y-52794400D03*
X164487200Y-52794400D03*
X164487200Y-55334400D03*
X164487200Y-57874400D03*
X164487200Y-60414400D03*
X164487200Y-62954400D03*
X164487200Y-65494400D03*
X164487200Y-68034400D03*
X164487200Y-70574400D03*
X164487200Y-73114400D03*
X164487200Y-75654400D03*
D13*
X104367200Y-75654400D03*
D14*
X104367200Y-73114400D03*
X104367200Y-70574400D03*
X104367200Y-68034400D03*
X104367200Y-65494400D03*
X104367200Y-62954400D03*
X104367200Y-60414400D03*
X104367200Y-57874400D03*
X104367200Y-55334400D03*
X104367200Y-52794400D03*
X111987200Y-52794400D03*
X111987200Y-55334400D03*
X111987200Y-57874400D03*
X111987200Y-60414400D03*
X111987200Y-62954400D03*
X111987200Y-65494400D03*
X111987200Y-68034400D03*
X111987200Y-70574400D03*
X111987200Y-73114400D03*
X111987200Y-75654400D03*
D13*
X146367200Y-75654400D03*
D14*
X146367200Y-73114400D03*
X146367200Y-70574400D03*
X146367200Y-68034400D03*
X146367200Y-65494400D03*
X146367200Y-62954400D03*
X146367200Y-60414400D03*
X146367200Y-57874400D03*
X146367200Y-55334400D03*
X146367200Y-52794400D03*
X153987200Y-52794400D03*
X153987200Y-55334400D03*
X153987200Y-57874400D03*
X153987200Y-60414400D03*
X153987200Y-62954400D03*
X153987200Y-65494400D03*
X153987200Y-68034400D03*
X153987200Y-70574400D03*
X153987200Y-73114400D03*
X153987200Y-75654400D03*
D11*
X39827200Y-71654400D03*
D12*
X42367200Y-71654400D03*
D13*
X177867200Y-75654400D03*
D14*
X177867200Y-73114400D03*
X177867200Y-70574400D03*
X177867200Y-68034400D03*
X177867200Y-65494400D03*
X177867200Y-62954400D03*
X177867200Y-60414400D03*
X177867200Y-57874400D03*
X177867200Y-55334400D03*
X177867200Y-52794400D03*
X185487200Y-52794400D03*
X185487200Y-55334400D03*
X185487200Y-57874400D03*
X185487200Y-60414400D03*
X185487200Y-62954400D03*
X185487200Y-65494400D03*
X185487200Y-68034400D03*
X185487200Y-70574400D03*
X185487200Y-73114400D03*
X185487200Y-75654400D03*
D11*
X39827200Y-56654400D03*
D12*
X42367200Y-56654400D03*
D11*
X39827200Y-74654400D03*
D12*
X42367200Y-74654400D03*
D17*
X37367200Y-46154400D03*
M02*
