M48
; DRILL file {KiCad 9.0.5} date 2025-10-23T20:15:36+0200
; FORMAT={-:-/ absolute / metric / decimal}
; #@! TF.CreationDate,2025-10-23T20:15:36+02:00
; #@! TF.GenerationSoftware,Kicad,Pcbnew,9.0.5
; #@! TF.FileFunction,Plated,1,2,PTH
FMAT,2
METRIC
; #@! TA.AperFunction,Plated,PTH,ViaDrill
T1C0.300
; #@! TA.AperFunction,Plated,PTH,ViaDrill
T2C0.500
; #@! TA.AperFunction,Plated,PTH,ComponentDrill
T3C0.900
; #@! TA.AperFunction,Plated,PTH,ComponentDrill
T4C0.914
; #@! TA.AperFunction,Plated,PTH,ComponentDrill
T5C1.000
; #@! TA.AperFunction,Plated,PTH,ComponentDrill
T6C3.200
%
G90
G05
T1
X24.205Y-43.586
X24.205Y-46.888
X24.205Y-52.857
X24.205Y-56.794
X24.332Y-49.682
X24.459Y-41.046
X24.967Y-37.871
X25.983Y-34.315
X26.491Y-37.49
X26.999Y-61.112
X30.555Y-31.648
X30.555Y-37.871
X30.682Y-59.08
X31.825Y-27.076
X33.73Y-41.554
X33.857Y-36.855
X33.857Y-38.252
X33.984Y-35.458
X33.984Y-45.491
X33.984Y-51.968
X33.984Y-53.492
X33.984Y-54.381
X33.984Y-55.524
X33.984Y-57.048
X34.619Y-50.063
X34.746Y-58.064
X34.873Y-26.949
X34.873Y-61.493
X35.0Y-35.458
X35.127Y-31.648
X35.508Y-58.572
X35.635Y-54.889
X35.753Y-56.531
X35.762Y-54.0
X35.826Y-55.715
X35.889Y-50.825
X36.143Y-53.238
X36.778Y-60.012
X37.032Y-33.426
X37.032Y-57.81
X37.286Y-39.014
X37.286Y-45.11
X37.667Y-60.35
X38.302Y-61.834
X38.62Y-48.702
X38.937Y-54.381
X39.064Y-49.809
X39.89Y-48.73
X40.334Y-49.682
X40.461Y-57.175
X41.223Y-48.92
X41.35Y-57.937
X41.631Y-44.729
X41.731Y-49.555
X41.985Y-58.699
X42.112Y-54.381
X42.366Y-53.111
X42.62Y-49.555
X42.747Y-59.207
X43.128Y-51.46
X43.636Y-57.302
X43.89Y-49.428
X43.89Y-50.317
X43.938Y-51.127
X43.956Y-58.572
X44.004Y-52.489
X44.017Y-53.365
X44.017Y-54.254
X44.636Y-30.164
X44.652Y-39.776
X45.16Y-55.035
X46.811Y-58.953
X47.827Y-59.08
X50.367Y-26.949
X52.78Y-33.426
X53.669Y-33.553
X54.558Y-33.553
X55.447Y-33.553
X56.336Y-33.426
X57.225Y-33.553
X58.114Y-33.553
X59.003Y-33.553
X59.892Y-33.299
X61.289Y-33.807
X65.798Y-59.144
X67.258Y-58.953
X67.512Y-57.429
X68.528Y-59.207
X74.624Y-30.251
X75.386Y-26.314
X76.783Y-43.078
X76.783Y-45.618
X76.783Y-48.285
X76.783Y-50.698
X76.783Y-53.238
X76.783Y-55.651
X76.783Y-58.191
X76.91Y-35.331
X76.91Y-37.998
X76.91Y-40.538
X77.164Y-25.298
X77.164Y-30.759
X83.006Y-31.902
X86.054Y-32.029
X87.324Y-42.951
X87.324Y-45.491
X87.324Y-48.158
X87.324Y-50.571
X87.324Y-53.111
X87.324Y-55.524
X87.324Y-58.064
X87.451Y-35.204
X87.451Y-37.871
X87.451Y-40.411
X97.738Y-42.951
X97.738Y-45.491
X97.738Y-48.158
X97.738Y-50.571
X97.738Y-53.111
X97.738Y-55.524
X97.738Y-58.064
X97.865Y-35.204
X97.865Y-37.871
X97.865Y-40.411
X108.279Y-42.951
X108.279Y-45.491
X108.279Y-48.158
X108.279Y-50.571
X108.279Y-53.111
X108.279Y-55.524
X108.279Y-58.064
X108.406Y-35.204
X108.406Y-37.871
X108.406Y-40.411
X118.82Y-43.078
X118.82Y-45.618
X118.82Y-48.285
X118.82Y-50.698
X118.82Y-53.238
X118.82Y-55.651
X118.82Y-58.191
X118.947Y-35.331
X118.947Y-37.998
X118.947Y-40.538
X125.424Y-33.934
T2
X26.364Y-57.937
X26.745Y-59.334
X35.635Y-59.842
X42.366Y-29.362
X46.176Y-55.397
X46.43Y-57.683
X47.7Y-52.857
X49.224Y-50.952
X49.732Y-55.905
X49.732Y-58.318
X50.367Y-52.095
X50.621Y-57.81
X64.21Y-34.442
X64.718Y-35.458
X69.245Y-34.396
X138.505Y-32.664
X143.776Y-27.33
X145.871Y-26.06
X154.276Y-27.965
X164.921Y-27.33
X175.208Y-28.092
X185.876Y-29.108
X196.417Y-29.743
X206.776Y-30.886
T3
X29.616Y-36.31
X29.616Y-39.31
X29.616Y-42.31
X29.616Y-45.31
X29.616Y-48.31
X29.616Y-51.31
X29.616Y-54.31
X29.616Y-57.31
X32.156Y-36.31
X32.156Y-39.31
X32.156Y-42.31
X32.156Y-45.31
X32.156Y-48.31
X32.156Y-51.31
X32.156Y-54.31
X32.156Y-57.31
T4
X52.156Y-35.45
X52.156Y-37.99
X52.156Y-40.53
X52.156Y-43.07
X52.156Y-45.61
X52.156Y-48.15
X52.156Y-50.69
X52.156Y-53.23
X52.156Y-55.77
X52.156Y-58.31
X59.776Y-35.45
X59.776Y-37.99
X59.776Y-40.53
X59.776Y-43.07
X59.776Y-45.61
X59.776Y-48.15
X59.776Y-50.69
X59.776Y-53.23
X59.776Y-55.77
X59.776Y-58.31
X62.656Y-35.45
X62.656Y-37.99
X62.656Y-40.53
X62.656Y-43.07
X62.656Y-45.61
X62.656Y-48.15
X62.656Y-50.69
X62.656Y-53.23
X62.656Y-55.77
X62.656Y-58.31
X70.276Y-35.45
X70.276Y-37.99
X70.276Y-40.53
X70.276Y-43.07
X70.276Y-45.61
X70.276Y-48.15
X70.276Y-50.69
X70.276Y-53.23
X70.276Y-55.77
X70.276Y-58.31
X73.156Y-35.45
X73.156Y-37.99
X73.156Y-40.53
X73.156Y-43.07
X73.156Y-45.61
X73.156Y-48.15
X73.156Y-50.69
X73.156Y-53.23
X73.156Y-55.77
X73.156Y-58.31
X80.776Y-35.45
X80.776Y-37.99
X80.776Y-40.53
X80.776Y-43.07
X80.776Y-45.61
X80.776Y-48.15
X80.776Y-50.69
X80.776Y-53.23
X80.776Y-55.77
X80.776Y-58.31
X83.656Y-35.45
X83.656Y-37.99
X83.656Y-40.53
X83.656Y-43.07
X83.656Y-45.61
X83.656Y-48.15
X83.656Y-50.69
X83.656Y-53.23
X83.656Y-55.77
X83.656Y-58.31
X91.276Y-35.45
X91.276Y-37.99
X91.276Y-40.53
X91.276Y-43.07
X91.276Y-45.61
X91.276Y-48.15
X91.276Y-50.69
X91.276Y-53.23
X91.276Y-55.77
X91.276Y-58.31
X94.156Y-35.45
X94.156Y-37.99
X94.156Y-40.53
X94.156Y-43.07
X94.156Y-45.61
X94.156Y-48.15
X94.156Y-50.69
X94.156Y-53.23
X94.156Y-55.77
X94.156Y-58.31
X101.776Y-35.45
X101.776Y-37.99
X101.776Y-40.53
X101.776Y-43.07
X101.776Y-45.61
X101.776Y-48.15
X101.776Y-50.69
X101.776Y-53.23
X101.776Y-55.77
X101.776Y-58.31
X104.656Y-35.45
X104.656Y-37.99
X104.656Y-40.53
X104.656Y-43.07
X104.656Y-45.61
X104.656Y-48.15
X104.656Y-50.69
X104.656Y-53.23
X104.656Y-55.77
X104.656Y-58.31
X112.276Y-35.45
X112.276Y-37.99
X112.276Y-40.53
X112.276Y-43.07
X112.276Y-45.61
X112.276Y-48.15
X112.276Y-50.69
X112.276Y-53.23
X112.276Y-55.77
X112.276Y-58.31
X115.156Y-35.45
X115.156Y-37.99
X115.156Y-40.53
X115.156Y-43.07
X115.156Y-45.61
X115.156Y-48.15
X115.156Y-50.69
X115.156Y-53.23
X115.156Y-55.77
X115.156Y-58.31
X122.776Y-35.45
X122.776Y-37.99
X122.776Y-40.53
X122.776Y-43.07
X122.776Y-45.61
X122.776Y-48.15
X122.776Y-50.69
X122.776Y-53.23
X122.776Y-55.77
X122.776Y-58.31
X125.656Y-35.45
X125.656Y-37.99
X125.656Y-40.53
X125.656Y-43.07
X125.656Y-45.61
X125.656Y-48.15
X125.656Y-50.69
X125.656Y-53.23
X125.656Y-55.77
X125.656Y-58.31
X133.276Y-35.45
X133.276Y-37.99
X133.276Y-40.53
X133.276Y-43.07
X133.276Y-45.61
X133.276Y-48.15
X133.276Y-50.69
X133.276Y-53.23
X133.276Y-55.77
X133.276Y-58.31
X136.156Y-35.45
X136.156Y-37.99
X136.156Y-40.53
X136.156Y-43.07
X136.156Y-45.61
X136.156Y-48.15
X136.156Y-50.69
X136.156Y-53.23
X136.156Y-55.77
X136.156Y-58.31
X143.776Y-35.45
X143.776Y-37.99
X143.776Y-40.53
X143.776Y-43.07
X143.776Y-45.61
X143.776Y-48.15
X143.776Y-50.69
X143.776Y-53.23
X143.776Y-55.77
X143.776Y-58.31
X146.656Y-35.45
X146.656Y-37.99
X146.656Y-40.53
X146.656Y-43.07
X146.656Y-45.61
X146.656Y-48.15
X146.656Y-50.69
X146.656Y-53.23
X146.656Y-55.77
X146.656Y-58.31
X154.276Y-35.45
X154.276Y-37.99
X154.276Y-40.53
X154.276Y-43.07
X154.276Y-45.61
X154.276Y-48.15
X154.276Y-50.69
X154.276Y-53.23
X154.276Y-55.77
X154.276Y-58.31
X157.156Y-35.45
X157.156Y-37.99
X157.156Y-40.53
X157.156Y-43.07
X157.156Y-45.61
X157.156Y-48.15
X157.156Y-50.69
X157.156Y-53.23
X157.156Y-55.77
X157.156Y-58.31
X164.776Y-35.45
X164.776Y-37.99
X164.776Y-40.53
X164.776Y-43.07
X164.776Y-45.61
X164.776Y-48.15
X164.776Y-50.69
X164.776Y-53.23
X164.776Y-55.77
X164.776Y-58.31
X167.656Y-35.45
X167.656Y-37.99
X167.656Y-40.53
X167.656Y-43.07
X167.656Y-45.61
X167.656Y-48.15
X167.656Y-50.69
X167.656Y-53.23
X167.656Y-55.77
X167.656Y-58.31
X175.276Y-35.45
X175.276Y-37.99
X175.276Y-40.53
X175.276Y-43.07
X175.276Y-45.61
X175.276Y-48.15
X175.276Y-50.69
X175.276Y-53.23
X175.276Y-55.77
X175.276Y-58.31
X178.156Y-35.45
X178.156Y-37.99
X178.156Y-40.53
X178.156Y-43.07
X178.156Y-45.61
X178.156Y-48.15
X178.156Y-50.69
X178.156Y-53.23
X178.156Y-55.77
X178.156Y-58.31
X185.776Y-35.45
X185.776Y-37.99
X185.776Y-40.53
X185.776Y-43.07
X185.776Y-45.61
X185.776Y-48.15
X185.776Y-50.69
X185.776Y-53.23
X185.776Y-55.77
X185.776Y-58.31
X188.656Y-35.45
X188.656Y-37.99
X188.656Y-40.53
X188.656Y-43.07
X188.656Y-45.61
X188.656Y-48.15
X188.656Y-50.69
X188.656Y-53.23
X188.656Y-55.77
X188.656Y-58.31
X196.276Y-35.45
X196.276Y-37.99
X196.276Y-40.53
X196.276Y-43.07
X196.276Y-45.61
X196.276Y-48.15
X196.276Y-50.69
X196.276Y-53.23
X196.276Y-55.77
X196.276Y-58.31
X199.156Y-35.45
X199.156Y-37.99
X199.156Y-40.53
X199.156Y-43.07
X199.156Y-45.61
X199.156Y-48.15
X199.156Y-50.69
X199.156Y-53.23
X199.156Y-55.77
X199.156Y-58.31
X206.776Y-35.45
X206.776Y-37.99
X206.776Y-40.53
X206.776Y-43.07
X206.776Y-45.61
X206.776Y-48.15
X206.776Y-50.69
X206.776Y-53.23
X206.776Y-55.77
X206.776Y-58.31
X209.656Y-35.45
X209.656Y-37.99
X209.656Y-40.53
X209.656Y-43.07
X209.656Y-45.61
X209.656Y-48.15
X209.656Y-50.69
X209.656Y-53.23
X209.656Y-55.77
X209.656Y-58.31
X217.276Y-35.45
X217.276Y-37.99
X217.276Y-40.53
X217.276Y-43.07
X217.276Y-45.61
X217.276Y-48.15
X217.276Y-50.69
X217.276Y-53.23
X217.276Y-55.77
X217.276Y-58.31
T5
X59.496Y-27.77
X59.496Y-30.31
X62.036Y-27.77
X62.036Y-30.31
X64.576Y-27.77
X64.576Y-30.31
X67.116Y-27.77
X67.116Y-30.31
X69.656Y-27.77
X69.656Y-30.31
T6
X27.156Y-28.81
X218.156Y-28.81
M30
