G04 #@! TF.GenerationSoftware,KiCad,Pcbnew,9.0.5*
G04 #@! TF.CreationDate,2025-10-23T19:29:44+02:00*
G04 #@! TF.ProjectId,stencil,7374656e-6369-46c2-9e6b-696361645f70,rev?*
G04 #@! TF.SameCoordinates,Original*
G04 #@! TF.FileFunction,Paste,Bot*
G04 #@! TF.FilePolarity,Positive*
%FSLAX46Y46*%
G04 Gerber Fmt 4.6, Leading zero omitted, Abs format (unit mm)*
G04 Created by KiCad (PCBNEW 9.0.5) date 2025-10-23 19:29:44*
%MOMM*%
%LPD*%
G01*
G04 APERTURE LIST*
G04 Aperture macros list*
%AMRoundRect*
0 Rectangle with rounded corners*
0 $1 Rounding radius*
0 $2 $3 $4 $5 $6 $7 $8 $9 X,Y pos of 4 corners*
0 Add a 4 corners polygon primitive as box body*
4,1,4,$2,$3,$4,$5,$6,$7,$8,$9,$2,$3,0*
0 Add four circle primitives for the rounded corners*
1,1,$1+$1,$2,$3*
1,1,$1+$1,$4,$5*
1,1,$1+$1,$6,$7*
1,1,$1+$1,$8,$9*
0 Add four rect primitives between the rounded corners*
20,1,$1+$1,$2,$3,$4,$5,0*
20,1,$1+$1,$4,$5,$6,$7,0*
20,1,$1+$1,$6,$7,$8,$9,0*
20,1,$1+$1,$8,$9,$2,$3,0*%
G04 Aperture macros list end*
%ADD10RoundRect,0.250000X-0.337500X-0.475000X0.337500X-0.475000X0.337500X0.475000X-0.337500X0.475000X0*%
%ADD11RoundRect,0.250000X0.475000X-0.337500X0.475000X0.337500X-0.475000X0.337500X-0.475000X-0.337500X0*%
%ADD12RoundRect,0.250000X0.337500X0.475000X-0.337500X0.475000X-0.337500X-0.475000X0.337500X-0.475000X0*%
%ADD13RoundRect,0.250000X-0.475000X0.337500X-0.475000X-0.337500X0.475000X-0.337500X0.475000X0.337500X0*%
%ADD14RoundRect,0.250000X0.450000X-0.325000X0.450000X0.325000X-0.450000X0.325000X-0.450000X-0.325000X0*%
%ADD15RoundRect,0.250000X-0.650000X0.412500X-0.650000X-0.412500X0.650000X-0.412500X0.650000X0.412500X0*%
%ADD16RoundRect,0.250000X-0.500000X0.750000X-0.500000X-0.750000X0.500000X-0.750000X0.500000X0.750000X0*%
G04 APERTURE END LIST*
D10*
X259734000Y-66810000D03*
X261809000Y-66810000D03*
X297920000Y-60587000D03*
X299995000Y-60587000D03*
D11*
X303508000Y-66937000D03*
X303508000Y-64862000D03*
D10*
X297920000Y-66810000D03*
X299995000Y-66810000D03*
X297750000Y-49665000D03*
X299825000Y-49665000D03*
D12*
X315700000Y-66810000D03*
X313625000Y-66810000D03*
D10*
X255056500Y-92337000D03*
X257131500Y-92337000D03*
D13*
X271207000Y-59147000D03*
X271207000Y-61222000D03*
D10*
X259734000Y-64778000D03*
X261809000Y-64778000D03*
X297793000Y-55634000D03*
X299868000Y-55634000D03*
D12*
X247733500Y-87384000D03*
X245658500Y-87384000D03*
D10*
X297920000Y-64778000D03*
X299995000Y-64778000D03*
D13*
X315573000Y-53602000D03*
X315573000Y-55677000D03*
D12*
X310239000Y-66810000D03*
X308164000Y-66810000D03*
D10*
X259607000Y-57158000D03*
X261682000Y-57158000D03*
D14*
X303508000Y-62755000D03*
X303508000Y-60705000D03*
D13*
X315573000Y-49622000D03*
X315573000Y-51697000D03*
D10*
X259607000Y-59190000D03*
X261682000Y-59190000D03*
D12*
X247733500Y-90051000D03*
X245658500Y-90051000D03*
D11*
X266762000Y-66323500D03*
X266762000Y-64248500D03*
D10*
X297920000Y-62746000D03*
X299995000Y-62746000D03*
D11*
X263968000Y-62281000D03*
X263968000Y-60206000D03*
D15*
X305794000Y-60802500D03*
X305794000Y-63927500D03*
D13*
X315573000Y-57496000D03*
X315573000Y-59571000D03*
D11*
X268794000Y-66302000D03*
X268794000Y-64227000D03*
D13*
X271207000Y-54215500D03*
X271207000Y-56290500D03*
D10*
X259607000Y-54491000D03*
X261682000Y-54491000D03*
X297793000Y-53602000D03*
X299868000Y-53602000D03*
D13*
X268921000Y-54215500D03*
X268921000Y-56290500D03*
D16*
X49500000Y-35120000D03*
X49500000Y-49420000D03*
X54500000Y-35120000D03*
X54500000Y-49420000D03*
X49500000Y-52120000D03*
X49500000Y-66420000D03*
X54500000Y-52120000D03*
X54500000Y-66420000D03*
M02*
