G04 #@! TF.GenerationSoftware,KiCad,Pcbnew,9.0.5*
G04 #@! TF.CreationDate,2025-10-23T19:29:44+02:00*
G04 #@! TF.ProjectId,stencil,7374656e-6369-46c2-9e6b-696361645f70,rev?*
G04 #@! TF.SameCoordinates,Original*
G04 #@! TF.FileFunction,Paste,Top*
G04 #@! TF.FilePolarity,Positive*
%FSLAX46Y46*%
G04 Gerber Fmt 4.6, Leading zero omitted, Abs format (unit mm)*
G04 Created by KiCad (PCBNEW 9.0.5) date 2025-10-23 19:29:44*
%MOMM*%
%LPD*%
G01*
G04 APERTURE LIST*
G04 Aperture macros list*
%AMRoundRect*
0 Rectangle with rounded corners*
0 $1 Rounding radius*
0 $2 $3 $4 $5 $6 $7 $8 $9 X,Y pos of 4 corners*
0 Add a 4 corners polygon primitive as box body*
4,1,4,$2,$3,$4,$5,$6,$7,$8,$9,$2,$3,0*
0 Add four circle primitives for the rounded corners*
1,1,$1+$1,$2,$3*
1,1,$1+$1,$4,$5*
1,1,$1+$1,$6,$7*
1,1,$1+$1,$8,$9*
0 Add four rect primitives between the rounded corners*
20,1,$1+$1,$2,$3,$4,$5,0*
20,1,$1+$1,$4,$5,$6,$7,0*
20,1,$1+$1,$6,$7,$8,$9,0*
20,1,$1+$1,$8,$9,$2,$3,0*%
G04 Aperture macros list end*
%ADD10RoundRect,0.150000X-0.150000X-0.425000X0.150000X-0.425000X0.150000X0.425000X-0.150000X0.425000X0*%
%ADD11RoundRect,0.075000X-0.075000X-0.500000X0.075000X-0.500000X0.075000X0.500000X-0.075000X0.500000X0*%
%ADD12O,1.000000X2.100000*%
%ADD13O,1.000000X1.800000*%
%ADD14RoundRect,0.250000X0.575000X-0.725000X0.575000X0.725000X-0.575000X0.725000X-0.575000X-0.725000X0*%
%ADD15RoundRect,0.250000X-0.350000X-0.450000X0.350000X-0.450000X0.350000X0.450000X-0.350000X0.450000X0*%
%ADD16RoundRect,0.162500X-0.162500X0.617500X-0.162500X-0.617500X0.162500X-0.617500X0.162500X0.617500X0*%
%ADD17RoundRect,0.250000X-0.475000X0.337500X-0.475000X-0.337500X0.475000X-0.337500X0.475000X0.337500X0*%
%ADD18RoundRect,0.250000X0.350000X0.450000X-0.350000X0.450000X-0.350000X-0.450000X0.350000X-0.450000X0*%
%ADD19RoundRect,0.250000X0.475000X-0.337500X0.475000X0.337500X-0.475000X0.337500X-0.475000X-0.337500X0*%
%ADD20RoundRect,0.250000X-0.450000X0.350000X-0.450000X-0.350000X0.450000X-0.350000X0.450000X0.350000X0*%
%ADD21RoundRect,0.250000X0.337500X0.475000X-0.337500X0.475000X-0.337500X-0.475000X0.337500X-0.475000X0*%
%ADD22RoundRect,0.250000X-0.337500X-0.475000X0.337500X-0.475000X0.337500X0.475000X-0.337500X0.475000X0*%
%ADD23RoundRect,0.225000X0.225000X0.375000X-0.225000X0.375000X-0.225000X-0.375000X0.225000X-0.375000X0*%
%ADD24RoundRect,0.250000X-0.412500X-0.650000X0.412500X-0.650000X0.412500X0.650000X-0.412500X0.650000X0*%
%ADD25RoundRect,0.250000X-0.325000X-0.450000X0.325000X-0.450000X0.325000X0.450000X-0.325000X0.450000X0*%
%ADD26RoundRect,0.112500X1.037500X-0.262500X1.037500X0.262500X-1.037500X0.262500X-1.037500X-0.262500X0*%
%ADD27RoundRect,0.175000X-0.175000X-0.325000X0.175000X-0.325000X0.175000X0.325000X-0.175000X0.325000X0*%
%ADD28RoundRect,0.150000X-0.200000X-0.150000X0.200000X-0.150000X0.200000X0.150000X-0.200000X0.150000X0*%
%ADD29RoundRect,0.232500X0.232500X-0.232500X0.232500X0.232500X-0.232500X0.232500X-0.232500X-0.232500X0*%
%ADD30RoundRect,0.062500X0.062500X-0.375000X0.062500X0.375000X-0.062500X0.375000X-0.062500X-0.375000X0*%
%ADD31RoundRect,0.062500X0.375000X-0.062500X0.375000X0.062500X-0.375000X0.062500X-0.375000X-0.062500X0*%
%ADD32RoundRect,0.250000X0.450000X-0.350000X0.450000X0.350000X-0.450000X0.350000X-0.450000X-0.350000X0*%
%ADD33RoundRect,0.250000X0.650000X-0.412500X0.650000X0.412500X-0.650000X0.412500X-0.650000X-0.412500X0*%
%ADD34RoundRect,0.075000X-0.725000X-0.075000X0.725000X-0.075000X0.725000X0.075000X-0.725000X0.075000X0*%
%ADD35RoundRect,0.075000X-0.075000X-0.725000X0.075000X-0.725000X0.075000X0.725000X-0.075000X0.725000X0*%
%ADD36RoundRect,0.175000X-0.325000X0.175000X-0.325000X-0.175000X0.325000X-0.175000X0.325000X0.175000X0*%
%ADD37RoundRect,0.150000X-0.150000X0.200000X-0.150000X-0.200000X0.150000X-0.200000X0.150000X0.200000X0*%
%ADD38RoundRect,0.250000X0.285000X-0.285000X0.285000X0.285000X-0.285000X0.285000X-0.285000X-0.285000X0*%
%ADD39RoundRect,0.075000X0.075000X-0.662500X0.075000X0.662500X-0.075000X0.662500X-0.075000X-0.662500X0*%
%ADD40RoundRect,0.075000X0.662500X-0.075000X0.662500X0.075000X-0.662500X0.075000X-0.662500X-0.075000X0*%
%ADD41RoundRect,0.250000X1.412500X0.550000X-1.412500X0.550000X-1.412500X-0.550000X1.412500X-0.550000X0*%
%ADD42RoundRect,0.250000X-0.450000X0.325000X-0.450000X-0.325000X0.450000X-0.325000X0.450000X0.325000X0*%
%ADD43RoundRect,0.250000X0.550000X-1.412500X0.550000X1.412500X-0.550000X1.412500X-0.550000X-1.412500X0*%
%ADD44RoundRect,0.087500X0.250000X0.087500X-0.250000X0.087500X-0.250000X-0.087500X0.250000X-0.087500X0*%
%ADD45RoundRect,0.250001X1.074999X-0.462499X1.074999X0.462499X-1.074999X0.462499X-1.074999X-0.462499X0*%
%ADD46RoundRect,0.375000X-0.625000X-0.375000X0.625000X-0.375000X0.625000X0.375000X-0.625000X0.375000X0*%
%ADD47RoundRect,0.500000X-0.500000X-1.400000X0.500000X-1.400000X0.500000X1.400000X-0.500000X1.400000X0*%
%ADD48RoundRect,0.162500X0.162500X-0.617500X0.162500X0.617500X-0.162500X0.617500X-0.162500X-0.617500X0*%
%ADD49RoundRect,0.062500X-0.687500X-0.062500X0.687500X-0.062500X0.687500X0.062500X-0.687500X0.062500X0*%
%ADD50RoundRect,0.062500X-0.062500X-0.687500X0.062500X-0.687500X0.062500X0.687500X-0.062500X0.687500X0*%
G04 APERTURE END LIST*
D10*
X248898000Y-100086000D03*
X249698000Y-100086000D03*
D11*
X250848000Y-100086000D03*
X251848000Y-100086000D03*
X252348000Y-100086000D03*
X253348000Y-100086000D03*
D10*
X254498000Y-100086000D03*
X255298000Y-100086000D03*
X255298000Y-100086000D03*
X254498000Y-100086000D03*
D11*
X253848000Y-100086000D03*
X252848000Y-100086000D03*
X251348000Y-100086000D03*
X250348000Y-100086000D03*
D10*
X249698000Y-100086000D03*
X248898000Y-100086000D03*
D12*
X247778000Y-100661000D03*
D13*
X247778000Y-104841000D03*
D12*
X256418000Y-100661000D03*
D13*
X256418000Y-104841000D03*
D14*
X252284000Y-61686000D03*
X252284000Y-58936000D03*
X250084000Y-58936000D03*
X250084000Y-61686000D03*
D15*
X253824000Y-48268000D03*
X255824000Y-48268000D03*
D16*
X269048000Y-84002000D03*
X268098000Y-84002000D03*
X267148000Y-84002000D03*
X267148000Y-86702000D03*
X268098000Y-86702000D03*
X269048000Y-86702000D03*
D17*
X259904000Y-82409500D03*
X259904000Y-84484500D03*
X259142000Y-70217500D03*
X259142000Y-72292500D03*
X290485600Y-75170500D03*
X290485600Y-77245500D03*
D16*
X291095200Y-69952000D03*
X290145200Y-69952000D03*
X289195200Y-69952000D03*
X289195200Y-72652000D03*
X290145200Y-72652000D03*
X291095200Y-72652000D03*
D18*
X304973000Y-71001000D03*
X302973000Y-71001000D03*
D19*
X311212000Y-45368500D03*
X311212000Y-43293500D03*
D16*
X284984000Y-84002000D03*
X284034000Y-84002000D03*
X283084000Y-84002000D03*
X283084000Y-86702000D03*
X284034000Y-86702000D03*
X284984000Y-86702000D03*
D18*
X282113000Y-41060000D03*
X280113000Y-41060000D03*
D15*
X280908000Y-69985000D03*
X282908000Y-69985000D03*
D20*
X280986000Y-88670000D03*
X280986000Y-90670000D03*
D18*
X249601000Y-97798000D03*
X247601000Y-97798000D03*
D17*
X295083000Y-75319000D03*
X295083000Y-77394000D03*
D20*
X265238000Y-88670000D03*
X265238000Y-90670000D03*
D21*
X251543500Y-64143000D03*
X249468500Y-64143000D03*
D19*
X247712000Y-87935000D03*
X247712000Y-85860000D03*
D22*
X311190500Y-70874000D03*
X313265500Y-70874000D03*
D14*
X304946000Y-76059000D03*
X304946000Y-73309000D03*
X302746000Y-73309000D03*
X302746000Y-76059000D03*
D20*
X320483000Y-78637000D03*
X320483000Y-80637000D03*
D17*
X299528000Y-88632500D03*
X299528000Y-90707500D03*
X292035000Y-86219500D03*
X292035000Y-88294500D03*
D22*
X302808500Y-78494000D03*
X304883500Y-78494000D03*
D16*
X316988000Y-84002000D03*
X316038000Y-84002000D03*
X315088000Y-84002000D03*
X315088000Y-86702000D03*
X316038000Y-86702000D03*
X316988000Y-86702000D03*
D15*
X253824000Y-52332000D03*
X255824000Y-52332000D03*
X276557000Y-52459000D03*
X278557000Y-52459000D03*
D19*
X277557000Y-58344000D03*
X277557000Y-56269000D03*
D15*
X276541000Y-50554000D03*
X278541000Y-50554000D03*
D22*
X273471500Y-68334000D03*
X275546500Y-68334000D03*
D15*
X291162000Y-62238000D03*
X293162000Y-62238000D03*
X277573000Y-63635000D03*
X279573000Y-63635000D03*
D17*
X267778000Y-88632500D03*
X267778000Y-90707500D03*
D16*
X295652000Y-69905000D03*
X294702000Y-69905000D03*
X293752000Y-69905000D03*
X293752000Y-72605000D03*
X294702000Y-72605000D03*
X295652000Y-72605000D03*
D23*
X277555000Y-39282000D03*
X274255000Y-39282000D03*
D24*
X310373000Y-80780000D03*
X313498000Y-80780000D03*
D20*
X312990000Y-88670000D03*
X312990000Y-90670000D03*
D15*
X269715000Y-37856000D03*
X271715000Y-37856000D03*
X247617000Y-93861000D03*
X249617000Y-93861000D03*
D14*
X313074000Y-75932000D03*
X313074000Y-73182000D03*
X310874000Y-73182000D03*
X310874000Y-75932000D03*
D17*
X255332000Y-61200500D03*
X255332000Y-63275500D03*
D18*
X295210000Y-83574000D03*
X293210000Y-83574000D03*
D15*
X291178000Y-60206000D03*
X293178000Y-60206000D03*
D25*
X249989000Y-46236000D03*
X252039000Y-46236000D03*
D17*
X264984000Y-79869500D03*
X264984000Y-81944500D03*
D15*
X291178000Y-52967000D03*
X293178000Y-52967000D03*
D20*
X296988000Y-88670000D03*
X296988000Y-90670000D03*
D17*
X253554000Y-65264500D03*
X253554000Y-67339500D03*
D26*
X243521000Y-58555000D03*
X239711000Y-58555000D03*
X243521000Y-57285000D03*
X239711000Y-57285000D03*
X243521000Y-56015000D03*
X239711000Y-56015000D03*
X243521000Y-54745000D03*
X239711000Y-54745000D03*
X243521000Y-53475000D03*
X239711000Y-53475000D03*
X243521000Y-52205000D03*
X239711000Y-52205000D03*
X243521000Y-50935000D03*
X239711000Y-50935000D03*
D19*
X306386000Y-45368500D03*
X306386000Y-43293500D03*
D17*
X320483000Y-82388000D03*
X320483000Y-84463000D03*
X307148000Y-72503500D03*
X307148000Y-74578500D03*
D27*
X307180000Y-96352000D03*
D28*
X307180000Y-98052000D03*
X309180000Y-98052000D03*
X309180000Y-96152000D03*
D19*
X256983000Y-87554000D03*
X256983000Y-85479000D03*
D22*
X310831000Y-78494000D03*
X312906000Y-78494000D03*
D27*
X275176000Y-96474000D03*
D28*
X275176000Y-98174000D03*
X277176000Y-98174000D03*
X277176000Y-96274000D03*
D25*
X249989000Y-48268000D03*
X252039000Y-48268000D03*
D22*
X301284500Y-45220000D03*
X303359500Y-45220000D03*
D15*
X277573000Y-65540000D03*
X279573000Y-65540000D03*
D29*
X251162000Y-90463500D03*
X252312000Y-90463500D03*
X253462000Y-90463500D03*
X251162000Y-89313500D03*
X252312000Y-89313500D03*
X253462000Y-89313500D03*
X251162000Y-88163500D03*
X252312000Y-88163500D03*
X253462000Y-88163500D03*
D30*
X250562000Y-91751000D03*
X251062000Y-91751000D03*
X251562000Y-91751000D03*
X252062000Y-91751000D03*
X252562000Y-91751000D03*
X253062000Y-91751000D03*
X253562000Y-91751000D03*
X254062000Y-91751000D03*
D31*
X254749500Y-91063500D03*
X254749500Y-90563500D03*
X254749500Y-90063500D03*
X254749500Y-89563500D03*
X254749500Y-89063500D03*
X254749500Y-88563500D03*
X254749500Y-88063500D03*
X254749500Y-87563500D03*
D30*
X254062000Y-86876000D03*
X253562000Y-86876000D03*
X253062000Y-86876000D03*
X252562000Y-86876000D03*
X252062000Y-86876000D03*
X251562000Y-86876000D03*
X251062000Y-86876000D03*
X250562000Y-86876000D03*
D31*
X249874500Y-87563500D03*
X249874500Y-88063500D03*
X249874500Y-88563500D03*
X249874500Y-89063500D03*
X249874500Y-89563500D03*
X249874500Y-90063500D03*
X249874500Y-90563500D03*
X249874500Y-91063500D03*
D15*
X253840000Y-46236000D03*
X255840000Y-46236000D03*
D20*
X320483000Y-73573000D03*
X320483000Y-75573000D03*
D17*
X247966000Y-59147000D03*
X247966000Y-61222000D03*
D25*
X249989000Y-52332000D03*
X252039000Y-52332000D03*
D32*
X320483000Y-70207000D03*
X320483000Y-68207000D03*
D20*
X271080000Y-88670000D03*
X271080000Y-90670000D03*
D17*
X283526000Y-88632500D03*
X283526000Y-90707500D03*
D20*
X287082000Y-88670000D03*
X287082000Y-90670000D03*
D25*
X249989000Y-50300000D03*
X252039000Y-50300000D03*
D33*
X248728000Y-70658500D03*
X248728000Y-67533500D03*
D20*
X303084000Y-88670000D03*
X303084000Y-90670000D03*
D18*
X249585000Y-95766000D03*
X247585000Y-95766000D03*
D24*
X302283500Y-80780000D03*
X305408500Y-80780000D03*
D34*
X257627000Y-54261000D03*
X257627000Y-54761000D03*
X257627000Y-55261000D03*
X257627000Y-55761000D03*
X257627000Y-56261000D03*
X257627000Y-56761000D03*
X257627000Y-57261000D03*
X257627000Y-57761000D03*
X257627000Y-58261000D03*
X257627000Y-58761000D03*
X257627000Y-59261000D03*
X257627000Y-59761000D03*
X257627000Y-60261000D03*
X257627000Y-60761000D03*
X257627000Y-61261000D03*
X257627000Y-61761000D03*
X257627000Y-62261000D03*
X257627000Y-62761000D03*
X257627000Y-63261000D03*
X257627000Y-63761000D03*
X257627000Y-64261000D03*
X257627000Y-64761000D03*
X257627000Y-65261000D03*
X257627000Y-65761000D03*
X257627000Y-66261000D03*
D35*
X259302000Y-67936000D03*
X259802000Y-67936000D03*
X260302000Y-67936000D03*
X260802000Y-67936000D03*
X261302000Y-67936000D03*
X261802000Y-67936000D03*
X262302000Y-67936000D03*
X262802000Y-67936000D03*
X263302000Y-67936000D03*
X263802000Y-67936000D03*
X264302000Y-67936000D03*
X264802000Y-67936000D03*
X265302000Y-67936000D03*
X265802000Y-67936000D03*
X266302000Y-67936000D03*
X266802000Y-67936000D03*
X267302000Y-67936000D03*
X267802000Y-67936000D03*
X268302000Y-67936000D03*
X268802000Y-67936000D03*
X269302000Y-67936000D03*
X269802000Y-67936000D03*
X270302000Y-67936000D03*
X270802000Y-67936000D03*
X271302000Y-67936000D03*
D34*
X272977000Y-66261000D03*
X272977000Y-65761000D03*
X272977000Y-65261000D03*
X272977000Y-64761000D03*
X272977000Y-64261000D03*
X272977000Y-63761000D03*
X272977000Y-63261000D03*
X272977000Y-62761000D03*
X272977000Y-62261000D03*
X272977000Y-61761000D03*
X272977000Y-61261000D03*
X272977000Y-60761000D03*
X272977000Y-60261000D03*
X272977000Y-59761000D03*
X272977000Y-59261000D03*
X272977000Y-58761000D03*
X272977000Y-58261000D03*
X272977000Y-57761000D03*
X272977000Y-57261000D03*
X272977000Y-56761000D03*
X272977000Y-56261000D03*
X272977000Y-55761000D03*
X272977000Y-55261000D03*
X272977000Y-54761000D03*
X272977000Y-54261000D03*
D35*
X271302000Y-52586000D03*
X270802000Y-52586000D03*
X270302000Y-52586000D03*
X269802000Y-52586000D03*
X269302000Y-52586000D03*
X268802000Y-52586000D03*
X268302000Y-52586000D03*
X267802000Y-52586000D03*
X267302000Y-52586000D03*
X266802000Y-52586000D03*
X266302000Y-52586000D03*
X265802000Y-52586000D03*
X265302000Y-52586000D03*
X264802000Y-52586000D03*
X264302000Y-52586000D03*
X263802000Y-52586000D03*
X263302000Y-52586000D03*
X262802000Y-52586000D03*
X262302000Y-52586000D03*
X261802000Y-52586000D03*
X261302000Y-52586000D03*
X260802000Y-52586000D03*
X260302000Y-52586000D03*
X259802000Y-52586000D03*
X259302000Y-52586000D03*
D36*
X255066000Y-93242000D03*
D37*
X253366000Y-93242000D03*
X253366000Y-95242000D03*
X255266000Y-95242000D03*
D15*
X291178000Y-54872000D03*
X293178000Y-54872000D03*
D17*
X247712000Y-89902500D03*
X247712000Y-91977500D03*
D15*
X254840000Y-97798000D03*
X256840000Y-97798000D03*
D17*
X277557000Y-43061000D03*
X277557000Y-45136000D03*
D18*
X282113000Y-37631000D03*
X280113000Y-37631000D03*
D17*
X255586000Y-65264500D03*
X255586000Y-67339500D03*
D15*
X253840000Y-50300000D03*
X255840000Y-50300000D03*
X269715000Y-40806000D03*
X271715000Y-40806000D03*
D20*
X319086000Y-88670000D03*
X319086000Y-90670000D03*
D38*
X305413000Y-59310000D03*
X306743000Y-59310000D03*
X308073000Y-59310000D03*
X305413000Y-57980000D03*
X306743000Y-57980000D03*
X308073000Y-57980000D03*
X305413000Y-56650000D03*
X306743000Y-56650000D03*
X308073000Y-56650000D03*
D39*
X297993000Y-68642500D03*
X298493000Y-68642500D03*
X298993000Y-68642500D03*
X299493000Y-68642500D03*
X299993000Y-68642500D03*
X300493000Y-68642500D03*
X300993000Y-68642500D03*
X301493000Y-68642500D03*
X301993000Y-68642500D03*
X302493000Y-68642500D03*
X302993000Y-68642500D03*
X303493000Y-68642500D03*
X303993000Y-68642500D03*
X304493000Y-68642500D03*
X304993000Y-68642500D03*
X305493000Y-68642500D03*
X305993000Y-68642500D03*
X306493000Y-68642500D03*
X306993000Y-68642500D03*
X307493000Y-68642500D03*
X307993000Y-68642500D03*
X308493000Y-68642500D03*
X308993000Y-68642500D03*
X309493000Y-68642500D03*
X309993000Y-68642500D03*
X310493000Y-68642500D03*
X310993000Y-68642500D03*
X311493000Y-68642500D03*
X311993000Y-68642500D03*
X312493000Y-68642500D03*
X312993000Y-68642500D03*
X313493000Y-68642500D03*
X313993000Y-68642500D03*
X314493000Y-68642500D03*
X314993000Y-68642500D03*
X315493000Y-68642500D03*
D40*
X317405500Y-66730000D03*
X317405500Y-66230000D03*
X317405500Y-65730000D03*
X317405500Y-65230000D03*
X317405500Y-64730000D03*
X317405500Y-64230000D03*
X317405500Y-63730000D03*
X317405500Y-63230000D03*
X317405500Y-62730000D03*
X317405500Y-62230000D03*
X317405500Y-61730000D03*
X317405500Y-61230000D03*
X317405500Y-60730000D03*
X317405500Y-60230000D03*
X317405500Y-59730000D03*
X317405500Y-59230000D03*
X317405500Y-58730000D03*
X317405500Y-58230000D03*
X317405500Y-57730000D03*
X317405500Y-57230000D03*
X317405500Y-56730000D03*
X317405500Y-56230000D03*
X317405500Y-55730000D03*
X317405500Y-55230000D03*
X317405500Y-54730000D03*
X317405500Y-54230000D03*
X317405500Y-53730000D03*
X317405500Y-53230000D03*
X317405500Y-52730000D03*
X317405500Y-52230000D03*
X317405500Y-51730000D03*
X317405500Y-51230000D03*
X317405500Y-50730000D03*
X317405500Y-50230000D03*
X317405500Y-49730000D03*
X317405500Y-49230000D03*
D39*
X315493000Y-47317500D03*
X314993000Y-47317500D03*
X314493000Y-47317500D03*
X313993000Y-47317500D03*
X313493000Y-47317500D03*
X312993000Y-47317500D03*
X312493000Y-47317500D03*
X311993000Y-47317500D03*
X311493000Y-47317500D03*
X310993000Y-47317500D03*
X310493000Y-47317500D03*
X309993000Y-47317500D03*
X309493000Y-47317500D03*
X308993000Y-47317500D03*
X308493000Y-47317500D03*
X307993000Y-47317500D03*
X307493000Y-47317500D03*
X306993000Y-47317500D03*
X306493000Y-47317500D03*
X305993000Y-47317500D03*
X305493000Y-47317500D03*
X304993000Y-47317500D03*
X304493000Y-47317500D03*
X303993000Y-47317500D03*
X303493000Y-47317500D03*
X302993000Y-47317500D03*
X302493000Y-47317500D03*
X301993000Y-47317500D03*
X301493000Y-47317500D03*
X300993000Y-47317500D03*
X300493000Y-47317500D03*
X299993000Y-47317500D03*
X299493000Y-47317500D03*
X298993000Y-47317500D03*
X298493000Y-47317500D03*
X297993000Y-47317500D03*
D40*
X296080500Y-49230000D03*
X296080500Y-49730000D03*
X296080500Y-50230000D03*
X296080500Y-50730000D03*
X296080500Y-51230000D03*
X296080500Y-51730000D03*
X296080500Y-52230000D03*
X296080500Y-52730000D03*
X296080500Y-53230000D03*
X296080500Y-53730000D03*
X296080500Y-54230000D03*
X296080500Y-54730000D03*
X296080500Y-55230000D03*
X296080500Y-55730000D03*
X296080500Y-56230000D03*
X296080500Y-56730000D03*
X296080500Y-57230000D03*
X296080500Y-57730000D03*
X296080500Y-58230000D03*
X296080500Y-58730000D03*
X296080500Y-59230000D03*
X296080500Y-59730000D03*
X296080500Y-60230000D03*
X296080500Y-60730000D03*
X296080500Y-61230000D03*
X296080500Y-61730000D03*
X296080500Y-62230000D03*
X296080500Y-62730000D03*
X296080500Y-63230000D03*
X296080500Y-63730000D03*
X296080500Y-64230000D03*
X296080500Y-64730000D03*
X296080500Y-65230000D03*
X296080500Y-65730000D03*
X296080500Y-66230000D03*
X296080500Y-66730000D03*
D17*
X315530000Y-88654000D03*
X315530000Y-90729000D03*
D16*
X301052000Y-84002000D03*
X300102000Y-84002000D03*
X299152000Y-84002000D03*
X299152000Y-86702000D03*
X300102000Y-86702000D03*
X301052000Y-86702000D03*
D41*
X59481000Y-76752000D03*
X54406000Y-76752000D03*
D22*
X144554500Y-113836000D03*
X146629500Y-113836000D03*
D33*
X53334000Y-92800500D03*
X53334000Y-89675500D03*
D21*
X66619500Y-114344000D03*
X64544500Y-114344000D03*
D32*
X165150000Y-113820000D03*
X165150000Y-111820000D03*
X150164000Y-113820000D03*
X150164000Y-111820000D03*
D20*
X46270000Y-100779000D03*
X46270000Y-102779000D03*
D42*
X68630000Y-112312000D03*
X68630000Y-114362000D03*
D22*
X159562000Y-113836000D03*
X161637000Y-113836000D03*
X104444000Y-113836000D03*
X106519000Y-113836000D03*
D17*
X75229000Y-112508500D03*
X75229000Y-114583500D03*
D19*
X52239000Y-100276500D03*
X52239000Y-98201500D03*
D21*
X81605500Y-114344000D03*
X79530500Y-114344000D03*
D43*
X37896000Y-105705500D03*
X37896000Y-100630500D03*
D42*
X83616000Y-112312000D03*
X83616000Y-114362000D03*
D44*
X49854000Y-99604000D03*
X49854000Y-99104000D03*
X49854000Y-98604000D03*
X48429000Y-98604000D03*
X48429000Y-99104000D03*
X48429000Y-99604000D03*
D33*
X56684000Y-92800500D03*
X56684000Y-89675500D03*
D17*
X43476000Y-95259000D03*
X43476000Y-97334000D03*
D20*
X46270000Y-95318000D03*
X46270000Y-97318000D03*
D32*
X110032000Y-113820000D03*
X110032000Y-111820000D03*
D45*
X58000000Y-99456500D03*
X58000000Y-96481500D03*
D33*
X50596000Y-86150000D03*
X50596000Y-83025000D03*
D43*
X44246000Y-86871000D03*
X44246000Y-81796000D03*
D22*
X119408500Y-113836000D03*
X121483500Y-113836000D03*
D21*
X53911500Y-95000000D03*
X51836500Y-95000000D03*
D46*
X53898000Y-82019500D03*
X53898000Y-84319500D03*
D47*
X60198000Y-84319500D03*
D46*
X53898000Y-86619500D03*
D32*
X125018000Y-113836000D03*
X125018000Y-111836000D03*
D48*
X71043000Y-114308000D03*
X71993000Y-114308000D03*
X72943000Y-114308000D03*
X72943000Y-111608000D03*
X71993000Y-111608000D03*
X71043000Y-111608000D03*
D18*
X52096000Y-102414000D03*
X50096000Y-102414000D03*
D15*
X52980000Y-34536000D03*
X54980000Y-34536000D03*
X52980000Y-38346000D03*
X54980000Y-38346000D03*
X52996000Y-48252000D03*
X54996000Y-48252000D03*
X52996000Y-50284000D03*
X54996000Y-50284000D03*
D18*
X43582000Y-67302000D03*
X41582000Y-67302000D03*
D15*
X52980000Y-44188000D03*
X54980000Y-44188000D03*
X125005000Y-36060000D03*
X127005000Y-36060000D03*
D49*
X46773000Y-55920000D03*
X46773000Y-56320000D03*
X46773000Y-56720000D03*
X46773000Y-57120000D03*
X46773000Y-57520000D03*
X46773000Y-57920000D03*
X46773000Y-58320000D03*
X46773000Y-58720000D03*
X46773000Y-59120000D03*
X46773000Y-59520000D03*
X46773000Y-59920000D03*
X46773000Y-60320000D03*
X46773000Y-60720000D03*
X46773000Y-61120000D03*
X46773000Y-61520000D03*
X46773000Y-61920000D03*
D50*
X47948000Y-63095000D03*
X48348000Y-63095000D03*
X48748000Y-63095000D03*
X49148000Y-63095000D03*
X49548000Y-63095000D03*
X49948000Y-63095000D03*
X50348000Y-63095000D03*
X50748000Y-63095000D03*
X51148000Y-63095000D03*
X51548000Y-63095000D03*
X51948000Y-63095000D03*
X52348000Y-63095000D03*
X52748000Y-63095000D03*
X53148000Y-63095000D03*
X53548000Y-63095000D03*
X53948000Y-63095000D03*
D49*
X55123000Y-61920000D03*
X55123000Y-61520000D03*
X55123000Y-61120000D03*
X55123000Y-60720000D03*
X55123000Y-60320000D03*
X55123000Y-59920000D03*
X55123000Y-59520000D03*
X55123000Y-59120000D03*
X55123000Y-58720000D03*
X55123000Y-58320000D03*
X55123000Y-57920000D03*
X55123000Y-57520000D03*
X55123000Y-57120000D03*
X55123000Y-56720000D03*
X55123000Y-56320000D03*
X55123000Y-55920000D03*
D50*
X53948000Y-54745000D03*
X53548000Y-54745000D03*
X53148000Y-54745000D03*
X52748000Y-54745000D03*
X52348000Y-54745000D03*
X51948000Y-54745000D03*
X51548000Y-54745000D03*
X51148000Y-54745000D03*
X50748000Y-54745000D03*
X50348000Y-54745000D03*
X49948000Y-54745000D03*
X49548000Y-54745000D03*
X49148000Y-54745000D03*
X48748000Y-54745000D03*
X48348000Y-54745000D03*
X47948000Y-54745000D03*
D15*
X52996000Y-42156000D03*
X54996000Y-42156000D03*
D41*
X49537500Y-36770000D03*
X44462500Y-36770000D03*
D17*
X46376000Y-64359500D03*
X46376000Y-66434500D03*
D15*
X52980000Y-36441000D03*
X54980000Y-36441000D03*
X52980000Y-46220000D03*
X54980000Y-46220000D03*
X116115000Y-37330000D03*
X118115000Y-37330000D03*
D18*
X43550000Y-41394000D03*
X41550000Y-41394000D03*
D17*
X57298000Y-61692500D03*
X57298000Y-63767500D03*
D20*
X145563000Y-38235000D03*
X145563000Y-40235000D03*
D15*
X102780000Y-39235000D03*
X104780000Y-39235000D03*
X120560000Y-36695000D03*
X122560000Y-36695000D03*
X98335000Y-39870000D03*
X100335000Y-39870000D03*
D19*
X43582000Y-56401500D03*
X43582000Y-54326500D03*
D15*
X133895000Y-34790000D03*
X135895000Y-34790000D03*
X52980000Y-40251000D03*
X54980000Y-40251000D03*
X111670000Y-37965000D03*
X113670000Y-37965000D03*
X52996000Y-52316000D03*
X54996000Y-52316000D03*
X107225000Y-38600000D03*
X109225000Y-38600000D03*
X129450000Y-35425000D03*
X131450000Y-35425000D03*
M02*
