G04 #@! TF.GenerationSoftware,KiCad,Pcbnew,9.0.5*
G04 #@! TF.CreationDate,2025-10-23T19:29:44+02:00*
G04 #@! TF.ProjectId,stencil,7374656e-6369-46c2-9e6b-696361645f70,rev?*
G04 #@! TF.SameCoordinates,Original*
G04 #@! TF.FileFunction,Soldermask,Top*
G04 #@! TF.FilePolarity,Negative*
%FSLAX46Y46*%
G04 Gerber Fmt 4.6, Leading zero omitted, Abs format (unit mm)*
G04 Created by KiCad (PCBNEW 9.0.5) date 2025-10-23 19:29:44*
%MOMM*%
%LPD*%
G01*
G04 APERTURE LIST*
G04 Aperture macros list*
%AMRoundRect*
0 Rectangle with rounded corners*
0 $1 Rounding radius*
0 $2 $3 $4 $5 $6 $7 $8 $9 X,Y pos of 4 corners*
0 Add a 4 corners polygon primitive as box body*
4,1,4,$2,$3,$4,$5,$6,$7,$8,$9,$2,$3,0*
0 Add four circle primitives for the rounded corners*
1,1,$1+$1,$2,$3*
1,1,$1+$1,$4,$5*
1,1,$1+$1,$6,$7*
1,1,$1+$1,$8,$9*
0 Add four rect primitives between the rounded corners*
20,1,$1+$1,$2,$3,$4,$5,0*
20,1,$1+$1,$4,$5,$6,$7,0*
20,1,$1+$1,$6,$7,$8,$9,0*
20,1,$1+$1,$8,$9,$2,$3,0*%
G04 Aperture macros list end*
%ADD10C,0.650000*%
%ADD11RoundRect,0.150000X-0.150000X-0.425000X0.150000X-0.425000X0.150000X0.425000X-0.150000X0.425000X0*%
%ADD12RoundRect,0.075000X-0.075000X-0.500000X0.075000X-0.500000X0.075000X0.500000X-0.075000X0.500000X0*%
%ADD13O,1.000000X2.100000*%
%ADD14O,1.000000X1.800000*%
%ADD15C,1.500000*%
%ADD16RoundRect,0.250000X0.575000X-0.725000X0.575000X0.725000X-0.575000X0.725000X-0.575000X-0.725000X0*%
%ADD17RoundRect,0.250000X-0.350000X-0.450000X0.350000X-0.450000X0.350000X0.450000X-0.350000X0.450000X0*%
%ADD18RoundRect,0.162500X-0.162500X0.617500X-0.162500X-0.617500X0.162500X-0.617500X0.162500X0.617500X0*%
%ADD19RoundRect,0.250000X-0.475000X0.337500X-0.475000X-0.337500X0.475000X-0.337500X0.475000X0.337500X0*%
%ADD20C,6.400000*%
%ADD21RoundRect,0.250000X0.350000X0.450000X-0.350000X0.450000X-0.350000X-0.450000X0.350000X-0.450000X0*%
%ADD22RoundRect,0.250000X0.475000X-0.337500X0.475000X0.337500X-0.475000X0.337500X-0.475000X-0.337500X0*%
%ADD23RoundRect,0.250000X-0.450000X0.350000X-0.450000X-0.350000X0.450000X-0.350000X0.450000X0.350000X0*%
%ADD24RoundRect,0.250000X-0.600000X-0.600000X0.600000X-0.600000X0.600000X0.600000X-0.600000X0.600000X0*%
%ADD25C,1.700000*%
%ADD26RoundRect,0.250000X0.337500X0.475000X-0.337500X0.475000X-0.337500X-0.475000X0.337500X-0.475000X0*%
%ADD27RoundRect,0.250000X-0.337500X-0.475000X0.337500X-0.475000X0.337500X0.475000X-0.337500X0.475000X0*%
%ADD28RoundRect,0.250000X0.600000X-0.600000X0.600000X0.600000X-0.600000X0.600000X-0.600000X-0.600000X0*%
%ADD29C,2.300000*%
%ADD30C,3.600000*%
%ADD31RoundRect,0.225000X0.225000X0.375000X-0.225000X0.375000X-0.225000X-0.375000X0.225000X-0.375000X0*%
%ADD32RoundRect,0.250000X-0.412500X-0.650000X0.412500X-0.650000X0.412500X0.650000X-0.412500X0.650000X0*%
%ADD33RoundRect,0.250000X-0.325000X-0.450000X0.325000X-0.450000X0.325000X0.450000X-0.325000X0.450000X0*%
%ADD34C,1.200000*%
%ADD35C,1.100000*%
%ADD36RoundRect,0.112500X1.037500X-0.262500X1.037500X0.262500X-1.037500X0.262500X-1.037500X-0.262500X0*%
%ADD37RoundRect,0.175000X-0.175000X-0.325000X0.175000X-0.325000X0.175000X0.325000X-0.175000X0.325000X0*%
%ADD38RoundRect,0.150000X-0.200000X-0.150000X0.200000X-0.150000X0.200000X0.150000X-0.200000X0.150000X0*%
%ADD39RoundRect,0.062500X0.062500X-0.375000X0.062500X0.375000X-0.062500X0.375000X-0.062500X-0.375000X0*%
%ADD40RoundRect,0.062500X0.375000X-0.062500X0.375000X0.062500X-0.375000X0.062500X-0.375000X-0.062500X0*%
%ADD41R,3.450000X3.450000*%
%ADD42RoundRect,0.250000X0.450000X-0.350000X0.450000X0.350000X-0.450000X0.350000X-0.450000X-0.350000X0*%
%ADD43RoundRect,0.250000X0.650000X-0.412500X0.650000X0.412500X-0.650000X0.412500X-0.650000X-0.412500X0*%
%ADD44RoundRect,0.075000X-0.725000X-0.075000X0.725000X-0.075000X0.725000X0.075000X-0.725000X0.075000X0*%
%ADD45RoundRect,0.075000X-0.075000X-0.725000X0.075000X-0.725000X0.075000X0.725000X-0.075000X0.725000X0*%
%ADD46RoundRect,0.175000X-0.325000X0.175000X-0.325000X-0.175000X0.325000X-0.175000X0.325000X0.175000X0*%
%ADD47RoundRect,0.150000X-0.150000X0.200000X-0.150000X-0.200000X0.150000X-0.200000X0.150000X0.200000X0*%
%ADD48RoundRect,0.075000X0.075000X-0.662500X0.075000X0.662500X-0.075000X0.662500X-0.075000X-0.662500X0*%
%ADD49RoundRect,0.075000X0.662500X-0.075000X0.662500X0.075000X-0.662500X0.075000X-0.662500X-0.075000X0*%
%ADD50R,4.000000X4.000000*%
%ADD51RoundRect,0.250000X1.412500X0.550000X-1.412500X0.550000X-1.412500X-0.550000X1.412500X-0.550000X0*%
%ADD52RoundRect,0.249999X-0.850001X-0.850001X0.850001X-0.850001X0.850001X0.850001X-0.850001X0.850001X0*%
%ADD53C,2.200000*%
%ADD54RoundRect,0.250000X-0.450000X0.325000X-0.450000X-0.325000X0.450000X-0.325000X0.450000X0.325000X0*%
%ADD55C,1.800000*%
%ADD56RoundRect,0.250000X0.550000X-1.412500X0.550000X1.412500X-0.550000X1.412500X-0.550000X-1.412500X0*%
%ADD57RoundRect,0.087500X0.250000X0.087500X-0.250000X0.087500X-0.250000X-0.087500X0.250000X-0.087500X0*%
%ADD58RoundRect,0.250001X1.074999X-0.462499X1.074999X0.462499X-1.074999X0.462499X-1.074999X-0.462499X0*%
%ADD59C,2.500000*%
%ADD60RoundRect,0.375000X-0.625000X-0.375000X0.625000X-0.375000X0.625000X0.375000X-0.625000X0.375000X0*%
%ADD61RoundRect,0.500000X-0.500000X-1.400000X0.500000X-1.400000X0.500000X1.400000X-0.500000X1.400000X0*%
%ADD62RoundRect,0.162500X0.162500X-0.617500X0.162500X0.617500X-0.162500X0.617500X-0.162500X-0.617500X0*%
%ADD63RoundRect,1.000000X1.250000X0.000010X-1.250000X0.000010X-1.250000X-0.000010X1.250000X-0.000010X0*%
%ADD64RoundRect,1.000000X1.000000X0.000010X-1.000000X0.000010X-1.000000X-0.000010X1.000000X-0.000010X0*%
%ADD65RoundRect,1.000000X0.000010X1.000000X-0.000010X1.000000X-0.000010X-1.000000X0.000010X-1.000000X0*%
%ADD66R,1.800000X1.800000*%
%ADD67R,1.850000X1.850000*%
%ADD68C,1.850000*%
%ADD69RoundRect,0.062500X-0.687500X-0.062500X0.687500X-0.062500X0.687500X0.062500X-0.687500X0.062500X0*%
%ADD70RoundRect,0.062500X-0.062500X-0.687500X0.062500X-0.687500X0.062500X0.687500X-0.062500X0.687500X0*%
G04 APERTURE END LIST*
D10*
X249208000Y-101161000D03*
X254988000Y-101161000D03*
D11*
X248898000Y-100086000D03*
X249698000Y-100086000D03*
D12*
X250848000Y-100086000D03*
X251848000Y-100086000D03*
X252348000Y-100086000D03*
X253348000Y-100086000D03*
D11*
X254498000Y-100086000D03*
X255298000Y-100086000D03*
X255298000Y-100086000D03*
X254498000Y-100086000D03*
D12*
X253848000Y-100086000D03*
X252848000Y-100086000D03*
X251348000Y-100086000D03*
X250348000Y-100086000D03*
D11*
X249698000Y-100086000D03*
X248898000Y-100086000D03*
D13*
X247778000Y-100661000D03*
D14*
X247778000Y-104841000D03*
D13*
X256418000Y-100661000D03*
D14*
X256418000Y-104841000D03*
D15*
X285558000Y-80272000D03*
D16*
X252284000Y-61686000D03*
X252284000Y-58936000D03*
X250084000Y-58936000D03*
X250084000Y-61686000D03*
D17*
X253824000Y-48268000D03*
X255824000Y-48268000D03*
D18*
X269048000Y-84002000D03*
X268098000Y-84002000D03*
X267148000Y-84002000D03*
X267148000Y-86702000D03*
X268098000Y-86702000D03*
X269048000Y-86702000D03*
D19*
X259904000Y-82409500D03*
X259904000Y-84484500D03*
X259142000Y-70217500D03*
X259142000Y-72292500D03*
X290485600Y-75170500D03*
X290485600Y-77245500D03*
D15*
X292416000Y-79891000D03*
D20*
X240098000Y-38166000D03*
D18*
X291095200Y-69952000D03*
X290145200Y-69952000D03*
X289195200Y-69952000D03*
X289195200Y-72652000D03*
X290145200Y-72652000D03*
X291095200Y-72652000D03*
D21*
X304973000Y-71001000D03*
X302973000Y-71001000D03*
D22*
X311212000Y-45368500D03*
X311212000Y-43293500D03*
D18*
X284984000Y-84002000D03*
X284034000Y-84002000D03*
X283084000Y-84002000D03*
X283084000Y-86702000D03*
X284034000Y-86702000D03*
X284984000Y-86702000D03*
D15*
X300290000Y-77859000D03*
D21*
X282113000Y-41060000D03*
X280113000Y-41060000D03*
D17*
X280908000Y-69985000D03*
X282908000Y-69985000D03*
D23*
X280986000Y-88670000D03*
X280986000Y-90670000D03*
D21*
X249601000Y-97798000D03*
X247601000Y-97798000D03*
D19*
X295083000Y-75319000D03*
X295083000Y-77394000D03*
D24*
X239457000Y-66810000D03*
D25*
X241997000Y-66810000D03*
X239457000Y-69350000D03*
X241997000Y-69350000D03*
X239457000Y-71890000D03*
X241997000Y-71890000D03*
X239457000Y-74430000D03*
X241997000Y-74430000D03*
X239457000Y-76970000D03*
X241997000Y-76970000D03*
X239457000Y-79510000D03*
X241997000Y-79510000D03*
X239457000Y-82050000D03*
X241997000Y-82050000D03*
X239457000Y-84590000D03*
X241997000Y-84590000D03*
X239457000Y-87130000D03*
X241997000Y-87130000D03*
X239457000Y-89670000D03*
X241997000Y-89670000D03*
D23*
X265238000Y-88670000D03*
X265238000Y-90670000D03*
D15*
X316038000Y-42172000D03*
D26*
X251543500Y-64143000D03*
X249468500Y-64143000D03*
D15*
X276519000Y-76462000D03*
D20*
X328098000Y-100166000D03*
D22*
X247712000Y-87935000D03*
X247712000Y-85860000D03*
D24*
X325944000Y-54618000D03*
D25*
X328484000Y-54618000D03*
X325944000Y-57158000D03*
X328484000Y-57158000D03*
X325944000Y-59698000D03*
X328484000Y-59698000D03*
X325944000Y-62238000D03*
X328484000Y-62238000D03*
X325944000Y-64778000D03*
X328484000Y-64778000D03*
D27*
X311190500Y-70874000D03*
X313265500Y-70874000D03*
D16*
X304946000Y-76059000D03*
X304946000Y-73309000D03*
X302746000Y-73309000D03*
X302746000Y-76059000D03*
D15*
X320991000Y-46998000D03*
D23*
X320483000Y-78637000D03*
X320483000Y-80637000D03*
D15*
X312609000Y-40394000D03*
D19*
X299528000Y-88632500D03*
X299528000Y-90707500D03*
X292035000Y-86219500D03*
X292035000Y-88294500D03*
D15*
X285558000Y-76462000D03*
D27*
X302808500Y-78494000D03*
X304883500Y-78494000D03*
D18*
X316988000Y-84002000D03*
X316038000Y-84002000D03*
X315088000Y-84002000D03*
X315088000Y-86702000D03*
X316038000Y-86702000D03*
X316988000Y-86702000D03*
D17*
X253824000Y-52332000D03*
X255824000Y-52332000D03*
D28*
X251903000Y-40267000D03*
D25*
X251903000Y-37727000D03*
X254443000Y-40267000D03*
X254443000Y-37727000D03*
X256983000Y-40267000D03*
X256983000Y-37727000D03*
X259523000Y-40267000D03*
X259523000Y-37727000D03*
X262063000Y-40267000D03*
X262063000Y-37727000D03*
D17*
X276557000Y-52459000D03*
X278557000Y-52459000D03*
D15*
X285304000Y-61730000D03*
D22*
X277557000Y-58344000D03*
X277557000Y-56269000D03*
D17*
X276541000Y-50554000D03*
X278541000Y-50554000D03*
D27*
X273471500Y-68334000D03*
X275546500Y-68334000D03*
D29*
X316098000Y-98166000D03*
D30*
X319398000Y-101466000D03*
X319398000Y-94866000D03*
X312798000Y-101466000D03*
X312798000Y-94866000D03*
D17*
X291162000Y-62238000D03*
X293162000Y-62238000D03*
D15*
X309307000Y-38997000D03*
D17*
X277573000Y-63635000D03*
X279573000Y-63635000D03*
D28*
X289495000Y-40267000D03*
D25*
X289495000Y-37727000D03*
X292035000Y-40267000D03*
X292035000Y-37727000D03*
X294575000Y-40267000D03*
X294575000Y-37727000D03*
X297115000Y-40267000D03*
X297115000Y-37727000D03*
X299655000Y-40267000D03*
X299655000Y-37727000D03*
D19*
X267778000Y-88632500D03*
X267778000Y-90707500D03*
D18*
X295652000Y-69905000D03*
X294702000Y-69905000D03*
X293752000Y-69905000D03*
X293752000Y-72605000D03*
X294702000Y-72605000D03*
X295652000Y-72605000D03*
D15*
X276541000Y-80272000D03*
D31*
X277555000Y-39282000D03*
X274255000Y-39282000D03*
D15*
X288199600Y-64422400D03*
D32*
X310373000Y-80780000D03*
X313498000Y-80780000D03*
D23*
X312990000Y-88670000D03*
X312990000Y-90670000D03*
D17*
X269715000Y-37856000D03*
X271715000Y-37856000D03*
X247617000Y-93861000D03*
X249617000Y-93861000D03*
D16*
X313074000Y-75932000D03*
X313074000Y-73182000D03*
X310874000Y-73182000D03*
X310874000Y-75932000D03*
D19*
X255332000Y-61200500D03*
X255332000Y-63275500D03*
D21*
X295210000Y-83574000D03*
X293210000Y-83574000D03*
D17*
X291178000Y-60206000D03*
X293178000Y-60206000D03*
D33*
X249989000Y-46236000D03*
X252039000Y-46236000D03*
D19*
X264984000Y-79869500D03*
X264984000Y-81944500D03*
D17*
X291178000Y-52967000D03*
X293178000Y-52967000D03*
D23*
X296988000Y-88670000D03*
X296988000Y-90670000D03*
D19*
X253554000Y-65264500D03*
X253554000Y-67339500D03*
D34*
X241616000Y-57920000D03*
D35*
X241616000Y-51570000D03*
D36*
X243521000Y-58555000D03*
X239711000Y-58555000D03*
X243521000Y-57285000D03*
X239711000Y-57285000D03*
X243521000Y-56015000D03*
X239711000Y-56015000D03*
X243521000Y-54745000D03*
X239711000Y-54745000D03*
X243521000Y-53475000D03*
X239711000Y-53475000D03*
X243521000Y-52205000D03*
X239711000Y-52205000D03*
X243521000Y-50935000D03*
X239711000Y-50935000D03*
D22*
X306386000Y-45368500D03*
X306386000Y-43293500D03*
D19*
X320483000Y-82388000D03*
X320483000Y-84463000D03*
D29*
X268098000Y-98166000D03*
D30*
X271398000Y-101466000D03*
X271398000Y-94866000D03*
X264798000Y-101466000D03*
X264798000Y-94866000D03*
D19*
X307148000Y-72503500D03*
X307148000Y-74578500D03*
D15*
X281069000Y-76462000D03*
D29*
X284098000Y-98166000D03*
D30*
X287398000Y-101466000D03*
X287398000Y-94866000D03*
X280798000Y-101466000D03*
X280798000Y-94866000D03*
D37*
X307180000Y-96352000D03*
D38*
X307180000Y-98052000D03*
X309180000Y-98052000D03*
X309180000Y-96152000D03*
D22*
X256983000Y-87554000D03*
X256983000Y-85479000D03*
D15*
X285761200Y-69248400D03*
X281621000Y-47252000D03*
X329246000Y-47125000D03*
D27*
X310831000Y-78494000D03*
X312906000Y-78494000D03*
D37*
X275176000Y-96474000D03*
D38*
X275176000Y-98174000D03*
X277176000Y-98174000D03*
X277176000Y-96274000D03*
D33*
X249989000Y-48268000D03*
X252039000Y-48268000D03*
D29*
X300098000Y-98166000D03*
D30*
X303398000Y-101466000D03*
X303398000Y-94866000D03*
X296798000Y-101466000D03*
X296798000Y-94866000D03*
D15*
X317816000Y-45347000D03*
D27*
X301284500Y-45220000D03*
X303359500Y-45220000D03*
D15*
X271969000Y-76462000D03*
D17*
X277573000Y-65540000D03*
X279573000Y-65540000D03*
D15*
X281113000Y-80272000D03*
D39*
X250562000Y-91751000D03*
X251062000Y-91751000D03*
X251562000Y-91751000D03*
X252062000Y-91751000D03*
X252562000Y-91751000D03*
X253062000Y-91751000D03*
X253562000Y-91751000D03*
X254062000Y-91751000D03*
D40*
X254749500Y-91063500D03*
X254749500Y-90563500D03*
X254749500Y-90063500D03*
X254749500Y-89563500D03*
X254749500Y-89063500D03*
X254749500Y-88563500D03*
X254749500Y-88063500D03*
X254749500Y-87563500D03*
D39*
X254062000Y-86876000D03*
X253562000Y-86876000D03*
X253062000Y-86876000D03*
X252562000Y-86876000D03*
X252062000Y-86876000D03*
X251562000Y-86876000D03*
X251062000Y-86876000D03*
X250562000Y-86876000D03*
D40*
X249874500Y-87563500D03*
X249874500Y-88063500D03*
X249874500Y-88563500D03*
X249874500Y-89063500D03*
X249874500Y-89563500D03*
X249874500Y-90063500D03*
X249874500Y-90563500D03*
X249874500Y-91063500D03*
D41*
X252312000Y-89313500D03*
D17*
X253840000Y-46236000D03*
X255840000Y-46236000D03*
D23*
X320483000Y-73573000D03*
X320483000Y-75573000D03*
D15*
X285812000Y-71763000D03*
D19*
X247966000Y-59147000D03*
X247966000Y-61222000D03*
D33*
X249989000Y-52332000D03*
X252039000Y-52332000D03*
D42*
X320483000Y-70207000D03*
X320483000Y-68207000D03*
D15*
X271969000Y-80272000D03*
D23*
X271080000Y-88670000D03*
X271080000Y-90670000D03*
D19*
X283526000Y-88632500D03*
X283526000Y-90707500D03*
D23*
X287082000Y-88670000D03*
X287082000Y-90670000D03*
D33*
X249989000Y-50300000D03*
X252039000Y-50300000D03*
D43*
X248728000Y-70658500D03*
X248728000Y-67533500D03*
D23*
X303084000Y-88670000D03*
X303084000Y-90670000D03*
D20*
X240098000Y-100166000D03*
D21*
X249585000Y-95766000D03*
X247585000Y-95766000D03*
D15*
X325563000Y-46998000D03*
D32*
X302283500Y-80780000D03*
X305408500Y-80780000D03*
D44*
X257627000Y-54261000D03*
X257627000Y-54761000D03*
X257627000Y-55261000D03*
X257627000Y-55761000D03*
X257627000Y-56261000D03*
X257627000Y-56761000D03*
X257627000Y-57261000D03*
X257627000Y-57761000D03*
X257627000Y-58261000D03*
X257627000Y-58761000D03*
X257627000Y-59261000D03*
X257627000Y-59761000D03*
X257627000Y-60261000D03*
X257627000Y-60761000D03*
X257627000Y-61261000D03*
X257627000Y-61761000D03*
X257627000Y-62261000D03*
X257627000Y-62761000D03*
X257627000Y-63261000D03*
X257627000Y-63761000D03*
X257627000Y-64261000D03*
X257627000Y-64761000D03*
X257627000Y-65261000D03*
X257627000Y-65761000D03*
X257627000Y-66261000D03*
D45*
X259302000Y-67936000D03*
X259802000Y-67936000D03*
X260302000Y-67936000D03*
X260802000Y-67936000D03*
X261302000Y-67936000D03*
X261802000Y-67936000D03*
X262302000Y-67936000D03*
X262802000Y-67936000D03*
X263302000Y-67936000D03*
X263802000Y-67936000D03*
X264302000Y-67936000D03*
X264802000Y-67936000D03*
X265302000Y-67936000D03*
X265802000Y-67936000D03*
X266302000Y-67936000D03*
X266802000Y-67936000D03*
X267302000Y-67936000D03*
X267802000Y-67936000D03*
X268302000Y-67936000D03*
X268802000Y-67936000D03*
X269302000Y-67936000D03*
X269802000Y-67936000D03*
X270302000Y-67936000D03*
X270802000Y-67936000D03*
X271302000Y-67936000D03*
D44*
X272977000Y-66261000D03*
X272977000Y-65761000D03*
X272977000Y-65261000D03*
X272977000Y-64761000D03*
X272977000Y-64261000D03*
X272977000Y-63761000D03*
X272977000Y-63261000D03*
X272977000Y-62761000D03*
X272977000Y-62261000D03*
X272977000Y-61761000D03*
X272977000Y-61261000D03*
X272977000Y-60761000D03*
X272977000Y-60261000D03*
X272977000Y-59761000D03*
X272977000Y-59261000D03*
X272977000Y-58761000D03*
X272977000Y-58261000D03*
X272977000Y-57761000D03*
X272977000Y-57261000D03*
X272977000Y-56761000D03*
X272977000Y-56261000D03*
X272977000Y-55761000D03*
X272977000Y-55261000D03*
X272977000Y-54761000D03*
X272977000Y-54261000D03*
D45*
X271302000Y-52586000D03*
X270802000Y-52586000D03*
X270302000Y-52586000D03*
X269802000Y-52586000D03*
X269302000Y-52586000D03*
X268802000Y-52586000D03*
X268302000Y-52586000D03*
X267802000Y-52586000D03*
X267302000Y-52586000D03*
X266802000Y-52586000D03*
X266302000Y-52586000D03*
X265802000Y-52586000D03*
X265302000Y-52586000D03*
X264802000Y-52586000D03*
X264302000Y-52586000D03*
X263802000Y-52586000D03*
X263302000Y-52586000D03*
X262802000Y-52586000D03*
X262302000Y-52586000D03*
X261802000Y-52586000D03*
X261302000Y-52586000D03*
X260802000Y-52586000D03*
X260302000Y-52586000D03*
X259802000Y-52586000D03*
X259302000Y-52586000D03*
D20*
X328098000Y-38166000D03*
D46*
X255066000Y-93242000D03*
D47*
X253366000Y-93242000D03*
X253366000Y-95242000D03*
X255266000Y-95242000D03*
D17*
X291178000Y-54872000D03*
X293178000Y-54872000D03*
D19*
X247712000Y-89902500D03*
X247712000Y-91977500D03*
D17*
X254840000Y-97798000D03*
X256840000Y-97798000D03*
D19*
X277557000Y-43061000D03*
X277557000Y-45136000D03*
D21*
X282113000Y-37631000D03*
X280113000Y-37631000D03*
D19*
X255586000Y-65264500D03*
X255586000Y-67339500D03*
D17*
X253840000Y-50300000D03*
X255840000Y-50300000D03*
X269715000Y-40806000D03*
X271715000Y-40806000D03*
D23*
X319086000Y-88670000D03*
X319086000Y-90670000D03*
D48*
X297993000Y-68642500D03*
X298493000Y-68642500D03*
X298993000Y-68642500D03*
X299493000Y-68642500D03*
X299993000Y-68642500D03*
X300493000Y-68642500D03*
X300993000Y-68642500D03*
X301493000Y-68642500D03*
X301993000Y-68642500D03*
X302493000Y-68642500D03*
X302993000Y-68642500D03*
X303493000Y-68642500D03*
X303993000Y-68642500D03*
X304493000Y-68642500D03*
X304993000Y-68642500D03*
X305493000Y-68642500D03*
X305993000Y-68642500D03*
X306493000Y-68642500D03*
X306993000Y-68642500D03*
X307493000Y-68642500D03*
X307993000Y-68642500D03*
X308493000Y-68642500D03*
X308993000Y-68642500D03*
X309493000Y-68642500D03*
X309993000Y-68642500D03*
X310493000Y-68642500D03*
X310993000Y-68642500D03*
X311493000Y-68642500D03*
X311993000Y-68642500D03*
X312493000Y-68642500D03*
X312993000Y-68642500D03*
X313493000Y-68642500D03*
X313993000Y-68642500D03*
X314493000Y-68642500D03*
X314993000Y-68642500D03*
X315493000Y-68642500D03*
D49*
X317405500Y-66730000D03*
X317405500Y-66230000D03*
X317405500Y-65730000D03*
X317405500Y-65230000D03*
X317405500Y-64730000D03*
X317405500Y-64230000D03*
X317405500Y-63730000D03*
X317405500Y-63230000D03*
X317405500Y-62730000D03*
X317405500Y-62230000D03*
X317405500Y-61730000D03*
X317405500Y-61230000D03*
X317405500Y-60730000D03*
X317405500Y-60230000D03*
X317405500Y-59730000D03*
X317405500Y-59230000D03*
X317405500Y-58730000D03*
X317405500Y-58230000D03*
X317405500Y-57730000D03*
X317405500Y-57230000D03*
X317405500Y-56730000D03*
X317405500Y-56230000D03*
X317405500Y-55730000D03*
X317405500Y-55230000D03*
X317405500Y-54730000D03*
X317405500Y-54230000D03*
X317405500Y-53730000D03*
X317405500Y-53230000D03*
X317405500Y-52730000D03*
X317405500Y-52230000D03*
X317405500Y-51730000D03*
X317405500Y-51230000D03*
X317405500Y-50730000D03*
X317405500Y-50230000D03*
X317405500Y-49730000D03*
X317405500Y-49230000D03*
D48*
X315493000Y-47317500D03*
X314993000Y-47317500D03*
X314493000Y-47317500D03*
X313993000Y-47317500D03*
X313493000Y-47317500D03*
X312993000Y-47317500D03*
X312493000Y-47317500D03*
X311993000Y-47317500D03*
X311493000Y-47317500D03*
X310993000Y-47317500D03*
X310493000Y-47317500D03*
X309993000Y-47317500D03*
X309493000Y-47317500D03*
X308993000Y-47317500D03*
X308493000Y-47317500D03*
X307993000Y-47317500D03*
X307493000Y-47317500D03*
X306993000Y-47317500D03*
X306493000Y-47317500D03*
X305993000Y-47317500D03*
X305493000Y-47317500D03*
X304993000Y-47317500D03*
X304493000Y-47317500D03*
X303993000Y-47317500D03*
X303493000Y-47317500D03*
X302993000Y-47317500D03*
X302493000Y-47317500D03*
X301993000Y-47317500D03*
X301493000Y-47317500D03*
X300993000Y-47317500D03*
X300493000Y-47317500D03*
X299993000Y-47317500D03*
X299493000Y-47317500D03*
X298993000Y-47317500D03*
X298493000Y-47317500D03*
X297993000Y-47317500D03*
D49*
X296080500Y-49230000D03*
X296080500Y-49730000D03*
X296080500Y-50230000D03*
X296080500Y-50730000D03*
X296080500Y-51230000D03*
X296080500Y-51730000D03*
X296080500Y-52230000D03*
X296080500Y-52730000D03*
X296080500Y-53230000D03*
X296080500Y-53730000D03*
X296080500Y-54230000D03*
X296080500Y-54730000D03*
X296080500Y-55230000D03*
X296080500Y-55730000D03*
X296080500Y-56230000D03*
X296080500Y-56730000D03*
X296080500Y-57230000D03*
X296080500Y-57730000D03*
X296080500Y-58230000D03*
X296080500Y-58730000D03*
X296080500Y-59230000D03*
X296080500Y-59730000D03*
X296080500Y-60230000D03*
X296080500Y-60730000D03*
X296080500Y-61230000D03*
X296080500Y-61730000D03*
X296080500Y-62230000D03*
X296080500Y-62730000D03*
X296080500Y-63230000D03*
X296080500Y-63730000D03*
X296080500Y-64230000D03*
X296080500Y-64730000D03*
X296080500Y-65230000D03*
X296080500Y-65730000D03*
X296080500Y-66230000D03*
X296080500Y-66730000D03*
D50*
X306743000Y-57980000D03*
D19*
X315530000Y-88654000D03*
X315530000Y-90729000D03*
D18*
X301052000Y-84002000D03*
X300102000Y-84002000D03*
X299152000Y-84002000D03*
X299152000Y-86702000D03*
X300102000Y-86702000D03*
X301052000Y-86702000D03*
D15*
X297750000Y-77859000D03*
D51*
X59481000Y-76752000D03*
X54406000Y-76752000D03*
D27*
X144554500Y-113836000D03*
X146629500Y-113836000D03*
D24*
X173273000Y-87384000D03*
D25*
X175813000Y-87384000D03*
X173273000Y-89924000D03*
X175813000Y-89924000D03*
X173273000Y-92464000D03*
X175813000Y-92464000D03*
X173273000Y-95004000D03*
X175813000Y-95004000D03*
X173273000Y-97544000D03*
X175813000Y-97544000D03*
X173273000Y-100084000D03*
X175813000Y-100084000D03*
X173273000Y-102624000D03*
X175813000Y-102624000D03*
X173273000Y-105164000D03*
X175813000Y-105164000D03*
X173273000Y-107704000D03*
X175813000Y-107704000D03*
X173273000Y-110244000D03*
X175813000Y-110244000D03*
D43*
X53334000Y-92800500D03*
X53334000Y-89675500D03*
D26*
X66619500Y-114344000D03*
X64544500Y-114344000D03*
D52*
X37896000Y-110788000D03*
D53*
X48056000Y-110788000D03*
D20*
X38508000Y-77000000D03*
D42*
X165150000Y-113820000D03*
X165150000Y-111820000D03*
X150164000Y-113820000D03*
X150164000Y-111820000D03*
D23*
X46270000Y-100779000D03*
X46270000Y-102779000D03*
D54*
X68630000Y-112312000D03*
X68630000Y-114362000D03*
D27*
X159562000Y-113836000D03*
X161637000Y-113836000D03*
D15*
X61968000Y-118240000D03*
X64508000Y-118240000D03*
X67048000Y-118240000D03*
D55*
X67048000Y-120760000D03*
X61968000Y-120760000D03*
D20*
X176508000Y-121000000D03*
D27*
X104444000Y-113836000D03*
X106519000Y-113836000D03*
D19*
X75229000Y-112508500D03*
X75229000Y-114583500D03*
D22*
X52239000Y-100276500D03*
X52239000Y-98201500D03*
D20*
X176508000Y-77000000D03*
D26*
X81605500Y-114344000D03*
X79530500Y-114344000D03*
D56*
X37896000Y-105705500D03*
X37896000Y-100630500D03*
D20*
X38508000Y-121000000D03*
D54*
X83616000Y-112312000D03*
X83616000Y-114362000D03*
D57*
X49854000Y-99604000D03*
X49854000Y-99104000D03*
X49854000Y-98604000D03*
X48429000Y-98604000D03*
X48429000Y-99104000D03*
X48429000Y-99604000D03*
D43*
X56684000Y-92800500D03*
X56684000Y-89675500D03*
D19*
X43476000Y-95259000D03*
X43476000Y-97334000D03*
D23*
X46270000Y-95318000D03*
X46270000Y-97318000D03*
D42*
X110032000Y-113820000D03*
X110032000Y-111820000D03*
D15*
X116968000Y-118240000D03*
X119508000Y-118240000D03*
X122048000Y-118240000D03*
D55*
X122048000Y-120760000D03*
X116968000Y-120760000D03*
D58*
X58000000Y-99456500D03*
X58000000Y-96481500D03*
D43*
X50596000Y-86150000D03*
X50596000Y-83025000D03*
D56*
X44246000Y-86871000D03*
X44246000Y-81796000D03*
D15*
X156968000Y-118240000D03*
X159508000Y-118240000D03*
X162048000Y-118240000D03*
D55*
X162048000Y-120760000D03*
X156968000Y-120760000D03*
D15*
X101968000Y-118240000D03*
X104508000Y-118240000D03*
X107048000Y-118240000D03*
D55*
X107048000Y-120760000D03*
X101968000Y-120760000D03*
D27*
X119408500Y-113836000D03*
X121483500Y-113836000D03*
D15*
X141968000Y-118240000D03*
X144508000Y-118240000D03*
X147048000Y-118240000D03*
D55*
X147048000Y-120760000D03*
X141968000Y-120760000D03*
D26*
X53911500Y-95000000D03*
X51836500Y-95000000D03*
D59*
X157530000Y-76752000D03*
X151180000Y-76752000D03*
D60*
X53898000Y-82019500D03*
X53898000Y-84319500D03*
D61*
X60198000Y-84319500D03*
D60*
X53898000Y-86619500D03*
D42*
X125018000Y-113836000D03*
X125018000Y-111836000D03*
D59*
X163880000Y-76752000D03*
D62*
X71043000Y-114308000D03*
X71993000Y-114308000D03*
X72943000Y-114308000D03*
X72943000Y-111608000D03*
X71993000Y-111608000D03*
X71043000Y-111608000D03*
D21*
X52096000Y-102414000D03*
X50096000Y-102414000D03*
D15*
X76968000Y-118240000D03*
X79508000Y-118240000D03*
X82048000Y-118240000D03*
D55*
X82048000Y-120760000D03*
X76968000Y-120760000D03*
D63*
X48008000Y-115500000D03*
D64*
X48008000Y-121500000D03*
D65*
X52708000Y-118500000D03*
D17*
X52980000Y-34536000D03*
X54980000Y-34536000D03*
X52980000Y-38346000D03*
X54980000Y-38346000D03*
X52996000Y-48252000D03*
X54996000Y-48252000D03*
X52996000Y-50284000D03*
X54996000Y-50284000D03*
D21*
X43582000Y-67302000D03*
X41582000Y-67302000D03*
D17*
X52980000Y-44188000D03*
X54980000Y-44188000D03*
X125005000Y-36060000D03*
X127005000Y-36060000D03*
D66*
X38960000Y-43770000D03*
D55*
X41500000Y-43770000D03*
D67*
X93000000Y-65770000D03*
D68*
X93000000Y-63230000D03*
X93000000Y-60690000D03*
X93000000Y-58150000D03*
X93000000Y-55610000D03*
X93000000Y-53070000D03*
X93000000Y-50530000D03*
X93000000Y-47990000D03*
X93000000Y-45450000D03*
X93000000Y-42910000D03*
X100620000Y-42910000D03*
X100620000Y-45450000D03*
X100620000Y-47990000D03*
X100620000Y-50530000D03*
X100620000Y-53070000D03*
X100620000Y-55610000D03*
X100620000Y-58150000D03*
X100620000Y-60690000D03*
X100620000Y-63230000D03*
X100620000Y-65770000D03*
D67*
X61500000Y-65770000D03*
D68*
X61500000Y-63230000D03*
X61500000Y-60690000D03*
X61500000Y-58150000D03*
X61500000Y-55610000D03*
X61500000Y-53070000D03*
X61500000Y-50530000D03*
X61500000Y-47990000D03*
X61500000Y-45450000D03*
X61500000Y-42910000D03*
X69120000Y-42910000D03*
X69120000Y-45450000D03*
X69120000Y-47990000D03*
X69120000Y-50530000D03*
X69120000Y-53070000D03*
X69120000Y-55610000D03*
X69120000Y-58150000D03*
X69120000Y-60690000D03*
X69120000Y-63230000D03*
X69120000Y-65770000D03*
D66*
X38960000Y-49770000D03*
D55*
X41500000Y-49770000D03*
D66*
X38960000Y-58770000D03*
D55*
X41500000Y-58770000D03*
D67*
X82500000Y-65770000D03*
D68*
X82500000Y-63230000D03*
X82500000Y-60690000D03*
X82500000Y-58150000D03*
X82500000Y-55610000D03*
X82500000Y-53070000D03*
X82500000Y-50530000D03*
X82500000Y-47990000D03*
X82500000Y-45450000D03*
X82500000Y-42910000D03*
X90120000Y-42910000D03*
X90120000Y-45450000D03*
X90120000Y-47990000D03*
X90120000Y-50530000D03*
X90120000Y-53070000D03*
X90120000Y-55610000D03*
X90120000Y-58150000D03*
X90120000Y-60690000D03*
X90120000Y-63230000D03*
X90120000Y-65770000D03*
D67*
X124500000Y-65770000D03*
D68*
X124500000Y-63230000D03*
X124500000Y-60690000D03*
X124500000Y-58150000D03*
X124500000Y-55610000D03*
X124500000Y-53070000D03*
X124500000Y-50530000D03*
X124500000Y-47990000D03*
X124500000Y-45450000D03*
X124500000Y-42910000D03*
X132120000Y-42910000D03*
X132120000Y-45450000D03*
X132120000Y-47990000D03*
X132120000Y-50530000D03*
X132120000Y-53070000D03*
X132120000Y-55610000D03*
X132120000Y-58150000D03*
X132120000Y-60690000D03*
X132120000Y-63230000D03*
X132120000Y-65770000D03*
D69*
X46773000Y-55920000D03*
X46773000Y-56320000D03*
X46773000Y-56720000D03*
X46773000Y-57120000D03*
X46773000Y-57520000D03*
X46773000Y-57920000D03*
X46773000Y-58320000D03*
X46773000Y-58720000D03*
X46773000Y-59120000D03*
X46773000Y-59520000D03*
X46773000Y-59920000D03*
X46773000Y-60320000D03*
X46773000Y-60720000D03*
X46773000Y-61120000D03*
X46773000Y-61520000D03*
X46773000Y-61920000D03*
D70*
X47948000Y-63095000D03*
X48348000Y-63095000D03*
X48748000Y-63095000D03*
X49148000Y-63095000D03*
X49548000Y-63095000D03*
X49948000Y-63095000D03*
X50348000Y-63095000D03*
X50748000Y-63095000D03*
X51148000Y-63095000D03*
X51548000Y-63095000D03*
X51948000Y-63095000D03*
X52348000Y-63095000D03*
X52748000Y-63095000D03*
X53148000Y-63095000D03*
X53548000Y-63095000D03*
X53948000Y-63095000D03*
D69*
X55123000Y-61920000D03*
X55123000Y-61520000D03*
X55123000Y-61120000D03*
X55123000Y-60720000D03*
X55123000Y-60320000D03*
X55123000Y-59920000D03*
X55123000Y-59520000D03*
X55123000Y-59120000D03*
X55123000Y-58720000D03*
X55123000Y-58320000D03*
X55123000Y-57920000D03*
X55123000Y-57520000D03*
X55123000Y-57120000D03*
X55123000Y-56720000D03*
X55123000Y-56320000D03*
X55123000Y-55920000D03*
D70*
X53948000Y-54745000D03*
X53548000Y-54745000D03*
X53148000Y-54745000D03*
X52748000Y-54745000D03*
X52348000Y-54745000D03*
X51948000Y-54745000D03*
X51548000Y-54745000D03*
X51148000Y-54745000D03*
X50748000Y-54745000D03*
X50348000Y-54745000D03*
X49948000Y-54745000D03*
X49548000Y-54745000D03*
X49148000Y-54745000D03*
X48748000Y-54745000D03*
X48348000Y-54745000D03*
X47948000Y-54745000D03*
D17*
X52996000Y-42156000D03*
X54996000Y-42156000D03*
D51*
X49537500Y-36770000D03*
X44462500Y-36770000D03*
D28*
X68840000Y-37770000D03*
D25*
X68840000Y-35230000D03*
X71380000Y-37770000D03*
X71380000Y-35230000D03*
X73920000Y-37770000D03*
X73920000Y-35230000D03*
X76460000Y-37770000D03*
X76460000Y-35230000D03*
X79000000Y-37770000D03*
X79000000Y-35230000D03*
D19*
X46376000Y-64359500D03*
X46376000Y-66434500D03*
D17*
X52980000Y-36441000D03*
X54980000Y-36441000D03*
X52980000Y-46220000D03*
X54980000Y-46220000D03*
X116115000Y-37330000D03*
X118115000Y-37330000D03*
D21*
X43550000Y-41394000D03*
X41550000Y-41394000D03*
D19*
X57298000Y-61692500D03*
X57298000Y-63767500D03*
D23*
X145563000Y-38235000D03*
X145563000Y-40235000D03*
D17*
X102780000Y-39235000D03*
X104780000Y-39235000D03*
D20*
X227500000Y-36270000D03*
D17*
X120560000Y-36695000D03*
X122560000Y-36695000D03*
X98335000Y-39870000D03*
X100335000Y-39870000D03*
D22*
X43582000Y-56401500D03*
X43582000Y-54326500D03*
D17*
X133895000Y-34790000D03*
X135895000Y-34790000D03*
X52980000Y-40251000D03*
X54980000Y-40251000D03*
X111670000Y-37965000D03*
X113670000Y-37965000D03*
D66*
X38960000Y-55770000D03*
D55*
X41500000Y-55770000D03*
D67*
X114000000Y-65770000D03*
D68*
X114000000Y-63230000D03*
X114000000Y-60690000D03*
X114000000Y-58150000D03*
X114000000Y-55610000D03*
X114000000Y-53070000D03*
X114000000Y-50530000D03*
X114000000Y-47990000D03*
X114000000Y-45450000D03*
X114000000Y-42910000D03*
X121620000Y-42910000D03*
X121620000Y-45450000D03*
X121620000Y-47990000D03*
X121620000Y-50530000D03*
X121620000Y-53070000D03*
X121620000Y-55610000D03*
X121620000Y-58150000D03*
X121620000Y-60690000D03*
X121620000Y-63230000D03*
X121620000Y-65770000D03*
D67*
X135000000Y-65770000D03*
D68*
X135000000Y-63230000D03*
X135000000Y-60690000D03*
X135000000Y-58150000D03*
X135000000Y-55610000D03*
X135000000Y-53070000D03*
X135000000Y-50530000D03*
X135000000Y-47990000D03*
X135000000Y-45450000D03*
X135000000Y-42910000D03*
X142620000Y-42910000D03*
X142620000Y-45450000D03*
X142620000Y-47990000D03*
X142620000Y-50530000D03*
X142620000Y-53070000D03*
X142620000Y-55610000D03*
X142620000Y-58150000D03*
X142620000Y-60690000D03*
X142620000Y-63230000D03*
X142620000Y-65770000D03*
D67*
X72000000Y-65770000D03*
D68*
X72000000Y-63230000D03*
X72000000Y-60690000D03*
X72000000Y-58150000D03*
X72000000Y-55610000D03*
X72000000Y-53070000D03*
X72000000Y-50530000D03*
X72000000Y-47990000D03*
X72000000Y-45450000D03*
X72000000Y-42910000D03*
X79620000Y-42910000D03*
X79620000Y-45450000D03*
X79620000Y-47990000D03*
X79620000Y-50530000D03*
X79620000Y-53070000D03*
X79620000Y-55610000D03*
X79620000Y-58150000D03*
X79620000Y-60690000D03*
X79620000Y-63230000D03*
X79620000Y-65770000D03*
D67*
X208500000Y-65770000D03*
D68*
X208500000Y-63230000D03*
X208500000Y-60690000D03*
X208500000Y-58150000D03*
X208500000Y-55610000D03*
X208500000Y-53070000D03*
X208500000Y-50530000D03*
X208500000Y-47990000D03*
X208500000Y-45450000D03*
X208500000Y-42910000D03*
X216120000Y-42910000D03*
X216120000Y-45450000D03*
X216120000Y-47990000D03*
X216120000Y-50530000D03*
X216120000Y-53070000D03*
X216120000Y-55610000D03*
X216120000Y-58150000D03*
X216120000Y-60690000D03*
X216120000Y-63230000D03*
X216120000Y-65770000D03*
D67*
X166500000Y-65770000D03*
D68*
X166500000Y-63230000D03*
X166500000Y-60690000D03*
X166500000Y-58150000D03*
X166500000Y-55610000D03*
X166500000Y-53070000D03*
X166500000Y-50530000D03*
X166500000Y-47990000D03*
X166500000Y-45450000D03*
X166500000Y-42910000D03*
X174120000Y-42910000D03*
X174120000Y-45450000D03*
X174120000Y-47990000D03*
X174120000Y-50530000D03*
X174120000Y-53070000D03*
X174120000Y-55610000D03*
X174120000Y-58150000D03*
X174120000Y-60690000D03*
X174120000Y-63230000D03*
X174120000Y-65770000D03*
D67*
X198000000Y-65770000D03*
D68*
X198000000Y-63230000D03*
X198000000Y-60690000D03*
X198000000Y-58150000D03*
X198000000Y-55610000D03*
X198000000Y-53070000D03*
X198000000Y-50530000D03*
X198000000Y-47990000D03*
X198000000Y-45450000D03*
X198000000Y-42910000D03*
X205620000Y-42910000D03*
X205620000Y-45450000D03*
X205620000Y-47990000D03*
X205620000Y-50530000D03*
X205620000Y-53070000D03*
X205620000Y-55610000D03*
X205620000Y-58150000D03*
X205620000Y-60690000D03*
X205620000Y-63230000D03*
X205620000Y-65770000D03*
D67*
X187500000Y-65770000D03*
D68*
X187500000Y-63230000D03*
X187500000Y-60690000D03*
X187500000Y-58150000D03*
X187500000Y-55610000D03*
X187500000Y-53070000D03*
X187500000Y-50530000D03*
X187500000Y-47990000D03*
X187500000Y-45450000D03*
X187500000Y-42910000D03*
X195120000Y-42910000D03*
X195120000Y-45450000D03*
X195120000Y-47990000D03*
X195120000Y-50530000D03*
X195120000Y-53070000D03*
X195120000Y-55610000D03*
X195120000Y-58150000D03*
X195120000Y-60690000D03*
X195120000Y-63230000D03*
X195120000Y-65770000D03*
D67*
X219000000Y-65770000D03*
D68*
X219000000Y-63230000D03*
X219000000Y-60690000D03*
X219000000Y-58150000D03*
X219000000Y-55610000D03*
X219000000Y-53070000D03*
X219000000Y-50530000D03*
X219000000Y-47990000D03*
X219000000Y-45450000D03*
X219000000Y-42910000D03*
X226620000Y-42910000D03*
X226620000Y-45450000D03*
X226620000Y-47990000D03*
X226620000Y-50530000D03*
X226620000Y-53070000D03*
X226620000Y-55610000D03*
X226620000Y-58150000D03*
X226620000Y-60690000D03*
X226620000Y-63230000D03*
X226620000Y-65770000D03*
D67*
X103500000Y-65770000D03*
D68*
X103500000Y-63230000D03*
X103500000Y-60690000D03*
X103500000Y-58150000D03*
X103500000Y-55610000D03*
X103500000Y-53070000D03*
X103500000Y-50530000D03*
X103500000Y-47990000D03*
X103500000Y-45450000D03*
X103500000Y-42910000D03*
X111120000Y-42910000D03*
X111120000Y-45450000D03*
X111120000Y-47990000D03*
X111120000Y-50530000D03*
X111120000Y-53070000D03*
X111120000Y-55610000D03*
X111120000Y-58150000D03*
X111120000Y-60690000D03*
X111120000Y-63230000D03*
X111120000Y-65770000D03*
D66*
X38960000Y-52770000D03*
D55*
X41500000Y-52770000D03*
D66*
X38960000Y-46770000D03*
D55*
X41500000Y-46770000D03*
D66*
X38960000Y-64770000D03*
D55*
X41500000Y-64770000D03*
D66*
X38960000Y-61770000D03*
D55*
X41500000Y-61770000D03*
D67*
X177000000Y-65770000D03*
D68*
X177000000Y-63230000D03*
X177000000Y-60690000D03*
X177000000Y-58150000D03*
X177000000Y-55610000D03*
X177000000Y-53070000D03*
X177000000Y-50530000D03*
X177000000Y-47990000D03*
X177000000Y-45450000D03*
X177000000Y-42910000D03*
X184620000Y-42910000D03*
X184620000Y-45450000D03*
X184620000Y-47990000D03*
X184620000Y-50530000D03*
X184620000Y-53070000D03*
X184620000Y-55610000D03*
X184620000Y-58150000D03*
X184620000Y-60690000D03*
X184620000Y-63230000D03*
X184620000Y-65770000D03*
D67*
X156000000Y-65770000D03*
D68*
X156000000Y-63230000D03*
X156000000Y-60690000D03*
X156000000Y-58150000D03*
X156000000Y-55610000D03*
X156000000Y-53070000D03*
X156000000Y-50530000D03*
X156000000Y-47990000D03*
X156000000Y-45450000D03*
X156000000Y-42910000D03*
X163620000Y-42910000D03*
X163620000Y-45450000D03*
X163620000Y-47990000D03*
X163620000Y-50530000D03*
X163620000Y-53070000D03*
X163620000Y-55610000D03*
X163620000Y-58150000D03*
X163620000Y-60690000D03*
X163620000Y-63230000D03*
X163620000Y-65770000D03*
D67*
X145500000Y-65770000D03*
D68*
X145500000Y-63230000D03*
X145500000Y-60690000D03*
X145500000Y-58150000D03*
X145500000Y-55610000D03*
X145500000Y-53070000D03*
X145500000Y-50530000D03*
X145500000Y-47990000D03*
X145500000Y-45450000D03*
X145500000Y-42910000D03*
X153120000Y-42910000D03*
X153120000Y-45450000D03*
X153120000Y-47990000D03*
X153120000Y-50530000D03*
X153120000Y-53070000D03*
X153120000Y-55610000D03*
X153120000Y-58150000D03*
X153120000Y-60690000D03*
X153120000Y-63230000D03*
X153120000Y-65770000D03*
D17*
X52996000Y-52316000D03*
X54996000Y-52316000D03*
X107225000Y-38600000D03*
X109225000Y-38600000D03*
X129450000Y-35425000D03*
X131450000Y-35425000D03*
D20*
X36500000Y-36270000D03*
M02*
